<?xml version="1.0" encoding="UTF-8" standalone="no"?>
<svg version="1.1" width="542.177" height="421.95911" id="svg1096" viewBox="0 0 542.177 421.95911"
    xmlns="http://www.w3.org/2000/svg">
  <defs
     id="defs1100" />
  <path
     d="m 31.523269,-153.71483 c 0,0.6231 -0.1034,1.0357 -0.3092,1.2423 -0.2066,0.2058 -0.5783,0.3092 -1.1211,0.3092 -0.529,0 -0.8922,-0.1034 -1.0939,-0.3051 -0.202,-0.2017 -0.3002,-0.6053 -0.3002,-1.2104 0,-0.6233 0.1024,-1.0357 0.3092,-1.2418 0.2058,-0.2065 0.5781,-0.3097 1.1209,-0.3097 0.5291,0 0.8924,0.099 1.0941,0.3007 0.1968,0.2017 0.3002,0.6095 0.3002,1.2148 z m -6.291,0.4754 c 0,0.1567 -0.009,0.2961 -0.0311,0.4168 -0.0229,0.1263 -0.054,0.2287 -0.0944,0.31 -0.0402,0.0851 -0.09,0.1435 -0.1574,0.1837 -0.0672,0.0401 -0.1385,0.0581 -0.2149,0.0581 h -9.4072 c -0.1206,0 -0.2289,-0.0131 -0.3231,-0.045 -0.0895,-0.0312 -0.1698,-0.0805 -0.233,-0.1526 -0.0672,-0.0671 -0.1163,-0.1698 -0.1477,-0.3002 -0.0319,-0.1297 -0.045,-0.2912 -0.045,-0.4839 0,-0.1754 0.009,-0.328 0.0221,-0.4574 0.0139,-0.1304 0.0411,-0.247 0.0854,-0.3501 0.045,-0.0986 0.1032,-0.1971 0.1706,-0.3003 0.0671,-0.0985 0.1566,-0.206 0.2647,-0.3182 l 3.3986,-3.4977 c 0.789,-0.807 1.417,-1.5286 1.8919,-2.17 0.4757,-0.6364 0.8389,-1.2194 1.099,-1.7486 0.255,-0.5248 0.4255,-1.0004 0.5068,-1.4301 0.0803,-0.4306 0.1207,-0.834 0.1207,-1.2111 0,-0.3766 -0.0625,-0.735 -0.1881,-1.0713 -0.1302,-0.3362 -0.3097,-0.6323 -0.5518,-0.888 -0.2377,-0.256 -0.5379,-0.4577 -0.9012,-0.6053 -0.3584,-0.1477 -0.7759,-0.2239 -1.2466,-0.2239 -0.5511,0 -1.0448,0.0762 -1.4844,0.2239 -0.4346,0.1476 -0.8202,0.3141 -1.1523,0.4887 -0.3272,0.1747 -0.6051,0.3404 -0.8248,0.4888 -0.2199,0.1477 -0.3856,0.2239 -0.4929,0.2239 -0.0633,0 -0.1214,-0.018 -0.1706,-0.0533 -0.0493,-0.036 -0.0895,-0.09 -0.1214,-0.1706 -0.0311,-0.0761 -0.0583,-0.1837 -0.0756,-0.3141 -0.018,-0.1345 -0.027,-0.2912 -0.027,-0.4749 0,-0.1302 0.0041,-0.2426 0.0131,-0.3411 0.009,-0.0942 0.0221,-0.1795 0.045,-0.2508 0.0224,-0.0674 0.0494,-0.1346 0.0854,-0.1976 0.0353,-0.0584 0.1076,-0.1345 0.2107,-0.2289 0.1076,-0.0893 0.2871,-0.2149 0.5472,-0.3716 0.255,-0.1615 0.5822,-0.3141 0.9725,-0.4666 0.3856,-0.1567 0.816,-0.2822 1.2868,-0.3903 0.4666,-0.1026 0.9596,-0.1566 1.4753,-0.1566 0.8251,0 1.5467,0.1165 2.161,0.3493 0.6192,0.2287 1.1302,0.547 1.5384,0.9513 0.4078,0.4034 0.7126,0.8693 0.9146,1.4031 0.2017,0.5338 0.3007,1.1032 0.3007,1.7083 0,0.543 -0.0499,1.0851 -0.1435,1.623 -0.0991,0.5379 -0.3008,1.1211 -0.61,1.7491 -0.3141,0.6275 -0.762,1.3223 -1.3498,2.089 -0.5832,0.7668 -1.363,1.65 -2.3357,2.6505 l -2.6907,2.8113 h 7.3988 c 0.0671,0 0.1345,0.018 0.2017,0.0581 0.0674,0.0402 0.1255,0.0986 0.1698,0.1747 0.0499,0.0813 0.0854,0.1796 0.1083,0.2961 0.0221,0.1166 0.0311,0.2557 0.0311,0.4124 z m 20.3211,-4.5015 c 0,0.9104 -0.1527,1.7172 -0.4622,2.4301 -0.3049,0.7082 -0.7399,1.3048 -1.3002,1.7936 -0.5608,0.4846 -1.2284,0.852 -2.0041,1.108 -0.771,0.2552 -1.632,0.3805 -2.5785,0.3805 -0.5289,0 -1.0267,-0.0353 -1.4975,-0.1117 -0.4754,-0.0723 -0.897,-0.1664 -1.2644,-0.2739 -0.3676,-0.1073 -0.6686,-0.2149 -0.9056,-0.3229 -0.2379,-0.1029 -0.3854,-0.1837 -0.4535,-0.2465 -0.0674,-0.0627 -0.1117,-0.1163 -0.1387,-0.1703 -0.027,-0.0542 -0.0491,-0.1163 -0.0712,-0.1885 -0.0229,-0.0767 -0.0363,-0.1699 -0.0453,-0.2823 -0.0085,-0.1121 -0.0139,-0.251 -0.0139,-0.4085 0,-0.1474 0.0054,-0.2776 0.0183,-0.3985 0.0138,-0.1165 0.0409,-0.2107 0.0764,-0.2868 0.0316,-0.0721 0.0759,-0.1307 0.1209,-0.1616 0.0496,-0.0362 0.1036,-0.054 0.1659,-0.054 0.09,0 0.2246,0.054 0.4085,0.1664 0.1835,0.1071 0.4304,0.2238 0.7394,0.354 0.3141,0.1258 0.6949,0.246 1.1567,0.3584 0.4625,0.1124 1.0045,0.1708 1.6366,0.1708 0.5874,0 1.1253,-0.0725 1.6143,-0.2107 0.4883,-0.1397 0.9148,-0.3594 1.2693,-0.6596 0.3543,-0.2961 0.6321,-0.6683 0.8341,-1.1211 0.2017,-0.4526 0.3002,-0.9995 0.3002,-1.6498 0,-0.5423 -0.0854,-1.0229 -0.256,-1.4394 -0.1698,-0.4165 -0.4347,-0.7618 -0.789,-1.0399 -0.354,-0.2739 -0.8029,-0.4797 -1.3498,-0.6192 -0.5421,-0.1345 -1.1883,-0.2019 -1.9411,-0.2019 -0.5384,0 -0.9958,0.0275 -1.3812,0.0808 -0.3856,0.0499 -0.7447,0.0759 -1.0807,0.0759 -0.2418,0 -0.4165,-0.0582 -0.5243,-0.1696 -0.1032,-0.1124 -0.1574,-0.3323 -0.1574,-0.655 v -6.9277 c 0,-0.2868 0.0674,-0.5019 0.2017,-0.6411 0.1396,-0.1389 0.3323,-0.2109 0.5875,-0.2109 h 7.5375 c 0.0671,0 0.1345,0.0182 0.2019,0.0581 0.0672,0.0414 0.1212,0.0993 0.1662,0.1798 0.0401,0.0762 0.0761,0.1747 0.0983,0.3 0.0221,0.1217 0.0311,0.265 0.0311,0.4307 0,0.3143 -0.0399,0.5608 -0.1253,0.7357 -0.0854,0.1745 -0.2017,0.2599 -0.3542,0.2599 h -6.0847 v 4.7754 c 0.2963,-0.0452 0.5966,-0.0722 0.9058,-0.0812 0.3097,-0.008 0.6635,-0.0132 1.072,-0.0132 0.9369,0 1.7529,0.1166 2.4568,0.3501 0.6995,0.2283 1.2868,0.5601 1.7532,0.9818 0.4711,0.4255 0.8251,0.9413 1.063,1.5469 0.2416,0.6007 0.3632,1.2736 0.3632,2.0089 z m 6.3983,4.0261 c 0,0.6233 -0.1031,1.0357 -0.3092,1.2423 -0.2065,0.2061 -0.5783,0.3092 -1.1209,0.3092 -0.5289,0 -0.8924,-0.1031 -1.0941,-0.3048 -0.2017,-0.2017 -0.3002,-0.6056 -0.3002,-1.2109 0,-0.6234 0.1024,-1.0357 0.3092,-1.2416 0.2058,-0.2063 0.5783,-0.3099 1.1209,-0.3099 0.5292,0 0.8924,0.0992 1.0941,0.3009 0.1971,0.2017 0.3002,0.6097 0.3002,1.2148 z m 14.1647,0.5562 c 0,0.1664 -0.0139,0.3049 -0.0409,0.417 -0.0262,0.1124 -0.0584,0.2063 -0.1026,0.2735 -0.0453,0.0718 -0.0942,0.1209 -0.1523,0.1523 -0.0587,0.0319 -0.1166,0.045 -0.175,0.045 h -8.8782 c -0.0582,0 -0.1163,-0.0131 -0.1703,-0.045 -0.0497,-0.0314 -0.1034,-0.0805 -0.1477,-0.1523 -0.0496,-0.0672 -0.0854,-0.1611 -0.1124,-0.2735 -0.0273,-0.1121 -0.0402,-0.2506 -0.0402,-0.417 0,-0.1569 0.0129,-0.2912 0.0402,-0.4036 0.027,-0.1168 0.0581,-0.2107 0.0983,-0.2825 0.0362,-0.0759 0.0851,-0.1299 0.1435,-0.1703 0.0584,-0.0404 0.1212,-0.0582 0.1886,-0.0582 h 3.5378 v -12.9406 l -3.2867,1.9644 c -0.1657,0.0854 -0.3003,0.1387 -0.4039,0.1564 -0.0981,0.0183 -0.1793,0 -0.2416,-0.0581 -0.0633,-0.0579 -0.1032,-0.1525 -0.1253,-0.2827 -0.0229,-0.1297 -0.0321,-0.2956 -0.0321,-0.4971 0,-0.1484 0.0048,-0.2781 0.0177,-0.3815 0.0144,-0.1075 0.0365,-0.1927 0.0635,-0.2647 0.0268,-0.0674 0.0623,-0.1297 0.1122,-0.1839 0.0443,-0.0492 0.1075,-0.1029 0.1881,-0.1565 l 3.919,-2.5072 c 0.0353,-0.026 0.0764,-0.0491 0.1295,-0.0671 0.0542,-0.0131 0.1214,-0.0309 0.1975,-0.0492 0.0806,-0.018 0.1706,-0.0313 0.2781,-0.036 0.1032,-0.004 0.2331,-0.004 0.3947,-0.004 0.2065,0 0.3853,0.009 0.5245,0.0272 0.1389,0.018 0.2462,0.0401 0.3277,0.0713 0.0801,0.0321 0.1292,0.0723 0.1565,0.1165 0.027,0.0499 0.0401,0.0991 0.0401,0.1526 v 14.9405 h 3.0763 c 0.0718,0 0.1392,0.0178 0.1973,0.0582 0.0626,0.0404 0.1117,0.0944 0.1526,0.1703 0.0401,0.0718 0.0713,0.1657 0.0934,0.2825 0.0231,0.1124 0.0321,0.2467 0.0321,0.4036 z m 13.4472,-3.9767 c 0,0.7754 -0.1346,1.4792 -0.4083,2.1065 -0.2693,0.6233 -0.6588,1.162 -1.1702,1.6096 -0.5066,0.4448 -1.1345,0.79 -1.8786,1.027 -0.7442,0.2428 -1.5824,0.3635 -2.5198,0.3635 -0.5698,0 -1.1031,-0.0445 -1.5965,-0.1389 -0.493,-0.0903 -0.9324,-0.1974 -1.3182,-0.3227 -0.3857,-0.1296 -0.7083,-0.2603 -0.9594,-0.3948 -0.2559,-0.1343 -0.4175,-0.2331 -0.48,-0.291 -0.0672,-0.063 -0.1161,-0.1263 -0.1525,-0.1844 -0.0361,-0.0626 -0.0672,-0.1346 -0.0893,-0.2239 -0.027,-0.0854 -0.0492,-0.1929 -0.0631,-0.3185 -0.0129,-0.1253 -0.0182,-0.2827 -0.0182,-0.4666 0,-0.309 0.0321,-0.5287 0.0946,-0.6501 0.0628,-0.1209 0.1523,-0.1837 0.2689,-0.1837 0.0812,0 0.2418,0.072 0.48,0.2107 0.2377,0.1394 0.5426,0.2869 0.9151,0.4486 0.3715,0.1614 0.807,0.309 1.3087,0.4487 0.4978,0.1382 1.0537,0.2107 1.6634,0.2107 0.592,0 1.1117,-0.0764 1.5603,-0.2246 0.4489,-0.1479 0.8301,-0.3584 1.1343,-0.6323 0.3051,-0.2732 0.534,-0.5963 0.6863,-0.9688 0.1526,-0.3715 0.229,-0.7749 0.229,-1.2143 0,-0.4849 -0.0986,-0.9197 -0.292,-1.3049 -0.1927,-0.3863 -0.4795,-0.7226 -0.8562,-1.0004 -0.3722,-0.2822 -0.8342,-0.4971 -1.3812,-0.6457 -0.5472,-0.1475 -1.17,-0.2239 -1.8649,-0.2239 h -1.668 c -0.0721,0 -0.1436,-0.0138 -0.211,-0.045 -0.0671,-0.0314 -0.125,-0.0805 -0.1742,-0.1525 -0.0501,-0.0672 -0.0903,-0.1618 -0.1214,-0.2732 -0.0314,-0.1122 -0.0496,-0.2599 -0.0496,-0.4446 0,-0.1654 0.0136,-0.2997 0.0404,-0.4121 0.027,-0.1075 0.0632,-0.1929 0.1124,-0.2603 0.0491,-0.0621 0.1024,-0.1115 0.1608,-0.1436 0.063,-0.0309 0.135,-0.0443 0.2107,-0.0443 h 1.4895 c 0.5739,0 1.0938,-0.0759 1.5556,-0.2245 0.4574,-0.1477 0.8472,-0.3633 1.1703,-0.6455 0.318,-0.2778 0.5647,-0.6143 0.7352,-1.0043 0.1701,-0.3898 0.2553,-0.8251 0.2553,-1.3092 0,-0.3499 -0.0582,-0.6815 -0.1706,-1.0046 -0.1117,-0.318 -0.282,-0.5961 -0.5109,-0.8338 -0.2287,-0.2382 -0.5197,-0.4216 -0.8742,-0.5601 -0.3545,-0.1348 -0.7618,-0.2022 -1.2243,-0.2022 -0.5109,0 -0.9729,0.0757 -1.3985,0.2331 -0.4262,0.1526 -0.8029,0.3185 -1.1347,0.4932 -0.3316,0.1752 -0.6095,0.3411 -0.8294,0.4936 -0.2156,0.1565 -0.3723,0.2329 -0.4574,0.2329 -0.0623,0 -0.1166,-0.009 -0.1657,-0.0312 -0.045,-0.0231 -0.0854,-0.0674 -0.1166,-0.1345 -0.0321,-0.0633 -0.0542,-0.1574 -0.0671,-0.274 -0.0139,-0.1163 -0.018,-0.273 -0.018,-0.4661 0,-0.13 0.0041,-0.2467 0.0131,-0.3499 0.009,-0.0985 0.027,-0.1888 0.0543,-0.2598 0.0268,-0.0764 0.053,-0.1436 0.0893,-0.2068 0.036,-0.0582 0.0941,-0.1295 0.1798,-0.2149 0.08,-0.0803 0.2506,-0.2017 0.5017,-0.3584 0.2554,-0.1613 0.57,-0.3141 0.9415,-0.4666 0.372,-0.1567 0.8027,-0.282 1.2873,-0.3903 0.4837,-0.1026 1.0085,-0.1569 1.5691,-0.1569 0.7885,0 1.4792,0.0985 2.076,0.3002 0.5918,0.202 1.0893,0.4888 1.4888,0.8572 0.3988,0.3623 0.6946,0.8021 0.8924,1.3179 0.1966,0.511 0.2959,1.0759 0.2959,1.6992 0,0.5338 -0.072,1.0268 -0.211,1.4883 -0.1391,0.4577 -0.3452,0.8662 -0.6189,1.2202 -0.2689,0.3544 -0.6051,0.6547 -0.9997,0.906 -0.3944,0.2506 -0.8475,0.4212 -1.3632,0.5156 v 0.027 c 0.5829,0.0625 1.1213,0.2107 1.605,0.4389 0.4847,0.2333 0.9014,0.525 1.2515,0.8749 0.3494,0.3494 0.6234,0.7618 0.8204,1.2284 0.1974,0.4708 0.2959,0.9683 0.2959,1.5068 z m 6.4525,3.4205 c 0,0.6233 -0.1036,1.0357 -0.3092,1.2423 -0.2065,0.2061 -0.5783,0.3092 -1.1209,0.3092 -0.5291,0 -0.8924,-0.1031 -1.0941,-0.3048 -0.2019,-0.2017 -0.3002,-0.6056 -0.3002,-1.2109 0,-0.6234 0.1024,-1.0357 0.309,-1.2416 0.206,-0.2063 0.5783,-0.3099 1.1211,-0.3099 0.5289,0 0.8924,0.0992 1.0941,0.3009 0.1966,0.2017 0.3002,0.6097 0.3002,1.2148 z m 16.451201,1.117 c 0,0.071 -0.0182,0.1297 -0.0542,0.1793 -0.0355,0.0445 -0.0939,0.0896 -0.1839,0.1256 -0.085,0.0311 -0.2017,0.0579 -0.3453,0.0761 -0.1477,0.0175 -0.3272,0.0268 -0.5469,0.0268 -0.2107,0 -0.3898,-0.009 -0.538,-0.0268 -0.1476,-0.0182 -0.2644,-0.045 -0.3493,-0.0761 -0.0811,-0.036 -0.1436,-0.0811 -0.184,-0.1256 -0.0406,-0.0496 -0.0588,-0.1083 -0.0588,-0.1793 v -14.7118 h -7.694201 v 14.7118 c 0,0.071 -0.0177,0.1297 -0.0581,0.1793 -0.0402,0.0445 -0.1034,0.0896 -0.1835,0.1256 -0.0856,0.0311 -0.198,0.0579 -0.3416,0.0761 -0.1474,0.0175 -0.3269,0.0268 -0.5469,0.0268 -0.219,0 -0.3988,-0.009 -0.5469,-0.0268 -0.1436,-0.0182 -0.2599,-0.045 -0.3455,-0.0761 -0.0893,-0.036 -0.1472,-0.0811 -0.1835,-0.1256 -0.036,-0.0496 -0.0532,-0.1083 -0.0532,-0.1793 v -15.7566 c 0,-0.3051 0.0761,-0.5379 0.2282,-0.6907 0.1574,-0.1523 0.3501,-0.2287 0.5875,-0.2287 h 10.609101 c 0.2467,0 0.4392,0.0764 0.5781,0.2287 0.1392,0.1528 0.2109,0.3856 0.2109,0.6907 z m 9.6403,0.327 -1.5741,4.3541 c -0.054,0.1387 -0.1886,0.2465 -0.4032,0.3231 -0.2109,0.0761 -0.5384,0.1114 -0.9778,0.1114 -0.2287,0 -0.4124,-0.009 -0.5518,-0.0314 -0.1387,-0.0221 -0.246,-0.0627 -0.3224,-0.1121 -0.0722,-0.0533 -0.1124,-0.1253 -0.1214,-0.211 -0.009,-0.0893 0.0132,-0.1924 0.0633,-0.318 l 1.632,-4.1161 c -0.081,-0.036 -0.1574,-0.0942 -0.2248,-0.1706 -0.0715,-0.0802 -0.1207,-0.1613 -0.1435,-0.2506 l -4.2186,-11.2995 c -0.072,-0.184 -0.1034,-0.3324 -0.1034,-0.4346 0,-0.1085 0.0314,-0.1888 0.1034,-0.2518 0.0713,-0.0623 0.1839,-0.1026 0.3406,-0.1255 0.1565,-0.0222 0.3674,-0.0314 0.6319,-0.0314 0.2601,0 0.4669,0.005 0.6187,0.0182 0.1484,0.0132 0.2644,0.0404 0.354,0.0764 0.0854,0.0314 0.1486,0.0852 0.1885,0.1475 0.0404,0.0674 0.0806,0.1574 0.1256,0.2688 l 3.3765,9.489 h 0.0399 l 3.2561,-9.5379 c 0.0535,-0.1705 0.1163,-0.2781 0.1927,-0.3223 0.071,-0.0502 0.1834,-0.0854 0.3313,-0.1083 0.1523,-0.0222 0.3684,-0.0314 0.6458,-0.0314 0.2464,0 0.4488,0.009 0.6058,0.0314 0.1564,0.0229 0.2727,0.0632 0.3452,0.1255 0.0759,0.063 0.1122,0.1433 0.1122,0.2518 0,0.1022 -0.0273,0.237 -0.0764,0.3942 z m 15.2004,-2.1476 c 0,0.1474 -0.005,0.2778 -0.0141,0.3851 -0.009,0.1127 -0.0224,0.202 -0.0445,0.2781 -0.0229,0.0762 -0.0489,0.1394 -0.081,0.1978 -0.0314,0.0582 -0.0986,0.1436 -0.211,0.2511 -0.107,0.1122 -0.2956,0.2467 -0.5559,0.4122 -0.264,0.1618 -0.5601,0.3092 -0.8873,0.4347 -0.3321,0.1305 -0.6864,0.2336 -1.0718,0.31 -0.3856,0.0803 -0.7846,0.1207 -1.1973,0.1207 -0.852,0 -1.605,-0.1389 -2.2597,-0.4217 -0.6594,-0.278 -1.2109,-0.6853 -1.6498,-1.2233 -0.4445,-0.5384 -0.7805,-1.2024 -1.0136,-1.9824 -0.2331,-0.7846 -0.3499,-1.686 -0.3499,-2.7128 0,-1.1612 0.1436,-2.161 0.4263,-2.9999 0.2871,-0.8342 0.6766,-1.5196 1.1702,-2.0534 0.4976,-0.5333 1.0805,-0.9277 1.7482,-1.1883 0.6727,-0.2552 1.3992,-0.3856 2.1792,-0.3856 0.3773,0 0.7406,0.036 1.0939,0.1075 0.3591,0.0672 0.6824,0.1616 0.9827,0.2737 0.2961,0.1168 0.5649,0.2467 0.7936,0.3995 0.2331,0.1475 0.4034,0.2781 0.5063,0.3806 0.1078,0.1082 0.1796,0.1927 0.2195,0.2508 0.036,0.0633 0.0722,0.1353 0.0992,0.2199 0.0222,0.0811 0.0404,0.1755 0.0492,0.2828 0.009,0.1034 0.0134,0.2382 0.0134,0.3946 0,0.3411 -0.0404,0.5783 -0.1168,0.7175 -0.0803,0.1345 -0.1742,0.2017 -0.291,0.2017 -0.1302,0 -0.2827,-0.072 -0.4533,-0.22 -0.17,-0.1435 -0.3856,-0.3048 -0.6498,-0.4795 -0.2647,-0.1745 -0.5832,-0.3362 -0.9552,-0.48 -0.3723,-0.1482 -0.8122,-0.2195 -1.318,-0.2195 -1.045,0 -1.8474,0.3993 -2.4035,1.2014 -0.5562,0.7983 -0.8343,1.96 -0.8343,3.4797 0,0.7579 0.072,1.426 0.2148,2.0002 0.1487,0.569 0.3591,1.0491 0.6416,1.4342 0.2781,0.3813 0.6233,0.6684 1.0316,0.8562 0.4078,0.1888 0.8739,0.2829 1.399,0.2829 0.5016,0 0.9415,-0.081 1.3177,-0.2377 0.3766,-0.1566 0.6997,-0.3313 0.9778,-0.5248 0.2781,-0.188 0.5112,-0.3586 0.6992,-0.5111 0.1888,-0.1565 0.3324,-0.2329 0.4399,-0.2329 0.0582,0 0.1122,0.018 0.1567,0.0536 0.045,0.0357 0.081,0.0941 0.1124,0.1754 0.0312,0.0851 0.0533,0.1878 0.0672,0.318 0.0129,0.1258 0.0182,0.2781 0.0182,0.453 z m 11.1332,-9.3532 c 0,0.1745 -0.009,0.3229 -0.0268,0.4436 -0.0182,0.1255 -0.0452,0.2245 -0.0854,0.3002 -0.0401,0.0808 -0.0851,0.1394 -0.1345,0.1793 -0.0543,0.0404 -0.1214,0.0584 -0.1974,0.0584 h -3.538 v 10.1923 c 0,0.071 -0.0175,0.1297 -0.0535,0.1793 -0.0358,0.0445 -0.0901,0.0896 -0.1704,0.1256 -0.0807,0.0311 -0.1885,0.0579 -0.3321,0.0761 -0.1386,0.0175 -0.3182,0.0268 -0.5379,0.0268 -0.2148,0 -0.3898,-0.009 -0.5292,-0.0268 -0.1433,-0.0182 -0.2557,-0.045 -0.3365,-0.0761 -0.0849,-0.036 -0.143,-0.0811 -0.1744,-0.1256 -0.0311,-0.0496 -0.045,-0.1083 -0.045,-0.1793 v -10.1923 h -3.5381 c -0.0671,0 -0.1297,-0.018 -0.1876,-0.0584 -0.0584,-0.0399 -0.1034,-0.0985 -0.1394,-0.1793 -0.0311,-0.0757 -0.0625,-0.1791 -0.0854,-0.3044 -0.0221,-0.1253 -0.0311,-0.2778 -0.0311,-0.4537 0,-0.1565 0.009,-0.2949 0.0311,-0.4163 0.0229,-0.1256 0.0543,-0.2287 0.0944,-0.3093 0.0399,-0.0851 0.0852,-0.1435 0.1392,-0.1836 0.0491,-0.0412 0.1117,-0.0589 0.1788,-0.0589 h 9.2551 c 0.0672,0 0.13,0.0177 0.1881,0.0589 0.0587,0.0401 0.1037,0.0985 0.1389,0.1836 0.0319,0.0806 0.0628,0.1876 0.0854,0.3132 0.0227,0.1265 0.0317,0.2693 0.0317,0.4267 z m 11.0618,11.1867 c 0,0.1034 -0.0365,0.1839 -0.1036,0.2377 -0.0713,0.0543 -0.1655,0.0893 -0.2912,0.1168 -0.1214,0.0267 -0.301,0.0404 -0.538,0.0404 -0.2245,0 -0.4082,-0.0137 -0.5425,-0.0404 -0.1346,-0.0275 -0.2331,-0.0625 -0.2964,-0.1168 -0.0625,-0.0538 -0.0941,-0.1302 -0.0941,-0.2377 v -1.1834 c -0.5153,0.5513 -1.0893,0.9817 -1.7265,1.2868 -0.6365,0.3 -1.3089,0.4528 -2.0174,0.4528 -0.6231,0 -1.1883,-0.0803 -1.6902,-0.2421 -0.5027,-0.1613 -0.9324,-0.399 -1.2866,-0.7036 -0.3545,-0.3051 -0.6326,-0.6864 -0.8299,-1.1302 -0.1968,-0.4484 -0.2961,-0.9551 -0.2961,-1.5242 0,-0.6686 0.1343,-1.2467 0.4083,-1.7355 0.2691,-0.4936 0.6588,-0.9012 1.17,-1.2243 0.507,-0.3223 1.1306,-0.5693 1.8649,-0.7308 0.736,-0.1616 1.5654,-0.2421 2.4843,-0.2421 h 1.6321 v -0.9233 c 0,-0.4536 -0.0492,-0.8572 -0.1436,-1.2112 -0.0985,-0.3494 -0.2508,-0.6413 -0.4659,-0.8744 -0.2156,-0.2328 -0.4936,-0.4075 -0.8338,-0.5248 -0.3413,-0.1207 -0.763,-0.1788 -1.2598,-0.1788 -0.534,0 -1.0138,0.0625 -1.4355,0.1927 -0.4255,0.1296 -0.7977,0.269 -1.116,0.4257 -0.3187,0.1577 -0.5878,0.2961 -0.8026,0.4265 -0.2107,0.1295 -0.3725,0.1927 -0.4757,0.1927 -0.0713,0 -0.1345,-0.0182 -0.1834,-0.0542 -0.0535,-0.0312 -0.0986,-0.0854 -0.1389,-0.1567 -0.0409,-0.0672 -0.0672,-0.1572 -0.0852,-0.2647 -0.0182,-0.1117 -0.0272,-0.229 -0.0272,-0.3633 0,-0.2148 0.0131,-0.3895 0.0452,-0.515 0.0312,-0.1258 0.1075,-0.2467 0.2236,-0.3591 0.1168,-0.112 0.3231,-0.2467 0.6104,-0.4039 0.2864,-0.1523 0.6234,-0.2956 0.9995,-0.4256 0.3728,-0.1252 0.7851,-0.2338 1.2331,-0.3179 0.444,-0.0854 0.8968,-0.1263 1.3498,-0.1263 0.8469,0 1.5695,0.0941 2.1654,0.2868 0.5965,0.193 1.0763,0.4798 1.4437,0.8523 0.3681,0.3723 0.6321,0.834 0.7985,1.3861 0.1659,0.5508 0.2513,1.1963 0.2513,1.932 z m -2.1529,-5.4159 h -1.8518 c -0.5914,0 -1.1072,0.0494 -1.5466,0.1519 -0.4346,0.0992 -0.7981,0.2515 -1.09,0.4486 -0.2864,0.1976 -0.4968,0.4307 -0.6365,0.7083 -0.1345,0.278 -0.2017,0.5965 -0.2017,0.9556 0,0.6141 0.1927,1.1032 0.583,1.4654 0.3895,0.3635 0.9328,0.5477 1.6364,0.5477 0.5649,0 1.0948,-0.1435 1.5785,-0.4353 0.4844,-0.2868 0.9954,-0.7306 1.5287,-1.3272 z m 14.851,5.403 c 0,0.071 -0.0134,0.1297 -0.0445,0.1835 -0.0317,0.0542 -0.0852,0.0944 -0.1662,0.1255 -0.0808,0.0309 -0.1878,0.0538 -0.3314,0.072 -0.1396,0.0175 -0.3231,0.0268 -0.5518,0.0268 -0.2151,0 -0.3902,-0.009 -0.5292,-0.0268 -0.1435,-0.0182 -0.2559,-0.0411 -0.3362,-0.072 -0.0854,-0.0311 -0.1435,-0.0713 -0.1749,-0.1255 -0.0317,-0.0492 -0.045,-0.1125 -0.045,-0.1835 v -4.973 h -1.2462 c -0.5431,0 -0.964,0.045 -1.2691,0.1301 -0.3009,0.0893 -0.5737,0.2329 -0.8114,0.4399 -0.2423,0.2056 -0.4576,0.4705 -0.6506,0.7885 -0.1927,0.3185 -0.3763,0.7088 -0.551,1.1754 l -0.9596,2.3085 c -0.045,0.1124 -0.09,0.2068 -0.1436,0.2739 -0.0542,0.0715 -0.1301,0.1256 -0.2284,0.1657 -0.0988,0.0401 -0.2292,0.0674 -0.3815,0.0813 -0.1526,0.0129 -0.3406,0.0175 -0.5691,0.0175 -0.1618,0 -0.3095,-0.005 -0.4348,-0.0137 -0.1265,-0.009 -0.2338,-0.0221 -0.3231,-0.045 -0.0854,-0.0221 -0.1525,-0.0581 -0.1929,-0.1073 -0.045,-0.045 -0.0672,-0.1075 -0.0672,-0.1746 0,-0.0633 0.0222,-0.1614 0.0713,-0.2964 0.0492,-0.1343 0.1484,-0.372 0.2961,-0.7124 l 0.9465,-2.2201 c 0.2459,-0.5601 0.5469,-1.0447 0.9053,-1.4483 0.3591,-0.4073 0.7715,-0.7083 1.2376,-0.901 -0.852,-0.1567 -1.5245,-0.4978 -2.0315,-1.0182 -0.5019,-0.5245 -0.7528,-1.215 -0.7528,-2.0753 0,-0.5698 0.1166,-1.0854 0.3543,-1.5474 0.2379,-0.4618 0.5832,-0.8516 1.0447,-1.1705 0.4572,-0.3224 1.0221,-0.5691 1.6946,-0.7397 0.6686,-0.1698 1.435,-0.2552 2.3052,-0.2552 0.2061,0 0.4528,0.004 0.7256,0.0131 0.2781,0.009 0.561,0.0222 0.852,0.0402 0.2963,0.0182 0.5791,0.0362 0.8571,0.0584 0.2733,0.0229 0.511,0.0409 0.7127,0.0581 0.2644,0.0273 0.4618,0.1212 0.5922,0.2922 0.1294,0.1655 0.1968,0.3723 0.1968,0.6141 z m -2.1792,-10.5687 c -0.3139,-0.045 -0.6363,-0.0761 -0.9681,-0.0895 -0.3275,-0.0137 -0.6326,-0.018 -0.9146,-0.018 -0.5922,0 -1.0849,0.0494 -1.4802,0.1528 -0.3986,0.0983 -0.7129,0.2459 -0.9547,0.4345 -0.2375,0.1888 -0.4085,0.4126 -0.5068,0.6681 -0.1034,0.2511 -0.1523,0.5333 -0.1523,0.8433 0,0.3133 0.0579,0.6004 0.1744,0.8513 0.1212,0.2518 0.2961,0.4627 0.5382,0.6323 0.2377,0.1706 0.5472,0.3049 0.9192,0.3944 0.3773,0.0944 0.897,0.1394 1.5695,0.1394 h 1.7754 z m 23.7601,3.4476 c 0,0.3372 -0.0404,0.579 -0.1258,0.7357 -0.0802,0.1526 -0.2055,0.2289 -0.3722,0.2289 h -12.6309 c -0.1659,0 -0.2866,-0.0763 -0.3676,-0.2289 -0.0764,-0.1567 -0.1163,-0.3985 -0.1163,-0.7357 0,-0.3222 0.0399,-0.5601 0.1163,-0.7168 0.081,-0.1523 0.2017,-0.2287 0.3676,-0.2287 h 12.6309 c 0.0764,0 0.1484,0.018 0.2156,0.0584 0.0671,0.0401 0.1167,0.0983 0.1566,0.1703 0.0404,0.0764 0.0723,0.1749 0.0944,0.2912 0.0224,0.1166 0.0314,0.2601 0.0314,0.4256 z m 17.7293,3.7176 c 0,0.6231 -0.1163,1.1793 -0.354,1.6632 -0.238,0.4888 -0.5871,0.8929 -1.0538,1.2245 -0.462,0.327 -1.0401,0.5783 -1.7305,0.7486 -0.6954,0.1704 -1.5027,0.256 -2.4218,0.256 -0.2871,0 -0.5691,0 -0.8382,-0.005 -0.2735,-0.004 -0.538,-0.0132 -0.789,-0.0263 -0.256,-0.0136 -0.5066,-0.0319 -0.7579,-0.0496 -0.2467,-0.0137 -0.4976,-0.0358 -0.7404,-0.0626 -0.3532,-0.045 -0.6092,-0.1617 -0.7749,-0.3501 -0.1664,-0.1878 -0.2518,-0.4659 -0.2518,-0.834 v -10.1782 c 0,-0.3589 0.0815,-0.6365 0.2428,-0.8294 0.1611,-0.1927 0.4124,-0.3049 0.744,-0.3411 0.2285,-0.0273 0.4708,-0.0494 0.7307,-0.0672 0.2557,-0.0131 0.5206,-0.0313 0.7936,-0.0442 0.2742,-0.0139 0.5523,-0.0229 0.8433,-0.0322 0.2866,-0.009 0.5781,-0.0129 0.8788,-0.0129 0.8522,0 1.587,0.0713 2.2062,0.2107 0.6233,0.1385 1.1384,0.3453 1.551,0.6141 0.4124,0.2733 0.7175,0.6054 0.9151,0.9998 0.1968,0.3946 0.2959,0.8432 0.2959,1.3498 0,0.6632 -0.1796,1.2325 -0.5338,1.7084 -0.3543,0.4706 -0.8788,0.8068 -1.5696,1.0085 0.8659,0.1839 1.5204,0.5379 1.96,1.0627 0.4346,0.5292 0.6543,1.1886 0.6543,1.9866 z m -2.6094,-5.484 c 0,-0.2868 -0.0543,-0.5418 -0.1569,-0.771 -0.1078,-0.2238 -0.2779,-0.4173 -0.5205,-0.574 -0.2418,-0.1566 -0.5561,-0.2732 -0.9364,-0.3544 -0.3813,-0.0762 -0.8433,-0.1163 -1.3902,-0.1163 -0.4127,0 -0.7895,0.009 -1.1302,0.0313 -0.3452,0.0224 -0.6321,0.0492 -0.87,0.0721 v 3.6633 h 2.2109 c 0.9055,0 1.596,-0.1664 2.0756,-0.5026 0.48,-0.3363 0.7177,-0.8204 0.7177,-1.4484 z m 0.3764,5.5151 c 0,-0.3494 -0.0626,-0.6586 -0.184,-0.9235 -0.1209,-0.2689 -0.318,-0.4886 -0.5829,-0.6633 -0.2689,-0.1749 -0.6092,-0.3048 -1.0267,-0.3944 -0.4127,-0.0856 -0.9056,-0.1306 -1.4754,-0.1306 h -2.1116 v 4.1881 c 0.1657,0.0271 0.3414,0.0446 0.5199,0.0584 0.1796,0.0129 0.3633,0.0273 0.5518,0.0402 0.1886,0.0131 0.3723,0.0224 0.5601,0.0314 0.1886,0.009 0.3635,0.0138 0.5209,0.0138 0.5691,0 1.053,-0.0494 1.4571,-0.1528 0.4034,-0.0985 0.735,-0.2467 1.0039,-0.4394 0.2649,-0.1924 0.462,-0.4255 0.5829,-0.6994 0.1214,-0.2781 0.184,-0.5871 0.184,-0.9285 z m 16.3848,-2.6809 c 0,0.9635 -0.1256,1.8518 -0.3813,2.6627 -0.2513,0.808 -0.6326,1.5075 -1.1345,2.0945 -0.5027,0.5876 -1.1343,1.0448 -1.8878,1.3723 -0.7578,0.327 -1.6366,0.4929 -2.632,0.4929 -0.9732,0 -1.8206,-0.1436 -2.5427,-0.4348 -0.7219,-0.2871 -1.3223,-0.7085 -1.8019,-1.2598 -0.48,-0.5516 -0.8389,-1.224 -1.0766,-2.0092 -0.237,-0.7887 -0.3545,-1.6809 -0.3545,-2.6809 0,-0.9642 0.1265,-1.8522 0.3725,-2.6595 0.2509,-0.8109 0.6282,-1.5104 1.1299,-2.098 0.5022,-0.5875 1.1301,-1.0403 1.8831,-1.3676 0.7535,-0.3233 1.6328,-0.4846 2.6367,-0.4846 0.9734,0 1.8206,0.1433 2.5422,0.4352 0.7226,0.2871 1.3228,0.7088 1.8026,1.2599 0.4796,0.552 0.8431,1.2196 1.0851,2.0089 0.2377,0.7892 0.3592,1.6763 0.3592,2.668 z m -2.2605,0.1384 c 0,-0.6411 -0.0582,-1.2464 -0.1794,-1.8155 -0.1165,-0.569 -0.3136,-1.0671 -0.587,-1.4975 -0.2691,-0.4306 -0.6419,-0.7715 -1.1073,-1.0174 -0.462,-0.2521 -1.045,-0.3774 -1.7403,-0.3774 -0.6406,0 -1.1924,0.1122 -1.654,0.3409 -0.462,0.2289 -0.8389,0.5513 -1.1391,0.9685 -0.3002,0.417 -0.5202,0.9105 -0.6637,1.4798 -0.1477,0.57 -0.2195,1.1929 -0.2195,1.8656 0,0.6496 0.0579,1.2593 0.1793,1.8286 0.1163,0.5699 0.3136,1.0679 0.5915,1.4934 0.2781,0.4217 0.6503,0.7628 1.1119,1.0087 0.4666,0.2511 1.0496,0.3774 1.7442,0.3774 0.6326,0 1.1795,-0.1124 1.6462,-0.3411 0.4659,-0.229 0.8471,-0.5469 1.1481,-0.9593 0.3,-0.4129 0.5199,-0.9063 0.6588,-1.4754 0.139,-0.5693 0.2103,-1.1975 0.2103,-1.8793 z m 16.447,-0.1384 c 0,0.9635 -0.1253,1.8518 -0.381,2.6627 -0.2513,0.808 -0.6326,1.5075 -1.1345,2.0945 -0.5026,0.5876 -1.134,1.0448 -1.8878,1.3723 -0.7578,0.327 -1.6366,0.4929 -2.6315,0.4929 -0.9737,0 -1.8206,-0.1436 -2.5432,-0.4348 -0.7219,-0.2871 -1.3218,-0.7085 -1.8016,-1.2598 -0.4798,-0.5516 -0.8389,-1.224 -1.0771,-2.0092 -0.2368,-0.7887 -0.354,-1.6809 -0.354,-2.6809 0,-0.9642 0.126,-1.8522 0.3722,-2.6595 0.2509,-0.8109 0.6282,-1.5104 1.1299,-2.098 0.5022,-0.5875 1.1301,-1.0403 1.8832,-1.3676 0.7535,-0.3233 1.6327,-0.4846 2.6366,-0.4846 0.9734,0 1.8206,0.1433 2.5422,0.4352 0.7226,0.2871 1.3229,0.7088 1.8026,1.2599 0.4801,0.552 0.8428,1.2196 1.0852,2.0089 0.2377,0.7892 0.3588,1.6763 0.3588,2.668 z m -2.26,0.1384 c 0,-0.6411 -0.0584,-1.2464 -0.1793,-1.8155 -0.1168,-0.569 -0.3139,-1.0671 -0.5876,-1.4975 -0.2688,-0.4306 -0.6411,-0.7715 -1.107,-1.0174 -0.462,-0.2521 -1.045,-0.3774 -1.7403,-0.3774 -0.6404,0 -1.1924,0.1122 -1.654,0.3409 -0.4617,0.2289 -0.8389,0.5513 -1.1391,0.9685 -0.3002,0.417 -0.5202,0.9105 -0.6635,1.4798 -0.1479,0.57 -0.2197,1.1929 -0.2197,1.8656 0,0.6496 0.0579,1.2593 0.1793,1.8286 0.1163,0.5699 0.3134,1.0679 0.5915,1.4934 0.2781,0.4217 0.6503,0.7628 1.1121,1.0087 0.4664,0.2511 1.0494,0.3774 1.7445,0.3774 0.6321,0 1.1788,-0.1124 1.6457,-0.3411 0.4659,-0.229 0.8471,-0.5469 1.1481,-0.9593 0.3002,-0.4129 0.5199,-0.9063 0.6586,-1.4754 0.1392,-0.5693 0.2107,-1.1975 0.2107,-1.8793 z m 16.4738,-0.1785 c 0,0.9858 -0.1345,1.887 -0.4082,2.7028 -0.2689,0.8121 -0.6633,1.5116 -1.1795,2.1038 -0.5197,0.5912 -1.1477,1.0491 -1.8878,1.3722 -0.7396,0.3224 -1.5734,0.4837 -2.497,0.4837 -0.9642,0 -1.7982,-0.1567 -2.5021,-0.4662 -0.7036,-0.3095 -1.2865,-0.7805 -1.7486,-1.4036 -0.4576,-0.6274 -0.7978,-1.4123 -1.0177,-2.3498 -0.2199,-0.9413 -0.3277,-2.0485 -0.3277,-3.3181 0,-1.0759 0.0496,-2.0666 0.152,-2.9726 0.0993,-0.9056 0.2431,-1.7175 0.427,-2.4432 0.1835,-0.7224 0.4034,-1.3365 0.6591,-1.8435 0.2509,-0.5061 0.5107,-0.9095 0.7796,-1.2056 0.2693,-0.3009 0.5291,-0.5379 0.7892,-0.7177 0.2599,-0.1793 0.5472,-0.3453 0.8611,-0.4978 0.3141,-0.1523 0.6724,-0.2868 1.0717,-0.399 0.3988,-0.1168 0.8474,-0.2153 1.3493,-0.3046 l 4.2196,-0.6954 c 0.1482,-0.0267 0.2688,-0.036 0.3681,-0.0314 0.0934,0.005 0.1698,0.0365 0.2238,0.1037 0.0492,0.0674 0.0849,0.1744 0.1032,0.3226 0.018,0.1479 0.027,0.354 0.027,0.6187 0,0.1749 -0.009,0.3224 -0.027,0.4438 -0.0183,0.1255 -0.0492,0.2238 -0.09,0.3051 -0.0443,0.0764 -0.1117,0.1384 -0.1971,0.1834 -0.09,0.0404 -0.2017,0.0764 -0.3452,0.1037 l -3.9325,0.6593 c -0.3944,0.0621 -0.7396,0.1295 -1.0352,0.2105 -0.3012,0.0754 -0.5655,0.1657 -0.7983,0.2642 -0.2338,0.0944 -0.4355,0.2017 -0.6104,0.3182 -0.1742,0.1217 -0.3492,0.274 -0.5287,0.4579 -0.1747,0.1835 -0.3324,0.4124 -0.4798,0.6861 -0.1436,0.2691 -0.265,0.5781 -0.3684,0.9275 -0.0983,0.3455 -0.1834,0.7226 -0.2459,1.1301 -0.0672,0.4085 -0.1302,0.8433 -0.1927,1.3048 0.2873,-0.3048 0.5963,-0.5829 0.9194,-0.834 0.3224,-0.2469 0.6635,-0.4618 1.0221,-0.6367 0.3589,-0.1742 0.7394,-0.3088 1.1389,-0.399 0.3985,-0.0944 0.8201,-0.1389 1.2646,-0.1389 0.8518,0 1.5915,0.1437 2.2279,0.4257 0.6326,0.2832 1.1613,0.6905 1.5739,1.2156 0.4176,0.5248 0.7265,1.152 0.9326,1.8877 0.2066,0.735 0.3097,1.5418 0.3097,2.426 z m -2.26,0.1837 c 0,-0.5791 -0.0542,-1.1299 -0.1659,-1.655 -0.1078,-0.5291 -0.2827,-0.9907 -0.5246,-1.3902 -0.2379,-0.3944 -0.5649,-0.7175 -0.9683,-0.9545 -0.4085,-0.2425 -0.9107,-0.3634 -1.5026,-0.3634 -0.3674,0 -0.7126,0.045 -1.0309,0.1389 -0.3231,0.0902 -0.6326,0.2287 -0.9413,0.4172 -0.3053,0.1881 -0.6102,0.4217 -0.9197,0.6998 -0.3048,0.2727 -0.6318,0.5999 -0.9824,0.9773 -0.008,0.1389 -0.0129,0.3041 -0.0129,0.4888 0,0.1834 0,0.3715 0,0.5649 0,0.9457 0.0579,1.7756 0.1793,2.4926 0.1168,0.7222 0.3095,1.3187 0.5832,1.8024 0.2691,0.4798 0.6277,0.8433 1.0763,1.09 0.4433,0.2469 0.9903,0.3674 1.6409,0.3674 0.5693,0 1.0758,-0.1117 1.5196,-0.3365 0.4487,-0.2238 0.8209,-0.5328 1.1258,-0.9365 0.3002,-0.4043 0.5291,-0.897 0.6858,-1.471 0.1574,-0.5783 0.2377,-1.224 0.2377,-1.9322 z m 16.4559,-0.1979 c 0,1.036 -0.1125,1.9645 -0.3363,2.7892 -0.2194,0.8202 -0.5477,1.5199 -0.9824,2.0936 -0.4304,0.5745 -0.9684,1.0182 -1.6046,1.3277 -0.6372,0.3095 -1.3681,0.4662 -2.188,0.4662 -0.3501,0 -0.6725,-0.0353 -0.9688,-0.1032 -0.301,-0.0718 -0.5878,-0.179 -0.8742,-0.3316 -0.2827,-0.1484 -0.5652,-0.3362 -0.8433,-0.5652 -0.2827,-0.2238 -0.5785,-0.4927 -0.8921,-0.7978 v 5.9227 c 0,0.0722 -0.018,0.1304 -0.0538,0.1847 -0.0363,0.0535 -0.0893,0.0985 -0.1711,0.1343 -0.08,0.0313 -0.1873,0.0583 -0.3311,0.0756 -0.1394,0.018 -0.319,0.027 -0.5379,0.027 -0.2156,0 -0.3903,-0.009 -0.5299,-0.027 -0.1433,-0.0173 -0.255,-0.0443 -0.336,-0.0756 -0.0854,-0.0358 -0.1436,-0.0808 -0.175,-0.1343 -0.0309,-0.0543 -0.045,-0.1125 -0.045,-0.1847 v -16.5223 c 0,-0.0812 0.0141,-0.1437 0.0412,-0.1927 0.026,-0.045 0.0802,-0.09 0.1566,-0.1214 0.0803,-0.036 0.1796,-0.0632 0.3049,-0.0764 0.1207,-0.0131 0.2735,-0.0182 0.4481,-0.0182 0.1842,0 0.337,0.005 0.4575,0.0182 0.1165,0.0132 0.2155,0.0404 0.296,0.0713 0.0803,0.0365 0.1346,0.0815 0.1657,0.1265 0.0319,0.049 0.0453,0.1115 0.0453,0.1927 v 1.583 c 0.3581,-0.3684 0.7036,-0.6869 1.0357,-0.9596 0.3319,-0.2691 0.6681,-0.4937 1.0044,-0.6732 0.3364,-0.1791 0.6812,-0.3185 1.0357,-0.408 0.3545,-0.094 0.726,-0.1392 1.1214,-0.1392 0.8559,0 1.5826,0.1662 2.1877,0.4978 0.6005,0.3362 1.0939,0.7897 1.4754,1.3681 0.3807,0.5778 0.6588,1.2505 0.8333,2.0171 0.1756,0.7669 0.2606,1.5786 0.2606,2.4347 z m -2.2601,0.2514 c 0,-0.6056 -0.0452,-1.1927 -0.1391,-1.7579 -0.0896,-0.5647 -0.2514,-1.0668 -0.4708,-1.5065 -0.2243,-0.4394 -0.5241,-0.7888 -0.9014,-1.0535 -0.3764,-0.2644 -0.8472,-0.3946 -1.4073,-0.3946 -0.2827,0 -0.5559,0.0401 -0.8299,0.1253 -0.2693,0.0854 -0.5469,0.2156 -0.8294,0.3944 -0.2781,0.1798 -0.5737,0.4177 -0.8788,0.7136 -0.3053,0.2956 -0.6323,0.6586 -0.9729,1.0895 v 4.7039 c 0.5965,0.7304 1.1612,1.2866 1.6945,1.6761 0.538,0.3862 1.099,0.5791 1.6859,0.5791 0.5433,0 1.0092,-0.1304 1.3992,-0.3949 0.3902,-0.2645 0.7036,-0.6141 0.9464,-1.0535 0.2421,-0.4394 0.4165,-0.9284 0.5333,-1.4753 0.1122,-0.5431 0.1703,-1.0939 0.1703,-1.6457 z m 14.4297,5.8691 c 0,0.1034 -0.036,0.1839 -0.1034,0.2377 -0.0716,0.0543 -0.1657,0.0893 -0.291,0.1168 -0.1214,0.0267 -0.301,0.0404 -0.5384,0.0404 -0.2244,0 -0.4083,-0.0137 -0.5426,-0.0404 -0.1346,-0.0275 -0.2331,-0.0625 -0.2963,-0.1168 -0.0621,-0.0538 -0.094,-0.1302 -0.094,-0.2377 v -1.1834 c -0.515,0.5513 -1.0895,0.9817 -1.7267,1.2868 -0.6362,0.3 -1.3087,0.4528 -2.0169,0.4528 -0.6236,0 -1.1885,-0.0803 -1.6907,-0.2421 -0.5027,-0.1613 -0.9323,-0.399 -1.2866,-0.7036 -0.3545,-0.3051 -0.6321,-0.6864 -0.8299,-1.1302 -0.1968,-0.4484 -0.2961,-0.9551 -0.2961,-1.5242 0,-0.6686 0.1343,-1.2467 0.4085,-1.7355 0.2691,-0.4936 0.6586,-0.9012 1.1703,-1.2243 0.5066,-0.3223 1.1301,-0.5693 1.8651,-0.7308 0.7355,-0.1616 1.5647,-0.2421 2.4836,-0.2421 h 1.6321 v -0.9233 c 0,-0.4536 -0.0491,-0.8572 -0.1435,-1.2112 -0.0981,-0.3494 -0.2509,-0.6413 -0.4657,-0.8744 -0.2158,-0.2328 -0.4934,-0.4075 -0.8341,-0.5248 -0.3413,-0.1207 -0.7625,-0.1788 -1.2598,-0.1788 -0.5338,0 -1.0135,0.0625 -1.4347,0.1927 -0.4258,0.1296 -0.7985,0.269 -1.1163,0.4257 -0.3192,0.1577 -0.5883,0.2961 -0.8031,0.4265 -0.2107,0.1295 -0.372,0.1927 -0.4756,0.1927 -0.0713,0 -0.1343,-0.0182 -0.1835,-0.0542 -0.0535,-0.0312 -0.0985,-0.0854 -0.1389,-0.1567 -0.0409,-0.0672 -0.0672,-0.1572 -0.0852,-0.2647 -0.018,-0.1117 -0.027,-0.229 -0.027,-0.3633 0,-0.2148 0.0134,-0.3895 0.045,-0.515 0.0312,-0.1258 0.1076,-0.2467 0.2239,-0.3591 0.1168,-0.112 0.3231,-0.2467 0.6102,-0.4039 0.2863,-0.1523 0.6233,-0.2956 0.9999,-0.4256 0.3723,-0.1252 0.7847,-0.2338 1.2326,-0.3179 0.4445,-0.0854 0.8968,-0.1263 1.3498,-0.1263 0.8472,0 1.5695,0.0941 2.1659,0.2868 0.5961,0.193 1.0758,0.4798 1.4435,0.8523 0.3681,0.3723 0.6323,0.834 0.7985,1.3861 0.1657,0.5508 0.2511,1.1963 0.2511,1.932 z m -2.153,-5.4159 h -1.8518 c -0.5914,0 -1.1072,0.0494 -1.5466,0.1519 -0.4345,0.0992 -0.798,0.2515 -1.09,0.4486 -0.2861,0.1976 -0.4968,0.4307 -0.6365,0.7083 -0.1345,0.278 -0.2017,0.5965 -0.2017,0.9556 0,0.6141 0.1932,1.1032 0.583,1.4654 0.3898,0.3635 0.9328,0.5477 1.6364,0.5477 0.5652,0 1.0949,-0.1435 1.5785,-0.4353 0.4849,-0.2868 0.9954,-0.7306 1.5287,-1.3272 z m 21.7654,5.4969 c 0,0.0494 -0.0173,0.0986 -0.0533,0.1346 -0.0314,0.0404 -0.0947,0.0764 -0.1747,0.0985 -0.0852,0.0272 -0.1927,0.0494 -0.3273,0.0633 -0.1345,0.0129 -0.3051,0.0175 -0.5157,0.0175 -0.2468,0 -0.4446,-0.009 -0.5966,-0.0268 -0.1521,-0.0182 -0.2735,-0.0411 -0.363,-0.072 -0.0944,-0.0311 -0.1618,-0.0713 -0.2068,-0.1165 -0.0402,-0.0492 -0.0759,-0.1032 -0.1032,-0.1657 l -1.2639,-3.0491 c -0.1662,-0.3944 -0.3414,-0.7306 -0.5207,-1.0179 -0.1788,-0.2827 -0.3808,-0.5156 -0.6002,-0.6905 -0.22,-0.1752 -0.471,-0.3049 -0.7538,-0.3861 -0.2868,-0.0847 -0.6233,-0.1251 -1.0087,-0.1251 h -0.8832 v 5.3494 c 0,0.0399 -0.0221,0.085 -0.0671,0.121 -0.045,0.0404 -0.1075,0.0764 -0.1978,0.0985 -0.0895,0.0272 -0.2017,0.0494 -0.3362,0.0633 -0.1343,0.0129 -0.2959,0.0175 -0.4796,0.0175 -0.1881,0 -0.3494,-0.005 -0.489,-0.0175 -0.1436,-0.0139 -0.255,-0.0361 -0.3453,-0.0633 -0.0895,-0.0221 -0.1523,-0.0581 -0.1966,-0.0985 -0.045,-0.036 -0.0671,-0.0811 -0.0671,-0.121 v -5.3494 h -0.8793 c -0.3859,0 -0.7219,0.0404 -1.0138,0.1251 -0.2861,0.0812 -0.547,0.2109 -0.7749,0.3861 -0.229,0.1749 -0.4307,0.4078 -0.6102,0.6905 -0.1796,0.2873 -0.354,0.6235 -0.5197,1.0179 l -1.2605,3.0491 c -0.0176,0.0625 -0.0497,0.1165 -0.0986,0.1657 -0.0491,0.0452 -0.1124,0.0854 -0.1971,0.1165 -0.0851,0.0309 -0.2024,0.0538 -0.354,0.072 -0.1525,0.0175 -0.3503,0.0268 -0.588,0.0268 -0.2017,0 -0.3715,-0.005 -0.5112,-0.0175 -0.1384,-0.0139 -0.2506,-0.0361 -0.336,-0.0633 -0.0803,-0.0221 -0.1387,-0.0581 -0.1744,-0.0985 -0.0363,-0.036 -0.0543,-0.0852 -0.0543,-0.1346 0,-0.0538 0.009,-0.1209 0.0314,-0.2063 0.0229,-0.0803 0.0672,-0.1878 0.126,-0.3185 l 1.3048,-2.9819 c 0.1699,-0.3944 0.3494,-0.7396 0.5419,-1.0354 0.1927,-0.2961 0.3948,-0.556 0.6104,-0.7762 0.2148,-0.2194 0.4477,-0.4034 0.6993,-0.5554 0.251,-0.1528 0.524,-0.2781 0.825,-0.3767 v -0.0272 c -0.2107,-0.0674 -0.4173,-0.1567 -0.6233,-0.2691 -0.2066,-0.1073 -0.4127,-0.2598 -0.6144,-0.4574 -0.2014,-0.1968 -0.399,-0.4479 -0.5922,-0.7438 -0.188,-0.3002 -0.3761,-0.6683 -0.5608,-1.1077 l -1.0939,-2.6189 c -0.0399,-0.1163 -0.0759,-0.2148 -0.1024,-0.3041 -0.0267,-0.0857 -0.0409,-0.1706 -0.0409,-0.2521 0,-0.0399 0.0142,-0.0842 0.0453,-0.1204 0.0307,-0.0401 0.0849,-0.0762 0.1567,-0.099 0.0759,-0.0265 0.1795,-0.0494 0.3138,-0.0626 0.1346,-0.0131 0.309,-0.0182 0.5158,-0.0182 0.2377,0 0.4348,0.005 0.5922,0.0182 0.1567,0.0132 0.282,0.0404 0.3764,0.0764 0.0942,0.0314 0.1655,0.0764 0.2148,0.1297 0.0499,0.0538 0.0813,0.1124 0.0993,0.1844 l 1.0399,2.7442 c 0.1484,0.3762 0.3002,0.6993 0.4664,0.9725 0.1615,0.2737 0.3452,0.4936 0.5562,0.6683 0.2107,0.1706 0.4435,0.2913 0.7033,0.3672 0.2604,0.0764 0.5562,0.1124 0.9017,0.1124 h 0.8793 v -4.9818 c 0,-0.0446 0.0221,-0.0847 0.0671,-0.1258 0.0443,-0.0397 0.1071,-0.0711 0.1966,-0.0934 0.0903,-0.0229 0.2017,-0.0409 0.3453,-0.0541 0.1396,-0.0131 0.3009,-0.0182 0.489,-0.0182 0.1837,0 0.3453,0.005 0.4796,0.0182 0.1345,0.0132 0.2467,0.0312 0.3362,0.0541 0.0903,0.0223 0.1528,0.0537 0.1978,0.0934 0.045,0.0411 0.0671,0.0812 0.0671,0.1258 v 4.9818 h 0.8791 c 0.3404,0 0.6406,-0.0399 0.9056,-0.1163 0.2598,-0.0813 0.4975,-0.2066 0.7123,-0.3774 0.2161,-0.1744 0.4085,-0.3944 0.5791,-0.6586 0.1698,-0.2688 0.327,-0.5919 0.4752,-0.9681 l 1.1026,-2.7442 c 0.0365,-0.072 0.0722,-0.1306 0.1124,-0.1844 0.0404,-0.0533 0.1034,-0.0983 0.1839,-0.1297 0.0854,-0.036 0.2017,-0.0632 0.3453,-0.0764 0.1435,-0.0131 0.336,-0.0182 0.5737,-0.0182 0.2109,0 0.3858,0.005 0.525,0.0182 0.1346,0.0132 0.2421,0.0361 0.3131,0.0626 0.0764,0.0228 0.1307,0.0589 0.1618,0.099 0.0314,0.0362 0.045,0.0805 0.045,0.1204 0,0.0815 -0.0136,0.1664 -0.0401,0.2521 -0.027,0.0893 -0.0582,0.1878 -0.1034,0.3041 l -1.1299,2.6189 c -0.1839,0.4394 -0.3766,0.8075 -0.5742,1.0987 -0.1968,0.2956 -0.3944,0.538 -0.5963,0.7307 -0.2015,0.1929 -0.4034,0.3501 -0.601,0.4617 -0.1927,0.1125 -0.3943,0.2017 -0.596,0.2645 v 0.0275 c 0.3009,0.1024 0.5739,0.2277 0.8206,0.3761 0.2511,0.1526 0.4842,0.3365 0.6949,0.5606 0.2155,0.2246 0.4175,0.4844 0.6009,0.7847 0.184,0.3048 0.3635,0.65 0.538,1.0444 l 1.2868,2.9819 c 0.027,0.0587 0.0491,0.1168 0.072,0.1708 0.0221,0.0492 0.0353,0.1032 0.0443,0.1477 0.009,0.0491 0.0182,0.0903 0.0275,0.1212 0.009,0.0313 0.0129,0.0584 0.0129,0.0851 z m 11.3363,-0.081 c 0,0.1034 -0.0365,0.1839 -0.1037,0.2377 -0.0713,0.0543 -0.1657,0.0893 -0.2912,0.1168 -0.1214,0.0267 -0.301,0.0404 -0.5379,0.0404 -0.2246,0 -0.4085,-0.0137 -0.5431,-0.0404 -0.1345,-0.0275 -0.2326,-0.0625 -0.2958,-0.1168 -0.0623,-0.0538 -0.094,-0.1302 -0.094,-0.2377 v -1.1834 c -0.5155,0.5513 -1.0895,0.9817 -1.7267,1.2868 -0.6364,0.3 -1.3087,0.4528 -2.0174,0.4528 -0.6231,0 -1.188,-0.0803 -1.6902,-0.2421 -0.5027,-0.1613 -0.9326,-0.399 -1.2866,-0.7036 -0.3545,-0.3051 -0.6323,-0.6864 -0.8299,-1.1302 -0.1968,-0.4484 -0.2961,-0.9551 -0.2961,-1.5242 0,-0.6686 0.1343,-1.2467 0.4085,-1.7355 0.2691,-0.4936 0.6587,-0.9012 1.1698,-1.2243 0.5071,-0.3223 1.1302,-0.5693 1.8652,-0.7308 0.7357,-0.1616 1.5646,-0.2421 2.4841,-0.2421 h 1.632 v -0.9233 c 0,-0.4536 -0.0494,-0.8572 -0.1435,-1.2112 -0.0983,-0.3494 -0.2509,-0.6413 -0.466,-0.8744 -0.2155,-0.2328 -0.4934,-0.4075 -0.8337,-0.5248 -0.3414,-0.1207 -0.763,-0.1788 -1.2599,-0.1788 -0.534,0 -1.0135,0.0625 -1.4352,0.1927 -0.4258,0.1296 -0.798,0.269 -1.1162,0.4257 -0.3188,0.1577 -0.5879,0.2961 -0.8029,0.4265 -0.2105,0.1295 -0.3723,0.1927 -0.4754,0.1927 -0.0718,0 -0.1346,-0.0182 -0.184,-0.0542 -0.053,-0.0312 -0.098,-0.0854 -0.1384,-0.1567 -0.0411,-0.0672 -0.0672,-0.1572 -0.0854,-0.2647 -0.0178,-0.1117 -0.027,-0.229 -0.027,-0.3633 0,-0.2148 0.0131,-0.3895 0.0452,-0.515 0.0312,-0.1258 0.1076,-0.2467 0.2239,-0.3591 0.1168,-0.112 0.3231,-0.2467 0.6102,-0.4039 0.2861,-0.1523 0.6228,-0.2956 0.9994,-0.4256 0.3723,-0.1252 0.7847,-0.2338 1.2331,-0.3179 0.444,-0.0854 0.8968,-0.1263 1.3493,-0.1263 0.8474,0 1.57,0.0941 2.1659,0.2868 0.5966,0.193 1.0763,0.4798 1.444,0.8523 0.3676,0.3723 0.6318,0.834 0.7985,1.3861 0.1657,0.5508 0.2511,1.1963 0.2511,1.932 z m -2.153,-5.4159 h -1.8517 c -0.5915,0 -1.1073,0.0494 -1.5467,0.1519 -0.4345,0.0992 -0.798,0.2515 -1.09,0.4486 -0.2864,0.1976 -0.497,0.4307 -0.6365,0.7083 -0.1345,0.278 -0.2017,0.5965 -0.2017,0.9556 0,0.6141 0.1927,1.1032 0.583,1.4654 0.3898,0.3635 0.9328,0.5477 1.6364,0.5477 0.565,0 1.0949,-0.1435 1.5786,-0.4353 0.4844,-0.2868 0.9953,-0.7306 1.5286,-1.3272 z m 16.1962,-1.0277 c 0,0.3414 -0.0846,0.5832 -0.2552,0.7317 -0.1705,0.1435 -0.3681,0.2148 -0.5876,0.2148 h -7.7658 c 0,0.6593 0.0671,1.2515 0.1968,1.7756 0.1301,0.5287 0.3501,0.9824 0.6593,1.3591 0.3051,0.3761 0.7044,0.6632 1.1924,0.8649 0.4937,0.2019 1.0946,0.3051 1.8026,0.3051 0.5609,0 1.0628,-0.0453 1.4983,-0.1394 0.4387,-0.0893 0.8199,-0.1925 1.1384,-0.3041 0.3187,-0.1125 0.5829,-0.2159 0.7897,-0.3051 0.2056,-0.0944 0.3584,-0.1395 0.4655,-0.1395 0.0632,0 0.1168,0.0139 0.1666,0.0451 0.0443,0.0313 0.0847,0.0763 0.1076,0.1394 0.0267,0.0584 0.0489,0.1428 0.0623,0.251 0.0141,0.1115 0.018,0.2419 0.018,0.3986 0,0.1126 -0.004,0.2107 -0.0132,0.2961 -0.009,0.081 -0.0182,0.1571 -0.0319,0.2197 -0.0131,0.0674 -0.0352,0.1255 -0.0671,0.1798 -0.0314,0.0489 -0.0674,0.0983 -0.1165,0.1474 -0.0494,0.0492 -0.193,0.1253 -0.4261,0.2336 -0.2377,0.1119 -0.5425,0.2148 -0.9191,0.3226 -0.3764,0.1032 -0.8115,0.1971 -1.3049,0.2781 -0.4926,0.0849 -1.0177,0.1253 -1.5785,0.1253 -0.9725,0 -1.8199,-0.1346 -2.551,-0.4078 -0.7311,-0.2691 -1.3452,-0.6725 -1.8427,-1.2063 -0.4981,-0.5379 -0.8747,-1.2065 -1.1256,-2.0133 -0.2557,-0.8029 -0.3812,-1.7396 -0.3812,-2.8115 0,-1.0134 0.1302,-1.9277 0.3946,-2.7396 0.2599,-0.807 0.6409,-1.4975 1.135,-2.0625 0.4929,-0.5651 1.0941,-0.9958 1.7934,-1.3001 0.6997,-0.3008 1.4836,-0.4533 2.3493,-0.4533 0.9279,0 1.7172,0.1484 2.3673,0.4486 0.655,0.2959 1.188,0.6993 1.6097,1.2014 0.4172,0.5025 0.7267,1.0946 0.924,1.7761 0.1971,0.6769 0.2956,1.4034 0.2956,2.1744 z m -2.1792,-0.6403 c 0.027,-1.1391 -0.2238,-2.0359 -0.7576,-2.686 -0.5334,-0.6501 -1.318,-0.9732 -2.363,-0.9732 -0.5379,0 -1.0084,0.0982 -1.4121,0.3002 -0.4034,0.2022 -0.7403,0.4713 -1.0136,0.8075 -0.2737,0.3316 -0.4846,0.7219 -0.6321,1.1613 -0.1481,0.4437 -0.233,0.9058 -0.251,1.3902 z m 13.6576,-4.1028 c 0,0.1745 -0.009,0.3229 -0.0267,0.4436 -0.018,0.1255 -0.0453,0.2245 -0.0854,0.3002 -0.0402,0.0808 -0.0852,0.1394 -0.1346,0.1793 -0.0537,0.0404 -0.1211,0.0584 -0.1973,0.0584 h -3.5381 v 10.1923 c 0,0.071 -0.0172,0.1297 -0.0535,0.1793 -0.0358,0.0445 -0.09,0.0896 -0.1705,0.1256 -0.0801,0.0311 -0.1886,0.0579 -0.3319,0.0761 -0.1387,0.0175 -0.3182,0.0268 -0.5379,0.0268 -0.2149,0 -0.3898,-0.009 -0.5292,-0.0268 -0.1433,-0.0182 -0.2557,-0.045 -0.336,-0.0761 -0.0854,-0.036 -0.1436,-0.0811 -0.1749,-0.1256 -0.0312,-0.0496 -0.0451,-0.1083 -0.0451,-0.1793 v -10.1923 h -3.538 c -0.0672,0 -0.1292,-0.018 -0.1878,-0.0584 -0.0582,-0.0399 -0.1032,-0.0985 -0.1392,-0.1793 -0.0312,-0.0757 -0.0625,-0.1791 -0.0854,-0.3044 -0.0222,-0.1253 -0.0312,-0.2778 -0.0312,-0.4537 0,-0.1565 0.009,-0.2949 0.0312,-0.4163 0.0229,-0.1256 0.0542,-0.2287 0.0946,-0.3093 0.0397,-0.0851 0.0849,-0.1435 0.139,-0.1836 0.0496,-0.0412 0.1116,-0.0589 0.1788,-0.0589 h 9.2551 c 0.0672,0 0.1299,0.0177 0.1886,0.0589 0.0581,0.0401 0.1031,0.0985 0.1384,0.1836 0.0319,0.0806 0.0633,0.1876 0.0854,0.3132 0.0229,0.1265 0.0316,0.2693 0.0316,0.4267 z m 16.4962,0 c 0,0.1745 -0.008,0.3229 -0.0267,0.4436 -0.0183,0.1255 -0.0453,0.2245 -0.0857,0.3002 -0.0399,0.0808 -0.0849,0.1394 -0.1343,0.1793 -0.0537,0.0404 -0.1209,0.0584 -0.1975,0.0584 h -3.5378 v 10.1923 c 0,0.071 -0.0176,0.1297 -0.0533,0.1793 -0.0363,0.0445 -0.0903,0.0896 -0.1706,0.1256 -0.0805,0.0311 -0.1888,0.0579 -0.3323,0.0761 -0.1385,0.0175 -0.3178,0.0268 -0.538,0.0268 -0.2148,0 -0.3895,-0.009 -0.5287,-0.0268 -0.1435,-0.0182 -0.2559,-0.045 -0.3362,-0.0761 -0.0854,-0.036 -0.1435,-0.0811 -0.1749,-0.1256 -0.0312,-0.0496 -0.045,-0.1083 -0.045,-0.1793 v -10.1923 h -3.5379 c -0.0674,0 -0.1296,-0.018 -0.188,-0.0584 -0.0582,-0.0399 -0.1032,-0.0985 -0.1392,-0.1793 -0.0314,-0.0757 -0.0625,-0.1791 -0.0854,-0.3044 -0.0221,-0.1253 -0.0314,-0.2778 -0.0314,-0.4537 0,-0.1565 0.009,-0.2949 0.0314,-0.4163 0.0229,-0.1256 0.054,-0.2287 0.0944,-0.3093 0.0401,-0.0851 0.0852,-0.1435 0.1394,-0.1836 0.0492,-0.0412 0.1114,-0.0589 0.1788,-0.0589 h 9.2547 c 0.0674,0 0.1304,0.0177 0.1888,0.0589 0.0581,0.0401 0.1031,0.0985 0.1384,0.1836 0.0321,0.0806 0.0633,0.1876 0.0854,0.3132 0.0231,0.1265 0.0316,0.2693 0.0316,0.4267 z m 7.5328,11.5008 -1.5739,4.3541 c -0.054,0.1387 -0.1885,0.2465 -0.4031,0.3231 -0.211,0.0761 -0.5379,0.1114 -0.9778,0.1114 -0.2287,0 -0.4124,-0.009 -0.5518,-0.0314 -0.1387,-0.0221 -0.246,-0.0627 -0.3224,-0.1121 -0.072,-0.0533 -0.1124,-0.1253 -0.1214,-0.211 -0.009,-0.0893 0.0131,-0.1924 0.0632,-0.318 l 1.6321,-4.1161 c -0.0813,-0.036 -0.1577,-0.0942 -0.2248,-0.1706 -0.0715,-0.0802 -0.1204,-0.1613 -0.1436,-0.2506 l -4.2185,-11.2995 c -0.0721,-0.184 -0.1034,-0.3324 -0.1034,-0.4346 0,-0.1085 0.0313,-0.1888 0.1034,-0.2518 0.0715,-0.0623 0.1839,-0.1026 0.3403,-0.1255 0.1567,-0.0222 0.3677,-0.0314 0.6321,-0.0314 0.2604,0 0.4667,0.005 0.6187,0.0182 0.1482,0.0132 0.2645,0.0404 0.3545,0.0764 0.0849,0.0314 0.1482,0.0852 0.1881,0.1475 0.0404,0.0674 0.0808,0.1574 0.1258,0.2688 l 3.3763,9.489 h 0.0399 l 3.256,-9.5379 c 0.0536,-0.1705 0.1161,-0.2781 0.1927,-0.3223 0.0716,-0.0502 0.184,-0.0854 0.3314,-0.1083 0.1528,-0.0222 0.3681,-0.0314 0.6462,-0.0314 0.246,0 0.4487,0.009 0.6053,0.0314 0.1565,0.0229 0.2728,0.0632 0.3453,0.1255 0.0764,0.063 0.1121,0.1433 0.1121,0.2518 0,0.1022 -0.0272,0.237 -0.0763,0.3942 z m 15.7072,-0.3141 c 0,0.1034 -0.036,0.1839 -0.1031,0.2377 -0.0718,0.0543 -0.1657,0.0893 -0.2913,0.1168 -0.1214,0.0267 -0.3009,0.0404 -0.5379,0.0404 -0.225,0 -0.4085,-0.0137 -0.5428,-0.0404 -0.1348,-0.0275 -0.2331,-0.0625 -0.2963,-0.1168 -0.0623,-0.0538 -0.0942,-0.1302 -0.0942,-0.2377 v -1.1834 c -0.5151,0.5513 -1.0892,0.9817 -1.7262,1.2868 -0.6367,0.3 -1.3092,0.4528 -2.0174,0.4528 -0.6234,0 -1.1886,-0.0803 -1.6905,-0.2421 -0.5024,-0.1613 -0.9323,-0.399 -1.2868,-0.7036 -0.354,-0.3051 -0.6321,-0.6864 -0.8297,-1.1302 -0.197,-0.4484 -0.2961,-0.9551 -0.2961,-1.5242 0,-0.6686 0.1346,-1.2467 0.4083,-1.7355 0.2689,-0.4936 0.6586,-0.9012 1.1705,-1.2243 0.5066,-0.3223 1.1299,-0.5693 1.8649,-0.7308 0.7358,-0.1616 1.5647,-0.2421 2.4839,-0.2421 h 1.632 v -0.9233 c 0,-0.4536 -0.0491,-0.8572 -0.1433,-1.2112 -0.0985,-0.3494 -0.2511,-0.6413 -0.4659,-0.8744 -0.2156,-0.2328 -0.4937,-0.4075 -0.834,-0.5248 -0.3411,-0.1207 -0.7628,-0.1788 -1.2598,-0.1788 -0.5336,0 -1.0136,0.0625 -1.4353,0.1927 -0.4253,0.1296 -0.798,0.269 -1.116,0.4257 -0.3192,0.1577 -0.588,0.2961 -0.8029,0.4265 -0.2109,0.1295 -0.3722,0.1927 -0.4759,0.1927 -0.0713,0 -0.1345,-0.0182 -0.1834,-0.0542 -0.0533,-0.0312 -0.0986,-0.0854 -0.1385,-0.1567 -0.0411,-0.0672 -0.0676,-0.1572 -0.0854,-0.2647 -0.0182,-0.1117 -0.027,-0.229 -0.027,-0.3633 0,-0.2148 0.0132,-0.3895 0.0448,-0.515 0.0311,-0.1258 0.1075,-0.2467 0.2241,-0.3591 0.1165,-0.112 0.3228,-0.2467 0.6099,-0.4039 0.2866,-0.1523 0.6236,-0.2956 1,-0.4256 0.372,-0.1252 0.7849,-0.2338 1.2326,-0.3179 0.4445,-0.0854 0.897,-0.1263 1.3498,-0.1263 0.8474,0 1.5695,0.0941 2.1658,0.2868 0.5964,0.193 1.0759,0.4798 1.4433,0.8523 0.3683,0.3723 0.6326,0.834 0.799,1.3861 0.1654,0.5508 0.2508,1.1963 0.2508,1.932 z m -2.1527,-5.4159 h -1.8515 c -0.5915,0 -1.1075,0.0494 -1.5469,0.1519 -0.4348,0.0992 -0.7978,0.2515 -1.0897,0.4486 -0.2864,0.1976 -0.4973,0.4307 -0.6363,0.7083 -0.135,0.278 -0.2021,0.5965 -0.2021,0.9556 0,0.6141 0.1929,1.1032 0.5831,1.4654 0.3898,0.3635 0.9324,0.5477 1.636,0.5477 0.5654,0 1.0948,-0.1435 1.5788,-0.4353 0.4846,-0.2868 0.9958,-0.7306 1.5286,-1.3272 z m 15.8466,5.403 c 0,0.071 -0.0182,0.1297 -0.054,0.1793 -0.0355,0.0445 -0.0895,0.0896 -0.1698,0.1256 -0.0764,0.0311 -0.1886,0.0579 -0.3277,0.0761 -0.139,0.0175 -0.3139,0.0268 -0.5244,0.0268 -0.2199,0 -0.3992,-0.009 -0.5381,-0.0268 -0.1392,-0.0182 -0.2509,-0.045 -0.3363,-0.0761 -0.081,-0.036 -0.1391,-0.0811 -0.1752,-0.1256 -0.0357,-0.0496 -0.0535,-0.1083 -0.0535,-0.1793 v -10.3271 h -3.2558 c -0.1385,1.3905 -0.309,2.6279 -0.5061,3.713 -0.1975,1.0849 -0.4172,2.0313 -0.6639,2.8383 -0.2463,0.8027 -0.5244,1.4844 -0.8295,2.0355 -0.3048,0.552 -0.641,0.9956 -1.0043,1.3316 -0.3674,0.3367 -0.762,0.579 -1.1883,0.7265 -0.4219,0.1481 -0.8785,0.2243 -1.3586,0.2243 -0.0807,0 -0.1481,-0.0134 -0.2063,-0.0404 -0.0542,-0.0268 -0.1031,-0.0715 -0.1384,-0.1436 -0.0321,-0.0671 -0.0584,-0.1656 -0.0764,-0.2956 -0.0183,-0.1258 -0.0273,-0.2873 -0.0273,-0.489 0,-0.2107 0.004,-0.3805 0.0183,-0.5109 0.0131,-0.1297 0.0353,-0.2377 0.0671,-0.3141 0.0312,-0.0803 0.0713,-0.13 0.1163,-0.1567 0.0494,-0.0273 0.1076,-0.0404 0.1796,-0.0404 0.2915,0 0.5647,-0.0672 0.8294,-0.2017 0.2598,-0.1392 0.5068,-0.363 0.7357,-0.6725 0.2287,-0.3099 0.4436,-0.7175 0.645,-1.2192 0.1981,-0.507 0.3815,-1.1262 0.5523,-1.861 0.1657,-0.7357 0.3224,-1.5967 0.4706,-2.5831 0.1476,-0.9817 0.2912,-2.1162 0.4216,-3.3945 0.017,-0.2642 0.0803,-0.4569 0.1927,-0.5871 0.1075,-0.1258 0.2642,-0.1885 0.4659,-0.1885 h 6.0711 c 0.2068,0 0.3725,0.0627 0.4888,0.1934 0.1214,0.1253 0.1795,0.318 0.1795,0.5822 z m 14.0788,-6.4307 c 0,0.3414 -0.0847,0.5832 -0.2552,0.7317 -0.1708,0.1435 -0.3681,0.2148 -0.5871,0.2148 h -7.7664 c 0,0.6593 0.0672,1.2515 0.1966,1.7756 0.1307,0.5287 0.3506,0.9824 0.6596,1.3591 0.3051,0.3761 0.7044,0.6632 1.1924,0.8649 0.4934,0.2019 1.0946,0.3051 1.8029,0.3051 0.5608,0 1.0627,-0.0453 1.498,-0.1394 0.4389,-0.0893 0.8199,-0.1925 1.1384,-0.3041 0.3187,-0.1125 0.5831,-0.2159 0.7895,-0.3051 0.206,-0.0944 0.3583,-0.1395 0.4661,-0.1395 0.063,0 0.1166,0.0139 0.1664,0.0451 0.0443,0.0313 0.0847,0.0763 0.1076,0.1394 0.0267,0.0584 0.0489,0.1428 0.062,0.251 0.0139,0.1115 0.0183,0.2419 0.0183,0.3986 0,0.1126 -0.004,0.2107 -0.0132,0.2961 -0.009,0.081 -0.0182,0.1571 -0.0321,0.2197 -0.0129,0.0674 -0.035,0.1255 -0.0671,0.1798 -0.0312,0.0489 -0.0672,0.0983 -0.1166,0.1474 -0.0491,0.0492 -0.1927,0.1253 -0.4255,0.2336 -0.2377,0.1119 -0.5428,0.2148 -0.9194,0.3226 -0.3767,0.1032 -0.8119,0.1971 -1.3049,0.2781 -0.4929,0.0849 -1.0177,0.1253 -1.5785,0.1253 -0.9724,0 -1.8199,-0.1346 -2.5515,-0.4078 -0.7306,-0.2691 -1.3449,-0.6725 -1.8427,-1.2063 -0.4976,-0.5379 -0.8742,-1.2065 -1.1248,-2.0133 -0.2559,-0.8029 -0.3817,-1.7396 -0.3817,-2.8115 0,-1.0134 0.1304,-1.9277 0.3946,-2.7396 0.2598,-0.807 0.6411,-1.4975 1.1348,-2.0625 0.4931,-0.5651 1.0941,-0.9958 1.7938,-1.3001 0.6995,-0.3008 1.4836,-0.4533 2.3493,-0.4533 0.9275,0 1.7175,0.1484 2.3668,0.4486 0.6555,0.2959 1.1885,0.6993 1.6099,1.2014 0.4175,0.5025 0.7265,1.0946 0.9241,1.7761 0.1973,0.6769 0.2956,1.4034 0.2956,2.1744 z m -2.1792,-0.6403 c 0.0272,-1.1391 -0.2239,-2.0359 -0.7574,-2.686 -0.5333,-0.6501 -1.318,-0.9732 -2.363,-0.9732 -0.5379,0 -1.0087,0.0982 -1.4121,0.3002 -0.4038,0.2022 -0.7406,0.4713 -1.0138,0.8075 -0.274,0.3316 -0.4844,0.7219 -0.6323,1.1613 -0.1475,0.4437 -0.2329,0.9058 -0.2509,1.3902 z m 13.6578,-4.1028 c 0,0.1745 -0.009,0.3229 -0.0267,0.4436 -0.0183,0.1255 -0.0453,0.2245 -0.0857,0.3002 -0.0399,0.0808 -0.0849,0.1394 -0.1345,0.1793 -0.054,0.0404 -0.1212,0.0584 -0.1973,0.0584 h -3.5378 v 10.1923 c 0,0.071 -0.0176,0.1297 -0.0536,0.1793 -0.036,0.0445 -0.09,0.0896 -0.1703,0.1256 -0.0808,0.0311 -0.1888,0.0579 -0.3323,0.0761 -0.1385,0.0175 -0.318,0.0268 -0.538,0.0268 -0.2146,0 -0.3895,-0.009 -0.5287,-0.0268 -0.1437,-0.0182 -0.2559,-0.045 -0.3367,-0.0761 -0.0849,-0.036 -0.143,-0.0811 -0.1744,-0.1256 -0.0312,-0.0496 -0.045,-0.1083 -0.045,-0.1793 v -10.1923 h -3.5381 c -0.0672,0 -0.1297,-0.018 -0.1878,-0.0584 -0.0582,-0.0399 -0.1032,-0.0985 -0.1392,-0.1793 -0.0314,-0.0757 -0.0625,-0.1791 -0.0854,-0.3044 -0.0221,-0.1253 -0.0314,-0.2778 -0.0314,-0.4537 0,-0.1565 0.009,-0.2949 0.0314,-0.4163 0.0229,-0.1256 0.054,-0.2287 0.0942,-0.3093 0.0403,-0.0851 0.0854,-0.1435 0.1396,-0.1836 0.0489,-0.0412 0.1114,-0.0589 0.1786,-0.0589 h 9.2549 c 0.0674,0 0.1301,0.0177 0.1885,0.0589 0.0584,0.0401 0.1034,0.0985 0.1387,0.1836 0.0319,0.0806 0.0628,0.1876 0.0854,0.3132 0.0226,0.1265 0.0316,0.2693 0.0316,0.4267 z m 5.3577,0.9864 c 0,0.2822 -0.018,0.5199 -0.0579,0.7128 -0.0403,0.1925 -0.1167,0.3501 -0.224,0.4664 -0.1122,0.1207 -0.256,0.2017 -0.4307,0.2511 -0.1747,0.0492 -0.3995,0.0713 -0.6725,0.0713 -0.2827,0 -0.5116,-0.0221 -0.6861,-0.0713 -0.1749,-0.0494 -0.3184,-0.1304 -0.4216,-0.2511 -0.1075,-0.1163 -0.1788,-0.2739 -0.2199,-0.4664 -0.0399,-0.1929 -0.0582,-0.4306 -0.0582,-0.7128 0,-0.2961 0.0183,-0.5428 0.0582,-0.7397 0.0411,-0.1975 0.1124,-0.3591 0.2199,-0.4756 0.1032,-0.1214 0.2467,-0.2017 0.4216,-0.2509 0.1745,-0.0494 0.4034,-0.0725 0.6861,-0.0725 0.273,0 0.4978,0.0231 0.6725,0.0725 0.1747,0.0492 0.3185,0.1295 0.4307,0.2509 0.1073,0.1165 0.1837,0.2781 0.224,0.4756 0.0399,0.1969 0.0579,0.4436 0.0579,0.7397 z m 0,8.6446 c 0,0.2689 -0.0128,0.52 -0.0403,0.7445 -0.0268,0.2283 -0.0672,0.4438 -0.1251,0.6455 -0.0543,0.2017 -0.1348,0.3995 -0.2377,0.5966 -0.0985,0.1971 -0.2241,0.4031 -0.3723,0.6228 l -1.7889,2.6729 c -0.045,0.0713 -0.0942,0.1256 -0.1523,0.1706 -0.0584,0.0443 -0.1258,0.0803 -0.2017,0.1114 -0.0815,0.0314 -0.175,0.0543 -0.2874,0.072 -0.1075,0.0183 -0.2418,0.0273 -0.3995,0.0273 -0.1474,0 -0.2727,-0.005 -0.3761,-0.018 -0.0983,-0.0139 -0.1708,-0.0409 -0.2151,-0.072 -0.045,-0.0361 -0.0671,-0.0803 -0.0718,-0.1256 -0.005,-0.0494 0.009,-0.1122 0.045,-0.1929 l 1.7214,-3.578 v -1.6771 c 0,-0.2377 0.0268,-0.4255 0.081,-0.5651 0.0494,-0.1385 0.1297,-0.2416 0.229,-0.3139 0.1024,-0.0713 0.2279,-0.1163 0.3897,-0.1438 0.1572,-0.026 0.3453,-0.0399 0.5647,-0.0399 0.211,0 0.3947,0.0139 0.5521,0.0399 0.1605,0.0275 0.2868,0.0725 0.3897,0.1438 0.0988,0.0723 0.1752,0.1754 0.2244,0.3139 0.0491,0.1396 0.0712,0.3274 0.0712,0.5651 z"
     style="fill:#1b1918;fill-rule:evenodd"
     id="path966" />
  <path
     d="m 103.01147,-214.77813 c 0,3.1244 0.6831,5.4638 2.0489,7.0107 1.3742,1.5545 3.0934,2.3315 5.1735,2.3315 2.0568,0 3.7689,-0.777 5.1426,-2.3395 1.3657,-1.5621 2.0489,-3.9413 2.0489,-7.1362 0,-3.0149 -0.6908,-5.2994 -2.0645,-6.8459 -1.3742,-1.5546 -3.0855,-2.3318 -5.127,-2.3318 -2.0801,0 -3.7993,0.7693 -5.1735,2.3162 -1.3658,1.5465 -2.0489,3.8783 -2.0489,6.995 z m -4.239501,-0.008 c 0,-4.5142 1.256301,-7.8585 3.776001,-10.0332 2.0962,-1.806 4.6639,-2.7088 7.6859,-2.7088 3.3528,0 6.1004,1.0992 8.2357,3.2975 2.1277,2.1903 3.1953,5.2285 3.1953,9.0989 0,3.1403 -0.4706,5.6056 -1.4131,7.4036 -0.942,1.7977 -2.3162,3.1952 -4.1216,4.1921 -1.798,0.997 -3.7686,1.4916 -5.8963,1.4916 -3.4226,0 -6.1861,-1.091 -8.2979,-3.2814 -2.112101,-2.1903 -3.164001,-5.3467 -3.164001,-9.4603 z m -18.8028,8.8322 h 5.4408 c 2.3395,0 3.949,-0.2747 4.8203,-0.8167 0.8711,-0.5491 1.3269,-1.4839 1.3734,-2.8264 0,-0.7773 -0.2508,-1.5072 -0.7531,-2.1742 -0.5103,-0.6675 -1.1702,-1.0916 -1.9783,-1.264 -0.809,-0.1808 -2.1121,-0.267 -3.9019,-0.267 h -5.0012 z m 0,-10.7399 h 4.3965 c 1.7507,0 2.9597,-0.0939 3.6114,-0.2747 0.659,-0.1888 1.2484,-0.5576 1.7662,-1.1228 0.5179,-0.5576 0.7773,-1.2322 0.7773,-2.0174 0,-1.2957 -0.455,-2.1904 -1.3581,-2.7012 -0.9107,-0.5102 -2.4653,-0.7611 -4.6632,-0.7611 h -4.5301 z m -4.1454,-10.3159 h 9.5389 c 2.3394,0 4.0824,0.1965 5.2285,0.5885 1.1384,0.3929 2.1197,1.1072 2.9364,2.1515 0.824,1.0522 1.2325,2.3 1.2325,3.7604 0,1.1696 -0.2432,2.1904 -0.7223,3.0538 -0.4867,0.8714 -1.2089,1.6019 -2.1824,2.1827 1.1461,0.3844 2.0963,1.0992 2.8574,2.1509 0.7537,1.0443 1.1304,2.2927 1.1304,3.7293 -0.1491,2.3159 -0.9808,4.0351 -2.4806,5.1499 -1.4995,1.1229 -3.6822,1.6804 -6.5395,1.6804 h -10.9993 z m -26.316,0 h 4.1454 v 18.6458 l 11.5172,-18.6458 h 4.4512 v 24.4474 h -4.1454 v -18.5278 l -11.5015,18.5278 h -4.4669 z m -33.2952,-9.28 h 26.4731 v 33.7274 h -4.4748 v -29.7706 h -17.5235 v 29.7706 h -4.4748 z"
     style="fill:#1b1918;fill-rule:evenodd"
     id="path968" />
  <path
     d="m 259.55607,547.92857 c 0,0.164 -0.009,0.31 -0.0326,0.4363 -0.024,0.1321 -0.0567,0.2396 -0.0988,0.3245 -0.0421,0.0893 -0.0944,0.1503 -0.1648,0.1924 -0.0704,0.0421 -0.1452,0.061 -0.225,0.061 h -9.8511 c -0.1263,0 -0.2396,-0.0138 -0.3383,-0.0472 -0.0936,-0.0327 -0.1779,-0.0842 -0.2439,-0.1597 -0.0705,-0.0705 -0.122,-0.1779 -0.1547,-0.3144 -0.0334,-0.1358 -0.0472,-0.3049 -0.0472,-0.5067 0,-0.1837 0.01,-0.3434 0.0233,-0.4792 0.0145,-0.1365 0.0428,-0.2585 0.0893,-0.3666 0.0472,-0.1031 0.1081,-0.2062 0.1786,-0.3144 0.0704,-0.1031 0.164,-0.2156 0.2773,-0.3332 l 3.5588,-3.6627 c 0.8262,-0.845 1.484,-1.6008 1.9813,-2.2723 0.498,-0.6665 0.8784,-1.2771 1.1507,-1.831 0.2671,-0.5496 0.4457,-1.0476 0.5307,-1.4977 0.0842,-0.4509 0.1263,-0.8734 0.1263,-1.2684 0,-0.3942 -0.0653,-0.7695 -0.1967,-1.1216 -0.1365,-0.3521 -0.3246,-0.6621 -0.5779,-0.93 -0.2491,-0.2679 -0.5634,-0.4792 -0.9438,-0.6338 -0.3754,-0.1546 -0.8124,-0.2345 -1.3054,-0.2345 -0.5771,0 -1.094,0.0799 -1.5543,0.2345 -0.4552,0.1546 -0.8589,0.3289 -1.2066,0.5118 -0.3427,0.183 -0.6338,0.3565 -0.864,0.5118 -0.2301,0.1547 -0.4036,0.2345 -0.5162,0.2345 -0.066,0 -0.127,-0.0188 -0.1785,-0.0559 -0.0516,-0.0377 -0.0937,-0.0943 -0.1271,-0.1786 -0.0327,-0.0798 -0.061,-0.1923 -0.0791,-0.3288 -0.0189,-0.1409 -0.0283,-0.305 -0.0283,-0.4973 0,-0.1365 0.004,-0.2541 0.0138,-0.3572 0.009,-0.0988 0.0232,-0.1881 0.0471,-0.2628 0.0233,-0.0705 0.0516,-0.1409 0.0893,-0.207 0.0371,-0.0609 0.1126,-0.1408 0.2207,-0.2395 0.1126,-0.0937 0.3006,-0.2251 0.5729,-0.3892 0.2671,-0.1691 0.6098,-0.3288 1.0185,-0.4886 0.4037,-0.164 0.8545,-0.2954 1.3475,-0.4087 0.4886,-0.1074 1.0048,-0.1641 1.5449,-0.1641 0.8639,0 1.6197,0.122 2.2629,0.3659 0.6483,0.2396 1.1834,0.5728 1.611,0.9961 0.4269,0.4225 0.7463,0.9104 0.9576,1.4694 0.2113,0.559 0.3151,1.1551 0.3151,1.7889 0,0.5684 -0.0523,1.1362 -0.1503,1.6995 -0.1038,0.5634 -0.3151,1.174 -0.6389,1.8317 -0.3289,0.657 -0.7979,1.3845 -1.4135,2.1874 -0.6106,0.803 -1.4273,1.7279 -2.4459,2.7755 l -2.8176,2.9439 h 7.7479 c 0.0704,0 0.1408,0.0189 0.2112,0.061 0.0704,0.0421 0.1314,0.1031 0.1779,0.183 0.0523,0.0849 0.0893,0.188 0.1133,0.31 0.0232,0.122 0.0326,0.2679 0.0326,0.432 z m 6.5877,-0.4981 c 0,0.6527 -0.1082,1.0847 -0.3238,1.301 -0.2163,0.2156 -0.6055,0.3238 -1.1739,0.3238 -0.554,0 -0.9344,-0.1082 -1.1456,-0.3194 -0.2113,-0.2113 -0.3144,-0.6338 -0.3144,-1.2676 0,-0.6527 0.1074,-1.0847 0.3238,-1.3003 0.2156,-0.2163 0.6055,-0.3245 1.1739,-0.3245 0.554,0 0.9344,0.1038 1.1457,0.3151 0.2061,0.2112 0.3143,0.6381 0.3143,1.2719 z m 14.692,-4.2158 c 0,0.9532 -0.1597,1.7982 -0.4843,2.5446 -0.3187,0.7419 -0.7746,1.3663 -1.3612,1.8781 -0.5873,0.5075 -1.2865,0.8923 -2.0989,1.1602 -0.8073,0.2671 -1.7089,0.3985 -2.6999,0.3985 -0.554,0 -1.0752,-0.037 -1.5682,-0.1168 -0.498,-0.0755 -0.9394,-0.1743 -1.3242,-0.2868 -0.3848,-0.1125 -0.6999,-0.2251 -0.9481,-0.3383 -0.2491,-0.1075 -0.4037,-0.1924 -0.4748,-0.2578 -0.0705,-0.066 -0.1169,-0.1219 -0.1452,-0.1786 -0.0284,-0.0566 -0.0516,-0.1219 -0.0748,-0.1974 -0.024,-0.0799 -0.0378,-0.1779 -0.0472,-0.2955 -0.01,-0.1176 -0.0145,-0.2628 -0.0145,-0.4276 0,-0.1547 0.005,-0.2911 0.0188,-0.4175 0.0146,-0.1219 0.0429,-0.2207 0.0799,-0.3005 0.0334,-0.0755 0.0799,-0.1365 0.127,-0.1692 0.0516,-0.0377 0.1082,-0.0566 0.1736,-0.0566 0.0943,0 0.2352,0.0566 0.4276,0.1742 0.1924,0.1126 0.4508,0.2345 0.7746,0.371 0.3289,0.1314 0.7275,0.2577 1.211,0.3754 0.4842,0.1176 1.0519,0.1785 1.714,0.1785 0.615,0 1.1783,-0.0755 1.6902,-0.2207 0.5118,-0.1459 0.9583,-0.376 1.3293,-0.6904 0.3709,-0.31 0.6621,-0.6998 0.8733,-1.1739 0.2113,-0.4741 0.3144,-1.0469 0.3144,-1.7279 0,-0.5677 -0.0893,-1.0708 -0.2679,-1.5072 -0.1779,-0.4363 -0.4552,-0.7978 -0.8262,-1.0889 -0.371,-0.2868 -0.8407,-0.5024 -1.4135,-0.6484 -0.5677,-0.1408 -1.2444,-0.2112 -2.0328,-0.2112 -0.5634,0 -1.0425,0.0283 -1.4462,0.0842 -0.4036,0.0523 -0.7797,0.0798 -1.1318,0.0798 -0.2534,0 -0.4363,-0.0609 -0.5488,-0.1778 -0.1082,-0.1176 -0.1648,-0.3478 -0.1648,-0.6861 v -7.2541 c 0,-0.3006 0.0704,-0.5257 0.2112,-0.6716 0.1459,-0.1452 0.3478,-0.2207 0.6149,-0.2207 h 7.8931 c 0.0704,0 0.1408,0.0189 0.2112,0.061 0.0704,0.0428 0.1271,0.1038 0.1743,0.188 0.0421,0.0799 0.0798,0.183 0.1031,0.3144 0.0232,0.127 0.0326,0.2773 0.0326,0.4508 0,0.3289 -0.0421,0.5874 -0.1314,0.7703 -0.0893,0.183 -0.2112,0.2723 -0.371,0.2723 h -6.3713 v 5.0006 c 0.31,-0.0472 0.6244,-0.0755 0.9481,-0.0849 0.3246,-0.009 0.6948,-0.0138 1.1224,-0.0138 0.9816,0 1.8361,0.1219 2.573,0.3666 0.7325,0.2389 1.3474,0.5866 1.836,1.028 0.493,0.4458 0.8639,0.9859 1.113,1.6197 0.2533,0.6295 0.3804,1.3337 0.3804,2.104 z m 6.7002,4.2158 c 0,0.6527 -0.1082,1.0847 -0.3238,1.301 -0.2163,0.2156 -0.6055,0.3238 -1.1739,0.3238 -0.554,0 -0.9344,-0.1082 -1.1457,-0.3194 -0.2112,-0.2113 -0.3143,-0.6338 -0.3143,-1.2676 0,-0.6527 0.1074,-1.0847 0.3238,-1.3003 0.2156,-0.2163 0.6055,-0.3245 1.1739,-0.3245 0.554,0 0.9344,0.1038 1.1456,0.3151 0.2062,0.2112 0.3144,0.6381 0.3144,1.2719 z m 14.8328,0.5823 c 0,0.1742 -0.0145,0.3194 -0.0428,0.437 -0.0276,0.1176 -0.061,0.2156 -0.1075,0.2861 -0.0472,0.0755 -0.0987,0.127 -0.1597,0.1597 -0.061,0.0334 -0.122,0.0472 -0.1829,0.0472 h -9.2971 c -0.061,0 -0.122,-0.0138 -0.1786,-0.0472 -0.0516,-0.0327 -0.1082,-0.0842 -0.1547,-0.1597 -0.0515,-0.0705 -0.0893,-0.1685 -0.1176,-0.2861 -0.0283,-0.1176 -0.0421,-0.2628 -0.0421,-0.437 0,-0.1641 0.0138,-0.305 0.0421,-0.4226 0.0283,-0.1219 0.061,-0.2207 0.1031,-0.2954 0.0378,-0.0799 0.0893,-0.1365 0.1503,-0.1786 0.061,-0.0421 0.127,-0.061 0.1975,-0.061 h 3.7047 v -13.5507 l -3.4419,2.0567 c -0.1735,0.0893 -0.3144,0.1452 -0.4226,0.1641 -0.103,0.0189 -0.188,0 -0.2533,-0.061 -0.0661,-0.061 -0.1082,-0.1597 -0.1314,-0.2962 -0.024,-0.1358 -0.0334,-0.3093 -0.0334,-0.5206 0,-0.1553 0.005,-0.2911 0.0188,-0.3993 0.0146,-0.1125 0.0378,-0.2018 0.0661,-0.2773 0.0283,-0.0704 0.0654,-0.1357 0.1176,-0.1924 0.0465,-0.0515 0.1126,-0.1081 0.1968,-0.164 l 4.104,-2.6253 c 0.037,-0.0275 0.0799,-0.0515 0.1358,-0.0704 0.0566,-0.0138 0.127,-0.0326 0.2069,-0.0515 0.0842,-0.0189 0.1786,-0.0327 0.2911,-0.0378 0.1082,-0.004 0.244,-0.004 0.4131,-0.004 0.2164,0 0.4037,0.009 0.5496,0.0283 0.1452,0.0189 0.2577,0.0421 0.3427,0.0748 0.0842,0.0334 0.1357,0.0755 0.164,0.1219 0.0283,0.0523 0.0421,0.1038 0.0421,0.1598 v 15.6452 h 3.2213 c 0.0755,0 0.1459,0.0189 0.2069,0.061 0.0653,0.0421 0.1169,0.0987 0.1597,0.1786 0.0421,0.0747 0.0748,0.1735 0.098,0.2954 0.024,0.1176 0.0334,0.2585 0.0334,0.4226 z m 14.0814,-4.1643 c 0,0.8123 -0.1408,1.5492 -0.4276,2.2063 -0.2817,0.6526 -0.6897,1.2167 -1.2255,1.6857 -0.5299,0.4654 -1.1877,0.8269 -1.9667,1.0752 -0.7797,0.2541 -1.6574,0.3804 -2.639,0.3804 -0.5967,0 -1.155,-0.0464 -1.6719,-0.1452 -0.5162,-0.0943 -0.9765,-0.2069 -1.3802,-0.3383 -0.4036,-0.1357 -0.7419,-0.2722 -1.0047,-0.4131 -0.2679,-0.1408 -0.4371,-0.2439 -0.5024,-0.3049 -0.0705,-0.066 -0.122,-0.1321 -0.1598,-0.1931 -0.0377,-0.0653 -0.0704,-0.1408 -0.0936,-0.2345 -0.0283,-0.0893 -0.0516,-0.2018 -0.0661,-0.3332 -0.0138,-0.1314 -0.0188,-0.2962 -0.0188,-0.4886 0,-0.3238 0.0333,-0.554 0.0987,-0.681 0.0661,-0.1263 0.1597,-0.1924 0.2817,-0.1924 0.0849,0 0.2533,0.0755 0.5024,0.2207 0.249,0.1459 0.5684,0.3006 0.9583,0.4697 0.3891,0.1692 0.845,0.3238 1.3707,0.4697 0.5212,0.1452 1.1035,0.2207 1.7416,0.2207 0.62,0 1.1645,-0.0798 1.6342,-0.2352 0.4698,-0.1546 0.8691,-0.3753 1.1878,-0.6621 0.3194,-0.286 0.559,-0.6243 0.7187,-1.0142 0.1597,-0.3891 0.2396,-0.8117 0.2396,-1.2719 0,-0.5075 -0.1031,-0.9627 -0.3057,-1.3664 -0.2018,-0.4044 -0.5024,-0.7565 -0.8966,-1.0476 -0.3898,-0.2955 -0.8733,-0.5205 -1.4461,-0.6759 -0.5729,-0.1546 -1.2255,-0.2345 -1.953,-0.2345 h -1.7467 c -0.0755,0 -0.1503,-0.0145 -0.2207,-0.0472 -0.0704,-0.0326 -0.1314,-0.0842 -0.183,-0.1597 -0.0522,-0.0704 -0.0944,-0.1692 -0.127,-0.286 -0.0327,-0.1176 -0.0516,-0.2723 -0.0516,-0.4654 0,-0.1735 0.0138,-0.3144 0.0421,-0.432 0.0283,-0.1125 0.0661,-0.2018 0.1176,-0.2722 0.0516,-0.0654 0.1075,-0.1169 0.1685,-0.1503 0.066,-0.0327 0.1415,-0.0465 0.2207,-0.0465 h 1.5594 c 0.6011,0 1.1456,-0.0798 1.6292,-0.2352 0.4791,-0.1546 0.8871,-0.3804 1.2254,-0.6759 0.3333,-0.2911 0.5917,-0.6432 0.7703,-1.052 0.1779,-0.408 0.2672,-0.8639 0.2672,-1.3706 0,-0.3667 -0.061,-0.7137 -0.1786,-1.052 -0.1169,-0.3332 -0.2955,-0.6244 -0.5351,-0.8734 -0.2395,-0.249 -0.5445,-0.4414 -0.9155,-0.5866 -0.3709,-0.1408 -0.7978,-0.2113 -1.2821,-0.2113 -0.535,0 -1.0185,0.0792 -1.4643,0.244 -0.4465,0.1597 -0.8407,0.3332 -1.1884,0.5162 -0.3471,0.1836 -0.6382,0.3572 -0.8683,0.5169 -0.2258,0.1641 -0.3899,0.2439 -0.4792,0.2439 -0.0653,0 -0.122,-0.009 -0.1735,-0.0327 -0.0472,-0.0239 -0.0893,-0.0704 -0.122,-0.1408 -0.0334,-0.0661 -0.0566,-0.1648 -0.0704,-0.2868 -0.0145,-0.1219 -0.0189,-0.286 -0.0189,-0.4878 0,-0.1365 0.004,-0.2585 0.0138,-0.3667 0.01,-0.1031 0.0283,-0.1974 0.0566,-0.2722 0.0284,-0.0799 0.0559,-0.1503 0.0937,-0.2164 0.0378,-0.0609 0.0987,-0.1357 0.188,-0.225 0.0842,-0.0842 0.2628,-0.2113 0.5257,-0.3754 0.2678,-0.1691 0.5967,-0.3288 0.9859,-0.4886 0.3898,-0.164 0.8407,-0.2954 1.3481,-0.4087 0.5068,-0.1074 1.0564,-0.1641 1.643,-0.1641 0.8261,0 1.5492,0.1031 2.1743,0.3144 0.6193,0.2113 1.1406,0.5118 1.5587,0.8973 0.4175,0.3797 0.7275,0.84 0.9344,1.3801 0.2062,0.5351 0.31,1.1268 0.31,1.7795 0,0.559 -0.0755,1.0752 -0.2207,1.5587 -0.1459,0.4791 -0.3616,0.9067 -0.6483,1.2777 -0.2817,0.371 -0.6338,0.6854 -1.0469,0.9482 -0.4131,0.2628 -0.8872,0.4414 -1.4273,0.5401 v 0.0283 c 0.6105,0.0654 1.1739,0.2207 1.6807,0.4596 0.5074,0.2446 0.9438,0.5496 1.3104,0.9162 0.3659,0.3659 0.6526,0.7979 0.8588,1.2865 0.2069,0.4929 0.31,1.0142 0.31,1.5776 z"
     style="fill:#1b1918;fill-rule:evenodd"
     id="path970" />
  <g
     id="Layer1042"
     transform="translate(-9.6158314,-267.16463)">
    <path
       d="m 174.5367,516.3602 c -18.9737,4.8697 -38.4069,9.0987 -46.2242,29.5498 -2.4014,6.2835 -3.2158,11.078 -2.0106,17.7209 2.3476,12.9387 11.8229,25.2421 29.9217,36.7769 22.4707,7.3166 43.8812,5.8585 64.7456,-0.1181 21.6256,-10.2525 37.0082,-24.5311 33.2335,-51.1651 -8.5343,-34.5485 -24.253,-32.1485 -38.2861,-38.4184 15.5965,4.6913 32.4174,4.3888 41.6144,35.1903 5.1931,23.1477 -0.868,43.4752 -34.1363,56.9855 -22.2289,8.7935 -44.952,6.2252 -67.8067,0.6368 -23.4879,-10.1983 -29.7857,-25.1242 -32.4768,-39.7861 -1.4354,-7.8222 -1.4083,-9.1947 1.3836,-16.7841 9.9095,-26.9324 30.5025,-27.4584 50.0419,-30.5884 z"
       style="fill:#1b1918;fill-rule:evenodd"
       id="path972" />
    <path
       d="m 145.9199,567.3243 c 0.3103,9.6946 -1.7559,18.3278 3.6299,30.2905 2.6373,1.5556 5.2743,3.1109 7.9116,4.6664 -9.2648,-11.4165 -9.7591,-23.2144 -11.5415,-34.9569 z"
       style="fill:#1b1918;fill-rule:evenodd"
       id="path974" />
    <path
       d="m 157.8969,576.0535 c 1.2471,9.1232 0.1457,17.4782 6.4082,28.2436 2.6433,1.2093 5.9885,0.8461 8.6317,2.0551 -9.8714,-9.8676 -12.2011,-19.3867 -15.0399,-30.2987 z"
       style="fill:#1b1918;fill-rule:evenodd"
       id="path976" />
    <path
       d="m 237.0343,563.3611 c 0.5326,9.6849 3.3406,18.1061 -0.9861,30.4913 -2.4923,1.7787 -4.9843,3.5571 -7.4765,5.3357 8.2385,-12.1778 7.7065,-23.9741 8.4626,-35.827 z"
       style="fill:#1b1918;fill-rule:evenodd"
       id="path978" />
    <path
       d="m 225.8605,573.0973 c -0.4503,9.1971 1.3724,17.4248 -3.9317,28.6934 -2.5283,1.4342 -5.8924,1.3629 -8.4206,2.7968 8.9773,-10.6875 10.4716,-20.3729 12.3523,-31.4902 z"
       style="fill:#1b1918;fill-rule:evenodd"
       id="path980" />
    <path
       d="m 170.65,553.5108 c 0.7037,1.565 3.1823,2.845 4.0673,4.0676 2.0072,2.7731 4.66,5.9118 22.0673,3.6883 1.7044,-0.2177 2.8724,-0.2748 3.756,-0.3175 1.0344,-0.0503 1.6249,-0.0794 2.1396,-0.3342 0.7849,-0.3887 1.3281,-0.3764 3.5931,-2.6723 0.6598,-0.6214 2.9206,-2.2312 3.0155,-2.1594 0.2739,0.1789 -1.861,3.2687 -2.5646,3.9703 -2.4364,2.4658 -2.0465,2.1546 -3.1384,2.6952 -0.8993,0.4451 -1.6426,0.4815 -2.9454,0.545 -0.8592,0.0416 -1.9943,0.097 -3.6009,0.3022 -18.607,2.3767 -22.4984,-2.9978 -24.7677,-6.133 -0.3122,-0.5575 -3.0724,-3.5653 -1.6218,-3.6522 z"
       style="fill:#1b1918;fill-rule:evenodd"
       id="path982" />
    <path
       d="m 268.8367,625.7789 c -54.3172,26.0867 -116.7292,27.2228 -159.1591,-3.0466 47.9772,36.0481 107.5637,27.7882 159.1591,4.8602 0.2392,-1.2535 -0.2392,-0.56 0,-1.8136 z"
       style="fill:#1b1918;fill-rule:evenodd"
       id="path984" />
    <path
       d="m 277.5072,383.6016 c -7.1421,77.8327 -9.736,165.7303 -8.3239,240.5478 3.6352,9.5816 4.8991,15.0185 8.5343,24.6001 3.2696,7.9895 1.3217,14.7827 -2.7607,16.7313 -55.0916,37.8613 -134.1564,24.8063 -173.8526,-1.1934 -5.268,-3.8891 -6.5048,-10.9073 -5.1319,-17.5647 3.849,-8.7985 7.6982,-17.5974 11.5472,-26.3959 12.2513,-83.2789 5.4849,-161.2472 1.6956,-236.3758 l 1.559,4.294 c 1.1069,11.253 2.5448,24.8563 2.8356,30.1185 3.3829,61.2468 6.8402,129.1347 -1.9895,189.2138 l -2.2486,13.3383 c -3.7951,8.6751 -7.9317,18.3588 -11.7267,27.034 -0.8299,4.4122 0.5543,12.1673 4.551,15.1928 22.5541,14.734 53.9964,22.3976 80.0957,23.8678 31.9967,1.8027 66.7275,-4.7338 94.0466,-24.585 2.9974,-1.7305 0.922,-9.8233 -0.3759,-12.995 -2.8919,-7.3376 -7.3226,-17.5374 -8.8323,-25.3052 -1.3762,-72.9167 2.6608,-167.6547 8.942,-240.5861 z"
       style="fill:#1b1918;fill-rule:evenodd"
       id="path986" />
    <path
       d="m 97.576,647.0862 c 21.6129,12.5355 44.5189,21.1671 66.9172,25.314 -24.8569,-3.2468 -43.3319,-10.8732 -66.7847,-23.6266 -0.237,-1.2761 0.1046,-0.4112 -0.1325,-1.6874 z"
       style="fill:#1b1918;fill-rule:evenodd"
       id="path988" />
    <path
       d="m 96.6385,651.1998 c 16.9439,10.1286 34.9519,17.1902 52.6075,20.7067 -19.6083,-2.8329 -34.1256,-9.0529 -52.5211,-19.3735 -0.1735,-1.0098 0.0871,-0.3234 -0.0864,-1.3332 z"
       style="fill:#1b1918;fill-rule:evenodd"
       id="path990" />
    <path
       d="m 193.0396,364.5867 c -46.5011,0 -84.1978,8.6249 -84.1978,19.2643 0,10.6394 37.6967,19.2643 84.1978,19.2643 46.5011,0 84.1977,-8.6249 84.1977,-19.2643 0,-10.6394 -37.6966,-19.2643 -84.1977,-19.2643 z m 2e-4,0.7271 c -44.7465,0 -81.0207,8.2993 -81.0207,18.5372 0,10.2379 36.2742,18.5375 81.0207,18.5375 44.7464,0 81.0205,-8.2996 81.0205,-18.5375 0,-10.2379 -36.2741,-18.5372 -81.0205,-18.5372 z"
       style="fill:#1b1918;fill-rule:evenodd"
       id="path992" />
    <path
       d="m 189.9352,368.4685 c 41.8008,-0.4834 76.3348,6.379 81.7467,15.7323 l -1.6762,0.1144 c -5.4571,-8.9321 -45.9914,-15.5137 -80.0707,-15.1197 -34.0793,0.3941 -52.8474,4.0295 -66.9451,9.3474 -2.1844,0.3728 -4.2913,0.7661 -6.3171,1.1771 13.7334,-6.3398 41.3845,-10.8828 73.2624,-11.2515 z"
       style="fill:#1b1918;fill-rule:evenodd"
       id="path994" />
    <path
       d="m 189.4476,370.7061 c 32.7156,0 60.6733,4.5156 71.8973,10.8891 l -0.4344,0.7574 c -11.068,-6.0085 -42.7666,-11.0007 -71.4632,-11.0007 -28.6965,0 -49.433,3.0363 -62.6197,7.6149 -2.0431,0.3086 -4.014,0.6363 -5.909,0.9806 12.8462,-5.4902 38.7107,-9.2413 68.529,-9.2413 z"
       style="fill:#1b1918;fill-rule:evenodd"
       id="path996" />
    <path
       d="m 156.6082,471.5376 c -1.3725,1.2958 -4.042,18.4224 4.6543,19.2755 2.2555,0.2212 9.3288,-0.6251 11.1315,-1.5856 4.7094,-2.5082 3.2134,-14.5507 1.4527,-16.5007 -7.2411,-8.021 -15.4153,-2.9092 -17.2385,-1.1892 z"
       style="fill:#1b1918;fill-rule:evenodd"
       id="path998" />
    <path
       d="m 161.4671,490.3372 c 2.0005,0.1984 8.2728,-0.5535 9.8708,-1.4097 4.1747,-2.2361 2.7939,-12.9597 1.2765,-14.7241 -3.1173,-3.624 -6.5072,-4.1018 -10.4122,-3.9923 -6.3428,0.1785 -9.007,19.3053 -0.7351,20.1261 z"
       style="fill:#ffffff;fill-rule:evenodd"
       id="path1000" />
    <g
       id="Layer1043">
      <path
         d="m 164.1049,473.2082 c -0.9884,0.6532 -3.0475,11.6072 2.1296,12.1409 1.3431,0.1383 5.553,-0.3858 6.6256,-0.9827 2.8022,-1.5587 2.0249,-9.1309 0.8568,-10.2639 -4.4946,-4.359 -7.8673,-2.0467 -9.612,-0.8943 z"
         style="fill:#1b1918;fill-rule:evenodd"
         id="path1002" />
      <path
         d="m 161.5592,477.0508 c -0.4216,0.1473 -1.1049,4.2081 0.7721,4.4017 0.487,0.0501 2.0132,-0.1399 2.4021,-0.3563 1.0159,-0.5651 0.7885,-3.3544 0.3106,-3.7212 -0.9036,-0.6936 -1.4868,-0.3495 -2.4372,-0.3218 -0.2725,0.008 -0.8393,-0.0753 -1.0476,-0.002 z"
         style="fill:#ffffff;fill-rule:evenodd"
         id="path1004" />
      <path
         d="m 166.2821,481.1427 c -0.1868,0.0653 -0.4897,1.8652 0.3423,1.951 0.2158,0.0222 0.8923,-0.062 1.0646,-0.158 0.4504,-0.2504 0.3496,-1.4867 0.1377,-1.6493 -0.4005,-0.3075 -0.659,-0.1549 -1.0802,-0.1426 -0.1208,0.003 -0.372,-0.0334 -0.4644,-10e-4 z"
         style="fill:#ffffff;fill-rule:evenodd"
         id="path1006" />
    </g>
    <path
       d="m 236.4093,449.9104 c -8.5515,-13.9646 -31.0521,-17.6218 -34.7667,-7.633 -3.6251,9.7493 -0.1942,12.2994 4.1263,10.546 0.203,-0.0824 0.4022,-0.161 0.6014,-0.2373 l -0.0426,-0.0305 c -1.5984,-4.575 -0.561,-7.6861 -0.3641,-11.2646 0.2285,3.5863 0.1384,7.1582 1.7705,10.8054 1.0828,-0.3596 2.1058,-0.6279 3.0867,-0.8177 -1.3837,-3.6212 -0.8382,-6.4202 -0.9903,-9.5158 0.5527,3.2643 1.0152,6.1945 2.846,9.2419 6.74,-0.6761 11.8252,2.3409 21.534,4.4992 5.3723,1.1946 3.6146,-3.2814 2.1988,-5.5936 z"
       style="fill:#1b1918;fill-rule:evenodd"
       id="path1009" />
    <path
       d="m 144.3719,449.4175 c 8.4142,-13.7412 30.5558,-17.3402 34.2113,-7.5102 3.5669,9.5921 0.1914,12.1023 -4.0605,10.3772 -0.3126,-0.1267 -0.6203,-0.2462 -0.9229,-0.3585 1.5763,-4.5507 0.545,-7.6534 0.3486,-11.2204 -0.2269,3.5653 -0.1395,7.1162 -1.7412,10.7407 -1.0922,-0.3452 -2.1235,-0.5947 -3.1122,-0.764 1.3782,-3.6163 0.8349,-6.4125 0.986,-9.5048 -0.5539,3.276 -1.0169,6.2161 -2.8649,9.2746 -6.3831,-0.4686 -11.3726,2.4006 -20.6809,4.4699 -5.2859,1.1752 -3.557,-3.2289 -2.1633,-5.5045 z"
       style="fill:#1b1918;fill-rule:evenodd"
       id="path1011" />
    <path
       d="m 190.7527,499.3525 c 7.4714,-3.0901 23.3201,-1.3228 24.2843,8.6935 -0.5387,6.5909 -6.9233,10.4675 -17.2516,11.8339 -12.811,0.6222 -20.5312,-2.4783 -27.0131,-6.4855 14.491,14.3461 46.5238,8.9596 46.3513,-6.0912 -1.2901,-8.1259 -9.2082,-10.3893 -16.1329,-11.1611 -1.7326,-7.5829 -1.988,-15.3829 -1.9613,-22.6065 -1.0042,7.3031 -1.2091,15.279 0.41,22.9027 -4.9214,0.7769 -7.4695,1.5989 -8.6867,2.9142 z"
       style="fill:#1b1918;fill-rule:evenodd"
       id="path1013" />
    <path
       d="m 110.4393,453.2447 c -4.67,-0.3233 -9.3401,-0.6464 -14.0101,-0.9695 -4.467,-0.1105 -8.9338,-0.221 -13.4008,-0.3313 -9.0847,0.4779 -17.5201,2.4572 -21.1374,15.5874 -1.1057,4.0155 -1.0641,5.3909 -0.7531,9.4693 1.9693,25.7484 0.8936,32.8137 3.2065,59.2321 2.2844,22.3733 14.6901,29.7933 24.4706,36.6302 7.1069,3.3831 14.2132,6.7661 21.3196,10.1489 2.6606,1.3929 3.0443,8.3716 3.6551,14.7925 0.8119,-12.9562 1.6241,-25.9125 2.4361,-38.8689 -0.7608,3.5403 -1.7205,6.8503 -7.0048,5.1499 -4.8443,-1.7638 -9.6884,-3.5279 -14.5321,-5.2918 -3.7397,-1.3612 -4.0933,-1.301 -6.8108,-4.4853 -3.2475,-3.8053 -5.6458,-8.4222 -7.3962,-13.6529 -2.253,-6.7327 -2.081,-10.1472 -2.2366,-16.9895 -0.4361,-19.1183 -0.8723,-25.4817 -1.308,-44.6003 -0.5886,-8.6064 2.7851,-9.5418 6.7002,-9.4283 8.4262,1.1108 16.8526,2.2214 25.2789,3.332 4.6258,1.8927 6.2218,9.6398 7.358,19.8411 -0.609,-13.3284 -1.2183,-26.2827 -1.8273,-39.6112 -1.5229,0.1309 -2.4852,-0.0851 -4.0078,0.0456 z m 5.5185,111.1868 c -0.3336,5.3287 -1.3378,18.777 -1.6721,24.1055 -0.2924,-4.3843 -0.9326,-4.8854 -5.4989,-7.5307 -5.3822,-3.1177 -14.7135,-6.4283 -18.6274,-8.2915 -15.3922,-10.7463 -22.889,-14.7492 -24.7984,-35.0544 -2.1677,-23.0548 -0.748,-34.7536 -2.8609,-58.0735 -0.3703,-4.0898 -1.0149,-6.8447 0.0247,-10.8015 2.6101,-9.9284 9.5023,-14.7258 20.7927,-15.3307 4.4233,0.1093 8.6893,0.2114 13.1126,0.3207 6.0442,0.4183 12.0007,0.4143 18.0396,0.5578 0.2827,6.167 1.8328,27.562 2.1185,33.7289 -3.8041,-21.9122 -4.6354,-16.2705 -28.19,-19.3748 -10.8772,-1.4315 -12.4963,4.495 -11.8531,14.0905 0.3223,14.1364 -0.433,32.9922 0.9895,51.4527 0.4037,5.2384 3.2368,9.4995 4.6653,12.1846 6.8248,12.8257 8.838,11.9775 16.7162,14.8453 3.4054,1.2394 8.0142,3.4154 11.3042,4.4816 1.6532,0.5318 4.1763,-0.8607 5.7375,-1.3105 z"
       style="fill:#1b1918;fill-rule:evenodd"
       id="path1015" />
    <path
       d="m 270.4146,631.3269 c -21.8104,10.4748 -44.9258,16.9224 -67.5289,18.9337 25.0842,-0.8768 43.728,-6.7416 67.3952,-17.2589 0.2392,-1.2536 -0.1055,-0.4212 0.1337,-1.6748 z"
       style="fill:#1b1918;fill-rule:evenodd"
       id="path1017" />
    <path
       d="m 271.3607,635.5299 c -17.0987,8.513 -35.2714,13.8577 -53.0883,15.6909 19.7875,-0.9634 34.4375,-5.7993 53.0011,-14.366 0.1751,-0.9932 -0.0879,-0.3317 0.0872,-1.3249 z"
       style="fill:#1b1918;fill-rule:evenodd"
       id="path1019" />
    <path
       d="m 187.8406,536.0095 c 2.2911,1.1751 9.5511,1.7018 14.0969,-1.5359 2.971,-2.1152 10.0834,3.8131 3.9111,10.8132 -5.1284,5.816 -16.4113,4.57 -19.498,2.9871 -14.1954,-7.27 -4.8047,-14.8339 1.49,-12.2644 z"
       style="fill:#1b1918;fill-rule:evenodd"
       id="path1021" />
    <path
       d="m 210.7717,471.5376 c -1.3726,1.2958 -4.042,18.4224 4.6543,19.2755 2.2555,0.2212 9.3287,-0.6251 11.1314,-1.5856 4.7095,-2.5082 3.2135,-14.5507 1.4528,-16.5007 -7.2411,-8.021 -15.4154,-2.9092 -17.2385,-1.1892 z"
       style="fill:#1b1918;fill-rule:evenodd"
       id="path1023" />
    <path
       d="m 215.6306,490.3372 c 2.0004,0.1984 8.2727,-0.5535 9.8707,-1.4097 4.1748,-2.2361 2.7939,-12.9597 1.2765,-14.7241 -3.1173,-3.624 -6.5072,-4.1018 -10.4122,-3.9923 -6.3427,0.1785 -9.0069,19.3053 -0.735,20.1261 z"
       style="fill:#ffffff;fill-rule:evenodd"
       id="path1025" />
    <g
       id="Layer1044">
      <path
         d="m 218.7325,472.2798 c -0.9884,0.6532 -3.0475,11.6072 2.1297,12.1409 1.3431,0.1383 5.5529,-0.3858 6.6255,-0.9827 2.8022,-1.5587 2.025,-9.1309 0.8568,-10.2639 -4.4945,-4.359 -7.8673,-2.0467 -9.612,-0.8943 z"
         style="fill:#1b1918;fill-rule:evenodd"
         id="path1027" />
      <path
         d="m 216.1868,476.1224 c -0.4215,0.1473 -1.1048,4.2081 0.7721,4.4017 0.487,0.0501 2.0132,-0.1399 2.4021,-0.3563 1.016,-0.5651 0.7886,-3.3544 0.3107,-3.7212 -0.9037,-0.6936 -1.4869,-0.3495 -2.4373,-0.3218 -0.2725,0.008 -0.8393,-0.0753 -1.0476,-0.002 z"
         style="fill:#ffffff;fill-rule:evenodd"
         id="path1029" />
      <path
         d="m 220.9098,480.2143 c -0.1869,0.0653 -0.4898,1.8652 0.3422,1.951 0.2158,0.0222 0.8923,-0.062 1.0647,-0.158 0.4503,-0.2504 0.3495,-1.4867 0.1377,-1.6493 -0.4006,-0.3075 -0.6591,-0.1549 -1.0803,-0.1426 -0.1208,0.004 -0.372,-0.0334 -0.4643,-10e-4 z"
         style="fill:#ffffff;fill-rule:evenodd"
         id="path1031" />
    </g>
    <path
       d="m 19.7777,507.9186 c -3.9072,-0.2501 -17.3928,14.2368 3.495,26.0581 11.719,6.6316 -3.3252,38.8294 30.9762,38.8294 17.4681,0 54.0163,-29.0486 46.0779,-39.7694 -14.685,1.5735 -35.9048,8.729 -9.1279,-11.1109 6.2166,-4.606 -7.4676,-23.1684 -23.9209,-2.0338 -1.4822,1.9038 -22.8729,-5.608 -25.4274,-8.4845 -7.2722,-8.1896 -24.7591,-9.3841 -25.5298,-4.622 0.5682,0.3352 2.7067,1.0849 3.4569,1.1331 z"
       style="fill:#ffffff;fill-rule:evenodd"
       id="path1034" />
    <g
       id="Layer1045">
      <path
         d="m 12.1326,521.5017 c 3.7161,-9.0462 9.6053,-5.0498 18.2064,0.6666 -2.5494,2.3703 -4.5737,3.7651 -5.1968,7.0229 l 0.2489,5.4644 c 0.2389,-0.0813 0.0913,0.644 0.0239,1.0582 z m 75.0391,3.4173 0.5942,-0.0983 c 9.9825,1.4692 15.0796,-12.733 1.6489,-15.8845 -10.966,-2.5731 -15.0167,0.7212 -24.4368,10.6239 -13.3756,0.7337 -43.34,-26.5917 -55.3133,-9.2967 -0.1232,2.0564 0.0089,1.8774 0.1491,3.5893 1.0826,13.183 -3.763,5.3686 13.5343,23.8794 5.5545,5.9442 4.346,8.6487 5.5214,14.1597 3.8832,18.2208 27.9221,23.3545 36.7059,21.3977 12.7182,-2.833 12.8692,-10.159 28.2895,-19.5442 -9.7879,-0.9529 -13.5704,9.6872 -23.2221,15.2075 -6.753,3.8622 -15.2544,2.6223 -21.8262,-0.3285 -20.9929,-9.4248 -16.885,-19.0669 -18.5307,-29.918 -0.7068,-4.6612 -2.3874,-5.9847 -3.3566,-10.2962 5.7011,-6.022 13.4243,-3.6785 16.3511,3.8491 1.6565,4.2595 1.2202,12.5572 0.5987,16.8901 4.4966,-9.4334 4.5479,-19.5145 -5.5552,-25.5124 -24.5876,-14.5953 -18.904,-7.0144 -25.8849,-9.9107 2.3142,-13.9695 32.0757,0.4171 40.3519,4.6071 10.617,5.3732 9.6077,3.1347 14.4776,5.7447 0.1395,-0.297 0.1813,-0.7416 0.2381,-0.956 4.3797,-16.635 24.6159,-14.2802 28.0856,-6.0339 -2.2042,5.1472 -4.6874,4.3594 -8.4205,7.8309 z"
         style="fill:#1b1918;fill-rule:evenodd"
         id="path1036" />
      <path
         d="m 87.7659,524.8207 -0.5942,0.0983 c -4.2114,-0.009 -6.5238,2.0761 -9.3933,6.1499 l 0.756,5.3962 c 5.8199,2.2693 6.1635,0.5559 11.5506,-0.907 4.4884,-1.2186 7.4703,-0.8782 11.105,-2.8813 -8.1561,-4.7337 -15.1837,5.6262 -21.865,1.2047 2.6865,-5.5013 2.7568,-6.05 8.4409,-9.0608 z"
         style="fill:#1b1918;fill-rule:evenodd"
         id="path1038" />
    </g>
    <g
       id="Layer1046">
      <path
         d="m 225.4821,556.1946 c -6.9464,-4.9042 -27.4065,-24.9854 -35.5125,-12.6612 -6.1038,9.2812 20.7306,18.1735 17.3407,26.3249 -2.5274,6.0777 4.1778,10.8032 4.4638,18.6199 0.2352,6.418 4.9696,16.289 12.8283,17.6257 10.2754,1.7472 21.4161,3.6638 31.6927,0.0979 0.1826,-0.0631 19.3264,-10.7501 20.6477,-11.2154 8.4922,-2.9894 16.0903,-6.8142 9.929,-17.8542 -1.1851,-2.1229 -2.3215,-10.0292 -5.9067,-10.9853 -3.8005,-1.0141 -10.395,3.8984 -13.438,5.9433 -7.8936,5.3053 11.6094,-12.0592 -13.9121,-19.6219 -10.4807,-3.1061 -13.5873,-9.674 -20.4844,2.3708 -2.0532,3.5852 -6.9204,1.8695 -7.6485,1.3555 z"
         style="fill:#ffffff;fill-rule:evenodd"
         id="path1041" />
      <path
         d="m 262.7666,600.737 2.6088,-8.1525 c -6.4505,8.2951 -8.1182,18.3534 -29.6217,14.2528 -13.19,-2.5155 -24.4227,-8.3232 -21.2015,-23.5498 -3.4088,-2.4397 -9.1163,-6.7452 -5.8122,-13.5247 4.6015,2.6096 2.3654,3.4844 8.101,5.4837 -1.0588,-1.6072 -1.9508,-5.784 -5.0742,-7.7339 -5.8297,-3.6395 -28.1188,-16.6149 -19.1715,-24.5737 2.0007,-1.2296 4.5942,-3.3936 9.8871,0.1495 16.984,11.366 26.1003,16.094 29.939,13.9823 -4.5482,1.8904 -5.2981,1.8963 -6.7736,5.5886 4.7468,-2.243 6.7048,-4.2291 12.9793,-4.2885 5.4854,-0.0526 9.4601,2.1857 13.6103,2.3299 -4.6667,-5.1237 -13.4059,-2.9572 -18.0857,-6.5374 1.9165,-9.8464 8.6423,-2.2596 14.5574,-1.14 11.2667,2.1342 18.7883,2.3577 14.6362,24.4708 5.6357,-3.5501 -0.6476,-2.9953 6.1907,-6.2294 4.333,-2.0476 6.2182,-0.5524 8.5048,-4.6954 -3.3068,-1.4602 -6.364,2.1587 -11.1418,2.8493 0.8807,-15.2948 -7.312,-16.5502 -14.5155,-17.9155 -6.4478,-1.222 -17.381,-10.4837 -20.6884,1.1707 -0.5061,8.1011 -9.5264,0.1632 -11.7816,-1.1812 -5.8951,-3.5168 -13.4335,-10.38 -17.6656,-11.6572 -19.2879,-5.8259 -18.1926,13.7698 4.9267,27.9912 -2.8019,11.9123 -0.5937,7.4953 2.7246,17.0483 2.8528,8.2145 -0.9999,12.1033 7.6876,17.592 23.1503,14.6304 40.7661,6.255 61.1887,-6.7014 4.8618,-3.0841 5.37,-2.6058 4.4488,-7.1089 -6.6297,3.7516 -11.8267,8.9537 -20.4577,12.0804 z"
         style="fill:#1b1918;fill-rule:evenodd"
         id="path1043" />
    </g>
    <path
       d="m 265.361,324.5344 c 0.2573,-1.033 0.55,-2.0659 0.8792,-3.0983 7.6252,-23.9048 32.1331,-39.9531 54.751,-47.7394 13.8524,-4.7692 29.3064,-7.3491 43.9638,-6.3001 13.0944,0.9372 26.7276,4.9357 36.229,14.436 1.6311,1.6305 11.2807,11.5751 13.537,12.4382 0.6921,-0.1499 2.2756,-0.9422 2.835,-1.2 2.7614,-1.2731 5.4547,-2.3753 8.3644,-3.2837 11.6979,-3.6516 25.402,-4.2614 37.5541,-4.097 18.7483,0.2534 35.3653,6.7638 45.1854,23.4312 3.7081,6.2935 6.0108,13.3262 7.3464,20.4839 2.1102,11.3045 1.9265,23.3194 0.5865,34.713 -0.4819,4.097 -1.1232,8.1785 -1.916,12.2268 -0.1815,0.9251 -0.3834,1.8447 -0.5859,2.7631 0.312,0.2611 0.618,0.5162 0.8985,0.7607 1.911,1.6615 3.7877,3.3529 5.6157,5.1051 5.4963,5.2683 10.5266,11.0146 14.8837,17.2622 12.7895,18.3394 18.5557,39.6145 15.5011,61.9093 -1.0728,7.8349 -7.5052,14.2313 -13.6897,18.5662 -7.4288,5.208 -16.5042,8.9697 -25.2985,11.1032 -12.5505,3.0446 -27.8906,3.4563 -39.2211,-3.5919 -1.2803,2.6624 -2.8051,5.1681 -4.6066,7.5234 -6.6426,8.6865 -16.201,14.3232 -26.3868,17.9333 -62.4504,22.1327 -109.1678,8.8895 -151.7346,-41.4862 -8.0363,-9.5108 -12.2711,-20.4778 -10.1443,-32.9708 2.4676,-14.4996 12.5062,-26.6036 21.6901,-37.7538 -4.5978,-8.8175 -14.9612,-19.5284 -21.4516,-25.548 -7.2596,-6.7323 -17.8254,-15.3921 -27.0557,-19.1162 -35.8014,-14.4455 -66.2697,-1.2045 -85.745,32.1513 l 1.557,-8.9763 c 4.4129,-18.153 12.4055,-36.322 27.2183,-47.7443 18.8551,-14.5396 41.7424,-18.2697 64.7869,-13.381 2.176,0.4614 3.5271,1.802 4.4527,3.4801 z"
       style="fill:#1b1918;fill-rule:evenodd"
       id="path1046" />
    <path
       d="m 274.5598,357.4725 c -30.8423,-65.2012 86.9555,-107.4803 122.712,-71.7277 28.585,28.5811 4.964,4.6498 66.128,5.4775 68.7245,0.9295 44.4712,89.5204 44.6432,89.9625 0.8183,2.103 44.5143,30.9585 37.4656,82.4098 -2.5926,18.927 -54.4766,38.716 -74.4061,18.4578 -2.2618,-2.2989 -1.2559,18.013 -31.1632,28.6121 -61.112,21.6585 -105.166,8.0822 -145.6608,-39.8419 -22.0059,-26.0427 -0.2473,-49.1353 13.7804,-66.3029 -5.8874,-15.2709 -34.8469,-43.3629 -52.8975,-50.6462 -38.3154,-15.4596 -62.8935,-7.1876 -83.8101,28.637 7.5611,-31.1046 38.0321,-66.7311 88.4089,-56.0441 2.7083,0.5743 2.5462,19.0316 14.7996,31.0061 z"
       style="fill:#ffffff;fill-rule:evenodd"
       id="path1048" />
    <g
       id="Layer1047">
      <path
         d="m 390.5127,403.4149 c -27.8114,12.9057 -40.2202,22.2306 -70.7019,34.2563 -35.1668,13.874 -4.2701,19.0449 16.0604,25.2225 14.505,4.408 5.4327,6.1697 24.8806,-12.6434 10.2201,-9.8865 46.7984,-33.9473 45.02,-40.1082 -1.3819,-4.7888 -12.0864,-8.1993 -15.2591,-6.7272 z"
         style="fill:#ae9577;fill-rule:evenodd;stroke:#1b1918;stroke-width:0.5669;stroke-linecap:butt;stroke-linejoin:miter;stroke-dasharray:none"
         id="path1050" />
      <path
         d="m 406.2099,411.6369 c -2.0064,2.4357 -70.3503,55.3322 -54.8765,59.1804 25.1771,6.2617 -1.715,4.1234 29.3228,3.6738 3.7784,-0.0551 30.6575,-38.4469 41.3685,-48.7795 16.7331,-16.1418 -13.4692,-16.9223 -15.8148,-14.0747 z"
         style="fill:#ae9577;fill-rule:evenodd;stroke:#1b1918;stroke-width:0.5669;stroke-linecap:butt;stroke-linejoin:miter;stroke-dasharray:none"
         id="path1052" />
      <path
         d="m 431.9982,412.7583 c -3.5318,7.2972 -58.8103,64.658 -51.577,64.658 18.5485,0 20.3958,8.2224 46.024,8.2224 9.9702,0 7.6862,-16.7298 15.6121,-30.9249 21.7864,-39.0182 33.6313,-37.7478 -10.0591,-41.9555 z"
         style="fill:#ae9577;fill-rule:evenodd;stroke:#1b1918;stroke-width:0.5669;stroke-linecap:butt;stroke-linejoin:miter;stroke-dasharray:none"
         id="path1054" />
      <path
         d="m 389.7651,398.1825 c 4.154,-9.8694 2.3576,-70.2832 8.1687,-70.6912 24.2616,-1.7044 16.3681,12.0618 14.4375,35.1321 -0.8448,10.0938 -8.7979,44.085 -6.0869,47.2841 -1.5387,0.031 -17.0338,-10.5027 -16.5193,-11.725 z"
         style="fill:#d19360;fill-rule:evenodd;stroke:#1b1918;stroke-width:0.5669;stroke-linecap:butt;stroke-linejoin:miter;stroke-dasharray:none"
         id="path1056" />
      <path
         d="m 410.3214,409.0211 c 4.9567,-37.8737 -4.2822,-21.668 14.0095,-66.1528 2.433,-5.9161 -13.7972,-20.1408 14.3945,-11.0842 9.1356,2.9345 -12.3362,52.1779 -9.6529,77.8028 1.132,10.8151 -8.3451,-2.3566 -18.7511,-0.5658 z"
         style="fill:#d19360;fill-rule:evenodd;stroke:#1b1918;stroke-width:0.5669;stroke-linecap:butt;stroke-linejoin:miter;stroke-dasharray:none"
         id="path1058" />
      <path
         d="m 449.9383,332.4031 c -22.1788,22.1787 -11.7006,32.5816 -21.6778,63.9214 -6.1914,19.4483 23.6097,14.493 35.8798,20.8015 3.3906,-6.8789 -0.0486,-27.2751 4.1646,-46.4084 7.4748,-33.9454 8.5264,-38.3145 -18.3666,-38.3145 z"
         style="fill:#d19360;fill-rule:evenodd;stroke:#1b1918;stroke-width:0.5669;stroke-linecap:butt;stroke-linejoin:miter;stroke-dasharray:none"
         id="path1060" />
      <path
         d="m 347.532,361.1813 c -6.0888,-9.1329 -12.2224,0.7634 5.9157,-1.9329 3.2606,-0.4843 8.4329,4.1961 -5.9157,1.9329 z"
         style="fill:none;stroke:#1b1918;stroke-width:0.5669;stroke-linecap:butt;stroke-linejoin:miter;stroke-dasharray:none"
         id="path1062" />
      <path
         d="m 312.3998,382.4853 c -10.3514,-5.3898 -11.7245,6.8132 0.6834,-0.6195 6.9321,-4.1522 6.9441,12.2191 -0.6834,0.6195 z"
         style="fill:none;stroke:#1b1918;stroke-width:0.5669;stroke-linecap:butt;stroke-linejoin:miter;stroke-dasharray:none"
         id="path1064" />
      <path
         d="m 372.1988,394.4449 c -5.8519,-11.1292 -13.1477,6.654 -1.4948,1.367 14.0683,-6.3829 5.5114,6.272 1.4948,-1.367 z"
         style="fill:none;stroke:#1b1918;stroke-width:0.5669;stroke-linecap:butt;stroke-linejoin:miter;stroke-dasharray:none"
         id="path1066" />
      <path
         d="m 436.483,401.9201 c 0,-34.5246 11.3156,15.0658 -2.99,-0.7476 -13.5858,-15.0176 27.4699,-29.332 5.0404,3.6733 -2.1689,3.1908 -6.3724,1.5772 -8.7776,-0.6833"
         style="fill:none;stroke:#1b1918;stroke-width:0.5669;stroke-linecap:butt;stroke-linejoin:miter;stroke-dasharray:none"
         id="path1068" />
      <path
         d="m 445.453,379.4952 c 3.9722,-13.9697 -13.942,-5.5382 10.5287,-32.5052 0.7888,-0.8689 -0.533,-20.2936 6.4713,-8.7351 5.1043,8.4237 -9.7019,5.8806 -11.7033,27.0379 -0.86,9.0875 -7.522,-0.5478 -0.5126,19.8619 3.1922,9.2962 -20.801,21.5148 6.3002,20.5669 12.6101,-0.4413 -13.3211,-25.3168 10.4005,-51.5131 5.0266,-5.5507 3.9297,-4.6412 3.9297,-12.0878"
         style="fill:none;stroke:#1b1918;stroke-width:0.5669;stroke-linecap:butt;stroke-linejoin:miter;stroke-dasharray:none"
         id="path1070" />
      <path
         d="m 427.5134,331.6559 c 20.5184,37.5415 -11.8278,15.9924 -5.2324,51.577 2.3853,12.8691 -16.2834,24.8671 -5.2324,23.9196 0.0934,0.2309 16.6303,-15.9276 10.4648,-27.7854 -3.2505,-6.2512 2.7254,-14.2645 6.7272,-18.5591"
         style="fill:none;stroke:#1b1918;stroke-width:0.5669;stroke-linecap:butt;stroke-linejoin:miter;stroke-dasharray:none"
         id="path1072" />
      <path
         d="m 425.271,344.3631 c 3.5401,13.1893 -8.9571,7.1866 -7.4114,35.9436 0.1725,3.2084 -1.3329,13.0514 -5.2963,13.391"
         style="fill:none;stroke:#1b1918;stroke-width:0.5669;stroke-linecap:butt;stroke-linejoin:miter;stroke-dasharray:none"
         id="path1074" />
      <path
         d="m 396.1184,398.9301 c -7.9702,-44.377 -2.3793,-20.2482 5.8519,-52.0253 0.1018,-0.3923 2.3169,-23.3395 7.6673,-15.2489 9.1819,13.8846 -23.4621,36.428 -10.593,53.2637 5.1071,6.6814 6.7915,11.7528 6.7915,-6.9834 0,-10.804 -4.4191,-1.5286 1.4948,-18.6235"
         style="fill:none;stroke:#1b1918;stroke-width:0.5669;stroke-linecap:butt;stroke-linejoin:miter;stroke-dasharray:none"
         id="path1076" />
      <path
         d="m 312.3998,448.2642 c 23.5695,-11.3165 25.5755,-20.9319 52.5166,-29.2802 17.2207,-5.3361 -3.6881,-7.9402 30.5187,-10.2724 9.6173,-0.656 -29.989,10.6106 -37.5026,17.9397 -3.1432,3.0658 -26.3791,11.0722 -28.2763,19.9257 2.9252,1.5137 12.0359,-12.71 22.8519,-13.1981 10.1285,-0.4575 0.6495,-9.2143 24.1759,-8.2867 1.684,0.0661 21.96,-18.913 19.4344,-8.6708 -3.6543,14.8197 -26.6288,11.1773 -36.6907,18.4523 -4.915,3.5535 -38.2776,16.5267 -26.2264,21.5486 2.2022,0.9179 51.0732,-37.1552 25.2868,-9.5886 -21.117,22.5744 -27.9173,-6.1479 -4.7841,-3.5026 -0.6681,7.3518 -15.477,11.058 -1.6873,7.1755"
         style="fill:none;stroke:#1b1918;stroke-width:0.5669;stroke-linecap:butt;stroke-linejoin:miter;stroke-dasharray:none"
         id="path1078" />
      <path
         d="m 360.9868,463.2143 c 1.7377,-1.3861 50.3427,-44.9765 56.7664,-44.8498 9.7741,0.1929 -21.2896,-9.3202 -23.0014,6.6634 -1.3079,12.2112 -59.3196,43.8463 -26.2051,42.7355 11.8865,-0.3988 45.8676,-41.7182 1.4097,-6.0443 -4.959,3.9791 8.9191,-2.9697 8.97,-2.9901"
         style="fill:none;stroke:#1b1918;stroke-width:0.5669;stroke-linecap:butt;stroke-linejoin:miter;stroke-dasharray:none"
         id="path1080" />
      <path
         d="m 437.2306,419.1121 c -2.1985,2.2989 -60.9181,50.8622 -36.5631,55.0583 28.7501,4.9535 19.694,12.2474 40.7277,-30.1772 6.9456,-14.0096 8.4302,-0.9396 5.3819,-18.7942 -0.2471,0.0546 -55.2244,30.4748 -43.1834,40.322 11.7487,9.608 10.3422,-1.9842 27.358,-17.1286 -10.3644,-2.0315 -46.0809,22.4249 -13.583,6.6633 1.8612,-0.9021 2.0735,-1.2287 4.1647,-1.5591"
         style="fill:none;stroke:#1b1918;stroke-width:0.5669;stroke-linecap:butt;stroke-linejoin:miter;stroke-dasharray:none"
         id="path1082" />
      <path
         d="m 405.0885,420.6069 c -20.2158,-12.5906 -51.5242,19.1208 -44.8493,28.4049 24.4785,34.0463 94.9042,-19.6199 44.8493,-28.4049 z"
         style="fill:#1b1918;fill-rule:evenodd"
         id="path1084" />
      <path
         d="m 494.7876,435.1832 c -6.0888,-9.1329 -12.2224,0.7633 5.9157,-1.9329 3.2607,-0.4844 8.4329,4.1961 -5.9157,1.9329 z"
         style="fill:none;stroke:#1b1918;stroke-width:0.5669;stroke-linecap:butt;stroke-linejoin:miter;stroke-dasharray:none"
         id="path1086" />
      <path
         d="m 483.5751,401.1725 c -10.3514,-5.3897 -11.7245,6.8132 0.6834,-0.6195 6.9321,-4.1521 6.9441,12.2192 -0.6834,0.6195 z"
         style="fill:none;stroke:#1b1918;stroke-width:0.5669;stroke-linecap:butt;stroke-linejoin:miter;stroke-dasharray:none"
         id="path1088" />
      <path
         d="m 293.7126,344.3627 c -5.8519,-11.1292 -13.1477,6.6541 -1.4948,1.367 14.0683,-6.3829 5.5114,6.272 1.4948,-1.367 z"
         style="fill:none;stroke:#1b1918;stroke-width:0.5669;stroke-linecap:butt;stroke-linejoin:miter;stroke-dasharray:none"
         id="path1090" />
      <path
         d="m 350.9009,315.6968 c -6.0888,-9.1329 -12.2224,0.7634 5.9157,-1.9329 3.2607,-0.4844 8.4329,4.1961 -5.9157,1.9329 z"
         style="fill:none;stroke:#1b1918;stroke-width:0.5669;stroke-linecap:butt;stroke-linejoin:miter;stroke-dasharray:none"
         id="path1092" />
    </g>
  </g>
</svg>
