<?xml version="1.0" encoding="UTF-8" standalone="no"?>
<svg version="1.1" width="417.49301" height="419.77988" id="svg600" viewBox="0 0 417.49301 419.77988"
    xmlns="http://www.w3.org/2000/svg">
  <defs
     id="defs604" />
  <path
     d="m -64.841397,-196.80276 c 0,0.1567 -0.0092,0.2964 -0.0314,0.4166 -0.0228,0.1265 -0.0542,0.2289 -0.0941,0.3099 -0.0404,0.0857 -0.09,0.1436 -0.1574,0.184 -0.0672,0.0401 -0.1387,0.0581 -0.2154,0.0581 h -9.4069 c -0.1209,0 -0.2287,-0.0131 -0.3231,-0.045 -0.0895,-0.0314 -0.1698,-0.0805 -0.2331,-0.1528 -0.0671,-0.0671 -0.1163,-0.1696 -0.1477,-0.3002 -0.0318,-0.1292 -0.045,-0.291 -0.045,-0.4837 0,-0.1754 0.0093,-0.3277 0.0222,-0.4574 0.0138,-0.1307 0.0411,-0.247 0.0854,-0.3501 0.0452,-0.0985 0.1034,-0.1971 0.1705,-0.3002 0.0672,-0.0986 0.1567,-0.2061 0.265,-0.3185 l 3.3984,-3.4975 c 0.789,-0.807 1.4172,-1.5289 1.8919,-2.1699 0.4756,-0.6365 0.8389,-1.2195 1.099,-1.7486 0.2552,-0.5248 0.4257,-1.0002 0.5068,-1.4304 0.0802,-0.4302 0.1206,-0.8343 0.1206,-1.2111 0,-0.3764 -0.0627,-0.7348 -0.1878,-1.0711 -0.1306,-0.336 -0.3102,-0.6323 -0.5518,-0.8882 -0.2382,-0.2558 -0.5382,-0.4577 -0.9014,-0.6051 -0.3586,-0.1477 -0.7757,-0.2241 -1.2467,-0.2241 -0.5511,0 -1.0447,0.0764 -1.4844,0.2241 -0.4343,0.1474 -0.8199,0.3138 -1.1522,0.4888 -0.327,0.1749 -0.6051,0.3401 -0.8251,0.4887 -0.2194,0.1477 -0.3851,0.2241 -0.4929,0.2241 -0.0628,0 -0.1214,-0.0182 -0.1703,-0.0535 -0.0491,-0.036 -0.0895,-0.0903 -0.1214,-0.1706 -0.0314,-0.0761 -0.0584,-0.1839 -0.0757,-0.3138 -0.0177,-0.1346 -0.027,-0.2915 -0.027,-0.4752 0,-0.1304 0.0039,-0.2428 0.0132,-0.3413 0.009,-0.0942 0.0221,-0.1796 0.045,-0.2506 0.0221,-0.0674 0.0496,-0.1346 0.0854,-0.1981 0.0355,-0.0579 0.1073,-0.1343 0.2109,-0.2284 0.1073,-0.0893 0.2866,-0.2149 0.547,-0.3715 0.2552,-0.1618 0.5822,-0.3144 0.9727,-0.4667 0.3851,-0.1564 0.816,-0.2825 1.2865,-0.3902 0.4667,-0.1027 0.9596,-0.1567 1.4754,-0.1567 0.825,0 1.5469,0.1163 2.161,0.3493 0.6192,0.229 1.1301,0.547 1.5384,0.9511 0.4077,0.4036 0.7128,0.8693 0.9143,1.4034 0.2019,0.5338 0.301,1.1031 0.301,1.7082 0,0.5428 -0.0497,1.0848 -0.1436,1.6228 -0.099,0.5379 -0.301,1.1213 -0.6099,1.7493 -0.3144,0.6275 -0.7621,1.3221 -1.3499,2.089 -0.5829,0.7666 -1.3629,1.65 -2.3354,2.6505 l -2.6909,2.8113 h 7.3987 c 0.0672,0 0.1346,0.0178 0.2017,0.0582 0.0672,0.0403 0.1256,0.0985 0.1699,0.1749 0.0501,0.081 0.0854,0.1793 0.1082,0.2956 0.0222,0.1168 0.0314,0.256 0.0314,0.4126 z m 6.2908,-0.4754 c 0,0.6229 -0.1032,1.0355 -0.3095,1.2423 -0.2063,0.2059 -0.5778,0.309 -1.1209,0.309 -0.5287,0 -0.8924,-0.1031 -1.0939,-0.3051 -0.2017,-0.2017 -0.3002,-0.6051 -0.3002,-1.2102 0,-0.6233 0.1024,-1.0359 0.3092,-1.242 0.2059,-0.2063 0.5784,-0.3095 1.1209,-0.3095 0.5292,0 0.8922,0.0993 1.0941,0.3007 0.1971,0.2017 0.3003,0.6093 0.3003,1.2148 z m 14.0301,-4.0261 c 0,0.9102 -0.1528,1.7175 -0.4623,2.4301 -0.3048,0.7085 -0.7398,1.3046 -1.3002,1.7933 -0.5608,0.4847 -1.2284,0.8521 -2.004,1.1078 -0.771,0.2552 -1.6321,0.3808 -2.5785,0.3808 -0.5289,0 -1.0267,-0.0353 -1.4975,-0.1117 -0.4754,-0.072 -0.8971,-0.1662 -1.2644,-0.2737 -0.3677,-0.1076 -0.6686,-0.2149 -0.9056,-0.3231 -0.238,-0.1027 -0.3854,-0.1835 -0.4535,-0.246 -0.0674,-0.0633 -0.1117,-0.1168 -0.1387,-0.1706 -0.027,-0.0542 -0.0491,-0.1165 -0.0713,-0.1885 -0.0229,-0.0764 -0.0362,-0.1701 -0.0452,-0.2825 -0.0086,-0.1124 -0.0139,-0.2508 -0.0139,-0.408 0,-0.1477 0.0053,-0.2781 0.0182,-0.3988 0.0139,-0.1163 0.0409,-0.2109 0.0764,-0.2868 0.0317,-0.0725 0.0759,-0.1304 0.121,-0.1618 0.0496,-0.036 0.1036,-0.0543 0.1659,-0.0543 0.09,0 0.2245,0.0543 0.4085,0.1664 0.1834,0.1078 0.4304,0.2241 0.7394,0.3545 0.3141,0.1256 0.6948,0.246 1.1566,0.3587 0.4625,0.1121 1.0046,0.1703 1.6367,0.1703 0.5873,0 1.1253,-0.0721 1.6143,-0.2107 0.4883,-0.1394 0.9148,-0.3591 1.2693,-0.6594 0.3542,-0.2961 0.6321,-0.6681 0.834,-1.1209 0.2017,-0.453 0.3002,-0.9999 0.3002,-1.6503 0,-0.5418 -0.0854,-1.0225 -0.2559,-1.4391 -0.1698,-0.4168 -0.4348,-0.762 -0.789,-1.0401 -0.354,-0.2737 -0.8029,-0.4798 -1.3499,-0.6189 -0.542,-0.1346 -1.1882,-0.2017 -1.941,-0.2017 -0.5384,0 -0.9958,0.0267 -1.3812,0.0803 -0.3856,0.0498 -0.7448,0.0764 -1.0807,0.0764 -0.2419,0 -0.4166,-0.0582 -0.5244,-0.1699 -0.1031,-0.1121 -0.1574,-0.3321 -0.1574,-0.6552 v -6.9275 c 0,-0.287 0.0674,-0.5019 0.2017,-0.6415 0.1397,-0.1385 0.3324,-0.2102 0.5876,-0.2102 h 7.5374 c 0.0672,0 0.1346,0.0177 0.202,0.0581 0.0671,0.0406 0.1211,0.099 0.1661,0.1796 0.0402,0.0764 0.0762,0.1744 0.0983,0.3002 0.0222,0.1214 0.0312,0.2645 0.0312,0.4304 0,0.3138 -0.0399,0.5608 -0.1253,0.7355 -0.0854,0.1747 -0.2017,0.2598 -0.3543,0.2598 h -6.0847 v 4.7758 c 0.2964,-0.0451 0.5966,-0.0725 0.9058,-0.0813 0.3098,-0.008 0.6635,-0.0134 1.072,-0.0134 0.937,0 1.753,0.1168 2.4569,0.3506 0.6994,0.2277 1.2868,0.5601 1.7532,0.9815 0.471,0.4255 0.825,0.9413 1.063,1.5466 0.2416,0.601 0.3632,1.2737 0.3632,2.0092 z m 6.3983,4.0261 c 0,0.6229 -0.1032,1.0355 -0.3092,1.2423 -0.2066,0.2059 -0.5784,0.309 -1.1209,0.309 -0.5289,0 -0.8924,-0.1031 -1.0941,-0.3051 -0.2017,-0.2017 -0.3003,-0.6051 -0.3003,-1.2102 0,-0.6233 0.1025,-1.0359 0.3093,-1.242 0.2058,-0.2063 0.5783,-0.3095 1.1209,-0.3095 0.5291,0 0.8924,0.0993 1.0941,0.3007 0.197,0.2017 0.3002,0.6093 0.3002,1.2148 z m 14.245,-7.7252 c 0,0.7355 -0.045,1.479 -0.1295,2.2279 -0.09,0.754 -0.2379,1.4802 -0.4484,2.1751 -0.2109,0.6951 -0.4939,1.3498 -0.8479,1.9549 -0.3545,0.6095 -0.8024,1.1391 -1.3403,1.596 -0.5382,0.4533 -1.1749,0.8119 -1.9189,1.0718 -0.7406,0.2559 -1.6009,0.3854 -2.5785,0.3854 -0.3771,0 -0.7448,-0.0222 -1.0988,-0.0713 -0.3542,-0.0489 -0.6727,-0.1076 -0.9595,-0.1796 -0.2825,-0.0674 -0.5248,-0.1435 -0.7175,-0.2238 -0.193,-0.0764 -0.3314,-0.1574 -0.4168,-0.2338 -0.0895,-0.0803 -0.1523,-0.1879 -0.1927,-0.3224 -0.0404,-0.1392 -0.0581,-0.318 -0.0581,-0.5469 0,-0.1927 0.0039,-0.3502 0.0177,-0.4618 0.0137,-0.1122 0.0358,-0.2022 0.0626,-0.2606 0.027,-0.0625 0.0632,-0.1027 0.1124,-0.1255 0.0442,-0.0224 0.1075,-0.0356 0.1747,-0.0356 0.0985,0 0.2328,0.0356 0.4082,0.0986 0.1747,0.0674 0.3988,0.1384 0.6635,0.2199 0.2691,0.0762 0.5832,0.1477 0.9416,0.2148 0.3583,0.0672 0.7617,0.0993 1.2101,0.0993 0.8523,0 1.5829,-0.1664 2.1934,-0.4939 0.6092,-0.3272 1.107,-0.762 1.4924,-1.3136 0.3863,-0.5513 0.6729,-1.1885 0.8661,-1.9152 0.1925,-0.7214 0.3003,-1.4883 0.318,-2.2904 -0.4664,0.2688 -1.0223,0.5109 -1.6727,0.7216 -0.6457,0.2109 -1.3943,0.3143 -2.2325,0.3143 -0.9506,0 -1.7444,-0.1304 -2.3904,-0.3861 -0.6455,-0.2601 -1.1613,-0.6141 -1.5508,-1.0581 -0.3905,-0.4484 -0.673,-0.9776 -0.8435,-1.5919 -0.1703,-0.6143 -0.2557,-1.2827 -0.2557,-2.0084 0,-0.7535 0.1075,-1.471 0.3275,-2.1479 0.2197,-0.6815 0.5608,-1.2783 1.0267,-1.7931 0.4622,-0.5163 1.0537,-0.9287 1.7712,-1.2338 0.7175,-0.3095 1.5785,-0.4615 2.5736,-0.4615 0.7131,0 1.3411,0.0895 1.8878,0.2688 0.5472,0.1796 1.0226,0.4394 1.426,0.7757 0.4034,0.3362 0.744,0.7447 1.0221,1.2199 0.2827,0.4754 0.5065,1.0177 0.6771,1.6228 0.171,0.6012 0.2961,1.2554 0.3674,1.9598 0.0764,0.708 0.1124,1.4483 0.1124,2.2286 z m -2.2861,-0.247 c 0,-1.1211 -0.0764,-2.0627 -0.2248,-2.8295 -0.1479,-0.7664 -0.3674,-1.3852 -0.6586,-1.8559 -0.2871,-0.4754 -0.6416,-0.8161 -1.0632,-1.0268 -0.4212,-0.2109 -0.91,-0.3141 -1.4618,-0.3141 -0.5693,0 -1.0581,0.1032 -1.4612,0.3095 -0.4037,0.2063 -0.736,0.4796 -0.9912,0.8248 -0.2599,0.3455 -0.4535,0.7399 -0.5737,1.1751 -0.1214,0.4394 -0.184,0.8874 -0.184,1.354 0,0.5158 0.0536,0.9866 0.166,1.4172 0.1075,0.4299 0.2868,0.7932 0.5338,1.0893 0.2418,0.2958 0.5642,0.5287 0.9595,0.6902 0.3944,0.1618 0.8781,0.2421 1.4572,0.2421 0.6586,0 1.2958,-0.0985 1.9099,-0.2951 0.6143,-0.1978 1.143,-0.4577 1.5921,-0.7808 z m 8.4698,7.9722 c 0,0.6229 -0.1034,1.0355 -0.3095,1.2423 -0.2063,0.2059 -0.5783,0.309 -1.1209,0.309 -0.5292,0 -0.8922,-0.1031 -1.0941,-0.3051 -0.2015,-0.2017 -0.3002,-0.6051 -0.3002,-1.2102 0,-0.6233 0.1026,-1.0359 0.3094,-1.242 0.2056,-0.2063 0.5784,-0.3095 1.1209,-0.3095 0.5287,0 0.8924,0.0993 1.0941,0.3007 0.1969,0.2017 0.3003,0.6093 0.3003,1.2148 z m 16.4509002,1.1165 c 0,0.0718 -0.018,0.1297 -0.054,0.1798 -0.0353,0.0446 -0.0934,0.0896 -0.1837,0.1256 -0.0854,0.0311 -0.2019,0.0581 -0.3452,0.0764 -0.1479,0.017 -0.3273,0.026 -0.547,0.026 -0.2107,0 -0.3895,-0.009 -0.5384,-0.026 -0.1474,-0.0183 -0.2637,-0.0453 -0.3491,-0.0764 -0.081,-0.036 -0.1436,-0.081 -0.1835,-0.1256 -0.0411,-0.0501 -0.0591,-0.108 -0.0591,-0.1798 v -14.7116 h -7.6941002 v 14.7116 c 0,0.0718 -0.018,0.1297 -0.0584,0.1798 -0.0401,0.0446 -0.1031,0.0896 -0.1837,0.1256 -0.0854,0.0311 -0.1975,0.0581 -0.3413,0.0764 -0.1475,0.017 -0.327,0.026 -0.5467,0.026 -0.219,0 -0.3986,-0.009 -0.5467,-0.026 -0.1438,-0.0183 -0.2604,-0.0453 -0.3455,-0.0764 -0.0895,-0.036 -0.1479,-0.081 -0.1837,-0.1256 -0.0362,-0.0501 -0.0538,-0.108 -0.0538,-0.1798 v -15.7561 c 0,-0.3048 0.0767,-0.5379 0.2285,-0.6907 0.1572,-0.1525 0.3499,-0.2284 0.5876,-0.2284 h 10.6088002 c 0.247,0 0.4396,0.0759 0.5783,0.2284 0.1394,0.1528 0.2107,0.3859 0.2107,0.6907 z m 9.6403,0.3275 -1.5737,4.3541 c -0.0542,0.1384 -0.1888,0.2467 -0.4036,0.3226 -0.2107,0.0764 -0.5379,0.1119 -0.9776,0.1119 -0.2287,0 -0.4126,-0.009 -0.5518,-0.0311 -0.1384,-0.0221 -0.246,-0.0633 -0.3224,-0.1124 -0.072,-0.0533 -0.1121,-0.1258 -0.1214,-0.2109 -0.009,-0.0893 0.0134,-0.1925 0.0633,-0.3183 l 1.6318,-4.1159 c -0.0808,-0.036 -0.1572,-0.0944 -0.2243,-0.1703 -0.0713,-0.0808 -0.1209,-0.1618 -0.1438,-0.2513 l -4.2188,-11.2994 c -0.0718,-0.1836 -0.1029,-0.3318 -0.1029,-0.4347 0,-0.1078 0.0311,-0.1881 0.1029,-0.2514 0.0717,-0.0625 0.1839,-0.1026 0.3406,-0.1255 0.1567,-0.0221 0.3676,-0.0311 0.6323,-0.0311 0.2601,0 0.4667,0.005 0.6185,0.0182 0.1484,0.0129 0.265,0.0399 0.3542,0.0759 0.0852,0.0312 0.1485,0.0854 0.1884,0.1479 0.0403,0.0672 0.0807,0.1572 0.1257,0.2689 l 3.3763,9.4882 h 0.0404 l 3.2555998,-9.5376 c 0.0533,-0.1706 0.1163,-0.2781 0.1924,-0.3224 0.0718,-0.0496 0.184,-0.0851 0.3317,-0.108 0.1525,-0.0221 0.3681,-0.0311 0.6462,-0.0311 0.2462,0 0.4484,0.009 0.6051,0.0311 0.1569,0.0229 0.2729,0.063 0.3454,0.1255 0.0762,0.0633 0.1122,0.1436 0.1122,0.2514 0,0.1029 -0.0273,0.2374 -0.0764,0.3948 z m 15.2005998,-2.1481 c 0,0.1482 -0.005,0.2781 -0.0138,0.3859 -0.009,0.1122 -0.0222,0.2014 -0.0443,0.2781 -0.0229,0.0761 -0.0496,0.1389 -0.0815,0.1975 -0.0309,0.0582 -0.0981,0.1431 -0.2105,0.2509 -0.1075,0.1124 -0.2963,0.2467 -0.5562,0.4126 -0.2642,0.1613 -0.56,0.309 -0.8875,0.4346 -0.3316,0.1304 -0.6861,0.2338 -1.0718,0.3102 -0.3853,0.08 -0.7848,0.1202 -1.1972,0.1202 -0.8521,0 -1.6053,-0.1385 -2.2593,-0.4214 -0.6596,-0.2781 -1.2116,-0.6859 -1.6503,-1.2238 -0.4445,-0.538 -0.7805,-1.2019 -1.0136,-1.982 -0.2328,-0.7851 -0.3501,-1.686 -0.3501,-2.7128 0,-1.1612 0.1435,-2.1612 0.4263,-3.0001 0.2873,-0.8338 0.6768,-1.5196 1.1705,-2.0537 0.4975,-0.5326 1.0809,-0.9274 1.7483,-1.188 0.6727,-0.2552 1.3992,-0.3856 2.1793,-0.3856 0.3768,0 0.7403,0.0365 1.0941,0.1075 0.3591,0.0672 0.6822,0.1618 0.9819,0.2742 0.2961,0.1161 0.5652,0.2467 0.7939,0.399 0.2329,0.1479 0.4039,0.2779 0.5063,0.3805 0.1081,0.1083 0.1796,0.193 0.22,0.2511 0.0357,0.0633 0.072,0.1353 0.0987,0.22 0.0222,0.081 0.0404,0.1751 0.0494,0.2827 0.009,0.1034 0.0132,0.2377 0.0132,0.3944 0,0.3413 -0.0404,0.5783 -0.1163,0.7175 -0.0808,0.1345 -0.175,0.2017 -0.2915,0.2017 -0.1302,0 -0.2827,-0.0718 -0.4533,-0.2195 -0.1698,-0.1436 -0.3856,-0.3051 -0.6493,-0.4798 -0.2652,-0.1749 -0.5837,-0.3362 -0.9557,-0.4798 -0.3723,-0.1481 -0.8117,-0.2199 -1.318,-0.2199 -1.0447,0 -1.8473,0.3995 -2.4035,1.2016 -0.556,0.7978 -0.8341,1.9598 -0.8341,3.4795 0,0.7578 0.0721,1.4262 0.2151,2.0001 0.1482,0.5694 0.3591,1.0489 0.6411,1.4345 0.2781,0.3815 0.6234,0.6686 1.0316,0.8564 0.4078,0.1884 0.8744,0.2828 1.3992,0.2828 0.502,0 0.9414,-0.0811 1.318,-0.2377 0.3764,-0.157 0.6992,-0.3314 0.9773,-0.5248 0.2781,-0.1879 0.5112,-0.3587 0.6997,-0.511 0.1886,-0.1567 0.3319,-0.2331 0.4394,-0.2331 0.0582,0 0.1122,0.0183 0.1567,0.0536 0.045,0.0357 0.081,0.0941 0.1122,0.1751 0.0314,0.0854 0.0535,0.1879 0.0674,0.3185 0.0131,0.1251 0.0182,0.2781 0.0182,0.4523 z m 11.1334,-9.3529 c 0,0.1747 -0.009,0.3231 -0.027,0.4438 -0.018,0.1253 -0.045,0.2245 -0.0851,0.3002 -0.0404,0.081 -0.0854,0.1392 -0.1351,0.1796 -0.0537,0.0401 -0.1209,0.0581 -0.1973,0.0581 h -3.5378 v 10.1918 c 0,0.0718 -0.0175,0.1297 -0.0535,0.1798 -0.036,0.0446 -0.09,0.0896 -0.1703,0.1256 -0.0803,0.0311 -0.1888,0.0581 -0.3324,0.0764 -0.1384,0.017 -0.318,0.026 -0.5379,0.026 -0.2146,0 -0.3895,-0.009 -0.5287,-0.026 -0.1438,-0.0183 -0.256,-0.0453 -0.3363,-0.0764 -0.0853,-0.036 -0.1435,-0.081 -0.1749,-0.1256 -0.0311,-0.0501 -0.045,-0.108 -0.045,-0.1798 v -10.1918 h -3.5381 c -0.0671,0 -0.1294,-0.018 -0.1878,-0.0581 -0.0581,-0.0404 -0.1031,-0.0986 -0.1392,-0.1796 -0.0313,-0.0757 -0.0625,-0.1788 -0.0854,-0.3046 -0.0221,-0.1253 -0.0309,-0.2781 -0.0309,-0.4533 0,-0.1567 0.009,-0.2956 0.0309,-0.4165 0.0229,-0.1258 0.0541,-0.229 0.0944,-0.3092 0.0402,-0.0854 0.0852,-0.1436 0.1395,-0.184 0.0491,-0.0408 0.1114,-0.0589 0.1785,-0.0589 h 9.2549 c 0.0674,0 0.1302,0.0181 0.1888,0.0589 0.0582,0.0404 0.1032,0.0986 0.1385,0.184 0.0318,0.0802 0.0632,0.1878 0.0854,0.3131 0.0228,0.1263 0.0318,0.2691 0.0318,0.4265 z m 11.0614,11.1869 c 0,0.1034 -0.0358,0.1837 -0.1031,0.2377 -0.0716,0.0543 -0.1657,0.0896 -0.2913,0.1163 -0.1214,0.0275 -0.3009,0.0404 -0.5382,0.0404 -0.2245,0 -0.4082,-0.0129 -0.5425,-0.0404 -0.1346,-0.0267 -0.2331,-0.062 -0.2961,-0.1163 -0.0623,-0.054 -0.0944,-0.1304 -0.0944,-0.2377 v -1.1834 c -0.5148,0.5511 -1.0893,0.982 -1.7265,1.2868 -0.6364,0.3002 -1.3087,0.4526 -2.0172,0.4526 -0.6233,0 -1.1885,-0.0806 -1.6904,-0.2419 -0.5027,-0.1618 -0.9323,-0.3995 -1.2868,-0.7036 -0.3543,-0.3053 -0.6319,-0.6866 -0.8297,-1.1299 -0.197,-0.4491 -0.2961,-0.9557 -0.2961,-1.525 0,-0.6683 0.1343,-1.2464 0.4085,-1.735 0.2689,-0.4936 0.6586,-0.9014 1.1703,-1.2245 0.5065,-0.3226 1.1299,-0.5691 1.8649,-0.7306 0.7357,-0.1616 1.5647,-0.2421 2.4838,-0.2421 h 1.6321 v -0.9236 c 0,-0.4532 -0.0489,-0.8566 -0.1436,-1.2109 -0.098,-0.3494 -0.2508,-0.6413 -0.4656,-0.8742 -0.2158,-0.233 -0.4934,-0.4077 -0.8341,-0.5247 -0.3413,-0.1207 -0.7627,-0.1791 -1.2598,-0.1791 -0.534,0 -1.0136,0.0623 -1.4349,0.1927 -0.4256,0.1297 -0.7983,0.2691 -1.1163,0.4258 -0.3192,0.1571 -0.5881,0.296 -0.8029,0.4262 -0.2107,0.1297 -0.372,0.1927 -0.4756,0.1927 -0.0713,0 -0.1346,-0.018 -0.1837,-0.0538 -0.0533,-0.0313 -0.0983,-0.0856 -0.1387,-0.1566 -0.0409,-0.0674 -0.0674,-0.1575 -0.0852,-0.265 -0.018,-0.1117 -0.0272,-0.2289 -0.0272,-0.3635 0,-0.2148 0.0134,-0.3898 0.045,-0.5151 0.0314,-0.1253 0.1078,-0.2469 0.2241,-0.3591 0.1165,-0.1114 0.3231,-0.2467 0.6099,-0.4034 0.2866,-0.1528 0.6236,-0.2963 1,-0.4257 0.3722,-0.1253 0.7849,-0.2336 1.2325,-0.3185 0.4445,-0.0849 0.8971,-0.1258 1.3499,-0.1258 0.8474,0 1.5695,0.0942 2.1658,0.2869 0.5963,0.1926 1.0759,0.48 1.4435,0.8522 0.3684,0.372 0.6324,0.8341 0.7985,1.3856 0.1657,0.5513 0.2511,1.1968 0.2511,1.9323 z m -2.1527,-5.4158 h -1.8518 c -0.5914,0 -1.1072,0.0491 -1.5466,0.1515 -0.4348,0.0991 -0.7983,0.2519 -1.09,0.4489 -0.2861,0.1973 -0.4968,0.4304 -0.6365,0.7085 -0.1345,0.2781 -0.2017,0.5959 -0.2017,0.955 0,0.6143 0.193,1.1033 0.583,1.4661 0.3897,0.3628 0.9328,0.5474 1.6362,0.5474 0.5654,0 1.0948,-0.1433 1.5787,-0.4352 0.4849,-0.2874 0.9954,-0.7309 1.5287,-1.327 z m 14.8513,5.4024 c 0,0.0718 -0.0132,0.1297 -0.0446,0.184 -0.0318,0.0542 -0.0851,0.0941 -0.1664,0.1255 -0.0803,0.0312 -0.1878,0.054 -0.3314,0.0723 -0.1394,0.017 -0.3233,0.026 -0.5518,0.026 -0.2148,0 -0.3902,-0.009 -0.5291,-0.026 -0.1431,-0.0183 -0.2555,-0.0411 -0.3363,-0.0723 -0.0849,-0.0314 -0.1435,-0.0713 -0.1744,-0.1255 -0.0319,-0.0494 -0.045,-0.1122 -0.045,-0.184 v -4.9728 h -1.2469 c -0.5426,0 -0.9633,0.045 -1.2686,0.1304 -0.3007,0.0893 -0.5742,0.2331 -0.8117,0.4394 -0.242,0.2061 -0.4576,0.4708 -0.6503,0.7891 -0.1929,0.3182 -0.3764,0.7084 -0.5513,1.1751 l -0.9596,2.3087 c -0.045,0.1124 -0.0903,0.2065 -0.1435,0.2737 -0.0538,0.0718 -0.1302,0.1258 -0.2287,0.1659 -0.0983,0.0404 -0.2285,0.0672 -0.3813,0.081 -0.1528,0.0134 -0.3404,0.0173 -0.5693,0.0173 -0.1616,0 -0.309,-0.004 -0.4345,-0.0129 -0.1263,-0.009 -0.2339,-0.0221 -0.3231,-0.045 -0.0854,-0.0224 -0.1528,-0.0584 -0.1927,-0.1075 -0.0451,-0.0453 -0.0672,-0.1078 -0.0672,-0.1752 0,-0.0628 0.0221,-0.1613 0.0713,-0.2956 0.0494,-0.1346 0.1482,-0.3723 0.2961,-0.7129 l 0.9462,-2.2201 c 0.246,-0.5601 0.5469,-1.0445 0.9053,-1.4479 0.3594,-0.4078 0.7717,-0.7087 1.2377,-0.9014 -0.8521,-0.1567 -1.5245,-0.4976 -2.0316,-1.0177 -0.5019,-0.5248 -0.7528,-1.2153 -0.7528,-2.0756 0,-0.5701 0.1163,-1.0851 0.3545,-1.5474 0.2377,-0.462 0.583,-0.8516 1.0445,-1.1705 0.4569,-0.3224 1.0221,-0.5691 1.6946,-0.7397 0.6683,-0.17 1.435,-0.2549 2.305,-0.2549 0.2061,0 0.453,0.004 0.7258,0.0129 0.2781,0.009 0.561,0.0221 0.8525,0.0404 0.2959,0.0177 0.5786,0.036 0.8567,0.0581 0.2734,0.0229 0.5111,0.0409 0.7126,0.0584 0.2645,0.0268 0.4615,0.1212 0.5922,0.2917 0.1297,0.1657 0.1971,0.372 0.1971,0.6143 z m -2.179,-10.5684 c -0.3141,-0.045 -0.6365,-0.0764 -0.9689,-0.0893 -0.327,-0.0139 -0.6323,-0.018 -0.9143,-0.018 -0.5922,0 -1.0851,0.0491 -1.48,0.1523 -0.3987,0.0985 -0.7126,0.2462 -0.9549,0.4348 -0.2377,0.1885 -0.4083,0.4126 -0.5066,0.6686 -0.1036,0.2506 -0.1528,0.533 -0.1528,0.8427 0,0.3137 0.0582,0.6005 0.175,0.8516 0.1214,0.2516 0.2958,0.4623 0.5379,0.6321 0.2377,0.1708 0.5469,0.3051 0.9192,0.3946 0.3771,0.0942 0.897,0.1394 1.5698,0.1394 h 1.7756 z m 23.7596,3.448 c 0,0.3367 -0.0403,0.5788 -0.1253,0.7355 -0.081,0.1523 -0.206,0.2287 -0.3727,0.2287 h -12.6311 c -0.1655,0 -0.2862,-0.0764 -0.3669,-0.2287 -0.0764,-0.1567 -0.1168,-0.3988 -0.1168,-0.7355 0,-0.3226 0.0404,-0.5603 0.1168,-0.717 0.0807,-0.1525 0.2014,-0.2289 0.3669,-0.2289 h 12.6311 c 0.0764,0 0.1487,0.0182 0.2158,0.0581 0.0674,0.0404 0.1166,0.0986 0.1569,0.1708 0.0399,0.0764 0.0721,0.1745 0.0942,0.2912 0.0221,0.1163 0.0311,0.2599 0.0311,0.4258 z m 16.5191,5.2998 c 0,0.1482 -0.005,0.2781 -0.0138,0.3859 -0.009,0.1122 -0.0222,0.2014 -0.0446,0.2781 -0.0226,0.0761 -0.0491,0.1389 -0.0812,0.1975 -0.0312,0.0582 -0.0986,0.1431 -0.2107,0.2509 -0.1073,0.1124 -0.2959,0.2467 -0.5557,0.4126 -0.2645,0.1613 -0.5606,0.309 -0.8876,0.4346 -0.3323,0.1304 -0.6863,0.2338 -1.072,0.3102 -0.3853,0.08 -0.7846,0.1202 -1.1972,0.1202 -0.8518,0 -1.6051,-0.1385 -2.2593,-0.4214 -0.6591,-0.2781 -1.2114,-0.6859 -1.6501,-1.2238 -0.4445,-0.538 -0.7807,-1.2019 -1.0138,-1.982 -0.2328,-0.7851 -0.3499,-1.686 -0.3499,-2.7128 0,-1.1612 0.1436,-2.1612 0.4263,-3.0001 0.2871,-0.8338 0.6766,-1.5196 1.1703,-2.0537 0.4975,-0.5326 1.0812,-0.9274 1.7483,-1.188 0.6727,-0.2552 1.3995,-0.3856 2.1793,-0.3856 0.3771,0 0.7406,0.0365 1.0941,0.1075 0.3591,0.0672 0.6819,0.1618 0.9822,0.2742 0.2961,0.1161 0.5649,0.2467 0.7939,0.399 0.2328,0.1479 0.4036,0.2779 0.506,0.3805 0.108,0.1083 0.1796,0.193 0.22,0.2511 0.036,0.0633 0.072,0.1353 0.0987,0.22 0.0222,0.081 0.0404,0.1751 0.0497,0.2827 0.009,0.1034 0.0129,0.2377 0.0129,0.3944 0,0.3413 -0.0404,0.5783 -0.1166,0.7175 -0.0803,0.1345 -0.1744,0.2017 -0.2912,0.2017 -0.1302,0 -0.2827,-0.0718 -0.4533,-0.2195 -0.1698,-0.1436 -0.3856,-0.3051 -0.6493,-0.4798 -0.265,-0.1749 -0.5835,-0.3362 -0.9557,-0.4798 -0.372,-0.1481 -0.8114,-0.2199 -1.3177,-0.2199 -1.0448,0 -1.8476,0.3995 -2.4038,1.2016 -0.556,0.7978 -0.8341,1.9598 -0.8341,3.4795 0,0.7578 0.0723,1.4262 0.2151,2.0001 0.1484,0.5694 0.3591,1.0489 0.6411,1.4345 0.2781,0.3815 0.6233,0.6686 1.0316,0.8564 0.4078,0.1884 0.8744,0.2828 1.3995,0.2828 0.5014,0 0.9413,-0.0811 1.3179,-0.2377 0.3762,-0.157 0.6993,-0.3314 0.9774,-0.5248 0.2778,-0.1879 0.5109,-0.3587 0.6994,-0.511 0.1888,-0.1567 0.3319,-0.2331 0.4394,-0.2331 0.0584,0 0.1124,0.0183 0.1567,0.0536 0.0453,0.0357 0.081,0.0941 0.1124,0.1751 0.0312,0.0854 0.0533,0.1879 0.0674,0.3185 0.0129,0.1251 0.018,0.2781 0.018,0.4523 z m 12.586197,1.8206 c 0,0.0718 -0.0183,0.1297 -0.0543,0.1798 -0.0353,0.0446 -0.0893,0.0896 -0.1701,0.1256 -0.0759,0.0311 -0.1883,0.0581 -0.3279,0.0764 -0.1385,0.017 -0.3131,0.026 -0.5238,0.026 -0.2197,0 -0.3993,-0.009 -0.538,-0.026 -0.1394,-0.0183 -0.2511,-0.0453 -0.3365,-0.0764 -0.081,-0.036 -0.1391,-0.081 -0.1754,-0.1256 -0.0353,-0.0501 -0.0535,-0.108 -0.0535,-0.1798 v -10.3263 h -3.2554 c -0.1384,1.3899 -0.3094,2.6276 -0.506,3.7125 -0.1978,1.0851 -0.4175,2.0313 -0.6645,2.8381 -0.246,0.8031 -0.524,1.4846 -0.8289,2.0359 -0.3049,0.5518 -0.6413,0.9956 -1.0046,1.3318 -0.3676,0.336 -0.761997,0.5791 -1.188297,0.7265 -0.4216,0.1475 -0.8785,0.2238 -1.3583,0.2238 -0.081,0 -0.1484,-0.0131 -0.2063,-0.0401 -0.0543,-0.027 -0.1037,-0.0713 -0.1389,-0.1435 -0.0322,-0.0672 -0.0582,-0.1655 -0.0764,-0.2961 -0.0178,-0.1253 -0.027,-0.2871 -0.027,-0.4888 0,-0.2107 0.004,-0.3805 0.018,-0.5107 0.0133,-0.1297 0.0355,-0.238 0.0676,-0.3144 0.0309,-0.0805 0.0713,-0.1294 0.1163,-0.1566 0.0491,-0.0268 0.1075,-0.0402 0.1795,-0.0402 0.2913,0 0.5645,-0.0671 0.8292,-0.2014 0.2601,-0.1397 0.507,-0.3635 0.7355,-0.673 0.229,-0.3095 0.443797,-0.7173 0.645497,-1.2194 0.1978,-0.5066 0.3812,-1.1258 0.5518,-1.8605 0.1657,-0.7355 0.3224,-1.5968 0.4708,-2.5832 0.1479,-0.9817 0.2914,-2.1162 0.4214,-3.3945 0.0175,-0.2642 0.0805,-0.4569 0.1927,-0.5873 0.1075,-0.1253 0.2642,-0.1886 0.4659,-0.1886 h 6.0713 c 0.2065,0 0.3722,0.0633 0.489,0.1935 0.1209,0.1255 0.1796,0.3182 0.1796,0.5824 z m 14.0785,-6.4299 c 0,0.3409 -0.0847,0.583 -0.2552,0.7314 -0.1706,0.1435 -0.3681,0.2148 -0.5871,0.2148 h -7.7664 c 0,0.6591 0.0672,1.2513 0.1969,1.7754 0.1304,0.5291 0.3501,0.9824 0.6593,1.359 0.3051,0.3767 0.7044,0.6635 1.1924,0.8654 0.4937,0.2017 1.0949,0.3049 1.8026,0.3049 0.5608,0 1.0628,-0.045 1.4983,-0.1394 0.4391,-0.0895 0.8201,-0.1927 1.1384,-0.3044 0.3189,-0.1121 0.5829,-0.2155 0.7897,-0.3048 0.2056,-0.0947 0.3584,-0.1397 0.4659,-0.1397 0.0628,0 0.1163,0.0141 0.1662,0.045 0.0448,0.0314 0.0847,0.0764 0.1075,0.1397 0.0273,0.0581 0.0494,0.1428 0.0623,0.2506 0.0141,0.1117 0.018,0.2423 0.018,0.3987 0,0.1125 -0.004,0.211 -0.0131,0.2964 -0.009,0.081 -0.0178,0.1574 -0.0319,0.2194 -0.0131,0.0674 -0.0353,0.1256 -0.0671,0.1796 -0.0309,0.0496 -0.0674,0.0985 -0.1166,0.1479 -0.0491,0.0492 -0.1924,0.1253 -0.4255,0.2333 -0.2377,0.1117 -0.543,0.2151 -0.9197,0.3224 -0.3761,0.1037 -0.8114,0.1978 -1.3043,0.2781 -0.4932,0.0854 -1.0177,0.1256 -1.579,0.1256 -0.9725,0 -1.8199,-0.1346 -2.551,-0.4076 -0.7306,-0.2688 -1.345,-0.6725 -1.8428,-1.2063 -0.498,-0.5379 -0.8741,-1.2062 -1.1255,-2.0133 -0.2557,-0.8028 -0.3812,-1.7396 -0.3812,-2.8113 0,-1.0136 0.1306,-1.9281 0.3946,-2.7398 0.2601,-0.8073 0.6413,-1.4975 1.135,-2.0627 0.4929,-0.5652 1.0939,-0.9956 1.7931,-1.2997 0.6998,-0.301 1.4837,-0.4535 2.3501,-0.4535 0.9274,0 1.7172,0.1482 2.3668,0.4484 0.6549,0.2961 1.188,0.6995 1.6096,1.2017 0.4173,0.5026 0.7268,1.0948 0.9243,1.776 0.1966,0.6767 0.2954,1.4032 0.2954,2.1739 z m -2.1792,-0.6408 c 0.027,-1.1392 -0.2239,-2.0362 -0.7577,-2.6856 -0.5333,-0.6503 -1.3179,-0.9734 -2.3626,-0.9734 -0.5382,0 -1.009,0.0983 -1.4124,0.3002 -0.4036,0.2024 -0.7404,0.4715 -1.0136,0.8075 -0.2739,0.3316 -0.4846,0.7219 -0.6321,1.1613 -0.1477,0.4438 -0.2331,0.9055 -0.2511,1.39 z m 12.5501,-4.1167 c 0,0.1752 -0.009,0.3231 -0.0311,0.4445 -0.0222,0.1202 -0.0543,0.2241 -0.0944,0.3 -0.0363,0.0806 -0.0806,0.1394 -0.1297,0.1708 -0.0501,0.036 -0.1083,0.0535 -0.1754,0.0535 h -4.4383 v 10.2186 c 0,0.0718 -0.0183,0.1297 -0.054,0.1798 -0.0363,0.0446 -0.0896,0.0896 -0.1706,0.1256 -0.0808,0.0311 -0.188,0.0581 -0.3316,0.0764 -0.1392,0.017 -0.3185,0.026 -0.5379,0.026 -0.2156,0 -0.3903,-0.009 -0.5299,-0.026 -0.1431,-0.0183 -0.2548,-0.0453 -0.336,-0.0764 -0.0852,-0.036 -0.1433,-0.081 -0.1747,-0.1256 -0.0312,-0.0501 -0.045,-0.108 -0.045,-0.1798 v -11.3801 c 0,-0.2642 0.0581,-0.4569 0.1795,-0.5873 0.1163,-0.1253 0.2781,-0.1886 0.4886,-0.1886 h 5.946 c 0.071,0 0.1292,0.0181 0.1793,0.0589 0.0491,0.0404 0.0895,0.0986 0.1297,0.184 0.0401,0.0802 0.0722,0.1834 0.0944,0.3002 0.0221,0.1163 0.0311,0.2598 0.0311,0.4255 z m 11.8828,11.2821 c 0,0.0489 -0.0137,0.0985 -0.045,0.1343 -0.0309,0.0404 -0.0896,0.0764 -0.1706,0.0985 -0.0849,0.027 -0.1924,0.0492 -0.3314,0.063 -0.1345,0.0134 -0.3097,0.0173 -0.5204,0.0173 -0.2423,0 -0.4438,-0.009 -0.5963,-0.026 -0.1526,-0.0183 -0.2779,-0.0411 -0.3764,-0.0723 -0.0944,-0.0314 -0.1657,-0.0713 -0.2068,-0.1163 -0.0443,-0.0496 -0.0759,-0.1039 -0.0934,-0.1659 l -1.2557,-3.0629 c -0.1572,-0.3947 -0.3229,-0.7309 -0.5024,-1.0177 -0.1791,-0.2825 -0.3856,-0.5161 -0.6234,-0.6905 -0.2328,-0.175 -0.498,-0.3003 -0.7982,-0.3805 -0.2956,-0.0764 -0.6321,-0.1176 -1.0175,-0.1176 h -0.9146 v 5.3227 c 0,0.045 -0.0228,0.0849 -0.0674,0.1302 -0.045,0.045 -0.108,0.0805 -0.1973,0.1034 -0.0893,0.0263 -0.2017,0.0491 -0.3452,0.0674 -0.1389,0.017 -0.3002,0.026 -0.4842,0.026 -0.1885,0 -0.3498,-0.009 -0.4883,-0.026 -0.1438,-0.0183 -0.2559,-0.0411 -0.3455,-0.0674 -0.09,-0.0229 -0.1525,-0.0584 -0.1936,-0.1034 -0.0399,-0.0453 -0.0582,-0.0903 -0.0582,-0.1302 v -12.0168 c 0,-0.0404 0.0183,-0.0849 0.0582,-0.1207 0.0411,-0.0404 0.1036,-0.0764 0.1936,-0.0993 0.0896,-0.0262 0.2017,-0.0491 0.3455,-0.062 0.1385,-0.0136 0.2998,-0.0182 0.4883,-0.0182 0.184,0 0.3453,0.005 0.4842,0.0182 0.1435,0.0129 0.2559,0.0358 0.3452,0.062 0.0893,0.0229 0.1523,0.0589 0.1973,0.0993 0.0446,0.0358 0.0674,0.0803 0.0674,0.1253 v 4.9682 h 0.9146 c 0.327,0 0.6323,-0.036 0.9053,-0.1122 0.274,-0.0764 0.5248,-0.197 0.7487,-0.3676 0.2291,-0.1749 0.4306,-0.3944 0.606,-0.6683 0.1791,-0.273 0.3453,-0.6005 0.4929,-0.9864 l 1.0942,-2.7305 c 0.018,-0.072 0.0491,-0.13 0.0895,-0.1842 0.0452,-0.0535 0.1124,-0.0985 0.1973,-0.1297 0.0895,-0.036 0.2061,-0.063 0.3496,-0.0759 0.1438,-0.0136 0.337,-0.0182 0.574,-0.0182 0.2065,0 0.3812,0.005 0.5158,0.0182 0.1345,0.0129 0.2421,0.0358 0.3184,0.062 0.0721,0.0229 0.1212,0.0589 0.1482,0.0993 0.0261,0.0358 0.0404,0.0803 0.0404,0.1207 0,0.081 -0.009,0.1664 -0.0311,0.2513 -0.0229,0.0896 -0.0543,0.1881 -0.0995,0.3046 l -1.1292,2.6055 c -0.1757,0.4394 -0.3635,0.8068 -0.5698,1.107 -0.2063,0.2961 -0.4126,0.5472 -0.6233,0.7448 -0.2064,0.1973 -0.4217,0.3498 -0.6414,0.4615 -0.2151,0.1078 -0.4258,0.1927 -0.6274,0.256 v 0.027 c 0.305,0.1029 0.587,0.228 0.8471,0.3764 0.2604,0.1528 0.4981,0.3362 0.7219,0.551 0.2246,0.22 0.4304,0.4798 0.6231,0.7852 0.1934,0.3004 0.3722,0.6457 0.5428,1.0406 l 1.3009,2.9947 c 0.0353,0.0582 0.0582,0.1166 0.0759,0.1706 0.0173,0.0494 0.0314,0.1031 0.0402,0.1477 0.009,0.0494 0.0182,0.09 0.0223,0.1214 0.005,0.0311 0.005,0.0579 0.005,0.0854 z m 11.3574,-0.0813 c 0,0.1034 -0.0357,0.1837 -0.1029,0.2377 -0.0713,0.0543 -0.1659,0.0896 -0.2914,0.1163 -0.1212,0.0275 -0.3008,0.0404 -0.538,0.0404 -0.2243,0 -0.4082,-0.0129 -0.5428,-0.0404 -0.1345,-0.0267 -0.2331,-0.062 -0.2958,-0.1163 -0.0626,-0.054 -0.0947,-0.1304 -0.0947,-0.2377 v -1.1834 c -0.5148,0.5511 -1.0887,0.982 -1.7259,1.2868 -0.6365,0.3002 -1.309,0.4526 -2.0177,0.4526 -0.6234,0 -1.1881,-0.0806 -1.69,-0.2419 -0.5029,-0.1618 -0.9328,-0.3995 -1.2868,-0.7036 -0.3545,-0.3053 -0.6323,-0.6866 -0.8301,-1.1299 -0.1966,-0.4491 -0.2959,-0.9557 -0.2959,-1.525 0,-0.6683 0.1345,-1.2464 0.4083,-1.735 0.2688,-0.4936 0.6586,-0.9014 1.1702,-1.2245 0.5068,-0.3226 1.1299,-0.5691 1.8649,-0.7306 0.7358,-0.1616 1.5647,-0.2421 2.4844,-0.2421 h 1.632 v -0.9236 c 0,-0.4532 -0.0494,-0.8566 -0.1435,-1.2109 -0.0986,-0.3494 -0.2511,-0.6413 -0.466,-0.8742 -0.2155,-0.233 -0.4936,-0.4077 -0.8342,-0.5247 -0.3411,-0.1207 -0.7625,-0.1791 -1.2593,-0.1791 -0.5341,0 -1.0139,0.0623 -1.4355,0.1927 -0.4255,0.1297 -0.7978,0.2691 -1.1163,0.4258 -0.3187,0.1571 -0.5878,0.296 -0.8029,0.4262 -0.2107,0.1297 -0.372,0.1927 -0.4754,0.1927 -0.0715,0 -0.1343,-0.018 -0.1839,-0.0538 -0.0533,-0.0313 -0.0983,-0.0856 -0.1384,-0.1566 -0.0409,-0.0674 -0.0672,-0.1575 -0.0854,-0.265 -0.0178,-0.1117 -0.0268,-0.2289 -0.0268,-0.3635 0,-0.2148 0.0129,-0.3898 0.045,-0.5151 0.0311,-0.1253 0.1073,-0.2469 0.2238,-0.3591 0.1163,-0.1114 0.3231,-0.2467 0.61,-0.4034 0.2864,-0.1528 0.6233,-0.2963 0.9997,-0.4257 0.3723,-0.1253 0.7849,-0.2336 1.2326,-0.3185 0.4445,-0.0849 0.8975,-0.1258 1.35,-0.1258 0.8472,0 1.5698,0.0942 2.1659,0.2869 0.5963,0.1926 1.0759,0.48 1.4432,0.8522 0.3684,0.372 0.6324,0.8341 0.799,1.3856 0.1657,0.5513 0.2506,1.1968 0.2506,1.9323 z m -2.1522,-5.4158 h -1.852 c -0.5912,0 -1.107,0.0491 -1.5469,0.1515 -0.4345,0.0991 -0.7978,0.2519 -1.0897,0.4489 -0.2861,0.1973 -0.4971,0.4304 -0.6363,0.7085 -0.1345,0.2781 -0.2019,0.5959 -0.2019,0.955 0,0.6143 0.1927,1.1033 0.5832,1.4661 0.3895,0.3628 0.9323,0.5474 1.6359,0.5474 0.5652,0 1.0947,-0.1433 1.5788,-0.4352 0.4847,-0.2874 0.9956,-0.7309 1.5289,-1.327 z m 17.5906,5.7299 -1.5739,4.3541 c -0.0538,0.1384 -0.1881,0.2467 -0.4034,0.3226 -0.2107,0.0764 -0.5379,0.1119 -0.9773,0.1119 -0.229,0 -0.4127,-0.009 -0.5516,-0.0311 -0.1389,-0.0221 -0.2465,-0.0633 -0.3224,-0.1124 -0.0725,-0.0533 -0.1126,-0.1258 -0.1216,-0.2109 -0.009,-0.0893 0.0131,-0.1925 0.063,-0.3183 l 1.6318,-4.1159 c -0.081,-0.036 -0.1574,-0.0944 -0.2246,-0.1703 -0.0713,-0.0808 -0.1202,-0.1618 -0.143,-0.2513 l -4.2188,-11.2994 c -0.0725,-0.1836 -0.1034,-0.3318 -0.1034,-0.4347 0,-0.1078 0.0309,-0.1881 0.1034,-0.2514 0.071,-0.0625 0.1834,-0.1026 0.3401,-0.1255 0.1567,-0.0221 0.3676,-0.0311 0.6323,-0.0311 0.2599,0 0.4667,0.005 0.6185,0.0182 0.1484,0.0129 0.2647,0.0399 0.3542,0.0759 0.0854,0.0312 0.1482,0.0854 0.1886,0.1479 0.0404,0.0672 0.0803,0.1572 0.1255,0.2689 l 3.3761,9.4882 h 0.0404 l 3.2555,-9.5376 c 0.0536,-0.1706 0.1168,-0.2781 0.193,-0.3224 0.0713,-0.0496 0.1837,-0.0851 0.3311,-0.108 0.1528,-0.0221 0.3684,-0.0311 0.6465,-0.0311 0.2459,0 0.4484,0.009 0.605,0.0311 0.157,0.0229 0.2735,0.063 0.3455,0.1255 0.0762,0.0633 0.1122,0.1436 0.1122,0.2514 0,0.1029 -0.027,0.2374 -0.0759,0.3948 z m 15.2004,-2.1481 c 0,0.1482 -0.005,0.2781 -0.0139,0.3859 -0.009,0.1122 -0.0221,0.2014 -0.0443,0.2781 -0.0228,0.0761 -0.0491,0.1389 -0.081,0.1975 -0.0311,0.0582 -0.0985,0.1431 -0.2107,0.2509 -0.1078,0.1124 -0.2958,0.2467 -0.5562,0.4126 -0.2642,0.1613 -0.56,0.309 -0.8873,0.4346 -0.3321,0.1304 -0.6866,0.2338 -1.0717,0.3102 -0.3859,0.08 -0.7849,0.1202 -1.1973,0.1202 -0.8523,0 -1.605,-0.1385 -2.2598,-0.4214 -0.6593,-0.2781 -1.2109,-0.6859 -1.65,-1.2238 -0.444,-0.538 -0.7805,-1.2019 -1.0134,-1.982 -0.233,-0.7851 -0.3501,-1.686 -0.3501,-2.7128 0,-1.1612 0.1433,-2.1612 0.4265,-3.0001 0.2866,-0.8338 0.6764,-1.5196 1.1701,-2.0537 0.4978,-0.5326 1.0809,-0.9274 1.7486,-1.188 0.6722,-0.2552 1.3989,-0.3856 2.1787,-0.3856 0.3774,0 0.7406,0.0365 1.0941,0.1075 0.3591,0.0672 0.6822,0.1618 0.9825,0.2742 0.2961,0.1161 0.5649,0.2467 0.7939,0.399 0.233,0.1479 0.4033,0.2779 0.5058,0.3805 0.1085,0.1083 0.1798,0.193 0.2202,0.2511 0.0357,0.0633 0.0717,0.1353 0.099,0.22 0.0221,0.081 0.0399,0.1751 0.0491,0.2827 0.009,0.1034 0.0132,0.2377 0.0132,0.3944 0,0.3413 -0.0402,0.5783 -0.1163,0.7175 -0.0806,0.1345 -0.175,0.2017 -0.2913,0.2017 -0.1304,0 -0.2829,-0.0718 -0.4535,-0.2195 -0.1698,-0.1436 -0.3854,-0.3051 -0.6496,-0.4798 -0.2644,-0.1749 -0.5829,-0.3362 -0.9552,-0.4798 -0.3725,-0.1481 -0.8119,-0.2199 -1.3179,-0.2199 -1.045,0 -1.8479,0.3995 -2.4038,1.2016 -0.556,0.7978 -0.8341,1.9598 -0.8341,3.4795 0,0.7578 0.0721,1.4262 0.2149,2.0001 0.1484,0.5694 0.3591,1.0489 0.6416,1.4345 0.2778,0.3815 0.623,0.6686 1.0315,0.8564 0.4073,0.1884 0.8742,0.2828 1.3988,0.2828 0.5021,0 0.9415,-0.0811 1.3182,-0.2377 0.3764,-0.157 0.6995,-0.3314 0.9776,-0.5248 0.278,-0.1879 0.5106,-0.3587 0.6994,-0.511 0.1886,-0.1567 0.3321,-0.2331 0.4397,-0.2331 0.0581,0 0.1124,0.0183 0.1567,0.0536 0.045,0.0357 0.081,0.0941 0.1124,0.1751 0.0309,0.0854 0.0535,0.1879 0.0671,0.3185 0.0132,0.1251 0.0178,0.2781 0.0178,0.4523 z m 11.1336,-9.3529 c 0,0.1747 -0.009,0.3231 -0.027,0.4438 -0.018,0.1253 -0.045,0.2245 -0.0854,0.3002 -0.0401,0.081 -0.0851,0.1392 -0.1343,0.1796 -0.0542,0.0401 -0.1214,0.0581 -0.1975,0.0581 h -3.5379 v 10.1918 c 0,0.0718 -0.0175,0.1297 -0.0532,0.1798 -0.0361,0.0446 -0.0903,0.0896 -0.1706,0.1256 -0.0805,0.0311 -0.1886,0.0581 -0.3323,0.0764 -0.1387,0.017 -0.3183,0.026 -0.538,0.026 -0.2151,0 -0.3895,-0.009 -0.5292,-0.026 -0.1435,-0.0183 -0.2559,-0.0453 -0.336,-0.0764 -0.0851,-0.036 -0.1435,-0.081 -0.1749,-0.1256 -0.0309,-0.0501 -0.0448,-0.108 -0.0448,-0.1798 v -10.1918 h -3.5378 c -0.0671,0 -0.1297,-0.018 -0.188,-0.0581 -0.0582,-0.0404 -0.1032,-0.0986 -0.1397,-0.1796 -0.0309,-0.0757 -0.0618,-0.1788 -0.0849,-0.3046 -0.0222,-0.1253 -0.0312,-0.2781 -0.0312,-0.4533 0,-0.1567 0.009,-0.2956 0.0312,-0.4165 0.0231,-0.1258 0.054,-0.229 0.0941,-0.3092 0.0404,-0.0854 0.0854,-0.1436 0.1397,-0.184 0.0491,-0.0408 0.1117,-0.0589 0.1788,-0.0589 h 9.2547 c 0.0671,0 0.1304,0.0181 0.1885,0.0589 0.0582,0.0404 0.1032,0.0986 0.1387,0.184 0.0316,0.0802 0.063,0.1878 0.0852,0.3131 0.0228,0.1263 0.0318,0.2691 0.0318,0.4265 z m 11.0614,11.1869 c 0,0.1034 -0.036,0.1837 -0.1032,0.2377 -0.0712,0.0543 -0.1659,0.0896 -0.2912,0.1163 -0.1211,0.0275 -0.3009,0.0404 -0.5379,0.0404 -0.2246,0 -0.4085,-0.0129 -0.5431,-0.0404 -0.1343,-0.0267 -0.2328,-0.062 -0.2958,-0.1163 -0.0625,-0.054 -0.0944,-0.1304 -0.0944,-0.2377 v -1.1834 c -0.5151,0.5511 -1.089,0.982 -1.7262,1.2868 -0.6363,0.3002 -1.3087,0.4526 -2.0177,0.4526 -0.6233,0 -1.188,-0.0806 -1.69,-0.2419 -0.5026,-0.1618 -0.9325,-0.3995 -1.2865,-0.7036 -0.3545,-0.3053 -0.6326,-0.6866 -0.8302,-1.1299 -0.1968,-0.4491 -0.2961,-0.9557 -0.2961,-1.525 0,-0.6683 0.1348,-1.2464 0.4083,-1.735 0.2691,-0.4936 0.6586,-0.9014 1.1705,-1.2245 0.507,-0.3226 1.1299,-0.5691 1.8649,-0.7306 0.7355,-0.1616 1.5646,-0.2421 2.4843,-0.2421 h 1.6321 v -0.9236 c 0,-0.4532 -0.0497,-0.8566 -0.1438,-1.2109 -0.0985,-0.3494 -0.2511,-0.6413 -0.4659,-0.8742 -0.2156,-0.233 -0.4937,-0.4077 -0.8343,-0.5247 -0.3409,-0.1207 -0.7623,-0.1791 -1.2593,-0.1791 -0.5338,0 -1.0139,0.0623 -1.4353,0.1927 -0.4257,0.1297 -0.7977,0.2691 -1.1162,0.4258 -0.3187,0.1571 -0.5878,0.296 -0.8029,0.4262 -0.2109,0.1297 -0.3722,0.1927 -0.4754,0.1927 -0.0715,0 -0.1346,-0.018 -0.1839,-0.0538 -0.0531,-0.0313 -0.0983,-0.0856 -0.1385,-0.1566 -0.0411,-0.0674 -0.0674,-0.1575 -0.0854,-0.265 -0.0177,-0.1117 -0.027,-0.2289 -0.027,-0.3635 0,-0.2148 0.0132,-0.3898 0.045,-0.5151 0.0314,-0.1253 0.1076,-0.2469 0.2241,-0.3591 0.1163,-0.1114 0.3231,-0.2467 0.6102,-0.4034 0.2861,-0.1528 0.6231,-0.2963 0.9995,-0.4257 0.3722,-0.1253 0.7849,-0.2336 1.2328,-0.3185 0.4442,-0.0849 0.8973,-0.1258 1.3498,-0.1258 0.8469,0 1.5695,0.0942 2.1659,0.2869 0.5963,0.1926 1.0761,0.48 1.4435,0.8522 0.3678,0.372 0.632,0.8341 0.7985,1.3856 0.1659,0.5513 0.2508,1.1968 0.2508,1.9323 z m -2.1522,-5.4158 h -1.852 c -0.5915,0 -1.107,0.0491 -1.5469,0.1515 -0.4348,0.0991 -0.7978,0.2519 -1.0898,0.4489 -0.2863,0.1973 -0.4973,0.4304 -0.6364,0.7085 -0.1343,0.2781 -0.2017,0.5959 -0.2017,0.955 0,0.6143 0.1927,1.1033 0.5829,1.4661 0.3898,0.3628 0.9326,0.5474 1.6365,0.5474 0.5647,0 1.0943,-0.1433 1.5782,-0.4352 0.4847,-0.2874 0.9959,-0.7309 1.5292,-1.327 z m 15.8461,5.4024 c 0,0.0718 -0.0178,0.1297 -0.0538,0.1798 -0.0357,0.0446 -0.0895,0.0896 -0.17,0.1256 -0.0764,0.0311 -0.1888,0.0581 -0.328,0.0764 -0.1385,0.017 -0.3131,0.026 -0.5241,0.026 -0.2199,0 -0.3992,-0.009 -0.5377,-0.026 -0.1396,-0.0183 -0.2513,-0.0453 -0.3365,-0.0764 -0.081,-0.036 -0.1394,-0.081 -0.1754,-0.1256 -0.0353,-0.0501 -0.0535,-0.108 -0.0535,-0.1798 v -10.3263 h -3.2554 c -0.1389,1.3899 -0.3094,2.6276 -0.5063,3.7125 -0.1975,1.0851 -0.4175,2.0313 -0.6642,2.8381 -0.2459,0.8031 -0.524,1.4846 -0.8291,2.0359 -0.3051,0.5518 -0.6416,0.9956 -1.0044,1.3318 -0.3676,0.336 -0.762,0.5791 -1.1887,0.7265 -0.4212,0.1475 -0.8781,0.2238 -1.3579,0.2238 -0.081,0 -0.1484,-0.0131 -0.2068,-0.0401 -0.0538,-0.027 -0.1032,-0.0713 -0.1384,-0.1435 -0.0322,-0.0672 -0.0582,-0.1655 -0.0764,-0.2961 -0.0183,-0.1253 -0.027,-0.2871 -0.027,-0.4888 0,-0.2107 0.004,-0.3805 0.018,-0.5107 0.0133,-0.1297 0.0355,-0.238 0.0671,-0.3144 0.0312,-0.0805 0.0715,-0.1294 0.1168,-0.1566 0.0491,-0.0268 0.1071,-0.0402 0.1796,-0.0402 0.2909,0 0.5639,-0.0671 0.8289,-0.2014 0.2598,-0.1397 0.5068,-0.3635 0.7357,-0.673 0.2285,-0.3095 0.4438,-0.7173 0.6455,-1.2194 0.1973,-0.5066 0.3815,-1.1258 0.5518,-1.8605 0.1657,-0.7355 0.3224,-1.5968 0.4705,-2.5832 0.1482,-0.9817 0.2913,-2.1162 0.4217,-3.3945 0.0175,-0.2642 0.0805,-0.4569 0.1927,-0.5873 0.1075,-0.1253 0.2642,-0.1886 0.4661,-0.1886 h 6.0713 c 0.2064,0 0.372,0.0633 0.4883,0.1935 0.1214,0.1255 0.1796,0.3182 0.1796,0.5824 z m 12.9224,0.0134 c 0,0.1034 -0.036,0.1837 -0.1032,0.2377 -0.0713,0.0543 -0.1659,0.0896 -0.2912,0.1163 -0.1214,0.0275 -0.301,0.0404 -0.538,0.0404 -0.2245,0 -0.4085,-0.0129 -0.543,-0.0404 -0.1345,-0.0267 -0.2328,-0.062 -0.2959,-0.1163 -0.0625,-0.054 -0.0944,-0.1304 -0.0944,-0.2377 v -1.1834 c -0.515,0.5511 -1.089,0.982 -1.7262,1.2868 -0.6364,0.3002 -1.3087,0.4526 -2.0176,0.4526 -0.6234,0 -1.1881,-0.0806 -1.69,-0.2419 -0.5029,-0.1618 -0.9328,-0.3995 -1.2868,-0.7036 -0.3543,-0.3053 -0.6324,-0.6866 -0.8302,-1.1299 -0.1965,-0.4491 -0.2958,-0.9557 -0.2958,-1.525 0,-0.6683 0.1345,-1.2464 0.4082,-1.735 0.2691,-0.4936 0.6587,-0.9014 1.1706,-1.2245 0.5065,-0.3226 1.1298,-0.5691 1.8649,-0.7306 0.7354,-0.1616 1.5644,-0.2421 2.4843,-0.2421 h 1.6318 v -0.9236 c 0,-0.4532 -0.0494,-0.8566 -0.1435,-1.2109 -0.0986,-0.3494 -0.2511,-0.6413 -0.466,-0.8742 -0.2155,-0.233 -0.4936,-0.4077 -0.8342,-0.5247 -0.3409,-0.1207 -0.7625,-0.1791 -1.2594,-0.1791 -0.534,0 -1.0138,0.0623 -1.4354,0.1927 -0.4256,0.1297 -0.7976,0.2691 -1.116,0.4258 -0.3188,0.1571 -0.5879,0.296 -0.8032,0.4262 -0.2107,0.1297 -0.372,0.1927 -0.4754,0.1927 -0.0715,0 -0.1343,-0.018 -0.1839,-0.0538 -0.0533,-0.0313 -0.0983,-0.0856 -0.1385,-0.1566 -0.0408,-0.0674 -0.0671,-0.1575 -0.0854,-0.265 -0.0177,-0.1117 -0.0267,-0.2289 -0.0267,-0.3635 0,-0.2148 0.0129,-0.3898 0.045,-0.5151 0.0314,-0.1253 0.1073,-0.2469 0.2238,-0.3591 0.1166,-0.1114 0.3231,-0.2467 0.61,-0.4034 0.2863,-0.1528 0.6233,-0.2963 0.9997,-0.4257 0.3725,-0.1253 0.7849,-0.2336 1.2328,-0.3185 0.4443,-0.0849 0.8973,-0.1258 1.3498,-0.1258 0.8472,0 1.5698,0.0942 2.1659,0.2869 0.5966,0.1926 1.0763,0.48 1.4432,0.8522 0.3684,0.372 0.6326,0.8341 0.799,1.3856 0.1657,0.5513 0.2509,1.1968 0.2509,1.9323 z m -2.1525,-5.4158 h -1.852 c -0.5912,0 -1.107,0.0491 -1.5467,0.1515 -0.4347,0.0991 -0.798,0.2519 -1.0899,0.4489 -0.2862,0.1973 -0.4971,0.4304 -0.6363,0.7085 -0.1345,0.2781 -0.2019,0.5959 -0.2019,0.955 0,0.6143 0.1927,1.1033 0.5832,1.4661 0.3897,0.3628 0.9323,0.5474 1.6364,0.5474 0.5647,0 1.0941,-0.1433 1.5783,-0.4352 0.4847,-0.2874 0.9958,-0.7309 1.5289,-1.327 z m 14.8508,5.4024 c 0,0.0718 -0.0129,0.1297 -0.0443,0.184 -0.0321,0.0542 -0.0852,0.0941 -0.1667,0.1255 -0.08,0.0312 -0.1878,0.054 -0.3311,0.0723 -0.1394,0.017 -0.3231,0.026 -0.552,0.026 -0.2149,0 -0.3903,-0.009 -0.5287,-0.026 -0.1436,-0.0183 -0.256,-0.0411 -0.3363,-0.0723 -0.0854,-0.0314 -0.1435,-0.0713 -0.1747,-0.1255 -0.0321,-0.0494 -0.0452,-0.1122 -0.0452,-0.184 v -4.9728 h -1.2467 c -0.5428,0 -0.9635,0.045 -1.2683,0.1304 -0.3012,0.0893 -0.5744,0.2331 -0.8121,0.4394 -0.2416,0.2061 -0.4577,0.4708 -0.6504,0.7891 -0.1924,0.3182 -0.3764,0.7084 -0.5508,1.1751 l -0.9596,2.3087 c -0.0452,0.1124 -0.0903,0.2065 -0.1438,0.2737 -0.054,0.0718 -0.1304,0.1258 -0.2289,0.1659 -0.0981,0.0404 -0.2285,0.0672 -0.381,0.081 -0.1526,0.0134 -0.3404,0.0173 -0.5694,0.0173 -0.1613,0 -0.3089,-0.004 -0.4347,-0.0129 -0.1261,-0.009 -0.2334,-0.0221 -0.3231,-0.045 -0.0852,-0.0224 -0.1523,-0.0584 -0.1927,-0.1075 -0.045,-0.0453 -0.0672,-0.1078 -0.0672,-0.1752 0,-0.0628 0.0222,-0.1613 0.0716,-0.2956 0.0491,-0.1346 0.1481,-0.3723 0.2958,-0.7129 l 0.9464,-2.2201 c 0.2463,-0.5601 0.5472,-1.0445 0.9056,-1.4479 0.3591,-0.4078 0.7715,-0.7087 1.2374,-0.9014 -0.8523,-0.1567 -1.5245,-0.4976 -2.0313,-1.0177 -0.5019,-0.5248 -0.753,-1.2153 -0.753,-2.0756 0,-0.5701 0.1165,-1.0851 0.3545,-1.5474 0.2377,-0.462 0.5829,-0.8516 1.045,-1.1705 0.4566,-0.3224 1.0216,-0.5691 1.6938,-0.7397 0.6684,-0.17 1.4352,-0.2549 2.3055,-0.2549 0.2056,0 0.4526,0.004 0.726,0.0129 0.2779,0.009 0.5608,0.0221 0.8518,0.0404 0.2961,0.0177 0.5791,0.036 0.8569,0.0581 0.2733,0.0229 0.511,0.0409 0.7131,0.0584 0.2638,0.0268 0.4613,0.1212 0.5917,0.2917 0.1297,0.1657 0.1969,0.372 0.1969,0.6143 z m -2.179,-10.5684 c -0.3141,-0.045 -0.6365,-0.0764 -0.9688,-0.0893 -0.327,-0.0139 -0.6319,-0.018 -0.9144,-0.018 -0.5919,0 -1.0848,0.0491 -1.48,0.1523 -0.3987,0.0985 -0.7126,0.2462 -0.9549,0.4348 -0.2377,0.1885 -0.408,0.4126 -0.5066,0.6686 -0.1031,0.2506 -0.1525,0.533 -0.1525,0.8427 0,0.3137 0.0584,0.6005 0.1747,0.8516 0.1216,0.2516 0.2963,0.4623 0.5379,0.6321 0.238,0.1708 0.547,0.3051 0.9197,0.3946 0.3769,0.0942 0.897,0.1394 1.5693,0.1394 h 1.7756 z m 9.4208,0.3815 c 0,0.2822 -0.0183,0.5199 -0.0586,0.7126 -0.0402,0.1927 -0.1163,0.3499 -0.2241,0.4666 -0.1122,0.1207 -0.2557,0.2017 -0.4302,0.2506 -0.1749,0.0497 -0.3995,0.0718 -0.6727,0.0718 -0.2827,0 -0.5117,-0.0221 -0.6863,-0.0718 -0.1747,-0.0489 -0.318,-0.1299 -0.4217,-0.2506 -0.107,-0.1167 -0.1788,-0.2739 -0.2194,-0.4666 -0.0404,-0.1927 -0.0587,-0.4304 -0.0587,-0.7126 0,-0.2961 0.0183,-0.5428 0.0587,-0.7399 0.0406,-0.1976 0.1124,-0.3589 0.2194,-0.4754 0.1037,-0.1214 0.247,-0.2017 0.4217,-0.2511 0.1746,-0.0491 0.4036,-0.072 0.6863,-0.072 0.2732,0 0.4978,0.0229 0.6727,0.072 0.1745,0.0494 0.318,0.1297 0.4302,0.2511 0.1078,0.1165 0.1839,0.2778 0.2241,0.4754 0.0403,0.1971 0.0586,0.4438 0.0586,0.7399 z m 0,8.6444 c 0,0.2691 -0.0136,0.5202 -0.0404,0.7448 -0.0275,0.2282 -0.0671,0.4437 -0.1255,0.6454 -0.0543,0.202 -0.1343,0.3993 -0.238,0.5961 -0.0983,0.1978 -0.2241,0.4036 -0.3722,0.6233 l -1.7888,2.6727 c -0.045,0.0715 -0.0944,0.1253 -0.1525,0.1703 -0.0582,0.0448 -0.1253,0.0808 -0.2017,0.1122 -0.081,0.0309 -0.175,0.0537 -0.2871,0.0717 -0.1073,0.0183 -0.2419,0.027 -0.399,0.027 -0.1482,0 -0.2735,-0.005 -0.3767,-0.0177 -0.0985,-0.0139 -0.1705,-0.0411 -0.2148,-0.0723 -0.045,-0.036 -0.0674,-0.0805 -0.0722,-0.1255 -0.004,-0.0492 0.009,-0.1124 0.045,-0.1925 l 1.7216,-3.5784 v -1.6771 c 0,-0.2377 0.027,-0.4255 0.0812,-0.5649 0.0489,-0.1387 0.1295,-0.2419 0.2285,-0.3139 0.1026,-0.0718 0.2282,-0.1168 0.3897,-0.1435 0.1575,-0.0266 0.3453,-0.0404 0.5652,-0.0404 0.2107,0 0.3942,0.0138 0.5518,0.0404 0.1609,0.0267 0.2871,0.0717 0.3896,0.1435 0.0992,0.072 0.1754,0.1752 0.2245,0.3139 0.0492,0.1394 0.0718,0.3272 0.0718,0.5649 z"
     style="fill:#1b1918;fill-rule:evenodd"
     id="path515" />
  <path
     d="m 150.3315,503.55454 c 0,0.1641 -0.01,0.31 -0.0327,0.4364 -0.024,0.1321 -0.0566,0.2395 -0.0988,0.3245 -0.0421,0.0893 -0.0943,0.1503 -0.1648,0.1924 -0.0704,0.0421 -0.1452,0.0609 -0.225,0.0609 h -9.851 c -0.1264,0 -0.2396,-0.0137 -0.3384,-0.0471 -0.0936,-0.0327 -0.1778,-0.0843 -0.2439,-0.1598 -0.0704,-0.0704 -0.122,-0.1778 -0.1546,-0.3143 -0.0334,-0.1358 -0.0472,-0.3049 -0.0472,-0.5068 0,-0.1836 0.009,-0.3434 0.0232,-0.4791 0.0145,-0.1365 0.0428,-0.2585 0.0893,-0.3667 0.0472,-0.103 0.1082,-0.2061 0.1786,-0.3143 0.0704,-0.1031 0.1641,-0.2156 0.2773,-0.3332 l 3.5589,-3.6627 c 0.8261,-0.8451 1.4839,-1.6008 1.9812,-2.2724 0.498,-0.6664 0.8785,-1.277 1.1507,-1.8309 0.2672,-0.5496 0.4458,-1.0476 0.5307,-1.4978 0.0842,-0.4508 0.1263,-0.8733 0.1263,-1.2683 0,-0.3942 -0.0653,-0.7695 -0.1967,-1.1216 -0.1365,-0.3521 -0.3245,-0.6621 -0.5779,-0.93 -0.249,-0.2679 -0.5634,-0.4792 -0.9438,-0.6338 -0.3753,-0.1547 -0.8124,-0.2345 -1.3053,-0.2345 -0.5772,0 -1.0941,0.0798 -1.5544,0.2345 -0.4552,0.1546 -0.8588,0.3288 -1.2066,0.5118 -0.3427,0.1829 -0.6338,0.3565 -0.8639,0.5118 -0.2302,0.1547 -0.4037,0.2345 -0.5162,0.2345 -0.0661,0 -0.1271,-0.0189 -0.1786,-0.0559 -0.0516,-0.0377 -0.0937,-0.0944 -0.1271,-0.1786 -0.0326,-0.0798 -0.0609,-0.1924 -0.0791,-0.3289 -0.0189,-0.1408 -0.0283,-0.3049 -0.0283,-0.4973 0,-0.1364 0.004,-0.2541 0.0138,-0.3572 0.009,-0.0987 0.0232,-0.188 0.0472,-0.2628 0.0232,-0.0704 0.0515,-0.1408 0.0893,-0.2069 0.037,-0.061 0.1125,-0.1408 0.2207,-0.2396 0.1125,-0.0936 0.3005,-0.225 0.5728,-0.3891 0.2672,-0.1691 0.6098,-0.3289 1.0186,-0.4886 0.4036,-0.1641 0.8545,-0.2955 1.3474,-0.4087 0.4886,-0.1075 1.0048,-0.1641 1.5449,-0.1641 0.864,0 1.6197,0.122 2.263,0.3659 0.6483,0.2396 1.1833,0.5728 1.6109,0.9961 0.4269,0.4225 0.7464,0.9104 0.9576,1.4694 0.2113,0.559 0.3151,1.1551 0.3151,1.7888 0,0.5685 -0.0523,1.1362 -0.1503,1.6996 -0.1038,0.5634 -0.3151,1.1739 -0.6388,1.8317 -0.3289,0.657 -0.7979,1.3845 -1.4136,2.1874 -0.6105,0.803 -1.4273,1.7279 -2.4458,2.7755 l -2.8176,2.9439 h 7.7478 c 0.0704,0 0.1408,0.0189 0.2113,0.061 0.0704,0.0421 0.1314,0.1031 0.1778,0.183 0.0523,0.0849 0.0893,0.188 0.1133,0.31 0.0232,0.1219 0.0327,0.2679 0.0327,0.4319 z m 6.5876,-0.498 c 0,0.6527 -0.1081,1.0846 -0.3238,1.301 -0.2163,0.2156 -0.6054,0.3238 -1.1739,0.3238 -0.5539,0 -0.9343,-0.1082 -1.1456,-0.3195 -0.2113,-0.2112 -0.3144,-0.6338 -0.3144,-1.2676 0,-0.6526 0.1075,-1.0846 0.3238,-1.3002 0.2156,-0.2164 0.6055,-0.3245 1.174,-0.3245 0.5539,0 0.9343,0.1038 1.1456,0.315 0.2062,0.2113 0.3143,0.6382 0.3143,1.272 z m 14.692,-4.2159 c 0,0.9533 -0.1597,1.7983 -0.4842,2.5447 -0.3187,0.7419 -0.7747,1.3663 -1.3613,1.8781 -0.5873,0.5075 -1.2864,0.8923 -2.0988,1.1601 -0.8073,0.2672 -1.709,0.3986 -2.7,0.3986 -0.5539,0 -1.0752,-0.037 -1.5681,-0.1169 -0.4981,-0.0755 -0.9395,-0.1742 -1.3243,-0.2867 -0.3847,-0.1126 -0.6998,-0.2251 -0.9481,-0.3383 -0.249,-0.1075 -0.4037,-0.1924 -0.4748,-0.2578 -0.0704,-0.066 -0.1169,-0.1219 -0.1452,-0.1786 -0.0283,-0.0566 -0.0516,-0.1219 -0.0748,-0.1974 -0.024,-0.0799 -0.0377,-0.1779 -0.0472,-0.2955 -0.009,-0.1176 -0.0145,-0.2628 -0.0145,-0.4276 0,-0.1547 0.005,-0.2912 0.0189,-0.4175 0.0145,-0.122 0.0428,-0.2207 0.0798,-0.3005 0.0334,-0.0756 0.0799,-0.1365 0.1271,-0.1692 0.0515,-0.0378 0.1082,-0.0566 0.1735,-0.0566 0.0944,0 0.2352,0.0566 0.4276,0.1742 0.1924,0.1125 0.4508,0.2345 0.7746,0.371 0.3289,0.1314 0.7275,0.2577 1.211,0.3753 0.4842,0.1176 1.052,0.1786 1.7141,0.1786 0.6149,0 1.1783,-0.0755 1.6901,-0.2207 0.5118,-0.1459 0.9583,-0.376 1.3293,-0.6904 0.371,-0.31 0.6621,-0.6999 0.8734,-1.1739 0.2112,-0.4741 0.3143,-1.0469 0.3143,-1.7279 0,-0.5677 -0.0893,-1.0709 -0.2679,-1.5072 -0.1778,-0.4363 -0.4552,-0.7978 -0.8262,-1.089 -0.3709,-0.2867 -0.8407,-0.5024 -1.4135,-0.6483 -0.5677,-0.1408 -1.2443,-0.2113 -2.0328,-0.2113 -0.5633,0 -1.0425,0.0284 -1.4461,0.0843 -0.4037,0.0522 -0.7798,0.0798 -1.1319,0.0798 -0.2533,0 -0.4363,-0.061 -0.5488,-0.1778 -0.1082,-0.1177 -0.1648,-0.3478 -0.1648,-0.6861 v -7.2542 c 0,-0.3005 0.0704,-0.5256 0.2112,-0.6715 0.146,-0.1452 0.3478,-0.2207 0.615,-0.2207 h 7.893 c 0.0704,0 0.1408,0.0189 0.2113,0.061 0.0704,0.0428 0.127,0.1038 0.1742,0.188 0.0421,0.0799 0.0799,0.1829 0.1031,0.3144 0.0232,0.127 0.0327,0.2773 0.0327,0.4508 0,0.3289 -0.0422,0.5873 -0.1314,0.7703 -0.0893,0.1829 -0.2113,0.2722 -0.371,0.2722 h -6.3714 v 5.0007 c 0.31,-0.0472 0.6244,-0.0755 0.9482,-0.0849 0.3245,-0.009 0.6948,-0.0138 1.1224,-0.0138 0.9815,0 1.836,0.1219 2.5729,0.3666 0.7325,0.2388 1.3474,0.5866 1.836,1.028 0.493,0.4458 0.864,0.9859 1.113,1.6197 0.2534,0.6294 0.3804,1.3337 0.3804,2.1039 z m 6.7002,4.2159 c 0,0.6527 -0.1081,1.0846 -0.3238,1.301 -0.2163,0.2156 -0.6054,0.3238 -1.1739,0.3238 -0.5539,0 -0.9344,-0.1082 -1.1456,-0.3195 -0.2113,-0.2112 -0.3144,-0.6338 -0.3144,-1.2676 0,-0.6526 0.1075,-1.0846 0.3238,-1.3002 0.2156,-0.2164 0.6055,-0.3245 1.174,-0.3245 0.5539,0 0.9343,0.1038 1.1456,0.315 0.2062,0.2113 0.3143,0.6382 0.3143,1.272 z m 14.9171,-8.0898 c 0,0.7703 -0.0472,1.5493 -0.1358,2.3334 -0.0944,0.7891 -0.249,1.55 -0.4697,2.2774 -0.2207,0.7282 -0.5169,1.4135 -0.8879,2.0473 -0.371,0.6382 -0.84,1.1928 -1.4034,1.6713 -0.5633,0.4748 -1.2305,0.8501 -2.0095,1.1224 -0.7754,0.2679 -1.6763,0.4036 -2.7,0.4036 -0.3949,0 -0.7797,-0.0232 -1.1507,-0.0748 -0.371,-0.0515 -0.7042,-0.1125 -1.0048,-0.188 -0.2955,-0.0704 -0.5496,-0.1503 -0.7514,-0.2345 -0.2018,-0.0798 -0.347,-0.1648 -0.4363,-0.2446 -0.0937,-0.0843 -0.1597,-0.1968 -0.2018,-0.3376 -0.0421,-0.146 -0.061,-0.3333 -0.061,-0.5728 0,-0.2019 0.004,-0.3667 0.0189,-0.4836 0.0138,-0.1176 0.037,-0.212 0.0653,-0.2729 0.0283,-0.0654 0.0661,-0.1075 0.1176,-0.1314 0.0465,-0.0233 0.1125,-0.0371 0.183,-0.0371 0.1031,0 0.2439,0.0371 0.4276,0.1031 0.1829,0.0704 0.4174,0.1452 0.6948,0.2302 0.2816,0.0798 0.6105,0.1546 0.9859,0.225 0.3753,0.0704 0.7978,0.1038 1.2675,0.1038 0.8923,0 1.6575,-0.1742 2.2964,-0.5169 0.6381,-0.3426 1.1594,-0.7978 1.563,-1.3757 0.4044,-0.5772 0.705,-1.2444 0.9068,-2.0052 0.2018,-0.7558 0.3144,-1.5588 0.3332,-2.3987 -0.4886,0.2817 -1.0708,0.535 -1.7518,0.7557 -0.6759,0.2207 -1.46,0.3289 -2.3377,0.3289 -0.9953,0 -1.8266,-0.1365 -2.5032,-0.4044 -0.6759,-0.2722 -1.2161,-0.6432 -1.6241,-1.1078 -0.4087,-0.4698 -0.7042,-1.0237 -0.8828,-1.6669 -0.1786,-0.6433 -0.2679,-1.3431 -0.2679,-2.1032 0,-0.7892 0.1125,-1.5406 0.3427,-2.2492 0.2301,-0.7136 0.5873,-1.3387 1.0752,-1.8781 0.4842,-0.5402 1.1035,-0.9721 1.8549,-1.2916 0.7514,-0.3238 1.6531,-0.4835 2.6949,-0.4835 0.7471,0 1.4041,0.0937 1.9769,0.2817 0.5728,0.188 1.0708,0.4603 1.4934,0.8124 0.4225,0.3521 0.779,0.7797 1.0701,1.277 0.2962,0.498 0.5307,1.0658 0.7093,1.6996 0.1786,0.6294 0.31,1.3148 0.3848,2.0524 0.0798,0.7412 0.1176,1.5166 0.1176,2.3333 z m -2.3944,-0.2584 c 0,-1.174 -0.0798,-2.1599 -0.2352,-2.9628 -0.1546,-0.803 -0.3848,-1.4506 -0.6897,-1.9435 -0.3005,-0.4981 -0.6715,-0.8545 -1.1129,-1.0752 -0.4414,-0.2207 -0.9533,-0.3289 -1.5312,-0.3289 -0.596,0 -1.1078,0.1082 -1.5304,0.3238 -0.4225,0.2163 -0.7702,0.5024 -1.0374,0.8639 -0.2723,0.3616 -0.4748,0.7747 -0.6011,1.2306 -0.1271,0.4603 -0.1924,0.9293 -0.1924,1.4179 0,0.5401 0.0559,1.0331 0.1735,1.4839 0.1125,0.4501 0.3006,0.8305 0.559,1.1405 0.2534,0.31 0.591,0.554 1.0048,0.7231 0.4131,0.1692 0.9198,0.2534 1.526,0.2534 0.6897,0 1.3569,-0.1031 2.0001,-0.3093 0.6433,-0.2069 1.1972,-0.4791 1.6669,-0.8174 z"
     style="fill:#1b1918;fill-rule:evenodd"
     id="path517" />
  <g
     id="Layer1022"
     transform="translate(-104.4545,-311.77896)">
    <path
       d="m 287.2064,377.3447 80.2423,23.5037 c 7.4834,77.9041 17.1756,153.5387 29.5084,226.46 l 8.2997,22.6346 -124.3392,34.2714 -62.1617,-231.5505 z"
       style="fill:#ffffff;fill-rule:evenodd"
       id="path519" />
    <path
       d="m 257.1036,512.7806 c -23.2111,9.731 -47.1261,18.7333 -53.2472,46.19 -1.8804,8.4359 -2.0209,14.6828 0.7508,22.9025 5.3987,16.0099 19.7398,29.8823 44.8999,41.1683 29.9307,5.1078 56.8762,-0.741 82.2843,-12.232 25.5778,-17.0687 42.4682,-38.0904 32.6996,-71.2439 -17.2959,-42.3264 -36.83,-36.3423 -55.8393,-41.6942 20.7022,3.0534 42.0289,-0.47 59.468,36.9695 10.9211,28.4568 7.0093,55.4287 -32.7612,78.8115 -26.6171,15.3265 -55.9825,16.3018 -86.0789,13.4624 -31.7614,-8.5813 -42.5526,-26.3804 -48.7096,-44.5168 -3.2843,-9.6759 -3.506,-11.4257 -1.373,-21.5946 7.5714,-36.0863 33.6517,-40.5977 57.9066,-48.2227 z"
       style="fill:#1b1918;fill-rule:evenodd"
       id="path521" />
    <path
       d="m 230.2352,582.9074 c 2.2037,12.2661 1.188,23.6265 10.2668,37.8288 3.6429,1.4854 7.2854,2.9704 10.9282,4.4557 -13.908,-12.784 -16.7379,-27.6897 -21.195,-42.2845 z"
       style="fill:#1b1918;fill-rule:evenodd"
       id="path523" />
    <path
       d="m 247.0896,591.7693 c 3.2878,11.365 3.4468,22.1915 13.4168,34.7082 3.5858,1.044 7.7705,-0.0418 11.3562,1.0018 -14.3901,-10.7019 -19.1279,-22.3681 -24.773,-35.71 z"
       style="fill:#1b1918;fill-rule:evenodd"
       id="path525" />
    <path
       d="m 345.3228,560.867 c 2.4842,12.2123 7.6253,22.3936 4.4362,38.9454 -2.8363,2.7262 -5.6724,5.4519 -8.5087,8.178 8.2006,-17.0181 5.323,-31.9146 4.0725,-47.1234 z"
       style="fill:#1b1918;fill-rule:evenodd"
       id="path527" />
    <path
       d="m 332.9351,575.329 c 1.1439,11.7756 4.9963,21.8948 0.3563,37.2095 -2.9464,2.2949 -7.2362,2.832 -10.1826,5.1266 9.4179,-15.2614 9.5101,-27.8526 9.8263,-42.3361 z"
       style="fill:#1b1918;fill-rule:evenodd"
       id="path529" />
    <path
       d="m 260.775,562.7363 c 23.2603,11.57 44.7915,-10.2205 53.494,-19.2232 -23.6857,41.4456 -47.6528,22.0072 -53.494,19.2232 z"
       style="fill:#1b1918;fill-rule:evenodd"
       id="path531" />
    <path
       d="m 397.3982,634.2798 c -64.1815,43.2978 -143.3093,56.3884 -202.8957,25.8268 67.7166,36.8725 141.9232,15.2531 203.2341,-23.5214 0.0702,-1.6382 -0.4086,-0.6672 -0.3384,-2.3054 z"
       style="fill:#1b1918;fill-rule:evenodd"
       id="path533" />
    <path
       d="m 363.229,324.7996 c 5.4448,100.2757 18.5494,212.4975 34.3058,307.3439 6.4091,11.502 9.0304,18.1778 15.4395,29.6798 5.6472,9.5463 4.4387,18.5456 -0.3873,21.7844 -62.9689,58.4106 -165.9142,56.5686 -221.2287,30.9245 -7.4226,-3.9608 -10.3045,-12.6518 -9.8015,-21.3709 3.251,-11.9033 6.5024,-23.8068 9.7535,-35.71 0.034,-108.1525 -23.1168,-206.0053 -41.9533,-300.8036 l 2.7832,5.1677 c 3.507,14.0986 7.8733,31.1232 9.2249,37.7584 15.7294,77.2273 32.7925,162.883 32.779,240.9048 l -0.3695,17.3755 c -3.2056,11.7363 -6.6571,24.8184 -9.8626,36.5546 -0.2316,5.7638 2.9752,15.3641 8.6204,18.4643 31.4207,14.5216 72.8211,18.3965 106.2736,15.3952 41.0114,-3.6791 83.9423,-18.4694 114.9668,-48.8026 3.4875,-2.7591 -0.661,-12.6597 -2.9028,-16.4494 -5.0454,-8.7882 -12.5812,-20.9276 -15.9499,-30.5205 -15.356,-92.4369 -27.9026,-213.6236 -33.5271,-307.508 z"
       style="fill:#1b1918;fill-rule:evenodd"
       id="path535" />
    <path
       d="m 183.6632,693.3241 c 29.8141,11.9023 60.5434,18.6007 89.7906,19.6927 -32.2046,0.511 -57.1136,-5.7363 -89.3073,-17.5723 -0.5395,-1.5781 0.0562,-0.5424 -0.4833,-2.1204 z"
       style="fill:#1b1918;fill-rule:evenodd"
       id="path537" />
    <path
       d="m 183.2391,698.7283 c 23.4294,9.7139 47.6394,15.3305 70.7399,16.5062 -25.4552,0.0577 -45.0707,-5.1403 -70.3814,-14.8275 -0.4089,-1.2513 0.0504,-0.4274 -0.3585,-1.6787 z"
       style="fill:#1b1918;fill-rule:evenodd"
       id="path539" />
    <path
       d="m 252.3034,316.3893 c -59.1135,8.6773 -105.425,26.6759 -103.4396,40.201 1.9853,13.5251 51.5157,17.4549 110.6292,8.7776 59.1134,-8.6773 105.4249,-26.6759 103.4396,-40.2009 -1.9854,-13.5251 -51.5158,-17.455 -110.6292,-8.7777 z m 0.136,0.9243 c -56.8831,8.3499 -101.447,25.6691 -99.5365,38.6838 1.9104,13.0147 49.5717,16.7964 106.4548,8.4465 56.8827,-8.3499 101.4465,-25.6694 99.5361,-38.6841 -1.9104,-13.0147 -49.5717,-16.7961 -106.4544,-8.4462 z"
       style="fill:#1b1918;fill-rule:evenodd"
       id="path541" />
    <path
       d="m 249.0814,321.9032 c 53.0481,-8.4146 98.2292,-6.1351 106.8542,4.7452 l -2.1095,0.4582 c -8.6039,-10.3365 -61.3604,-11.1392 -104.6093,-4.279 -43.249,6.8602 -66.4291,14.9839 -83.3581,24.3748 -2.7073,0.8816 -5.3123,1.7747 -7.8109,2.6752 16.2753,-10.6221 50.5784,-21.5571 91.0336,-27.9744 z"
       style="fill:#1b1918;fill-rule:evenodd"
       id="path543" />
    <path
       d="m 248.879,324.8387 c 41.589,-6.1048 77.9722,-5.5815 93.4297,0.4263 l -0.4108,1.0439 c -15.1912,-5.5728 -56.4189,-6.0039 -92.8987,-0.649 -36.4798,5.3548 -62.2739,13.0841 -78.1829,21.3652 -2.5396,0.7737 -4.9839,1.558 -7.3286,2.3493 15.3058,-9.3764 47.4856,-18.9715 85.3913,-24.5357 z"
       style="fill:#1b1918;fill-rule:evenodd"
       id="path545" />
    <path
       d="m 330.1096,426.2577 c -9.4051,-18.8201 -37.8043,-25.9856 -43.6622,-13.609 -5.7167,12.0798 -1.6063,15.7229 4.1179,13.9554 0.269,-0.0831 0.5327,-0.1617 0.7961,-0.2374 l -0.0512,-0.0437 c -1.5411,-6.0329 0.1303,-9.9009 0.7775,-14.4601 -0.1034,4.6161 -0.6131,9.1786 1.0736,14.0275 1.4257,-0.3408 2.7649,-0.5714 4.0415,-0.706 -1.3715,-4.7882 -0.3642,-8.311 -0.2172,-12.2905 0.3471,4.2397 0.6158,8.0416 2.6229,12.1448 8.7025,-0.1214 14.879,4.302 27.069,8.1367 6.7452,2.1221 4.9892,-3.8016 3.4321,-6.9177 z"
       style="fill:#1b1918;fill-rule:evenodd"
       id="path547" />
    <path
       d="m 202.2758,446.8802 c 2.6652,-20.5301 26.7501,-36.3609 36.1921,-26.7469 9.2134,9.3813 6.57,14.0956 0.678,14.3014 -0.4331,0.0153 -0.8566,0.0364 -1.2705,0.0634 -0.537,-6.1645 -3.3736,-9.2633 -5.4742,-13.3444 1.6033,4.3011 3.5676,8.4205 3.5892,13.5118 -1.4622,0.1677 -2.8027,0.4157 -4.0512,0.7356 -0.2794,-4.9645 -2.3829,-7.9596 -3.827,-11.666 1.068,4.133 2.0663,7.8246 1.5023,12.3811 -7.7331,2.7971 -12.0813,8.7788 -21.915,16.0866 -5.5843,4.15 -5.8653,-1.9225 -5.4237,-5.3226 z"
       style="fill:#1b1918;fill-rule:evenodd"
       id="path549" />
    <path
       d="m 274.5441,488.134 c 8.9212,-5.3224 29.3982,-6.0333 32.493,6.5198 0.5451,8.479 -6.8477,14.5985 -19.7224,18.2628 -16.1695,3.1816 -26.5622,0.6807 -35.5499,-3.2038 21.0984,15.533 60.8141,2.7082 57.7863,-16.3926 -3.1564,-10.0892 -13.6444,-11.4889 -22.5913,-11.1779 -3.6175,-9.3162 -5.3977,-19.1842 -6.7117,-28.3719 0.0862,9.4712 1.3141,19.6487 4.7949,29.0379 -6.1112,1.906 -9.1971,3.4265 -10.4989,5.3257 z"
       style="fill:#1b1918;fill-rule:evenodd"
       id="path551" />
    <path
       d="m 163.8436,444.5073 c -5.9968,0.4605 -11.994,0.9212 -17.9908,1.3819 -5.6992,0.6931 -11.3981,1.3862 -17.0973,2.0795 -11.4595,2.3027 -21.8135,6.3929 -23.9617,23.7594 -0.6563,5.3109 -0.3468,7.0516 0.8096,12.1782 7.3082,32.3646 7.2592,41.5468 15.1292,74.6991 7.0788,28.0152 24.2339,35.1328 37.9429,41.9989 9.6658,2.9745 19.3308,5.949 28.996,8.9232 3.6421,1.2742 5.4321,10.0741 7.4067,18.1226 -1.3855,-16.6217 -2.7707,-33.2438 -4.1562,-49.8658 -0.3066,4.6425 -0.9089,9.0293 -7.9437,7.8539 -6.4874,-1.3384 -12.9745,-2.677 -19.4611,-4.0153 -5.0079,-1.0326 -5.4463,-0.8901 -9.4951,-4.431 -4.8383,-4.2315 -8.7487,-9.653 -11.9499,-15.9758 -4.1204,-8.1383 -4.5389,-12.5111 -6.0135,-21.1801 -4.122,-24.2223 -5.8639,-32.2302 -9.9854,-56.4531 -2.3542,-10.8308 1.76,-12.6494 6.7581,-13.2356 10.9189,-0.1603 21.8381,-0.3209 32.757,-0.4815 6.2336,1.5429 9.7081,11.0934 13.0561,23.8495 -3.2613,-16.8298 -6.4532,-33.184 -9.7145,-50.0138 -1.9115,0.4506 -3.1751,0.3556 -5.0864,0.8058 z m 27.7633,140.3137 c 0.5703,6.8364 1.8032,24.1195 2.3726,30.9557 -1.19,-5.5189 -2.0972,-6.0364 -8.3957,-8.5472 -7.4237,-2.9589 -19.9037,-5.4262 -25.2268,-7.0643 -21.5723,-10.7887 -31.8494,-14.4784 -38.0657,-39.9346 -7.0578,-28.9034 -7.436,-44.0401 -14.4737,-73.2908 -1.2338,-5.1299 -2.5674,-8.5117 -1.9841,-13.7357 1.4653,-13.1083 9.3317,-20.493 23.5714,-23.3688 5.6434,-0.6864 11.0855,-1.3528 16.7289,-2.0392 7.7617,-0.5961 15.3329,-1.7127 23.0365,-2.6571 1.5102,7.7869 7.4732,34.6954 8.9871,42.4817 -8.9247,-27.1456 -8.9288,-19.8184 -39.4513,-19.3694 -14.0946,0.2099 -15.0468,8.046 -12.4387,20.124 3.0477,17.9104 5.6061,42.0214 10.8593,65.2234 1.4907,6.584 5.8873,11.472 8.2042,14.6188 11.0693,15.0309 13.4703,13.577 24.0204,15.7524 4.5603,0.9401 10.8251,2.8464 15.2065,3.5878 2.2008,0.3676 5.1483,-1.8734 7.0491,-2.7367 z"
       style="fill:#1b1918;fill-rule:evenodd"
       id="path553" />
    <path
       d="m 400.4394,641.038 c -25.7714,17.3857 -53.9531,29.8956 -82.3114,36.6702 31.724,-5.7954 54.3302,-16.7299 82.454,-34.5162 0.0701,-1.6382 -0.2128,-0.5158 -0.1426,-2.154 z"
       style="fill:#1b1918;fill-rule:evenodd"
       id="path555" />
    <path
       d="m 402.4264,646.2044 c -20.1478,14.0127 -42.252,24.198 -64.5593,29.8532 24.9746,-4.9171 42.6957,-13.7983 64.6957,-28.1526 0.0372,-1.2953 -0.1736,-0.4053 -0.1364,-1.7006 z"
       style="fill:#1b1918;fill-rule:evenodd"
       id="path557" />
    <path
       d="m 266.2312,543.5246 c 12.3687,-13.2605 29.1367,-15.724 41.2104,-5.8402 -3.2169,10.2624 -8.1394,-8.5875 -30.5765,4.6722 -19.3674,18.1218 -23.3809,15.7924 -10.6339,1.168 z"
       style="fill:#1b1918;fill-rule:evenodd"
       id="path559" />
    <path
       d="m 224.0036,464.3996 c -1.5028,1.9016 0.6525,19.4824 11.8659,18.9443 2.9071,-0.1394 11.7429,-2.5362 13.8547,-4.0929 5.5176,-4.0688 2.6306,-15.1445 0.029,-17.2956 -10.7008,-8.8442 -23.7523,-0.0803 -25.7496,2.4442 z"
       style="fill:#1b1918;fill-rule:evenodd"
       id="path561" />
    <path
       d="m 236.981,482.0846 c 2.5772,-0.0899 9.475,-1.6317 11.3447,-3.0179 4.8878,-3.6216 1.6149,-12.407 0.1367,-15.0038 -3.7235,-6.5389 -12.8268,-4.0518 -17.7581,-1.701 -7.4327,3.542 -4.5144,20.0981 6.2767,19.7227 z"
       style="fill:#ffffff;fill-rule:evenodd"
       id="path563" />
    <g
       id="Layer1023">
      <path
         d="m 238.4732,461.604 c 1.6979,0.4484 9.786,14.8533 2.7694,18.0589 -1.8204,0.8314 -7.9806,2.0927 -9.77,1.7634 -4.6744,-0.8594 -7.1753,-11.8612 -6.0725,-14.0064 4.2434,-8.2532 10.0765,-6.6064 13.0731,-5.8159 z"
         style="fill:#1b1918;fill-rule:evenodd"
         id="path565" />
      <path
         d="m 243.8709,465.7922 c 0.6619,0.007 3.5479,5.385 1.004,6.5472 -0.66,0.3014 -2.8933,0.7587 -3.5421,0.6393 -1.6947,-0.3116 -2.6986,-4.3362 -2.2016,-5.078 0.9399,-1.4027 1.9221,-1.1961 3.2699,-1.6081 0.3864,-0.1181 1.1427,-0.5039 1.4698,-0.5004 z"
         style="fill:#ffffff;fill-rule:evenodd"
         id="path567" />
      <path
         d="m 239.1801,473.7787 c 0.2934,0.003 1.5726,2.3869 0.445,2.902 -0.2925,0.1336 -1.2824,0.3363 -1.5699,0.2833 -0.7512,-0.1381 -1.1962,-1.9219 -0.9759,-2.2507 0.4166,-0.6217 0.852,-0.5302 1.4493,-0.7128 0.1713,-0.0523 0.5065,-0.2233 0.6515,-0.2218 z"
         style="fill:#ffffff;fill-rule:evenodd"
         id="path569" />
    </g>
    <path
       d="m 210.7986,480.3137 c -3.8897,3.2554 7.2067,-23.6819 40.2141,-26.296 2.7831,-0.2204 -5.7046,-13.4574 -5.588,-14.4202 0.01,-0.0179 14.2398,20.5684 11.6406,20.1919 -18.2078,-2.6389 -35.4273,11.4519 -46.2667,20.5243 z"
       style="fill:#1b1918;fill-rule:evenodd"
       id="path572" />
    <g
       id="Layer1024">
      <path
         d="m 189.9419,676.0972 c 9.1919,-14.6745 26.2453,-23.9513 28.9463,-40.4419 3.1697,-19.3527 54.474,-38.3782 -7.3334,-68.3391 -17.1305,-8.3029 18.6586,-57.1113 -8.2411,-66.5771 -12.1159,-4.2629 -14.6126,13.9245 -28.7921,11.5582 -13.7499,-2.2942 -25.3971,25.0132 -25.3971,41.4911 0,46.5431 45.9235,60.7717 36.5146,74.9216 -8.2233,12.3667 -23.9707,45.7693 2.4883,46.8948 z"
         style="fill:#ffffff;fill-rule:evenodd"
         id="path574" />
      <g
         id="Layer1025">
        <path
           d="m 161.5473,592.1629 c -3.5126,-16.5069 -12.4227,-22.7928 -9.9064,-47.0019 1.4822,-14.2649 8.6632,-33.5605 23.9157,-33.3329 -0.4403,5.6848 -0.9947,3.3267 -4.543,9.2025 -8.3461,13.8183 -9.5881,25.1432 -7.2737,41.6229 4.0477,-6.6228 3.8723,-26.945 10.9463,-39.9598 4.2714,-7.8561 17.613,-24.8281 31.4483,-16.2408 0.2973,12.4098 -9.8164,2.2644 -21.4156,22.14 -5.3658,9.194 -9.8468,25.6363 -3.5392,35.822 3.4506,-8.8304 0.2111,-23.1725 6.1564,-33.2692 4.8893,-8.3068 11.8993,-16.2813 25.0228,-12.9075 5.2707,13.8809 3.494,12.942 -3.4957,22.168 -5.1565,6.8053 -3.4008,18.3039 -2.7781,26.9125 6.0113,6.1508 13.58,8.4147 20.007,13.3063 l 14.3945,19.0695 c 1.7856,10.7036 -7.3696,14.8678 -11.9316,20.6579 -4.2367,5.3734 -10.1963,14.8842 -12.6234,21.3861 5.1884,-1.9679 3.1442,0.0757 7.6013,-6.7959 1.6145,-2.4883 3.7354,-6.4736 5.1335,-8.645 2.7618,-4.2886 37.3652,-27.113 -3.5169,-50.7848 -11.5332,-6.6774 -24.9262,-11.5504 -9.7961,-34.742 10.3113,-15.8069 0.0674,-20.9674 -2.3328,-29.0711 -1.6123,-5.4437 -0.1887,-19.3258 -21.0031,-11.2312 -6.2002,2.4117 -8.0098,2.9733 -10.7146,9.0121 -8.6413,-1.0645 -14.5136,-3.762 -23.2776,8.6808 -13.7161,19.473 -14.7054,50.5543 -1.4183,69.3516 5.7,8.0649 1.3212,2.5736 4.9403,4.6499 z"
           style="fill:#1b1918;fill-rule:evenodd"
           id="path576" />
        <path
           d="m 161.5473,592.1629 c 5.6878,21.9717 26.8141,12.0074 25.1738,34.4781 l 4.9806,-8.5071 z"
           style="fill:#1b1918;fill-rule:evenodd"
           id="path578" />
      </g>
    </g>
    <path
       d="m 289.8121,452.7463 c -1.5027,1.9015 0.6526,19.4823 11.866,18.9442 2.9071,-0.1394 11.7429,-2.5362 13.8547,-4.0928 5.5176,-4.0689 2.6305,-15.1446 0.029,-17.2957 -10.7008,-8.8442 -23.7524,-0.0802 -25.7497,2.4443 z"
       style="fill:#1b1918;fill-rule:evenodd"
       id="path582" />
    <path
       d="m 302.7895,470.4312 c 2.5773,-0.0898 9.4751,-1.6316 11.3448,-3.0179 4.8877,-3.6216 1.6149,-12.4069 0.1366,-15.0038 -3.7235,-6.5389 -12.8267,-4.0518 -17.758,-1.701 -7.4328,3.542 -4.5144,20.0982 6.2766,19.7227 z"
       style="fill:#ffffff;fill-rule:evenodd"
       id="path584" />
    <g
       id="Layer1026">
      <path
         d="m 304.2818,449.9507 c 1.6978,0.4483 9.786,14.8532 2.7693,18.0589 -1.8204,0.8313 -7.9805,2.0926 -9.7699,1.7633 -4.6744,-0.8594 -7.1753,-11.8611 -6.0725,-14.0064 4.2434,-8.2532 10.0765,-6.6064 13.0731,-5.8158 z"
         style="fill:#1b1918;fill-rule:evenodd"
         id="path586" />
      <path
         d="m 309.6795,454.1388 c 0.6618,0.007 3.5479,5.385 1.004,6.5472 -0.66,0.3014 -2.8934,0.7587 -3.5421,0.6393 -1.6947,-0.3115 -2.6987,-4.3362 -2.2016,-5.078 0.9399,-1.4027 1.9221,-1.1961 3.2698,-1.6081 0.3864,-0.1181 1.1428,-0.5039 1.4699,-0.5004 z"
         style="fill:#ffffff;fill-rule:evenodd"
         id="path588" />
      <path
         d="m 304.9887,462.1253 c 0.2933,0.003 1.5725,2.3869 0.445,2.902 -0.2925,0.1336 -1.2824,0.3363 -1.57,0.2834 -0.7511,-0.1381 -1.1961,-1.922 -0.9758,-2.2508 0.4166,-0.6217 0.8519,-0.5301 1.4493,-0.7127 0.1713,-0.0524 0.5065,-0.2234 0.6515,-0.2219 z"
         style="fill:#ffffff;fill-rule:evenodd"
         id="path590" />
    </g>
    <path
       d="m 285.8617,462.4904 c -3.6654,3.5066 -2.0479,-17.512 30.9596,-20.1261 2.782,-0.2206 -5.7046,-13.4574 -5.588,-14.4201 0.01,-0.0179 14.2667,20.2347 11.6406,20.1919 -14.7789,-0.2399 -27.8867,5.6253 -37.0122,14.3543 z"
       style="fill:#1b1918;fill-rule:evenodd"
       id="path593" />
    <path
       d="m 389.9083,503.1538 c 7.8225,6.0946 42.9551,-18.3262 76.373,-3.2246 16.8964,7.6364 38.262,24.2206 47.8546,40.3086 4.0841,6.8462 8.1241,21.1784 -1.1053,24.3839 -7.7404,2.6876 -14.6476,-14.4993 -21.5122,-21.787 -9.9958,-10.6125 -14.5796,-10.8104 -24.2751,-15.5075 0.3036,7.0692 -0.4977,0.5148 1.5775,5.0966 0.0205,0.0472 1.7452,3.0723 1.9688,3.4621 12.4924,21.8103 6.1868,51.7241 -4.891,50.2511 -13.7953,-4.2748 -0.4904,-31.022 -11.441,-35.4549 -0.9678,10.2815 5.3709,26.0856 1.0333,35.5239 -6.9823,-2.076 -11.3727,-9.6775 -12.5692,-16.2148 -0.6455,-3.5228 -0.5459,-5.3255 0.3669,-8.6556 l 2.607,-8.3558 c -4.7023,-0.5654 -7.0384,-0.3658 -10.84,-4.2017 5.4792,-11.8803 3.6518,-7.1165 13.4704,-10.1124 -5.5847,-1.7998 -3.5993,0.2597 -7.4407,-3.385 2.474,-12.8831 -0.3101,-13.7102 15.1741,-17.7421 -5.6912,-2.7736 -3.0898,-2.6208 -17.4907,2.3412 4.9314,11.4248 -5.7845,32.8409 -21.9715,33.4429 -2.3468,0.0876 -5.2999,-0.2402 -7.8549,-2.4469 -13.4644,-11.6173 15.7143,-14.8102 9.4319,-28.6624 l -8.1179,11.8971 -13.823,-5.8782 c -4.3143,-0.4471 -0.515,-1.353 -4.5225,1.2102 l 15.4151,7.0125 c -14.2824,14.4723 5.9704,20.2251 8.1833,20.2916 5.34,0.1605 8.0482,-2.7184 13.3107,-4.1897 4.9675,-1.3885 6.6455,0.9567 12.02,2.904 -0.0364,0.3924 -0.102,0.9203 -0.1298,1.1762 l -0.7182,6.7352 c -0.1401,1.7711 -0.2915,4.2765 -0.0958,6.4485 0.405,4.492 1.9352,9.5874 5.8327,14.3313 8.7613,10.6639 9.0229,6.0375 21.1874,5.684 13.9691,-0.4089 14.364,-21.3698 14.4344,-29.7033 0.098,-11.7266 -4.0214,-15.321 -8.0436,-26.7698 20.3278,5.6441 23.0959,29.9354 38.9648,35.7726 36.0888,-20.5356 -37.1295,-84.4684 -82.4888,-76.7472 -7.1827,1.222 -35.915,8.0435 -39.8747,10.7654 z"
       style="fill:#1e1e1e;fill-rule:evenodd"
       id="path595" />
  </g>
  <path
     d="m 8.1728032,-259.39246 c 0,3.1244 0.6831,5.4638 2.0488998,7.0107 1.3742,1.5545 3.0934,2.3315 5.1735,2.3315 2.0568,0 3.7689,-0.777 5.1426,-2.3395 1.3657,-1.5621 2.0489,-3.9413 2.0489,-7.1362 0,-3.0149 -0.6908,-5.2994 -2.0645,-6.8459 -1.3742,-1.5546 -3.0855,-2.3318 -5.127,-2.3318 -2.0801,0 -3.7993,0.7693 -5.1735,2.3162 -1.3657998,1.5465 -2.0488998,3.8783 -2.0488998,6.995 z m -4.2395,-0.008 c 0,-4.5142 1.2563,-7.8585 3.776,-10.0332 2.0962,-1.806 4.6638998,-2.7088 7.6858998,-2.7088 3.3528,0 6.1004,1.0992 8.2357,3.2975 2.1277,2.1903 3.1953,5.2285 3.1953,9.0989 0,3.1403 -0.4706,5.6056 -1.4131,7.4036 -0.942,1.7977 -2.3162,3.1952 -4.1216,4.1921 -1.798,0.997 -3.7686,1.4916 -5.8963,1.4916 -3.4226,0 -6.1860998,-1.091 -8.2978998,-3.2814 -2.1121,-2.1903 -3.164,-5.3467 -3.164,-9.4603 z m -18.8028002,8.8322 h 5.4408002 c 2.3395,0 3.949,-0.2747 4.8203,-0.8167 0.8711,-0.5491 1.3269,-1.4839 1.3734,-2.8264 0,-0.7773 -0.2508,-1.5072 -0.7531,-2.1742 -0.5103,-0.6675 -1.1702,-1.0916 -1.9783,-1.264 -0.809,-0.1808 -2.1121,-0.267 -3.9019,-0.267 h -5.0012002 z m 0,-10.7399 h 4.3965 c 1.7507002,0 2.9597002,-0.0939 3.6114002,-0.2747 0.659,-0.1888 1.2484,-0.5576 1.7662,-1.1228 0.5179,-0.5576 0.7773,-1.2322 0.7773,-2.0174 0,-1.2957 -0.455,-2.1904 -1.3581,-2.7012 -0.9107,-0.5102 -2.4653,-0.7611 -4.6632002,-0.7611 h -4.5301 z m -4.1454,-10.3159 h 9.5389002 c 2.3394,0 4.0824,0.1965 5.2285,0.5885 1.1384,0.3929 2.1197,1.1072 2.9364,2.1515 0.82400003,1.0522 1.23250003,2.3 1.23250003,3.7604 0,1.1696 -0.2432,2.1904 -0.7223,3.0538 -0.48670003,0.8714 -1.20890003,1.6019 -2.18240003,2.1827 1.1461,0.3844 2.09630003,1.0992 2.85740003,2.1509 0.7537,1.0443 1.13039997,2.2927 1.13039997,3.7293 -0.14909997,2.3159 -0.98079997,4.0351 -2.4806,5.1499 -1.4995,1.1229 -3.6822,1.6804 -6.5395,1.6804 H -19.014897 Z m -26.316,0 h 4.1454 v 18.6458 l 11.5172,-18.6458 h 4.4512 v 24.4474 h -4.1454 v -18.5278 l -11.5015,18.5278 h -4.4669 z m -33.2952,-9.28 h 26.4731 v 33.7274 h -4.4748 v -29.7706 h -17.5235 v 29.7706 h -4.4748 z"
     style="fill:#1b1918;fill-rule:evenodd"
     id="path598" />
</svg>
