<?xml version="1.0" encoding="UTF-8" standalone="no"?>
<svg version="1.1" width="337.54373" height="417.59985" id="svg806" viewBox="0 0 337.54373 417.59986"
    xmlns="http://www.w3.org/2000/svg">
  <defs
     id="defs810" />
  <path
     d="m -20.152701,-200.41596 -1.5739,4.3538 c -0.054,0.1387 -0.1885,0.2467 -0.4034,0.3231 -0.2107,0.0762 -0.5379,0.1114 -0.9775,0.1114 -0.2287,0 -0.4124,-0.009 -0.5518,-0.0311 -0.1387,-0.0221 -0.2463,-0.063 -0.3224,-0.1124 -0.0723,-0.0533 -0.1124,-0.1253 -0.1214,-0.2107 -0.009,-0.0893 0.0131,-0.1927 0.063,-0.3182 l 1.632,-4.1159 c -0.081,-0.0363 -0.1574,-0.0944 -0.2245,-0.1706 -0.0716,-0.0805 -0.1207,-0.1616 -0.1436,-0.2511 l -4.2185,-11.2993 c -0.0723,-0.1837 -0.1034,-0.3321 -0.1034,-0.4345 0,-0.1083 0.0311,-0.1886 0.1034,-0.2519 0.0712,-0.0622 0.1836,-0.1024 0.3403,-0.1255 0.1567,-0.0221 0.3674,-0.0311 0.6324,-0.0311 0.2598,0 0.4664,0.005 0.6182,0.018 0.1484,0.0131 0.2649,0.0403 0.3542,0.0764 0.0854,0.0311 0.1484,0.0851 0.1888,0.1476 0.0402,0.0672 0.0803,0.1575 0.1253,0.2689 l 3.3765,9.4884 h 0.0402 l 3.2556,-9.5376 c 0.0535,-0.1705 0.1165,-0.2781 0.1927,-0.3223 0.0715,-0.0499 0.1839,-0.0852 0.3316,-0.1083 0.1523,-0.0221 0.3681,-0.0311 0.646,-0.0311 0.2462,0 0.4486,0.009 0.6053,0.0311 0.1567,0.0231 0.2732,0.0633 0.3452,0.1255 0.0762,0.0633 0.1124,0.1436 0.1124,0.2519 0,0.1024 -0.027,0.2369 -0.0764,0.3943 z m -9.6402,-0.3273 c 0,0.0713 -0.018,0.1294 -0.054,0.1796 -0.0356,0.0442 -0.0937,0.0893 -0.1837,0.1253 -0.0854,0.0314 -0.202,0.0584 -0.3453,0.0764 -0.1477,0.0172 -0.3272,0.0262 -0.5472,0.0262 -0.2107,0 -0.3895,-0.009 -0.5379,-0.0262 -0.1477,-0.018 -0.2642,-0.045 -0.3494,-0.0764 -0.0812,-0.036 -0.1435,-0.0811 -0.1837,-0.1253 -0.0408,-0.0502 -0.0591,-0.1083 -0.0591,-0.1796 v -14.7118 h -7.6941 v 14.7118 c 0,0.0713 -0.018,0.1294 -0.0582,0.1796 -0.0401,0.0442 -0.1034,0.0893 -0.1836,0.1253 -0.0854,0.0314 -0.1976,0.0584 -0.3412,0.0764 -0.1476,0.0172 -0.3272,0.0262 -0.5469,0.0262 -0.2192,0 -0.3988,-0.009 -0.5472,-0.0262 -0.1435,-0.018 -0.2598,-0.045 -0.3452,-0.0764 -0.0893,-0.036 -0.1477,-0.0811 -0.1837,-0.1253 -0.036,-0.0502 -0.0533,-0.1083 -0.0533,-0.1796 v -15.7566 c 0,-0.3051 0.0762,-0.5379 0.228,-0.6905 0.1574,-0.1525 0.3501,-0.2287 0.588,-0.2287 h 10.6086 c 0.247,0 0.4397,0.0762 0.5784,0.2287 0.1391,0.1526 0.2107,0.3854 0.2107,0.6905 z m -16.4512,-1.117 c 0,0.6234 -0.1032,1.0358 -0.3093,1.2423 -0.2065,0.2061 -0.5781,0.3092 -1.1209,0.3092 -0.5289,0 -0.8924,-0.1031 -1.0941,-0.3051 -0.2017,-0.2016 -0.3002,-0.605 -0.3002,-1.2104 0,-0.6233 0.1027,-1.0357 0.3092,-1.2415 0.2061,-0.2068 0.5784,-0.31 1.1212,-0.31 0.5289,0 0.8921,0.099 1.0938,0.301 0.1971,0.2017 0.3003,0.6092 0.3003,1.2145 z m -6.2638,0.556 c 0,0.1664 -0.0139,0.3051 -0.0409,0.4175 -0.0265,0.1121 -0.0584,0.2058 -0.1026,0.2729 -0.045,0.0723 -0.0944,0.1215 -0.1526,0.1526 -0.0581,0.0319 -0.1165,0.0453 -0.1747,0.0453 h -8.8782 c -0.0584,0 -0.1166,-0.0134 -0.1706,-0.0453 -0.0494,-0.0311 -0.1034,-0.0803 -0.1477,-0.1526 -0.0491,-0.0671 -0.0854,-0.1608 -0.1124,-0.2729 -0.027,-0.1124 -0.0401,-0.2511 -0.0401,-0.4175 0,-0.1567 0.0131,-0.291 0.0401,-0.4034 0.027,-0.1166 0.0584,-0.2107 0.0986,-0.2823 0.036,-0.0761 0.0851,-0.1304 0.1435,-0.1705 0.0582,-0.0402 0.1212,-0.0582 0.1886,-0.0582 h 3.5378 v -12.9403 l -3.287,1.9641 c -0.1657,0.0852 -0.3002,0.1387 -0.4034,0.1567 -0.0985,0.018 -0.1795,0 -0.2421,-0.0581 -0.063,-0.0584 -0.1031,-0.1526 -0.1253,-0.283 -0.0228,-0.1297 -0.0318,-0.2954 -0.0318,-0.4971 0,-0.1484 0.0046,-0.2781 0.018,-0.3812 0.0138,-0.1076 0.036,-0.193 0.063,-0.265 0.027,-0.0671 0.0623,-0.1296 0.1124,-0.1837 0.0443,-0.0491 0.1073,-0.1034 0.1878,-0.1566 l 3.9191,-2.507 c 0.0355,-0.0263 0.0764,-0.0492 0.1297,-0.0672 0.054,-0.0133 0.1214,-0.0313 0.1975,-0.0493 0.0806,-0.0181 0.1706,-0.0312 0.2781,-0.0361 0.1032,-0.004 0.2329,-0.004 0.3944,-0.004 0.2066,0 0.3856,0.009 0.5248,0.027 0.1387,0.018 0.2462,0.0402 0.3272,0.0715 0.0806,0.0319 0.1297,0.0721 0.1567,0.1163 0.027,0.0502 0.0404,0.0993 0.0404,0.1526 v 14.9405 h 3.0761 c 0.072,0 0.1394,0.018 0.1975,0.0582 0.0625,0.0401 0.1117,0.0944 0.1526,0.1705 0.0401,0.0716 0.0713,0.1657 0.0936,0.2823 0.0229,0.1124 0.0319,0.2467 0.0319,0.4034 z m -13.6357,0 c 0,0.1664 -0.0139,0.3051 -0.0409,0.4175 -0.0263,0.1121 -0.0581,0.2058 -0.1027,0.2729 -0.045,0.0723 -0.0941,0.1215 -0.1525,0.1526 -0.0582,0.0319 -0.1163,0.0453 -0.1747,0.0453 h -8.8783 c -0.0581,0 -0.1165,-0.0134 -0.1705,-0.0453 -0.0492,-0.0311 -0.1032,-0.0803 -0.1477,-0.1526 -0.0491,-0.0671 -0.0852,-0.1608 -0.1122,-0.2729 -0.0272,-0.1124 -0.0403,-0.2511 -0.0403,-0.4175 0,-0.1567 0.0131,-0.291 0.0403,-0.4034 0.027,-0.1166 0.0582,-0.2107 0.0983,-0.2823 0.036,-0.0761 0.0854,-0.1304 0.1436,-0.1705 0.0581,-0.0402 0.1214,-0.0582 0.1885,-0.0582 h 3.5379 v -12.9403 l -3.2868,1.9641 c -0.1657,0.0852 -0.3002,0.1387 -0.4036,0.1567 -0.0983,0.018 -0.1796,0 -0.2419,-0.0581 -0.0632,-0.0584 -0.1034,-0.1526 -0.1255,-0.283 -0.0229,-0.1297 -0.0319,-0.2954 -0.0319,-0.4971 0,-0.1484 0.0049,-0.2781 0.018,-0.3812 0.0139,-0.1076 0.036,-0.193 0.0631,-0.265 0.027,-0.0671 0.0625,-0.1296 0.1124,-0.1837 0.0442,-0.0491 0.1075,-0.1034 0.1878,-0.1566 l 3.9193,-2.507 c 0.0353,-0.0263 0.0762,-0.0492 0.1294,-0.0672 0.0543,-0.0133 0.1214,-0.0313 0.1978,-0.0493 0.0803,-0.0181 0.1703,-0.0312 0.2779,-0.0361 0.1034,-0.004 0.2331,-0.004 0.3946,-0.004 0.2066,0 0.3854,0.009 0.5248,0.027 0.1387,0.018 0.246,0.0402 0.3273,0.0715 0.0802,0.0319 0.1294,0.0721 0.1566,0.1163 0.027,0.0502 0.0402,0.0993 0.0402,0.1526 v 14.9405 h 3.076 c 0.0723,0 0.1394,0.018 0.1976,0.0582 0.0625,0.0401 0.1117,0.0944 0.1525,0.1705 0.0404,0.0716 0.0716,0.1657 0.0937,0.2823 0.0229,0.1124 0.0319,0.2467 0.0319,0.4034 z m -14.1647,-0.556 c 0,0.6234 -0.1032,1.0358 -0.3092,1.2423 -0.2066,0.2061 -0.5781,0.3092 -1.1209,0.3092 -0.5292,0 -0.8924,-0.1031 -1.0941,-0.3051 -0.2017,-0.2016 -0.3003,-0.605 -0.3003,-1.2104 0,-0.6233 0.1027,-1.0357 0.3093,-1.2415 0.2058,-0.2068 0.5783,-0.31 1.1211,-0.31 0.5289,0 0.8922,0.099 1.0939,0.301 0.197,0.2017 0.3002,0.6092 0.3002,1.2145 z m -6.3983,-4.0259 c 0,0.9102 -0.1525,1.7173 -0.4625,2.4299 -0.3044,0.7087 -0.7396,1.3048 -1.3,1.7936 -0.5608,0.4846 -1.2284,0.852 -2.0043,1.108 -0.7707,0.2549 -1.632,0.3805 -2.5782,0.3805 -0.5289,0 -1.0267,-0.0353 -1.4975,-0.1117 -0.4757,-0.072 -0.8971,-0.1664 -1.2647,-0.2737 -0.3674,-0.1075 -0.6683,-0.2151 -0.9053,-0.3231 -0.238,-0.1027 -0.3856,-0.1837 -0.4535,-0.2462 -0.0672,-0.063 -0.1117,-0.1163 -0.1387,-0.1706 -0.027,-0.054 -0.0491,-0.1163 -0.0713,-0.1885 -0.0229,-0.0762 -0.036,-0.1698 -0.045,-0.2823 -0.009,-0.1121 -0.0139,-0.2508 -0.0139,-0.4082 0,-0.1477 0.0049,-0.2781 0.018,-0.3985 0.0139,-0.1166 0.0409,-0.211 0.0762,-0.2871 0.0319,-0.072 0.0764,-0.1304 0.1214,-0.1616 0.0491,-0.036 0.1032,-0.054 0.1657,-0.054 0.09,0 0.2245,0.054 0.4082,0.1664 0.1837,0.1073 0.4307,0.2239 0.7399,0.3543 0.3141,0.1253 0.6946,0.2459 1.1564,0.3583 0.4623,0.1122 1.0046,0.1706 1.6367,0.1706 0.5873,0 1.1253,-0.0723 1.614,-0.2107 0.4888,-0.1394 0.9153,-0.3591 1.2696,-0.6593 0.3542,-0.2961 0.6321,-0.6684 0.834,-1.1212 0.2017,-0.4527 0.3002,-0.9997 0.3002,-1.65 0,-0.5421 -0.0853,-1.0226 -0.2559,-1.4394 -0.1698,-0.4165 -0.4348,-0.7618 -0.789,-1.0398 -0.3543,-0.2738 -0.8027,-0.4798 -1.3498,-0.619 -0.5421,-0.1345 -1.1883,-0.2019 -1.9411,-0.2019 -0.5382,0 -0.9956,0.027 -1.3812,0.0805 -0.3854,0.0499 -0.7445,0.0761 -1.0807,0.0761 -0.2421,0 -0.4168,-0.0581 -0.5241,-0.1698 -0.1034,-0.1121 -0.1574,-0.3321 -0.1574,-0.6552 v -6.9272 c 0,-0.2871 0.0671,-0.5019 0.2017,-0.6414 0.1394,-0.1386 0.3321,-0.2107 0.587,-0.2107 h 7.5377 c 0.0672,0 0.1343,0.0181 0.2017,0.0582 0.0672,0.0409 0.1214,0.0993 0.1664,0.1796 0.0402,0.0763 0.0762,0.1746 0.0983,0.3002 0.0224,0.1214 0.0314,0.2647 0.0314,0.4304 0,0.3141 -0.0404,0.561 -0.1255,0.7357 -0.0854,0.1747 -0.2017,0.2599 -0.3543,0.2599 h -6.0844 v 4.7755 c 0.2961,-0.0451 0.5963,-0.0721 0.9055,-0.0811 0.3098,-0.008 0.6635,-0.0133 1.0718,-0.0133 0.9374,0 1.7534,0.1165 2.4571,0.3503 0.6995,0.228 1.2868,0.5601 1.7532,0.9815 0.4708,0.4257 0.825,0.9415 1.063,1.5469 0.2418,0.6009 0.3632,1.2734 0.3632,2.0091 z m -14.030099,4.0259 c 0,0.6234 -0.1034,1.0358 -0.3093,1.2423 -0.2065,0.2061 -0.5783,0.3092 -1.1211,0.3092 -0.5289,0 -0.8922,-0.1031 -1.0939,-0.3051 -0.2019,-0.2016 -0.3002,-0.605 -0.3002,-1.2104 0,-0.6233 0.1024,-1.0357 0.3092,-1.2415 0.2059,-0.2068 0.5781,-0.31 1.1209,-0.31 0.5292,0 0.8925,0.099 1.0941,0.301 0.1969,0.2017 0.3003,0.6092 0.3003,1.2145 z m -6.291,0.4757 c 0,0.1567 -0.009,0.2961 -0.0312,0.4165 -0.0228,0.1263 -0.054,0.229 -0.0944,0.31 -0.0401,0.0854 -0.09,0.1435 -0.1574,0.1837 -0.0671,0.0401 -0.1384,0.0584 -0.2148,0.0584 h -9.4072 c -0.1207,0 -0.2289,-0.0134 -0.3231,-0.0453 -0.0895,-0.0311 -0.1698,-0.0803 -0.2331,-0.1526 -0.0671,-0.0671 -0.1163,-0.1698 -0.1477,-0.2999 -0.0318,-0.1297 -0.045,-0.2913 -0.045,-0.484 0,-0.1754 0.009,-0.3279 0.0222,-0.4576 0.0138,-0.1304 0.0411,-0.247 0.0854,-0.3501 0.045,-0.0986 0.1031,-0.1968 0.1705,-0.3002 0.0672,-0.0986 0.1567,-0.2059 0.2647,-0.3183 l 3.3987,-3.4977 c 0.789,-0.807 1.417,-1.5286 1.8919,-2.17 0.4756,-0.6364 0.8389,-1.2194 1.099,-1.7483 0.2549,-0.5248 0.4255,-1.0005 0.5068,-1.4304 0.0802,-0.4306 0.1206,-0.834 0.1206,-1.2111 0,-0.3764 -0.0625,-0.735 -0.188,-1.0713 -0.1302,-0.3362 -0.3098,-0.6321 -0.5518,-0.888 -0.2377,-0.2557 -0.538,-0.4577 -0.9012,-0.6053 -0.3584,-0.1475 -0.7759,-0.2239 -1.2467,-0.2239 -0.5511,0 -1.0447,0.0764 -1.4844,0.2239 -0.4345,0.1476 -0.8201,0.3141 -1.1522,0.4888 -0.3273,0.1746 -0.6051,0.3406 -0.8248,0.4887 -0.22,0.1477 -0.3856,0.2241 -0.4929,0.2241 -0.0633,0 -0.1214,-0.018 -0.1706,-0.0535 -0.0494,-0.036 -0.0895,-0.09 -0.1214,-0.1706 -0.0311,-0.0761 -0.0584,-0.1836 -0.0757,-0.3141 -0.018,-0.1343 -0.027,-0.2909 -0.027,-0.4746 0,-0.1304 0.004,-0.2428 0.0132,-0.3411 0.009,-0.0944 0.0221,-0.1796 0.045,-0.2511 0.0224,-0.0672 0.0494,-0.1346 0.0854,-0.1976 0.0353,-0.0581 0.1075,-0.1345 0.2107,-0.2287 0.1075,-0.0895 0.2871,-0.2151 0.5472,-0.3717 0.2549,-0.1616 0.5822,-0.3141 0.9724,-0.4667 0.3857,-0.1567 0.816,-0.282 1.2868,-0.3903 0.4667,-0.1026 0.9596,-0.1566 1.4754,-0.1566 0.825,0 1.5467,0.1165 2.161,0.3493 0.6192,0.229 1.1301,0.5472 1.5384,0.9513 0.4077,0.4034 0.7126,0.8694 0.9145,1.4032 0.2017,0.534 0.3008,1.1031 0.3008,1.7084 0,0.5428 -0.0499,1.0849 -0.1436,1.6228 -0.099,0.5382 -0.3007,1.1211 -0.6099,1.7493 -0.3141,0.6275 -0.7621,1.3221 -1.3499,2.0888 -0.5832,0.7668 -1.3629,1.65 -2.3356,2.6505 l -2.6907,2.8113 h 7.3987 c 0.0672,0 0.1346,0.018 0.2017,0.0582 0.0674,0.0403 0.1256,0.0985 0.1699,0.1749 0.0498,0.081 0.0854,0.1795 0.1082,0.2958 0.0222,0.1166 0.0312,0.256 0.0312,0.4127 z m 102.0756986,-1.1793 c 0,0.1477 -0.005,0.2781 -0.0141,0.3854 -0.009,0.1121 -0.0224,0.2017 -0.0446,0.2778 -0.0228,0.0764 -0.0489,0.1397 -0.081,0.1978 -0.0314,0.0582 -0.0985,0.1436 -0.2109,0.2509 -0.1071,0.1121 -0.2956,0.2467 -0.556,0.4124 -0.2639,0.1618 -0.56,0.3095 -0.8873,0.4348 -0.3321,0.1306 -0.6863,0.2338 -1.0717,0.3099 -0.3856,0.0805 -0.7847,0.1209 -1.1973,0.1209 -0.852,0 -1.6049996,-0.1389 -2.2597996,-0.4216 -0.6593,-0.2781 -1.2109,-0.6859 -1.6498,-1.2238 -0.4445,-0.5379 -0.7805,-1.2021 -1.0136,-1.9819 -0.233,-0.7849 -0.3498,-1.6863 -0.3498,-2.7131 0,-1.1612 0.1435,-2.1607 0.4262,-2.9996 0.2871,-0.834 0.6766,-1.5201 1.1703,-2.0537 0.4976,-0.5331 1.0805,-0.9279 1.7481,-1.1885 0.6727,-0.2552 1.3991996,-0.3852 2.1791996,-0.3852 0.3774,0 0.7407,0.0358 1.0939,0.1071 0.3591,0.0674 0.6825,0.1618 0.9827,0.274 0.2961,0.1165 0.565,0.2469 0.7937,0.3994 0.233,0.1477 0.4033,0.2779 0.5063,0.3808 0.1077,0.1078 0.1795,0.1927 0.2194,0.2506 0.036,0.0633 0.0723,0.1353 0.0993,0.2202 0.0221,0.0808 0.0404,0.1749 0.0491,0.2827 0.009,0.1029 0.0134,0.2377 0.0134,0.3944 0,0.3411 -0.0404,0.5781 -0.1168,0.7177 -0.0803,0.1346 -0.1742,0.2017 -0.291,0.2017 -0.1301,0 -0.2827,-0.0725 -0.4532,-0.2197 -0.1701,-0.1438 -0.3857,-0.3051 -0.6499,-0.48 -0.2647,-0.1747 -0.5832,-0.336 -0.9552,-0.4798 -0.3722,-0.1482 -0.8121,-0.2199 -1.3179,-0.2199 -1.045,0 -1.8473996,0.3995 -2.4035996,1.2019 -0.5562,0.798 -0.8343,1.9598 -0.8343,3.4796 0,0.7574 0.0721,1.4258 0.2149,2.0002 0.1486,0.5693 0.3591,1.0489 0.6416,1.4343 0.278,0.3812 0.6233,0.6683 1.0315,0.8564 0.4077996,0.1885 0.8739996,0.2827 1.3989996,0.2827 0.5017,0 0.9416,-0.0813 1.3177,-0.2377 0.3767,-0.1567 0.6998,-0.3316 0.9779,-0.525 0.278,-0.1879 0.5111,-0.3582 0.6992,-0.511 0.1888,-0.1567 0.3323,-0.2328 0.4399,-0.2328 0.0581,0 0.1121,0.018 0.1567,0.0533 0.045,0.036 0.081,0.0941 0.1124,0.1756 0.0311,0.0849 0.0533,0.1879 0.0671,0.318 0.0129,0.1253 0.0183,0.2779 0.0183,0.4528 z m 11.1331,-9.3534 c 0,0.1749 -0.009,0.3231 -0.0267,0.4438 -0.0183,0.1255 -0.0453,0.2248 -0.0854,0.3002 -0.0402,0.081 -0.0852,0.1392 -0.1346,0.1796 -0.0542,0.0403 -0.1214,0.0581 -0.1973,0.0581 h -3.5381 v 10.1923 c 0,0.0713 -0.0175,0.1294 -0.0535,0.1796 -0.0358,0.0445 -0.09,0.0895 -0.1703,0.1253 -0.0808,0.0314 -0.1886,0.0584 -0.3321,0.0764 -0.1387,0.017 -0.3182,0.0262 -0.5379,0.0262 -0.21490005,0 -0.38980005,-0.009 -0.52920005,-0.0262 -0.1433,-0.018 -0.2557,-0.045 -0.3365,-0.0764 -0.0849,-0.0358 -0.1431,-0.0808 -0.1744,-0.1253 -0.0312,-0.0502 -0.0451,-0.1083 -0.0451,-0.1796 v -10.1923 H -3.5180014 c -0.0672,0 -0.1297,-0.0178 -0.1876,-0.0581 -0.0584,-0.0404 -0.1034,-0.0986 -0.1394,-0.1796 -0.0312,-0.0754 -0.0625,-0.1788 -0.0854,-0.3041 -0.0222,-0.1258 -0.0312,-0.2781 -0.0312,-0.4535 0,-0.1567 0.009,-0.2954 0.0312,-0.4166 0.0229,-0.1255 0.0542,-0.2289 0.0944,-0.3094 0.0399,-0.0854 0.0851,-0.1436 0.1392,-0.1835 0.0491,-0.0411 0.1116,-0.0594 0.1788,-0.0594 h 9.2551 c 0.0672,0 0.1299,0.0183 0.1881,0.0594 0.0586,0.0399 0.1036,0.0981 0.1389,0.1835 0.0319,0.0805 0.0628,0.188 0.0854,0.3133 0.0226,0.1261 0.0316,0.2689 0.0316,0.4263 z m 11.0619004,11.1872 c 0,0.1031 -0.0365,0.1834 -0.1037,0.2377 -0.0712,0.054 -0.1654,0.0895 -0.2912,0.1165 -0.1214,0.027 -0.3009,0.0401 -0.5379,0.0401 -0.2246,0 -0.4083,-0.0131 -0.5426,-0.0401 -0.1345,-0.027 -0.2331,-0.0625 -0.2963,-0.1165 -0.0625,-0.0543 -0.0942,-0.1302 -0.0942,-0.2377 v -1.1835 c -0.5153,0.5509 -1.0892,0.9815 -1.7264,1.2866 -0.6365,0.3002 -1.309,0.453 -2.0175,0.453 -0.6231,0 -1.1882,-0.0807 -1.6902004,-0.2423 -0.5026,-0.1613 -0.9323,-0.3992 -1.2865,-0.7034 -0.3545,-0.3051 -0.6326,-0.6863 -0.8299,-1.1301 -0.1969,-0.4486 -0.2961,-0.9557 -0.2961,-1.5248 0,-0.6681 0.1343,-1.2464 0.4082,-1.7352 0.2691,-0.4936 0.6589,-0.9014 1.1701,-1.2245 0.507,-0.3224 1.1306004,-0.5693 1.8648004,-0.7306 0.736,-0.1613 1.5654,-0.2419 2.4844,-0.2419 h 1.632 v -0.9233 c 0,-0.4535 -0.0491,-0.8569 -0.1435,-1.2114 -0.0986,-0.3494 -0.2509,-0.6411 -0.4659,-0.8742 -0.2156,-0.2328 -0.4937,-0.408 -0.8338,-0.5248 -0.3414,-0.1206 -0.763,-0.1788 -1.2598,-0.1788 -0.5341,0 -1.0139,0.0625 -1.4355,0.1927 -0.4255,0.1297 -0.7978,0.2689 -1.1160004,0.4255 -0.3187,0.1575 -0.5878,0.2961 -0.8027,0.4263 -0.2107,0.1297 -0.3725,0.1932 -0.4756,0.1932 -0.0713,0 -0.1346,-0.0183 -0.1835,-0.0543 -0.0535,-0.0314 -0.0985,-0.0854 -0.1389,-0.1567 -0.0409,-0.0671 -0.0671,-0.1574 -0.0851,-0.2649 -0.0183,-0.1117 -0.0273,-0.2285 -0.0273,-0.363 0,-0.2153 0.0132,-0.3898 0.0453,-0.5156 0.0311,-0.1253 0.1075,-0.2467 0.2236,-0.3591 0.1167,-0.1116 0.3231,-0.2467 0.6104,-0.4034 0.2864,-0.1523 0.6233,-0.2958 0.9995004,-0.4255 0.3727,-0.1255 0.7851,-0.2338 1.233,-0.3185 0.444,-0.0851 0.8968,-0.126 1.3498,-0.126 0.847,0 1.5696,0.0944 2.1654,0.2871 0.5966,0.1927 1.0764,0.4798 1.4438,0.8518 0.3681,0.3727 0.632,0.8343 0.7985,1.3861 0.1659,0.5513 0.2513,1.1968 0.2513,1.9322 z m -2.153,-5.4161 h -1.8517 c -0.5915,0 -1.1073,0.0491 -1.5467,0.152 -0.4345,0.0988 -0.798,0.2513 -1.09,0.4484 -0.2863,0.1973 -0.4968,0.4304 -0.6364004,0.7085 -0.1346,0.2779 -0.2017,0.5963 -0.2017,0.9554 0,0.6144 0.1927,1.1029 0.5829004,1.4657 0.3895,0.363 0.9328,0.5477 1.6365,0.5477 0.5649,0 1.0948,-0.1436 1.5785,-0.4356 0.4844,-0.287 0.9953,-0.7303 1.5286,-1.3269 z m 14.8511,5.4029 c 0,0.0713 -0.0134,0.1294 -0.0446,0.1837 -0.0316,0.054 -0.0851,0.0944 -0.1661,0.1253 -0.0808,0.0314 -0.1879,0.0543 -0.3314,0.0723 -0.1397,0.017 -0.3231,0.0262 -0.5518,0.0262 -0.2151,0 -0.3903,-0.009 -0.5292,-0.0262 -0.1435,-0.018 -0.256,-0.0409 -0.3362,-0.0723 -0.0854,-0.0309 -0.1436,-0.0713 -0.175,-0.1253 -0.0316,-0.0491 -0.045,-0.1124 -0.045,-0.1837 v -4.9728 h -1.2462 c -0.543,0 -0.9639,0.045 -1.269,0.1299 -0.301,0.0896 -0.5737,0.2331 -0.8114,0.4397 -0.2424,0.206 -0.4577,0.4708 -0.6506,0.789 -0.1927,0.3185 -0.3764,0.7087 -0.5511,1.1749 l -0.9596,2.3089 c -0.045,0.1122 -0.09,0.2063 -0.1435,0.274 -0.0543,0.0712 -0.1302,0.1255 -0.2285,0.1654 -0.0987,0.0401 -0.2291,0.0672 -0.3815,0.0815 -0.1525,0.0129 -0.3406,0.017 -0.569,0.017 -0.1618,0 -0.3095,-0.004 -0.4348,-0.0131 -0.1265,-0.009 -0.2338,-0.0221 -0.3231,-0.0453 -0.0854,-0.0221 -0.1526,-0.0579 -0.1929,-0.1075 -0.0451,-0.045 -0.0672,-0.107 -0.0672,-0.1744 0,-0.0633 0.0221,-0.1616 0.0713,-0.2961 0.0491,-0.1346 0.1484,-0.3723 0.2961,-0.7129 l 0.9464,-2.2196 c 0.246,-0.5606 0.547,-1.045 0.9053,-1.4484 0.3591,-0.4078 0.7715,-0.7082 1.2377,-0.9014 -0.852,-0.1567 -1.5245,-0.4976 -2.0315,-1.0177 -0.502,-0.5248 -0.7528,-1.2156 -0.7528,-2.0759 0,-0.5698 0.1165,-1.0846 0.3542,-1.5471 0.238,-0.4616 0.5832,-0.8511 1.0448,-1.1703 0.4571,-0.3224 1.0221,-0.5693 1.6945,-0.7399 0.6686,-0.1695 1.435,-0.2549 2.3053,-0.2549 0.2061,0 0.4528,0.004 0.7255,0.0131 0.2781,0.009 0.5611,0.0221 0.8521,0.0404 0.2963,0.0175 0.579,0.0358 0.8571,0.0581 0.2732,0.0229 0.5109,0.0412 0.7126,0.0579 0.2645,0.0275 0.4618,0.1217 0.5922,0.292 0.1295,0.1657 0.1969,0.3725 0.1969,0.6143 z m -2.1793,-10.5689 c -0.3138,-0.0446 -0.6362,-0.0759 -0.9681,-0.0893 -0.3275,-0.0139 -0.6326,-0.0178 -0.9145,-0.0178 -0.5922,0 -1.0849,0.0492 -1.4803,0.1523 -0.3985,0.0983 -0.7128,0.2465 -0.9547,0.4348 -0.2374,0.1886 -0.4085,0.4124 -0.5068,0.6683 -0.1034,0.2511 -0.1523,0.5331 -0.1523,0.8433 0,0.3132 0.0579,0.6005 0.1745,0.8511 0.1211,0.2516 0.2961,0.4625 0.5381,0.6326 0.2377,0.1705 0.5472,0.3048 0.9192,0.3944 0.3774,0.0939 0.8971,0.1389 1.5696,0.1389 h 1.7753 z m 23.7602,3.4478 c 0,0.3372 -0.0404,0.579 -0.1258,0.736 -0.0803,0.1525 -0.2056,0.2289 -0.3723,0.2289 h -12.6309 c -0.1659,0 -0.2866,-0.0764 -0.3676,-0.2289 -0.0764,-0.157 -0.1163,-0.3988 -0.1163,-0.736 0,-0.3224 0.0399,-0.5601 0.1163,-0.7165 0.081,-0.1526 0.2017,-0.2292 0.3676,-0.2292 h 12.6309 c 0.0764,0 0.1485,0.0182 0.2156,0.0586 0.0672,0.0401 0.1168,0.0985 0.1567,0.1706 0.0404,0.0764 0.0723,0.1746 0.0944,0.2909 0.0224,0.1168 0.0314,0.2599 0.0314,0.4256 z m 16.5188,5.3005 c 0,0.1477 -0.005,0.2781 -0.0138,0.3854 -0.009,0.1121 -0.0222,0.2017 -0.0443,0.2778 -0.0229,0.0764 -0.0492,0.1397 -0.0813,0.1978 -0.0311,0.0582 -0.0983,0.1436 -0.2107,0.2509 -0.1073,0.1121 -0.2958,0.2467 -0.5562,0.4124 -0.2637,0.1618 -0.56,0.3095 -0.8873,0.4348 -0.3318,0.1306 -0.6858,0.2338 -1.0717,0.3099 -0.3856,0.0805 -0.7847,0.1209 -1.1971,0.1209 -0.8522,0 -1.6052,-0.1389 -2.2597,-0.4216 -0.6594,-0.2781 -1.2112,-0.6859 -1.6498,-1.2238 -0.4445,-0.5379 -0.7808,-1.2021 -1.0139,-1.9819 -0.2328,-0.7849 -0.3498,-1.6863 -0.3498,-2.7131 0,-1.1612 0.1435,-2.1607 0.4262,-2.9996 0.2869,-0.834 0.6764,-1.5201 1.1705,-2.0537 0.4976,-0.5331 1.0805,-0.9279 1.7482,-1.1885 0.6724,-0.2552 1.3989,-0.3852 2.1789,-0.3852 0.3774,0 0.7404,0.0358 1.0942,0.1071 0.3591,0.0674 0.6822,0.1618 0.9824,0.274 0.2961,0.1165 0.5652,0.2469 0.7937,0.3994 0.233,0.1477 0.4036,0.2779 0.5065,0.3808 0.1078,0.1078 0.1793,0.1927 0.2195,0.2506 0.0357,0.0633 0.0722,0.1353 0.099,0.2202 0.0224,0.0808 0.0406,0.1749 0.0491,0.2827 0.009,0.1029 0.0137,0.2377 0.0137,0.3944 0,0.3411 -0.0404,0.5781 -0.1168,0.7177 -0.0803,0.1346 -0.1745,0.2017 -0.2913,0.2017 -0.1304,0 -0.2827,-0.0725 -0.4532,-0.2197 -0.1701,-0.1438 -0.3857,-0.3051 -0.6496,-0.48 -0.2647,-0.1747 -0.5832,-0.336 -0.9552,-0.4798 -0.3725,-0.1482 -0.8122,-0.2199 -1.3182,-0.2199 -1.045,0 -1.8477,0.3995 -2.4036,1.2019 -0.5562,0.798 -0.834,1.9598 -0.834,3.4796 0,0.7574 0.0718,1.4258 0.2148,2.0002 0.1487,0.5693 0.3591,1.0489 0.6413,1.4343 0.2781,0.3812 0.6234,0.6683 1.0316,0.8564 0.4078,0.1885 0.8742,0.2827 1.399,0.2827 0.5022,0 0.9418,-0.0813 1.318,-0.2377 0.3764,-0.1567 0.6997,-0.3316 0.9775,-0.525 0.2781,-0.1879 0.5112,-0.3582 0.6995,-0.511 0.1886,-0.1567 0.3321,-0.2328 0.4399,-0.2328 0.0579,0 0.1122,0.018 0.1567,0.0533 0.045,0.036 0.0808,0.0941 0.1122,0.1756 0.0314,0.0849 0.0535,0.1879 0.0671,0.318 0.0134,0.1253 0.018,0.2779 0.018,0.4528 z m 13.8508,-4.2327 c 0,0.9637 -0.1258,1.852 -0.3817,2.6629 -0.2506,0.8078 -0.6319,1.5073 -1.1338,2.0946 -0.5029,0.5871 -1.1345,1.0445 -1.8877,1.3717 -0.7582,0.3275 -1.6372,0.4934 -2.6321,0.4934 -0.9734,0 -1.8206,-0.1438 -2.5427,-0.4347 -0.7219,-0.2871 -1.3223,-0.7088 -1.8021,-1.2598 -0.4798,-0.5519 -0.8389,-1.2246 -1.0766,-2.0092 -0.237,-0.7893 -0.3543,-1.6812 -0.3543,-2.6809 0,-0.9645 0.1261,-1.8525 0.3721,-2.6595 0.251,-0.8115 0.6284,-1.5107 1.1303,-2.098 0.502,-0.5878 1.1302,-1.0406 1.8827,-1.3676 0.754,-0.3231 1.6328,-0.4849 2.6366,-0.4849 0.9735,0 1.8206,0.1435 2.5425,0.4353 0.7221,0.2873 1.3226,0.7089 1.8026,1.2598 0.4796,0.5518 0.843,1.2194 1.0846,2.0094 0.2382,0.789 0.3596,1.6761 0.3596,2.6675 z m -2.2602,0.1387 c 0,-0.6411 -0.0584,-1.2462 -0.1798,-1.8155 -0.1163,-0.5691 -0.3131,-1.0671 -0.5869,-1.4975 -0.2693,-0.4307 -0.6415,-0.7715 -1.1075,-1.018 -0.4615,-0.2516 -1.0444,-0.3771 -1.7398,-0.3771 -0.6408,0 -1.1927,0.1124 -1.6542,0.3411 -0.462,0.229 -0.8394,0.5513 -1.1391,0.9686 -0.3003,0.4165 -0.5202,0.9102 -0.6637,1.4792 -0.1475,0.5701 -0.22,1.1934 -0.22,1.8657 0,0.6501 0.0587,1.2598 0.1796,1.8289 0.1168,0.57 0.3136,1.0678 0.5917,1.4936 0.2778,0.4216 0.6503,0.7625 1.1119,1.0087 0.4668,0.2511 1.0498,0.3771 1.7442,0.3771 0.6326,0 1.1795,-0.1124 1.6461,-0.3413 0.4657,-0.2285 0.847,-0.547 1.1479,-0.9594 0.3003,-0.4121 0.5202,-0.9063 0.6586,-1.4753 0.1397,-0.5694 0.211,-1.1973 0.211,-1.8788 z m 15.8276,5.9146 c 0,0.0713 -0.0178,0.1294 -0.0535,0.1796 -0.0358,0.0445 -0.09,0.0895 -0.1703,0.1253 -0.0803,0.0314 -0.1886,0.0584 -0.3319,0.0764 -0.1387,0.017 -0.3136,0.0262 -0.5241,0.0262 -0.225,0 -0.4038,-0.009 -0.543,-0.0262 -0.1436,-0.018 -0.2511,-0.045 -0.3321,-0.0764 -0.0805,-0.0358 -0.1346,-0.0808 -0.1698,-0.1253 -0.036,-0.0502 -0.0543,-0.1083 -0.0543,-0.1796 v -5.1881 h -5.999 v 5.1881 c 0,0.0713 -0.018,0.1294 -0.054,0.1796 -0.0361,0.0445 -0.0896,0.0895 -0.1704,0.1253 -0.0805,0.0314 -0.188,0.0584 -0.3316,0.0764 -0.1391,0.017 -0.3187,0.0262 -0.5379,0.0262 -0.2156,0 -0.3903,-0.009 -0.5294,-0.0262 -0.1438,-0.018 -0.2552,-0.045 -0.3365,-0.0764 -0.0852,-0.0358 -0.1436,-0.0808 -0.1747,-0.1253 -0.0314,-0.0502 -0.045,-0.1083 -0.045,-0.1796 v -11.8282 c 0,-0.0723 0.0136,-0.1305 0.045,-0.1796 0.0311,-0.045 0.0895,-0.0893 0.1747,-0.1304 0.0813,-0.0404 0.1927,-0.0672 0.3365,-0.0803 0.1391,-0.0131 0.3138,-0.0182 0.5294,-0.0182 0.2192,0 0.3988,0.005 0.5379,0.0182 0.1436,0.0131 0.2511,0.0399 0.3316,0.0803 0.0808,0.0411 0.1343,0.0854 0.1704,0.1304 0.036,0.0491 0.054,0.1073 0.054,0.1796 v 4.8105 h 5.999 v -4.8105 c 0,-0.0723 0.0183,-0.1305 0.0543,-0.1796 0.0352,-0.045 0.0893,-0.0893 0.1698,-0.1304 0.081,-0.0404 0.1885,-0.0672 0.3321,-0.0803 0.1392,-0.0131 0.318,-0.0182 0.543,-0.0182 0.2105,0 0.3854,0.005 0.5241,0.0182 0.1433,0.0131 0.2516,0.0399 0.3319,0.0803 0.0803,0.0411 0.1345,0.0854 0.1703,0.1304 0.0357,0.0491 0.0535,0.1073 0.0535,0.1796 z m 13.739101,0 c 0,0.0713 -0.018,0.1294 -0.0542,0.1796 -0.0353,0.0445 -0.0895,0.0895 -0.1696,0.1253 -0.0764,0.0314 -0.1888,0.0584 -0.328,0.0764 -0.1389,0.017 -0.3133,0.0262 -0.524,0.0262 -0.22,0 -0.3995,-0.009 -0.538,-0.0262 -0.1396,-0.018 -0.2513,-0.045 -0.3362,-0.0764 -0.0815,-0.0358 -0.1394,-0.0808 -0.1757,-0.1253 -0.035,-0.0502 -0.0533,-0.1083 -0.0533,-0.1796 v -10.3266 h -3.2555 c -0.139,1.3902 -0.3093,2.6274 -0.5064,3.7125 -0.1975,1.0851 -0.4172,2.0311 -0.6642,2.8383 -0.2459,0.8032 -0.524,1.4847 -0.8289,2.0355 -0.3053,0.5518 -0.6416,0.9956 -1.0046,1.3318 -0.3676,0.3363 -0.762201,0.5791 -1.188501,0.7265 -0.4214,0.1477 -0.8781,0.2238 -1.3578,0.2238 -0.0811,0 -0.1485,-0.0129 -0.2068,-0.0399 -0.0538,-0.0272 -0.1035,-0.0715 -0.1387,-0.1435 -0.0319,-0.0672 -0.0582,-0.1657 -0.0762,-0.2961 -0.0182,-0.1255 -0.027,-0.2869 -0.027,-0.4885 0,-0.211 0.004,-0.3811 0.0178,-0.5112 0.0131,-0.1297 0.0353,-0.2375 0.0671,-0.3139 0.0314,-0.0808 0.0718,-0.1297 0.1168,-0.1567 0.0492,-0.0272 0.1073,-0.0403 0.1796,-0.0403 0.2912,0 0.5639,-0.0674 0.8291,-0.2017 0.2599,-0.1392 0.5066,-0.3635 0.7355,-0.6725 0.2287,-0.3102 0.443801,-0.7175 0.645501,-1.2194 0.1973,-0.5071 0.3815,-1.126 0.5518,-1.861 0.1659,-0.7355 0.3224,-1.5966 0.4708,-2.5832 0.1477,-0.9817 0.291,-2.1162 0.4216,-3.3942 0.0175,-0.2643 0.0803,-0.4569 0.1925,-0.5876 0.1078,-0.1253 0.2644,-0.1886 0.4661,-0.1886 h 6.0711 c 0.2068,0 0.3725,0.0633 0.4888,0.1937 0.1211,0.1256 0.1795,0.3182 0.1795,0.5825 z m 14.5362,0.0132 c 0,0.0627 -0.018,0.1214 -0.0533,0.1705 -0.036,0.054 -0.09,0.0944 -0.1705,0.1253 -0.0764,0.0314 -0.1886,0.0543 -0.3275,0.0723 -0.1392,0.017 -0.3138,0.0262 -0.5248,0.0262 -0.2102,0 -0.3854,-0.009 -0.5248,-0.0262 -0.1384,-0.018 -0.2547,-0.0409 -0.3401,-0.0723 -0.0903,-0.0309 -0.1484,-0.0713 -0.1839,-0.1253 -0.0361,-0.0543 -0.0538,-0.1078 -0.0538,-0.1705 v -6.8064 c 0,-0.3447 0.009,-0.69 0.0267,-1.0493 0.0183,-0.3545 0.0404,-0.6997 0.0672,-1.045 -0.2015,0.3545 -0.4263,0.6954 -0.6632,1.036 -0.2429,0.3362 -0.4849,0.6725 -0.7265,1.0046 l -5.0086,6.8601 c -0.063,0.072 -0.117,0.1304 -0.1664,0.1834 -0.0492,0.0543 -0.1117,0.0946 -0.1835,0.1265 -0.0766,0.0309 -0.1705,0.0531 -0.2873,0.0674 -0.1117,0.0129 -0.2552,0.017 -0.4212,0.017 -0.1929,0 -0.3544,-0.009 -0.4749,-0.0262 -0.1255,-0.018 -0.2248,-0.0409 -0.2963,-0.0723 -0.0759,-0.0309 -0.1302,-0.0713 -0.1616,-0.1253 -0.0311,-0.0543 -0.045,-0.1078 -0.045,-0.1705 v -11.8551 c 0,-0.0625 0.0139,-0.1168 0.045,-0.171 0.0314,-0.0533 0.0896,-0.0983 0.175,-0.1292 0.081,-0.0365 0.1927,-0.0633 0.3362,-0.0764 0.1392,-0.0131 0.3095,-0.0182 0.5156,-0.0182 0.4218,0 0.7128,0.0313 0.8702,0.0985 0.1567,0.0671 0.2377,0.1664 0.2377,0.2963 v 6.8465 c 0,0.3411 -0.009,0.6817 -0.0267,1.0179 -0.0183,0.3412 -0.0404,0.6725 -0.0672,1.0088 0.2015,-0.3363 0.4073,-0.6586 0.6141,-0.9817 0.2017,-0.318 0.4256,-0.6326 0.6594,-0.9375 l 5.0752,-6.954 c 0.0496,-0.0717 0.1027,-0.1299 0.1618,-0.1793 0.0584,-0.0499 0.1255,-0.09 0.2104,-0.117 0.0808,-0.0314 0.1794,-0.0492 0.2957,-0.0625 0.1124,-0.0139 0.2605,-0.0229 0.4445,-0.0229 0.1834,0 0.3401,0.009 0.4654,0.0229 0.1306,0.0133 0.2289,0.0365 0.3053,0.0715 0.0721,0.036 0.1256,0.0764 0.1567,0.1302 0.0321,0.0535 0.045,0.1124 0.045,0.1839 z m 13.7341,-3.4167 c 0,0.6236 -0.1163,1.1795 -0.354,1.6632 -0.2382,0.489 -0.5874,0.8931 -1.0543,1.2245 -0.4615,0.327 -1.0396,0.5781 -1.7301,0.7487 -0.6956,0.1705 -1.5023,0.2557 -2.4215,0.2557 -0.2871,0 -0.5691,0 -0.8382,-0.005 -0.2742,-0.004 -0.5382,-0.0131 -0.7893,-0.0262 -0.2557,-0.0142 -0.507,-0.0322 -0.7576,-0.0502 -0.2467,-0.0131 -0.498,-0.0352 -0.7404,-0.0622 -0.3537,-0.0451 -0.6094,-0.1616 -0.7754,-0.3504 -0.1659,-0.1878 -0.2513,-0.4657 -0.2513,-0.8338 v -10.1784 c 0,-0.3584 0.0808,-0.6365 0.2426,-0.8292 0.1608,-0.1927 0.4124,-0.3048 0.7438,-0.3409 0.2289,-0.0272 0.4705,-0.0493 0.7308,-0.0671 0.256,-0.0136 0.5207,-0.0314 0.7939,-0.0448 0.2735,-0.0138 0.5516,-0.0226 0.8428,-0.0316 0.2871,-0.009 0.5783,-0.0131 0.8793,-0.0131 0.852,0 1.587,0.0712 2.2057,0.2107 0.6236,0.1386 1.1384,0.3452 1.5511,0.614 0.4126,0.2733 0.7175,0.6056 0.915,1 0.1971,0.3942 0.2964,0.8428 0.2964,1.3498 0,0.6635 -0.1796,1.2326 -0.5338,1.7085 -0.3545,0.4705 -0.8796,0.8068 -1.57,1.0085 0.8664,0.1837 1.5203,0.5379 1.9602,1.0627 0.4348,0.5292 0.6543,1.1885 0.6543,1.9863 z m -2.6092,-5.484 c 0,-0.2871 -0.0542,-0.5421 -0.1569,-0.7708 -0.1083,-0.2238 -0.2781,-0.4172 -0.5207,-0.5739 -0.2421,-0.1567 -0.5562,-0.2732 -0.9367,-0.3545 -0.3812,-0.0764 -0.843,-0.1165 -1.3897,-0.1165 -0.4126,0 -0.79,0.009 -1.1301,0.0311 -0.3455,0.0229 -0.6326,0.0494 -0.8703,0.0725 v 3.6631 h 2.2111 c 0.9053,0 1.5958,-0.1664 2.0756,-0.5024 0.4795,-0.3362 0.7177,-0.8204 0.7177,-1.4486 z m 0.3762,5.5154 c 0,-0.3499 -0.0623,-0.6586 -0.1837,-0.9236 -0.1214,-0.2691 -0.3185,-0.489 -0.583,-0.6635 -0.2691,-0.1747 -0.6094,-0.3051 -1.0267,-0.3946 -0.4126,-0.0849 -0.9056,-0.1302 -1.4754,-0.1302 h -2.1118 v 4.1882 c 0.1657,0.027 0.3408,0.0445 0.5197,0.0581 0.1798,0.0132 0.3637,0.0271 0.5523,0.0404 0.1885,0.0132 0.3722,0.0224 0.56,0.0309 0.1886,0.009 0.363,0.0139 0.5205,0.0139 0.5693,0 1.0534,-0.0491 1.4576,-0.1523 0.4034,-0.0985 0.7347,-0.2467 1.0038,-0.4394 0.2645,-0.1929 0.4616,-0.426 0.583,-0.6997 0.1214,-0.2781 0.1837,-0.5874 0.1837,-0.9282 z m 14.313,3.3853 c 0,0.1031 -0.036,0.1834 -0.1031,0.2377 -0.0716,0.054 -0.1657,0.0895 -0.2915,0.1165 -0.1212,0.027 -0.3005,0.0401 -0.5379,0.0401 -0.2246,0 -0.4083,-0.0131 -0.5428,-0.0401 -0.1343,-0.027 -0.2329,-0.0625 -0.2961,-0.1165 -0.0621,-0.0543 -0.0942,-0.1302 -0.0942,-0.2377 v -1.1835 c -0.5151,0.5509 -1.0892,0.9815 -1.7264,1.2866 -0.6365,0.3002 -1.309,0.453 -2.0172,0.453 -0.6234,0 -1.1886,-0.0807 -1.6905,-0.2423 -0.5026,-0.1613 -0.9323,-0.3992 -1.2866,-0.7034 -0.3544,-0.3051 -0.6325,-0.6863 -0.8299,-1.1301 -0.197,-0.4486 -0.2963,-0.9557 -0.2963,-1.5248 0,-0.6681 0.1346,-1.2464 0.4085,-1.7352 0.2691,-0.4936 0.6586,-0.9014 1.1705,-1.2245 0.5066,-0.3224 1.1302,-0.5693 1.8649,-0.7306 0.7353,-0.1613 1.5647,-0.2419 2.4839,-0.2419 h 1.632 v -0.9233 c 0,-0.4535 -0.0491,-0.8569 -0.1435,-1.2114 -0.0986,-0.3494 -0.2509,-0.6411 -0.4657,-0.8742 -0.2158,-0.2328 -0.4939,-0.408 -0.8343,-0.5248 -0.3411,-0.1206 -0.7625,-0.1788 -1.2595,-0.1788 -0.5341,0 -1.0139,0.0625 -1.435,0.1927 -0.426,0.1297 -0.7983,0.2689 -1.1163,0.4255 -0.3189,0.1575 -0.588,0.2961 -0.8029,0.4263 -0.2107,0.1297 -0.3725,0.1932 -0.4759,0.1932 -0.071,0 -0.1343,-0.0183 -0.1834,-0.0543 -0.0535,-0.0314 -0.0985,-0.0854 -0.1389,-0.1567 -0.0407,-0.0671 -0.0672,-0.1574 -0.0849,-0.2649 -0.0183,-0.1117 -0.0273,-0.2285 -0.0273,-0.363 0,-0.2153 0.0134,-0.3898 0.045,-0.5156 0.0312,-0.1253 0.1076,-0.2467 0.2238,-0.3591 0.1168,-0.1116 0.3231,-0.2467 0.6105,-0.4034 0.2861,-0.1523 0.6231,-0.2958 0.9995,-0.4255 0.3725,-0.1255 0.7848,-0.2338 1.2328,-0.3185 0.4445,-0.0851 0.897,-0.126 1.3498,-0.126 0.8474,0 1.5695,0.0944 2.1661,0.2871 0.5958,0.1927 1.0759,0.4798 1.4432,0.8518 0.3682,0.3727 0.6326,0.8343 0.7986,1.3861 0.1656,0.5513 0.251,1.1968 0.251,1.9322 z m -2.1527,-5.4161 h -1.852 c -0.5912,0 -1.107,0.0491 -1.5464,0.152 -0.4348,0.0988 -0.7983,0.2513 -1.0902,0.4484 -0.2859,0.1973 -0.4968,0.4304 -0.6362,0.7085 -0.1346,0.2779 -0.202,0.5963 -0.202,0.9554 0,0.6144 0.1932,1.1029 0.5832,1.4657 0.3895,0.363 0.9326,0.5477 1.6364,0.5477 0.565,0 1.0946,-0.1436 1.5783,-0.4356 0.4849,-0.287 0.9956,-0.7303 1.5289,-1.3269 z m 14.8513,5.4029 c 0,0.0713 -0.0136,0.1294 -0.0445,0.1837 -0.0319,0.054 -0.0854,0.0944 -0.1665,0.1253 -0.0802,0.0314 -0.1878,0.0543 -0.3313,0.0723 -0.1392,0.017 -0.3231,0.0262 -0.5518,0.0262 -0.2154,0 -0.3905,-0.009 -0.5292,-0.0262 -0.1436,-0.018 -0.256,-0.0409 -0.3363,-0.0723 -0.0851,-0.0309 -0.1435,-0.0713 -0.1744,-0.1253 -0.0319,-0.0491 -0.0453,-0.1124 -0.0453,-0.1837 v -4.9728 h -1.2464 c -0.5433,0 -0.9637,0.045 -1.269,0.1299 -0.301,0.0896 -0.574,0.2331 -0.8117,0.4397 -0.2418,0.206 -0.4574,0.4708 -0.6501,0.789 -0.1932,0.3185 -0.3766,0.7087 -0.5513,1.1749 l -0.9596,2.3089 c -0.0452,0.1122 -0.0902,0.2063 -0.1438,0.274 -0.0537,0.0712 -0.1299,0.1255 -0.2284,0.1654 -0.0986,0.0401 -0.229,0.0672 -0.3813,0.0815 -0.1525,0.0129 -0.3406,0.017 -0.569,0.017 -0.1618,0 -0.3095,-0.004 -0.4348,-0.0131 -0.1261,-0.009 -0.2338,-0.0221 -0.3234,-0.0453 -0.0854,-0.0221 -0.1525,-0.0579 -0.1924,-0.1075 -0.0453,-0.045 -0.0674,-0.107 -0.0674,-0.1744 0,-0.0633 0.0221,-0.1616 0.0713,-0.2961 0.0494,-0.1346 0.1484,-0.3723 0.2963,-0.7129 l 0.946,-2.2196 c 0.2462,-0.5606 0.5471,-1.045 0.9053,-1.4484 0.3593,-0.4078 0.7717,-0.7082 1.2376,-0.9014 -0.8517,-0.1567 -1.5242,-0.4976 -2.0313,-1.0177 -0.5019,-0.5248 -0.7527,-1.2156 -0.7527,-2.0759 0,-0.5698 0.1165,-1.0846 0.3545,-1.5471 0.2377,-0.4616 0.5829,-0.8511 1.0447,-1.1703 0.4567,-0.3224 1.0218,-0.5693 1.6943,-0.7399 0.6684,-0.1695 1.4348,-0.2549 2.305,-0.2549 0.2061,0 0.4528,0.004 0.7261,0.0131 0.278,0.009 0.5608,0.0221 0.8522,0.0404 0.2956,0.0175 0.5786,0.0358 0.8564,0.0581 0.2735,0.0229 0.5112,0.0412 0.7132,0.0579 0.2639,0.0275 0.4615,0.1217 0.5919,0.292 0.1297,0.1657 0.1971,0.3725 0.1971,0.6143 z m -2.1793,-10.5689 c -0.3143,-0.0446 -0.6362,-0.0759 -0.9683,-0.0893 -0.3272,-0.0139 -0.6326,-0.0178 -0.9146,-0.0178 -0.5921,0 -1.0848,0.0492 -1.4802,0.1523 -0.3985,0.0983 -0.7126,0.2465 -0.9547,0.4348 -0.2377,0.1886 -0.4085,0.4124 -0.5068,0.6683 -0.1034,0.2511 -0.1525,0.5331 -0.1525,0.8433 0,0.3132 0.0584,0.6005 0.1747,0.8511 0.1211,0.2516 0.296,0.4625 0.5379,0.6326 0.2377,0.1705 0.5472,0.3048 0.9194,0.3944 0.3774,0.0939 0.8971,0.1389 1.5698,0.1389 h 1.7753 z m 9.4204,9.0262 c 0,0.269 -0.0132,0.5201 -0.0402,0.7447 -0.027,0.228 -0.0671,0.4435 -0.1255,0.6455 -0.054,0.2017 -0.1343,0.3992 -0.2377,0.596 -0.0986,0.1976 -0.2239,0.4037 -0.3723,0.6234 l -1.7887,2.6726 c -0.045,0.0713 -0.0944,0.1256 -0.1526,0.1706 -0.0581,0.0443 -0.1255,0.0805 -0.2017,0.1117 -0.0812,0.0311 -0.1746,0.054 -0.287,0.072 -0.1076,0.018 -0.2419,0.027 -0.3993,0.027 -0.1477,0 -0.2732,-0.005 -0.3764,-0.018 -0.0985,-0.0139 -0.1705,-0.0409 -0.2151,-0.072 -0.045,-0.036 -0.0671,-0.0806 -0.072,-0.1256 -0.004,-0.0491 0.009,-0.1124 0.045,-0.1927 l 1.7214,-3.5782 v -1.677 c 0,-0.2378 0.0272,-0.4256 0.0812,-0.565 0.0492,-0.1387 0.1297,-0.2418 0.2287,-0.3141 0.1027,-0.0713 0.2283,-0.1165 0.3898,-0.1435 0.1572,-0.0263 0.3452,-0.0402 0.5649,-0.0402 0.2107,0 0.3944,0.0139 0.5519,0.0402 0.1608,0.027 0.287,0.0722 0.3897,0.1435 0.099,0.0723 0.1754,0.1754 0.2246,0.3141 0.0491,0.1394 0.0713,0.3272 0.0713,0.565 z m 0,-8.6447 c 0,0.2822 -0.018,0.5201 -0.0582,0.7128 -0.0401,0.1927 -0.1165,0.3501 -0.2238,0.4667 -0.1124,0.1204 -0.256,0.2017 -0.4307,0.2508 -0.1746,0.0492 -0.3992,0.0716 -0.6724,0.0716 -0.283,0 -0.5117,-0.0224 -0.6864,-0.0716 -0.1747,-0.0491 -0.3182,-0.1304 -0.4216,-0.2508 -0.1073,-0.1166 -0.1788,-0.274 -0.2197,-0.4667 -0.0402,-0.1927 -0.0582,-0.4306 -0.0582,-0.7128 0,-0.2959 0.018,-0.5428 0.0582,-0.7397 0.0409,-0.1975 0.1124,-0.3591 0.2197,-0.4756 0.1034,-0.1212 0.2469,-0.2017 0.4216,-0.2509 0.1747,-0.0493 0.4034,-0.0722 0.6864,-0.0722 0.2732,0 0.4978,0.0229 0.6724,0.0722 0.1747,0.0492 0.3183,0.1297 0.4307,0.2509 0.1073,0.1165 0.1837,0.2781 0.2238,0.4756 0.0402,0.1969 0.0582,0.4438 0.0582,0.7397 z"
     style="fill:#1b1918;fill-rule:evenodd"
     id="path712" />
  <path
     d="m -30.236701,-260.61996 c 0,3.1244 0.6831,5.4638 2.0489,7.0107 1.3742,1.5545 3.0934,2.3315 5.1735,2.3315 2.0568,0 3.7689,-0.777 5.1426,-2.3395 1.3657,-1.5621 2.0489,-3.9413 2.0489,-7.1362 0,-3.0149 -0.6908,-5.2994 -2.0645,-6.8459 -1.3742,-1.5546 -3.0855,-2.3318 -5.127,-2.3318 -2.0801,0 -3.7993,0.7693 -5.1735,2.3162 -1.3658,1.5465 -2.0489,3.8783 -2.0489,6.995 z m -4.2395,-0.008 c 0,-4.5142 1.2563,-7.8585 3.776,-10.0332 2.0962,-1.806 4.6639,-2.7088 7.6859,-2.7088 3.3528,0 6.1004,1.0992 8.2357,3.2975 2.1277,2.1903 3.1953,5.2285 3.1953,9.0989 0,3.1403 -0.4706,5.6056 -1.4131,7.4036 -0.942,1.7977 -2.3162,3.1952 -4.1216,4.1921 -1.798,0.997 -3.7686,1.4916 -5.8963,1.4916 -3.4226,0 -6.1861,-1.091 -8.2979,-3.2814 -2.1121,-2.1903 -3.164,-5.3467 -3.164,-9.4603 z m -18.8028,8.8322 h 5.4408 c 2.3395,0 3.949,-0.2747 4.8203,-0.8167 0.8711,-0.5491 1.3269,-1.4839 1.3734,-2.8264 0,-0.7773 -0.2508,-1.5072 -0.7531,-2.1742 -0.5103,-0.6675 -1.1702,-1.0916 -1.9783,-1.264 -0.809,-0.1808 -2.1121,-0.267 -3.9019,-0.267 h -5.0012 z m 0,-10.7399 h 4.3965 c 1.7507,0 2.9597,-0.0939 3.6114,-0.2747 0.659,-0.1888 1.2484,-0.5576 1.7662,-1.1228 0.5179,-0.5576 0.7773,-1.2322 0.7773,-2.0174 0,-1.2957 -0.455,-2.1904 -1.3581,-2.7012 -0.9107,-0.5102 -2.4653,-0.7611 -4.6632,-0.7611 h -4.5301 z m -4.1454,-10.3159 h 9.5389 c 2.3394,0 4.0824,0.1965 5.2285,0.5885 1.1384,0.3929 2.1197,1.1072 2.9364,2.1515 0.824,1.0522 1.2325,2.3 1.2325,3.7604 0,1.1696 -0.2432,2.1904 -0.7223,3.0538 -0.4867,0.8714 -1.2089,1.6019 -2.1824,2.1827 1.1461,0.3844 2.0963,1.0992 2.8574,2.1509 0.7537,1.0443 1.1304,2.2927 1.1304,3.7293 -0.1491,2.3159 -0.9808,4.0351 -2.4806,5.1499 -1.4995,1.1229 -3.6822,1.6804 -6.5395,1.6804 h -10.9993 z m -26.316,0 h 4.1454 v 18.6458 l 11.5172,-18.6458 h 4.4512 v 24.4474 h -4.1454 v -18.5278 l -11.5015,18.5278 h -4.4669 z m -33.295199,-9.28 h 26.473099 v 33.7274 h -4.4748 v -29.7706 H -112.5608 v 29.7706 h -4.4748 z"
     style="fill:#1b1918;fill-rule:evenodd"
     id="path714" />
  <path
     d="m 125.9243,499.65484 c 0,0.1641 -0.01,0.31 -0.0327,0.4363 -0.024,0.1322 -0.0566,0.2396 -0.0987,0.3246 -0.0421,0.0893 -0.0944,0.1502 -0.1648,0.1923 -0.0705,0.0422 -0.1452,0.061 -0.2251,0.061 h -9.851 c -0.1264,0 -0.2396,-0.0138 -0.3384,-0.0472 -0.0936,-0.0326 -0.1778,-0.0842 -0.2439,-0.1597 -0.0704,-0.0704 -0.122,-0.1779 -0.1546,-0.3143 -0.0334,-0.1358 -0.0472,-0.305 -0.0472,-0.5068 0,-0.1837 0.009,-0.3434 0.0232,-0.4791 0.0145,-0.1365 0.0428,-0.2585 0.0893,-0.3667 0.0472,-0.1031 0.1082,-0.2062 0.1786,-0.3143 0.0704,-0.1031 0.1641,-0.2156 0.2773,-0.3333 l 3.5589,-3.6626 c 0.8262,-0.8451 1.4839,-1.6008 1.9812,-2.2724 0.498,-0.6664 0.8785,-1.277 1.1507,-1.8309 0.2672,-0.5496 0.4458,-1.0477 0.5307,-1.4978 0.0842,-0.4508 0.1263,-0.8734 0.1263,-1.2683 0,-0.3942 -0.0653,-0.7695 -0.1967,-1.1217 -0.1365,-0.3521 -0.3245,-0.6621 -0.5779,-0.93 -0.249,-0.2679 -0.5634,-0.4791 -0.9438,-0.6338 -0.3753,-0.1546 -0.8124,-0.2345 -1.3053,-0.2345 -0.5772,0 -1.0941,0.0799 -1.5544,0.2345 -0.4552,0.1547 -0.8588,0.3289 -1.2066,0.5119 -0.3427,0.1829 -0.6338,0.3564 -0.8639,0.5118 -0.2302,0.1546 -0.4037,0.2345 -0.5162,0.2345 -0.0661,0 -0.1271,-0.0189 -0.1786,-0.0559 -0.0516,-0.0378 -0.0937,-0.0944 -0.1271,-0.1786 -0.0326,-0.0799 -0.0609,-0.1924 -0.0791,-0.3289 -0.0189,-0.1408 -0.0283,-0.3049 -0.0283,-0.4973 0,-0.1365 0.004,-0.2541 0.0138,-0.3572 0.009,-0.0987 0.0232,-0.188 0.0472,-0.2628 0.0232,-0.0704 0.0515,-0.1408 0.0893,-0.2069 0.037,-0.061 0.1125,-0.1408 0.2207,-0.2396 0.1125,-0.0936 0.3005,-0.225 0.5728,-0.3891 0.2672,-0.1692 0.6098,-0.3289 1.0186,-0.4886 0.4036,-0.1641 0.8545,-0.2955 1.3474,-0.4087 0.4886,-0.1075 1.0048,-0.1641 1.5449,-0.1641 0.864,0 1.6197,0.122 2.263,0.3659 0.6483,0.2396 1.1833,0.5728 1.611,0.9961 0.4268,0.4225 0.7463,0.9104 0.9575,1.4694 0.2113,0.559 0.3151,1.155 0.3151,1.7888 0,0.5685 -0.0522,1.1362 -0.1503,1.6996 -0.1038,0.5634 -0.315,1.1739 -0.6388,1.8317 -0.3289,0.657 -0.7979,1.3845 -1.4136,2.1874 -0.6105,0.803 -1.4273,1.7279 -2.4458,2.7755 l -2.8176,2.9439 h 7.7478 c 0.0704,0 0.1409,0.0189 0.2113,0.061 0.0704,0.0421 0.1314,0.1031 0.1778,0.1829 0.0523,0.085 0.0893,0.1881 0.1133,0.31 0.0232,0.122 0.0327,0.2679 0.0327,0.432 z m 6.5877,-0.498 c 0,0.6526 -0.1082,1.0846 -0.3238,1.301 -0.2164,0.2156 -0.6055,0.3238 -1.174,0.3238 -0.5539,0 -0.9343,-0.1082 -1.1456,-0.3195 -0.2113,-0.2112 -0.3143,-0.6338 -0.3143,-1.2676 0,-0.6526 0.1074,-1.0846 0.3237,-1.3002 0.2157,-0.2164 0.6055,-0.3246 1.174,-0.3246 0.5539,0 0.9343,0.1039 1.1456,0.3151 0.2062,0.2113 0.3144,0.6382 0.3144,1.272 z m 14.692,-4.2159 c 0,0.9532 -0.1598,1.7983 -0.4843,2.5446 -0.3187,0.742 -0.7746,1.3664 -1.3612,1.8782 -0.5874,0.5075 -1.2865,0.8922 -2.0989,1.1601 -0.8073,0.2672 -1.709,0.3986 -2.7,0.3986 -0.5539,0 -1.0752,-0.037 -1.5681,-0.1169 -0.498,-0.0755 -0.9395,-0.1742 -1.3242,-0.2868 -0.3848,-0.1125 -0.6999,-0.225 -0.9482,-0.3383 -0.249,-0.1074 -0.4036,-0.1924 -0.4748,-0.2577 -0.0704,-0.0661 -0.1169,-0.122 -0.1452,-0.1786 -0.0283,-0.0566 -0.0515,-0.122 -0.0748,-0.1975 -0.0239,-0.0798 -0.0377,-0.1778 -0.0472,-0.2954 -0.009,-0.1177 -0.0145,-0.2629 -0.0145,-0.4277 0,-0.1546 0.005,-0.2911 0.0189,-0.4174 0.0145,-0.122 0.0428,-0.2207 0.0799,-0.3006 0.0334,-0.0755 0.0798,-0.1365 0.127,-0.1691 0.0516,-0.0378 0.1082,-0.0567 0.1735,-0.0567 0.0944,0 0.2352,0.0567 0.4276,0.1743 0.1924,0.1125 0.4509,0.2345 0.7747,0.371 0.3289,0.1314 0.7274,0.2577 1.2109,0.3753 0.4843,0.1176 1.052,0.1786 1.7141,0.1786 0.6149,0 1.1783,-0.0755 1.6901,-0.2207 0.5119,-0.1459 0.9584,-0.3761 1.3293,-0.6904 0.371,-0.31 0.6621,-0.6999 0.8734,-1.174 0.2113,-0.474 0.3144,-1.0468 0.3144,-1.7278 0,-0.5678 -0.0893,-1.0709 -0.2679,-1.5072 -0.1779,-0.4363 -0.4552,-0.7979 -0.8262,-1.089 -0.371,-0.2868 -0.8407,-0.5024 -1.4135,-0.6483 -0.5678,-0.1409 -1.2444,-0.2113 -2.0328,-0.2113 -0.5634,0 -1.0425,0.0283 -1.4462,0.0842 -0.4037,0.0523 -0.7797,0.0799 -1.1318,0.0799 -0.2534,0 -0.4364,-0.061 -0.5489,-0.1779 -0.1082,-0.1176 -0.1648,-0.3477 -0.1648,-0.686 v -7.2542 c 0,-0.3006 0.0704,-0.5256 0.2113,-0.6715 0.1459,-0.1452 0.3477,-0.2207 0.6149,-0.2207 h 7.893 c 0.0705,0 0.1409,0.0188 0.2113,0.0609 0.0704,0.0429 0.1271,0.1039 0.1742,0.1881 0.0422,0.0798 0.0799,0.1829 0.1031,0.3143 0.0233,0.1271 0.0327,0.2774 0.0327,0.4509 0,0.3289 -0.0421,0.5873 -0.1314,0.7703 -0.0893,0.1829 -0.2113,0.2722 -0.371,0.2722 h -6.3713 v 5.0007 c 0.31,-0.0472 0.6243,-0.0755 0.9481,-0.085 0.3245,-0.009 0.6948,-0.0138 1.1224,-0.0138 0.9816,0 1.8361,0.122 2.5729,0.3667 0.7326,0.2388 1.3475,0.5866 1.8361,1.028 0.4929,0.4457 0.8639,0.9859 1.1129,1.6197 0.2534,0.6294 0.3805,1.3336 0.3805,2.1039 z m 6.7002,4.2159 c 0,0.6526 -0.1082,1.0846 -0.3238,1.301 -0.2164,0.2156 -0.6055,0.3238 -1.1739,0.3238 -0.554,0 -0.9344,-0.1082 -1.1457,-0.3195 -0.2112,-0.2112 -0.3143,-0.6338 -0.3143,-1.2676 0,-0.6526 0.1074,-1.0846 0.3238,-1.3002 0.2156,-0.2164 0.6055,-0.3246 1.1739,-0.3246 0.5539,0 0.9344,0.1039 1.1456,0.3151 0.2062,0.2113 0.3144,0.6382 0.3144,1.272 z m 14.8328,0.5822 c 0,0.1743 -0.0145,0.3195 -0.0428,0.4371 -0.0276,0.1176 -0.061,0.2156 -0.1075,0.286 -0.0471,0.0755 -0.0987,0.1271 -0.1597,0.1597 -0.061,0.0334 -0.1219,0.0472 -0.1829,0.0472 h -9.2971 c -0.061,0 -0.122,-0.0138 -0.1786,-0.0472 -0.0516,-0.0326 -0.1082,-0.0842 -0.1547,-0.1597 -0.0515,-0.0704 -0.0893,-0.1684 -0.1176,-0.286 -0.0283,-0.1176 -0.0421,-0.2628 -0.0421,-0.4371 0,-0.1641 0.0138,-0.3049 0.0421,-0.4225 0.0283,-0.122 0.061,-0.2207 0.1031,-0.2955 0.0378,-0.0798 0.0893,-0.1365 0.1503,-0.1786 0.061,-0.0421 0.127,-0.061 0.1975,-0.061 h 3.7047 v -13.5507 l -3.4419,2.0568 c -0.1735,0.0893 -0.3144,0.1452 -0.4226,0.164 -0.103,0.0189 -0.188,0 -0.2533,-0.061 -0.0661,-0.0609 -0.1082,-0.1597 -0.1314,-0.2962 -0.024,-0.1357 -0.0334,-0.3092 -0.0334,-0.5205 0,-0.1554 0.005,-0.2911 0.0188,-0.3993 0.0146,-0.1125 0.0378,-0.2018 0.0661,-0.2773 0.0283,-0.0704 0.0653,-0.1358 0.1176,-0.1924 0.0465,-0.0516 0.1126,-0.1082 0.1968,-0.1641 l 4.104,-2.6252 c 0.0371,-0.0276 0.0799,-0.0515 0.1358,-0.0704 0.0566,-0.0138 0.127,-0.0327 0.2069,-0.0516 0.0842,-0.0188 0.1786,-0.0326 0.2911,-0.0377 0.1082,-0.004 0.244,-0.004 0.4131,-0.004 0.2164,0 0.4037,0.01 0.5496,0.0283 0.1452,0.0189 0.2577,0.0422 0.3427,0.0748 0.0842,0.0334 0.1357,0.0755 0.164,0.122 0.0284,0.0523 0.0421,0.1038 0.0421,0.1597 v 15.6452 h 3.2213 c 0.0755,0 0.1459,0.0189 0.2069,0.061 0.0653,0.0421 0.1169,0.0988 0.1597,0.1786 0.0421,0.0748 0.0748,0.1735 0.098,0.2955 0.024,0.1176 0.0334,0.2584 0.0334,0.4225 z m 14.2789,0 c 0,0.1743 -0.0145,0.3195 -0.0428,0.4371 -0.0276,0.1176 -0.061,0.2156 -0.1074,0.286 -0.0472,0.0755 -0.0988,0.1271 -0.1598,0.1597 -0.0609,0.0334 -0.1219,0.0472 -0.1829,0.0472 h -9.2971 c -0.061,0 -0.122,-0.0138 -0.1786,-0.0472 -0.0516,-0.0326 -0.1082,-0.0842 -0.1547,-0.1597 -0.0515,-0.0704 -0.0893,-0.1684 -0.1176,-0.286 -0.0283,-0.1176 -0.0421,-0.2628 -0.0421,-0.4371 0,-0.1641 0.0138,-0.3049 0.0421,-0.4225 0.0283,-0.122 0.061,-0.2207 0.1031,-0.2955 0.0378,-0.0798 0.0893,-0.1365 0.1503,-0.1786 0.061,-0.0421 0.127,-0.061 0.1975,-0.061 h 3.7047 v -13.5507 l -3.4419,2.0568 c -0.1735,0.0893 -0.3144,0.1452 -0.4226,0.164 -0.103,0.0189 -0.188,0 -0.2533,-0.061 -0.0661,-0.0609 -0.1082,-0.1597 -0.1314,-0.2962 -0.024,-0.1357 -0.0334,-0.3092 -0.0334,-0.5205 0,-0.1554 0.005,-0.2911 0.0189,-0.3993 0.0145,-0.1125 0.0377,-0.2018 0.066,-0.2773 0.0283,-0.0704 0.0654,-0.1358 0.1176,-0.1924 0.0465,-0.0516 0.1126,-0.1082 0.1968,-0.1641 l 4.104,-2.6252 c 0.0371,-0.0276 0.0799,-0.0515 0.1358,-0.0704 0.0566,-0.0138 0.127,-0.0327 0.2069,-0.0516 0.0842,-0.0188 0.1786,-0.0326 0.2911,-0.0377 0.1082,-0.004 0.244,-0.004 0.4131,-0.004 0.2164,0 0.4037,0.01 0.5496,0.0283 0.1452,0.0189 0.2577,0.0422 0.3427,0.0748 0.0842,0.0334 0.1357,0.0755 0.164,0.122 0.0284,0.0523 0.0422,0.1038 0.0422,0.1597 v 15.6452 h 3.2212 c 0.0755,0 0.1459,0.0189 0.2069,0.061 0.0654,0.0421 0.1169,0.0988 0.1597,0.1786 0.0421,0.0748 0.0748,0.1735 0.098,0.2955 0.024,0.1176 0.0334,0.2584 0.0334,0.4225 z"
     style="fill:#1b1918;fill-rule:evenodd"
     id="path716" />
  <g
     id="Layer1032"
     transform="translate(-142.864,-313.00646)">
    <path
       d="m 298.6049,378.2317 -79.8256,23.3816 c -7.4445,77.4996 -17.0864,152.7414 -29.3551,225.284 l -8.2566,22.517 123.6934,34.0934 61.8389,-230.348 z"
       style="fill:#ffffff;fill-rule:evenodd"
       id="path718" />
    <path
       d="m 328.5514,512.9642 c 23.0906,9.6806 46.8813,18.6361 52.9707,45.9502 1.8706,8.3921 2.0104,14.6065 -0.7469,22.7835 -5.3707,15.9268 -19.6373,29.7271 -44.6667,40.9545 -29.7753,5.0813 -56.5809,-0.7371 -81.8571,-12.1684 -25.4449,-16.9801 -42.2476,-37.8926 -32.5298,-70.874 17.2061,-42.1066 36.6389,-36.1535 55.5494,-41.4776 -20.5947,3.0375 -41.8106,-0.4676 -59.1592,36.7775 -10.8644,28.309 -6.9728,55.1408 32.5911,78.4022 26.4788,15.2469 55.6917,16.2172 85.6318,13.3925 31.5965,-8.5368 42.3316,-26.2434 48.4567,-44.2856 3.2673,-9.6257 3.4878,-11.3664 1.3659,-21.4825 -7.5321,-35.8989 -33.477,-40.3869 -57.6059,-47.9723 z"
       style="fill:#1b1918;fill-rule:evenodd"
       id="path720" />
    <path
       d="m 355.2802,582.7269 c -2.1921,12.2024 -1.1818,23.5037 -10.2135,37.6324 -3.6239,1.4776 -7.2474,2.9549 -10.8714,4.4325 13.8358,-12.7177 16.651,-27.5459 21.0849,-42.0649 z"
       style="fill:#1b1918;fill-rule:evenodd"
       id="path722" />
    <path
       d="m 338.5134,591.5427 c -3.2708,11.306 -3.4289,22.0763 -13.3471,34.528 -3.5672,1.0386 -7.7302,-0.0416 -11.2973,0.9966 14.3154,-10.6464 19.0286,-22.252 24.6444,-35.5246 z"
       style="fill:#1b1918;fill-rule:evenodd"
       id="path724" />
    <path
       d="m 240.7904,560.8009 c -2.4714,12.1489 -7.5857,22.2773 -4.4132,38.7432 2.8216,2.712 5.6429,5.4235 8.4645,8.1355 -8.158,-16.9297 -5.2954,-31.7488 -4.0513,-46.8787 z"
       style="fill:#1b1918;fill-rule:evenodd"
       id="path726" />
    <path
       d="m 253.1137,575.1878 c -1.1379,11.7144 -4.9703,21.7811 -0.3544,37.0162 2.9311,2.2831 7.1986,2.8174 10.1297,5.1001 -9.369,-15.1822 -9.4607,-27.708 -9.7753,-42.1163 z"
       style="fill:#1b1918;fill-rule:evenodd"
       id="path728" />
    <path
       d="m 324.899,570.2012 c -7.0589,15.7386 -38.8658,13.6773 -46.3869,-0.9216 -0.7191,-1.2927 -3.793,-4.4037 -2.8985,-5.1992 -0.3799,0.2497 1.7467,6.3771 2.506,7.8267 7.6348,14.7952 35.3807,17.1139 44.0505,4.4411 0.4987,-0.9213 3.6478,-5.7358 2.7289,-6.147 z"
       style="fill:#1b1918;fill-rule:evenodd"
       id="path730" />
    <path
       d="m 188.9854,633.8324 c 63.8482,43.0731 142.565,56.0957 201.842,25.6927 -67.365,36.681 -141.1862,15.174 -202.1787,-23.3992 -0.0698,-1.6297 0.4065,-0.6638 0.3367,-2.2935 z"
       style="fill:#1b1918;fill-rule:evenodd"
       id="path732" />
    <path
       d="m 222.9771,325.9595 c -5.4165,99.7549 -18.4531,211.3939 -34.1276,305.7478 -6.3758,11.4423 -8.9835,18.0834 -15.3593,29.5257 -5.6179,9.4967 -4.4157,18.4492 0.3853,21.6712 62.6418,58.1073 165.0525,56.2748 220.0798,30.7639 7.384,-3.9402 10.2509,-12.5861 9.7506,-21.26 -3.2342,-11.8414 -6.4687,-23.6831 -9.7029,-35.5245 -0.0338,-107.5908 22.9968,-204.9354 41.7354,-299.2414 l -2.7687,5.1409 c -3.4888,14.0253 -7.8324,30.9615 -9.177,37.5623 -15.6477,76.8262 -32.6222,162.0371 -32.6088,239.6536 l 0.3677,17.2854 c 3.1888,11.6753 6.6225,24.6894 9.8113,36.3647 0.2304,5.7339 -2.9597,15.2843 -8.5756,18.3685 -31.2576,14.4461 -72.4429,18.3009 -105.7218,15.3152 -40.7984,-3.66 -83.5063,-18.3735 -114.3697,-48.5492 -3.4694,-2.7448 0.6575,-12.594 2.8878,-16.3639 5.0192,-8.7426 12.5158,-20.819 15.867,-30.3621 15.2763,-91.9568 27.7577,-212.5142 33.353,-305.911 z"
       style="fill:#1b1918;fill-rule:evenodd"
       id="path734" />
    <path
       d="m 401.6104,692.5701 c -29.6592,11.8405 -60.229,18.5041 -89.3243,19.5904 32.0374,0.5084 56.817,-5.7064 88.8435,-17.481 0.5367,-1.5699 -0.0559,-0.5395 0.4808,-2.1094 z"
       style="fill:#1b1918;fill-rule:evenodd"
       id="path736" />
    <path
       d="m 402.0323,697.9463 c -23.3077,9.6635 -47.392,15.2508 -70.3725,16.4205 25.323,0.0574 44.8366,-5.1137 70.0158,-14.7505 0.4068,-1.2448 -0.0501,-0.4252 0.3567,-1.67 z"
       style="fill:#1b1918;fill-rule:evenodd"
       id="path738" />
    <path
       d="m 333.3267,317.5929 c 58.8064,8.6322 104.8775,26.5373 102.9024,39.9922 -1.975,13.4548 -51.2482,17.3642 -110.0547,8.732 -58.8064,-8.6322 -104.8774,-26.5373 -102.9024,-39.9922 1.9751,-13.4548 51.2483,-17.3643 110.0547,-8.732 z m -0.1353,0.9194 c 56.5876,8.3066 100.9201,25.5358 99.0196,38.4829 -1.9005,12.9471 -49.3143,16.7092 -105.902,8.4027 -56.5873,-8.3065 -100.9197,-25.5361 -99.0192,-38.4832 1.9005,-12.9471 49.3143,-16.7089 105.9016,-8.4024 z"
       style="fill:#1b1918;fill-rule:evenodd"
       id="path740" />
    <path
       d="m 336.5319,323.0781 c -52.7725,-8.3709 -97.719,-6.1032 -106.2993,4.7206 l 2.0986,0.4558 c 8.5592,-10.2829 61.0417,-11.0814 104.0661,-4.2568 43.0244,6.8246 66.084,14.9061 82.9252,24.2483 2.6932,0.877 5.2846,1.7654 7.7702,2.6613 -16.1907,-10.567 -50.3156,-21.4452 -90.5608,-27.8292 z"
       style="fill:#1b1918;fill-rule:evenodd"
       id="path742" />
    <path
       d="m 336.7333,325.9984 c -41.373,-6.0732 -77.5673,-5.5525 -92.9445,0.4241 l 0.4086,1.0384 c 15.1124,-5.5439 56.1259,-5.9727 92.4163,-0.6456 36.2903,5.327 61.9505,13.0161 77.7769,21.2543 2.5264,0.7696 4.958,1.5499 7.2905,2.3371 -15.2263,-9.3278 -47.2389,-18.873 -84.9478,-24.4083 z"
       style="fill:#1b1918;fill-rule:evenodd"
       id="path744" />
    <path
       d="m 255.9246,426.8907 c 9.3562,-18.7224 37.6079,-25.8507 43.4354,-13.5383 5.687,12.0171 1.598,15.6412 -4.0965,13.8829 -0.2677,-0.0827 -0.5299,-0.1609 -0.792,-0.2362 l 0.0509,-0.0434 c 1.5331,-6.0017 -0.1296,-9.8495 -0.7735,-14.385 0.1029,4.5921 0.61,9.1309 -1.0679,13.9546 -1.4183,-0.339 -2.7506,-0.5684 -4.0206,-0.7023 1.3644,-4.7634 0.3623,-8.2679 0.2161,-12.2267 -0.3453,4.2177 -0.6126,7.9999 -2.6093,12.0817 -8.6573,-0.1208 -14.8017,4.2797 -26.9284,8.0944 -6.7102,2.1112 -4.9633,-3.7818 -3.4142,-6.8817 z"
       style="fill:#1b1918;fill-rule:evenodd"
       id="path746" />
    <path
       d="m 377.6404,445.7951 c -8.09,-18.9393 -35.4226,-27.601 -41.8702,-15.8483 -6.2915,11.4683 -2.4887,15.2694 3.2086,13.8771 0.4188,-0.1022 0.8301,-0.1963 1.2336,-0.2821 -1.1486,-6.0475 0.7316,-9.7799 1.6421,-14.2543 -0.3749,4.5508 -1.1447,9.0252 0.2081,13.9062 1.4453,-0.2339 2.7958,-0.358 4.0776,-0.3886 -1.0717,-4.8289 0.1345,-8.2643 0.5175,-12.2029 0.0923,4.2457 0.1321,8.0498 1.9013,12.2607 8.1593,0.5923 13.9364,5.147 25.3238,9.4918 6.4666,2.4674 5.0977,-3.423 3.7576,-6.5596 z"
       style="fill:#1b1918;fill-rule:evenodd"
       id="path748" />
    <path
       d="m 311.2014,488.4456 c -8.8748,-5.2948 -29.2455,-6.002 -32.3242,6.486 -0.5423,8.435 6.8121,14.5227 19.62,18.168 16.0855,3.165 26.4243,0.6771 35.3653,-3.1873 -20.9889,15.4524 -60.4983,2.6942 -57.4862,-16.3074 3.14,-10.0368 13.5735,-11.4292 22.4739,-11.1198 3.5988,-9.2679 5.3697,-19.0846 6.6769,-28.2246 -0.0858,9.422 -1.3073,19.5466 -4.77,28.8871 6.0794,1.8961 9.1493,3.4087 10.4443,5.298 z"
       style="fill:#1b1918;fill-rule:evenodd"
       id="path750" />
    <path
       d="m 421.327,445.0455 c 5.9658,0.4581 11.9317,0.9164 17.8974,1.3748 5.6696,0.6894 11.339,1.3789 17.0085,2.0686 11.4001,2.2907 21.7002,6.3598 23.8373,23.636 0.6529,5.2834 0.345,7.0151 -0.8054,12.115 -7.2702,32.1965 -7.2214,41.331 -15.0506,74.3112 -7.0421,27.8697 -24.1081,34.9503 -37.7459,41.7808 -9.6156,2.959 -19.2304,5.918 -28.8454,8.8768 -3.6232,1.2676 -5.4039,10.0218 -7.3682,18.0285 1.3783,-16.5354 2.7563,-33.0711 4.1346,-49.6068 0.305,4.6183 0.9042,8.9824 7.9025,7.813 6.4537,-1.3313 12.9071,-2.663 19.36,-3.9944 4.9819,-1.0272 5.418,-0.8855 9.4457,-4.408 4.8132,-4.2094 8.7033,-9.6028 11.8879,-15.8928 4.099,-8.0961 4.5153,-12.4461 5.9823,-21.0701 4.1006,-24.0965 5.8334,-32.0628 9.9335,-56.1599 2.342,-10.7745 -1.7508,-12.5837 -6.723,-13.1669 -10.8622,-0.1595 -21.7247,-0.3192 -32.5868,-0.479 -6.2013,1.5349 -9.6578,11.0358 -12.9884,23.7257 3.2444,-16.7424 6.4197,-33.0117 9.6641,-49.7541 1.9016,0.4482 3.1586,0.3537 5.0599,0.8016 z m -27.6191,139.5851 c -0.5673,6.8008 -1.7937,23.9942 -2.3602,30.7948 1.1838,-5.4902 2.0863,-6.005 8.3521,-8.5027 7.3851,-2.9436 19.8004,-5.398 25.0957,-7.0277 21.4603,-10.7327 31.684,-14.4032 37.868,-39.7272 7.0212,-28.7532 7.3975,-43.8114 14.3986,-72.9101 1.2275,-5.1033 2.5541,-8.4676 1.9738,-13.6644 -1.4576,-13.0403 -9.2832,-20.3866 -23.449,-23.2474 -5.6141,-0.6829 -11.0279,-1.3458 -16.642,-2.0287 -7.7214,-0.593 -15.2533,-1.7038 -22.9169,-2.6433 -1.5023,7.7465 -7.4343,34.5153 -8.9404,42.2611 8.8784,-27.0046 8.8824,-19.7155 39.2464,-19.2688 14.0214,0.2088 14.9687,8.0042 12.3741,20.0195 -3.0318,17.8174 -5.577,41.8031 -10.8028,64.8847 -1.4831,6.5497 -5.8568,11.4124 -8.1617,14.5429 -11.0118,14.9527 -13.4003,13.5064 -23.8956,15.6706 -4.5366,0.9352 -10.7689,2.8315 -15.1275,3.5691 -2.1894,0.3657 -5.1217,-1.8637 -7.0126,-2.7224 z"
       style="fill:#1b1918;fill-rule:evenodd"
       id="path752" />
    <path
       d="m 185.96,640.5556 c 25.6375,17.2954 53.6728,29.7403 81.8839,36.4797 -31.5593,-5.7652 -54.048,-16.643 -82.0258,-34.3369 -0.0698,-1.6297 0.2117,-0.5131 0.1419,-2.1428 z"
       style="fill:#1b1918;fill-rule:evenodd"
       id="path754" />
    <path
       d="m 183.9833,645.6951 c 20.0431,13.94 42.0326,24.0724 64.224,29.6982 -24.8449,-4.8916 -42.474,-13.7267 -64.3597,-28.0064 -0.037,-1.2886 0.1727,-0.4032 0.1357,-1.6918 z"
       style="fill:#1b1918;fill-rule:evenodd"
       id="path756" />
    <path
       d="m 319.4712,543.5486 c -12.3045,-13.1917 -25.7922,-23.0117 -37.8025,-13.1799 3.1995,10.2097 -3.3857,19.9781 5.6709,31.2027 19.2655,18.0274 44.8124,-3.4744 32.1316,-18.0228 z"
       style="fill:#1b1918;fill-rule:evenodd"
       id="path758" />
    <path
       d="m 289.9189,453.3753 c 1.495,1.8917 -0.6491,19.3812 -11.8043,18.8459 -2.892,-0.1387 -11.6819,-2.523 -13.7828,-4.0716 -5.4889,-4.0477 -2.6168,-15.0659 -0.0288,-17.2058 10.6453,-8.7983 23.629,-0.0798 25.6159,2.4315 z"
       style="fill:#1b1918;fill-rule:evenodd"
       id="path760" />
    <path
       d="m 277.0089,470.9684 c -2.5638,-0.0893 -9.4258,-1.6231 -11.2858,-3.0022 -4.8624,-3.6028 -1.6065,-12.3425 -0.1359,-14.9259 3.7041,-6.5049 12.7601,-4.0308 17.6658,-1.6922 7.3941,3.5237 4.491,19.9938 -6.2441,19.6203 z"
       style="fill:#ffffff;fill-rule:evenodd"
       id="path762" />
    <g
       id="Layer1033">
      <path
         d="m 274.2218,455.5912 c -1.4642,0.3866 -8.439,12.8088 -2.3882,15.5732 1.5699,0.7169 6.8821,1.8046 8.4252,1.5206 4.031,-0.7411 6.1876,-10.2285 5.2366,-12.0784 -3.6593,-7.1172 -8.6895,-5.6971 -11.2736,-5.0154 z"
         style="fill:#1b1918;fill-rule:evenodd"
         id="path764" />
      <path
         d="m 269.5671,459.2029 c -0.5708,0.006 -3.0596,4.6438 -0.8659,5.646 0.5692,0.2599 2.4951,0.6542 3.0546,0.5513 1.4614,-0.2687 2.3272,-3.7394 1.8985,-4.379 -0.8105,-1.2097 -1.6575,-1.0315 -2.8197,-1.3868 -0.3332,-0.1018 -0.9855,-0.4345 -1.2675,-0.4315 z"
         style="fill:#ffffff;fill-rule:evenodd"
         id="path766" />
      <path
         d="m 273.6122,466.0901 c -0.253,0.003 -1.3561,2.0583 -0.3838,2.5025 0.2523,0.1152 1.1059,0.29 1.3539,0.2444 0.6478,-0.1191 1.0315,-1.6574 0.8415,-1.941 -0.3592,-0.5361 -0.7347,-0.4571 -1.2498,-0.6146 -0.1477,-0.0452 -0.4368,-0.1926 -0.5618,-0.1913 z"
         style="fill:#ffffff;fill-rule:evenodd"
         id="path768" />
    </g>
    <path
       d="m 252.2277,445.2027 c 12.0867,10.3623 11.132,10.4043 26.3733,13.1708 6.6637,1.2099 14.6206,2.3309 20.8068,-1.6118 3.3113,-2.1111 -1.3764,-5.7783 -3.4981,-7.9358 -6.1583,-6.2648 -7.9302,-6.3593 -16.2439,-9.6331 -8.0786,-3.1801 -21.4036,-5.3804 -27.0788,3.2725 -0.6629,1.01 -1.0821,2.1174 -0.3593,2.7374 z"
       style="fill:#ffffff;fill-rule:evenodd"
       id="path771" />
    <path
       d="m 297.9415,457.613 c 4.4453,-1.6426 -3.6138,-0.1945 -5.4807,-0.3663 -13.8713,-1.2774 -19.7919,-1.6631 -33.5025,-6.6983 -2.6065,-0.9578 5.675,-13.3875 5.5589,-14.3453 -0.009,-0.0174 -10.5635,13.6936 -8.5111,15.313 6.1802,4.8767 21.1874,13.761 41.9354,6.0969 z"
       style="fill:#1b1918;fill-rule:evenodd"
       id="path773" />
    <path
       d="m 361.4795,464.8345 c 1.495,1.8917 -0.6491,19.3812 -11.8043,18.8459 -2.892,-0.1387 -11.6819,-2.523 -13.7828,-4.0716 -5.4889,-4.0477 -2.6168,-15.0659 -0.0288,-17.2058 10.6452,-8.7983 23.629,-0.0798 25.6159,2.4315 z"
       style="fill:#1b1918;fill-rule:evenodd"
       id="path775" />
    <path
       d="m 348.5695,482.4276 c -2.5638,-0.0893 -9.4258,-1.6231 -11.2858,-3.0022 -4.8624,-3.6028 -1.6065,-12.3425 -0.1359,-14.9259 3.7041,-6.5049 12.7601,-4.0308 17.6658,-1.6922 7.3941,3.5237 4.491,19.9938 -6.2441,19.6203 z"
       style="fill:#ffffff;fill-rule:evenodd"
       id="path777" />
    <g
       id="Layer1034">
      <path
         d="m 345.7824,467.0504 c -1.4642,0.3866 -8.439,12.8088 -2.3882,15.5732 1.5698,0.7169 6.8821,1.8046 8.4252,1.5206 4.031,-0.7411 6.1876,-10.2285 5.2366,-12.0785 -3.6593,-7.1172 -8.6895,-5.697 -11.2736,-5.0153 z"
         style="fill:#1b1918;fill-rule:evenodd"
         id="path779" />
      <path
         d="m 341.1277,470.662 c -0.5708,0.006 -3.0596,4.6439 -0.8659,5.6461 0.5692,0.2599 2.4951,0.6542 3.0546,0.5513 1.4614,-0.2687 2.3272,-3.7394 1.8985,-4.379 -0.8105,-1.2097 -1.6575,-1.0315 -2.8197,-1.3868 -0.3333,-0.1018 -0.9855,-0.4345 -1.2675,-0.4316 z"
         style="fill:#ffffff;fill-rule:evenodd"
         id="path781" />
      <path
         d="m 345.1728,477.5493 c -0.253,0.003 -1.3561,2.0583 -0.3838,2.5025 0.2523,0.1152 1.1059,0.29 1.3539,0.2444 0.6477,-0.1191 1.0315,-1.6574 0.8415,-1.941 -0.3592,-0.5361 -0.7347,-0.4571 -1.2498,-0.6146 -0.1477,-0.0452 -0.4368,-0.1926 -0.5618,-0.1913 z"
         style="fill:#ffffff;fill-rule:evenodd"
         id="path783" />
    </g>
    <path
       d="m 323.7883,456.6619 c 12.0866,10.3623 11.132,10.4043 26.3733,13.1708 6.6637,1.2099 14.6206,2.3309 20.8068,-1.6118 3.3113,-2.1111 -1.3764,-5.7783 -3.4981,-7.9358 -6.1583,-6.2648 -7.9302,-6.3593 -16.2439,-9.6331 -8.0786,-3.1801 -21.4037,-5.3804 -27.0788,3.2725 -0.6629,1.01 -1.0821,2.1174 -0.3593,2.7374 z"
       style="fill:#ffffff;fill-rule:evenodd"
       id="path786" />
    <path
       d="m 369.5021,469.0722 c 4.4453,-1.6426 -3.6138,-0.1945 -5.4807,-0.3663 -13.8713,-1.2774 -19.7919,-1.6631 -33.5025,-6.6983 -2.6065,-0.9578 5.675,-13.3875 5.5589,-14.3453 -0.009,-0.0174 -10.5636,13.6936 -8.5111,15.313 6.1802,4.8767 21.1874,13.761 41.9354,6.0969 z"
       style="fill:#1b1918;fill-rule:evenodd"
       id="path788" />
    <g
       id="Layer1035">
      <path
         d="m 451.5359,518.8617 c -33.5588,7.8261 -23.2711,19.1515 -67.1149,23.1848 -3.1324,0.2876 -0.474,7.3912 -4.2133,9.823 -7.4912,4.8731 -21.8791,4.7908 -28.4355,-9.8523 -2.4857,-5.5532 -8.916,4.7392 -10.2061,-15.1376 -1.0013,-15.4388 -14.3819,3.199 -5.2398,-40.5852 5.2518,-25.1528 32.4717,-22.7587 49.8418,-11.9599 35.8457,22.2849 0.3964,17.541 50.636,20.5615 11.7519,0.706 15.2275,14.1232 14.7318,23.9657 z"
         style="fill:#ffffff;fill-rule:evenodd"
         id="path790" />
      <path
         d="m 352.6955,525.2357 c -3.1045,4.57 -0.619,-0.9992 -1.7721,3.8045 -1.4879,6.2011 1.2035,4.8326 -2.0434,11.3967 -18.3974,-7.7815 0.1987,-29.5931 -2.8549,-41.6303 -5.8839,8.1528 -3.2414,12.6243 -9.0023,20.1032 -15.5992,-15.2897 8.3685,-57.1347 29.4711,-51.9688 10.4888,2.5692 21.5233,9.9755 30.7811,17.7812 14.6079,12.3122 15.6759,13.7619 32.0252,7.6585 -11.2709,-2.8202 -11.9277,6.1023 -25.2831,-5.9085 -8.2924,-7.4552 -16.3118,-14.0576 -25.5825,-18.7498 -38.9189,-19.7049 -54.8113,32.5628 -48.9197,46.8852 4.0849,9.9332 4.8891,2.7433 7.2843,13.6245 1.0835,4.91 0.2821,8.2657 5.7258,12.7745 9.6727,8.006 2.9138,-4.1577 9.2427,9.2402 7.0143,14.8459 27.3376,10.1744 35.5443,-5.8043 6.683,-1.2521 15.6758,-1.2754 23.9897,-7.3288 14.4115,-10.4971 12.942,-6.6315 25.5224,-12.6215 -5.5395,-5.4544 0.3394,-3.1417 -7.3609,-1.8807 -2.7984,0.4565 -6.9872,1.9812 -9.4759,3.1099 -13.4068,6.0769 -14.6847,17.4706 -35.1915,13.5993 -8.0716,-1.5248 -0.9772,1.1903 -11.5162,-5.1333 l -3.8607,-1.9643 c -0.274,-0.1251 -0.8536,-0.3676 -1.3077,-0.4561 l 10.1517,8.7222 c -3.9756,1.184 -5.5881,0.2966 -6.5412,2.6472 l 11.1241,-0.5852 c -2.6317,13.5667 -16.5559,14.6926 -23.8491,10.0513 -8.8256,-5.6178 -2.9537,-18.0851 -6.3012,-27.3668 z"
         style="fill:#1b1918;fill-rule:evenodd"
         id="path792" />
    </g>
    <g
       id="Layer1036">
      <path
         d="m 179.9783,500.6693 c -13.6289,15.9908 -8.9063,8.9996 -0.3657,19.6681 6.4092,8.0061 9.8242,8.5082 9.18,19.49 -0.6796,11.5971 -62.9719,50.9759 -41.3837,61.0837 5.9736,2.7969 36.2488,-11.0519 47.585,-11.2824 11.7123,-0.2383 19.8046,-0.0226 34.3585,0.3352 30.3424,0.7461 27.2032,-10.0965 50.7729,-19.0933 17.1464,-6.5449 23.0832,-28.2152 -6.7331,-22.7833 -8.9833,1.6364 -31.9555,6.0457 -34.4631,-6.859 -0.7843,-4.0373 19.4871,-15.4109 25.4289,-20.1794 10.7838,-8.6545 20.6101,-16.2596 4.8512,-24.5301 -4.9135,-2.5784 -34.9893,13.626 -41.9282,16.1966 -8.0208,2.9716 -18.3577,14.4308 -20.6186,4.3287 -1.4823,-6.6228 -12.45,-20.7933 -23.9961,-16.5311 -1.599,0.5905 -2.3939,-0.1888 -2.688,0.1563 z"
         style="fill:#ffffff;fill-rule:evenodd"
         id="path795" />
      <g
         id="Layer1037">
        <path
           d="m 249.2377,577.3051 c 8.7229,-4.645 55.8034,-8.5499 40.4374,-33.4505 -22.835,3.7878 -42.9265,14.4199 -55.1073,-3.5447 9.0926,-12.1168 23.7929,-6.1227 40.9334,-31.2731 -13.9219,-30.3744 -38.0725,17.7056 -69.7339,14.4797 -4.5839,-7.439 2.392,-15.9774 -11.6297,-22.3762 -9.9424,-4.5345 -25.2277,4.1751 -18.1482,13.7587 5.6471,7.6456 14.6822,5.2922 9.8405,27.1495 -1.0625,4.8008 0.653,0.9477 -1.8774,4.9854 -2.0208,-9.5381 0.211,-11.6204 0.1668,-19.7105 l -13.4124,-13.3847 c -0.5062,-12.0977 9.5299,-19.1441 18.4705,-18.0439 14.6838,1.8049 16.3633,15.7112 20.9039,24.8374 10.2128,-3.9474 17.5497,-5.9979 29.7466,-13.1397 10.9524,-6.4116 21.0739,-15.8551 30.3174,-10.9159 12.8401,6.8602 7.2168,19.8452 -2.2459,27.7941 -11.2279,9.4337 -22.9078,9.6514 -29.2057,16.1384 8.637,15.58 47.2842,-7.9663 56.5646,4.5463 4.2306,11.4748 -4.7101,21.6516 -16.5024,27.1277 -14.5637,6.7632 -13.6463,14.8655 -33.2002,18.6516 -25.759,4.9851 -16.5158,-4.4053 -46.5013,1.674 -6.7259,1.3639 -10.8821,3.0078 -16.606,1.4412 34.1907,-18.0283 48.0707,7.6528 84.1562,-17.1768 -2.3916,0.1277 -4.4195,0.3678 -8.1705,0.848 z"
           style="fill:#1b1918;fill-rule:evenodd"
           id="path797" />
        <path
           d="m 183.9525,547.0339 c 0.2419,0.4752 6.3665,2.7934 -4.3889,12.1007 -4.5108,3.903 -8.5746,6.4641 -12.7678,3.8609 8.3092,-4.2873 12.3107,-8.4827 17.1567,-15.9616 z"
           style="fill:#1b1918;fill-rule:evenodd"
           id="path799" />
        <path
           d="m 249.2377,577.3051 c -6.2608,3.1495 -3.8746,2.8868 -10.2327,0.8213 4.9875,-1.7178 -0.2179,-1.1349 4.8964,-1.6716 4.2439,-0.4439 2.3853,-0.2299 5.3363,0.8503 z"
           style="fill:#1b1918;fill-rule:evenodd"
           id="path801" />
      </g>
    </g>
  </g>
</svg>
