<?xml version="1.0" encoding="UTF-8" standalone="no"?>
<svg version="1.1" width="316.7092" height="415.54755" id="svg703" viewBox="0 0 316.7092 415.54755"
    xmlns="http://www.w3.org/2000/svg">
  <defs
     id="defs707" />
  <path
     d="m -90.7327,-204.12422 c 0,0.1569 -0.0092,0.2963 -0.0314,0.417 -0.0228,0.1263 -0.0542,0.2287 -0.0941,0.3097 -0.0404,0.0854 -0.0901,0.1436 -0.1574,0.1839 -0.0672,0.0399 -0.1387,0.0582 -0.2154,0.0582 h -9.4069 c -0.1209,0 -0.2287,-0.0132 -0.3231,-0.045 -0.0895,-0.0314 -0.1698,-0.0803 -0.2331,-0.1528 -0.0671,-0.0672 -0.1163,-0.1698 -0.1477,-0.3002 -0.0318,-0.1295 -0.045,-0.291 -0.045,-0.4837 0,-0.1757 0.009,-0.3278 0.0222,-0.4577 0.0138,-0.1304 0.0411,-0.2467 0.0854,-0.3501 0.0452,-0.0983 0.1034,-0.1968 0.1705,-0.3002 0.0672,-0.0983 0.1567,-0.2061 0.265,-0.3183 l 3.3984,-3.4976 c 0.789,-0.8068 1.4172,-1.5287 1.8919,-2.17 0.4756,-0.6362 0.8389,-1.2192 1.099,-1.7484 0.2552,-0.525 0.4257,-1.0004 0.5067,-1.4303 0.0803,-0.4304 0.1207,-0.8338 0.1207,-1.2112 0,-0.3766 -0.0627,-0.7347 -0.1878,-1.071 -0.1307,-0.3362 -0.3102,-0.6326 -0.5518,-0.8885 -0.2382,-0.2552 -0.5382,-0.4572 -0.9014,-0.6051 -0.3587,-0.1474 -0.7757,-0.2238 -1.2467,-0.2238 -0.5511,0 -1.0447,0.0764 -1.4844,0.2238 -0.4343,0.1479 -0.8199,0.3141 -1.1522,0.4888 -0.327,0.1749 -0.6051,0.3406 -0.8251,0.489 -0.2194,0.1477 -0.3851,0.2239 -0.4929,0.2239 -0.0628,0 -0.1214,-0.0183 -0.1703,-0.0533 -0.0492,-0.0363 -0.0895,-0.0903 -0.1214,-0.1706 -0.0314,-0.0764 -0.0584,-0.1839 -0.0757,-0.3141 -0.0177,-0.1345 -0.027,-0.291 -0.027,-0.4751 0,-0.1305 0.004,-0.2426 0.0132,-0.3409 0.009,-0.0944 0.0221,-0.1796 0.045,-0.2511 0.0221,-0.0674 0.0496,-0.1345 0.0854,-0.1978 0.0355,-0.0581 0.1073,-0.1343 0.2109,-0.2285 0.1073,-0.0895 0.2866,-0.2148 0.5469,-0.3715 0.2553,-0.1618 0.5823,-0.3141 0.9728,-0.4666 0.3851,-0.1567 0.816,-0.282 1.2865,-0.3905 0.4667,-0.1024 0.9596,-0.1567 1.4754,-0.1567 0.825,0 1.5469,0.1163 2.161,0.3494 0.6192,0.2289 1.1301,0.5472 1.5384,0.9513 0.4077,0.4034 0.7128,0.8693 0.9143,1.4031 0.2019,0.534 0.3009,1.1034 0.3009,1.7084 0,0.5428 -0.0496,1.0849 -0.1435,1.6229 -0.099,0.5379 -0.301,1.1213 -0.61,1.7493 -0.3143,0.6274 -0.762,1.3218 -1.3498,2.0889 -0.5829,0.7669 -1.3629,1.6501 -2.3354,2.6503 l -2.6909,2.8116 h 7.3987 c 0.0672,0 0.1346,0.0177 0.2017,0.0579 0.0672,0.0404 0.1256,0.0985 0.1699,0.1749 0.0501,0.081 0.0854,0.1796 0.1082,0.2959 0.0222,0.1168 0.0314,0.2559 0.0314,0.4124 z m 6.2908,-0.4754 c 0,0.6231 -0.1032,1.0354 -0.3095,1.2425 -0.2063,0.2058 -0.5778,0.3092 -1.1209,0.3092 -0.5287,0 -0.8924,-0.1034 -1.0939,-0.3053 -0.2017,-0.2017 -0.3002,-0.6051 -0.3002,-1.2102 0,-0.6233 0.1024,-1.036 0.3092,-1.2418 0.2059,-0.2068 0.5784,-0.31 1.1209,-0.31 0.5292,0 0.8922,0.0993 1.0941,0.301 0.1971,0.2017 0.3003,0.6092 0.3003,1.2146 z m 14.0301,-4.0259 c 0,0.9104 -0.1528,1.7174 -0.4623,2.4301 -0.3048,0.7084 -0.7398,1.3048 -1.3002,1.7933 -0.5608,0.4847 -1.2284,0.8523 -2.004,1.1078 -0.771,0.2552 -1.6321,0.381 -2.5785,0.381 -0.529,0 -1.0267,-0.0358 -1.4975,-0.1122 -0.4754,-0.0718 -0.8971,-0.1659 -1.2645,-0.2735 -0.3676,-0.1075 -0.6685,-0.2148 -0.9055,-0.3231 -0.238,-0.1026 -0.3854,-0.1837 -0.4535,-0.2462 -0.0674,-0.0632 -0.1117,-0.1163 -0.1387,-0.1703 -0.027,-0.0542 -0.0492,-0.1168 -0.0713,-0.1885 -0.0229,-0.0764 -0.0363,-0.1699 -0.0453,-0.2823 -0.0085,-0.1124 -0.0138,-0.2511 -0.0138,-0.4085 0,-0.1474 0.0053,-0.2781 0.0182,-0.3985 0.0139,-0.1165 0.0409,-0.2109 0.0764,-0.2869 0.0317,-0.0725 0.0759,-0.1306 0.1209,-0.1617 0.0497,-0.0361 0.1037,-0.0543 0.166,-0.0543 0.09,0 0.2245,0.0543 0.4085,0.1664 0.1834,0.1076 0.4304,0.2239 0.7394,0.3545 0.3141,0.1253 0.6948,0.246 1.1566,0.3584 0.4625,0.1124 1.0046,0.1703 1.6367,0.1703 0.5873,0 1.1252,-0.0718 1.6143,-0.2107 0.4883,-0.1392 0.9148,-0.3591 1.2693,-0.6593 0.3542,-0.2959 0.6321,-0.6679 0.834,-1.1209 0.2017,-0.4526 0.3002,-0.9997 0.3002,-1.6501 0,-0.5418 -0.0854,-1.0226 -0.2559,-1.4391 -0.1698,-0.4168 -0.4348,-0.762 -0.789,-1.0401 -0.354,-0.2737 -0.8029,-0.4798 -1.3499,-0.6192 -0.542,-0.1343 -1.1882,-0.2015 -1.941,-0.2015 -0.5384,0 -0.9958,0.0268 -1.3812,0.0803 -0.3857,0.0501 -0.7448,0.0762 -1.0808,0.0762 -0.2418,0 -0.4165,-0.0579 -0.5243,-0.1696 -0.1031,-0.1124 -0.1574,-0.3323 -0.1574,-0.6555 v -6.9272 c 0,-0.2871 0.0674,-0.5019 0.2017,-0.6411 0.1397,-0.1389 0.3324,-0.2107 0.5876,-0.2107 h 7.5374 c 0.0672,0 0.1346,0.0175 0.2019,0.0579 0.0672,0.0409 0.1212,0.0993 0.1662,0.1798 0.0402,0.0762 0.0762,0.1747 0.0983,0.3003 0.0222,0.1211 0.0312,0.2644 0.0312,0.4301 0,0.3141 -0.0399,0.5608 -0.1253,0.7358 -0.0854,0.1746 -0.2017,0.2598 -0.3543,0.2598 h -6.0847 v 4.7755 c 0.2964,-0.045 0.5966,-0.072 0.9058,-0.081 0.3098,-0.008 0.6635,-0.0132 1.072,-0.0132 0.937,0 1.753,0.1163 2.4569,0.3501 0.6994,0.228 1.2868,0.5601 1.7532,0.9818 0.471,0.4255 0.825,0.9413 1.0629,1.5466 0.2416,0.601 0.3633,1.2734 0.3633,2.0092 z m 6.3983,4.0259 c 0,0.6231 -0.1032,1.0354 -0.3092,1.2425 -0.2066,0.2058 -0.5784,0.3092 -1.1209,0.3092 -0.529,0 -0.8924,-0.1034 -1.0941,-0.3053 -0.2017,-0.2017 -0.3003,-0.6051 -0.3003,-1.2102 0,-0.6233 0.1025,-1.036 0.3093,-1.2418 0.2058,-0.2068 0.5783,-0.31 1.1208,-0.31 0.5292,0 0.8925,0.0993 1.0942,0.301 0.197,0.2017 0.3002,0.6092 0.3002,1.2146 z m 14.1647,0.5559 c 0,0.1664 -0.0139,0.3053 -0.0409,0.4177 -0.0263,0.1122 -0.0584,0.2056 -0.1027,0.2728 -0.0452,0.0725 -0.0941,0.1214 -0.1523,0.1528 -0.0586,0.0318 -0.1165,0.045 -0.1749,0.045 h -8.8783 c -0.0581,0 -0.1163,-0.0132 -0.1703,-0.045 -0.0496,-0.0314 -0.1034,-0.0803 -0.1477,-0.1528 -0.0496,-0.0672 -0.0854,-0.1606 -0.1124,-0.2728 -0.0272,-0.1124 -0.0401,-0.2513 -0.0401,-0.4177 0,-0.1567 0.0129,-0.2912 0.0401,-0.4036 0.027,-0.1161 0.0582,-0.2107 0.0983,-0.282 0.0363,-0.0762 0.0852,-0.1304 0.1436,-0.1706 0.0584,-0.0401 0.1211,-0.0584 0.1885,-0.0584 h 3.5378 v -12.9399 l -3.2867,1.964 c -0.1657,0.0851 -0.3002,0.1386 -0.4039,0.1569 -0.098,0.0175 -0.1793,0 -0.2416,-0.0584 -0.0632,-0.0584 -0.1031,-0.1526 -0.1253,-0.2832 -0.0228,-0.1292 -0.0321,-0.2949 -0.0321,-0.4966 0,-0.1484 0.0049,-0.2781 0.0178,-0.3815 0.0143,-0.1075 0.0365,-0.1929 0.0635,-0.2649 0.0267,-0.0672 0.0623,-0.1297 0.1121,-0.1837 0.0443,-0.0492 0.1076,-0.1034 0.1881,-0.157 l 3.9191,-2.5067 c 0.0353,-0.026 0.0764,-0.0489 0.1294,-0.0671 0.0543,-0.0132 0.1214,-0.0314 0.1976,-0.0492 0.0805,-0.0182 0.1705,-0.0311 0.2781,-0.0365 0.1031,-0.004 0.2331,-0.004 0.3946,-0.004 0.2066,0 0.3854,0.009 0.5246,0.0271 0.1389,0.0182 0.2462,0.0403 0.3277,0.0715 0.08,0.0321 0.1292,0.072 0.1564,0.1163 0.027,0.0501 0.0402,0.0992 0.0402,0.1528 v 14.94 h 3.0763 c 0.0717,0 0.1391,0.0183 0.1973,0.0584 0.0625,0.0402 0.1116,0.0944 0.1525,0.1706 0.0402,0.0713 0.0713,0.1659 0.0934,0.282 0.0232,0.1124 0.0322,0.2469 0.0322,0.4036 z m 14.1466,-7.654 c 0,1.3048 -0.1034,2.4982 -0.3092,3.5741 -0.2068,1.0759 -0.5469,2.0002 -1.0228,2.7756 -0.4798,0.7754 -1.1027,1.3715 -1.8737,1.7982 -0.7715,0.4255 -1.7226,0.6365 -2.8524,0.6365 -1.0669,0 -1.9635,-0.1881 -2.6987,-0.5691 -0.7309,-0.3817 -1.3187,-0.9421 -1.7669,-1.6815 -0.4442,-0.7403 -0.7625,-1.6503 -0.9505,-2.7307 -0.1881,-1.081 -0.2827,-2.3226 -0.2827,-3.722 0,-1.2956 0.1034,-2.4839 0.3141,-3.5649 0.2109,-1.0805 0.5513,-2.0084 1.0267,-2.7841 0.4708,-0.7761 1.0941,-1.3719 1.8651,-1.7984 0.7715,-0.4256 1.7172,-0.6365 2.8381,-0.6365 1.0768,0 1.978,0.1888 2.7128,0.5693 0.7311,0.3813 1.3189,0.9421 1.7666,1.6817 0.4445,0.7401 0.7625,1.6503 0.9513,2.7303 0.1878,1.081 0.2822,2.3233 0.2822,3.7215 z m -2.3138,0.1574 c 0,-0.8479 -0.0316,-1.6096 -0.0897,-2.2821 -0.0626,-0.6725 -0.1526,-1.2688 -0.2733,-1.7846 -0.1163,-0.5158 -0.269,-0.9596 -0.4576,-1.3318 -0.1881,-0.3674 -0.4124,-0.6774 -0.6769,-0.9144 -0.2605,-0.243 -0.5608,-0.4172 -0.8968,-0.525 -0.3403,-0.1122 -0.7177,-0.1654 -1.1391,-0.1654 -0.7438,0 -1.345,0.1747 -1.8116,0.5238 -0.4615,0.3501 -0.8289,0.8299 -1.0941,1.4442 -0.2689,0.6095 -0.4477,1.327 -0.547,2.152 -0.0934,0.8209 -0.1435,1.7043 -0.1435,2.6498 0,1.2647 0.0671,2.3454 0.1975,3.2337 0.1302,0.8873 0.3412,1.6092 0.6236,2.17 0.282,0.56 0.6455,0.9685 1.0895,1.2191 0.444,0.256 0.9771,0.3813 1.6092,0.3813 0.4888,0 0.9194,-0.081 1.2917,-0.2377 0.3722,-0.1565 0.6907,-0.3813 0.9596,-0.6722 0.2649,-0.2964 0.4887,-0.6463 0.6634,-1.0589 0.1755,-0.4126 0.3139,-0.8649 0.4214,-1.363 0.1032,-0.4975 0.175,-1.0398 0.2156,-1.6181 0.0404,-0.583 0.0581,-1.1881 0.0581,-1.8207 z m 8.0669,6.9407 c 0,0.6231 -0.1037,1.0354 -0.3092,1.2425 -0.2066,0.2058 -0.5784,0.3092 -1.1209,0.3092 -0.5292,0 -0.8924,-0.1034 -1.0941,-0.3053 -0.202,-0.2017 -0.3003,-0.6051 -0.3003,-1.2102 0,-0.6233 0.1025,-1.036 0.309,-1.2418 0.2061,-0.2068 0.5783,-0.31 1.1211,-0.31 0.529,0 0.8925,0.0993 1.0942,0.301 0.1965,0.2017 0.3002,0.6092 0.3002,1.2146 z m 16.4512,1.1172 c 0,0.0713 -0.0183,0.1292 -0.0543,0.1795 -0.0355,0.0443 -0.0939,0.0893 -0.1839,0.1253 -0.0849,0.0312 -0.2017,0.0582 -0.3452,0.0762 -0.1477,0.0173 -0.3273,0.0263 -0.547,0.0263 -0.2107,0 -0.3897,-0.009 -0.5379,-0.0263 -0.1477,-0.018 -0.2645,-0.045 -0.3494,-0.0762 -0.081,-0.036 -0.1435,-0.081 -0.1839,-0.1253 -0.0407,-0.0503 -0.0589,-0.1082 -0.0589,-0.1795 v -14.7121 h -7.6941 v 14.7121 c 0,0.0713 -0.0178,0.1292 -0.0582,0.1795 -0.0401,0.0443 -0.1034,0.0893 -0.1834,0.1253 -0.0857,0.0312 -0.1981,0.0582 -0.3416,0.0762 -0.1474,0.0173 -0.327,0.0263 -0.5469,0.0263 -0.219,0 -0.3988,-0.009 -0.547,-0.0263 -0.1435,-0.018 -0.2598,-0.045 -0.3455,-0.0762 -0.0893,-0.036 -0.1472,-0.081 -0.1834,-0.1253 -0.036,-0.0503 -0.0533,-0.1082 -0.0533,-0.1795 v -15.7568 c 0,-0.3049 0.0762,-0.538 0.2282,-0.6905 0.1574,-0.1526 0.3501,-0.2285 0.5876,-0.2285 h 10.6091 c 0.2467,0 0.4391,0.0759 0.5781,0.2285 0.1391,0.1525 0.2109,0.3856 0.2109,0.6905 z m 9.6403,0.327 -1.5742,4.3538 c -0.054,0.1387 -0.1885,0.247 -0.4031,0.3234 -0.211,0.0759 -0.5385,0.1114 -0.9779,0.1114 -0.2287,0 -0.4124,-0.009 -0.5518,-0.0314 -0.1386,-0.0221 -0.2459,-0.063 -0.3223,-0.1121 -0.0723,-0.0536 -0.1124,-0.1256 -0.1214,-0.211 -0.009,-0.0893 0.0131,-0.1927 0.0632,-0.3182 l 1.6321,-4.1159 c -0.081,-0.036 -0.1574,-0.0944 -0.2248,-0.1703 -0.0716,-0.0808 -0.1207,-0.1618 -0.1436,-0.2514 l -4.2186,-11.299 c -0.072,-0.184 -0.1034,-0.3321 -0.1034,-0.4346 0,-0.1085 0.0314,-0.1885 0.1034,-0.252 0.0713,-0.0626 0.184,-0.1025 0.3407,-0.1253 0.1564,-0.0222 0.3673,-0.0314 0.6318,-0.0314 0.2601,0 0.4669,0.005 0.6187,0.0182 0.1484,0.0132 0.2645,0.0402 0.354,0.0759 0.0854,0.0314 0.1487,0.0857 0.1886,0.1482 0.0404,0.0672 0.0805,0.1572 0.1255,0.2689 l 3.3765,9.4882 h 0.0399 l 3.2561,-9.5376 c 0.0535,-0.1706 0.1163,-0.2779 0.1927,-0.3224 0.0711,-0.0501 0.1835,-0.0852 0.3314,-0.108 0.1523,-0.0222 0.3683,-0.0314 0.6457,-0.0314 0.2465,0 0.4489,0.009 0.6058,0.0314 0.1565,0.0228 0.2728,0.0627 0.3453,0.1253 0.0759,0.0635 0.1121,0.1435 0.1121,0.252 0,0.1025 -0.0272,0.2368 -0.0764,0.3944 z m 15.2004,-2.1476 c 0,0.1474 -0.005,0.2776 -0.0142,0.3851 -0.009,0.1124 -0.0223,0.2017 -0.0445,0.2779 -0.0228,0.0766 -0.0489,0.1394 -0.081,0.198 -0.0314,0.0579 -0.0985,0.1431 -0.2109,0.2506 -0.1071,0.1124 -0.2956,0.247 -0.556,0.4127 -0.264,0.1615 -0.5601,0.3092 -0.8873,0.4347 -0.3321,0.1304 -0.6863,0.2336 -1.0717,0.31 -0.3857,0.0803 -0.7847,0.1207 -1.1973,0.1207 -0.852,0 -1.6051,-0.139 -2.2598,-0.4217 -0.6593,-0.2781 -1.2109,-0.6858 -1.6498,-1.2238 -0.4445,-0.5379 -0.7805,-1.2021 -1.0136,-1.9819 -0.2331,-0.7849 -0.3498,-1.6863 -0.3498,-2.713 0,-1.1613 0.1435,-2.161 0.4262,-2.9999 0.2871,-0.8338 0.6766,-1.5197 1.1703,-2.0535 0.4975,-0.533 1.0805,-0.9277 1.7481,-1.1882 0.6727,-0.2553 1.3992,-0.3854 2.1792,-0.3854 0.3774,0 0.7406,0.036 1.0939,0.1073 0.3591,0.0671 0.6825,0.1615 0.9827,0.2742 0.2961,0.116 0.5649,0.2464 0.7936,0.399 0.2331,0.1477 0.4034,0.2778 0.5064,0.3807 0.1077,0.1081 0.1795,0.1927 0.2194,0.2509 0.036,0.0632 0.0723,0.1353 0.0993,0.2199 0.0221,0.0811 0.0404,0.1752 0.0491,0.2827 0.009,0.1035 0.0134,0.2378 0.0134,0.3944 0,0.3411 -0.0404,0.5781 -0.1168,0.7178 -0.0803,0.1345 -0.1742,0.2017 -0.291,0.2017 -0.1301,0 -0.2827,-0.0723 -0.4532,-0.2197 -0.1701,-0.1438 -0.3857,-0.3051 -0.6499,-0.4798 -0.2647,-0.175 -0.5832,-0.3363 -0.9552,-0.4801 -0.3722,-0.1481 -0.8121,-0.2196 -1.3179,-0.2196 -1.045,0 -1.8474,0.3994 -2.4036,1.2016 -0.5562,0.7978 -0.8343,1.9598 -0.8343,3.4794 0,0.7577 0.072,1.426 0.2149,2.0002 0.1486,0.5691 0.3591,1.0489 0.6415,1.4345 0.2781,0.3813 0.6234,0.6683 1.0316,0.8564 0.4078,0.1886 0.874,0.2827 1.399,0.2827 0.5017,0 0.9416,-0.081 1.3177,-0.2377 0.3766,-0.1567 0.6997,-0.3313 0.9778,-0.5248 0.2781,-0.1878 0.5112,-0.3584 0.6993,-0.5109 0.1888,-0.1567 0.3323,-0.2331 0.4399,-0.2331 0.0581,0 0.1121,0.0183 0.1567,0.0533 0.045,0.036 0.081,0.0944 0.1124,0.1752 0.0311,0.0854 0.0532,0.188 0.0671,0.3185 0.0129,0.1253 0.0183,0.278 0.0183,0.453 z m 11.1331,-9.3534 c 0,0.1747 -0.009,0.3231 -0.0268,0.4435 -0.0182,0.1255 -0.0452,0.2248 -0.0853,0.3005 -0.0402,0.0807 -0.0852,0.1391 -0.1346,0.1795 -0.0542,0.0402 -0.1214,0.0579 -0.1973,0.0579 h -3.5381 v 10.1926 c 0,0.0713 -0.0175,0.1292 -0.0535,0.1795 -0.0358,0.0443 -0.09,0.0893 -0.1703,0.1253 -0.0808,0.0312 -0.1886,0.0582 -0.3321,0.0762 -0.1387,0.0173 -0.3183,0.0263 -0.538,0.0263 -0.2148,0 -0.3897,-0.009 -0.5291,-0.0263 -0.1433,-0.018 -0.2557,-0.045 -0.3365,-0.0762 -0.0849,-0.036 -0.1431,-0.081 -0.1745,-0.1253 -0.0311,-0.0503 -0.045,-0.1082 -0.045,-0.1795 v -10.1926 h -3.538 c -0.0672,0 -0.1297,-0.0177 -0.1876,-0.0579 -0.0584,-0.0404 -0.1034,-0.0988 -0.1394,-0.1795 -0.0312,-0.0757 -0.0626,-0.1791 -0.0854,-0.3046 -0.0222,-0.1256 -0.0312,-0.2779 -0.0312,-0.4533 0,-0.1567 0.009,-0.2956 0.0312,-0.4165 0.0228,-0.1258 0.0542,-0.229 0.0944,-0.3095 0.0399,-0.0854 0.0851,-0.1433 0.1391,-0.1837 0.0492,-0.0409 0.1117,-0.0589 0.1789,-0.0589 h 9.2551 c 0.0671,0 0.1299,0.018 0.1881,0.0589 0.0586,0.0404 0.1036,0.0983 0.1389,0.1837 0.0319,0.0805 0.0628,0.1881 0.0854,0.3134 0.0226,0.1262 0.0316,0.2688 0.0316,0.4265 z m 11.0619,11.1869 c 0,0.1034 -0.0365,0.1834 -0.1037,0.2377 -0.0713,0.0542 -0.1654,0.0895 -0.2912,0.1163 -0.1214,0.0275 -0.301,0.0404 -0.5379,0.0404 -0.2246,0 -0.4083,-0.0129 -0.5426,-0.0404 -0.1345,-0.0268 -0.2331,-0.0621 -0.2963,-0.1163 -0.0626,-0.0543 -0.0942,-0.1304 -0.0942,-0.2377 v -1.1834 c -0.5153,0.5508 -1.0892,0.9817 -1.7264,1.2868 -0.6365,0.3002 -1.309,0.4528 -2.0175,0.4528 -0.6231,0 -1.1883,-0.0808 -1.6902,-0.2421 -0.5026,-0.1618 -0.9323,-0.3995 -1.2866,-0.7036 -0.3544,-0.3049 -0.6325,-0.6866 -0.8299,-1.1302 -0.1968,-0.4484 -0.296,-0.9554 -0.296,-1.5247 0,-0.6684 0.1343,-1.2464 0.4082,-1.7352 0.2691,-0.4937 0.6589,-0.9015 1.17,-1.2246 0.5071,-0.3223 1.1307,-0.569 1.8649,-0.7306 0.736,-0.1615 1.5654,-0.2418 2.4844,-0.2418 h 1.632 v -0.9236 c 0,-0.4533 -0.0491,-0.8567 -0.1435,-1.2111 -0.0986,-0.3494 -0.2509,-0.6411 -0.4659,-0.8742 -0.2156,-0.2329 -0.4937,-0.4075 -0.8338,-0.5248 -0.3414,-0.1207 -0.763,-0.1788 -1.2598,-0.1788 -0.5341,0 -1.0139,0.0622 -1.4355,0.1926 -0.4255,0.1297 -0.7978,0.2689 -1.116,0.4258 -0.3187,0.1572 -0.5878,0.2961 -0.8027,0.4263 -0.2107,0.1297 -0.3725,0.1929 -0.4756,0.1929 -0.0713,0 -0.1346,-0.0182 -0.1835,-0.0542 -0.0535,-0.0312 -0.0985,-0.0854 -0.1389,-0.1567 -0.0409,-0.0672 -0.0671,-0.1572 -0.0851,-0.265 -0.0183,-0.1116 -0.0273,-0.2284 -0.0273,-0.363 0,-0.2153 0.0131,-0.3895 0.0453,-0.5155 0.0311,-0.1251 0.1075,-0.2467 0.2235,-0.3589 0.1168,-0.1117 0.3231,-0.2469 0.6105,-0.4036 0.2864,-0.1526 0.6233,-0.2959 0.9995,-0.4256 0.3727,-0.1253 0.7851,-0.2338 1.233,-0.3184 0.444,-0.085 0.8968,-0.1261 1.3498,-0.1261 0.847,0 1.5696,0.0944 2.1654,0.2871 0.5966,0.1927 1.0764,0.4798 1.4437,0.8521 0.3682,0.3722 0.6321,0.834 0.7986,1.3858 0.1659,0.5513 0.2513,1.1965 0.2513,1.9323 z m -2.153,-5.4159 h -1.8517 c -0.5915,0 -1.1073,0.0492 -1.5467,0.1519 -0.4345,0.0987 -0.798,0.2515 -1.09,0.4486 -0.2863,0.1973 -0.4968,0.4302 -0.6364,0.7082 -0.1346,0.2781 -0.2017,0.5961 -0.2017,0.9555 0,0.6143 0.1927,1.1029 0.5829,1.4656 0.3895,0.363 0.9328,0.5477 1.6364,0.5477 0.565,0 1.0949,-0.1436 1.5786,-0.4353 0.4844,-0.2873 0.9953,-0.7311 1.5286,-1.3269 z m 14.851,5.403 c 0,0.0713 -0.0133,0.1292 -0.0445,0.1834 -0.0316,0.0541 -0.0851,0.0942 -0.1662,0.1253 -0.0807,0.0314 -0.1878,0.0543 -0.3313,0.0723 -0.1397,0.0173 -0.3231,0.0263 -0.5518,0.0263 -0.2151,0 -0.3903,-0.009 -0.5292,-0.0263 -0.1436,-0.018 -0.256,-0.0409 -0.3363,-0.0723 -0.0854,-0.0311 -0.1435,-0.0712 -0.1749,-0.1253 -0.0316,-0.0491 -0.045,-0.1121 -0.045,-0.1834 v -4.9735 h -1.2462 c -0.543,0 -0.9639,0.0452 -1.269,0.1306 -0.301,0.0893 -0.5737,0.2331 -0.8114,0.4394 -0.2424,0.2061 -0.4577,0.4708 -0.6506,0.789 -0.1927,0.3185 -0.3764,0.7085 -0.5511,1.1752 l -0.9596,2.3086 c -0.045,0.1124 -0.09,0.2066 -0.1435,0.2738 -0.0543,0.0715 -0.1302,0.1257 -0.2285,0.1656 -0.0988,0.0404 -0.2292,0.0674 -0.3815,0.0811 -0.1525,0.0133 -0.3406,0.0175 -0.569,0.0175 -0.1618,0 -0.3095,-0.004 -0.4348,-0.0129 -0.1265,-0.009 -0.2338,-0.0224 -0.3231,-0.0453 -0.0854,-0.0221 -0.1526,-0.0581 -0.193,-0.1075 -0.045,-0.0453 -0.0671,-0.1073 -0.0671,-0.1745 0,-0.0632 0.0221,-0.1618 0.0713,-0.2961 0.0491,-0.1347 0.1484,-0.3724 0.2961,-0.7131 l 0.9464,-2.2196 c 0.246,-0.5603 0.5469,-1.045 0.9053,-1.4481 0.3591,-0.408 0.7715,-0.709 1.2377,-0.9017 -0.852,-0.1567 -1.5245,-0.4975 -2.0316,-1.0177 -0.5019,-0.5246 -0.7527,-1.2153 -0.7527,-2.0756 0,-0.5698 0.1165,-1.0849 0.3542,-1.5474 0.238,-0.4618 0.5832,-0.8515 1.0447,-1.1702 0.4572,-0.3224 1.0221,-0.5694 1.6946,-0.7397 0.6686,-0.17 1.435,-0.255 2.3053,-0.255 0.2061,0 0.4528,0.004 0.7255,0.0129 0.2781,0.009 0.5611,0.0222 0.852,0.0404 0.2964,0.0178 0.5791,0.036 0.8572,0.0582 0.2732,0.0228 0.5109,0.0406 0.7126,0.0579 0.2645,0.027 0.4618,0.1216 0.5922,0.2922 0.1294,0.1657 0.1968,0.372 0.1968,0.6141 z m -2.1792,-10.5689 c -0.3139,-0.0451 -0.6362,-0.076 -0.9681,-0.0893 -0.3275,-0.0139 -0.6326,-0.018 -0.9146,-0.018 -0.5921,0 -1.0848,0.0491 -1.4802,0.1523 -0.3985,0.0985 -0.7129,0.2464 -0.9547,0.4347 -0.2375,0.1886 -0.4085,0.4124 -0.5068,0.6684 -0.1034,0.2511 -0.1523,0.5331 -0.1523,0.8433 0,0.3133 0.0579,0.5999 0.1745,0.851 0.1211,0.2516 0.296,0.4625 0.5381,0.6326 0.2377,0.1706 0.5472,0.3049 0.9192,0.3944 0.3774,0.0941 0.8971,0.1392 1.5695,0.1392 h 1.7754 z m 23.7602,3.4478 c 0,0.3369 -0.0404,0.579 -0.1258,0.7357 -0.0803,0.1525 -0.2056,0.2284 -0.3723,0.2284 H 54.6878 c -0.1659,0 -0.2866,-0.0759 -0.3676,-0.2284 -0.0764,-0.1567 -0.1163,-0.3988 -0.1163,-0.7357 0,-0.3224 0.0399,-0.5601 0.1163,-0.7168 0.081,-0.1526 0.2017,-0.229 0.3676,-0.229 h 12.6309 c 0.0764,0 0.1485,0.018 0.2156,0.0584 0.0672,0.0402 0.1168,0.0983 0.1567,0.1706 0.0404,0.0764 0.0722,0.1744 0.0944,0.2912 0.0224,0.1163 0.0314,0.2599 0.0314,0.4256 z m 15.0977,2.7127 c -0.4126,1.0139 -0.7939,1.843 -1.144,2.4892 -0.3494,0.6411 -0.7087,1.1431 -1.0759,1.5014 -0.3674,0.3592 -0.7669,0.6059 -1.1975,0.7358 -0.4304,0.1304 -0.9231,0.1975 -1.4836,0.1975 -0.1935,0 -0.3862,-0.0136 -0.5832,-0.0411 -0.1973,-0.026 -0.3852,-0.0625 -0.5608,-0.1114 -0.1747,-0.045 -0.327,-0.1034 -0.4659,-0.1613 -0.1344,-0.0633 -0.2334,-0.1168 -0.2918,-0.1659 -0.0623,-0.0451 -0.1073,-0.0993 -0.1386,-0.1572 -0.0312,-0.0535 -0.058,-0.1299 -0.0808,-0.2153 -0.0224,-0.0903 -0.0358,-0.1974 -0.0445,-0.3273 -0.009,-0.1299 -0.0142,-0.2917 -0.0142,-0.4705 0,-0.3363 0.0319,-0.574 0.0991,-0.7226 0.0674,-0.1523 0.1659,-0.2239 0.2963,-0.2239 0.0713,0 0.1516,0.0273 0.2416,0.0764 0.0946,0.0541 0.2061,0.1166 0.3365,0.184 0.1297,0.0718 0.2915,0.1343 0.4795,0.1834 0.1881,0.0543 0.408,0.081 0.6638,0.081 0.2199,0 0.4216,-0.0228 0.6099,-0.072 0.1878,-0.0494 0.3676,-0.1525 0.5382,-0.3092 0.1698,-0.1567 0.3494,-0.3813 0.5331,-0.6635 0.1844,-0.2868 0.3863,-0.6725 0.6011,-1.1661 l -6.0533,-12.1373 c -0.081,-0.1756 -0.1253,-0.3192 -0.1391,-0.4309 -0.0132,-0.1163 0.0177,-0.2014 0.0941,-0.2647 0.0723,-0.0622 0.193,-0.1034 0.3591,-0.1255 0.1701,-0.0221 0.3857,-0.0311 0.6587,-0.0311 0.2559,0 0.4574,0.009 0.6102,0.0272 0.1566,0.017 0.278,0.0443 0.3763,0.0852 0.0942,0.0401 0.1747,0.0892 0.229,0.1564 0.0579,0.0671 0.1075,0.1525 0.1525,0.2559 l 3.0308,6.201 c 0.3455,0.6903 0.6637,1.3586 0.9686,2.0002 0.3002,0.6452 0.5963,1.2866 0.8834,1.9279 h 0.0402 c 0.2377,-0.6683 0.48,-1.3318 0.7306,-1.9912 0.2469,-0.6632 0.5297,-1.3851 0.8481,-2.1748 l 2.3768,-6.0665 c 0.0261,-0.0807 0.0621,-0.1433 0.1115,-0.1975 0.045,-0.0531 0.1163,-0.0981 0.2063,-0.1294 0.0946,-0.0358 0.2202,-0.0633 0.3807,-0.0762 0.1618,-0.0139 0.3682,-0.0182 0.6192,-0.0182 0.2648,0 0.4708,0.0133 0.6275,0.0403 0.1572,0.0268 0.2737,0.0633 0.3409,0.1163 0.0715,0.054 0.1075,0.1214 0.1075,0.2107 0,0.0903 -0.0267,0.193 -0.0803,0.3141 z m 14.0965,2.5878 c 0,0.1474 -0.005,0.2776 -0.0138,0.3851 -0.009,0.1124 -0.0222,0.2017 -0.0443,0.2779 -0.0229,0.0766 -0.0492,0.1394 -0.081,0.198 -0.0314,0.0579 -0.0986,0.1431 -0.211,0.2506 -0.1075,0.1124 -0.2958,0.247 -0.5559,0.4127 -0.264,0.1615 -0.5603,0.3092 -0.8873,0.4347 -0.3324,0.1304 -0.6866,0.2336 -1.072,0.31 -0.3854,0.0803 -0.7846,0.1207 -1.1973,0.1207 -0.8523,0 -1.605,-0.139 -2.2595,-0.4217 -0.6593,-0.2781 -1.2111,-0.6858 -1.6498,-1.2238 -0.4445,-0.5379 -0.7805,-1.2021 -1.0136,-1.9819 -0.2331,-0.7849 -0.3501,-1.6863 -0.3501,-2.713 0,-1.1613 0.1433,-2.161 0.4262,-2.9999 0.2869,-0.8338 0.6767,-1.5197 1.1706,-2.0535 0.4975,-0.533 1.0805,-0.9277 1.7481,-1.1882 0.6725,-0.2553 1.3989,-0.3854 2.1792,-0.3854 0.3771,0 0.7401,0.036 1.0939,0.1073 0.3591,0.0671 0.6822,0.1615 0.9824,0.2742 0.2964,0.116 0.5652,0.2464 0.7939,0.399 0.2329,0.1477 0.4034,0.2778 0.5061,0.3807 0.108,0.1081 0.1798,0.1927 0.2197,0.2509 0.036,0.0632 0.0722,0.1353 0.0992,0.2199 0.0222,0.0811 0.0404,0.1752 0.0489,0.2827 0.009,0.1035 0.0137,0.2378 0.0137,0.3944 0,0.3411 -0.0404,0.5781 -0.1168,0.7178 -0.0803,0.1345 -0.1747,0.2017 -0.291,0.2017 -0.1306,0 -0.2827,-0.0723 -0.4533,-0.2197 -0.17,-0.1438 -0.3856,-0.3051 -0.6501,-0.4798 -0.2644,-0.175 -0.5829,-0.3363 -0.9549,-0.4801 -0.3727,-0.1481 -0.8121,-0.2196 -1.318,-0.2196 -1.0449,0 -1.8481,0.3994 -2.4035,1.2016 -0.5562,0.7978 -0.8343,1.9598 -0.8343,3.4794 0,0.7577 0.072,1.426 0.2148,2.0002 0.1482,0.5691 0.3591,1.0489 0.6416,1.4345 0.2781,0.3813 0.6229,0.6683 1.0316,0.8564 0.4078,0.1886 0.8739,0.2827 1.399,0.2827 0.5017,0 0.9413,-0.081 1.3177,-0.2377 0.3766,-0.1567 0.6997,-0.3313 0.9778,-0.5248 0.2781,-0.1878 0.5109,-0.3584 0.6993,-0.5109 0.1885,-0.1567 0.3323,-0.2331 0.4398,-0.2331 0.0582,0 0.1122,0.0183 0.1565,0.0533 0.0452,0.036 0.0812,0.0944 0.1124,0.1752 0.0314,0.0854 0.0535,0.188 0.0674,0.3185 0.0129,0.1253 0.0177,0.278 0.0177,0.453 z m 68.7512,0.2778 c 0,0.2689 -0.0134,0.52 -0.0404,0.7445 -0.027,0.228 -0.0671,0.4438 -0.1255,0.6455 -0.054,0.2017 -0.1343,0.3993 -0.2377,0.5961 -0.0986,0.1978 -0.2239,0.4036 -0.3723,0.6233 l -1.7887,2.6727 c -0.045,0.0715 -0.0942,0.1255 -0.1526,0.1705 -0.0581,0.0445 -0.1255,0.0806 -0.2017,0.1117 -0.081,0.0311 -0.1747,0.054 -0.2871,0.072 -0.1073,0.018 -0.2418,0.027 -0.3992,0.027 -0.1477,0 -0.2732,-0.005 -0.3764,-0.018 -0.0985,-0.0139 -0.1705,-0.0409 -0.2151,-0.072 -0.045,-0.036 -0.0671,-0.0805 -0.072,-0.1255 -0.004,-0.0492 0.009,-0.1122 0.045,-0.1927 l 1.7216,-3.578 v -1.6771 c 0,-0.2379 0.027,-0.4257 0.081,-0.5652 0.0492,-0.1386 0.1297,-0.2418 0.2287,-0.3141 0.1027,-0.0712 0.2282,-0.1163 0.3898,-0.1435 0.1574,-0.0263 0.3452,-0.0401 0.5649,-0.0401 0.2107,0 0.3944,0.0138 0.5518,0.0401 0.1609,0.0272 0.2871,0.0723 0.3898,0.1435 0.099,0.0723 0.1754,0.1755 0.2246,0.3141 0.0491,0.1395 0.0715,0.3273 0.0715,0.5652 z m 0,-8.6447 c 0,0.282 -0.0182,0.52 -0.0584,0.7127 -0.0401,0.1927 -0.1165,0.3501 -0.2238,0.4666 -0.1124,0.1207 -0.256,0.2017 -0.4307,0.2509 -0.1747,0.0494 -0.3992,0.0715 -0.6724,0.0715 -0.2828,0 -0.5117,-0.0221 -0.6864,-0.0715 -0.1747,-0.0492 -0.3182,-0.1302 -0.4214,-0.2509 -0.1075,-0.1165 -0.1791,-0.2739 -0.2199,-0.4666 -0.0402,-0.1927 -0.0582,-0.4307 -0.0582,-0.7127 0,-0.2961 0.018,-0.543 0.0582,-0.7398 0.0408,-0.1976 0.1124,-0.3591 0.2199,-0.4757 0.1032,-0.1211 0.2467,-0.2017 0.4214,-0.2508 0.1747,-0.0492 0.4036,-0.072 0.6864,-0.072 0.2732,0 0.4977,0.0228 0.6724,0.072 0.1747,0.0491 0.3183,0.1297 0.4307,0.2508 0.1073,0.1166 0.1837,0.2781 0.2238,0.4757 0.0402,0.1968 0.0584,0.4437 0.0584,0.7398 z m -9.4206,-0.3814 c -0.3141,-0.0451 -0.6364,-0.0762 -0.9685,-0.0893 -0.3273,-0.0139 -0.6324,-0.018 -0.9144,-0.018 -0.5922,0 -1.0851,0.0491 -1.4802,0.1525 -0.3988,0.0983 -0.7126,0.246 -0.9547,0.4345 -0.2377,0.1886 -0.4083,0.4127 -0.5068,0.6684 -0.1032,0.2511 -0.1525,0.5333 -0.1525,0.843 0,0.3134 0.0583,0.6005 0.1746,0.8516 0.1215,0.2515 0.2961,0.4622 0.5382,0.6321 0.2377,0.1705 0.547,0.3051 0.9192,0.3946 0.3771,0.0941 0.8971,0.1392 1.5695,0.1392 h 1.7756 z m 2.179,10.5686 c 0,0.0713 -0.0131,0.1297 -0.0442,0.1837 -0.0319,0.0541 -0.0854,0.0942 -0.1665,0.1256 -0.0805,0.0311 -0.1878,0.054 -0.3313,0.072 -0.1395,0.0173 -0.3231,0.0263 -0.5518,0.0263 -0.2151,0 -0.3905,-0.009 -0.5292,-0.0263 -0.1436,-0.018 -0.2557,-0.0409 -0.3363,-0.072 -0.0851,-0.0314 -0.1435,-0.0715 -0.1747,-0.1256 -0.0318,-0.0491 -0.045,-0.1124 -0.045,-0.1837 v -4.973 h -1.2464 c -0.543,0 -0.9637,0.045 -1.2688,0.1304 -0.301,0.0893 -0.5742,0.2328 -0.8119,0.4394 -0.2418,0.2061 -0.4576,0.4708 -0.6503,0.789 -0.1927,0.3183 -0.3764,0.7085 -0.5511,1.1752 l -0.9596,2.3086 c -0.045,0.1124 -0.09,0.2066 -0.1435,0.274 -0.054,0.0713 -0.1302,0.1253 -0.2287,0.1657 -0.0986,0.0401 -0.2287,0.0671 -0.3813,0.081 -0.1525,0.0131 -0.3404,0.0173 -0.5693,0.0173 -0.1615,0 -0.3092,-0.004 -0.4345,-0.0132 -0.1263,-0.009 -0.2338,-0.0221 -0.3231,-0.045 -0.0854,-0.0221 -0.1526,-0.0581 -0.193,-0.1075 -0.045,-0.045 -0.0671,-0.1073 -0.0671,-0.1747 0,-0.063 0.0221,-0.1616 0.0715,-0.2961 0.0492,-0.1343 0.1482,-0.3722 0.2959,-0.7126 l 0.9464,-2.2199 c 0.246,-0.5603 0.5469,-1.0447 0.9053,-1.4484 0.3591,-0.4075 0.7718,-0.7084 1.2377,-0.9011 -0.8521,-0.1567 -1.5245,-0.4978 -2.0313,-1.0178 -0.502,-0.5248 -0.753,-1.2155 -0.753,-2.0758 0,-0.5698 0.1165,-1.0849 0.3542,-1.5474 0.238,-0.4618 0.5832,-0.8513 1.0447,-1.1702 0.457,-0.3224 1.0221,-0.5694 1.6946,-0.7397 0.6684,-0.17 1.435,-0.2552 2.305,-0.2552 0.2061,0 0.4528,0.004 0.726,0.0131 0.2781,0.009 0.5609,0.0222 0.8521,0.0402 0.2961,0.018 0.5788,0.036 0.8569,0.0584 0.2732,0.0228 0.5109,0.0408 0.7126,0.0581 0.2642,0.027 0.4618,0.1214 0.5922,0.292 0.1297,0.1657 0.1968,0.3722 0.1968,0.6141 z m -14.851,-5.4029 h -1.8517 c -0.5915,0 -1.1073,0.0494 -1.5467,0.1518 -0.4348,0.0993 -0.798,0.2518 -1.09,0.4487 -0.2863,0.1975 -0.497,0.4306 -0.6365,0.7084 -0.1343,0.2781 -0.2016,0.5964 -0.2016,0.9555 0,0.6143 0.1926,1.1031 0.5831,1.4656 0.3896,0.3633 0.9324,0.5477 1.6362,0.5477 0.565,0 1.0946,-0.1436 1.5786,-0.4355 0.4846,-0.2869 0.9955,-0.7306 1.5286,-1.327 z m 2.1527,5.4161 c 0,0.1031 -0.036,0.1837 -0.1034,0.2377 -0.0713,0.0542 -0.1657,0.0895 -0.291,0.1165 -0.1214,0.027 -0.3009,0.0402 -0.5381,0.0402 -0.2246,0 -0.4083,-0.0132 -0.5428,-0.0402 -0.1346,-0.027 -0.2329,-0.0623 -0.2961,-0.1165 -0.0623,-0.054 -0.0942,-0.1302 -0.0942,-0.2377 v -1.1834 c -0.5151,0.5511 -1.0892,0.9817 -1.7262,1.2865 -0.6365,0.3003 -1.309,0.4528 -2.0177,0.4528 -0.6231,0 -1.1883,-0.0803 -1.6902,-0.2418 -0.5027,-0.1616 -0.9323,-0.3995 -1.2868,-0.7039 -0.3543,-0.3048 -0.6321,-0.6863 -0.8297,-1.1299 -0.197,-0.4486 -0.2961,-0.9554 -0.2961,-1.5245 0,-0.6683 0.1346,-1.2466 0.4083,-1.7354 0.2691,-0.4937 0.6586,-0.9012 1.1703,-1.2243 0.5068,-0.3224 1.1301,-0.5693 1.8649,-0.7309 0.7357,-0.1613 1.5649,-0.2418 2.4841,-0.2418 h 1.632 v -0.9236 c 0,-0.4533 -0.0491,-0.8569 -0.1435,-1.2111 -0.0983,-0.3494 -0.2509,-0.6414 -0.466,-0.8742 -0.2155,-0.2329 -0.4934,-0.4078 -0.834,-0.5248 -0.3411,-0.1207 -0.7625,-0.1788 -1.2595,-0.1788 -0.5338,0 -1.0136,0.0622 -1.4353,0.1926 -0.4255,0.1297 -0.798,0.2691 -1.116,0.4258 -0.319,0.1572 -0.588,0.2959 -0.8029,0.4263 -0.2107,0.1297 -0.3722,0.1927 -0.4756,0.1927 -0.0716,0 -0.1346,-0.018 -0.1837,-0.054 -0.0535,-0.0312 -0.0986,-0.0854 -0.1387,-0.1567 -0.0409,-0.0674 -0.0672,-0.1574 -0.0854,-0.265 -0.018,-0.1114 -0.027,-0.2287 -0.027,-0.3632 0,-0.2149 0.0131,-0.3895 0.0452,-0.5151 0.0312,-0.1255 0.1073,-0.2467 0.2239,-0.3591 0.1165,-0.1117 0.3231,-0.2467 0.6102,-0.4034 0.2861,-0.1525 0.6231,-0.2961 0.9997,-0.4258 0.3722,-0.1255 0.7846,-0.2335 1.2326,-0.3182 0.4445,-0.0854 0.897,-0.1263 1.3498,-0.1263 0.8472,0 1.5695,0.0944 2.1658,0.2871 0.5964,0.1927 1.0762,0.4798 1.4435,0.8521 0.3681,0.3722 0.6324,0.834 0.7985,1.3858 0.1657,0.5513 0.2511,1.1968 0.2511,1.9323 z m -12.9224,-0.0132 c 0,0.0713 -0.018,0.1297 -0.054,0.1796 -0.0352,0.0443 -0.0893,0.0893 -0.1698,0.1255 -0.0761,0.0312 -0.1885,0.0582 -0.328,0.0762 -0.1386,0.0173 -0.3133,0.0263 -0.524,0.0263 -0.2197,0 -0.3993,-0.009 -0.538,-0.0263 -0.1394,-0.018 -0.251,-0.045 -0.3362,-0.0762 -0.0813,-0.0362 -0.1394,-0.0812 -0.1754,-0.1255 -0.0355,-0.0499 -0.0535,-0.1083 -0.0535,-0.1796 v -10.3266 h -3.2556 c -0.1387,1.39 -0.3093,2.6277 -0.5061,3.7125 -0.1976,1.0852 -0.4175,2.0314 -0.6642,2.8384 -0.2462,0.8029 -0.5241,1.4844 -0.8292,2.0354 -0.3051,0.5521 -0.6413,0.9956 -1.0046,1.3318 -0.3673,0.3363 -0.762,0.5791 -1.1882,0.7268 -0.4217,0.1477 -0.8786,0.2238 -1.3581,0.2238 -0.0813,0 -0.1484,-0.0131 -0.2068,-0.0401 -0.0541,-0.027 -0.1032,-0.0716 -0.1385,-0.1436 -0.0321,-0.0671 -0.0584,-0.1657 -0.0764,-0.2961 -0.018,-0.1255 -0.027,-0.2871 -0.027,-0.4888 0,-0.2107 0.004,-0.3805 0.018,-0.5109 0.0132,-0.1297 0.0353,-0.2377 0.0672,-0.3141 0.0314,-0.0803 0.0715,-0.1297 0.1165,-0.1567 0.0492,-0.027 0.1076,-0.0401 0.1796,-0.0401 0.2912,0 0.5644,-0.0672 0.8291,-0.2017 0.2601,-0.1394 0.5068,-0.3633 0.7358,-0.6725 0.2287,-0.31 0.4435,-0.7175 0.6452,-1.2197 0.1978,-0.5067 0.3815,-1.1257 0.5521,-1.8607 0.1656,-0.7355 0.3223,-1.5965 0.4707,-2.5831 0.1477,-0.9817 0.291,-2.116 0.4214,-3.3943 0.0173,-0.2642 0.0806,-0.4569 0.1927,-0.5873 0.1076,-0.1256 0.2642,-0.1886 0.4659,-0.1886 h 6.0713 c 0.2066,0 0.3723,0.063 0.4886,0.1934 0.1214,0.1256 0.1795,0.3183 0.1795,0.5825 z m -15.8463,-5.4029 h -1.8518 c -0.5914,0 -1.1072,0.0494 -1.5469,0.1518 -0.4345,0.0993 -0.798,0.2518 -1.0897,0.4487 -0.2864,0.1975 -0.4971,0.4306 -0.6365,0.7084 -0.1345,0.2781 -0.2017,0.5964 -0.2017,0.9555 0,0.6143 0.1927,1.1031 0.583,1.4656 0.3897,0.3633 0.9325,0.5477 1.6362,0.5477 0.5649,0 1.0946,-0.1436 1.5785,-0.4355 0.4846,-0.2869 0.9956,-0.7306 1.5289,-1.327 z m 2.1525,5.4161 c 0,0.1031 -0.036,0.1837 -0.1032,0.2377 -0.0715,0.0542 -0.1657,0.0895 -0.2912,0.1165 -0.1214,0.027 -0.301,0.0402 -0.538,0.0402 -0.2245,0 -0.4085,-0.0132 -0.5428,-0.0402 -0.1345,-0.027 -0.233,-0.0623 -0.2961,-0.1165 -0.0625,-0.054 -0.0944,-0.1302 -0.0944,-0.2377 v -1.1834 c -0.515,0.5511 -1.089,0.9817 -1.7262,1.2865 -0.6364,0.3003 -1.3089,0.4528 -2.0174,0.4528 -0.6233,0 -1.1883,-0.0803 -1.6902,-0.2418 -0.5027,-0.1616 -0.9326,-0.3995 -1.2868,-0.7039 -0.3543,-0.3048 -0.6324,-0.6863 -0.8299,-1.1299 -0.1969,-0.4486 -0.2961,-0.9554 -0.2961,-1.5245 0,-0.6683 0.1345,-1.2466 0.4085,-1.7354 0.2688,-0.4937 0.6586,-0.9012 1.1703,-1.2243 0.5067,-0.3224 1.1298,-0.5693 1.8648,-0.7309 0.7355,-0.1613 1.5647,-0.2418 2.4841,-0.2418 h 1.6321 v -0.9236 c 0,-0.4533 -0.0494,-0.8569 -0.1436,-1.2111 -0.0985,-0.3494 -0.251,-0.6414 -0.4659,-0.8742 -0.2155,-0.2329 -0.4936,-0.4078 -0.834,-0.5248 -0.3411,-0.1207 -0.7628,-0.1788 -1.2598,-0.1788 -0.5338,0 -1.0136,0.0622 -1.435,0.1926 -0.4258,0.1297 -0.798,0.2691 -1.1163,0.4258 -0.3189,0.1572 -0.5878,0.2959 -0.8028,0.4263 -0.2107,0.1297 -0.3723,0.1927 -0.4757,0.1927 -0.0713,0 -0.1343,-0.018 -0.1837,-0.054 -0.0533,-0.0312 -0.0983,-0.0854 -0.1387,-0.1567 -0.0408,-0.0674 -0.0671,-0.1574 -0.0851,-0.265 -0.018,-0.1114 -0.027,-0.2287 -0.027,-0.3632 0,-0.2149 0.0131,-0.3895 0.045,-0.5151 0.0311,-0.1255 0.1075,-0.2467 0.2238,-0.3591 0.1166,-0.1117 0.3231,-0.2467 0.6102,-0.4034 0.2864,-0.1525 0.6233,-0.2961 0.9997,-0.4258 0.3723,-0.1255 0.7849,-0.2335 1.2328,-0.3182 0.4443,-0.0854 0.8971,-0.1263 1.3499,-0.1263 0.8471,0 1.5695,0.0944 2.1658,0.2871 0.5961,0.1927 1.0759,0.4798 1.4433,0.8521 0.3681,0.3722 0.6323,0.834 0.7987,1.3858 0.1657,0.5513 0.2509,1.1968 0.2509,1.9323 z m -11.0614,-11.1869 c 0,0.1747 -0.009,0.3231 -0.027,0.4435 -0.018,0.1255 -0.045,0.2248 -0.0854,0.3002 -0.0402,0.0813 -0.0852,0.1394 -0.1343,0.1796 -0.0543,0.0404 -0.1214,0.0584 -0.1976,0.0584 h -3.538 v 10.192 c 0,0.0713 -0.0173,0.1297 -0.0533,0.1796 -0.036,0.0443 -0.0903,0.0893 -0.1706,0.1255 -0.0805,0.0312 -0.1885,0.0582 -0.3321,0.0762 -0.1387,0.0173 -0.3182,0.0263 -0.5379,0.0263 -0.2151,0 -0.3898,-0.009 -0.529,-0.0263 -0.1435,-0.018 -0.2559,-0.045 -0.3362,-0.0762 -0.0854,-0.0362 -0.1435,-0.0812 -0.1749,-0.1255 -0.0312,-0.0499 -0.045,-0.1083 -0.045,-0.1796 v -10.192 h -3.5379 c -0.0671,0 -0.1296,-0.018 -0.1878,-0.0584 -0.0584,-0.0402 -0.1034,-0.0983 -0.1394,-0.1796 -0.0311,-0.0754 -0.0623,-0.1788 -0.0852,-0.3043 -0.0223,-0.1253 -0.0313,-0.2779 -0.0313,-0.4533 0,-0.1567 0.009,-0.2954 0.0313,-0.4168 0.0229,-0.1255 0.0541,-0.2287 0.0942,-0.3092 0.0401,-0.0852 0.0854,-0.1436 0.1394,-0.1837 0.0492,-0.0409 0.1117,-0.0589 0.1788,-0.0589 h 9.2549 c 0.0672,0 0.1302,0.018 0.1886,0.0589 0.0581,0.0401 0.1031,0.0985 0.1387,0.1837 0.0318,0.0805 0.063,0.1881 0.0851,0.3134 0.0229,0.1262 0.0319,0.269 0.0319,0.4265 z"
     style="fill:#1b1918;fill-rule:evenodd"
     id="path612" />
  <path
     d="m 120.6371,496.99498 c 0,0.1641 -0.009,0.31 -0.0327,0.4364 -0.0239,0.1321 -0.0566,0.2395 -0.0987,0.3245 -0.0421,0.0893 -0.0944,0.1503 -0.1648,0.1924 -0.0704,0.0421 -0.1452,0.061 -0.2251,0.061 h -9.851 c -0.1263,0 -0.2396,-0.0138 -0.3383,-0.0472 -0.0937,-0.0327 -0.1779,-0.0843 -0.2439,-0.1598 -0.0705,-0.0704 -0.122,-0.1778 -0.1547,-0.3143 -0.0334,-0.1358 -0.0472,-0.3049 -0.0472,-0.5068 0,-0.1836 0.009,-0.3434 0.0233,-0.4791 0.0145,-0.1365 0.0428,-0.2585 0.0893,-0.3666 0.0472,-0.1031 0.1081,-0.2062 0.1786,-0.3144 0.0704,-0.1031 0.164,-0.2156 0.2773,-0.3332 l 3.5588,-3.6627 c 0.8262,-0.845 1.484,-1.6008 1.9813,-2.2724 0.498,-0.6664 0.8784,-1.277 1.1507,-1.8309 0.2671,-0.5496 0.4457,-1.0476 0.5307,-1.4978 0.0842,-0.4508 0.1263,-0.8733 0.1263,-1.2683 0,-0.3942 -0.0653,-0.7695 -0.1968,-1.1216 -0.1364,-0.3521 -0.3245,-0.6621 -0.5778,-0.93 -0.2491,-0.2679 -0.5634,-0.4792 -0.9438,-0.6338 -0.3754,-0.1547 -0.8124,-0.2345 -1.3054,-0.2345 -0.5771,0 -1.0941,0.0798 -1.5543,0.2345 -0.4552,0.1546 -0.8589,0.3288 -1.2066,0.5118 -0.3427,0.183 -0.6338,0.3565 -0.864,0.5118 -0.2301,0.1547 -0.4036,0.2345 -0.5162,0.2345 -0.066,0 -0.127,-0.0189 -0.1785,-0.0559 -0.0516,-0.0377 -0.0937,-0.0944 -0.1271,-0.1786 -0.0327,-0.0798 -0.061,-0.1924 -0.0791,-0.3288 -0.0189,-0.1409 -0.0283,-0.305 -0.0283,-0.4974 0,-0.1364 0.004,-0.2541 0.0137,-0.3571 0.01,-0.0988 0.0233,-0.1881 0.0472,-0.2629 0.0233,-0.0704 0.0516,-0.1408 0.0893,-0.2069 0.0371,-0.061 0.1126,-0.1408 0.2207,-0.2395 0.1126,-0.0937 0.3006,-0.2251 0.5728,-0.3892 0.2672,-0.1691 0.6099,-0.3289 1.0186,-0.4886 0.4037,-0.1641 0.8545,-0.2955 1.3475,-0.4087 0.4886,-0.1075 1.0047,-0.1641 1.5449,-0.1641 0.8639,0 1.6197,0.122 2.2629,0.3659 0.6483,0.2396 1.1834,0.5728 1.611,0.9961 0.4269,0.4225 0.7463,0.9104 0.9576,1.4694 0.2112,0.559 0.3151,1.1551 0.3151,1.7889 0,0.5684 -0.0523,1.1361 -0.1503,1.6995 -0.1038,0.5634 -0.3151,1.1739 -0.6389,1.8317 -0.3289,0.657 -0.7979,1.3845 -1.4135,2.1874 -0.6106,0.803 -1.4273,1.7279 -2.4459,2.7755 l -2.8176,2.9439 h 7.7479 c 0.0704,0 0.1408,0.0189 0.2112,0.061 0.0704,0.0421 0.1314,0.1031 0.1779,0.183 0.0523,0.0849 0.0893,0.188 0.1132,0.31 0.0233,0.1219 0.0327,0.2679 0.0327,0.4319 z m 6.5877,-0.498 c 0,0.6527 -0.1082,1.0846 -0.3238,1.301 -0.2164,0.2156 -0.6055,0.3238 -1.1739,0.3238 -0.554,0 -0.9344,-0.1082 -1.1457,-0.3195 -0.2112,-0.2112 -0.3143,-0.6338 -0.3143,-1.2675 0,-0.6527 0.1074,-1.0847 0.3238,-1.3003 0.2156,-0.2164 0.6055,-0.3245 1.1739,-0.3245 0.5539,0 0.9344,0.1038 1.1456,0.3151 0.2062,0.2112 0.3144,0.6381 0.3144,1.2719 z m 14.692,-4.2159 c 0,0.9533 -0.1598,1.7983 -0.4843,2.5447 -0.3187,0.7419 -0.7746,1.3663 -1.3612,1.8781 -0.5874,0.5075 -1.2865,0.8923 -2.0989,1.1602 -0.8073,0.2671 -1.709,0.3985 -2.7,0.3985 -0.5539,0 -1.0752,-0.037 -1.5681,-0.1169 -0.498,-0.0755 -0.9394,-0.1742 -1.3242,-0.2867 -0.3848,-0.1126 -0.6999,-0.2251 -0.9482,-0.3383 -0.249,-0.1075 -0.4036,-0.1924 -0.4748,-0.2578 -0.0704,-0.066 -0.1169,-0.1219 -0.1452,-0.1786 -0.0283,-0.0566 -0.0515,-0.1219 -0.0747,-0.1974 -0.024,-0.0799 -0.0378,-0.1779 -0.0472,-0.2955 -0.01,-0.1176 -0.0146,-0.2628 -0.0146,-0.4276 0,-0.1547 0.005,-0.2912 0.0189,-0.4175 0.0145,-0.1219 0.0429,-0.2207 0.0799,-0.3005 0.0334,-0.0755 0.0798,-0.1365 0.127,-0.1692 0.0516,-0.0378 0.1082,-0.0566 0.1735,-0.0566 0.0944,0 0.2353,0.0566 0.4277,0.1742 0.1923,0.1125 0.4508,0.2345 0.7746,0.371 0.3289,0.1314 0.7274,0.2577 1.211,0.3753 0.4842,0.1176 1.0519,0.1786 1.714,0.1786 0.6149,0 1.1783,-0.0755 1.6901,-0.2207 0.5119,-0.1459 0.9584,-0.376 1.3293,-0.6904 0.371,-0.31 0.6621,-0.6999 0.8734,-1.1739 0.2113,-0.4741 0.3144,-1.0469 0.3144,-1.7279 0,-0.5677 -0.0893,-1.0708 -0.2679,-1.5072 -0.1779,-0.4363 -0.4552,-0.7978 -0.8262,-1.089 -0.371,-0.2867 -0.8407,-0.5024 -1.4135,-0.6483 -0.5677,-0.1408 -1.2444,-0.2112 -2.0328,-0.2112 -0.5634,0 -1.0425,0.0283 -1.4462,0.0842 -0.4036,0.0522 -0.7797,0.0798 -1.1318,0.0798 -0.2534,0 -0.4363,-0.061 -0.5489,-0.1778 -0.1081,-0.1177 -0.1648,-0.3478 -0.1648,-0.6861 v -7.2542 c 0,-0.3005 0.0705,-0.5256 0.2113,-0.6715 0.1459,-0.1452 0.3477,-0.2207 0.6149,-0.2207 h 7.893 c 0.0705,0 0.1409,0.0189 0.2113,0.061 0.0704,0.0428 0.127,0.1038 0.1742,0.188 0.0421,0.0799 0.0799,0.183 0.1031,0.3144 0.0233,0.127 0.0327,0.2773 0.0327,0.4508 0,0.3289 -0.0421,0.5873 -0.1314,0.7703 -0.0893,0.1829 -0.2113,0.2722 -0.371,0.2722 h -6.3713 v 5.0007 c 0.31,-0.0472 0.6243,-0.0755 0.9481,-0.0849 0.3245,-0.009 0.6948,-0.0138 1.1224,-0.0138 0.9816,0 1.8361,0.1219 2.5729,0.3666 0.7326,0.2388 1.3475,0.5866 1.8361,1.028 0.4929,0.4458 0.8639,0.9859 1.1129,1.6197 0.2534,0.6294 0.3805,1.3337 0.3805,2.1039 z m 6.7002,4.2159 c 0,0.6527 -0.1082,1.0846 -0.3238,1.301 -0.2164,0.2156 -0.6055,0.3238 -1.174,0.3238 -0.5539,0 -0.9343,-0.1082 -1.1456,-0.3195 -0.2112,-0.2112 -0.3143,-0.6338 -0.3143,-1.2675 0,-0.6527 0.1074,-1.0847 0.3238,-1.3003 0.2156,-0.2164 0.6054,-0.3245 1.1739,-0.3245 0.5539,0 0.9343,0.1038 1.1456,0.3151 0.2062,0.2112 0.3144,0.6381 0.3144,1.2719 z m 14.8328,0.5822 c 0,0.1743 -0.0145,0.3195 -0.0429,0.4371 -0.0276,0.1176 -0.0609,0.2156 -0.1074,0.286 -0.0472,0.0755 -0.0987,0.1271 -0.1597,0.1598 -0.061,0.0334 -0.122,0.0472 -0.183,0.0472 h -9.2971 c -0.061,0 -0.1219,-0.0138 -0.1786,-0.0472 -0.0515,-0.0327 -0.1081,-0.0843 -0.1546,-0.1598 -0.0516,-0.0704 -0.0893,-0.1684 -0.1176,-0.286 -0.0283,-0.1176 -0.0421,-0.2628 -0.0421,-0.4371 0,-0.164 0.0138,-0.3049 0.0421,-0.4225 0.0283,-0.1219 0.061,-0.2207 0.1031,-0.2955 0.0377,-0.0798 0.0893,-0.1364 0.1503,-0.1786 0.0609,-0.0421 0.127,-0.0609 0.1974,-0.0609 h 3.7048 v -13.5508 l -3.442,2.0568 c -0.1735,0.0893 -0.3143,0.1452 -0.4225,0.1641 -0.1031,0.0188 -0.188,0 -0.2534,-0.061 -0.066,-0.061 -0.1081,-0.1597 -0.1314,-0.2962 -0.0239,-0.1358 -0.0334,-0.3093 -0.0334,-0.5206 0,-0.1553 0.005,-0.2911 0.0189,-0.3993 0.0145,-0.1125 0.0378,-0.2018 0.0661,-0.2773 0.0283,-0.0704 0.0653,-0.1358 0.1176,-0.1924 0.0465,-0.0515 0.1125,-0.1082 0.1967,-0.1641 l 4.1041,-2.6252 c 0.037,-0.0276 0.0798,-0.0515 0.1357,-0.0704 0.0567,-0.0138 0.1271,-0.0327 0.207,-0.0515 0.0842,-0.0189 0.1785,-0.0327 0.2911,-0.0378 0.1081,-0.004 0.2439,-0.004 0.4131,-0.004 0.2163,0 0.4036,0.009 0.5495,0.0283 0.1452,0.0188 0.2578,0.0421 0.3427,0.0747 0.0842,0.0334 0.1358,0.0756 0.1641,0.122 0.0283,0.0523 0.0421,0.1038 0.0421,0.1597 v 15.6453 h 3.2212 c 0.0755,0 0.146,0.0188 0.2069,0.0609 0.0654,0.0422 0.1169,0.0988 0.1598,0.1786 0.0421,0.0748 0.0747,0.1736 0.098,0.2955 0.0239,0.1176 0.0334,0.2585 0.0334,0.4225 z m 14.8139,-8.015 c 0,1.3664 -0.1082,2.6158 -0.3238,3.7426 -0.2163,1.1267 -0.5728,2.0945 -1.0708,2.9061 -0.5024,0.8124 -1.1551,1.4368 -1.9624,1.8833 -0.808,0.4457 -1.8034,0.6664 -2.9867,0.6664 -1.1174,0 -2.0561,-0.1967 -2.8263,-0.596 -0.7652,-0.3993 -1.3809,-0.9859 -1.8499,-1.7606 -0.4653,-0.7753 -0.7986,-1.7278 -0.9953,-2.8597 -0.1975,-1.1318 -0.2962,-2.432 -0.2962,-3.8971 0,-1.3569 0.1081,-2.6013 0.3289,-3.7331 0.2207,-1.1318 0.5771,-2.1032 1.0752,-2.9156 0.4929,-0.8124 1.1456,-1.4367 1.9529,-1.8832 0.808,-0.4458 1.7983,-0.6665 2.9722,-0.6665 1.1275,0 2.0713,0.1975 2.8408,0.5961 0.7652,0.3993 1.3809,0.9866 1.8499,1.7612 0.4653,0.7747 0.7986,1.7279 0.996,2.859 0.1968,1.1318 0.2955,2.4328 0.2955,3.8971 z m -2.4226,0.1648 c 0,-0.8878 -0.0334,-1.6857 -0.0944,-2.3899 -0.0654,-0.7042 -0.1597,-1.3286 -0.2861,-1.8687 -0.1219,-0.5402 -0.2817,-1.0048 -0.4791,-1.3947 -0.1968,-0.3848 -0.432,-0.7093 -0.7086,-0.9576 -0.273,-0.2541 -0.5873,-0.437 -0.9394,-0.5496 -0.3565,-0.1176 -0.7514,-0.1735 -1.1928,-0.1735 -0.779,0 -1.4085,0.183 -1.8971,0.5489 -0.4835,0.3666 -0.8683,0.869 -1.1456,1.5122 -0.2817,0.6382 -0.469,1.3896 -0.5728,2.2535 -0.098,0.8596 -0.1503,1.7845 -0.1503,2.7748 0,1.3242 0.0704,2.456 0.2069,3.386 0.1365,0.9293 0.3572,1.6851 0.6527,2.2724 0.2955,0.5866 0.6759,1.0142 1.1413,1.277 0.4646,0.2679 1.0229,0.3993 1.685,0.3993 0.5118,0 0.9627,-0.0849 1.3525,-0.249 0.3899,-0.1641 0.7231,-0.3993 1.0048,-0.7042 0.2773,-0.31 0.5118,-0.6766 0.6948,-1.1086 0.1837,-0.432 0.3289,-0.906 0.4414,-1.4273 0.1082,-0.5213 0.1829,-1.089 0.2258,-1.6945 0.0421,-0.6105 0.061,-1.2443 0.061,-1.9065 z"
     style="fill:#1b1918;fill-rule:evenodd"
     id="path614" />
  <g
     id="Layer1027"
     transform="translate(-130.2517,-314.24472)">
    <path
       d="m 254.2245,378.8636 -76.5561,32.8442 c 1.9156,77.9495 1.375,153.9184 -2.102,227.5194 l -5.502,23.3804 127.0819,19.0266 33.7903,-236.4596 z"
       style="fill:#ffffff;fill-rule:evenodd"
       id="path616" />
    <path
       d="m 300.1971,509.222 c 24.1218,6.8489 48.8526,12.8928 58.1908,39.3179 2.8688,8.119 3.7549,14.2809 1.9965,22.7425 -3.425,16.481 -15.9506,31.9173 -39.4865,46.0893 -28.9933,8.6319 -56.3445,6.0695 -82.8498,-2.2573 -27.3403,-13.8235 -46.5606,-32.5959 -40.8637,-66.5561 12.045,-43.9334 32.0818,-40.3508 50.2437,-47.9178 -20.1112,5.496 -41.6267,4.5617 -54.3979,43.6786 -7.3986,29.4527 -0.3035,55.6625 41.8298,74.0337 28.1597,11.976 57.3216,9.4286 86.7501,3.0206 30.3887,-12.2864 38.9334,-31.182 42.8541,-49.8569 2.0913,-9.9632 2.1013,-11.7205 -1.2246,-21.5233 C 351.4349,515.206 325.0994,513.863 300.1971,509.222 Z"
       style="fill:#1b1918;fill-rule:evenodd"
       id="path618" />
    <path
       d="m 335.1596,575.3706 c -0.7126,12.3959 1.6507,23.5108 -5.6305,38.6441 -3.4255,1.9048 -6.8506,3.8093 -10.2761,5.7141 12.2274,-14.308 13.2436,-29.3896 15.9066,-44.3582 z"
       style="fill:#1b1918;fill-rule:evenodd"
       id="path620" />
    <path
       d="m 319.5489,586.1515 c -1.8927,11.6343 -0.755,22.3618 -9.1193,35.9344 -3.4219,1.4615 -7.6908,0.8879 -11.1126,2.3491 12.9532,-12.3063 16.2441,-24.4119 20.2319,-38.2835 z"
       style="fill:#1b1918;fill-rule:evenodd"
       id="path622" />
    <path
       d="m 218.6912,567.3349 c -0.9965,12.3763 -4.8638,23.0614 0.27,39.0513 3.1315,2.3572 6.2626,4.714 9.394,7.0712 -10.1465,-15.8517 -9.0819,-30.9299 -9.664,-46.1225 z"
       style="fill:#1b1918;fill-rule:evenodd"
       id="path624" />
    <path
       d="m 232.6734,580.1576 c 0.277,11.784 -2.3231,22.2536 4.0979,36.8463 3.1887,1.9176 7.496,1.9357 10.6847,3.853 -11.1404,-13.9686 -12.7376,-26.4115 -14.7826,-40.6993 z"
       style="fill:#1b1918;fill-rule:evenodd"
       id="path626" />
    <path
       d="m 302.5404,559.072 c -13.4383,13.8704 -51.9312,5.569 -58.0567,-3.7184 22.6907,30.3315 56.1709,13.2202 58.0567,3.7184 z"
       style="fill:#1b1918;fill-rule:evenodd"
       id="path628" />
    <path
       d="m 175.9639,646.1753 c 68.66,35.1495 148.4904,38.6337 203.7717,1.2788 -62.5681,44.5693 -138.551,32.0608 -203.8307,1.042 -0.2653,-1.612 0.3243,-0.7089 0.059,-2.3208 z"
       style="fill:#1b1918;fill-rule:evenodd"
       id="path630" />
    <path
       d="m 172.7466,335.9838 c 6.6077,99.8333 7.0676,212.3984 2.8267,308.0949 -4.9635,12.143 -6.7578,19.0595 -11.7214,31.2026 -4.4439,10.1176 -2.1723,18.8742 2.9885,21.5005 69.268,50.2425 170.8702,36.1083 222.5144,4.1283 6.868,-4.8053 8.6789,-13.7462 7.1387,-22.3101 -4.6392,-11.3846 -9.2788,-22.7695 -13.9181,-34.154 -12.9686,-106.9689 -1.7735,-206.5232 5.5197,-302.5405 l -2.1347,5.4443 c -1.7826,14.3642 -4.0652,31.7253 -4.6084,38.4498 -6.3215,78.2663 -12.9542,165.0285 -3.6094,242.1977 l 2.4436,17.1419 c 4.5742,11.2248 9.5528,23.7515 14.127,34.9763 0.9184,5.6733 -1.1052,15.5523 -6.3181,19.294 -29.3413,18.1211 -69.8267,26.9052 -103.2733,27.9375 -41.0041,1.266 -85.2357,-8.2284 -119.5497,-34.5203 -3.7795,-2.312 -0.8603,-12.6007 0.9038,-16.6172 3.9394,-9.2957 9.9411,-22.204 12.1257,-32.0952 4.1331,-93.2653 2.049,-214.6309 -3.6165,-308.164 z"
       style="fill:#1b1918;fill-rule:evenodd"
       id="path632" />
    <path
       d="m 394.4295,679.013 c -28.0654,15.3382 -57.6585,25.6388 -86.4561,30.2168 31.9146,-3.3462 55.8047,-12.5044 86.2317,-28.0618 0.3448,-1.6254 -0.1204,-0.5297 0.2244,-2.155 z"
       style="fill:#1b1918;fill-rule:evenodd"
       id="path634" />
    <path
       d="m 395.4954,684.3075 c -22.0122,12.4102 -45.2864,20.8609 -67.9943,24.7867 25.1845,-2.9874 43.9643,-10.4747 67.8404,-23.0834 0.2548,-1.2865 -0.101,-0.4167 0.1539,-1.7033 z"
       style="fill:#1b1918;fill-rule:evenodd"
       id="path636" />
    <path
       d="m 281.4566,314.3986 c 59.5066,1.5127 107.4656,13.7761 107.1195,27.3911 -0.3461,13.6151 -48.8663,23.4259 -108.3728,21.9132 -59.5065,-1.5127 -107.4656,-13.7762 -107.1195,-27.3912 0.3461,-13.615 48.8663,-23.4258 108.3728,-21.9131 z m -0.0239,0.9304 c 57.2613,1.4557 103.4105,13.2562 103.0775,26.3574 -0.3331,13.1012 -47.0223,22.542 -104.2836,21.0863 -57.261,-1.4556 -103.4102,-13.2564 -103.0772,-26.3576 0.3331,-13.1012 47.0223,-22.5417 104.2833,-21.0861 z"
       style="fill:#1b1918;fill-rule:evenodd"
       id="path638" />
    <path
       d="m 285.3029,319.467 c -53.4759,-1.9783 -97.8916,5.68 -105.1213,17.4732 l 2.1413,0.2009 c 7.2739,-11.2528 59.3589,-18.3565 102.9567,-16.7436 43.5978,1.6128 67.4966,6.8756 85.3642,14.1394 2.7831,0.5481 5.4665,1.1199 8.0456,1.7118 -17.3681,-8.5597 -52.605,-15.2729 -93.3865,-16.7817 z"
       style="fill:#1b1918;fill-rule:evenodd"
       id="path640" />
    <path
       d="m 285.8542,322.3463 c -41.8655,-1.0643 -77.7893,3.8048 -92.3597,11.5958 l 0.5311,0.9834 c 14.3591,-7.3289 55.0855,-12.6862 91.8079,-11.7527 36.7224,0.9335 63.1596,5.4935 79.8855,11.7816 2.6045,0.4615 5.1159,0.945 7.5297,1.4472 -16.2604,-7.4436 -49.2367,-13.0853 -87.3945,-14.0553 z"
       style="fill:#1b1918;fill-rule:evenodd"
       id="path642" />
    <path
       d="m 217.6393,432.3743 c 7.0515,-19.7397 34.2841,-30.2236 41.5583,-18.6826 7.0991,11.2644 3.4693,15.3593 -2.4039,14.2957 -0.2761,-0.05 -0.5462,-0.0962 -0.8158,-0.1396 l 0.0454,-0.0493 c 0.8027,-6.1515 -1.3131,-9.7773 -2.4985,-14.2094 0.6544,4.5534 1.7042,9.0051 0.6159,14.0029 -1.451,-0.1666 -2.8031,-0.2345 -4.082,-0.2149 0.784,-4.9001 -0.6337,-8.264 -1.255,-12.1824 0.1637,4.2349 0.3527,8.0275 -1.1418,12.3259 -8.6222,0.9208 -14.2022,6.0347 -25.8006,11.2854 -6.4179,2.9058 -5.3895,-3.1634 -4.222,-6.4317 z"
       style="fill:#1b1918;fill-rule:evenodd"
       id="path644" />
    <path
       d="m 346.5452,437.483 c -5.0914,-19.9874 -30.8071,-32.7651 -38.9962,-22.1267 -7.9909,10.381 -4.8125,14.7277 1.0398,14.2266 0.4302,-0.0367 0.8516,-0.0665 1.2642,-0.0893 -0.2061,-6.1614 2.2289,-9.5657 3.8186,-13.8535 -1.0714,4.4459 -2.5217,8.7553 -1.9341,13.7937 1.4663,-0.009 2.8219,0.076 4.095,0.243 -0.3174,-4.9437 1.4049,-8.1578 2.39,-11.9965 -0.562,4.2157 -1.108,7.9864 -0.005,12.4258 7.9834,1.8417 12.9995,7.2382 23.6,13.2901 6.0197,3.4368 5.5714,-2.6031 4.7279,-5.9132 z"
       style="fill:#1b1918;fill-rule:evenodd"
       id="path646" />
    <path
       d="m 279.9991,486.9301 c -9.4605,-4.1974 -29.7992,-2.4515 -31.3589,10.3349 0.475,8.4517 8.519,13.6203 21.6916,15.7048 16.3736,1.213 26.3539,-2.5036 34.779,-7.4207 -19.0106,17.8871 -59.827,9.9521 -59.1166,-9.3025 1.9153,-10.3567 12.1215,-12.9955 21.008,-13.7579 2.4639,-9.6473 3.0444,-19.6205 3.2453,-28.8652 1.0474,9.3782 1.0501,19.5915 -1.2697,29.2947 6.2724,1.1543 9.5065,2.2891 11.0213,4.0119 z"
       style="fill:#1b1918;fill-rule:evenodd"
       id="path648" />
    <path
       d="m 384.2745,430.5395 c 5.9865,-0.2618 11.9733,-0.5233 17.9599,-0.7849 5.7199,0.004 11.4395,0.008 17.1595,0.012 11.6099,0.907 22.3401,3.7143 26.542,20.6345 1.2843,5.1744 1.1864,6.9332 0.6557,12.1422 -3.3576,32.8856 -2.211,41.9618 -6.0302,75.6938 -3.651,28.5563 -19.7677,37.648 -32.506,46.0788 -9.2046,4.098 -18.4084,8.1961 -27.6125,12.2938 -3.45,1.6959 -4.1681,10.6139 -5.1585,18.8108 -0.6176,-16.6062 -1.2354,-33.2126 -1.853,-49.819 0.8584,4.5551 1.9788,8.8221 8.7964,6.8181 6.2565,-2.0996 12.5128,-4.1995 18.7685,-6.2991 4.8299,-1.6202 5.2805,-1.5317 8.8616,-5.5182 4.2795,-4.764 7.4988,-10.594 9.9089,-17.2307 3.1021,-8.5424 2.9931,-12.9175 3.4148,-21.6684 1.18,-24.4511 1.9452,-32.58 3.1247,-57.0316 1.0331,-10.9942 -3.2536,-12.301 -8.2674,-12.283 -10.819,1.1473 -21.6383,2.2944 -32.4573,3.4415 -5.9811,2.2716 -8.2755,12.1335 -10.0613,25.1509 1.2129,-17.0363 2.414,-33.5939 3.6269,-50.6302 1.9446,0.217 3.183,-0.0281 5.1273,0.1887 z m -10.679,142.1039 c 0.2536,6.83 1.1012,24.072 1.3556,30.9018 0.5169,-5.6011 1.3524,-6.2214 7.2819,-9.4581 6.9888,-3.8145 19.0377,-7.7475 24.1067,-10.0044 20.0467,-13.2511 29.7704,-18.1297 32.8744,-44.0517 3.524,-29.4322 2.0877,-44.4492 5.5503,-74.2225 0.6068,-5.2215 1.5214,-8.726 0.3197,-13.8232 -3.0171,-12.7901 -11.6809,-19.1534 -26.1093,-20.2947 -5.664,-0.004 -11.1264,-0.0123 -16.7903,-0.0163 -7.7483,0.3387 -15.3705,0.1398 -23.1031,0.127 -0.5623,7.8826 -3.242,35.2109 -3.8082,43.0933 5.5808,-27.9169 6.4611,-20.6702 36.7044,-23.8765 13.966,-1.4781 15.845,6.1586 14.7099,18.4169 -0.8724,18.0795 -0.5193,42.2335 -2.9401,65.8108 -0.6871,6.6904 -4.4511,12.0509 -6.3664,15.4405 -9.1509,16.1908 -11.6996,15.04 -21.8744,18.4535 -4.3981,1.4752 -10.3666,4.11 -14.6116,5.3673 -2.1328,0.6268 -5.3162,-1.2372 -7.2995,-1.8637 z"
       style="fill:#1b1918;fill-rule:evenodd"
       id="path650" />
    <path
       d="m 173.7642,653.2235 c 27.5696,14.1139 56.9401,23.1168 85.7994,26.4259 -32.0712,-1.938 -55.7386,-10.0496 -85.6829,-24.2783 -0.2653,-1.612 0.1488,-0.5356 -0.1165,-2.1476 z"
       style="fill:#1b1918;fill-rule:evenodd"
       id="path652" />
    <path
       d="m 172.4168,658.5712 c 21.6039,11.4502 44.6852,18.8808 67.4256,21.8063 -25.2904,-1.8765 -43.8804,-8.5414 -67.3572,-20.1079 -0.1917,-1.2767 0.1233,-0.4217 -0.0684,-1.6984 z"
       style="fill:#1b1918;fill-rule:evenodd"
       id="path654" />
    <path
       d="m 296.269,536.8074 c -18.4463,-5.9426 -42.4422,-8.5094 -53.2022,2.7106 2.3596,5.2255 7.0099,4.2831 14.0897,-1.7127 5.8635,-4.9661 19.7267,-4.292 30.5908,0.5425 21.3236,15.6077 21.8107,1.4372 8.5217,-1.5404 z"
       style="fill:#1b1918;fill-rule:evenodd"
       id="path656" />
    <path
       d="m 233.6747,451.6819 c -1.7138,1.8757 -1.6847,21.3349 9.4708,22.2269 2.892,0.2313 11.9181,-1.2175 14.1931,-2.6368 5.944,-3.7101 4.4131,-16.1708 2.0972,-18.86 -9.5263,-11.0575 -23.4837,-3.2201 -25.7611,-0.7301 z"
       style="fill:#1b1918;fill-rule:evenodd"
       id="path658" />
    <path
       d="m 244.3954,472.6819 c 2.5599,0.2419 9.5669,-0.53 11.582,-1.7954 5.2676,-3.3054 3.0811,-13.319 1.9296,-16.3462 -2.9009,-7.6229 -12.2023,-6.1109 -17.3609,-4.1973 -7.7753,2.883 -6.869,21.3252 3.8493,22.3389 z"
       style="fill:#ffffff;fill-rule:evenodd"
       id="path660" />
    <g
       id="Layer1028">
      <path
         d="m 253.5818,470.32 c 1.3233,-1.1444 2.2575,-17.5769 -5.4255,-17.375 -1.9932,0.0527 -8.0586,1.6201 -9.516,2.698 -3.8075,2.8151 -1.2305,13.7563 0.6954,15.1937 7.4102,5.5294 11.9101,1.5024 14.2461,-0.5167 z"
         style="fill:#1b1918;fill-rule:evenodd"
         id="path662" />
      <path
         d="m 256.5797,464.2091 c 0.5893,-0.2958 0.8184,-6.3725 -1.967,-6.2992 -0.7227,0.0191 -2.9217,0.5873 -3.4501,0.9781 -1.3804,1.0206 -0.5174,5.0621 0.2522,5.5084 1.4551,0.8441 2.2437,0.2293 3.6303,0.008 0.3976,-0.0635 1.2433,-0.0492 1.5346,-0.1955 z"
         style="fill:#ffffff;fill-rule:evenodd"
         id="path664" />
      <path
         d="m 248.8858,459.1142 c 0.2612,-0.1312 0.3628,-2.8245 -0.8719,-2.7921 -0.3202,0.009 -1.2949,0.2603 -1.5291,0.4336 -0.6119,0.4523 -0.2294,2.2437 0.1117,2.4415 0.645,0.3741 0.9945,0.1016 1.6091,0.004 0.1762,-0.0281 0.5511,-0.0218 0.6802,-0.0866 z"
         style="fill:#ffffff;fill-rule:evenodd"
         id="path666" />
    </g>
    <path
       d="m 255.4486,438.5274 c 4.049,2.0405 11.3702,7.307 11.3702,12.1415 0,1.6601 -4.3458,-0.5971 -8.4303,0.7904 -1.5886,0.5396 -5.7509,-0.1651 -11.6428,1.8499 -4.6595,1.5935 -5.7049,0 -11.8815,4.8182 -0.4249,0.3321 -4.8777,3.1396 -5.2183,3.1396 -5.6929,-9.5251 1.3442,-25.3565 17.495,-22.2247 0.454,0.0879 8.0825,-0.6282 8.3077,-0.5149 z"
       style="fill:#ffffff;fill-rule:evenodd"
       id="path669" />
    <path
       d="m 267.3348,452.5715 c 3.9218,-0.3099 -16.9614,-7.9768 -36.5027,6.7701 -2.3634,1.7832 -1.3656,7.1723 -0.1497,5.7325 8.5379,-10.1118 25.7233,-11.6392 36.6524,-12.5026 z"
       style="fill:#1b1918;fill-rule:evenodd"
       id="path671" />
    <path
       d="m 297.5214,453.1515 c -1.7138,1.8758 -1.6846,21.3349 9.4709,22.2269 2.892,0.2313 11.9181,-1.2175 14.193,-2.6368 5.9441,-3.7101 4.4132,-16.1708 2.0972,-18.86 -9.5263,-11.0575 -23.4836,-3.2201 -25.7611,-0.7301 z"
       style="fill:#1b1918;fill-rule:evenodd"
       id="path673" />
    <path
       d="m 308.2422,474.1515 c 2.5598,0.2419 9.5668,-0.53 11.5819,-1.7954 5.2676,-3.3054 3.0812,-13.3189 1.9296,-16.3462 -2.9008,-7.6229 -12.2022,-6.1109 -17.3609,-4.1973 -7.7753,2.883 -6.8689,21.3252 3.8494,22.3389 z"
       style="fill:#ffffff;fill-rule:evenodd"
       id="path675" />
    <g
       id="Layer1029">
      <path
         d="m 317.4285,471.7896 c 1.3234,-1.1444 2.2576,-17.5769 -5.4255,-17.375 -1.9931,0.0527 -8.0586,1.6201 -9.5159,2.698 -3.8076,2.8151 -1.2306,13.7563 0.6953,15.1937 7.4102,5.5294 11.9101,1.5024 14.2461,-0.5167 z"
         style="fill:#1b1918;fill-rule:evenodd"
         id="path677" />
      <path
         d="m 320.4264,465.6788 c 0.5894,-0.2959 0.8185,-6.3726 -1.967,-6.2993 -0.7226,0.0191 -2.9216,0.5873 -3.45,0.9781 -1.3804,1.0206 -0.5174,5.0621 0.2521,5.5085 1.4551,0.844 2.2438,0.2292 3.6304,0.008 0.3975,-0.0635 1.2433,-0.0492 1.5345,-0.1954 z"
         style="fill:#ffffff;fill-rule:evenodd"
         id="path679" />
      <path
         d="m 312.7325,460.5838 c 0.2613,-0.1312 0.3628,-2.8245 -0.8718,-2.7921 -0.3203,0.009 -1.295,0.2603 -1.5292,0.4336 -0.6118,0.4523 -0.2293,2.2437 0.1118,2.4415 0.6449,0.3741 0.9945,0.1016 1.6091,0.004 0.1762,-0.0281 0.5511,-0.0218 0.6801,-0.0866 z"
         style="fill:#ffffff;fill-rule:evenodd"
         id="path681" />
    </g>
    <path
       d="m 303.9052,439.997 c -4.049,2.0405 -11.3701,7.307 -11.3701,12.1415 0,1.6601 4.3458,-0.5971 8.4302,0.7904 1.5886,0.5396 5.7509,-0.1651 11.6428,1.8499 4.6596,1.5935 5.7049,0 11.8815,4.8182 0.425,0.3321 4.8777,3.1396 5.2184,3.1396 5.6928,-9.5251 -1.3443,-25.3565 -17.4951,-22.2247 -0.454,0.0879 -8.0825,-0.6282 -8.3077,-0.5149 z"
       style="fill:#ffffff;fill-rule:evenodd"
       id="path684" />
    <path
       d="m 292.0191,454.0411 c -3.9219,-0.3099 16.9613,-7.9768 36.5027,6.7701 2.3633,1.7832 1.3656,7.1723 0.1496,5.7325 -8.5379,-10.1118 -25.7233,-11.6392 -36.6523,-12.5026 z"
       style="fill:#1b1918;fill-rule:evenodd"
       id="path686" />
    <g
       id="Layer1030">
      <path
         d="m 373.5206,384.3122 c -14.7604,8.4987 -13.804,10.6496 -13.2567,19.5622 0.2899,4.7188 -5.163,4.3572 -11.6076,-3.414 -38.0902,-45.9262 -75.68,-64.2296 -55.3793,-27.3327 1.3046,2.371 11.9409,9.9902 13.6201,12.8123 4.3226,7.2659 14.3871,12.6069 21.3818,23.0104 3.9667,5.9003 -16.4149,7.5735 -21.0956,2.8331 -2.506,-2.5383 -21.502,-10.716 -24.6204,-12.0092 -40.2014,-16.6769 -23.958,1.7718 -21.3163,8.111 0.3232,0.7756 30.5894,20.0119 31.3241,20.1786 2.1195,0.479 7.7304,11.8796 -4.1826,6.7524 -32.9741,-14.1923 -39.6277,-5.6221 1.665,18.9019 12.8568,7.6353 21.2455,4.203 36.6883,19.506 6.6102,6.5493 46.7366,38.9087 56.2386,36.7197 30.7724,-7.0926 28.087,-8.9923 2.7307,-41.8361 -3.771,-4.8847 -4.4365,-7.3412 -5.1206,-15.2641 -0.3628,-4.1991 3.6725,-6.2731 0.2446,-21.8095 -1.3244,-6.0036 -0.7882,-17.5548 -0.4586,-25.7202 0.1983,-4.8951 11.3805,-6.5779 10.985,-7.1187 -0.2714,-0.3734 2.3081,-20.9032 -17.8405,-13.8831 z"
         style="fill:#ffffff;fill-rule:evenodd"
         id="path688" />
      <path
         d="m 295.7505,403.2209 c 7.9559,5.1226 24.9163,16.1009 29.5034,7.2424 l -3.3797,-6.5487 c -1.7063,-2.1692 -5.2204,-5.4883 -7.2778,-7.6199 -9.3734,-9.7191 -34.8192,-32.3791 -27.9542,-41.5926 28.7434,-17.2255 48.9577,45.7252 70.8988,49.5481 0.1925,-0.4313 0.1031,-1.4513 0.484,-1.3252 2.0768,0.6918 -2.5891,-15.1837 14.5029,-21.3479 4.8961,-1.7651 8.5407,-2.0918 12.5711,-0.3859 5.6562,2.3944 9.915,7.4278 9.1124,12.6636 -4.4191,12.9366 -14.709,3.8763 -12.1747,20.5123 2.6513,17.3994 3.7921,18.0852 2.1013,34.6149 -0.3529,3.4607 2.0805,9.2647 1.1633,13.0763 4.6078,11.9287 7.6865,17.1369 21.0197,29.0135 -0.9447,-0.1754 -20.8327,-17.9893 -23.569,-26.5779 -6.4912,-20.3626 3.3471,-7.6149 -3.9843,-46.3818 -4.1895,-22.1538 10.8097,-15.7952 11.6713,-24.4841 1.1499,-11.582 -17.5111,-16.6197 -27.5741,-0.5928 -5.384,8.5758 2.3893,10.8877 -4.5842,15.6366 -19.5479,-3.5067 -45.9938,-65.5313 -67.5218,-49.6233 0.2815,18.4784 34.1854,35.8087 38.2278,51.448 -7.066,12.8653 -20.5651,3.6148 -31.0641,-2.4663 -11.8754,-6.8784 -23.2613,-11.976 -35.056,-15.1414 -4.0703,-1.0907 -8.4255,0.6547 -4.9496,7.4423 9.2747,18.1063 46.2189,31.2837 51.4319,41.5237 -2.6391,-0.6304 -0.2919,0.7386 -3.5098,-1.5921 -0.5367,-0.3907 -4.2118,-3.8257 -5.1419,-4.6262 -8.0838,2.7031 -9.5138,2.2511 -18.2713,-1.7864 -3.5251,-1.6237 -6.1398,-3.0885 -9.674,-4.5965 -5.978,-2.5501 -4.8377,-2.6793 -9.6527,-0.6459 -1.1063,14.677 42.7608,33.8775 50.6303,30.227 l 1.6973,-0.9837 c 24.6667,29.5041 27.3858,17.5758 39.7046,20.6991 l -11.0092,3.5171 33.7408,34.5163 c -8.9684,-4.4063 -27.5973,-28.1772 -43.7449,-37.1147 -11.6668,-6.4577 -15.1405,-14.7275 -26.5566,-17.3821 -8.9973,-2.0914 -17.8701,-4.6418 -26.8853,-9.3138 -6.941,-3.6001 -15.665,-9.837 -19.8329,-17.0353 -4.0348,-6.9708 -2.281,-2.5039 -1.5246,-7.5804 8.8469,-11.4455 22.3426,6.3238 34.8048,5.7674 -8.7984,-8.0656 -20.3606,-13.3237 -30.4818,-23.0315 -22.5798,-21.6566 -7.3718,-23.4648 8.0104,-19.4527 10.1909,2.6579 17.8175,7.736 24.0984,11.7805 z"
         style="fill:#1b1918;fill-rule:evenodd"
         id="path690" />
    </g>
    <path
       d="m 130.2517,621.352 c 1.5808,-15.0976 4.8068,-9.0775 3.9902,-26.5237 -0.3952,-8.4458 5.8572,-10.3701 0.9788,-20.6949 -3.93,-8.319 15.9206,-18.7231 15.9206,-24.7998 -3.4279,-18.0255 26.0903,-20.9846 34.3895,-13.7754 1.4059,1.2218 50.359,7.4323 27.3085,28.6768 -19.384,17.8648 13.8638,29.1492 -13.6946,37.5546 -14.8455,4.5278 -14.4525,8.7674 -32.5516,21.1241 -9.05,6.1787 -11.6251,18.6587 -36.3414,-1.5617 z"
       style="fill:#ffffff;fill-rule:evenodd"
       id="path693" />
    <g
       id="Layer1031">
      <path
         d="m 199.976,567.5742 c 10.1689,-0.3612 16.2353,-13.4672 3.3174,-23.503 -3.3979,-2.6392 -6.0589,-3.7651 -8.075,-7.4782 11.2056,4.1044 29.7983,10.8573 20.0772,23.7989 -15.3753,20.4695 -7.9828,14.2262 -4.0212,33.7133 -4.5926,5.8678 -10.8324,7.9517 -16.4376,2.5171 -4.4589,-8.7632 0.99,-6.227 5.2339,-11.8416 6.4241,-8.4997 0.0187,-9.596 -0.0947,-17.2065 z m 0,0 c -15.6632,-5.1937 -16.6864,-7.7207 -33.5523,-9.6464 2.3441,3.0027 3.3936,2.6659 10.0624,3.8927 4.0261,0.7398 7.7573,1.8054 11.6729,3.3332 28.0321,10.9484 2.0151,30.4699 -26.4952,22.899 l 1.4166,2.3301 c 4.3987,1.1162 8.6288,1.5524 13.1951,1.5427 5.64,-0.014 8.7649,-1.3532 13.3904,-0.9081 l 2.019,8.3125 c -8.4253,9.4245 -7.6375,9.6611 -15.9018,11.702 -0.0486,-0.242 0.2316,-0.88 0.1695,-0.719 l 1.7827,-4.3805 c -9.5045,2.4699 -6.7881,2.5839 -19.1531,3.481 3.1823,4.1195 5.5052,1.5868 8.8375,3.0749 4.0662,1.8136 0.0117,-2.2619 1.7667,1.6713 3.4641,7.8887 -7.7094,6.7886 -6.3663,14.4851 6.5258,-4.5309 8.2585,-10.8579 15.7476,-14.0033 10.2152,-4.2934 8.1069,-5.0468 16.4164,-12.5192 7.4085,0.1853 13.3746,1.6513 17.2686,-4.9933 4.5866,-7.8315 -0.4386,-12.4942 -2.1832,-17.8924 -4.4434,-13.7432 21.783,-22.0373 6.5237,-35.4697 -11.7712,-10.3608 -46.0853,-15.897 -60.3896,-8.7089 -9.6968,4.8729 -5.5299,9.0451 -6.3001,16.9661 -1.2156,2.3078 -13.796,5.6293 -15.3732,19.8459 -0.8444,7.6168 0.616,4.1275 1.343,8.6313 0.8206,5.0729 -2.9435,6.8988 -2.0848,16.0502 0.5987,6.3892 0.2263,13.2273 -1.5826,19.4863 2.5489,-2.1265 0.7542,0.824 2.7734,-3.9721 0.387,-0.9234 1.3282,-5.5531 1.6102,-6.6983 5.1287,8.4611 14.3478,15.8071 25.6804,11.7946 -7.6604,-7.6163 -22.4916,2.2257 -24.7057,-21.1662 -0.2761,-2.9151 -0.4352,-2.8768 -0.494,-3.3277 -1.0992,-8.4534 0.6538,-6.4845 4.9672,-11.7421 -2.2993,-2.5194 -5.524,-0.5218 -5.5786,-7.5404 -0.0414,-5.1048 2.6539,-9.8885 6.0843,-12.4656 3.2395,-2.4341 7.3323,-2.6661 9.5173,-6.8904 2.5808,-4.9903 -0.4055,-5.9558 -0.1318,-12.3945 4.6373,-12.0668 44.2847,-8.5438 53.7658,10.668 4.1428,8.3966 0.4763,10.3436 -3.9788,13.91 -0.2257,0.1807 -0.6878,0.5362 -0.8721,0.6816 -0.1836,0.1438 -0.6002,0.4279 -0.8675,0.6796 z"
         style="fill:#1b1918;fill-rule:evenodd"
         id="path695" />
      <path
         d="m 163.0804,590.3828 -1.4166,-2.3301 -3.806,1.6615 z"
         style="fill:#1b1918;fill-rule:evenodd"
         id="path697" />
    </g>
  </g>
  <path
     d="m -17.6244,-261.85822 c 0,3.1244 0.6831,5.4638 2.0489,7.0107 1.3742,1.5545 3.0934,2.3315 5.1735,2.3315 2.0568,0 3.7689,-0.777 5.1426,-2.3395 1.3657,-1.5621 2.0489,-3.9413 2.0489,-7.1362 0,-3.0149 -0.6908,-5.2994 -2.0645,-6.8459 -1.3742,-1.5546 -3.0855,-2.3318 -5.127,-2.3318 -2.0801,0 -3.7993,0.7693 -5.1735,2.3162 -1.3658,1.5465 -2.0489,3.8783 -2.0489,6.995 z m -4.2395,-0.008 c 0,-4.5142 1.2563,-7.8585 3.776,-10.0332 2.0962,-1.806 4.6639,-2.7088 7.6859,-2.7088 3.3528,0 6.1004,1.0992 8.2357,3.2975 2.1277,2.1903 3.1953,5.2285 3.1953,9.0989 0,3.1403 -0.4706,5.6056 -1.4131,7.4036 -0.942,1.7977 -2.3162,3.1952 -4.1216,4.1921 -1.798,0.997 -3.7686,1.4916 -5.8963,1.4916 -3.4226,0 -6.1861,-1.091 -8.2979,-3.2814 -2.1121,-2.1903 -3.164,-5.3467 -3.164,-9.4603 z m -18.8028,8.8322 h 5.4408 c 2.3395,0 3.949,-0.2747 4.8203,-0.8167 0.8711,-0.5491 1.3269,-1.4839 1.3734,-2.8264 0,-0.7773 -0.2508,-1.5072 -0.7531,-2.1742 -0.5103,-0.6675 -1.1702,-1.0916 -1.9783,-1.264 -0.809,-0.1808 -2.1121,-0.267 -3.9019,-0.267 h -5.0012 z m 0,-10.7399 h 4.3965 c 1.7507,0 2.9597,-0.0939 3.6114,-0.2747 0.659,-0.1888 1.2484,-0.5576 1.7662,-1.1228 0.5179,-0.5576 0.7773,-1.2322 0.7773,-2.0174 0,-1.2957 -0.455,-2.1904 -1.3581,-2.7012 -0.9107,-0.5102 -2.4653,-0.7611 -4.6632,-0.7611 h -4.5301 z m -4.1454,-10.3159 h 9.5389 c 2.3394,0 4.0824,0.1965 5.2285,0.5885 1.1384,0.3929 2.1197,1.1072 2.9364,2.1515 0.824,1.0522 1.2325,2.3 1.2325,3.7604 0,1.1696 -0.2432,2.1904 -0.7223,3.0538 -0.4867,0.8714 -1.2089,1.6019 -2.1824,2.1827 1.1461,0.3844 2.0963,1.0992 2.8574,2.1509 0.7537,1.0443 1.1304,2.2927 1.1304,3.7293 -0.1491,2.3159 -0.9808,4.0351 -2.4806,5.1499 -1.4995,1.1229 -3.6822,1.6804 -6.5395,1.6804 h -10.9993 z m -26.316,0 h 4.1454 v 18.6458 l 11.5172,-18.6458 h 4.4512 v 24.4474 h -4.1454 v -18.5278 l -11.5015,18.5278 h -4.4669 z m -33.2952,-9.28 h 26.4731 v 33.7274 h -4.4748 v -29.7706 h -17.5235 v 29.7706 h -4.4748 z"
     style="fill:#1b1918;fill-rule:evenodd"
     id="path701" />
</svg>
