<?xml version="1.0" encoding="UTF-8" standalone="no"?>
<svg version="1.1" width="416.19937" height="515.20667" id="svg826" viewBox="0 0 416.19937 515.20667"
    xmlns="http://www.w3.org/2000/svg">
  <defs
     id="defs830" />
  <path
     d="m 3.1539494,-119.87004 c 0,0.072 -0.0178,0.1341 -0.0538,0.1837 -0.0352,0.0533 -0.0939,0.0935 -0.1832,0.1253 -0.089,0.0309 -0.2052,0.0578 -0.348,0.0799 -0.148,0.0221 -0.3221,0.0312 -0.5321,0.0312 -0.2322,0 -0.4153,-0.009 -0.5542,-0.0312 -0.1429,-0.0221 -0.2548,-0.049 -0.3438,-0.0799 -0.0893,-0.0318 -0.14739998,-0.072 -0.18309998,-0.1253 -0.036,-0.0496 -0.0539,-0.1117 -0.0539,-0.1837 v -7.5155 H -6.7927506 v 7.5155 c 0,0.072 -0.0179,0.1341 -0.0533,0.1837 -0.0358,0.0533 -0.0939,0.0935 -0.1837,0.1253 -0.0842,0.0309 -0.201,0.0578 -0.3442,0.0799 -0.1471,0.0221 -0.3259,0.0312 -0.5451,0.0312 -0.21,0 -0.3883,-0.009 -0.536,-0.0312 -0.1471,-0.0221 -0.2681,-0.049 -0.3532,-0.0799 -0.089,-0.0318 -0.1471,-0.072 -0.1831,-0.1253 -0.0357,-0.0496 -0.053,-0.1117 -0.053,-0.1837 v -16.2644 c 0,-0.0717 0.0173,-0.134 0.053,-0.1831 0.036,-0.0538 0.0941,-0.0938 0.1831,-0.125 0.0851,-0.0317 0.2061,-0.0587 0.3532,-0.0808 0.1477,-0.0221 0.326,-0.0312 0.536,-0.0312 0.2192,0 0.398,0.009 0.5451,0.0312 0.1432,0.0221 0.26,0.0491 0.3442,0.0808 0.0898,0.0312 0.1479,0.0712 0.1837,0.125 0.0354,0.0533 0.0533,0.1114 0.0533,0.1831 v 6.7916 h 7.69460002 v -6.7916 c 0,-0.0717 0.0179,-0.1298 0.0539,-0.1831 0.0357,-0.0538 0.0938,-0.0938 0.18309998,-0.125 0.089,-0.0317 0.2009,-0.0587 0.3438,-0.0808 0.1389,-0.0221 0.322,-0.0312 0.5542,-0.0312 0.21,0 0.3841,0.009 0.5321,0.0312 0.1428,0.0221 0.259,0.0491 0.348,0.0808 0.0893,0.0312 0.148,0.0712 0.1832,0.125 0.036,0.0491 0.0538,0.1114 0.0538,0.1831 z m -16.4211004,-1.0993 c 0,0.6214 -0.1029,1.0324 -0.3081,1.2382 -0.2058,0.2052 -0.5763,0.3081 -1.1171,0.3081 -0.5273,0 -0.8893,-0.1029 -1.0902,-0.3039 -0.2013,-0.2012 -0.2994,-0.6032 -0.2994,-1.2064 0,-0.6211 0.1023,-1.0321 0.3081,-1.2373 0.2053,-0.2058 0.5763,-0.309 1.1172,-0.309 0.5272,0 0.8892,0.0989 1.0905,0.2999 0.1961,0.201 0.299,0.6075 0.299,1.2104 z m -8.0385,-6.9165 c 0,-0.845 -0.0317,-1.6042 -0.0898,-2.2743 -0.0624,-0.6704 -0.152,-1.2645 -0.2724,-1.7784 -0.116,-0.5139 -0.2679,-0.9562 -0.4558,-1.3272 -0.1874,-0.3662 -0.4111,-0.6749 -0.6744,-0.9113 -0.2597,-0.2418 -0.559,-0.4159 -0.8941,-0.523 -0.3393,-0.112 -0.7151,-0.1653 -1.1349,-0.1653 -0.7416,0 -1.3406,0.1743 -1.8054,0.5224 -0.4601,0.349 -0.8263,0.8272 -1.0902,1.4392 -0.2682,0.6072 -0.4465,1.3223 -0.5451,2.1444 -0.0933,0.8181 -0.1432,1.6982 -0.1432,2.6407 0,1.2603 0.0672,2.3372 0.197,3.2225 0.1298,0.8841 0.3399,1.6035 0.6211,2.1622 0.2812,0.5585 0.6432,0.9652 1.0859,1.2155 0.4422,0.2549 0.9737,0.3799 1.6036,0.3799 0.4873,0 0.9162,-0.0808 1.2872,-0.237 0.3711,-0.1562 0.6883,-0.3798 0.9561,-0.6701 0.2642,-0.2951 0.4873,-0.644 0.6614,-1.0551 0.1749,-0.411 0.3129,-0.8623 0.4201,-1.3583 0.1029,-0.4961 0.174,-1.0364 0.2148,-1.6124 0.04,-0.5811 0.0581,-1.1843 0.0581,-1.8144 z m 2.3054,-0.1568 c 0,1.3003 -0.1028,2.4894 -0.3081,3.5615 -0.2058,1.0723 -0.5451,1.9933 -1.019,2.7657 -0.4782,0.773 -1.0993,1.3675 -1.8675,1.7921 -0.769,0.4243 -1.7164,0.6344 -2.8423,0.6344 -1.0633,0 -1.9568,-0.1874 -2.6898,-0.5672 -0.7282,-0.3802 -1.3141,-0.9383 -1.7603,-1.6756 -0.4428,-0.7378 -0.76,-1.6441 -0.9473,-2.7213 -0.188,-1.0771 -0.2818,-2.3144 -0.2818,-3.7088 0,-1.2912 0.1029,-2.4755 0.3129,-3.5527 0.2101,-1.0768 0.5494,-2.0012 1.0233,-2.7745 0.4692,-0.773 1.0902,-1.3672 1.8584,-1.7921 0.7691,-0.4243 1.7113,-0.6344 2.8284,-0.6344 1.0732,0 1.9713,0.188 2.7037,0.5672 0.7283,0.3802 1.3139,0.9392 1.7603,1.6762 0.4428,0.7373 0.76,1.6443 0.948,2.7207 0.187,1.0771 0.2811,2.3153 0.2811,3.7088 z m -14.0978,7.6275 c 0,0.1658 -0.0136,0.3041 -0.0405,0.4158 -0.0264,0.112 -0.0581,0.2052 -0.1023,0.2724 -0.0451,0.0717 -0.0942,0.1208 -0.152,0.152 -0.0581,0.0317 -0.1162,0.0448 -0.1743,0.0448 h -8.8475 c -0.0581,0 -0.1159,-0.0131 -0.1701,-0.0448 -0.049,-0.0312 -0.1029,-0.0803 -0.1471,-0.152 -0.049,-0.0672 -0.0848,-0.1604 -0.112,-0.2724 -0.0269,-0.1117 -0.0399,-0.25 -0.0399,-0.4158 0,-0.1562 0.013,-0.2903 0.0399,-0.402 0.0272,-0.1162 0.0581,-0.21 0.0984,-0.2812 0.0357,-0.0762 0.0847,-0.1301 0.1429,-0.1701 0.0581,-0.0399 0.121,-0.0581 0.1879,-0.0581 h 3.5257 v -12.8953 l -3.2757,1.9573 c -0.165,0.0847 -0.299,0.138 -0.4019,0.1559 -0.0981,0.0181 -0.1789,0 -0.2413,-0.0578 -0.0629,-0.0581 -0.1029,-0.1523 -0.125,-0.2821 -0.0227,-0.1292 -0.0317,-0.2942 -0.0317,-0.4952 0,-0.148 0.0048,-0.2772 0.0178,-0.3801 0.0139,-0.1072 0.036,-0.1919 0.063,-0.2639 0.0269,-0.0669 0.062,-0.1293 0.1119,-0.1831 0.0442,-0.0491 0.1072,-0.1029 0.1871,-0.1562 l 3.9059,-2.4982 c 0.0351,-0.0264 0.0759,-0.049 0.1289,-0.0669 0.0542,-0.0133 0.1211,-0.0312 0.1971,-0.049 0.0802,-0.0182 0.17,-0.0312 0.2769,-0.036 0.1032,-0.004 0.2322,-0.004 0.3932,-0.004 0.206,0 0.3841,0.009 0.523,0.0269 0.1383,0.0182 0.2454,0.0403 0.3262,0.0712 0.08,0.0317 0.1293,0.072 0.1562,0.1162 0.0269,0.0496 0.04,0.0987 0.04,0.1519 v 14.8887 h 3.0654 c 0.072,0 0.1389,0.0182 0.197,0.0581 0.0621,0.04 0.1111,0.0939 0.1519,0.1701 0.0403,0.0712 0.0712,0.165 0.0933,0.2812 0.0229,0.1117 0.0317,0.2458 0.0317,0.402 z m -14.1157,-0.5542 c 0,0.6214 -0.1029,1.0324 -0.3081,1.2382 -0.2058,0.2052 -0.576,0.3081 -1.1171,0.3081 -0.527,0 -0.8893,-0.1029 -1.0902,-0.3039 -0.201,-0.2012 -0.2991,-0.6032 -0.2991,-1.2064 0,-0.6211 0.1021,-1.0321 0.3081,-1.2373 0.2053,-0.2058 0.5763,-0.309 1.1172,-0.309 0.5272,0 0.8892,0.0989 1.0902,0.2999 0.1961,0.201 0.299,0.6075 0.299,1.2104 z m -10.2367,-13.6057 h -0.0269 l -5.4514,9.3078 h 5.4783 z m 4.6599,10.2328 c 0,0.2854 -0.0443,0.5133 -0.129,0.6791 -0.0899,0.1653 -0.2101,0.2452 -0.3671,0.2452 h -1.9123 v 3.5618 c 0,0.0711 -0.0181,0.1292 -0.0533,0.1788 -0.036,0.0443 -0.0986,0.0893 -0.1879,0.125 -0.089,0.0312 -0.21,0.0582 -0.3529,0.076 -0.1432,0.0173 -0.3263,0.0264 -0.5494,0.0264 -0.2191,0 -0.3979,-0.009 -0.5408,-0.0264 -0.1432,-0.0178 -0.2591,-0.0448 -0.3441,-0.076 -0.0851,-0.0357 -0.1432,-0.0807 -0.1741,-0.125 -0.0312,-0.0496 -0.049,-0.1077 -0.049,-0.1788 v -3.5618 h -6.9353 c -0.1071,0 -0.1922,-0.013 -0.259,-0.0399 -0.0712,-0.027 -0.1341,-0.0712 -0.1922,-0.1429 -0.0539,-0.0672 -0.0939,-0.1701 -0.116,-0.2993 -0.0229,-0.1299 -0.0312,-0.2999 -0.0312,-0.51 0,-0.165 0.0043,-0.3121 0.0131,-0.4419 0.0091,-0.1293 0.0269,-0.2503 0.0538,-0.3572 0.0222,-0.1119 0.0582,-0.2148 0.1024,-0.3132 0.0402,-0.1029 0.0941,-0.2101 0.1567,-0.3217 l 6.0412,-10.3043 c 0.0442,-0.0711 0.1114,-0.1289 0.1965,-0.1831 0.0847,-0.053 0.1919,-0.0981 0.3259,-0.129 0.1341,-0.036 0.3,-0.0629 0.4919,-0.0759 0.1964,-0.0139 0.4291,-0.0182 0.6973,-0.0182 0.29,0 0.5491,0.009 0.7639,0.0312 0.2191,0.0221 0.3974,0.0539 0.5273,0.0851 0.134,0.0357 0.2369,0.0847 0.3081,0.138 0.072,0.0587 0.1071,0.1259 0.1071,0.2058 v 10.8272 h 1.9123 c 0.148,0 0.2681,0.076 0.358,0.2279 0.0938,0.1514 0.1381,0.3841 0.1381,0.6971 z m -14.781,3.3729 c 0,0.6214 -0.1029,1.0324 -0.3081,1.2382 -0.2058,0.2052 -0.5763,0.3081 -1.1172,0.3081 -0.5272,0 -0.8892,-0.1029 -1.0902,-0.3039 -0.201,-0.2012 -0.299,-0.6032 -0.299,-1.2064 0,-0.6211 0.102,-1.0321 0.3081,-1.2373 0.2049,-0.2058 0.576,-0.309 1.1171,-0.309 0.527,0 0.8892,0.0989 1.0902,0.2999 0.1962,0.201 0.2991,0.6075 0.2991,1.2104 z m -6.2691,0.474 c 0,0.1561 -0.0091,0.295 -0.0312,0.4152 -0.0227,0.1259 -0.0539,0.2282 -0.0938,0.309 -0.0403,0.0848 -0.0899,0.1429 -0.1568,0.1831 -0.0672,0.04 -0.1383,0.0579 -0.2143,0.0579 h -9.3747 c -0.1202,0 -0.2279,-0.0131 -0.322,-0.0448 -0.0891,-0.0312 -0.1693,-0.0803 -0.2322,-0.152 -0.0669,-0.0672 -0.1159,-0.1692 -0.1471,-0.2993 -0.0318,-0.129 -0.0448,-0.29 -0.0448,-0.4822 0,-0.1749 0.0088,-0.3268 0.0221,-0.4561 0.0136,-0.1298 0.0405,-0.2457 0.0848,-0.3486 0.045,-0.0984 0.1031,-0.1965 0.17,-0.2994 0.0669,-0.0981 0.1562,-0.2052 0.2639,-0.3172 l 3.3869,-3.4855 c 0.786,-0.8041 1.4122,-1.5233 1.8853,-2.1625 0.474,-0.6341 0.8359,-1.2152 1.095,-1.7425 0.2543,-0.523 0.4244,-0.9969 0.5052,-1.4252 0.0802,-0.4289 0.1201,-0.8311 0.1201,-1.207 0,-0.375 -0.062,-0.7322 -0.187,-1.0673 -0.1301,-0.3353 -0.309,-0.6301 -0.55,-0.8852 -0.2369,-0.2549 -0.5363,-0.4558 -0.8983,-0.6029 -0.3571,-0.1474 -0.773,-0.2234 -1.2421,-0.2234 -0.5494,0 -1.0412,0.076 -1.4794,0.2234 -0.4331,0.1471 -0.8172,0.3129 -1.148,0.4869 -0.3263,0.1741 -0.6032,0.3394 -0.8224,0.487 -0.2188,0.1472 -0.3841,0.2231 -0.4912,0.2231 -0.0629,0 -0.1208,-0.0178 -0.1698,-0.053 -0.049,-0.036 -0.0893,-0.0898 -0.121,-0.1701 -0.0312,-0.0759 -0.0582,-0.1831 -0.0754,-0.3129 -0.0179,-0.1341 -0.027,-0.2903 -0.027,-0.4731 0,-0.1301 0.0043,-0.2421 0.0133,-0.3402 0.0088,-0.0938 0.0222,-0.1788 0.0448,-0.25 0.0221,-0.0669 0.0491,-0.1341 0.0851,-0.197 0.0351,-0.0578 0.1071,-0.1338 0.21,-0.2279 0.1072,-0.089 0.286,-0.214 0.5451,-0.3702 0.2543,-0.161 0.5803,-0.3129 0.9692,-0.4652 0.3844,-0.1559 0.8133,-0.2812 1.2824,-0.3889 0.4649,-0.1023 0.9561,-0.1562 1.4703,-0.1562 0.8221,0 1.5412,0.1163 2.1535,0.3484 0.6168,0.2279 1.1262,0.5451 1.533,0.9479 0.4062,0.402 0.7103,0.8663 0.9113,1.3983 0.201,0.5321 0.2999,1.0993 0.2999,1.7022 0,0.5412 -0.0499,1.0815 -0.1431,1.6175 -0.0987,0.5363 -0.2997,1.1171 -0.6078,1.7433 -0.3132,0.625 -0.7594,1.3175 -1.3453,2.0815 -0.5811,0.7642 -1.3584,1.6444 -2.3275,2.6413 l -2.6813,2.8015 h 7.3732 c 0.0669,0 0.1338,0.0181 0.201,0.0581 0.0668,0.0403 0.125,0.0981 0.1692,0.174 0.0499,0.0811 0.085,0.1792 0.1077,0.2951 0.0221,0.1163 0.0312,0.2552 0.0312,0.4111 z m 90.1318,0.6525 c 0,0.1029 -0.036,0.1828 -0.1029,0.2367 -0.0709,0.0538 -0.1647,0.0893 -0.29,0.1162 -0.121,0.0267 -0.2996,0.04 -0.536,0.04 -0.224,0 -0.4071,-0.0133 -0.5409,-0.04 -0.1343,-0.0269 -0.2321,-0.0624 -0.2951,-0.1162 -0.0623,-0.0539 -0.0941,-0.1298 -0.0941,-0.2367 v -1.1795 c -0.5133,0.5491 -1.0851,0.9782 -1.7203,1.2824 -0.6344,0.299 -1.3042,0.4513 -2.0106,0.4513 -0.6211,0 -1.1842996,-0.0803 -1.6843996,-0.2415 -0.5009,-0.1608 -0.9292,-0.398 -1.2821,-0.7013 -0.3529,-0.3042 -0.6301,-0.6838 -0.8269,-1.126 -0.1964,-0.4473 -0.295,-0.9521 -0.295,-1.5196 0,-0.6656 0.1338,-1.2422 0.407,-1.7289 0.2676,-0.4923 0.6562,-0.8985 1.1662,-1.2203 0.5048,-0.3211 1.1259,-0.5675 1.8580996,-0.7282 0.7333,-0.1613 1.5596,-0.2412 2.4758,-0.2412 h 1.6262 v -0.9204 c 0,-0.4516 -0.0493,-0.8538 -0.1431,-1.2067 -0.0978,-0.3484 -0.2501,-0.6393 -0.4641,-0.8714 -0.2148,-0.2319 -0.4921,-0.4062 -0.8314,-0.5227 -0.3396,-0.1205 -0.7599,-0.1786 -1.2554,-0.1786 -0.5318,0 -1.01,0.0624 -1.4298,0.1922 -0.4243996,0.1292 -0.7953996,0.2681 -1.1122996,0.4243 -0.3178,0.1565 -0.5863,0.2951 -0.8003,0.4249 -0.2097,0.1293 -0.371,0.1922 -0.4739,0.1922 -0.0709,0 -0.1338,-0.0184 -0.1831,-0.0544 -0.0533,-0.0309 -0.0984,-0.0845 -0.1384,-0.1556 -0.0405,-0.0675 -0.0669,-0.1571 -0.0847,-0.2642 -0.0182,-0.1111 -0.0267,-0.2279 -0.0267,-0.362 0,-0.214 0.0128,-0.3883 0.0445,-0.5131 0.0315,-0.1253 0.1069,-0.2463 0.2231,-0.358 0.1162,-0.1114 0.322,-0.2463 0.6083,-0.4019 0.2852,-0.1522 0.6211,-0.2951 0.9958,-0.4244 0.3714,-0.1253 0.7824,-0.2327 1.2285996,-0.3175 0.443,-0.0847 0.894,-0.1255 1.3453,-0.1255 0.8442,0 1.5642,0.0941 2.1583,0.2863 0.5941,0.1916 1.0724,0.4776 1.4386,0.8487 0.3668,0.3713 0.6301,0.8316 0.7957,1.381 0.1655,0.5494 0.25,1.1928 0.25,1.9259 z m -2.145,-5.3975 h -1.8451 c -0.5898,0 -1.1038,0.0494 -1.5414,0.1511 -0.4335,0.099 -0.7953996,0.2512 -1.0865996,0.4473 -0.2848,0.1968 -0.4949,0.4289 -0.6338,0.7059 -0.1343,0.2772 -0.2012,0.5941 -0.2012,0.9521 0,0.6123 0.1921,1.0993 0.5811,1.4607 0.3883,0.362 0.9291996,0.5457 1.6303996,0.5457 0.563,0 1.0911,-0.1432 1.5733,-0.4337 0.4827,-0.2863 0.9918,-0.7285 1.5233,-1.3227 z m 16.0597,5.3842 c 0,0.0711 -0.0176,0.1292 -0.0536,0.1788 -0.0357,0.0443 -0.0893,0.0893 -0.1695,0.125 -0.076,0.0312 -0.1879,0.0582 -0.326,0.076 -0.1389,0.0173 -0.3129,0.0264 -0.5233,0.0264 -0.2188,0 -0.3979,-0.009 -0.5357,-0.0264 -0.1389,-0.0178 -0.25,-0.0448 -0.3353,-0.076 -0.0805,-0.0357 -0.1389,-0.0807 -0.1749,-0.125 -0.0349,-0.0496 -0.0533,-0.1077 -0.0533,-0.1788 v -10.2909 h -5.603 v 10.2909 c 0,0.0711 -0.0178,0.1292 -0.0538,0.1788 -0.036,0.0443 -0.0939,0.0893 -0.1789,0.125 -0.0802,0.0312 -0.1922,0.0582 -0.3351,0.076 -0.138,0.0173 -0.3129,0.0264 -0.5224,0.0264 -0.2149,0 -0.3889,-0.009 -0.5278,-0.0264 -0.1429,-0.0178 -0.254,-0.0448 -0.3351,-0.076 -0.085,-0.0357 -0.1428,-0.0807 -0.174,-0.125 -0.0312,-0.0496 -0.0451,-0.1077 -0.0451,-0.1788 v -11.3412 c 0,-0.263 0.0579,-0.4552 0.1792,-0.585 0.1159,-0.1253 0.2817,-0.188 0.4872,-0.188 h 8.6284 c 0.205,0 0.3711,0.0627 0.4822,0.188 0.112,0.1298 0.1698,0.322 0.1698,0.585 z m 14.9471,-6.0322 c 0,0.9604 -0.1253,1.8451 -0.3801,2.6536 -0.2501,0.805 -0.6299,1.502 -1.1302,2.0871 -0.5009,0.5854 -1.1302,1.0415 -1.8811,1.3674 -0.7554,0.3263 -1.6316,0.4916 -2.6229,0.4916 -0.97,0 -1.8142,-0.1435 -2.5342,-0.4337 -0.7194,-0.2858 -1.3178,-0.7059 -1.7957,-1.2552 -0.4782,-0.5497 -0.8362,-1.22 -1.0729,-2.0024 -0.2364,-0.7858 -0.3529,-1.6753 -0.3529,-2.6714 0,-0.9612 0.1255,-1.8462 0.3707,-2.6504 0.2503,-0.8081 0.6259,-1.5052 1.1265,-2.0902 0.5001,-0.5862 1.1259,-1.0375 1.876,-1.3635 0.7515,-0.322 1.6274,-0.483 2.628,-0.483 0.9697,0 1.8142,0.1428 2.533,0.4337 0.72,0.286 1.3181,0.7064 1.7963,1.2554 0.4783,0.5502 0.8402,1.2155 1.0815,2.0024 0.2369,0.7864 0.358,1.6705 0.358,2.6586 z m -2.2521,0.1381 c 0,-0.6389 -0.0584,-1.2422 -0.1792,-1.8096 -0.1159,-0.567 -0.3121,-1.0633 -0.5853,-1.4922 -0.2679,-0.4289 -0.639,-0.769 -1.1036,-1.014 -0.4598,-0.2508 -1.0409,-0.3761 -1.7339,-0.3761 -0.6384,0 -1.1883,0.112 -1.6484,0.3401 -0.4603,0.2277 -0.8359,0.5491 -1.1352,0.965 -0.2991,0.4152 -0.5182,0.9073 -0.6611,1.4743 -0.1471,0.5677 -0.2191,1.1888 -0.2191,1.8592 0,0.6474 0.0578,1.2555 0.1791,1.8227 0.116,0.568 0.3124,1.0638 0.5891,1.4882 0.2775,0.4198 0.648,0.7599 1.1083,1.0054 0.4649,0.25 1.046,0.3756 1.7382,0.3756 0.6302,0 1.1753,-0.112 1.6402,-0.3396 0.4646,-0.2282 0.8441,-0.5457 1.1443,-0.9564 0.2991,-0.411 0.5182,-0.9028 0.6562,-1.4703 0.1389,-0.5672 0.2104,-1.1928 0.2104,-1.8723 z m 14.6335,5.8941 c 0,0.0711 -0.0181,0.1292 -0.0541,0.1788 -0.0352,0.0443 -0.0887,0.0893 -0.169,0.125 -0.0759,0.0312 -0.1879,0.0582 -0.3268,0.076 -0.138,0.0173 -0.3124,0.0264 -0.5224,0.0264 -0.2188,0 -0.398,-0.009 -0.536,-0.0264 -0.1387,-0.0178 -0.2503,-0.0448 -0.3351,-0.076 -0.0811,-0.0357 -0.1389,-0.0807 -0.1749,-0.125 -0.0349,-0.0496 -0.0533,-0.1077 -0.0533,-0.1788 v -10.2909 h -3.2442 c -0.1384,1.385 -0.3085,2.6186 -0.5046,3.6998 -0.1967,1.0814 -0.4159,2.0245 -0.6616,2.8284 -0.2455,0.8002 -0.5224,1.4791 -0.8266,2.0287 -0.3036,0.5497 -0.6386,0.9919 -1.0009,1.3269 -0.3665,0.3351 -0.7594,0.5769 -1.1843,0.724 -0.4198,0.1471 -0.8751,0.2231 -1.3533,0.2231 -0.0811,0 -0.148,-0.0128 -0.2058,-0.04 -0.0541,-0.0269 -0.1034,-0.0711 -0.1383,-0.1431 -0.032,-0.0669 -0.0578,-0.1647 -0.0763,-0.2949 -0.0175,-0.125 -0.0266,-0.286 -0.0266,-0.4869 0,-0.2098 0.004,-0.3793 0.0176,-0.5091 0.0133,-0.1293 0.0357,-0.2373 0.0674,-0.3133 0.0309,-0.0802 0.0712,-0.1292 0.1162,-0.1562 0.0488,-0.0269 0.1069,-0.0399 0.1789,-0.0399 0.29,0 0.5624,-0.0669 0.826,-0.201 0.2591,-0.1389 0.5049,-0.362 0.7331,-0.6701 0.2282,-0.3087 0.4422,-0.7149 0.6434,-1.2155 0.1968,-0.5049 0.3799,-1.122 0.5497,-1.8542 0.1652,-0.733 0.3214,-1.591 0.4694,-2.5744 0.1471,-0.9782 0.29,-2.1084 0.4198,-3.3826 0.0173,-0.263 0.0802,-0.4552 0.1922,-0.585 0.1071,-0.1253 0.2633,-0.188 0.464,-0.188 h 6.0503 c 0.2058,0 0.371,0.0627 0.4873,0.1925 0.1207,0.1253 0.1788,0.3175 0.1788,0.5805 z m 14.3252,0 c 0,0.0711 -0.0184,0.1292 -0.0533,0.1788 -0.036,0.0443 -0.0899,0.0893 -0.1701,0.125 -0.0799,0.0312 -0.1879,0.0582 -0.3308,0.076 -0.138,0.0173 -0.3124,0.0264 -0.5224,0.0264 -0.2239,0 -0.402,-0.009 -0.5409,-0.0264 -0.1431,-0.0178 -0.25,-0.0448 -0.331,-0.076 -0.0803,-0.0357 -0.1338,-0.0807 -0.169,-0.125 -0.036,-0.0496 -0.0541,-0.1077 -0.0541,-0.1788 v -5.1701 h -5.9786 v 5.1701 c 0,0.0711 -0.0176,0.1292 -0.0536,0.1788 -0.036,0.0443 -0.0892,0.0893 -0.1697,0.125 -0.0803,0.0312 -0.1877,0.0582 -0.3308,0.076 -0.1387,0.0173 -0.3178,0.0264 -0.5358,0.0264 -0.2149,0 -0.3889,-0.009 -0.5278,-0.0264 -0.1429,-0.0178 -0.2546,-0.0448 -0.3351,-0.076 -0.0853,-0.0357 -0.1431,-0.0807 -0.174,-0.125 -0.0315,-0.0496 -0.0451,-0.1077 -0.0451,-0.1788 v -11.7873 c 0,-0.072 0.0136,-0.1301 0.0451,-0.1789 0.0309,-0.0451 0.0887,-0.0893 0.174,-0.1298 0.0805,-0.04 0.1922,-0.0675 0.3351,-0.0803 0.1389,-0.013 0.3129,-0.0181 0.5278,-0.0181 0.218,0 0.3971,0.005 0.5358,0.0181 0.1431,0.0128 0.2505,0.0403 0.3308,0.0803 0.0805,0.0405 0.1337,0.0847 0.1697,0.1298 0.036,0.0488 0.0536,0.1069 0.0536,0.1789 v 4.7939 h 5.9786 v -4.7939 c 0,-0.072 0.0181,-0.1301 0.0541,-0.1789 0.0352,-0.0451 0.0887,-0.0893 0.169,-0.1298 0.081,-0.04 0.1879,-0.0675 0.331,-0.0803 0.1389,-0.013 0.317,-0.0181 0.5409,-0.0181 0.21,0 0.3844,0.005 0.5224,0.0181 0.1429,0.0128 0.2509,0.0403 0.3308,0.0803 0.0802,0.0405 0.1341,0.0847 0.1701,0.1298 0.0349,0.0488 0.0533,0.1069 0.0533,0.1789 z m 14.0394,-6.4083 c 0,0.3401 -0.0844,0.5811 -0.2542,0.7291 -0.1698,0.1431 -0.3668,0.214 -0.5851,0.214 h -7.7397 c 0,0.657 0.0674,1.2472 0.1964,1.7696 0.1301,0.5273 0.3492,0.9788 0.6571,1.3542 0.3041,0.3753 0.7021,0.6613 1.1883,0.862 0.4918,0.2012 1.091,0.3041 1.7966,0.3041 0.5587,0 1.059,-0.045 1.493,-0.1389 0.4371,-0.0893 0.8172,-0.1922 1.1341,-0.3033 0.3181,-0.1119 0.5811,-0.2148 0.7869,-0.3041 0.2055,-0.0939 0.3575,-0.1389 0.4646,-0.1389 0.0627,0 0.116,0.0141 0.1656,0.045 0.0442,0.0309 0.0844,0.076 0.1071,0.1389 0.0269,0.0579 0.049,0.1426 0.0624,0.25 0.0136,0.1117 0.0178,0.2413 0.0178,0.3975 0,0.1117 -0.004,0.21 -0.0133,0.2951 -0.009,0.0807 -0.0179,0.1567 -0.0315,0.2191 -0.013,0.0669 -0.0354,0.1247 -0.0671,0.1786 -0.0312,0.049 -0.0672,0.0983 -0.1163,0.1474 -0.0487,0.0487 -0.1916,0.1247 -0.424,0.2327 -0.2373,0.1111 -0.5409,0.214 -0.9162,0.3214 -0.375,0.1029 -0.809,0.1968 -1.3005,0.277 -0.4907,0.085 -1.014,0.1253 -1.5727,0.1253 -0.9694,0 -1.8136,-0.1344 -2.5427,-0.4068 -0.7282,-0.2676 -1.3402,-0.6698 -1.8365,-1.2022 -0.4958,-0.5357 -0.8711,-1.2022 -1.1211,-2.0061 -0.2549,-0.8002 -0.3802,-1.7336 -0.3802,-2.8014 0,-1.0106 0.1299,-1.9216 0.3929,-2.7307 0.2591,-0.8041 0.6395,-1.4924 1.1313,-2.0551 0.4913,-0.5632 1.0905,-0.9921 1.7873,-1.2954 0.697,-0.3002 1.4785,-0.4521 2.3414,-0.4521 0.9247,0 1.7116,0.1479 2.3587,0.447 0.6528,0.2951 1.1843,0.697 1.6047,1.1971 0.4156,0.5008 0.724,1.091 0.9207,1.7705 0.1962,0.6743 0.2942,1.3983 0.2942,2.1665 z m -2.1713,-0.6384 c 0.0269,-1.135 -0.2231,-2.029 -0.7554,-2.6764 -0.5313,-0.648 -1.313,-0.9701 -2.3545,-0.9701 -0.536,0 -1.0052,0.0984 -1.4071,0.2994 -0.402,0.2015 -0.7382,0.4697 -1.0106,0.805 -0.2727,0.33 -0.4824,0.7189 -0.6295,1.1571 -0.1472,0.4419 -0.2322,0.9023 -0.2506,1.385 z m 15.804,7.0467 c 0,0.0711 -0.0176,0.1292 -0.0533,0.1788 -0.036,0.0443 -0.0896,0.0893 -0.1698,0.125 -0.0802,0.0312 -0.1879,0.0582 -0.3311,0.076 -0.1377,0.0173 -0.3118,0.0264 -0.5221,0.0264 -0.2237,0 -0.4023,-0.009 -0.5412,-0.0264 -0.1428,-0.0178 -0.25,-0.0448 -0.3305,-0.076 -0.0802,-0.0357 -0.1343,-0.0807 -0.1692,-0.125 -0.036,-0.0496 -0.0544,-0.1077 -0.0544,-0.1788 v -5.1701 h -5.9783 v 5.1701 c 0,0.0711 -0.0179,0.1292 -0.0536,0.1788 -0.036,0.0443 -0.0893,0.0893 -0.1701,0.125 -0.0799,0.0312 -0.187,0.0582 -0.3299,0.076 -0.1389,0.0173 -0.3178,0.0264 -0.5366,0.0264 -0.2149,0 -0.3886,-0.009 -0.5275,-0.0264 -0.1432,-0.0178 -0.2543,-0.0448 -0.3354,-0.076 -0.0844,-0.0357 -0.1428,-0.0807 -0.1737,-0.125 -0.0312,-0.0496 -0.0451,-0.1077 -0.0451,-0.1788 v -11.7873 c 0,-0.072 0.0139,-0.1301 0.0451,-0.1789 0.0309,-0.0451 0.0893,-0.0893 0.1737,-0.1298 0.0811,-0.04 0.1922,-0.0675 0.3354,-0.0803 0.1389,-0.013 0.3126,-0.0181 0.5275,-0.0181 0.2188,0 0.3977,0.005 0.5366,0.0181 0.1429,0.0128 0.25,0.0403 0.3299,0.0803 0.0808,0.0405 0.1341,0.0847 0.1701,0.1298 0.0357,0.0488 0.0536,0.1069 0.0536,0.1789 v 4.7939 h 5.9783 v -4.7939 c 0,-0.072 0.0184,-0.1301 0.0544,-0.1789 0.0349,-0.0451 0.089,-0.0893 0.1692,-0.1298 0.0805,-0.04 0.1877,-0.0675 0.3305,-0.0803 0.1389,-0.013 0.3175,-0.0181 0.5412,-0.0181 0.2103,0 0.3844,0.005 0.5221,0.0181 0.1432,0.0128 0.2509,0.0403 0.3311,0.0803 0.0802,0.0405 0.1338,0.0847 0.1698,0.1298 0.0357,0.0488 0.0533,0.1069 0.0533,0.1789 z m 14.335101,0 c 0,0.0711 -0.0182,0.1292 -0.0533,0.1788 -0.036,0.0443 -0.0902,0.0893 -0.1704,0.125 -0.0802,0.0312 -0.1876,0.0582 -0.3305,0.076 -0.1383,0.0173 -0.3124,0.0264 -0.5224,0.0264 -0.224,0 -0.402,-0.009 -0.5409,-0.0264 -0.1428,-0.0178 -0.2506,-0.0448 -0.3311,-0.076 -0.0802,-0.0357 -0.1338,-0.0807 -0.1692,-0.125 -0.036,-0.0496 -0.0538,-0.1077 -0.0538,-0.1788 v -5.1701 h -5.9783 v 5.1701 c 0,0.0711 -0.0182,0.1292 -0.0542,0.1788 -0.0357,0.0443 -0.089,0.0893 -0.17,0.125 -0.08,0.0312 -0.1871,0.0582 -0.33,0.076 -0.1389,0.0173 -0.3177,0.0264 -0.536,0.0264 -0.2149,0 -0.3892,-0.009 -0.5281,-0.0264 -0.1432,-0.0178 -0.2543,-0.0448 -0.3348,-0.076 -0.085,-0.0357 -0.1434,-0.0807 -0.1743,-0.125 -0.0309,-0.0496 -0.0448,-0.1077 -0.0448,-0.1788 v -11.7873 c 0,-0.072 0.0139,-0.1301 0.0448,-0.1789 0.0309,-0.0451 0.0893,-0.0893 0.1743,-0.1298 0.0805,-0.04 0.1916,-0.0675 0.3348,-0.0803 0.1389,-0.013 0.3132,-0.0181 0.5281,-0.0181 0.2183,0 0.3971,0.005 0.536,0.0181 0.1429,0.0128 0.25,0.0403 0.33,0.0803 0.081,0.0405 0.1343,0.0847 0.17,0.1298 0.036,0.0488 0.0542,0.1069 0.0542,0.1789 v 4.7939 h 5.9783 v -4.7939 c 0,-0.072 0.0178,-0.1301 0.0538,-0.1789 0.0354,-0.0451 0.089,-0.0893 0.1692,-0.1298 0.0805,-0.04 0.1883,-0.0675 0.3311,-0.0803 0.1389,-0.013 0.3169,-0.0181 0.5409,-0.0181 0.21,0 0.3841,0.005 0.5224,0.0181 0.1429,0.0128 0.2503,0.0403 0.3305,0.0803 0.0802,0.0405 0.1344,0.0847 0.1704,0.1298 0.0351,0.0488 0.0533,0.1069 0.0533,0.1789 z m 12.8868,0.0133 c 0,0.1029 -0.036,0.1828 -0.1029,0.2367 -0.0708,0.0538 -0.1646,0.0893 -0.2899,0.1162 -0.1211,0.0267 -0.3002,0.04 -0.5364,0.04 -0.2236,0 -0.4067,-0.0133 -0.5411,-0.04 -0.1338,-0.0269 -0.2316,-0.0624 -0.2945,-0.1162 -0.0624,-0.0539 -0.0944,-0.1298 -0.0944,-0.2367 v -1.1795 c -0.5131,0.5491 -1.0851,0.9782 -1.7203,1.2824 -0.6342,0.299 -1.304,0.4513 -2.0104,0.4513 -0.621,0 -1.1843,-0.0803 -1.6843,-0.2415 -0.5009,-0.1608 -0.9292,-0.398 -1.2821,-0.7013 -0.3535,-0.3042 -0.6305,-0.6838 -0.8272,-1.126 -0.1961,-0.4473 -0.2951,-0.9521 -0.2951,-1.5196 0,-0.6656 0.1341,-1.2422 0.4068,-1.7289 0.2682,-0.4923 0.6565,-0.8985 1.1667,-1.2203 0.5049,-0.3211 1.126,-0.5675 1.8582,-0.7282 0.733,-0.1613 1.5596,-0.2412 2.4754,-0.2412 h 1.6266 v -0.9204 c 0,-0.4516 -0.0494,-0.8538 -0.1432,-1.2067 -0.0978,-0.3484 -0.25,-0.6393 -0.4643,-0.8714 -0.2146,-0.2319 -0.4918,-0.4062 -0.8311,-0.5227 -0.3396,-0.1205 -0.76,-0.1786 -1.2555,-0.1786 -0.5318,0 -1.01,0.0624 -1.4298,0.1922 -0.4243,0.1292 -0.7954,0.2681 -1.1123,0.4243 -0.318,0.1565 -0.5862,0.2951 -0.8002,0.4249 -0.2103,0.1293 -0.3711,0.1922 -0.474,0.1922 -0.0711,0 -0.1338,-0.0184 -0.1831,-0.0544 -0.0533,-0.0309 -0.0983,-0.0845 -0.1383,-0.1556 -0.0405,-0.0675 -0.0669,-0.1571 -0.0848,-0.2642 -0.0181,-0.1111 -0.0269,-0.2279 -0.0269,-0.362 0,-0.214 0.0128,-0.3883 0.0448,-0.5131 0.0309,-0.1253 0.1069,-0.2463 0.2231,-0.358 0.1162,-0.1114 0.322,-0.2463 0.6077,-0.4019 0.2858,-0.1522 0.6214,-0.2951 0.9964,-0.4244 0.3711,-0.1253 0.7824,-0.2327 1.2285,-0.3175 0.4431,-0.0847 0.8941,-0.1255 1.3454,-0.1255 0.8441,0 1.5638,0.0941 2.1583,0.2863 0.5941,0.1916 1.0723,0.4776 1.4383,0.8487 0.367,0.3713 0.6304,0.8316 0.7959,1.381 0.1653,0.5494 0.25,1.1928 0.25,1.9259 z m -2.1449,-5.3975 h -1.8457 c -0.5893,0 -1.1032,0.0494 -1.5415,0.1511 -0.4328,0.099 -0.7951,0.2512 -1.0859,0.4473 -0.2852,0.1968 -0.4955,0.4289 -0.6344,0.7059 -0.1338,0.2772 -0.2007,0.5941 -0.2007,0.9521 0,0.6123 0.1922,1.0993 0.5811,1.4607 0.3884,0.362 0.9292,0.5457 1.6305,0.5457 0.563,0 1.0905,-0.1432 1.5732,-0.4337 0.4828,-0.2863 0.9919,-0.7285 1.5234,-1.3227 z m 14.7997,5.3842 c 0,0.0711 -0.0131,0.1292 -0.0446,0.1831 -0.0314,0.0536 -0.0847,0.0938 -0.1658,0.1253 -0.0802,0.0309 -0.1871,0.0536 -0.3299,0.0714 -0.1389,0.0173 -0.322,0.0264 -0.5502,0.0264 -0.2141,0 -0.3889,-0.009 -0.527,-0.0264 -0.1429,-0.0178 -0.2548,-0.0405 -0.3351,-0.0714 -0.085,-0.0315 -0.1428,-0.0717 -0.1743,-0.1253 -0.0314,-0.0493 -0.0448,-0.112 -0.0448,-0.1831 v -4.9556 h -1.2421 c -0.5409,0 -0.9604,0.0445 -1.2645,0.1299 -0.2997,0.0887 -0.5718,0.2321 -0.8091,0.4379 -0.2409,0.205 -0.4558,0.4692 -0.648,0.7861 -0.1921,0.3172 -0.3753,0.7061 -0.549,1.171 l -0.9564,2.3008 c -0.0451,0.1117 -0.0896,0.2058 -0.1429,0.2727 -0.0539,0.0712 -0.1298,0.1253 -0.2282,0.1656 -0.0978,0.0399 -0.2276,0.0669 -0.3798,0.0805 -0.152,0.0133 -0.3393,0.0173 -0.5672,0.0173 -0.1608,0 -0.3085,-0.004 -0.4332,-0.0133 -0.1256,-0.009 -0.233,-0.0219 -0.322,-0.0446 -0.085,-0.0223 -0.1519,-0.0583 -0.1922,-0.1074 -0.0451,-0.0448 -0.0669,-0.1071 -0.0669,-0.174 0,-0.0627 0.0218,-0.1608 0.0712,-0.2951 0.049,-0.1338 0.1479,-0.3711 0.2951,-0.7104 l 0.943,-2.2121 c 0.2452,-0.5582 0.5449,-1.0409 0.9023,-1.4429 0.3575,-0.4067 0.7688,-0.7064 1.2334,-0.8986 -0.8493,-0.1561 -1.5197,-0.4957 -2.0245,-1.0139 -0.5001,-0.5233 -0.7501,-1.2113 -0.7501,-2.0687 0,-0.5678 0.1157,-1.0809 0.3529,-1.5424 0.2367,-0.4597 0.5811,-0.8481 1.0409,-1.1661 0.4553,-0.3209 1.0185,-0.567 1.6889,-0.737 0.6658,-0.169 1.4298,-0.2543 2.2972,-0.2543 0.2049,0 0.451,0.004 0.7231,0.0133 0.2775,0.009 0.5593,0.0218 0.8493,0.04 0.2951,0.0178 0.5768,0.036 0.8538,0.0578 0.2724,0.023 0.5091,0.0411 0.7103,0.0584 0.2634,0.0269 0.4601,0.1208 0.5902,0.2908 0.129,0.165 0.1962,0.3708 0.1962,0.612 z m -2.1717,-10.5319 c -0.3132,-0.045 -0.6341,-0.0759 -0.9652,-0.0893 -0.326,-0.0136 -0.6301,-0.0181 -0.911,-0.0181 -0.5902,0 -1.0817,0.049 -1.4752,0.1519 -0.3974,0.0984 -0.7103,0.2455 -0.9516,0.4337 -0.2367,0.1874 -0.4064,0.4108 -0.5048,0.6656 -0.1029,0.25 -0.1522,0.5315 -0.1522,0.8402 0,0.3124 0.0584,0.5984 0.1743,0.8484 0.1208,0.2509 0.2951,0.4606 0.536,0.6301 0.2367,0.1698 0.5451,0.3042 0.9162,0.3929 0.3756,0.0944 0.8938,0.1389 1.5641,0.1389 h 1.7694 z m 21.9354,7.1405 c 0,0.6211 -0.116,1.1747 -0.3532,1.6574 -0.237,0.4867 -0.5851,0.8898 -1.0503,1.2198 -0.4597,0.3262 -1.0363,0.5762 -1.7243,0.7463 -0.693,0.1701 -1.4972,0.2551 -2.4134,0.2551 -0.286,0 -0.5672,0 -0.8351,-0.005 -0.2732,-0.004 -0.5363,-0.013 -0.7863,-0.0263 -0.2551,-0.0136 -0.5051,-0.0318 -0.7552,-0.0496 -0.2457,-0.0133 -0.4963,-0.0352 -0.7381,-0.0624 -0.3524,-0.0448 -0.6069,-0.1607 -0.7722,-0.3489 -0.1658,-0.1871 -0.2508,-0.4641 -0.2508,-0.8309 v -10.1433 c 0,-0.3569 0.081,-0.6341 0.2418,-0.8263 0.1601,-0.1922 0.4113,-0.3039 0.7412,-0.3396 0.2282,-0.0269 0.4692,-0.0493 0.7282,-0.0672 0.2549,-0.013 0.5191,-0.0311 0.7915,-0.0445 0.2727,-0.0136 0.5496,-0.0226 0.8399,-0.0314 0.286,-0.009 0.5763,-0.0131 0.8762,-0.0131 0.8487,0 1.5814,0.0709 2.1985,0.2098 0.6211,0.1383 1.1342,0.3444 1.5455,0.612 0.411,0.2724 0.7149,0.6035 0.9119,0.9964 0.1959,0.3934 0.2948,0.8402 0.2948,1.345 0,0.6613 -0.1792,1.2286 -0.5321,1.7025 -0.3526,0.4691 -0.8759,0.8042 -1.5639,1.0055 0.8629,0.1831 1.5149,0.536 1.9528,1.0593 0.4337,0.5266 0.6526,1.1837 0.6526,1.9794 z m -2.6005,-5.4652 c 0,-0.286 -0.0542,-0.5406 -0.1562,-0.7682 -0.1077,-0.2231 -0.2773,-0.4161 -0.519,-0.5723 -0.241,-0.1559 -0.5542,-0.2718 -0.9335,-0.3529 -0.3798,-0.0763 -0.8402,-0.1162 -1.3853,-0.1162 -0.4107,0 -0.7869,0.009 -1.1259,0.0314 -0.3439,0.0227 -0.6304,0.0488 -0.8671,0.0715 v 3.651 h 2.2033 c 0.9023,0 1.5903,-0.1661 2.0685,-0.5009 0.4779,-0.3351 0.7152,-0.8172 0.7152,-1.4434 z m 0.3753,5.4961 c 0,-0.3484 -0.0624,-0.6565 -0.1834,-0.9204 -0.1208,-0.2682 -0.3172,-0.487 -0.5811,-0.6611 -0.2679,-0.1743 -0.6072,-0.3041 -1.0233,-0.3928 -0.4108,-0.0854 -0.902,-0.1304 -1.4698,-0.1304 h -2.1047 v 4.1737 c 0.1652,0.0269 0.3396,0.0442 0.5181,0.0584 0.1789,0.0128 0.362,0.0269 0.5503,0.04 0.1873,0.0127 0.3704,0.0218 0.5581,0.0311 0.1876,0.009 0.362,0.0137 0.5187,0.0137 0.5672,0 1.0494,-0.0494 1.4522,-0.1523 0.402,-0.0978 0.7325,-0.2457 1.0004,-0.4379 0.2639,-0.1916 0.4603,-0.4241 0.5811,-0.6968 0.121,-0.2772 0.1834,-0.5856 0.1834,-0.9252 z m 21.0464,3.4543 c 0,0.049 -0.0136,0.0984 -0.0445,0.1344 -0.0315,0.0399 -0.0893,0.0756 -0.1704,0.0978 -0.0848,0.0269 -0.1922,0.0493 -0.3302,0.0629 -0.1338,0.0133 -0.3087,0.0173 -0.5185,0.0173 -0.2415,0 -0.4428,-0.009 -0.5944,-0.0264 -0.152,-0.0178 -0.2772,-0.0405 -0.375,-0.0714 -0.0944,-0.0315 -0.1656,-0.0717 -0.2061,-0.1162 -0.044,-0.0494 -0.076,-0.1029 -0.0933,-0.1653 l -1.2512,-3.0523 c -0.1567,-0.3935 -0.322,-0.728 -0.5009,-1.0146 -0.178,-0.2809 -0.3844,-0.5136 -0.621,-0.6879 -0.2325,-0.1741 -0.4961,-0.2991 -0.7952,-0.3793 -0.2951,-0.076 -0.6301,-0.1165 -1.0145,-0.1165 h -0.911 v 5.3039 c 0,0.0451 -0.023,0.085 -0.0672,0.1298 -0.0451,0.0451 -0.1077,0.08 -0.197,0.1029 -0.0888,0.0264 -0.201,0.0491 -0.3439,0.0669 -0.1383,0.0173 -0.299,0.0264 -0.4821,0.0264 -0.1883,0 -0.349,-0.009 -0.4873,-0.0264 -0.1429,-0.0178 -0.2551,-0.0405 -0.3441,-0.0669 -0.0899,-0.0229 -0.1517,-0.0578 -0.1928,-0.1029 -0.04,-0.0448 -0.0578,-0.0898 -0.0578,-0.1298 v -11.9755 c 0,-0.04 0.0178,-0.0842 0.0578,-0.1202 0.0411,-0.04 0.1029,-0.076 0.1928,-0.0987 0.089,-0.0263 0.2012,-0.0493 0.3441,-0.0621 0.1383,-0.013 0.299,-0.0181 0.4873,-0.0181 0.1831,0 0.3438,0.005 0.4821,0.0181 0.1429,0.0128 0.2551,0.0358 0.3439,0.0621 0.0893,0.0227 0.1519,0.0587 0.197,0.0987 0.0442,0.036 0.0672,0.0802 0.0672,0.1253 v 4.9507 h 0.911 c 0.326,0 0.6302,-0.0357 0.9026,-0.1117 0.2727,-0.076 0.5227,-0.1962 0.7458,-0.3665 0.2282,-0.1741 0.4294,-0.3929 0.6043,-0.6659 0.178,-0.2721 0.3436,-0.5981 0.4907,-0.983 l 1.0908,-2.7207 c 0.0175,-0.072 0.0487,-0.1301 0.0887,-0.184 0.0451,-0.0533 0.112,-0.0978 0.197,-0.1293 0.089,-0.0354 0.2049,-0.0629 0.3481,-0.0757 0.1434,-0.013 0.3359,-0.0181 0.5723,-0.0181 0.2058,0 0.3798,0.005 0.5142,0.0181 0.1338,0.0128 0.2407,0.0358 0.3169,0.0621 0.0717,0.0227 0.1211,0.0587 0.148,0.0987 0.0258,0.036 0.04,0.0802 0.04,0.1202 0,0.081 -0.009,0.1658 -0.0315,0.2511 -0.0227,0.089 -0.0536,0.1871 -0.0987,0.303 l -1.1253,2.5966 c -0.1749,0.4379 -0.362,0.8042 -0.5678,1.1032 -0.2052,0.2951 -0.411,0.5451 -0.6211,0.7418 -0.2052,0.1973 -0.4203,0.3493 -0.6392,0.4604 -0.214,0.1071 -0.424,0.1922 -0.6253,0.2551 v 0.0269 c 0.3042,0.1024 0.5851,0.2271 0.8442,0.3751 0.259,0.1522 0.4963,0.335 0.7194,0.549 0.2236,0.2191 0.4292,0.4782 0.6211,0.7824 0.1927,0.2996 0.3707,0.644 0.5411,1.0369 l 1.296,2.9849 c 0.0349,0.0578 0.0581,0.1159 0.076,0.1698 0.0173,0.0493 0.0309,0.1029 0.0399,0.1471 0.009,0.049 0.0179,0.0896 0.0224,0.121 0.005,0.0309 0.005,0.0579 0.005,0.0848 z m 8.1949,0.2322 -1.5687,4.3389 c -0.0535,0.1381 -0.1876,0.2461 -0.4019,0.3221 -0.2101,0.0756 -0.5361,0.1111 -0.974,0.1111 -0.2282,0 -0.4113,-0.009 -0.5502,-0.0309 -0.1381,-0.0224 -0.2449,-0.0632 -0.3209,-0.112 -0.072,-0.0533 -0.112,-0.1253 -0.1213,-0.21 -0.009,-0.0893 0.0133,-0.1922 0.0629,-0.3172 l 1.6265,-4.102 c -0.081,-0.036 -0.157,-0.0939 -0.2239,-0.1698 -0.0712,-0.0803 -0.1202,-0.1613 -0.1432,-0.2501 l -4.2037,-11.2603 c -0.072,-0.1831 -0.1032,-0.3311 -0.1032,-0.4331 0,-0.108 0.0312,-0.188 0.1032,-0.2509 0.0711,-0.0624 0.1831,-0.1023 0.3393,-0.1253 0.1556,-0.0218 0.3659,-0.0309 0.6298,-0.0309 0.2591,0 0.4649,0.005 0.6166,0.0181 0.1474,0.0128 0.2636,0.0403 0.3529,0.0757 0.085,0.0315 0.148,0.0851 0.1879,0.1474 0.04,0.0672 0.0802,0.1568 0.1247,0.2679 l 3.3648,9.4558 h 0.0399 l 3.2449,-9.5045 c 0.053,-0.1704 0.1156,-0.2773 0.1916,-0.3215 0.0717,-0.0496 0.1831,-0.085 0.3308,-0.108 0.1516,-0.0218 0.3665,-0.0309 0.6437,-0.0309 0.2449,0 0.4468,0.009 0.603,0.0309 0.1561,0.023 0.2724,0.0629 0.3441,0.1253 0.0762,0.0629 0.1122,0.1429 0.1122,0.2509 0,0.102 -0.0269,0.2364 -0.0762,0.3928 z m 59.6401,-7.3724 c 0.027,-1.1353 -0.2233,-2.0293 -0.7551,-2.6767 -0.5315,-0.648 -1.3136,-0.9701 -2.3548,-0.9701 -0.536,0 -1.0051,0.0984 -1.4074,0.2994 -0.4019,0.2015 -0.7378,0.4697 -1.01,0.8047 -0.2729,0.3303 -0.483,0.7195 -0.6301,1.1574 -0.1471,0.4422 -0.2322,0.9023 -0.25,1.3853 z m 2.1714,0.6384 c 0,0.3398 -0.0842,0.5811 -0.2543,0.7288 -0.1698,0.1431 -0.3668,0.2143 -0.5851,0.2143 h -7.7394 c 0,0.657 0.0669,1.2469 0.1961,1.7693 0.1299,0.527 0.349,0.9788 0.6571,1.3542 0.3039,0.375 0.7019,0.661 1.1883,0.8623 0.4918,0.2009 1.0911,0.3038 1.7963,0.3038 0.559,0 1.0593,-0.0448 1.493,-0.1389 0.4374,-0.089 0.8175,-0.1919 1.1344,-0.3033 0.3178,-0.1119 0.5812,-0.2148 0.7869,-0.3039 0.2053,-0.0941 0.3572,-0.1389 0.4644,-0.1389 0.0629,0 0.1162,0.0139 0.1658,0.0448 0.0442,0.0312 0.0845,0.076 0.1071,0.1389 0.027,0.0581 0.0491,0.1423 0.0621,0.25 0.0139,0.1115 0.0182,0.2413 0.0182,0.3975 0,0.1119 -0.004,0.21 -0.0134,0.2951 -0.009,0.0807 -0.0178,0.1567 -0.0317,0.2188 -0.0131,0.0672 -0.0352,0.125 -0.0669,0.1791 -0.0312,0.0491 -0.0672,0.0981 -0.1162,0.1472 -0.0491,0.049 -0.1919,0.125 -0.4241,0.2327 -0.237,0.1111 -0.5411,0.2143 -0.9162,0.3211 -0.375,0.1032 -0.809,0.1971 -1.3002,0.2773 -0.4912,0.085 -1.0142,0.125 -1.5732,0.125 -0.9692,0 -1.8136,-0.1341 -2.5424,-0.4062 -0.7282,-0.2682 -1.3405,-0.6701 -1.8366,-1.2022 -0.4961,-0.5363 -0.8711,-1.2022 -1.1211,-2.0064 -0.2551,-0.8002 -0.3801,-1.7333 -0.3801,-2.8014 0,-1.0103 0.1298,-1.9216 0.3931,-2.7307 0.2591,-0.8041 0.639,-1.4921 1.1311,-2.0554 0.4912,-0.5629 1.0902,-0.9921 1.7872,-1.2954 0.6971,-0.2999 1.4786,-0.4518 2.3414,-0.4518 0.9244,0 1.7116,0.1479 2.3587,0.447 0.6531,0.2951 1.1844,0.697 1.6044,1.1973 0.4159,0.5009 0.724,1.0911 0.921,1.77 0.1962,0.6744 0.2943,1.3986 0.2943,2.1668 z m -12.5295,6.5018 c 0,0.049 -0.0172,0.0981 -0.0532,0.1341 -0.0309,0.0402 -0.0939,0.0759 -0.1741,0.0981 -0.085,0.0269 -0.1919,0.049 -0.326,0.0629 -0.1341,0.013 -0.3041,0.0173 -0.5142,0.0173 -0.2457,0 -0.4428,-0.009 -0.5941,-0.0264 -0.152,-0.0178 -0.2727,-0.0405 -0.362,-0.0717 -0.0938,-0.0312 -0.161,-0.0712 -0.2058,-0.1162 -0.04,-0.0491 -0.076,-0.1029 -0.1029,-0.165 l -1.2597,-3.0385 c -0.1656,-0.3931 -0.3399,-0.7282 -0.5188,-1.0142 -0.1783,-0.282 -0.3792,-0.5142 -0.5984,-0.6882 -0.2188,-0.1749 -0.4691,-0.3039 -0.7509,-0.385 -0.286,-0.0842 -0.621,-0.125 -1.0051,-0.125 h -0.8802 v 5.3311 c 0,0.04 -0.0221,0.0848 -0.0672,0.1208 -0.0447,0.0402 -0.1071,0.0759 -0.197,0.0981 -0.089,0.0269 -0.2009,0.049 -0.335,0.0629 -0.1338,0.013 -0.2948,0.0173 -0.4779,0.0173 -0.1874,0 -0.3484,-0.004 -0.4873,-0.0173 -0.1429,-0.0139 -0.2543,-0.036 -0.3439,-0.0629 -0.0892,-0.0222 -0.1522,-0.0579 -0.1964,-0.0981 -0.0448,-0.036 -0.0669,-0.0808 -0.0669,-0.1208 v -5.3311 h -0.8762 c -0.3841,0 -0.7191,0.0408 -1.01,0.125 -0.2854,0.0811 -0.5451,0.2101 -0.7724,0.385 -0.2279,0.174 -0.4289,0.4062 -0.608,0.6882 -0.1789,0.286 -0.353,0.6211 -0.5182,1.0142 l -1.256,3.0385 c -0.0173,0.0621 -0.0491,0.1159 -0.0981,0.165 -0.0491,0.045 -0.112,0.085 -0.1962,0.1162 -0.085,0.0312 -0.2018,0.0539 -0.3529,0.0717 -0.1522,0.0173 -0.3489,0.0264 -0.5859,0.0264 -0.2013,0 -0.3705,-0.004 -0.5094,-0.0173 -0.1381,-0.0139 -0.25,-0.036 -0.3351,-0.0629 -0.0799,-0.0222 -0.138,-0.0579 -0.174,-0.0981 -0.036,-0.036 -0.0539,-0.0851 -0.0539,-0.1341 0,-0.0539 0.009,-0.1208 0.0312,-0.2058 0.0227,-0.0802 0.0669,-0.1871 0.1256,-0.3172 l 1.3002,-2.9716 c 0.1693,-0.3928 0.3484,-0.737 0.5403,-1.0321 0.1922,-0.295 0.3932,-0.5541 0.6081,-0.773 0.2143,-0.2191 0.4464,-0.4022 0.697,-0.5541 0.2503,-0.152 0.5224,-0.277 0.8223,-0.3753 v -0.027 c -0.21,-0.0669 -0.4161,-0.1559 -0.621,-0.2678 -0.2061,-0.1072 -0.4113,-0.2591 -0.6123,-0.4561 -0.201,-0.1962 -0.398,-0.4462 -0.5899,-0.7413 -0.188,-0.2993 -0.3753,-0.6661 -0.559,-1.1041 l -1.0902,-2.6096 c -0.0403,-0.1159 -0.076,-0.214 -0.1023,-0.3033 -0.027,-0.085 -0.0409,-0.1698 -0.0409,-0.2508 0,-0.04 0.0139,-0.0842 0.0451,-0.1202 0.0309,-0.04 0.0848,-0.076 0.1562,-0.0987 0.076,-0.0263 0.1789,-0.049 0.3129,-0.0623 0.1338,-0.0131 0.3082,-0.0179 0.514,-0.0179 0.2369,0 0.4331,0.005 0.5899,0.0179 0.1561,0.0133 0.2812,0.0402 0.3753,0.0762 0.0938,0.0309 0.1649,0.076 0.2143,0.129 0.0496,0.0539 0.0807,0.112 0.0986,0.184 l 1.0364,2.7345 c 0.1479,0.3751 0.299,0.6971 0.4648,0.9692 0.161,0.273 0.3442,0.4921 0.5542,0.6662 0.2101,0.1697 0.4422,0.2899 0.7013,0.3662 0.2591,0.076 0.5542,0.1117 0.898,0.1117 h 0.8762 v -4.9646 c 0,-0.0442 0.0221,-0.0845 0.0669,-0.125 0.0442,-0.0403 0.1072,-0.0712 0.1964,-0.0933 0.0896,-0.023 0.201,-0.0408 0.3439,-0.0541 0.1389,-0.0131 0.2999,-0.0179 0.4873,-0.0179 0.1831,0 0.3441,0.005 0.4779,0.0179 0.1341,0.0133 0.246,0.0311 0.335,0.0541 0.0899,0.0221 0.1523,0.053 0.197,0.0933 0.0451,0.0405 0.0672,0.0808 0.0672,0.125 v 4.9646 h 0.8759 c 0.3393,0 0.6384,-0.04 0.9023,-0.116 0.2591,-0.0808 0.4961,-0.2058 0.7104,-0.3758 0.2148,-0.1741 0.4067,-0.3932 0.5768,-0.6563 0.1692,-0.2681 0.326,-0.5901 0.4731,-0.9652 l 1.0993,-2.7345 c 0.036,-0.072 0.072,-0.1301 0.112,-0.184 0.0399,-0.053 0.1029,-0.0981 0.1831,-0.129 0.085,-0.036 0.201,-0.0629 0.3441,-0.0762 0.1429,-0.0131 0.3351,-0.0179 0.572,-0.0179 0.2101,0 0.3841,0.005 0.523,0.0179 0.1341,0.0133 0.2413,0.036 0.3124,0.0623 0.076,0.0227 0.1298,0.0587 0.161,0.0987 0.0309,0.036 0.0448,0.0802 0.0448,0.1202 0,0.081 -0.0139,0.1658 -0.04,0.2508 -0.0269,0.0893 -0.0581,0.1874 -0.1032,0.3033 l -1.1259,2.6096 c -0.1831,0.438 -0.3753,0.8048 -0.5723,1.095 -0.1961,0.2951 -0.3929,0.5363 -0.5941,0.7283 -0.201,0.1921 -0.402,0.3489 -0.599,0.46 -0.1919,0.112 -0.3932,0.2013 -0.5941,0.2639 v 0.027 c 0.2999,0.1023 0.572,0.2273 0.818,0.3753 0.2501,0.1519 0.4822,0.335 0.6923,0.5581 0.2148,0.2239 0.4158,0.483 0.5989,0.7821 0.1831,0.3041 0.362,0.6483 0.5363,1.0411 l 1.2822,2.9716 c 0.0269,0.0581 0.049,0.1162 0.072,0.1701 0.0221,0.049 0.0351,0.1029 0.0442,0.1471 0.009,0.049 0.0178,0.0899 0.0269,0.121 0.009,0.0309 0.013,0.0579 0.013,0.0848 z m -21.6898,-5.478 h -1.8454 c -0.5893,0 -1.1035,0.0491 -1.5415,0.1514 -0.4331,0.0987 -0.7951,0.2506 -1.0859,0.447 -0.2855,0.1968 -0.4955,0.4289 -0.6344,0.7059 -0.1341,0.2772 -0.201,0.5944 -0.201,0.9521 0,0.6123 0.1919,1.0993 0.5811,1.4607 0.3881,0.362 0.9292,0.5457 1.6305,0.5457 0.563,0 1.0908,-0.1429 1.573,-0.434 0.483,-0.286 0.9921,-0.7279 1.5236,-1.3224 z m 2.1452,5.3972 c 0,0.1029 -0.036,0.1831 -0.1029,0.237 -0.0714,0.0538 -0.1652,0.0893 -0.2902,0.1162 -0.1211,0.0269 -0.2999,0.04 -0.5363,0.04 -0.2237,0 -0.4068,-0.0131 -0.5409,-0.04 -0.1341,-0.0269 -0.2321,-0.0624 -0.2951,-0.1162 -0.0621,-0.0539 -0.0938,-0.1298 -0.0938,-0.237 v -1.1792 c -0.5134,0.5491 -1.0854,0.9782 -1.7203,1.2821 -0.6344,0.2993 -1.3046,0.4513 -2.0107,0.4513 -0.621,0 -1.184,-0.0802 -1.6843,-0.2412 -0.5009,-0.1611 -0.9292,-0.398 -1.2824,-0.7013 -0.3529,-0.3039 -0.6299,-0.684 -0.8269,-1.126 -0.1961,-0.447 -0.2951,-0.9521 -0.2951,-1.5193 0,-0.6662 0.1341,-1.2422 0.4071,-1.7294 0.2679,-0.4919 0.6562,-0.8981 1.1662,-1.2201 0.5051,-0.3211 1.1262,-0.5672 1.8584,-0.7282 0.733,-0.161 1.5593,-0.2412 2.4755,-0.2412 h 1.6265 v -0.9202 c 0,-0.4518 -0.0491,-0.854 -0.1432,-1.2069 -0.098,-0.3484 -0.25,-0.6393 -0.4643,-0.8714 -0.2148,-0.2322 -0.4918,-0.4062 -0.8311,-0.523 -0.3399,-0.1202 -0.76,-0.178 -1.2552,-0.178 -0.532,0 -1.0102,0.0621 -1.4303,0.1919 -0.4241,0.1292 -0.7952,0.2681 -1.1124,0.4243 -0.3177,0.1568 -0.5859,0.2948 -0.7999,0.4249 -0.21,0.129 -0.371,0.1919 -0.4739,0.1919 -0.0712,0 -0.1341,-0.0178 -0.1832,-0.0538 -0.0533,-0.0312 -0.098,-0.0851 -0.138,-0.1562 -0.0408,-0.0669 -0.0672,-0.1568 -0.0851,-0.2639 -0.0181,-0.1111 -0.0269,-0.2279 -0.0269,-0.362 0,-0.2143 0.0131,-0.3883 0.0448,-0.5133 0.0312,-0.1251 0.1072,-0.2461 0.2231,-0.3578 0.1162,-0.1114 0.322,-0.246 0.608,-0.4022 0.2855,-0.1519 0.6211,-0.2951 0.9964,-0.4244 0.3711,-0.125 0.7821,-0.2327 1.2283,-0.3169 0.443,-0.085 0.894,-0.1258 1.3453,-0.1258 0.8441,0 1.5641,0.0941 2.1583,0.286 0.5941,0.1922 1.0723,0.4782 1.4386,0.8492 0.3668,0.3711 0.6298,0.8312 0.7956,1.3811 0.1653,0.5493 0.2503,1.1925 0.2503,1.9256 z m -14.3795,-5.849 c 0,-0.6032 -0.0451,-1.1883 -0.1389,-1.7515 -0.0893,-0.563 -0.2503,-1.0633 -0.4692,-1.5013 -0.2231,-0.4379 -0.5224,-0.7863 -0.8983,-1.0502 -0.375,-0.263 -0.8441,-0.3932 -1.4023,-0.3932 -0.282,0 -0.5541,0.0403 -0.8271,0.1251 -0.2682,0.085 -0.5451,0.2148 -0.8263,0.3931 -0.277,0.1792 -0.5721,0.4161 -0.8762,0.7109 -0.3039,0.2946 -0.6299,0.6565 -0.9692,1.0854 v 4.688 c 0.5942,0.7282 1.1571,1.2821 1.6886,1.6704 0.5361,0.385 1.095,0.5769 1.6801,0.5769 0.5411,0 1.0055,-0.1299 1.3944,-0.3932 0.3889,-0.2639 0.7013,-0.612 0.9431,-1.0499 0.2409,-0.4383 0.4152,-0.9253 0.5312,-1.4704 0.1119,-0.5408 0.1701,-1.0902 0.1701,-1.6401 z m 2.2521,-0.25 c 0,1.0321 -0.112,1.957 -0.3351,2.7794 -0.2188,0.8172 -0.5456,1.5142 -0.9788,2.0865 -0.4291,0.5721 -0.9652,1.0143 -1.5996,1.323 -0.6349,0.3081 -1.3632,0.4643 -2.1804,0.4643 -0.3489,0 -0.6701,-0.0352 -0.9652,-0.1029 -0.2999,-0.0712 -0.5859,-0.1783 -0.8711,-0.3303 -0.282,-0.1479 -0.5632,-0.335 -0.8402,-0.5632 -0.282,-0.2231 -0.5768,-0.4912 -0.8892,-0.7951 v 5.9023 c 0,0.0717 -0.0178,0.1298 -0.0538,0.1837 -0.036,0.0533 -0.0893,0.098 -0.1701,0.134 -0.0802,0.0312 -0.1871,0.0582 -0.3303,0.0754 -0.1389,0.0179 -0.3177,0.027 -0.536,0.027 -0.2149,0 -0.3889,-0.009 -0.5278,-0.027 -0.1431,-0.0172 -0.2543,-0.0442 -0.3351,-0.0754 -0.085,-0.036 -0.1431,-0.0807 -0.1743,-0.134 -0.0309,-0.0539 -0.0448,-0.112 -0.0448,-0.1837 v -16.4653 c 0,-0.0808 0.0139,-0.1432 0.0409,-0.1922 0.026,-0.0448 0.0802,-0.0899 0.1561,-0.1208 0.08,-0.036 0.1789,-0.0629 0.3039,-0.0762 0.1202,-0.0131 0.2721,-0.0179 0.4465,-0.0179 0.1837,0 0.3356,0.005 0.4558,0.0179 0.1162,0.0133 0.2148,0.0402 0.2951,0.0714 0.0802,0.0357 0.134,0.0808 0.1649,0.1256 0.0321,0.049 0.0451,0.1114 0.0451,0.1922 v 1.5772 c 0.3572,-0.3668 0.7013,-0.684 1.0321,-0.9562 0.3311,-0.2681 0.6662,-0.4921 1.0012,-0.6709 0.3351,-0.1783 0.6792,-0.3172 1.0321,-0.4062 0.3532,-0.0939 0.7234,-0.1389 1.1171,-0.1389 0.8535,0 1.5775,0.1658 2.1807,0.496 0.5981,0.3351 1.0902,0.7869 1.4701,1.3632 0.3793,0.5763 0.6565,1.2464 0.8305,2.0106 0.1749,0.764 0.2597,1.573 0.2597,2.4265 z"
     style="fill:#1b1918;fill-rule:evenodd"
     id="path686" />
  <path
     d="m 148.51675,602.63936 c 0,0.164 -0.01,0.31 -0.0327,0.4363 -0.024,0.1321 -0.0566,0.2396 -0.0988,0.3245 -0.0421,0.0893 -0.0943,0.1503 -0.1648,0.1924 -0.0704,0.0421 -0.1452,0.061 -0.225,0.061 h -9.851 c -0.1264,0 -0.2396,-0.0138 -0.3384,-0.0472 -0.0936,-0.0327 -0.1778,-0.0842 -0.2439,-0.1597 -0.0704,-0.0705 -0.122,-0.1779 -0.1546,-0.3144 -0.0334,-0.1358 -0.0472,-0.3049 -0.0472,-0.5067 0,-0.1837 0.009,-0.3434 0.0232,-0.4792 0.0145,-0.1365 0.0428,-0.2585 0.0893,-0.3666 0.0472,-0.1031 0.1082,-0.2062 0.1786,-0.3144 0.0704,-0.1031 0.1641,-0.2156 0.2773,-0.3332 l 3.5589,-3.6627 c 0.8261,-0.845 1.4839,-1.6008 1.9812,-2.2723 0.498,-0.6665 0.8785,-1.2771 1.1507,-1.831 0.2672,-0.5496 0.4458,-1.0476 0.5307,-1.4977 0.0842,-0.4509 0.1263,-0.8734 0.1263,-1.2684 0,-0.3942 -0.0653,-0.7695 -0.1967,-1.1216 -0.1365,-0.3521 -0.3245,-0.6621 -0.5779,-0.93 -0.249,-0.2679 -0.5634,-0.4792 -0.9438,-0.6338 -0.3753,-0.1546 -0.8124,-0.2345 -1.3053,-0.2345 -0.5772,0 -1.0941,0.0799 -1.5544,0.2345 -0.4552,0.1546 -0.8588,0.3289 -1.2066,0.5118 -0.3427,0.183 -0.6338,0.3565 -0.8639,0.5118 -0.2302,0.1547 -0.4037,0.2345 -0.5162,0.2345 -0.0661,0 -0.1271,-0.0188 -0.1786,-0.0559 -0.0516,-0.0377 -0.0937,-0.0943 -0.1271,-0.1786 -0.0326,-0.0798 -0.0609,-0.1923 -0.0791,-0.3288 -0.0189,-0.1409 -0.0283,-0.305 -0.0283,-0.4973 0,-0.1365 0.004,-0.2541 0.0138,-0.3572 0.009,-0.0988 0.0232,-0.1881 0.0472,-0.2628 0.0232,-0.0705 0.0515,-0.1409 0.0893,-0.207 0.037,-0.0609 0.1125,-0.1408 0.2207,-0.2395 0.1125,-0.0937 0.3005,-0.2251 0.5728,-0.3892 0.2672,-0.1691 0.6098,-0.3288 1.0186,-0.4886 0.4036,-0.164 0.8545,-0.2954 1.3474,-0.4087 0.4886,-0.1074 1.0048,-0.1641 1.5449,-0.1641 0.864,0 1.6197,0.122 2.263,0.3659 0.6483,0.2396 1.1833,0.5728 1.6109,0.9961 0.4269,0.4225 0.7464,0.9104 0.9576,1.4694 0.2113,0.559 0.3151,1.1551 0.3151,1.7889 0,0.5684 -0.0523,1.1362 -0.1503,1.6995 -0.1038,0.5634 -0.3151,1.174 -0.6388,1.8317 -0.3289,0.657 -0.7979,1.3845 -1.4136,2.1874 -0.6105,0.803 -1.4273,1.7279 -2.4458,2.7755 l -2.8176,2.9439 h 7.7478 c 0.0704,0 0.1408,0.0189 0.2113,0.061 0.0704,0.0421 0.1314,0.1031 0.1778,0.183 0.0523,0.0849 0.0893,0.188 0.1133,0.31 0.0232,0.1219 0.0327,0.2679 0.0327,0.432 z m 6.5876,-0.4981 c 0,0.6527 -0.1081,1.0847 -0.3238,1.301 -0.2163,0.2156 -0.6054,0.3238 -1.1739,0.3238 -0.5539,0 -0.9344,-0.1082 -1.1456,-0.3194 -0.2113,-0.2113 -0.3144,-0.6338 -0.3144,-1.2676 0,-0.6527 0.1075,-1.0847 0.3238,-1.3003 0.2156,-0.2163 0.6055,-0.3245 1.174,-0.3245 0.5539,0 0.9343,0.1038 1.1456,0.3151 0.2062,0.2112 0.3143,0.6381 0.3143,1.2719 z m 15.532,-3.5443 c 0,0.2998 -0.0465,0.5394 -0.1358,0.7137 -0.0944,0.1735 -0.2207,0.2577 -0.3855,0.2577 h -2.0095 v 3.7425 c 0,0.0748 -0.0189,0.1358 -0.0559,0.188 -0.0378,0.0465 -0.1039,0.0937 -0.1975,0.1314 -0.0937,0.0327 -0.2207,0.061 -0.371,0.0799 -0.1503,0.0181 -0.3427,0.0276 -0.5772,0.0276 -0.2301,0 -0.4181,-0.01 -0.5684,-0.0276 -0.1503,-0.0189 -0.2723,-0.0472 -0.3616,-0.0799 -0.0893,-0.0377 -0.1502,-0.0849 -0.1829,-0.1314 -0.0327,-0.0522 -0.0516,-0.1132 -0.0516,-0.188 v -3.7425 h -7.2875 c -0.1125,0 -0.2018,-0.0138 -0.2723,-0.0421 -0.0747,-0.0283 -0.1408,-0.0748 -0.2018,-0.1503 -0.0566,-0.0704 -0.0987,-0.1786 -0.1219,-0.3144 -0.024,-0.1364 -0.0327,-0.315 -0.0327,-0.5357 0,-0.1736 0.004,-0.3282 0.0138,-0.4647 0.009,-0.1357 0.0283,-0.2628 0.0566,-0.3753 0.0232,-0.1176 0.061,-0.2258 0.1075,-0.3289 0.0421,-0.1082 0.0987,-0.2207 0.1648,-0.3383 l 6.3481,-10.8275 c 0.0464,-0.0748 0.1168,-0.1358 0.2061,-0.1924 0.0893,-0.0559 0.2019,-0.1031 0.3427,-0.1358 0.1409,-0.0377 0.3151,-0.066 0.5169,-0.0798 0.2062,-0.0146 0.4509,-0.0189 0.7325,-0.0189 0.305,0 0.5772,0.009 0.803,0.0327 0.2301,0.0232 0.4174,0.0566 0.5539,0.0893 0.1409,0.0377 0.249,0.0893 0.3238,0.1452 0.0755,0.0617 0.1126,0.1321 0.1126,0.2163 v 11.3771 h 2.0095 c 0.1554,0 0.2817,0.0799 0.3761,0.2396 0.0987,0.159 0.1452,0.4036 0.1452,0.7325 z m -4.8969,-10.7527 h -0.0283 l -5.7281,9.7806 h 5.7564 z m 10.7571,14.297 c 0,0.6527 -0.1082,1.0847 -0.3238,1.301 -0.2163,0.2156 -0.6055,0.3238 -1.1739,0.3238 -0.554,0 -0.9344,-0.1082 -1.1456,-0.3194 -0.2113,-0.2113 -0.3144,-0.6338 -0.3144,-1.2676 0,-0.6527 0.1074,-1.0847 0.3238,-1.3003 0.2156,-0.2163 0.6055,-0.3245 1.1739,-0.3245 0.554,0 0.9344,0.1038 1.1456,0.3151 0.2062,0.2112 0.3144,0.6381 0.3144,1.2719 z m 14.8328,0.5823 c 0,0.1742 -0.0145,0.3194 -0.0428,0.437 -0.0276,0.1176 -0.061,0.2156 -0.1075,0.2861 -0.0472,0.0755 -0.0987,0.127 -0.1597,0.1597 -0.061,0.0334 -0.122,0.0472 -0.1829,0.0472 h -9.2971 c -0.061,0 -0.122,-0.0138 -0.1786,-0.0472 -0.0516,-0.0327 -0.1082,-0.0842 -0.1547,-0.1597 -0.0515,-0.0705 -0.0893,-0.1685 -0.1176,-0.2861 -0.0283,-0.1176 -0.0421,-0.2628 -0.0421,-0.437 0,-0.1641 0.0138,-0.305 0.0421,-0.4226 0.0283,-0.1219 0.061,-0.2207 0.1031,-0.2954 0.0378,-0.0799 0.0893,-0.1365 0.1503,-0.1786 0.061,-0.0421 0.127,-0.061 0.1975,-0.061 h 3.7047 v -13.5507 l -3.4419,2.0567 c -0.1735,0.0893 -0.3144,0.1452 -0.4226,0.1641 -0.103,0.0188 -0.188,0 -0.2533,-0.061 -0.0661,-0.061 -0.1082,-0.1597 -0.1314,-0.2962 -0.024,-0.1358 -0.0334,-0.3093 -0.0334,-0.5206 0,-0.1553 0.005,-0.2911 0.0189,-0.3993 0.0145,-0.1125 0.0377,-0.2018 0.066,-0.2773 0.0283,-0.0704 0.0654,-0.1357 0.1176,-0.1924 0.0465,-0.0515 0.1126,-0.1081 0.1968,-0.164 l 4.104,-2.6253 c 0.037,-0.0275 0.0799,-0.0515 0.1358,-0.0704 0.0566,-0.0138 0.127,-0.0326 0.2069,-0.0515 0.0842,-0.0189 0.1786,-0.0327 0.2911,-0.0378 0.1082,-0.004 0.244,-0.004 0.4131,-0.004 0.2164,0 0.4037,0.009 0.5496,0.0283 0.1452,0.0189 0.2577,0.0421 0.3427,0.0748 0.0842,0.0334 0.1357,0.0755 0.164,0.1219 0.0283,0.0523 0.0421,0.1038 0.0421,0.1598 v 15.6452 h 3.2213 c 0.0755,0 0.1459,0.0189 0.2069,0.061 0.0653,0.0421 0.1169,0.0987 0.1597,0.1786 0.0421,0.0747 0.0748,0.1735 0.098,0.2954 0.024,0.1176 0.0334,0.2585 0.0334,0.4226 z m 14.8139,-8.015 c 0,1.3663 -0.1081,2.6157 -0.3238,3.7425 -0.2163,1.1267 -0.5728,2.0945 -1.0708,2.9061 -0.5024,0.8124 -1.1551,1.4368 -1.9624,1.8833 -0.808,0.4457 -1.8033,0.6664 -2.9867,0.6664 -1.1173,0 -2.056,-0.1967 -2.8263,-0.596 -0.7652,-0.3993 -1.3808,-0.9859 -1.8498,-1.7605 -0.4654,-0.7754 -0.7986,-1.7279 -0.9954,-2.8597 -0.1974,-1.1319 -0.2962,-2.4321 -0.2962,-3.8972 0,-1.3569 0.1082,-2.6012 0.3289,-3.7331 0.2207,-1.1318 0.5772,-2.1032 1.0752,-2.9156 0.4929,-0.8124 1.1456,-1.4367 1.9529,-1.8832 0.8081,-0.4458 1.7983,-0.6665 2.9722,-0.6665 1.1275,0 2.0713,0.1975 2.8409,0.5961 0.7652,0.3993 1.3808,0.9866 1.8498,1.7612 0.4654,0.7747 0.7986,1.7279 0.9961,2.859 0.1967,1.1318 0.2954,2.4328 0.2954,3.8972 z m -2.4226,0.1648 c 0,-0.8879 -0.0334,-1.6858 -0.0944,-2.39 -0.0653,-0.7042 -0.1597,-1.3286 -0.286,-1.8687 -0.122,-0.5402 -0.2817,-1.0048 -0.4792,-1.3947 -0.1967,-0.3847 -0.4319,-0.7093 -0.7086,-0.9576 -0.2729,-0.2541 -0.5873,-0.437 -0.9394,-0.5495 -0.3565,-0.1177 -0.7514,-0.1736 -1.1928,-0.1736 -0.779,0 -1.4084,0.183 -1.897,0.5489 -0.4835,0.3666 -0.8683,0.869 -1.1456,1.5123 -0.2817,0.6381 -0.469,1.3895 -0.5729,2.2534 -0.098,0.8596 -0.1502,1.7845 -0.1502,2.7748 0,1.3242 0.0704,2.4561 0.2069,3.3861 0.1365,0.9292 0.3572,1.685 0.6526,2.2723 0.2955,0.5866 0.6759,1.0142 1.1413,1.277 0.4646,0.2679 1.0229,0.3993 1.685,0.3993 0.5119,0 0.9627,-0.0849 1.3526,-0.249 0.3898,-0.164 0.7231,-0.3993 1.0047,-0.7042 0.2774,-0.31 0.5119,-0.6766 0.6948,-1.1086 0.1837,-0.432 0.3289,-0.906 0.4414,-1.4273 0.1082,-0.5213 0.183,-1.089 0.2258,-1.6945 0.0421,-0.6105 0.061,-1.2443 0.061,-1.9064 z"
     style="fill:#1b1918;fill-rule:evenodd"
     id="path688" />
  <g
     id="Layer1032"
     transform="translate(-117.52965,-228.83214)">
    <path
       d="m 220.5139,411.4917 c 43.5299,25.3491 149.3923,26.7742 183.9348,8.2379 8.2352,-4.4199 -15.8001,52.4837 -54.6922,75.1144 -20.486,11.9203 -25.6648,10.8573 -52.226,12.5515 -43.2531,2.7582 -46.4656,-22.9228 -67.468,-55.129 -9.5329,-14.6192 -14.5435,-23.3331 -9.5486,-40.7748 z"
       style="fill:#f5b1b5;fill-rule:evenodd"
       id="path690" />
    <path
       d="m 404.408,423.1507 c -0.3734,7.4869 -42.54,12.8965 -94.1024,10.5029 -51.5625,-2.3935 -92.8202,-15.2073 -92.5836,-19.9513 0.4828,-9.6796 187.0594,1.9616 186.686,9.4484 z"
       style="fill:#f8c7cf;fill-rule:evenodd"
       id="path692" />
    <path
       d="m 315.5466,391.355 c 1.9382,-20.0784 -4.9892,-42.072 -30.1025,-38.1734 -9.3552,1.4538 -15.1101,10.444 -20.2939,-1.6565 -5.1091,30.6389 39.2261,-12.6244 50.3964,39.8299 z"
       style="fill:#1b1918;fill-rule:evenodd"
       id="path694" />
    <path
       d="m 350.6665,399.4971 c 9.6123,-18.2502 20.3653,-30.0666 37.7403,-18.1536 6.7539,4.6306 7.3143,9.5836 15.0363,1.7198 -5.189,26.2562 -22.2634,-16.6805 -52.7766,16.4338 z"
       style="fill:#1b1918;fill-rule:evenodd"
       id="path696" />
    <path
       d="m 358.1282,365.5171 c 4.3896,-8.0067 -4.1515,3.0219 -5.0314,4.5316 -9.4411,16.199 -17.6888,30.3571 -4.6764,47.2952 -2.489,5.1628 -12.5084,5.6686 -16.0327,5.8462 -2.9225,0.1471 -5.464,2.3035 -5.8163,5.3182 3.2603,-4.44 5.7899,-3.4478 5.9099,-3.4538 3.9403,-0.1986 15.3542,-0.7741 17.8847,-7.5162 l -0.002,-10e-4 c 0.1099,-0.2941 0.0682,-0.6369 -0.1401,-0.9017 -12.7148,-16.1376 -4.6976,-29.8931 4.4868,-45.6516 1.3832,-2.3732 1.997,-2.8952 3.4178,-5.4669 z"
       style="fill:#1b1918;fill-rule:evenodd"
       id="path698" />
    <path
       d="m 327.0652,419.8529 c -2.1109,0.3952 -9.9482,6.1885 -7.1412,-0.2336 0.5793,-1.3256 6.5606,0.3424 7.1412,0.2336 z"
       style="fill:#1b1918;fill-rule:evenodd"
       id="path700" />
    <path
       d="m 308.2658,492.6003 c 5.4663,-0.6985 -17.0268,9.6528 -32.6325,-10.1129 6.2568,5.562 24.8166,12.815 32.6325,10.1129 z"
       style="fill:#1b1918;fill-rule:evenodd"
       id="path702" />
    <path
       d="m 345.5973,445.5152 c 0.176,1.0476 -0.3774,2.0349 -1.4729,1.7649 -1.7039,-0.4199 -0.8191,-3.9005 1.4729,-1.7649 z"
       style="fill:#1b1918;fill-rule:evenodd"
       id="path704" />
    <path
       d="m 356.3235,242.1897 c -41.697,-12.0032 -76.9185,-16.8039 -78.6695,-10.7213 -1.7509,6.0825 30.6322,20.743 72.3293,32.7462 41.6977,12.0033 76.9185,16.8038 78.6695,10.7213 1.7509,-6.0825 -30.6316,-20.7428 -72.3293,-32.7462 z m -4.5362,0.912 c -36.1191,-10.3975 -66.5555,-14.8132 -67.9807,-9.8622 -1.4252,4.951 26.7005,17.3933 62.8196,27.7908 36.1211,10.3981 66.5568,14.8136 67.982,9.8626 1.4253,-4.951 -26.6998,-17.3932 -62.8209,-27.7912 z"
       style="fill:#1b1918;fill-rule:evenodd"
       id="path706" />
    <path
       d="m 425.9147,276.2832 c -0.7275,46.3014 3.2663,87.8597 -19.0502,155.8337 -14.2787,30.2897 -32.5505,61.2226 -92.0678,89.7376 h -11.1526 c -12.1432,-3.2365 -43.5594,-8.4332 -50.7989,-19.3763 -41.7911,-40.1013 -44.134,-87.8208 -35.3979,-132.9483 10.498,-44.0519 34.3556,-90.4 63.6448,-137.6821 -24.4973,46.6453 -47.3253,92.837 -56.2319,135.2487 -4.1254,33.3996 -10.595,65.7464 34.7731,121.3527 14.2476,13.9816 31.3568,18.4947 51.5221,12.899 49.4134,-14.9765 78.1032,-40.1884 90.3299,-73.5279 18.131,-52.8057 20.1993,-101.9234 24.4294,-151.5371 z"
       style="fill:#1b1918;fill-rule:evenodd"
       id="path708" />
    <path
       d="m 369.2497,358.0003 c 1.4552,-0.5827 0.9115,-6.7643 2.4087,-7.412 14.9277,-6.4513 41.3637,-8.7273 40.0857,14.643 -8e-4,0.012 -5.2516,-8.4731 -14.8909,-9.9649 -11.9581,-1.8507 -28.7238,3.181 -27.6035,2.7339 z"
       style="fill:#1b1918;fill-rule:evenodd"
       id="path710" />
    <path
       d="m 299.6359,324.8729 c 11.8439,7.7064 36.1601,29.4398 33.7062,23.7164 -0.9825,-2.2922 2.2544,-5.2536 0.3901,-7.1627 -21.7399,-22.2661 -50.251,-44.0736 -69.9657,-20.5385 -0.058,0.0697 15.6718,-9.1573 35.8694,3.9848 z"
       style="fill:#1b1918;fill-rule:evenodd"
       id="path712" />
    <path
       d="m 337.4973,454.5005 c -10.1555,-15.6317 -12.4729,-27.5789 -43.052,-18.7735 -3.083,-0.7436 -9.2746,-0.7741 -9.2774,-0.7776 -5.3389,-5.4302 -8.659,-9.3467 -9.5025,-7.3633 -0.808,1.8086 -1.6812,2.2296 8.9414,10.4152 -1.4047,45.8217 40.0143,37.854 52.7285,19.5157 2.241,-0.0113 11.7172,1.3636 11.1342,-2.6776 1.176,-4.0375 -8.6314,0.1685 -10.9722,-0.3389 z"
       style="fill:#1b1918;fill-rule:evenodd"
       id="path714" />
    <path
       d="m 286.6567,451.099 c -0.0135,14.2434 26.2337,37.5455 34.766,14.4132 -13.1799,-2.8997 -21.613,-3.3943 -34.766,-14.4132 z"
       style="fill:#ffffff;fill-rule:evenodd"
       id="path716" />
    <path
       d="m 284.9931,439.338 c -0.985,3.3646 -8.1573,25.098 1.0954,35.6059 21.4828,16.9273 40.8967,7.3527 50.939,-17.2302 -45.5463,37.6503 -48.5516,-18.3135 -52.0344,-18.3757 z"
       style="fill:#e30016;fill-rule:evenodd"
       id="path718" />
    <path
       d="m 291.6609,434.8291 c 13.6603,4.1097 24.3203,5.8837 40.8584,14.6587 2.5892,-2.5346 2.8425,-3.8104 1.5794,-5.5143 -9.1451,-12.3322 -25.3414,-15.8164 -42.4378,-9.1444 z"
       style="fill:#ffffff;fill-rule:evenodd"
       id="path720" />
    <path
       d="m 339.5353,455.6249 c -4.6356,-5.5158 -1.7988,-10.3487 -3.1057,-16.8842 -1.0409,-3.3894 -4.194,-6.316 -6.8807,-5.6905 -1.5915,0.3701 -4.1232,1.6403 -4.4644,1.6367 -1.1017,-1.4988 -1.8673,-2.771 -3.1297,-4.3646 -3.4665,-3.5762 -4.731,-4.2824 -8.8309,-3.5096 -12.0555,2.2714 -18.046,9.1443 -29.2056,7.1736 3.9732,7.7822 30.8657,-4.9723 47.5212,11.2418 2.4901,2.4242 2.8914,9.0545 8.0958,10.3968 z"
       style="fill:#e30016;fill-rule:evenodd"
       id="path722" />
    <g
       id="Layer1033">
      <g
         id="Layer1034">
        <path
           d="m 498.8039,566.1689 -0.9358,-2.688 c -0.4618,-1.2512 -0.8055,0.4205 -0.9599,0.6812 -0.9598,5.9253 1.5033,6.0419 1.8957,2.0068 z m 5.3635,-67.28 c -0.1109,-1.4289 -6.9641,-5.5934 -14.4272,-9.0718 -7.2404,-3.3043 -8.6202,-4.4364 -15.1213,-8.4875 -19.9823,-12.4523 -25.3833,-4.7228 -39.0575,-5.5838 0.2857,-0.2105 0.1491,-0.1522 0.6393,-0.3294 0.0978,-0.0353 0.6098,-0.1565 0.7154,-0.1752 4.9267,-0.8569 16.0899,-2.0546 20.4296,-1.6833 11.9784,1.0255 20.7097,10.4081 32.7716,15.5799 4.2361,1.8163 9.6286,4.9121 13.2131,7.7165 0.9101,0.7125 1.3086,1.4425 1.8649,2.2885 0.9665,0.2839 1.088,0.5512 1.399,0.6816 2.1817,1.053 4.0309,2.3965 4.7236,5.1023 l 0.8576,2.3845 c 1.3668,1.4641 1.708,1.5859 2.6653,3.4126 2.2166,4.2299 1.4861,8.4034 2.06,12.9508 0.6626,2.8798 3.5799,7.0571 5.0525,8.8079 2.1451,2.5506 4.2416,4.6123 5.6906,8.3467 1.0742,2.7681 2.042,9.213 3.3141,15.4245 1.1634,5.6832 2.6782,11.1247 2.7705,14.3603 0.0225,0.7803 -0.6726,0.6347 -1.1441,0.3348 -1.2084,-0.7678 -2.0728,-2.2449 -2.7208,-3.6917 -4.6538,-0.1207 -6.4666,-8.4289 -7.7372,-16.2603 -1.4466,-5.9268 -3.5982,-9.8213 -6.8496,-12.8251 -1.9702,2.1403 -5.2494,11.8182 -6.5462,12.505 -0.171,1.6154 -0.1709,3.569 0.3891,4.941 1.0437,2.6138 0.9671,4.7111 0.289,4.9211 -0.6941,0.2145 -2.7151,-1.5029 -4.1303,-2.9307 -2.2485,0.3626 -4.2312,7.2972 -5.9175,8.8977 -0.146,0.5303 -0.152,0.7753 -0.4063,1.3085 -1.868,3.7278 -2.7485,0.7469 -2.5838,-2.1527 0.0857,-1.5096 0.5747,-2.8616 1.0503,-3.5051 0.2149,-1.0457 2.3333,-9.6422 2.3017,-9.6393 -0.6883,-0.528 -1.6431,-1.5136 -2.3522,-2.2069 -0.7065,-0.6903 -3.317,-3.3359 -4.0801,-3.7204 -1.2456,-0.5344 -6.7807,5.6009 -7.9916,7.1589 -0.6907,0.8894 -1.0769,1.5688 -1.5323,2.0487 -0.8957,0.943 -1.2319,0.2266 -1.7799,-0.7764 -1.2366,-2.2641 1.8587,-7.7801 3.4868,-9.7799 0.6718,-0.8257 2.1662,-2.2979 3.2456,-2.4943 -2.3192,1.9481 -6.4035,6.3731 -3.7395,9.4715 0.9564,0.0409 5.2691,-5.8378 7.2013,-6.4894 0.2356,-1.3955 -4.7071,-4.2105 -5.9797,-5.1456 -2.2302,-1.6386 -4.3434,-2.9022 -6.6194,-4.427 -13.2328,-8.8646 -12.2347,-19.1312 -18.3348,-25.8253 -0.4746,-0.5207 -0.9433,-0.9833 -1.4062,-1.3953 -0.2874,-0.5719 -0.5972,-1.1723 -0.9073,-1.7322 1.463,0.9882 2.8141,2.371 4.2177,4.2238 3.5313,4.6613 5.2758,12.1481 8.9842,16.9481 3.9456,5.1067 8.5929,7.4913 14.4158,11.5519 4.9424,3.4461 10.4698,8.3702 13.5593,12.058 l 0.0314,0.0106 c 0.9307,-1.2225 2.1076,-2.9162 3.5663,-3.4186 0.4062,0.4533 0.4859,0.6272 0.8668,1.1261 0.8175,1.071 2.5422,2.3848 3.2009,3.9877 0.2176,-0.3236 0.2532,-0.0615 0.2004,-0.6331 -0.1637,-2.2096 -1.044,-6.0749 -1.8916,-7.8528 -3.093,-6.4864 -16.2016,-11.8843 -14.9643,-18.087 5.9603,-0.2562 9.2748,2.6075 14.6195,4.3342 3.2002,0.9914 8.3643,4.2744 10.6088,6.5799 1.8063,1.8553 3.6729,4.5886 4.9419,7.8718 1.7499,4.5267 2.9425,19.854 8.2512,20.7121 -0.3945,-1.2911 -0.8042,-2.5703 -0.9469,-3.9468 -0.0908,-0.8741 -0.2258,-0.8256 0.4932,-1.1158 0.9971,-0.4024 1.8884,-0.8307 2.3461,-0.1731 l -2.0613,1.0639 c 0.1407,2.8682 1.4381,6.1377 3.1442,7.5473 0.2969,0.2456 0.7183,0.3248 0.6595,-0.1381 -0.27,-2.1221 -0.7829,-4.0764 -0.9676,-5.7093 l -0.8304,-3.3453 c -0.7883,-3.523 -1.6415,-7.0931 -2.3254,-10.7297 -0.7321,-3.893 -1.1537,-7.3849 -2.7447,-10.6121 -2.246,-4.5563 -8.7935,-9.4879 -10.3161,-16.4326 -0.6455,-0.5957 -4.3711,-5.2798 -4.3843,-5.4061 1.1365,0.6834 1.849,1.2722 3.7773,3.5711 0.4261,0.508 0.5804,0.6084 0.6632,1.0612 l -0.1393,-1.7025 c 0.6539,-13.1906 -6.9538,-13.4524 -7.2906,-14.5871 0.9357,-0.1014 3.3286,1.3563 2.5493,-0.008 -0.6386,-1.1186 -0.5157,-1.832 -1.7029,-3.3007 -2.2867,-2.8303 -6.195,-2.6673 -7.6849,-4.0695 1.3703,0.1344 1.7348,0.1533 2.3872,0.3061 z m 1.0167,42.7868 1.4362,-6.1475 c 0.1773,-1.2074 0.9946,-2.613 -1.1539,-2.8893 -0.0371,0.5546 -3.1142,4.2616 -3.8853,5.7959 1.519,1.0143 2.3625,2.2227 3.603,3.2409 z m 2.077,-6.112 c -0.0129,1.8405 -1.7865,5.9784 -1.5996,6.9132 0.0353,0.1784 1.1521,2.4239 1.3978,2.9906 0.7015,1.6187 0.7775,2.6553 1.1863,4.2507 l 0.4927,-0.4802 c 0.4029,-1.6841 1.9343,-4.1477 2.789,-5.8654 0.815,-1.6369 2.5502,-4.4658 3.0379,-5.8049 -1.6405,-1.9323 -4.1039,-2.8463 -6.3337,-4.1317 -0.8511,0.0543 -0.2486,-0.2999 -0.6646,0.2206 0.0673,1.1458 0.1393,1.1434 -0.3058,1.9071 z m -8.1535,-5.6682 c -0.9665,0.0925 -0.4031,-0.5307 -0.6751,0.9064 -0.1993,1.0528 -0.9862,3.0064 -1.7375,3.7103 0.5505,0.851 3.2907,2.7207 4.3702,3.1299 0.5559,-1.6096 4.0119,-5.0318 3.6114,-5.4513 -0.5669,-0.5944 -3.1855,-1.6727 -5.569,-2.2953 z m -6.8128,-1.5348 c 0.5145,2.2693 2.1879,4.5411 3.7657,5.5685 0.9111,-1.6956 1.3272,-1.9049 1.5729,-4.7529 -1.3905,-0.2941 -4.022,-1.6998 -5.3386,-0.8156 z m -8.5201,26.4195 c 0.5671,-0.6059 0.7225,-0.9341 0.9803,-1.4457 -0.9745,-0.9028 -1.2867,-2.0887 -1.6981,-2.7946 -0.6622,1.5959 -1.4909,2.8534 -0.5747,4.2512 0.5248,0.8023 0.6458,0.6795 1.2925,-0.0109 z m 17.3052,-2.3738 c 0.1662,-0.2043 0.4508,-0.6369 0.6172,-1.0067 0.5666,-0.4738 0.8925,-1.2396 2.0059,-1.5961 3.0652,3.8092 5.3213,5.0462 5.3165,8.8248 -10e-4,0.9207 0.0396,1.1401 -0.7216,0.7895 -2.4882,-1.1453 -4.1374,-5.3382 -7.218,-7.0115 z m -1.7719,12.937 c 0.9301,-1.8356 3.273,-6.4565 4.6594,-7.7754 0.9449,-0.8994 0.4575,-10e-4 0.6816,-0.9022 -0.9995,-1.5019 -2.0669,-1.9123 -3.3739,-2.8242 -0.5296,-0.3694 -0.4385,-0.3719 -0.9523,-0.6155 -1.3171,2.3667 -3.066,10.2801 -1.0148,12.1173 z"
           style="fill:#1b1918;fill-rule:evenodd"
           id="path724" />
        <path
           d="m 500.3168,552.1164 c 1.4196,-0.5418 1.7506,-1.789 3.3862,-2.3128 0.0262,0.0322 5.195,4.1722 5.3703,7.7503 0.0847,1.7276 0.5202,3.3278 -1.4354,1.7768 -1.1211,-0.8887 -2.4272,-2.4818 -3.8517,-3.8822 -1.7069,-1.6774 -3.4522,-3.1219 -3.4694,-3.3321 z"
           style="fill:#e30016;fill-rule:evenodd"
           id="path726" />
        <path
           d="m 532.209,564.1444 c 0.185,1.6337 0.6831,3.5831 0.9586,5.6581 0.0688,0.5205 -0.2766,0.4924 -0.6142,0.2191 -1.7241,-1.3926 -3.0388,-4.6887 -3.1805,-7.5771 l 1.713,-0.9033 c 0.6922,-0.5922 0.483,0.0255 1.1231,2.6032 z"
           style="fill:#e30016;fill-rule:evenodd"
           id="path728" />
        <path
           d="m 483.0028,555.4162 c -1.6829,-1.6621 -0.7055,-3.0462 0.0541,-4.8763 1.133,1.252 0.2899,1.7453 1.9536,2.3611 -0.3633,0.7206 -1.0284,1.9354 -2.0077,2.5152 z"
           style="fill:#e30016;fill-rule:evenodd"
           id="path730" />
        <path
           d="m 497.3142,569.1513 c -1.1122,-0.6916 -0.5964,-5.927 -0.0323,-6.0009 l 0.2611,-0.2875 0.3491,0.1662 0.9118,3.1398 c -0.0904,0.9345 -0.0894,2.5583 -1.4897,2.9824 z"
           style="fill:#e30016;fill-rule:evenodd"
           id="path732" />
      </g>
      <path
         d="m 461.7346,509.2194 c -4.5445,-5.7134 -13.8816,-11.6236 -26.7067,-15.1121 -11.5825,-3.1506 -26.1369,-4.2339 -40.6672,-3.2803 l 0.0586,0.8917 c 14.4292,-0.9473 28.2978,0.6884 39.7909,3.8145 17.259,4.6948 14.708,4.8409 27.5244,13.6862 z"
         style="fill:#1b1918;fill-rule:evenodd"
         id="path735" />
      <path
         d="m 450.6976,473.2446 c -5.7397,-0.2096 -18.2538,-1.7513 -26.7745,-3.1672 -8.2417,-1.3697 -15.6258,-2.5966 -18.0906,-2.3184 l 0.1019,0.8867 c 2.3277,-0.2629 9.6591,0.9553 17.842,2.3153 8.537,1.4187 16.2023,2.7644 22.0227,2.9768 z"
         style="fill:#1b1918;fill-rule:evenodd"
         id="path737" />
    </g>
    <g
       id="Layer1035">
      <path
         d="m 236.7982,282.2866 c 20.3981,-12.8162 18.9517,-11.7958 39.4482,-19.1117 7.3308,-2.6175 31.3448,-8.3434 38.689,-7.4391 13.6461,1.6799 12.5203,5.767 27.1458,9.9044 4.4041,1.2453 21.4871,14.9969 21.2013,19.5044 -8.2755,4.3263 -9.9433,-19.1924 -35.1418,-6.3833 -1.7803,0.905 -48.4284,17.9583 -52.1137,17.487 -7.6966,-0.985 -22.6433,-5.5703 -29.0542,-0.5661 -9.6468,7.5296 -7.3676,-0.6121 -10.6395,-10.1407 -0.3319,-0.9666 -0.4869,-2.657 0.4649,-3.2549 z"
         style="fill:#ffffff;fill-rule:evenodd"
         id="path740" />
      <g
         id="Layer1036">
        <path
           d="m 352.7342,326.7777 c 0.7302,1.0452 1.9772,7.8929 5.2571,8.8313 0.3282,-1.2008 0.4319,-0.0935 -0.176,-1.5079 -0.7964,-1.8529 0.0906,0.595 -0.3283,-0.7029 l -0.2062,-1.1398 c -0.2082,-0.5979 -0.2349,-0.4231 -0.3308,-1.0944 -0.13,-0.9074 -0.0434,-0.4814 0.0139,-1.1767 -0.6295,-1.0393 -1.0166,-3.2542 -1.6926,-4.6412 -2.4679,-1.3103 -3.1647,0.8859 -2.5371,1.4316 z"
           style="fill:#e30016;fill-rule:evenodd"
           id="path742" />
        <path
           d="m 338.2285,324.0676 -1.4496,0.0794 -0.8129,0.9986 0.0401,0.1819 c 0.8759,1.6684 0.3018,1.9122 0.638,3.913 0.2567,1.5254 0.5679,2.1847 1.2669,3.5773 l 1.9694,1.7682 c 0.1836,-1.2178 -0.1429,-0.8333 0.199,-2.4924 -0.864,-0.7579 -0.6665,-3.238 -0.685,-4.4918 -0.1866,-3.6285 -0.0589,-5.0324 -1.1659,-3.5342 z"
           style="fill:#e30016;fill-rule:evenodd"
           id="path744" />
        <path
           d="m 377.6946,291.8895 -1.396,-0.9522 -1.3139,2.3979 c 1.3945,0.8799 3.5299,1.8757 5.1025,2.3918 2.9776,0.979 4.524,0.4228 4.9008,0.1802 0.6738,-0.4345 -0.7791,-0.809 -2.5149,-1.5759 -1.9881,-0.8777 -4.3727,-2.1429 -4.7785,-2.4418 z"
           style="fill:#e30016;fill-rule:evenodd"
           id="path746" />
        <path
           d="m 318.0658,312.6 c -1.2909,0.8788 -0.6753,0.0981 -0.8994,1.4824 0.0419,2.28 0.0829,3.4145 1.4709,5.0527 0.2049,0.2418 0.466,0.4941 0.6147,0.7055 0.8755,1.2803 0.3938,-2.2971 0.3893,-2.3306 -0.2704,-2.2489 0.3224,-3.8747 -0.1416,-5.6963 l -0.1775,0.2183 c -0.6311,0.9853 -1.0062,0.5327 -1.2564,0.568 z"
           style="fill:#e30016;fill-rule:evenodd"
           id="path748" />
        <path
           d="m 340.8249,301.6031 0.3942,-0.0508 c -0.0725,-0.7636 0.8169,0.2598 -0.4317,-1.0012 z"
           style="fill:#b5b5b5;fill-rule:evenodd"
           id="path750" />
        <path
           d="m 330.4409,284.248 c 2.0442,2.8571 7.2597,4.0682 8.7207,8.7928 0.8925,2.8868 0.3897,6.663 0.3733,9.8565 -0.007,1.5047 -0.1824,18.8824 -0.6167,19.8381 0.3344,1.1966 0.456,3.4973 0.4762,4.8664 0.0185,1.2538 -0.179,3.7339 0.685,4.4918 l 0.5719,0.188 c -0.6069,-3.2851 -0.4417,-11.8564 -0.3301,-15.4753 0.0736,-2.41 0.1813,-5.0254 0.2502,-7.6745 0.0543,-2.0941 -0.1374,-5.9287 0.2535,-7.5287 l -0.0375,-1.052 c 1.2486,1.261 0.3592,0.2376 0.4317,1.0012 2.531,5.1329 2.3779,19.4305 6.2212,22.8761 l 0.8131,0.3679 c -4.2795,-6.162 -3.5857,-19.731 -6.6599,-24.9617 -1.6101,-2.7389 -0.7424,-2.5091 -1.1247,-4.9381 -0.8128,-5.1629 -2.9697,-5.4041 -6.9515,-9.3779 -0.7204,-0.005 0.003,0.269 -1.1028,-0.277 -0.053,-0.0263 -0.7907,-0.5168 -0.8855,-0.5813 -4.1945,-2.8364 -7.7068,-6.241 -10.7115,-8.38 -1.8692,-1.331 -1.3104,-0.6399 -1.8183,-0.5964 z"
           style="fill:#1b1918;fill-rule:evenodd"
           id="path752" />
        <path
           d="m 241.3402,301.5435 c 5.4774,-3.9469 10.3252,-7.2172 13.8683,-7.8575 4.1032,0.087 24.5063,3.0793 25.388,3.1067 l 1.262,-0.2711 c 1.1237,-0.6128 4.3274,-1.4511 5.9393,-2.0596 1.6653,-0.6295 4.7805,-1.8702 5.8525,-2.8566 l -0.0922,-0.4164 c -0.9909,0.2777 -2.1729,0.9437 -3.2276,1.399 -10.6974,4.6177 -24.0799,-1.1843 -34.3743,-1.3126 -2.9769,-0.037 -9.5261,4.3845 -17.39,9.9064 0.9311,0.1111 1.8561,0.2316 2.774,0.3617 z"
           style="fill:#1b1918;fill-rule:evenodd"
           id="path754" />
        <path
           d="m 303.1685,288.5145 0.0291,0.3229 c 19.4577,11.6166 7.7941,16.3745 12.0622,24.1586 1.9775,3.6057 0.6618,0.8358 1.4659,4.1181 0.5315,2.1657 1.392,2.3677 2.9322,3.5897 -0.206,-1.1492 0.3122,0.1421 -0.3876,-0.8489 -0.1496,-0.2115 -0.4281,-0.478 -0.633,-0.7198 -1.388,-1.6382 -1.429,-2.7727 -1.4709,-5.0527 -0.1026,-0.001 -0.214,-0.0987 -0.3058,-0.0408 -0.0784,0.0494 -0.2238,-0.051 -0.2519,-0.0816 -0.6275,-0.6687 -0.7548,0.9996 -0.2442,-0.586 -2.5468,-5.274 0.167,-11.2721 -0.7816,-14.1713 -0.7809,-2.3856 -9.393,-11.8031 -12.4144,-10.6882 z"
           style="fill:#1b1918;fill-rule:evenodd"
           id="path756" />
        <path
           d="m 348.2534,324.7963 -0.8131,-0.3679 c 0.0231,0.3523 -0.2852,0.5471 0.7564,1.8048 0.232,0.2797 1.1914,1.2072 1.5218,1.4892 1.1182,0.9546 2.6653,1.4228 3.3198,2.4109 1.5406,2.3259 1.3807,4.7211 4.4784,6.5611 l 0.8441,-0.7785 -0.3695,-0.3069 c -3.2799,-0.9384 -4.5269,-7.7861 -5.2571,-8.8313 -1.0568,-1.5136 -0.0722,-1.0017 -1.1703,-0.397 0.8191,1.1996 0.7729,2.4181 0.8321,2.3898 0.0664,-0.0313 0.0231,0.1895 0.0285,0.2849 -2.1741,-1.6998 -2.6026,-2.7111 -4.1711,-4.2591 z"
           style="fill:#1b1918;fill-rule:evenodd"
           id="path758" />
        <path
           d="m 305.0689,256.8965 1.9259,-0.3729 c 2.999,-3.0676 6.9732,0.8649 9.8418,3.6428 4.1167,3.9867 15.4424,14.5998 19.6148,17.4353 3.4278,2.3301 7.6755,4.3248 9.9725,7.605 2.2231,3.1738 2.1331,9.9158 2.8887,14.8837 0.2634,1.7299 0.7369,2.9785 0.9291,4.7175 l 4.3961,19.0684 0.5225,0.4767 0.111,0.9931 c 0.6764,1.3872 1.0627,3.6016 1.6926,4.6412 l 0.208,-0.0505 c 0.1948,-1.6687 -3.4313,-11.818 -3.9731,-14.3327 -1.0518,-4.8843 -2.0732,-9.6611 -2.9028,-14.3681 -0.8156,-4.6262 -0.7319,-10.772 -2.1816,-14.4729 -1.9983,-5.1031 -9.7021,-8.6877 -14.2922,-12.3512 0.7045,-0.1905 0.1336,-0.0946 0.8717,-0.1427 l 4.1981,0.6635 c 1.8599,0.4041 3.2438,0.7991 4.9968,1.3762 9.9942,3.2905 23.0228,21.052 30.415,19.165 l -0.1663,-0.2791 c -0.5388,-0.3465 -3.4962,-1.1547 -5.0767,-2.0288 -5.6172,-3.1081 -10.3862,-7.8872 -15.4852,-12.0805 -6.3939,-5.2586 -14.5427,-8.7682 -20.7997,-7.4862 l -16.2006,-14.9037 -0.8871,-0.9839 0.921,-0.1621 c 2.0203,-0.6319 4.8345,1.6644 7.1548,2.7915 2.074,1.0085 4.7755,1.8594 6.9068,2.601 4.8019,1.6701 9.3463,3.0564 14.1697,4.9884 6.9466,2.7817 8.7471,5.3243 14.1705,10.1461 4.0023,3.5595 13.4693,10.4269 14.2082,11.1364 0.2227,0.0429 0.1133,-0.0975 0.8967,0.2472 0.1193,0.0527 0.4925,0.2558 0.6176,0.329 0.6509,0.3804 0.9895,0.6867 1.5651,1.1481 l 1.3964,0.9524 -0.6782,-0.8938 c -0.3624,-0.3479 -0.6263,-0.4704 -1.1216,-0.9525 -2.0367,-1.9663 -5.693,-3.9272 -8.1414,-5.7556 -8.34,-6.2281 -12.726,-12.9021 -22.7709,-17.1732 -6.2035,-2.6375 -18.5422,-6.1228 -22.7287,-8.4295 -3.0666,-1.6896 -4.5019,-2.9305 -7.2461,-1.6434 -4.5528,-3.2746 -5.4632,-3.0704 -8.7017,-1.4416 -3.7463,1.8847 -30.8161,9.4556 -34.7421,10.4171 -5.1096,1.2513 -18.7304,3.7785 -21.6892,5.3612 -3.1473,1.6831 -29.1452,20.8425 -40.569,30.2264 0.5488,-0.0962 1.0999,-0.1867 1.6532,-0.2716 11.5237,-8.6166 32.2442,-24.6892 36.9173,-27.8461 3.0896,-2.0864 6.6859,-2.9149 9.4641,-3.474 14.0898,-2.8342 24.6752,-5.3179 38.409,-9.7148 3.2272,-1.0331 6.1128,-2.3365 9.3192,-3.4018 z"
           style="fill:#1b1918;fill-rule:evenodd"
           id="path760" />
        <path
           d="m 312.8213,284.2979 -0.9073,-0.8019 -0.6444,0.6615 c 2.902,2.9771 6.3047,7.4706 8.4995,10.684 1.7181,2.5161 1.7299,3.0398 1.4011,5.644 -0.1861,1.474 -0.8114,4.6937 -0.6855,6.0486 l 0.5126,-0.246 c 1.494,-2.4609 1.6681,-8.3436 0.4781,-10.4316 l -6.7575,-9.4775 c 2.4891,1.0835 14.3978,7.8376 16.1155,11.3266 1.1695,2.3735 1.0242,7.2327 1.0477,9.7715 0.061,6.4597 -0.5423,13.061 3.3313,18.6403 1.6323,2.352 -0.1738,4.3095 2.0278,6.2841 l 0.6708,0.4163 c -0.699,-1.3926 -1.0102,-2.0519 -1.2669,-3.5773 -0.3362,-2.0008 0.2379,-2.2446 -0.638,-3.913 -0.4613,1.1161 -0.0769,0.4398 -0.5082,0.4559 -2.321,-7.7123 -2.9948,-7.4082 -2.797,-17.1285 0.2636,-12.8986 0.3745,-11.9436 -13.2452,-20.8986 -2.5286,-1.6633 -4.1631,-2.2041 -6.6344,-3.4584 z"
           style="fill:#1b1918;fill-rule:evenodd"
           id="path762" />
        <path
           d="m 376.1011,291.192 c -0.8734,0.1047 0.0219,-0.7717 -1.1811,0.6407 -0.2665,0.3133 -0.3145,0.7841 -0.437,1.1875 0.2257,1.2204 0.3597,0.6553 0.8882,1.7444 l -1.2338,0.4296 0.1658,0.2799 0.6093,-0.0176 c 1.8393,-0.4088 0.006,-0.7144 1.691,-0.2496 1.7991,0.4964 3.296,2.0116 6.4299,1.6482 l 1.0391,-0.0944 0.7774,-0.8748 c -1.8329,0.6512 -2.5239,0.5772 -4.7627,-0.1589 -1.5724,-0.5165 -3.708,-1.5119 -5.1025,-2.3918 z"
           style="fill:#1b1918;fill-rule:evenodd"
           id="path764" />
        <path
           d="m 375.8948,290.0432 c 0.4955,0.4827 0.7596,0.6048 1.122,0.9527 l 0.6778,0.8936 c 1.9494,1.4342 5.2244,3.6665 7.7064,3.4558 l -1.2067,-0.837 c -2.6738,-0.2136 -6.1358,-4.3142 -8.2995,-4.4651 z"
           style="fill:#1b1918;fill-rule:evenodd"
           id="path766" />
        <path
           d="m 340.0794,332.0936 c -0.3419,1.6591 -0.0154,1.2746 -0.199,2.4924 l -1.9694,-1.7682 -0.6708,-0.4163 c 0.1029,1.7805 1.5198,2.7513 3.5443,2.3561 l -0.1332,-2.476 z"
           style="fill:#1b1918;fill-rule:evenodd"
           id="path768" />
        <path
           d="m 335.966,325.1456 0.8129,-0.9986 1.4496,-0.0794 c 1.0091,-1.3651 0.2337,-0.008 0.0178,-1.0094 -1.0402,0.0778 -2.0492,0.4264 -2.2803,2.0874 z"
           style="fill:#1b1918;fill-rule:evenodd"
           id="path770" />
        <g
           id="Layer1037">
          <path
             d="m 319.4997,311.8137 c 0.464,1.8216 -0.1288,3.4474 0.1416,5.6963 0.1517,1.2578 0.2873,0.8363 0.136,2.0546 l 0.5687,-0.53 c -0.0808,-0.1935 -0.1377,-0.0734 -0.2063,-0.5809 -0.004,-0.0317 0.007,-0.7326 0.008,-0.7427 l 0.3269,-3.8544 c 0.0762,-1.5064 0.4308,-3.7767 0.3891,-5.2323 -0.0131,-0.1405 -0.1323,-0.2596 -0.0535,-0.4208 0.0884,-0.1821 -0.003,-0.3419 0.0285,-0.5604 l -0.5943,0.4323 c -0.4039,1.4876 -0.0717,2.4344 -0.7444,3.7383 z"
             style="fill:#1b1918;fill-rule:evenodd"
             id="path772" />
          <path
             d="m 357.2808,332.2584 0.2062,1.1398 c 0.4189,1.2979 -0.4681,-1.15 0.3283,0.7029 0.6079,1.4144 0.5042,0.3071 0.176,1.5079 l 0.3695,0.3069 c 0.6321,-1.5066 0.1814,-2.5785 -0.325,-3.7181 -0.4483,0.5849 -0.1979,0.5551 -0.755,0.0606 z"
             style="fill:#1b1918;fill-rule:evenodd"
             id="path774" />
          <path
             d="m 353.5354,324.4307 -0.9843,1.2097 c 1.555,0.1552 1.191,-1.1061 2.7202,-0.2943 l -0.111,-0.9931 -0.5225,-0.4767 z"
             style="fill:#1b1918;fill-rule:evenodd"
             id="path776" />
          <path
             d="m 356.9639,329.9873 c -0.0573,0.6953 -0.1439,0.2693 -0.0139,1.1767 0.0959,0.6713 0.1226,0.4965 0.3308,1.0944 0.5571,0.4945 0.3067,0.5243 0.755,-0.0606 -0.3143,-1.2091 -0.0984,-1.0876 -0.8639,-2.261 z"
             style="fill:#1b1918;fill-rule:evenodd"
             id="path778" />
          <path
             d="m 316.3645,313.374 c -0.5106,1.5856 -0.3833,-0.0827 0.2442,0.586 0.0281,0.0306 0.1735,0.131 0.2519,0.0816 0.0918,-0.0579 0.2032,0.0394 0.3058,0.0408 0.2241,-1.3843 -0.3915,-0.6036 0.8994,-1.4824 l -0.1237,-0.1818 c -1.3744,-0.2902 -1.1243,0.4676 -1.5776,0.9558 z"
             style="fill:#1b1918;fill-rule:evenodd"
             id="path780" />
          <path
             d="m 320.4847,306.5341 -0.2406,1.5413 0.5943,-0.4323 c -0.0318,0.2185 0.0599,0.3783 -0.0285,0.5604 -0.0788,0.1612 0.0404,0.2803 0.0535,0.4208 0.1163,-0.4427 0.2691,-0.8971 0.2988,-1.2544 0.0885,-1.0732 -0.008,-0.5041 -0.1649,-1.0818 z"
             style="fill:#1b1918;fill-rule:evenodd"
             id="path782" />
          <path
             d="m 317.9421,312.4182 0.1237,0.1818 c 0.2502,-0.0353 0.6253,0.4173 1.2564,-0.568 z"
             style="fill:#1b1918;fill-rule:evenodd"
             id="path784" />
        </g>
        <g
           id="Layer1038">
          <path
             d="m 316.9976,273.938 c -1.383,-0.2751 -2.2497,-0.9375 -2.7171,-2.1674 1.105,0.58 2.1501,1.2159 2.7171,2.1674 z m -7.2411,-5.0274 1.4041,0.8997 -2.7916,-0.7053 c 1.9688,1.2485 3.4295,1.7288 5.5047,3.3705 1.8182,1.4379 3.6236,2.5338 5.4649,4.0135 l 9.6502,7.3792 c 1.6032,0.9213 0.5452,0.5223 1.4521,0.3798 l -11.4417,-8.5641 c 0.5079,-0.0435 -0.0509,-0.7346 1.8183,0.5964 3.0047,2.139 6.517,5.5436 10.7115,8.38 0.0948,0.0645 0.8325,0.555 0.8855,0.5813 1.1055,0.546 0.3824,0.2725 1.1028,0.277 l -22.8595,-16.4652 c -1.0076,-0.3336 -0.4992,-0.1205 -0.9013,-0.1428 z"
             style="fill:#1b1918;fill-rule:evenodd"
             id="path787" />
          <path
             d="m 293.5584,291.1892 0.092,0.4168 c 1.7324,0.0657 2.2201,-0.6976 4.7589,-1.5696 2.4518,-0.8424 3.1617,-0.6627 4.7883,-1.199 l -0.0291,-0.3229 c -2.2361,-0.2821 -7.9872,1.6305 -9.6101,2.6747 z"
             style="fill:#1b1918;fill-rule:evenodd"
             id="path789" />
          <path
             d="m 308.369,269.105 2.7916,0.7053 -1.4041,-0.8997 c -2.1742,-1.7486 -5.2569,-1.7588 -7.1708,-0.0835 1.4831,0.1808 1.7653,-0.1389 2.9162,-0.1268 1.0385,0.0104 1.8512,0.3389 2.8671,0.4047 z"
             style="fill:#1b1918;fill-rule:evenodd"
             id="path791" />
          <path
             d="m 310.0433,282.6713 1.2263,1.4862 0.6444,-0.6615 0.9073,0.8019 c 0.0528,-0.8319 -1.1599,-1.4677 -1.9846,-2.1462 z"
             style="fill:#1b1918;fill-rule:evenodd"
             id="path793" />
          <path
             d="m 314.2805,271.7706 c 0.4674,1.2299 1.3341,1.8923 2.7171,2.1674 -0.567,-0.9515 -1.6121,-1.5874 -2.7171,-2.1674 z"
             style="fill:#1b1918;fill-rule:evenodd"
             id="path795" />
          <path
             d="m 309.1427,281.9419 0.9006,0.7294 0.7934,-0.5196 -1.4407,-1.1692 c -0.2476,0.7918 -0.2741,0.366 -0.2533,0.9594 z"
             style="fill:#1b1918;fill-rule:evenodd"
             id="path797" />
          <path
             d="m 305.0691,256.8971 0.8953,0.4878 1.0304,-0.8613 z"
             style="fill:#1b1918;fill-rule:evenodd"
             id="path799" />
          <path
             d="m 309.1427,281.9419 c -0.0208,-0.5934 0.006,-0.1676 0.2533,-0.9594 l -0.725,-0.0978 z"
             style="fill:#1b1918;fill-rule:evenodd"
             id="path801" />
          <path
             d="m 316.575,258.696 -0.6106,-0.9111 0.6448,-0.2353 -0.921,0.1621 z"
             style="fill:#1b1918;fill-rule:evenodd"
             id="path803" />
          <path
             d="m 280.5965,296.7927 1.262,-0.2711 z"
             style="fill:#1b1918;fill-rule:evenodd"
             id="path805" />
        </g>
      </g>
    </g>
    <g
       id="Layer1039">
      <path
         d="m 298.6734,721.8076 c 40.9757,0 74.1931,4.9765 74.1931,11.1156 0,6.1391 -33.2174,11.1156 -74.1931,11.1156 -40.9757,0 -74.193,-4.9765 -74.193,-11.1156 0,-6.1391 33.2173,-11.1156 74.193,-11.1156 z"
         style="fill:#1b1918;fill-rule:evenodd"
         id="path810" />
      <path
         d="m 299.1037,719.3235 c 40.4707,0 73.2797,4.0506 73.2797,9.0478 0,4.9972 -32.809,9.0479 -73.2797,9.0479 -40.4728,0 -73.2804,-4.0507 -73.2804,-9.0479 0,-4.9972 32.8076,-9.0478 73.2804,-9.0478 z"
         style="fill:#ffffff;fill-rule:evenodd;stroke:#1b1918;stroke-width:0.5669;stroke-linecap:butt;stroke-linejoin:miter;stroke-dasharray:none"
         id="path812" />
      <path
         d="m 293.0874,708.5907 h 12.3519 v 17.5372 h -12.3519 z"
         style="fill:#ffffff;fill-rule:evenodd"
         id="path814" />
    </g>
    <path
       d="m 248.0533,496.7565 c 5.157,9.2626 40.6887,37.7606 47.9558,50.4982 6.1944,10.8575 11.0209,22.6214 13.206,34.921 2.1235,19.9856 3.2628,40.0426 1.1647,59.9582 -2.1164,20.0903 -7.5126,39.9718 -13.6666,59.9581 -3.0343,9.9709 -7.7313,17.2627 -20.6338,22.182 3.5805,1.1421 8.8238,2.0429 14.7104,2.3719 12.8055,-32.5045 23.663,-64.7989 25.5014,-97.5143 1.8235,-32.4564 -5.2561,-65.0649 -15.1598,-97.5362 -0.7422,-2.4341 0.3765,-4.3043 2.8644,-4.3043 0,0 0,0 0,0 2.5,0 5.5236,1.861 6.3111,4.3043 10.4662,32.4628 18.0086,65.1272 16.1065,97.5801 -1.919,32.7395 -13.4119,65.0317 -27.0418,97.5362 5.8137,-0.2193 11.8821,-1.0755 17.417,-2.7887 -8.0228,-0.9007 -7.9407,-10.953 -3.5805,-22.2923 7.357,-19.1329 15.2206,-46.5639 17.1502,-70.6105 1.912,-23.8236 -1.0076,-44.2762 -1.5411,-49.5252 -1.0926,-12.1234 -2.7625,-24.3954 -3.4227,-35.4043 -1.3119,-21.894 3.3335,-32.905 23.179,-43.2884 -5.2922,0 -20.1448,4.2824 -25.437,4.2824 -5.2794,0 -10.5596,0 -15.8517,0 -5.0127,1.0543 -10.5596,1.0543 -16.5799,0 -6.4449,0 -12.8897,0 -19.3226,0 -6.4328,0 -13.1296,-5.0381 -23.329,-10.3282 z"
       style="fill:#1b1918;fill-rule:evenodd"
       id="path817" />
    <path
       d="m 165.4214,371.5056 c 7.6492,66.6542 17.5026,137.8802 80.5169,172.5359"
       style="fill:#1b1918;fill-rule:evenodd;stroke:#1b1918;stroke-width:0.5669;stroke-linecap:butt;stroke-linejoin:miter;stroke-dasharray:none"
       id="path819" />
    <path
       d="m 117.7685,432.3037 c 21.8522,34.1971 52.4971,67.5649 66.2912,90.2351 l 1.0805,3.4269"
       style="fill:#1b1918;fill-rule:evenodd;stroke:#1b1918;stroke-width:0.5669;stroke-linecap:butt;stroke-linejoin:miter;stroke-dasharray:none"
       id="path821" />
  </g>
  <path
     d="m 31.086549,-176.20784 c 0,3.1414 0.6378,5.4644 1.9055,6.9679 1.2756,1.5043 2.8187,2.2598 4.6301,2.2598 1.8422,0 3.4169,-0.7796 4.7236,-2.3383 1.315,-1.5591 1.9684,-3.9683 1.9684,-7.2357 0,-3.1179 -0.6378,-5.4485 -1.921,-6.9996 -1.2833,-1.5514 -2.8109,-2.3225 -4.5905,-2.3225 -1.7637,0 -3.3224,0.8263 -4.6768,2.4718 -1.3618,1.6538 -2.0393,4.0476 -2.0393,7.1966 z m -3.7791,21.5108 v -33.9194 h 3.7791 v 3.2201 c 0.8901,-1.2438 1.8975,-2.1804 3.0237,-2.8026 1.118,-0.6222 2.4801,-0.9374 4.0785,-0.9374 2.0943,0 3.9365,0.5358 5.5352,1.6141 1.5979,1.0709 2.8027,2.5908 3.6219,4.543 0.8107,1.9608 1.22,4.1023 1.22,6.4406 0,2.4965 -0.4484,4.7478 -1.3462,6.7559 -0.8977,1.9998 -2.2045,3.5353 -3.9209,4.606 -1.7084,1.063 -3.5118,1.5981 -5.4011,1.5981 -1.3859,0 -2.6303,-0.2914 -3.7244,-0.8739 -1.1024,-0.5825 -1.9999,-1.315 -2.7083,-2.2045 v 11.96 z M 4.1514494,-178.69574 H 17.804249 c -0.1814,-2.0628 -0.7086,-3.606 -1.5667,-4.6378 -1.3153,-1.5979 -3.0316,-2.4009 -5.1338,-2.4009 -1.9054996,0 -3.5035996,0.6378 -4.8029996,1.9134 -1.2912,1.2753 -2.0075,2.984 -2.1493,5.1253 z m 13.6054996,6.6611 4.299,0.5669 c -0.6695,2.4957 -1.921,4.4408 -3.748,5.8184 -1.8266,1.3782 -4.1573,2.0707 -6.9996,2.0707 -3.5741996,0 -6.4087996,-1.1021 -8.5032996,-3.3066 -2.09449998,-2.1968 -3.14139998,-5.2911 -3.14139998,-9.2673 0,-4.1099 1.0551,-7.3066 3.17259998,-9.574 2.118,-2.2759 4.8659,-3.4098 8.2439996,-3.4098 3.2675,0 5.9366,1.1103 8.0073,3.3389 2.0707,2.2278 3.1101,5.3615 3.1101,9.4006 0,0.2443 -0.008,0.6142 -0.0235,1.1024 H 3.9153494 c 0.1573,2.6849 0.9133,4.7477 2.2833,6.173 1.3618,1.425 3.0705,2.1413 5.1096996,2.1413 1.52,0 2.8188,-0.4011 3.8897,-1.2045 1.0783,-0.803 1.9287,-2.0863 2.5589,-3.85 z m -33.4942,-16.5818 v 10.582 c 1.3385,0 2.2836,-0.2517 2.8267,-0.7478 0.5434,-0.5037 1.3229,-1.9763 2.3307,-4.4331 0.9450004,-2.3306 1.8031004,-3.8109 2.5750004,-4.4563 0.7554,-0.6299 1.9522,-0.9448 3.5977,-0.9448 h 1.5199 v 3.4248 l -1.1262,-0.0232 c -1.1103,0 -1.811,0.1649 -2.118,0.4881 -0.3223,0.3387 -0.8184,1.3464 -1.4803,3.0231 -0.6137,1.6064 -1.1806,2.7088 -1.7005,3.3305 -0.5196,0.6142 -1.3385004,1.1732 -2.4406004,1.6849 1.7949004,0.4804 3.5430004,2.1415 5.2515004,4.9924 l 4.5586,7.5977 h -4.5663 l -4.4408004,-7.5901 c -0.9056,-1.5432 -1.7007,-2.5509 -2.3697,-3.0314 -0.6775,-0.4804 -1.4803,-0.7163 -2.4177,-0.7163 v 11.3378 h -4.2517 v -11.3378 c -0.9212,0 -1.7164,0.2359 -2.3853,0.7084 -0.6775,0.4728 -1.4647,1.4882 -2.3624,3.0472 l -4.4799,7.5822 h -4.5663 l 4.5428,-7.5977 c 1.724,-2.8509 3.4877,-4.512 5.2829,-4.9924 -1.2282,-0.5667 -2.0942,-1.1889 -2.5824,-1.8579 -0.496,-0.6689 -1.2279,-2.2677 -2.2121,-4.795 -0.3388,-0.8504 -0.701,-1.37 -1.0871,-1.5591 -0.4011,-0.1964 -0.9921,-0.2914 -1.7793,-0.2914 -0.197,0 -0.6061,0.008 -1.2203,0.0241 v -3.4489 h 0.5748 c 1.6062,0 2.7324,0.0944 3.3857,0.2914 0.6534,0.1891 1.2359,0.5981 1.7558,1.2203 0.5117,0.6222 1.1807,1.9131 1.9999,3.8894 0.9997,2.4171 1.7713,3.8818 2.3071,4.4014 0.5352,0.5198 1.4797,0.7795 2.8261,0.7795 v -10.582 z m -39.1708,33.9429 -0.472,-3.8421 c 0.9133,0.2438 1.7005,0.3699 2.3774,0.3699 0.9289,0 1.6693,-0.1573 2.2207,-0.4649 0.5584,-0.3069 1.0156,-0.7398 1.3697,-1.2911 0.2602,-0.4173 0.6854,-1.4485 1.2679,-3.1023 0.0785,-0.2282 0.1967,-0.5669 0.3699,-1.0156 l -9.3064,-24.5968 h 4.4402 l 5.1182,14.1568 c 0.669,1.7872 1.2595,3.6771 1.7873,5.661 0.4805,-1.8663 1.0474,-3.7085 1.7084,-5.5193 l 5.2282,-14.2985 h 4.1491 l -9.2667,24.9434 c -1.0004,2.685 -1.7799,4.5273 -2.3383,5.5429 -0.7407,1.3621 -1.5908,2.3624 -2.5433,3.0002 -0.9609,0.6378 -2.1024,0.9524 -3.4253,0.9524 -0.8031,0 -1.7008,-0.1652 -2.685,-0.496 z m -22.9748,-35.36 c -2.7871,0.1262 -5.0389,0.9445 -6.7632,2.4724 -1.7246,1.527 -2.5906,3.653 -2.5906,6.3853 0,2.7006 0.8504,4.8187 2.5512,6.3618 1.7005,1.5429 3.9682,2.3698 6.8026,2.4959 z m 4.2043,-0.0476 v 17.8104 c 2.8897,-0.1417 5.1574,-0.9842 6.8188,-2.5277 1.6611,-1.5431 2.4879,-3.6691 2.4879,-6.3774 0,-2.6614 -0.8112,-4.7633 -2.4409,-6.3223 -1.6299,-1.5512 -3.9132,-2.4092 -6.8658,-2.583 z m -4.2043,-3.8265 v -4.299 h 4.2043 v 4.299 c 4.307,0.2282 7.7083,1.5279 10.1962,3.8974 2.4962,2.3703 3.7401,5.307 3.7401,8.8189 0,3.4404 -1.2048,6.3612 -3.6219,8.7706 -2.4171,2.4015 -5.8495,3.7321 -10.3144,3.9765 v 4.3461 h -4.2043 v -4.3461 c -3.9994,-0.1579 -7.3299,-1.3782 -9.9916,-3.6692 -2.6614,-2.283 -3.9915,-5.3147 -3.9915,-9.0779 0,-3.7721 1.3301,-6.795 3.9839,-9.0627 2.6529,-2.2674 5.9836,-3.4798 9.9992,-3.6536 z"
     style="fill:#1b1918;fill-rule:evenodd"
     id="path824" />
</svg>
