<?xml version="1.0" encoding="UTF-8" standalone="no"?>
<svg version="1.1" width="261.4111" height="499.83472" id="svg479" viewBox="0 0 261.4111 499.83472"
    xmlns="http://www.w3.org/2000/svg">
  <defs
     id="defs483" />
  <path
     d="m 0.7829,-132.01707 c 0,-0.6392 -0.0581,-1.2424 -0.1792,-1.8096 -0.1159,-0.5672 -0.3121,-1.0633 -0.585,-1.4922 -0.2682,-0.4291 -0.639,-0.769 -1.1033,-1.0142 -0.4603,-0.2509 -1.0411,-0.3759 -1.7342,-0.3759 -0.6384,0 -1.1883,0.112 -1.6484,0.3399 -0.4603,0.2279 -0.8362,0.5494 -1.1352,0.9652 -0.2991,0.4153 -0.5182,0.9071 -0.6614,1.4743 -0.1471,0.5681 -0.2188,1.1891 -0.2188,1.8592 0,0.6475 0.0581,1.2555 0.1789,1.8227 0.1162,0.5678 0.3124,1.0639 0.5893,1.4882 0.2769,0.4198 0.648,0.76 1.1083,1.0052 0.4649,0.25 1.046,0.3758 1.7383,0.3758 0.6301,0 1.1752,-0.1119 1.6401,-0.3398 0.4643,-0.2282 0.8444,-0.5451 1.144,-0.9564 0.2994,-0.4111 0.5182,-0.9029 0.6565,-1.4701 0.1389,-0.5672 0.2101,-1.1934 0.2101,-1.8723 z m 2.2521,-0.1383 c 0,0.9604 -0.125,1.8454 -0.3798,2.6538 -0.25,0.8048 -0.6302,1.5021 -1.1305,2.0871 -0.5009,0.5851 -1.1302,1.0412 -1.8811,1.3675 -0.7551,0.326 -1.6313,0.4909 -2.6229,0.4909 -0.97,0 -1.8141,-0.1428 -2.5341,-0.4331 -0.7192,-0.286 -1.3176,-0.7061 -1.7955,-1.2552 -0.4782,-0.5499 -0.8359,-1.2203 -1.0729,-2.0024 -0.2364,-0.786 -0.3532,-1.6752 -0.3532,-2.6716 0,-0.961 0.1259,-1.8459 0.3711,-2.6501 0.25,-0.8085 0.6258,-1.5055 1.1262,-2.0909 0.5,-0.5859 1.1262,-1.0369 1.8765,-1.3632 0.7509,-0.3217 1.6271,-0.4827 2.6274,-0.4827 0.97,0 1.8142,0.1429 2.5334,0.4337 0.72,0.286 1.3183,0.7061 1.7963,1.2555 0.4782,0.5499 0.8402,1.2152 1.0814,2.0021 0.237,0.7863 0.3577,1.6707 0.3577,2.6586 z m -14.9468,6.0321 c 0,0.0712 -0.0178,0.1293 -0.0538,0.1792 -0.0352,0.0442 -0.0891,0.089 -0.1693,0.125 -0.0759,0.0312 -0.1879,0.0581 -0.326,0.076 -0.1389,0.0172 -0.3129,0.0263 -0.5229,0.0263 -0.2192,0 -0.398,-0.009 -0.5364,-0.0263 -0.1389,-0.0179 -0.25,-0.0448 -0.335,-0.076 -0.0808,-0.036 -0.1389,-0.0808 -0.1746,-0.125 -0.0355,-0.0499 -0.0533,-0.108 -0.0533,-0.1792 v -10.2909 h -5.6033 v 10.2909 c 0,0.0712 -0.0178,0.1293 -0.0538,0.1792 -0.036,0.0442 -0.0939,0.089 -0.1789,0.125 -0.0802,0.0312 -0.1922,0.0581 -0.335,0.076 -0.1384,0.0172 -0.313,0.0263 -0.5225,0.0263 -0.2148,0 -0.3889,-0.009 -0.5278,-0.0263 -0.1431,-0.0179 -0.2543,-0.0448 -0.335,-0.076 -0.0851,-0.036 -0.1432,-0.0808 -0.1741,-0.125 -0.0312,-0.0499 -0.0451,-0.108 -0.0451,-0.1792 v -11.3408 c 0,-0.2634 0.0582,-0.4553 0.1789,-0.5854 0.1162,-0.125 0.2821,-0.1879 0.4873,-0.1879 h 8.6286 c 0.205,0 0.3708,0.0629 0.4822,0.1879 0.112,0.1301 0.1698,0.322 0.1698,0.5854 z m -16.0597,-5.3841 h -1.8453 c -0.5893,0 -1.1036,0.049 -1.5415,0.1514 -0.4331,0.0989 -0.7951,0.2508 -1.086,0.447 -0.2854,0.197 -0.4955,0.4292 -0.6344,0.7061 -0.134,0.2769 -0.2009,0.5941 -0.2009,0.9522 0,0.612 0.1919,1.099 0.5811,1.4604 0.388,0.362 0.9292,0.5459 1.6305,0.5459 0.5629,0 1.0907,-0.1431 1.5729,-0.434 0.483,-0.286 0.9921,-0.7282 1.5236,-1.3223 z m 2.1453,5.3974 c 0,0.1029 -0.036,0.1832 -0.1032,0.237 -0.0711,0.0539 -0.165,0.089 -0.29,0.116 -0.121,0.0269 -0.2999,0.0402 -0.5363,0.0402 -0.2236,0 -0.4068,-0.0133 -0.5408,-0.0402 -0.1341,-0.027 -0.2322,-0.0621 -0.2951,-0.116 -0.0621,-0.0538 -0.0939,-0.1301 -0.0939,-0.237 v -1.1794 c -0.5133,0.5493 -1.0853,0.9782 -1.7203,1.2823 -0.6344,0.2991 -1.3045,0.451 -2.0106,0.451 -0.6211,0 -1.184,-0.0799 -1.6844,-0.2409 -0.5008,-0.161 -0.9292,-0.398 -1.2824,-0.7013 -0.3529,-0.3039 -0.6298,-0.684 -0.8268,-1.1262 -0.1962,-0.447 -0.2951,-0.9522 -0.2951,-1.5194 0,-0.6658 0.1341,-1.2421 0.407,-1.7291 0.2679,-0.4921 0.6563,-0.8983 1.1662,-1.2203 0.5052,-0.3212 1.1262,-0.5672 1.8584,-0.728 0.7331,-0.161 1.5594,-0.2412 2.4755,-0.2412 h 1.6265 v -0.9204 c 0,-0.4518 -0.049,-0.8538 -0.1431,-1.207 -0.0981,-0.3481 -0.25,-0.6389 -0.4643,-0.8711 -0.2149,-0.2321 -0.4918,-0.4062 -0.8312,-0.523 -0.3398,-0.1202 -0.7599,-0.1783 -1.2551,-0.1783 -0.5321,0 -1.0103,0.0621 -1.4304,0.1922 -0.4241,0.129 -0.7951,0.2679 -1.1123,0.4241 -0.3178,0.1567 -0.5859,0.2951 -0.7999,0.4249 -0.2101,0.1293 -0.3711,0.1922 -0.474,0.1922 -0.0712,0 -0.1341,-0.0182 -0.1831,-0.0539 -0.0533,-0.0312 -0.0981,-0.085 -0.1384,-0.1562 -0.0405,-0.0671 -0.0668,-0.157 -0.0847,-0.2639 -0.0181,-0.1114 -0.0269,-0.2282 -0.0269,-0.3619 0,-0.2143 0.013,-0.3884 0.0448,-0.5134 0.0311,-0.1253 0.1071,-0.2461 0.223,-0.358 0.1163,-0.1111 0.3221,-0.2461 0.6081,-0.402 0.2854,-0.1522 0.621,-0.2951 0.9963,-0.4243 0.3711,-0.125 0.7821,-0.2327 1.2283,-0.3172 0.4431,-0.0851 0.894,-0.1256 1.3453,-0.1256 0.8442,0 1.5642,0.0938 2.1583,0.286 0.5942,0.1919 1.0724,0.4779 1.4386,0.849 0.3668,0.3711 0.6299,0.8311 0.7957,1.381 0.1652,0.5494 0.2503,1.1926 0.2503,1.9256 z m -13.1375,-0.0269 c 0,0.0717 -0.0178,0.1338 -0.0538,0.1837 -0.0352,0.0533 -0.0941,0.0933 -0.1831,0.125 -0.0893,0.0312 -0.2053,0.0581 -0.3481,0.0802 -0.148,0.0221 -0.322,0.0312 -0.5321,0.0312 -0.2322,0 -0.4153,-0.009 -0.5542,-0.0312 -0.1428,-0.0221 -0.2548,-0.049 -0.3441,-0.0802 -0.089,-0.0317 -0.1471,-0.0717 -0.1831,-0.125 -0.0357,-0.0499 -0.0539,-0.112 -0.0539,-0.1837 v -7.5158 h -7.6943 v 7.5158 c 0,0.0717 -0.0182,0.1338 -0.0533,0.1837 -0.036,0.0533 -0.0938,0.0933 -0.1837,0.125 -0.0845,0.0312 -0.2013,0.0581 -0.3441,0.0802 -0.1472,0.0221 -0.326,0.0312 -0.5451,0.0312 -0.2101,0 -0.3884,-0.009 -0.5361,-0.0312 -0.1474,-0.0221 -0.2681,-0.049 -0.3532,-0.0802 -0.089,-0.0317 -0.1471,-0.0717 -0.1831,-0.125 -0.036,-0.0499 -0.053,-0.112 -0.053,-0.1837 v -16.2643 c 0,-0.072 0.017,-0.1341 0.053,-0.1831 0.036,-0.0539 0.0941,-0.0942 0.1831,-0.1251 0.0851,-0.032 0.2058,-0.0589 0.3532,-0.081 0.1477,-0.0221 0.326,-0.0309 0.5361,-0.0309 0.2191,0 0.3979,0.009 0.5451,0.0309 0.1428,0.0221 0.2596,0.049 0.3441,0.081 0.0899,0.0309 0.1477,0.0712 0.1837,0.1251 0.0351,0.053 0.0533,0.1111 0.0533,0.1831 v 6.7915 h 7.6943 v -6.7915 c 0,-0.072 0.0182,-0.1301 0.0539,-0.1831 0.036,-0.0539 0.0941,-0.0942 0.1831,-0.1251 0.0893,-0.032 0.2013,-0.0589 0.3441,-0.081 0.1389,-0.0221 0.322,-0.0309 0.5542,-0.0309 0.2101,0 0.3841,0.009 0.5321,0.0309 0.1428,0.0221 0.2588,0.049 0.3481,0.081 0.089,0.0309 0.1479,0.0712 0.1831,0.1251 0.036,0.049 0.0538,0.1111 0.0538,0.1831 z m -16.4211,-1.0993 c 0,0.6211 -0.1031,1.0321 -0.3081,1.2382 -0.2061,0.205 -0.5763,0.3081 -1.1174,0.3081 -0.527,0 -0.889,-0.1031 -1.0902,-0.3041 -0.201,-0.201 -0.2991,-0.6032 -0.2991,-1.2062 0,-0.6213 0.1024,-1.0323 0.3082,-1.2376 0.2052,-0.2058 0.5762,-0.3087 1.1171,-0.3087 0.5272,0 0.8892,0.0987 1.0902,0.2999 0.1962,0.201 0.2993,0.6072 0.2993,1.2104 z m -6.055,-14.5352 c 0,0.161 -0.0043,0.2994 -0.0179,0.4292 -0.0133,0.125 -0.0312,0.25 -0.0533,0.3662 -0.023,0.1208 -0.0539,0.2322 -0.0941,0.3442 -0.0357,0.1068 -0.0848,0.223 -0.1338,0.3438 l -6.0993,14.0618 c -0.0451,0.1029 -0.0981,0.188 -0.1653,0.2551 -0.0626,0.0669 -0.1477,0.116 -0.2506,0.156 -0.0983,0.0402 -0.2273,0.0671 -0.3843,0.081 -0.1559,0.0131 -0.3481,0.0173 -0.576,0.0173 -0.2951,0 -0.5273,-0.0133 -0.6931,-0.0402 -0.165,-0.027 -0.286,-0.0669 -0.3614,-0.125 -0.0717,-0.0533 -0.1029,-0.1251 -0.0987,-0.2053 0.0088,-0.085 0.04,-0.1837 0.0939,-0.2951 l 6.4122,-14.3747 h -8.1278 c -0.1658,0 -0.2908,-0.0896 -0.3707,-0.2639 -0.0851,-0.1741 -0.1253,-0.4201 -0.1253,-0.737 0,-0.1653 0.009,-0.3082 0.0312,-0.4332 0.0221,-0.121 0.0581,-0.2239 0.098,-0.309 0.0451,-0.0802 0.0981,-0.1423 0.1568,-0.1831 0.0623,-0.0399 0.1341,-0.0581 0.21,-0.0581 h 9.8703 c 0.121,0 0.2279,0.0139 0.3172,0.0403 0.0938,0.0269 0.1658,0.0759 0.21,0.1567 0.0496,0.0802 0.0848,0.1789 0.112,0.3042 0.0269,0.1202 0.04,0.2769 0.04,0.4688 z m -14.3031,14.5352 c 0,0.6211 -0.1029,1.0321 -0.3081,1.2382 -0.2058,0.205 -0.576,0.3081 -1.1172,0.3081 -0.5269,0 -0.8892,-0.1031 -1.0902,-0.3041 -0.2009,-0.201 -0.299,-0.6032 -0.299,-1.2062 0,-0.6213 0.102,-1.0323 0.3081,-1.2376 0.2052,-0.2058 0.5763,-0.3087 1.1171,-0.3087 0.5273,0 0.8893,0.0987 1.0902,0.2999 0.1962,0.201 0.2991,0.6072 0.2991,1.2104 z m -10.2368,-13.6057 h -0.0269 l -5.4513,9.3076 h 5.4782 z m 4.6599,10.2328 c 0,0.2852 -0.0442,0.5134 -0.129,0.6792 -0.0898,0.165 -0.21,0.2452 -0.367,0.2452 h -1.9123 v 3.5614 c 0,0.0712 -0.0181,0.1293 -0.0533,0.1792 -0.036,0.0442 -0.0986,0.089 -0.1879,0.125 -0.089,0.0312 -0.2101,0.0581 -0.3529,0.076 -0.1432,0.0172 -0.3263,0.0263 -0.5494,0.0263 -0.2191,0 -0.398,-0.009 -0.5408,-0.0263 -0.1432,-0.0179 -0.2591,-0.0448 -0.3442,-0.076 -0.085,-0.036 -0.1431,-0.0808 -0.174,-0.125 -0.0312,-0.0499 -0.0491,-0.108 -0.0491,-0.1792 v -3.5614 h -6.9352 c -0.1072,0 -0.1922,-0.0131 -0.2591,-0.04 -0.0711,-0.0269 -0.1341,-0.0711 -0.1922,-0.1431 -0.0538,-0.0669 -0.0938,-0.1698 -0.1159,-0.2991 -0.023,-0.1298 -0.0312,-0.2999 -0.0312,-0.5099 0,-0.1653 0.0043,-0.3124 0.013,-0.4423 0.0091,-0.1292 0.027,-0.25 0.0539,-0.3571 0.0221,-0.112 0.0581,-0.2149 0.1023,-0.313 0.0403,-0.1029 0.0941,-0.21 0.1568,-0.322 l 6.0412,-10.3039 c 0.0442,-0.0712 0.1114,-0.1293 0.1964,-0.1831 0.0848,-0.0533 0.1919,-0.0981 0.326,-0.1293 0.1341,-0.036 0.2999,-0.0629 0.4918,-0.076 0.1965,-0.0139 0.4292,-0.0178 0.6973,-0.0178 0.29,0 0.5491,0.009 0.764,0.0309 0.2191,0.0221 0.3974,0.0541 0.5272,0.085 0.1341,0.036 0.237,0.0851 0.3081,0.1383 0.072,0.0587 0.1072,0.1256 0.1072,0.2058 v 10.827 h 1.9123 c 0.1479,0 0.2681,0.0759 0.358,0.2282 0.0938,0.151 0.138,0.3841 0.138,0.697 z m -14.781,3.3729 c 0,0.6211 -0.1029,1.0321 -0.3081,1.2382 -0.2058,0.205 -0.5763,0.3081 -1.1171,0.3081 -0.5273,0 -0.8893,-0.1031 -1.0902,-0.3041 -0.201,-0.201 -0.2991,-0.6032 -0.2991,-1.2062 0,-0.6213 0.1021,-1.0323 0.3081,-1.2376 0.205,-0.2058 0.576,-0.3087 1.1172,-0.3087 0.5269,0 0.8892,0.0987 1.0902,0.2999 0.1961,0.201 0.299,0.6072 0.299,1.2104 z m -6.2691,0.474 c 0,0.1562 -0.009,0.2951 -0.0311,0.4153 -0.0227,0.1255 -0.0539,0.2279 -0.0939,0.3087 -0.0402,0.085 -0.0898,0.1431 -0.1567,0.1831 -0.0672,0.04 -0.1384,0.0581 -0.2143,0.0581 h -9.3748 c -0.1202,0 -0.2279,-0.013 -0.322,-0.0451 -0.089,-0.0309 -0.1692,-0.0799 -0.2321,-0.1519 -0.0669,-0.0669 -0.116,-0.1692 -0.1472,-0.2991 -0.0317,-0.1292 -0.0447,-0.2902 -0.0447,-0.4821 0,-0.1749 0.009,-0.3269 0.0221,-0.4561 0.0136,-0.1299 0.0405,-0.2461 0.0847,-0.349 0.0451,-0.0981 0.1032,-0.1961 0.1701,-0.299 0.0669,-0.0981 0.1562,-0.2053 0.2639,-0.3172 l 3.3868,-3.4855 c 0.7861,-0.8042 1.4123,-1.5236 1.8854,-2.1626 0.4739,-0.6344 0.8359,-1.2152 1.095,-1.7424 0.2543,-0.523 0.4243,-0.997 0.5051,-1.4253 0.0802,-0.4291 0.1202,-0.8311 0.1202,-1.207 0,-0.3753 -0.0621,-0.7324 -0.1871,-1.0675 -0.1301,-0.3351 -0.309,-0.6301 -0.5499,-0.885 -0.237,-0.2551 -0.5363,-0.4561 -0.8983,-0.6032 -0.3572,-0.1471 -0.773,-0.2231 -1.2421,-0.2231 -0.5494,0 -1.0412,0.076 -1.4794,0.2231 -0.4332,0.1471 -0.8173,0.313 -1.1481,0.487 -0.3262,0.1743 -0.6032,0.3393 -0.8223,0.4873 -0.2188,0.1471 -0.3841,0.2231 -0.4912,0.2231 -0.063,0 -0.1208,-0.0179 -0.1698,-0.0533 -0.0491,-0.0357 -0.0893,-0.0899 -0.1211,-0.1698 -0.0312,-0.076 -0.0581,-0.1831 -0.0754,-0.313 -0.0178,-0.134 -0.0269,-0.2902 -0.0269,-0.4734 0,-0.1298 0.004,-0.2417 0.0133,-0.3398 0.009,-0.0941 0.0221,-0.1789 0.0448,-0.25 0.0221,-0.0672 0.049,-0.1341 0.085,-0.1971 0.0352,-0.0581 0.1072,-0.134 0.2101,-0.2279 0.1071,-0.0892 0.286,-0.2143 0.5451,-0.3704 0.2543,-0.1611 0.5802,-0.313 0.9692,-0.4649 0.3843,-0.1562 0.8132,-0.2812 1.2823,-0.3889 0.4649,-0.1024 0.9562,-0.1562 1.4704,-0.1562 0.822,0 1.5412,0.1159 2.1535,0.3481 0.6168,0.2282 1.1262,0.5451 1.5329,0.9479 0.4062,0.4022 0.7104,0.8665 0.9114,1.3983 0.2009,0.5321 0.2999,1.0993 0.2999,1.7025 0,0.5408 -0.0499,1.0811 -0.1432,1.6174 -0.0986,0.5361 -0.2996,1.1172 -0.6077,1.7431 -0.3133,0.6253 -0.7594,1.3175 -1.3453,2.0817 -0.5811,0.764 -1.3584,1.6444 -2.3276,2.6413 l -2.6813,2.8015 h 7.3732 c 0.0669,0 0.1338,0.0179 0.201,0.0581 0.0669,0.04 0.125,0.0981 0.1692,0.1741 0.0499,0.0808 0.0851,0.1789 0.1078,0.2951 0.0221,0.1159 0.0311,0.2548 0.0311,0.411 z m 117.7864,0.6392 c 0,0.0712 -0.0176,0.129 -0.0536,0.1789 -0.0354,0.0442 -0.0893,0.089 -0.1695,0.125 -0.076,0.0309 -0.188,0.0581 -0.3269,0.076 -0.138,0.0172 -0.3118,0.0263 -0.5224,0.0263 -0.2188,0 -0.398,-0.009 -0.5357,-0.0263 -0.1389,-0.0179 -0.25,-0.0451 -0.3354,-0.076 -0.0805,-0.036 -0.1389,-0.0808 -0.1746,-0.125 -0.0351,-0.0499 -0.0533,-0.1077 -0.0533,-0.1789 v -10.2909 h -3.2445 c -0.1381,1.385 -0.3079,2.6184 -0.504,3.6998 -0.1973,1.0808 -0.4161,2.0239 -0.6622,2.8281 -0.2455,0.8 -0.5221,1.4794 -0.8263,2.0285 -0.3039,0.5502 -0.6389,0.9924 -1.0009,1.3275 -0.3662,0.335 -0.7597,0.5768 -1.1846,0.7239 -0.4198,0.1471 -0.875,0.2231 -1.3533,0.2231 -0.081,0 -0.1479,-0.013 -0.2057,-0.04 -0.0542,-0.0269 -0.1029,-0.0711 -0.1384,-0.1428 -0.0314,-0.0672 -0.0578,-0.1656 -0.0759,-0.2951 -0.0179,-0.1253 -0.027,-0.286 -0.027,-0.4873 0,-0.21 0.004,-0.3793 0.0182,-0.5091 0.0133,-0.1293 0.0351,-0.237 0.0669,-0.3129 0.0309,-0.08 0.0711,-0.1293 0.1162,-0.1562 0.049,-0.027 0.1069,-0.04 0.1789,-0.04 0.2899,0 0.5623,-0.0669 0.826,-0.2013 0.2591,-0.1389 0.5054,-0.3619 0.733,-0.6698 0.2282,-0.3092 0.4422,-0.7154 0.6435,-1.2155 0.1967,-0.5048 0.3798,-1.1219 0.5502,-1.8544 0.1647,-0.7328 0.3209,-1.5911 0.4688,-2.5741 0.1471,-0.9783 0.2903,-2.1087 0.4198,-3.3826 0.0173,-0.2636 0.0803,-0.4553 0.1922,-0.5854 0.1072,-0.125 0.2634,-0.1876 0.4646,-0.1876 h 6.0497 c 0.2064,0 0.3714,0.0626 0.4873,0.1924 0.121,0.1253 0.1789,0.317 0.1789,0.5806 z m 14.3251,0 c 0,0.0712 -0.0178,0.129 -0.0533,0.1789 -0.0354,0.0442 -0.0898,0.089 -0.1698,0.125 -0.0802,0.0309 -0.1882,0.0581 -0.331,0.076 -0.1381,0.0172 -0.3121,0.0263 -0.5225,0.0263 -0.2233,0 -0.4019,-0.009 -0.5408,-0.0263 -0.1432,-0.0179 -0.25,-0.0451 -0.3305,-0.076 -0.0803,-0.036 -0.1344,-0.0808 -0.1695,-0.125 -0.036,-0.0499 -0.0542,-0.1077 -0.0542,-0.1789 v -5.1701 h -5.978 v 5.1701 c 0,0.0712 -0.0181,0.129 -0.0541,0.1789 -0.036,0.0442 -0.0893,0.089 -0.1698,0.125 -0.0802,0.0309 -0.1871,0.0581 -0.3302,0.076 -0.1389,0.0172 -0.3178,0.0263 -0.5364,0.0263 -0.2148,0 -0.3889,-0.009 -0.5278,-0.0263 -0.1428,-0.0179 -0.254,-0.0451 -0.335,-0.076 -0.0848,-0.036 -0.1432,-0.0808 -0.1741,-0.125 -0.0309,-0.0499 -0.045,-0.1077 -0.045,-0.1789 v -11.7876 c 0,-0.0717 0.0141,-0.1298 0.045,-0.1791 0.0309,-0.0445 0.0893,-0.0888 0.1741,-0.1299 0.081,-0.0399 0.1922,-0.0669 0.335,-0.0799 0.1389,-0.0133 0.313,-0.0179 0.5278,-0.0179 0.2186,0 0.3975,0.005 0.5364,0.0179 0.1431,0.013 0.25,0.04 0.3302,0.0799 0.0805,0.0411 0.1338,0.0854 0.1698,0.1299 0.036,0.0493 0.0541,0.1074 0.0541,0.1791 v 4.7943 h 5.978 v -4.7943 c 0,-0.0717 0.0182,-0.1298 0.0542,-0.1791 0.0351,-0.0445 0.0892,-0.0888 0.1695,-0.1299 0.0805,-0.0399 0.1873,-0.0669 0.3305,-0.0799 0.1389,-0.0133 0.3175,-0.0179 0.5408,-0.0179 0.2104,0 0.3844,0.005 0.5225,0.0179 0.1428,0.013 0.2508,0.04 0.331,0.0799 0.08,0.0411 0.1344,0.0854 0.1698,0.1299 0.0355,0.0493 0.0533,0.1074 0.0533,0.1791 z m 14.0397,-6.4083 c 0,0.3399 -0.0841,0.5811 -0.2545,0.7291 -0.1698,0.1431 -0.3665,0.214 -0.5851,0.214 h -7.7391 c 0,0.6571 0.0669,1.2473 0.1961,1.7697 0.1299,0.5267 0.349,0.9788 0.6574,1.3541 0.3036,0.3747 0.7016,0.6613 1.188,0.862 0.4921,0.2013 1.0908,0.3042 1.7963,0.3042 0.559,0 1.059,-0.0451 1.493,-0.1389 0.4371,-0.0893 0.8175,-0.1922 1.1344,-0.3033 0.3178,-0.112 0.5809,-0.2149 0.7872,-0.3042 0.205,-0.0938 0.3569,-0.1389 0.464,-0.1389 0.063,0 0.1163,0.0136 0.1659,0.0451 0.0442,0.0309 0.0842,0.0762 0.1068,0.1389 0.0275,0.0578 0.0494,0.142 0.0624,0.25 0.0136,0.1111 0.0179,0.2409 0.0179,0.3971 0,0.112 -0.004,0.2104 -0.0128,0.2951 -0.009,0.0811 -0.0181,0.157 -0.032,0.2188 -0.0131,0.0672 -0.0355,0.1253 -0.0669,0.1792 -0.0312,0.049 -0.0669,0.0984 -0.116,0.1471 -0.0493,0.0491 -0.1921,0.125 -0.4243,0.233 -0.237,0.1111 -0.5411,0.214 -0.9162,0.3212 -0.3753,0.1029 -0.8087,0.197 -1.3002,0.2772 -0.4913,0.0848 -1.0145,0.1247 -1.5732,0.1247 -0.9695,0 -1.8137,-0.1338 -2.5427,-0.4062 -0.728,-0.2681 -1.34,-0.6701 -1.8363,-1.2021 -0.4961,-0.5358 -0.8711,-1.2022 -1.1211,-2.0061 -0.2551,-0.8002 -0.3804,-1.7337 -0.3804,-2.8021 0,-1.0097 0.1304,-1.921 0.3934,-2.73 0.2591,-0.8042 0.639,-1.4925 1.1313,-2.0557 0.4907,-0.5627 1.09,-0.9921 1.7873,-1.2954 0.697,-0.2997 1.4785,-0.4516 2.3414,-0.4516 0.9244,0 1.711,0.148 2.3587,0.447 0.6528,0.2951 1.1838,0.6974 1.6041,1.1971 0.4159,0.5009 0.724,1.0911 0.9207,1.77 0.1962,0.6743 0.2945,1.3986 0.2945,2.167 z m -2.1713,-0.6383 c 0.0267,-1.135 -0.2234,-2.0291 -0.7551,-2.6765 -0.5313,-0.648 -1.3136,-0.97 -2.3545,-0.97 -0.5366,0 -1.0054,0.0981 -1.4077,0.2993 -0.4019,0.2016 -0.7376,0.4694 -1.01,0.8045 -0.2732,0.3305 -0.483,0.7194 -0.6301,1.1577 -0.1471,0.4419 -0.2322,0.9019 -0.25,1.385 z m 15.8043,7.0466 c 0,0.0712 -0.0181,0.129 -0.0533,0.1789 -0.036,0.0442 -0.0901,0.089 -0.1704,0.125 -0.0799,0.0309 -0.1876,0.0581 -0.3305,0.076 -0.1383,0.0172 -0.3124,0.0263 -0.5221,0.0263 -0.2242,0 -0.4023,-0.009 -0.5412,-0.0263 -0.1428,-0.0179 -0.2503,-0.0451 -0.331,-0.076 -0.08,-0.036 -0.1344,-0.0808 -0.1693,-0.125 -0.036,-0.0499 -0.0538,-0.1077 -0.0538,-0.1789 v -5.1701 h -5.9783 v 5.1701 c 0,0.0712 -0.0181,0.129 -0.0541,0.1789 -0.0355,0.0442 -0.0888,0.089 -0.1698,0.125 -0.0803,0.0309 -0.1874,0.0581 -0.3303,0.076 -0.1389,0.0172 -0.3177,0.0263 -0.536,0.0263 -0.2149,0 -0.3892,-0.009 -0.5281,-0.0263 -0.1431,-0.0179 -0.254,-0.0451 -0.3351,-0.076 -0.0847,-0.036 -0.1431,-0.0808 -0.174,-0.125 -0.0309,-0.0499 -0.0451,-0.1077 -0.0451,-0.1789 v -11.7876 c 0,-0.0717 0.0142,-0.1298 0.0451,-0.1791 0.0309,-0.0445 0.0893,-0.0888 0.174,-0.1299 0.0811,-0.0399 0.192,-0.0669 0.3351,-0.0799 0.1389,-0.0133 0.3132,-0.0179 0.5281,-0.0179 0.2183,0 0.3971,0.005 0.536,0.0179 0.1429,0.013 0.25,0.04 0.3303,0.0799 0.081,0.0411 0.1343,0.0854 0.1698,0.1299 0.036,0.0493 0.0541,0.1074 0.0541,0.1791 v 4.7943 h 5.9783 v -4.7943 c 0,-0.0717 0.0178,-0.1298 0.0538,-0.1791 0.0349,-0.0445 0.0893,-0.0888 0.1693,-0.1299 0.0807,-0.0399 0.1882,-0.0669 0.331,-0.0799 0.1389,-0.0133 0.317,-0.0179 0.5412,-0.0179 0.2097,0 0.3838,0.005 0.5221,0.0179 0.1429,0.013 0.2506,0.04 0.3305,0.0799 0.0803,0.0411 0.1344,0.0854 0.1704,0.1299 0.0352,0.0493 0.0533,0.1074 0.0533,0.1791 z m 14.3345,0 c 0,0.0712 -0.0181,0.129 -0.0533,0.1789 -0.036,0.0442 -0.0896,0.089 -0.1698,0.125 -0.0802,0.0309 -0.1879,0.0581 -0.3311,0.076 -0.138,0.0172 -0.3123,0.0263 -0.5221,0.0263 -0.2242,0 -0.4022,-0.009 -0.5411,-0.0263 -0.1429,-0.0179 -0.2501,-0.0451 -0.3311,-0.076 -0.08,-0.036 -0.1338,-0.0808 -0.1693,-0.125 -0.0354,-0.0499 -0.0538,-0.1077 -0.0538,-0.1789 v -5.1701 h -5.9783 v 5.1701 c 0,0.0712 -0.0178,0.129 -0.0538,0.1789 -0.0358,0.0442 -0.089,0.089 -0.1698,0.125 -0.08,0.0309 -0.1877,0.0581 -0.3306,0.076 -0.1388,0.0172 -0.3177,0.0263 -0.536,0.0263 -0.2148,0 -0.3889,-0.009 -0.5275,-0.0263 -0.1432,-0.0179 -0.2546,-0.0451 -0.3353,-0.076 -0.0851,-0.036 -0.1429,-0.0808 -0.1744,-0.125 -0.0309,-0.0499 -0.0445,-0.1077 -0.0445,-0.1789 v -11.7876 c 0,-0.0717 0.0136,-0.1298 0.0445,-0.1791 0.0315,-0.0445 0.0893,-0.0888 0.1744,-0.1299 0.0807,-0.0399 0.1921,-0.0669 0.3353,-0.0799 0.1386,-0.0133 0.3127,-0.0179 0.5275,-0.0179 0.2183,0 0.3972,0.005 0.536,0.0179 0.1429,0.013 0.2506,0.04 0.3306,0.0799 0.0808,0.0411 0.134,0.0854 0.1698,0.1299 0.036,0.0493 0.0538,0.1074 0.0538,0.1791 v 4.7943 h 5.9783 v -4.7943 c 0,-0.0717 0.0184,-0.1298 0.0538,-0.1791 0.0355,-0.0445 0.0893,-0.0888 0.1693,-0.1299 0.081,-0.0399 0.1882,-0.0669 0.3311,-0.0799 0.1389,-0.0133 0.3169,-0.0179 0.5411,-0.0179 0.2098,0 0.3841,0.005 0.5221,0.0179 0.1432,0.013 0.2509,0.04 0.3311,0.0799 0.0802,0.0411 0.1338,0.0854 0.1698,0.1299 0.0352,0.0493 0.0533,0.1074 0.0533,0.1791 z m 12.8874,0.0128 c 0,0.1029 -0.036,0.1831 -0.1034,0.2372 -0.0709,0.0539 -0.1647,0.0893 -0.29,0.1162 -0.1208,0.0267 -0.2996,0.04 -0.536,0.04 -0.224,0 -0.4071,-0.0133 -0.5409,-0.04 -0.1343,-0.0269 -0.2321,-0.0623 -0.2951,-0.1162 -0.0623,-0.0541 -0.0938,-0.1298 -0.0938,-0.2372 v -1.1792 c -0.5136,0.5493 -1.0854,0.9785 -1.7203,1.2821 -0.6342,0.2993 -1.3045,0.4512 -2.0109,0.4512 -0.6211,0 -1.1838,-0.0802 -1.6844,-0.2409 -0.5009,-0.161 -0.9292,-0.398 -1.2821,-0.7013 -0.3529,-0.3042 -0.6301,-0.6837 -0.8269,-1.1259 -0.1964,-0.4473 -0.2951,-0.9522 -0.2951,-1.5197 0,-0.6661 0.1338,-1.2421 0.4071,-1.7294 0.2676,-0.4918 0.6562,-0.8977 1.1662,-1.2197 0.5048,-0.3215 1.1259,-0.5675 1.8581,-0.7283 0.7333,-0.161 1.5596,-0.2412 2.4758,-0.2412 h 1.6262 v -0.9204 c 0,-0.4516 -0.0488,-0.8538 -0.1431,-1.207 -0.0978,-0.3481 -0.2501,-0.6389 -0.4641,-0.8711 -0.2148,-0.2324 -0.4921,-0.4062 -0.8314,-0.5227 -0.3396,-0.1202 -0.7599,-0.1786 -1.2549,-0.1786 -0.5323,0 -1.0105,0.0624 -1.4303,0.1922 -0.4244,0.1293 -0.7954,0.2682 -1.1124,0.4244 -0.3177,0.1567 -0.5859,0.2945 -0.7999,0.4249 -0.21,0.1287 -0.3713,0.1916 -0.4742,0.1916 -0.0709,0 -0.1338,-0.0179 -0.1831,-0.0539 -0.0531,-0.0309 -0.0978,-0.085 -0.1378,-0.1561 -0.0411,-0.0669 -0.0675,-0.1565 -0.0853,-0.2637 -0.0176,-0.1114 -0.0267,-0.2279 -0.0267,-0.3619 0,-0.2143 0.0131,-0.3884 0.0445,-0.5137 0.0315,-0.1247 0.1075,-0.2458 0.2237,-0.3577 0.1156,-0.1111 0.3217,-0.2461 0.6077,-0.4023 0.2852,-0.1519 0.6211,-0.295 0.9964,-0.4237 0.3708,-0.1253 0.7818,-0.2333 1.228,-0.3175 0.443,-0.0848 0.8943,-0.1256 1.3453,-0.1256 0.8447,0 1.5644,0.0938 2.1583,0.2857 0.5941,0.1922 1.0723,0.4782 1.4386,0.8493 0.3668,0.3713 0.6301,0.8311 0.7959,1.3813 0.1653,0.5491 0.2503,1.1926 0.2503,1.9256 z m -2.1455,-5.3972 h -1.8451 c -0.5893,0 -1.1035,0.049 -1.5414,0.1517 -0.4335,0.0986 -0.7955,0.2508 -1.086,0.4464 -0.2855,0.1973 -0.4955,0.4295 -0.6344,0.7064 -0.1344,0.2769 -0.2013,0.5941 -0.2013,0.9522 0,0.612 0.1922,1.0992 0.5811,1.4604 0.3884,0.362 0.9292,0.5459 1.6305,0.5459 0.5633,0 1.0911,-0.1431 1.5733,-0.434 0.4827,-0.286 0.9924,-0.7282 1.5233,-1.3223 z m 14.8,5.3844 c 0,0.0712 -0.0134,0.129 -0.0442,0.1831 -0.0321,0.0536 -0.0854,0.0939 -0.1659,0.1248 -0.0802,0.0314 -0.1876,0.0541 -0.3305,0.072 -0.1389,0.0172 -0.322,0.0263 -0.5496,0.0263 -0.2146,0 -0.3895,-0.009 -0.5273,-0.0263 -0.1431,-0.0179 -0.2551,-0.0406 -0.3353,-0.072 -0.0851,-0.0309 -0.1429,-0.0712 -0.1738,-0.1248 -0.032,-0.0493 -0.0451,-0.1119 -0.0451,-0.1831 v -4.9561 h -1.2424 c -0.5408,0 -0.9601,0.0451 -1.2642,0.1298 -0.2997,0.0893 -0.5721,0.2322 -0.8088,0.438 -0.2415,0.2055 -0.4563,0.4697 -0.648,0.7866 -0.1921,0.3169 -0.3753,0.7061 -0.5496,1.171 l -0.9564,2.3006 c -0.0445,0.112 -0.0896,0.2058 -0.1429,0.2733 -0.0538,0.0708 -0.1298,0.1247 -0.2276,0.1647 -0.0984,0.0399 -0.2282,0.0668 -0.3804,0.081 -0.1519,0.0133 -0.339,0.0173 -0.5672,0.0173 -0.1607,0 -0.3079,-0.004 -0.4331,-0.0133 -0.1256,-0.009 -0.2328,-0.0221 -0.3221,-0.0451 -0.085,-0.0218 -0.1519,-0.0578 -0.1919,-0.1068 -0.0448,-0.0451 -0.0671,-0.1072 -0.0671,-0.1741 0,-0.0626 0.0223,-0.161 0.0711,-0.2951 0.0493,-0.1338 0.148,-0.371 0.2951,-0.7103 l 0.9431,-2.2119 c 0.2455,-0.5584 0.5451,-1.0415 0.9025,-1.4437 0.3578,-0.4062 0.7691,-0.7058 1.2331,-0.898 -0.8493,-0.1559 -1.5191,-0.4961 -2.0242,-1.0145 -0.5003,-0.5227 -0.7504,-1.2107 -0.7504,-2.0682 0,-0.5678 0.1163,-1.0814 0.353,-1.5423 0.2372,-0.4598 0.5811,-0.8482 1.0414,-1.1662 0.4553,-0.3214 1.0182,-0.5672 1.6883,-0.737 0.6662,-0.1695 1.4304,-0.2543 2.2975,-0.2543 0.2047,0 0.451,0.004 0.7228,0.0133 0.2776,0.009 0.5593,0.0219 0.8493,0.04 0.2951,0.0179 0.5771,0.0357 0.8538,0.0578 0.2724,0.023 0.5097,0.0411 0.7104,0.0579 0.2633,0.0275 0.4603,0.1213 0.5901,0.2911 0.1293,0.1652 0.1965,0.371 0.1965,0.6123 z m -2.1717,-10.5324 c -0.3129,-0.0445 -0.6343,-0.076 -0.9654,-0.0887 -0.326,-0.0142 -0.6299,-0.0182 -0.9111,-0.0182 -0.5902,0 -1.0811,0.0491 -1.4749,0.152 -0.3977,0.098 -0.7103,0.2455 -0.9513,0.4331 -0.2372,0.1882 -0.407,0.4113 -0.5054,0.6661 -0.1029,0.2501 -0.1516,0.5315 -0.1516,0.8402 0,0.3124 0.0578,0.5984 0.174,0.8484 0.1205,0.2509 0.2948,0.4607 0.5358,0.6302 0.2372,0.1698 0.5451,0.3036 0.9161,0.3929 0.3762,0.0944 0.8944,0.1389 1.5642,0.1389 h 1.7696 z m 20.4069,7.2615 c 0,0.5944 -0.1159,1.1254 -0.3532,1.5993 -0.2366,0.4694 -0.572,0.8762 -1.0142,1.2113 -0.4379,0.335 -0.9779,0.5893 -1.6132,0.7642 -0.6389,0.1743 -1.3623,0.263 -2.1716,0.263 -0.4558,0 -0.8802,-0.0309 -1.2781,-0.0978 -0.3972,-0.0669 -0.7549,-0.1522 -1.0851,-0.2551 -0.326,-0.0983 -0.5993,-0.2097 -0.8224,-0.3302 -0.2236,-0.1159 -0.3798,-0.2188 -0.4691,-0.2948 -0.0938,-0.0811 -0.1607,-0.1522 -0.2058,-0.2191 -0.0451,-0.063 -0.0709,-0.1344 -0.0893,-0.2146 -0.0176,-0.0754 -0.0357,-0.1743 -0.049,-0.286 -0.0136,-0.1114 -0.0179,-0.2458 -0.0179,-0.402 0,-0.1389 0.009,-0.2551 0.0269,-0.3529 0.0173,-0.0938 0.04,-0.1749 0.0669,-0.2327 0.0224,-0.0624 0.0533,-0.1075 0.0893,-0.1384 0.036,-0.0309 0.0851,-0.0447 0.1429,-0.0447 0.0983,0 0.2324,0.0578 0.4022,0.1785 0.1698,0.1163 0.398,0.2464 0.688,0.3884 0.2866,0.148 0.6435,0.282 1.0684,0.4031 0.4201,0.1202 0.9425,0.1831 1.5636,0.1831 0.4379,0 0.8311,-0.0451 1.1797,-0.1389 0.3484,-0.0893 0.6435,-0.2282 0.8893,-0.4062 0.246,-0.1789 0.4331,-0.402 0.572,-0.6752 0.1344,-0.2679 0.2013,-0.5854 0.2013,-0.9431 0,-0.3079 -0.0669,-0.5803 -0.197,-0.826 -0.129,-0.2464 -0.3354,-0.4513 -0.6163,-0.6211 -0.2769,-0.1704 -0.6347,-0.3042 -1.0729,-0.4022 -0.4374,-0.0941 -0.9652,-0.1435 -1.5863,-0.1435 h -1.3093 c -0.089,0 -0.1562,-0.0127 -0.2103,-0.0445 -0.0528,-0.0309 -0.0978,-0.0802 -0.1378,-0.1431 -0.0403,-0.0669 -0.0672,-0.1559 -0.0802,-0.2631 -0.0136,-0.1071 -0.0179,-0.2372 -0.0179,-0.3844 0,-0.1428 0.009,-0.2639 0.027,-0.367 0.0172,-0.1069 0.0442,-0.1871 0.0751,-0.2498 0.036,-0.0629 0.081,-0.1071 0.1338,-0.138 0.0501,-0.032 0.117,-0.0451 0.193,-0.0451 h 1.2688 c 0.5451,0 1.0185,-0.0451 1.4119,-0.1298 0.398,-0.0893 0.7282,-0.2191 0.9924,-0.3884 0.2676,-0.1698 0.4598,-0.3798 0.5896,-0.6304 0.1253,-0.2497 0.1877,-0.5357 0.1877,-0.8577 0,-0.29 -0.0624,-0.5452 -0.1837,-0.764 -0.1205,-0.2191 -0.286,-0.398 -0.4907,-0.5451 -0.2012,-0.1431 -0.4563,-0.2506 -0.7514,-0.326 -0.2945,-0.0762 -0.612,-0.1122 -0.9516,-0.1122 -0.5315,0 -1.0055,0.0629 -1.4207,0.1831 -0.4159,0.1207 -0.7733,0.2551 -1.0724,0.398 -0.2996,0.1471 -0.5451,0.2769 -0.7378,0.3929 -0.1922,0.1213 -0.326,0.1791 -0.4063,0.1791 -0.045,0 -0.085,-0.009 -0.125,-0.032 -0.036,-0.0218 -0.072,-0.0618 -0.1029,-0.1202 -0.0311,-0.0536 -0.0538,-0.1338 -0.0669,-0.2322 -0.0133,-0.0983 -0.0184,-0.2191 -0.0184,-0.3574 0,-0.2546 0.0184,-0.4513 0.0584,-0.5984 0.0405,-0.1519 0.112,-0.2772 0.2191,-0.3801 0.1029,-0.1029 0.2858,-0.2282 0.55,-0.3671 0.259,-0.1381 0.5669,-0.2631 0.9204,-0.3702 0.3529,-0.108 0.7367,-0.2007 1.1528,-0.2727 0.4153,-0.076 0.8402,-0.112 1.2773,-0.112 0.6392,0 1.2203,0.0669 1.7563,0.2013 0.5324,0.1389 0.9871,0.3396 1.3675,0.6165 0.3795,0.2721 0.6746,0.6165 0.8852,1.0191 0.2098,0.4064 0.3119,0.8801 0.3119,1.4207 0,0.3217 -0.0528,0.6301 -0.1562,0.9207 -0.1072,0.2945 -0.2546,0.5627 -0.4507,0.8044 -0.1973,0.2452 -0.4383,0.4641 -0.7288,0.6563 -0.2858,0.1927 -0.603,0.3398 -0.9556,0.443 l -0.0275,0.0128 c 0.3444,0.036 0.6795,0.1343 1.0097,0.2951 0.3308,0.1652 0.6302,0.371 0.8892,0.6301 0.2637,0.2591 0.474,0.5633 0.6347,0.9162 0.1613,0.3571 0.2412,0.7463 0.2412,1.1752 z m 12.0603,3.2837 c 0,0.1029 -0.036,0.1831 -0.1029,0.2372 -0.0711,0.0539 -0.1649,0.0893 -0.2902,0.1162 -0.1211,0.0267 -0.2999,0.04 -0.5364,0.04 -0.2236,0 -0.4067,-0.0133 -0.5408,-0.04 -0.1341,-0.0269 -0.2319,-0.0623 -0.2948,-0.1162 -0.0624,-0.0541 -0.0941,-0.1298 -0.0941,-0.2372 v -1.1792 c -0.5134,0.5493 -1.0851,0.9785 -1.7204,1.2821 -0.6344,0.2993 -1.3042,0.4512 -2.0103,0.4512 -0.6211,0 -1.1846,-0.0802 -1.6843,-0.2409 -0.5009,-0.161 -0.9295,-0.398 -1.2824,-0.7013 -0.3535,-0.3042 -0.6302,-0.6837 -0.8269,-1.1259 -0.1964,-0.4473 -0.2951,-0.9522 -0.2951,-1.5197 0,-0.6661 0.1338,-1.2421 0.4065,-1.7294 0.2684,-0.4918 0.6568,-0.8977 1.1667,-1.2197 0.5049,-0.3215 1.1262,-0.5675 1.8584,-0.7283 0.7331,-0.161 1.5594,-0.2412 2.4753,-0.2412 h 1.6265 v -0.9204 c 0,-0.4516 -0.0494,-0.8538 -0.1429,-1.207 -0.0981,-0.3481 -0.25,-0.6389 -0.4646,-0.8711 -0.2146,-0.2324 -0.4918,-0.4062 -0.8311,-0.5227 -0.3396,-0.1202 -0.76,-0.1786 -1.2552,-0.1786 -0.5321,0 -1.01,0.0624 -1.4301,0.1922 -0.4243,0.1293 -0.7954,0.2682 -1.1123,0.4244 -0.3178,0.1567 -0.5859,0.2945 -0.7999,0.4249 -0.2104,0.1287 -0.3714,0.1916 -0.4743,0.1916 -0.0708,0 -0.1338,-0.0179 -0.1828,-0.0539 -0.0533,-0.0309 -0.0984,-0.085 -0.1386,-0.1561 -0.0405,-0.0669 -0.0669,-0.1565 -0.0845,-0.2637 -0.0184,-0.1114 -0.0269,-0.2279 -0.0269,-0.3619 0,-0.2143 0.0127,-0.3884 0.0445,-0.5137 0.0309,-0.1247 0.1071,-0.2458 0.2231,-0.3577 0.1162,-0.1111 0.322,-0.2461 0.608,-0.4023 0.2855,-0.1519 0.6211,-0.295 0.9964,-0.4237 0.371,-0.1253 0.7821,-0.2333 1.2285,-0.3175 0.4431,-0.0848 0.8938,-0.1256 1.3451,-0.1256 0.8441,0 1.5641,0.0938 2.1583,0.2857 0.5944,0.1922 1.0723,0.4782 1.4385,0.8493 0.3668,0.3713 0.6302,0.8311 0.796,1.3813 0.1653,0.5491 0.25,1.1926 0.25,1.9256 z m -2.1452,-5.3972 h -1.8457 c -0.589,0 -1.1032,0.049 -1.5412,0.1517 -0.4331,0.0986 -0.7951,0.2508 -1.0862,0.4464 -0.2849,0.1973 -0.4952,0.4295 -0.6341,0.7064 -0.1341,0.2769 -0.201,0.5941 -0.201,0.9522 0,0.612 0.1922,1.0992 0.5811,1.4604 0.3884,0.362 0.9295,0.5459 1.6308,0.5459 0.5627,0 1.0905,-0.1431 1.5732,-0.434 0.4825,-0.286 0.9916,-0.7282 1.5231,-1.3223 z m 13.1374,-5.7648 c 0,0.1749 -0.009,0.3217 -0.0309,0.443 -0.0224,0.1202 -0.0544,0.2231 -0.0944,0.2991 -0.036,0.0802 -0.0802,0.1389 -0.1289,0.1698 -0.0499,0.036 -0.1078,0.0533 -0.1747,0.0533 h -4.4234 v 10.184 c 0,0.0712 -0.0179,0.129 -0.0536,0.1789 -0.036,0.0442 -0.0893,0.089 -0.1701,0.125 -0.0799,0.0309 -0.1874,0.0581 -0.3305,0.076 -0.1389,0.0172 -0.3178,0.0263 -0.536,0.0263 -0.2149,0 -0.3887,-0.009 -0.5276,-0.0263 -0.1431,-0.0179 -0.2545,-0.0451 -0.3353,-0.076 -0.085,-0.036 -0.1429,-0.0808 -0.1738,-0.125 -0.0314,-0.0499 -0.045,-0.1077 -0.045,-0.1789 v -11.3411 c 0,-0.2636 0.0578,-0.4553 0.1788,-0.5854 0.1163,-0.125 0.277,-0.1876 0.4873,-0.1876 h 5.925 c 0.0711,0 0.129,0.0175 0.1789,0.0586 0.0487,0.04 0.089,0.0978 0.1289,0.1832 0.04,0.0802 0.072,0.1831 0.0944,0.299 0.0218,0.1162 0.0309,0.2591 0.0309,0.4241 z m 11.024,11.162 c 0,0.1029 -0.036,0.1831 -0.1029,0.2372 -0.0715,0.0539 -0.1653,0.0893 -0.2906,0.1162 -0.1205,0.0267 -0.2996,0.04 -0.5357,0.04 -0.2243,0 -0.4071,-0.0133 -0.5412,-0.04 -0.1343,-0.0269 -0.2321,-0.0623 -0.2951,-0.1162 -0.0623,-0.0541 -0.0935,-0.1298 -0.0935,-0.2372 v -1.1792 c -0.5136,0.5493 -1.0857,0.9785 -1.7204,1.2821 -0.6343,0.2993 -1.3047,0.4512 -2.0108,0.4512 -0.6211,0 -1.1841,-0.0802 -1.6844,-0.2409 -0.5009,-0.161 -0.9289,-0.398 -1.2824,-0.7013 -0.3529,-0.3042 -0.6301,-0.6837 -0.8269,-1.1259 -0.1961,-0.4473 -0.295,-0.9522 -0.295,-1.5197 0,-0.6661 0.1338,-1.2421 0.407,-1.7294 0.2682,-0.4918 0.6562,-0.8977 1.1662,-1.2197 0.5051,-0.3215 1.1262,-0.5675 1.8584,-0.7283 0.733,-0.161 1.5596,-0.2412 2.4758,-0.2412 h 1.6259 v -0.9204 c 0,-0.4516 -0.0487,-0.8538 -0.1429,-1.207 -0.098,-0.3481 -0.25,-0.6389 -0.464,-0.8711 -0.2149,-0.2324 -0.4924,-0.4062 -0.8311,-0.5227 -0.3402,-0.1202 -0.76,-0.1786 -1.2555,-0.1786 -0.5323,0 -1.0102,0.0624 -1.43,0.1922 -0.4244,0.1293 -0.7957,0.2682 -1.1126,0.4244 -0.3178,0.1567 -0.586,0.2945 -0.8,0.4249 -0.21,0.1287 -0.371,0.1916 -0.4739,0.1916 -0.0712,0 -0.1341,-0.0179 -0.1832,-0.0539 -0.0532,-0.0309 -0.098,-0.085 -0.138,-0.1561 -0.0408,-0.0669 -0.0669,-0.1565 -0.085,-0.2637 -0.0179,-0.1114 -0.027,-0.2279 -0.027,-0.3619 0,-0.2143 0.0134,-0.3884 0.0451,-0.5137 0.0309,-0.1247 0.1069,-0.2458 0.2231,-0.3577 0.1156,-0.1111 0.322,-0.2461 0.608,-0.4023 0.2849,-0.1519 0.6211,-0.295 0.9961,-0.4237 0.3708,-0.1253 0.7821,-0.2333 1.2283,-0.3175 0.443,-0.0848 0.8943,-0.1256 1.3456,-0.1256 0.8441,0 1.5641,0.0938 2.1577,0.2857 0.5944,0.1922 1.0724,0.4782 1.4386,0.8493 0.3671,0.3713 0.6301,0.8311 0.796,1.3813 0.1652,0.5491 0.2503,1.1926 0.2503,1.9256 z m -2.1456,-5.3972 h -1.8451 c -0.5893,0 -1.1032,0.049 -1.5414,0.1517 -0.4335,0.0986 -0.7954,0.2508 -1.086,0.4464 -0.2854,0.1973 -0.4955,0.4295 -0.6344,0.7064 -0.1341,0.2769 -0.2012,0.5941 -0.2012,0.9522 0,0.612 0.1921,1.0992 0.5811,1.4604 0.3883,0.362 0.9294,0.5459 1.6307,0.5459 0.5633,0 1.0911,-0.1431 1.5733,-0.434 0.4827,-0.286 0.9921,-0.7282 1.523,-1.3223 z m 6.2212,9.6602 c 0,0.0629 -0.0139,0.112 -0.0411,0.1522 -0.0261,0.036 -0.0757,0.0717 -0.1471,0.0978 -0.076,0.0227 -0.1698,0.0451 -0.2809,0.0629 -0.112,0.0182 -0.2509,0.0267 -0.4162,0.0267 -0.1831,0 -0.3353,-0.008 -0.4509,-0.0267 -0.116,-0.0178 -0.2104,-0.0402 -0.2863,-0.0629 -0.0715,-0.0261 -0.1248,-0.0618 -0.1557,-0.0978 -0.032,-0.0402 -0.045,-0.0893 -0.045,-0.1522 v -5.237 c 0,-0.2191 0.0357,-0.362 0.1068,-0.4332 0.0669,-0.0669 0.2058,-0.1029 0.4071,-0.1029 h 0.8402 c 0.326,-0.3934 0.6293,-0.8399 0.9062,-1.3495 0.2818,-0.5049 0.5454,-1.1393 0.7872,-1.9035 0.2409,-0.7639 0.4601,-1.6843 0.6613,-2.757 0.2007,-1.0723 0.3886,-2.3547 0.5536,-3.8469 0.0182,-0.121 0.04,-0.2321 0.0715,-0.335 0.032,-0.0984 0.0759,-0.1792 0.1298,-0.2373 0.0578,-0.053 0.1253,-0.0981 0.2052,-0.1341 0.0763,-0.036 0.1701,-0.0535 0.273,-0.0535 h 6.537 c 0.2103,0 0.371,0.0626 0.4872,0.1876 0.1202,0.1301 0.1789,0.3218 0.1789,0.5854 v 9.8438 h 1.6353 c 0.1828,0 0.3124,0.036 0.3935,0.1029 0.0759,0.0712 0.1159,0.2141 0.1159,0.4332 v 5.237 c 0,0.0629 -0.013,0.112 -0.04,0.1522 -0.0275,0.036 -0.0759,0.0717 -0.1479,0.0978 -0.0763,0.0227 -0.1741,0.0451 -0.2951,0.0629 -0.1202,0.0182 -0.2634,0.0267 -0.4286,0.0267 -0.1749,0 -0.3178,-0.008 -0.4289,-0.0267 -0.112,-0.0178 -0.2058,-0.0402 -0.2818,-0.0629 -0.0711,-0.0261 -0.1253,-0.0618 -0.1562,-0.0978 -0.0311,-0.0402 -0.0447,-0.0893 -0.0447,-0.1522 v -3.9498 H 153.678 Z m 8.1499,-14.62 h -3.7267 c -0.1834,1.4253 -0.3708,2.6269 -0.5675,3.606 -0.197,0.9779 -0.4059,1.8003 -0.6301,2.4752 -0.2231,0.6743 -0.4559,1.22 -0.7013,1.6444 -0.2418,0.4243 -0.4958,0.7999 -0.76,1.1213 h 6.3856 z m 76.2304,8.8067 c 0,0.2682 -0.0133,0.5182 -0.0402,0.7421 -0.027,0.2273 -0.0669,0.4422 -0.125,0.6432 -0.0539,0.201 -0.1341,0.398 -0.237,0.5941 -0.0981,0.197 -0.2231,0.4023 -0.3711,0.6211 l -1.7824,2.6634 c -0.0448,0.0712 -0.0938,0.125 -0.1519,0.1701 -0.0581,0.0442 -0.125,0.0802 -0.201,0.1111 -0.0811,0.0312 -0.1743,0.0539 -0.286,0.072 -0.1072,0.0179 -0.2412,0.027 -0.398,0.027 -0.1471,0 -0.2724,-0.005 -0.3753,-0.0182 -0.0981,-0.0136 -0.1698,-0.0405 -0.214,-0.0717 -0.0451,-0.036 -0.0672,-0.0802 -0.072,-0.125 -0.004,-0.049 0.009,-0.112 0.045,-0.1922 l 1.7153,-3.5657 v -1.6713 c 0,-0.237 0.0272,-0.4241 0.0811,-0.563 0.049,-0.1383 0.1289,-0.2412 0.2279,-0.3129 0.1023,-0.0712 0.2273,-0.1162 0.3883,-0.1432 0.1568,-0.026 0.3441,-0.0399 0.563,-0.0399 0.21,0 0.3931,0.0139 0.5499,0.0399 0.1604,0.027 0.286,0.072 0.3883,0.1432 0.099,0.0717 0.1749,0.1746 0.224,0.3129 0.049,0.1389 0.0711,0.326 0.0711,0.563 z m 0,-8.6148 c 0,0.2812 -0.0181,0.5182 -0.0581,0.7104 -0.04,0.1922 -0.1159,0.3489 -0.2231,0.4649 -0.1119,0.1202 -0.2551,0.2012 -0.4291,0.2503 -0.1741,0.049 -0.398,0.0711 -0.6701,0.0711 -0.2818,0 -0.51,-0.0221 -0.684,-0.0711 -0.1741,-0.0491 -0.3172,-0.1301 -0.4201,-0.2503 -0.1072,-0.116 -0.1783,-0.2727 -0.2189,-0.4649 -0.0402,-0.1922 -0.0581,-0.4292 -0.0581,-0.7104 0,-0.2948 0.0179,-0.5408 0.0581,-0.737 0.0406,-0.197 0.1117,-0.358 0.2189,-0.4739 0.1029,-0.1211 0.246,-0.2013 0.4201,-0.2503 0.174,-0.0491 0.4022,-0.0718 0.684,-0.0718 0.2721,0 0.496,0.0227 0.6701,0.0718 0.174,0.049 0.3172,0.1292 0.4291,0.2503 0.1072,0.1159 0.1831,0.2769 0.2231,0.4739 0.04,0.1962 0.0581,0.4422 0.0581,0.737 z m -9.388,-0.3798 c -0.313,-0.0451 -0.6341,-0.076 -0.9652,-0.0893 -0.326,-0.0136 -0.6299,-0.0179 -0.9111,-0.0179 -0.5902,0 -1.0814,0.0491 -1.4751,0.152 -0.3972,0.098 -0.7104,0.2455 -0.9513,0.4331 -0.237,0.1879 -0.4071,0.4113 -0.5052,0.6661 -0.1029,0.2501 -0.1519,0.5313 -0.1519,0.8402 0,0.3124 0.0581,0.5984 0.174,0.8484 0.1211,0.2509 0.2951,0.461 0.5361,0.6302 0.2369,0.1698 0.5451,0.3039 0.9161,0.3932 0.3759,0.0938 0.8941,0.1386 1.5642,0.1386 h 1.7694 z m 2.1716,10.5318 c 0,0.0712 -0.0131,0.1293 -0.0442,0.1831 -0.0318,0.0539 -0.0851,0.0942 -0.1659,0.1251 -0.0802,0.0311 -0.1873,0.0541 -0.3302,0.072 -0.1389,0.0172 -0.322,0.0263 -0.5499,0.0263 -0.2143,0 -0.3889,-0.009 -0.5273,-0.0263 -0.1428,-0.0179 -0.2548,-0.0409 -0.335,-0.072 -0.0851,-0.0309 -0.1429,-0.0712 -0.1741,-0.1251 -0.0317,-0.049 -0.045,-0.1119 -0.045,-0.1831 v -4.9558 h -1.2422 c -0.5408,0 -0.9604,0.0451 -1.2642,0.1301 -0.2999,0.089 -0.5721,0.2322 -0.809,0.438 -0.2413,0.2052 -0.4561,0.4691 -0.6483,0.7863 -0.1919,0.3169 -0.375,0.7061 -0.5491,1.171 l -0.9561,2.3006 c -0.0451,0.112 -0.0899,0.2061 -0.1432,0.273 -0.0538,0.0711 -0.1298,0.125 -0.2279,0.165 -0.0981,0.0402 -0.2282,0.0671 -0.3801,0.081 -0.1519,0.0131 -0.3393,0.0173 -0.5672,0.0173 -0.161,0 -0.3081,-0.004 -0.4331,-0.0133 -0.1259,-0.009 -0.2328,-0.0221 -0.3221,-0.0448 -0.085,-0.0221 -0.1519,-0.0581 -0.1919,-0.1071 -0.045,-0.0448 -0.0672,-0.1072 -0.0672,-0.1741 0,-0.0629 0.0222,-0.161 0.0712,-0.2951 0.049,-0.1341 0.148,-0.371 0.2951,-0.7101 l 0.9431,-2.2124 c 0.2452,-0.5581 0.5451,-1.0412 0.9022,-1.4431 0.3581,-0.4065 0.7691,-0.7061 1.2334,-0.8983 -0.8493,-0.1562 -1.5194,-0.4961 -2.0245,-1.0143 -0.5,-0.5229 -0.7503,-1.2112 -0.7503,-2.0684 0,-0.5681 0.1162,-1.0814 0.3532,-1.542 0.2369,-0.4604 0.5811,-0.8485 1.0411,-1.1665 0.4553,-0.3212 1.0185,-0.5672 1.6886,-0.737 0.6659,-0.1692 1.4301,-0.2543 2.2972,-0.2543 0.2052,0 0.451,0.004 0.7234,0.0131 0.277,0.009 0.5587,0.0221 0.849,0.0402 0.2951,0.0179 0.5768,0.0357 0.8541,0.0578 0.2721,0.023 0.5091,0.0409 0.7101,0.0582 0.2633,0.0269 0.4603,0.121 0.5901,0.2908 0.1293,0.1652 0.1962,0.371 0.1962,0.6123 z m -14.7997,-5.3841 h -1.8454 c -0.5893,0 -1.1032,0.049 -1.5414,0.1514 -0.4332,0.0989 -0.7952,0.2508 -1.086,0.447 -0.2854,0.197 -0.4955,0.4292 -0.6344,0.7061 -0.1341,0.2769 -0.201,0.5941 -0.201,0.9522 0,0.612 0.1922,1.099 0.5811,1.4604 0.3884,0.362 0.9292,0.5459 1.6305,0.5459 0.563,0 1.0908,-0.1431 1.5733,-0.434 0.4827,-0.286 0.9921,-0.7282 1.5233,-1.3223 z m 2.1453,5.3974 c 0,0.1029 -0.036,0.1832 -0.1029,0.237 -0.0712,0.0539 -0.1653,0.089 -0.2903,0.116 -0.1208,0.0269 -0.2999,0.0402 -0.536,0.0402 -0.224,0 -0.4071,-0.0133 -0.5412,-0.0402 -0.1341,-0.027 -0.2321,-0.0621 -0.2948,-0.116 -0.0623,-0.0538 -0.0941,-0.1301 -0.0941,-0.237 v -1.1794 c -0.5133,0.5493 -1.0854,0.9782 -1.7203,1.2823 -0.6341,0.2991 -1.3045,0.451 -2.0104,0.451 -0.6213,0 -1.1843,-0.0799 -1.6846,-0.2409 -0.5009,-0.161 -0.9292,-0.398 -1.2821,-0.7013 -0.3532,-0.3039 -0.6301,-0.684 -0.8272,-1.1262 -0.1961,-0.447 -0.295,-0.9522 -0.295,-1.5194 0,-0.6658 0.134,-1.2421 0.407,-1.7291 0.2682,-0.4921 0.6562,-0.8983 1.1662,-1.2203 0.5051,-0.3212 1.1262,-0.5672 1.8587,-0.728 0.733,-0.161 1.5593,-0.2412 2.4755,-0.2412 h 1.6262 v -0.9204 c 0,-0.4518 -0.049,-0.8538 -0.1432,-1.207 -0.098,-0.3481 -0.25,-0.6389 -0.464,-0.8711 -0.2148,-0.2321 -0.4921,-0.4062 -0.8311,-0.523 -0.3402,-0.1202 -0.7603,-0.1783 -1.2555,-0.1783 -0.532,0 -1.0099,0.0621 -1.43,0.1922 -0.4244,0.129 -0.7954,0.2679 -1.1124,0.4241 -0.318,0.1567 -0.5859,0.2951 -0.8002,0.4249 -0.21,0.1293 -0.371,0.1922 -0.4739,0.1922 -0.0712,0 -0.1341,-0.0182 -0.1832,-0.0539 -0.053,-0.0312 -0.098,-0.085 -0.138,-0.1562 -0.0408,-0.0671 -0.0672,-0.157 -0.085,-0.2639 -0.0179,-0.1114 -0.027,-0.2282 -0.027,-0.3619 0,-0.2143 0.0131,-0.3884 0.0448,-0.5134 0.0312,-0.1253 0.1072,-0.2461 0.2234,-0.358 0.1159,-0.1111 0.3217,-0.2461 0.6077,-0.402 0.2855,-0.1522 0.6214,-0.2951 0.9964,-0.4243 0.3711,-0.125 0.7821,-0.2327 1.2286,-0.3172 0.4427,-0.0851 0.894,-0.1256 1.345,-0.1256 0.8441,0 1.5641,0.0938 2.1583,0.286 0.5941,0.1919 1.0723,0.4779 1.4386,0.849 0.3668,0.3711 0.6301,0.8311 0.7959,1.381 0.165,0.5494 0.2501,1.1926 0.2501,1.9256 z m -12.8872,-0.0133 c 0,0.0712 -0.0181,0.1293 -0.0533,0.1792 -0.036,0.0442 -0.0898,0.089 -0.1701,0.125 -0.0799,0.0312 -0.1879,0.0581 -0.3308,0.076 -0.1383,0.0172 -0.3123,0.0263 -0.5224,0.0263 -0.2239,0 -0.4019,-0.009 -0.5408,-0.0263 -0.1432,-0.0179 -0.2503,-0.0448 -0.3311,-0.076 -0.08,-0.036 -0.1341,-0.0808 -0.1693,-0.125 -0.036,-0.0499 -0.0538,-0.108 -0.0538,-0.1792 v -5.1698 h -5.9783 v 5.1698 c 0,0.0712 -0.0181,0.1293 -0.0538,0.1792 -0.036,0.0442 -0.0893,0.089 -0.1701,0.125 -0.0802,0.0312 -0.1871,0.0581 -0.3303,0.076 -0.1389,0.0172 -0.3177,0.0263 -0.536,0.0263 -0.2149,0 -0.3889,-0.009 -0.5278,-0.0263 -0.1431,-0.0179 -0.2543,-0.0448 -0.3351,-0.076 -0.085,-0.036 -0.1431,-0.0808 -0.1743,-0.125 -0.0309,-0.0499 -0.0448,-0.108 -0.0448,-0.1792 v -11.7873 c 0,-0.0717 0.0139,-0.1298 0.0448,-0.1788 0.0312,-0.0448 0.0893,-0.0891 0.1743,-0.1299 0.0808,-0.0402 0.192,-0.0672 0.3351,-0.0802 0.1389,-0.013 0.3129,-0.0179 0.5278,-0.0179 0.2183,0 0.3971,0.005 0.536,0.0179 0.1432,0.013 0.2501,0.04 0.3303,0.0802 0.0808,0.0408 0.1341,0.0851 0.1701,0.1299 0.0357,0.049 0.0538,0.1071 0.0538,0.1788 v 4.7943 h 5.9783 v -4.7943 c 0,-0.0717 0.0178,-0.1298 0.0538,-0.1788 0.0352,-0.0448 0.0893,-0.0891 0.1693,-0.1299 0.0808,-0.0402 0.1879,-0.0672 0.3311,-0.0802 0.1389,-0.013 0.3169,-0.0179 0.5408,-0.0179 0.2101,0 0.3841,0.005 0.5224,0.0179 0.1429,0.013 0.2509,0.04 0.3308,0.0802 0.0803,0.0408 0.1341,0.0851 0.1701,0.1299 0.0352,0.049 0.0533,0.1071 0.0533,0.1788 z m -14.339,0 c 0,0.0712 -0.0179,0.1293 -0.0531,0.1792 -0.036,0.0442 -0.0898,0.089 -0.17,0.125 -0.0808,0.0312 -0.188,0.0581 -0.3308,0.076 -0.1384,0.0172 -0.3133,0.0263 -0.5225,0.0263 -0.2148,0 -0.3889,-0.009 -0.5368,-0.0263 -0.1429,-0.0179 -0.2591,-0.0448 -0.3394,-0.076 -0.0847,-0.036 -0.1428,-0.0808 -0.174,-0.125 -0.0317,-0.0499 -0.0448,-0.108 -0.0448,-0.1792 v -4.7497 c -0.4873,0.2188 -1.0054,0.3889 -1.5505,0.5139 -0.5451,0.1293 -1.135,0.1922 -1.7694,0.1922 -0.813,0 -1.4882,-0.1029 -2.0291,-0.3129 -0.5402,-0.2101 -0.9742,-0.5004 -1.2954,-0.8623 -0.322,-0.3668 -0.5499,-0.8042 -0.6882,-1.3094 -0.1338,-0.5051 -0.201,-1.144 -0.201,-1.9122 v -3.3469 c 0,-0.0717 0.013,-0.1298 0.0442,-0.1788 0.0317,-0.0448 0.0899,-0.0891 0.1789,-0.1299 0.085,-0.0402 0.197,-0.0672 0.3311,-0.0802 0.138,-0.013 0.3081,-0.0179 0.5181,-0.0179 0.2191,0 0.398,0.005 0.5361,0.0179 0.1389,0.013 0.2503,0.04 0.3262,0.0802 0.0808,0.0408 0.1389,0.0851 0.1789,0.1299 0.04,0.049 0.0581,0.1071 0.0581,0.1788 v 3.0067 c 0,0.7061 0.0539,1.2334 0.1562,1.5823 0.1077,0.3481 0.2591,0.6253 0.4601,0.8311 0.1967,0.201 0.447,0.3481 0.7378,0.4292 0.2903,0.0842 0.6341,0.125 1.0273,0.125 0.5142,0 1.019,-0.0672 1.5103,-0.197 0.4921,-0.1293 0.983,-0.3172 1.4703,-0.563 v -5.2143 c 0,-0.0717 0.0131,-0.1298 0.0448,-0.1788 0.0312,-0.0448 0.0893,-0.0891 0.174,-0.1299 0.0803,-0.0402 0.1965,-0.0672 0.3394,-0.0802 0.1479,-0.013 0.322,-0.0179 0.5368,-0.0179 0.2092,0 0.3841,0.005 0.5225,0.0179 0.1428,0.013 0.25,0.04 0.3308,0.0802 0.0802,0.0408 0.134,0.0851 0.17,0.1299 0.0352,0.049 0.0531,0.1071 0.0531,0.1788 z m -14.0038,-5.8938 c 0,-0.6392 -0.0581,-1.2424 -0.1788,-1.8096 -0.1162,-0.5672 -0.3124,-1.0633 -0.5854,-1.4922 -0.2679,-0.4291 -0.6389,-0.769 -1.1032,-1.0142 -0.4601,-0.2509 -1.0412,-0.3759 -1.7343,-0.3759 -0.6383,0 -1.1882,0.112 -1.6483,0.3399 -0.4601,0.2279 -0.8359,0.5494 -1.1353,0.9652 -0.299,0.4153 -0.5182,0.9071 -0.661,1.4743 -0.1471,0.5681 -0.2191,1.1891 -0.2191,1.8592 0,0.6475 0.0581,1.2555 0.1791,1.8227 0.1159,0.5678 0.3121,1.0639 0.5893,1.4882 0.277,0.4198 0.648,0.76 1.1081,1.0052 0.4649,0.25 1.046,0.3758 1.7382,0.3758 0.6301,0 1.1752,-0.1119 1.6404,-0.3398 0.464,-0.2282 0.8442,-0.5451 1.1441,-0.9564 0.299,-0.4111 0.5181,-0.9029 0.6562,-1.4701 0.1389,-0.5672 0.21,-1.1934 0.21,-1.8723 z m 2.2524,-0.1383 c 0,0.9604 -0.125,1.8454 -0.3801,2.6538 -0.25,0.8048 -0.6301,1.5021 -1.1302,2.0871 -0.5008,0.5851 -1.1304,1.0412 -1.8813,1.3675 -0.7552,0.326 -1.6313,0.4909 -2.6226,0.4909 -0.97,0 -1.8142,-0.1428 -2.5342,-0.4331 -0.7191,-0.286 -1.3175,-0.7061 -1.7957,-1.2552 -0.478,-0.5499 -0.836,-1.2203 -1.073,-2.0024 -0.2364,-0.786 -0.3529,-1.6752 -0.3529,-2.6716 0,-0.961 0.1256,-1.8459 0.3708,-2.6501 0.2503,-0.8085 0.6262,-1.5055 1.1262,-2.0909 0.5003,-0.5859 1.1262,-1.0369 1.8765,-1.3632 0.7509,-0.3217 1.6271,-0.4827 2.6275,-0.4827 0.97,0 1.8144,0.1429 2.5336,0.4337 0.72,0.286 1.3181,0.7061 1.7963,1.2555 0.4782,0.5499 0.8402,1.2152 1.0811,2.0021 0.237,0.7863 0.358,1.6707 0.358,2.6586 z"
     style="fill:#1b1918;fill-rule:evenodd"
     id="path325" />
  <path
     d="m 124.452,589.19533 c 0,0.1654 -0.01,0.3124 -0.033,0.4397 -0.0241,0.1332 -0.057,0.2414 -0.0995,0.327 -0.0424,0.09 -0.0951,0.1515 -0.166,0.1939 -0.071,0.0425 -0.1464,0.0615 -0.2269,0.0615 h -9.9273 c -0.1273,0 -0.2415,-0.0139 -0.341,-0.0476 -0.0944,-0.0329 -0.1792,-0.0848 -0.2458,-0.1609 -0.071,-0.071 -0.1229,-0.1793 -0.1558,-0.3168 -0.0337,-0.1368 -0.0476,-0.3073 -0.0476,-0.5107 0,-0.1851 0.01,-0.3461 0.0234,-0.4829 0.0147,-0.1375 0.0432,-0.2604 0.09,-0.3694 0.0476,-0.1039 0.109,-0.2078 0.18,-0.3168 0.071,-0.1039 0.1653,-0.2173 0.2795,-0.3358 l 3.5864,-3.6911 c 0.8326,-0.8516 1.4954,-1.6132 1.9966,-2.29 0.5019,-0.6716 0.8852,-1.2869 1.1596,-1.8451 0.2692,-0.5539 0.4492,-1.0558 0.5348,-1.5094 0.0849,-0.4543 0.1273,-0.8801 0.1273,-1.2781 0,-0.3973 -0.0658,-0.7755 -0.1982,-1.1304 -0.1376,-0.3548 -0.3271,-0.6672 -0.5824,-0.9372 -0.251,-0.27 -0.5678,-0.4829 -0.9511,-0.6387 -0.3783,-0.1558 -0.8187,-0.2363 -1.3155,-0.2363 -0.5816,0 -1.1025,0.0805 -1.5664,0.2363 -0.4587,0.1558 -0.8655,0.3314 -1.2159,0.5158 -0.3454,0.1844 -0.6388,0.3592 -0.8707,0.5158 -0.2319,0.1558 -0.4068,0.2363 -0.5202,0.2363 -0.0665,0 -0.128,-0.019 -0.1799,-0.0563 -0.052,-0.0381 -0.0944,-0.0951 -0.1281,-0.18 -0.0329,-0.0805 -0.0614,-0.1939 -0.0797,-0.3314 -0.019,-0.142 -0.0286,-0.3073 -0.0286,-0.5012 0,-0.1375 0.004,-0.2561 0.0139,-0.3599 0.01,-0.0995 0.0235,-0.1895 0.0476,-0.2649 0.0234,-0.071 0.0519,-0.1419 0.09,-0.2085 0.0373,-0.0615 0.1134,-0.1419 0.2224,-0.2414 0.1134,-0.0944 0.3029,-0.2268 0.5773,-0.3922 0.2692,-0.1705 0.6145,-0.3314 1.0264,-0.4924 0.4068,-0.1653 0.8611,-0.2977 1.3579,-0.4119 0.4924,-0.1083 1.0126,-0.1653 1.5569,-0.1653 0.8706,0 1.6323,0.1229 2.2805,0.3687 0.6533,0.2414 1.1925,0.5773 1.6234,1.0038 0.4302,0.4258 0.7522,0.9175 0.9651,1.4808 0.2129,0.5634 0.3175,1.164 0.3175,1.8027 0,0.5729 -0.0527,1.145 -0.1515,1.7128 -0.1046,0.5677 -0.3175,1.183 -0.6438,1.8458 -0.3314,0.6622 -0.804,1.3953 -1.4245,2.2044 -0.6153,0.8092 -1.4383,1.7413 -2.4648,2.797 l -2.8394,2.9668 h 7.8078 c 0.071,0 0.142,0.019 0.213,0.0614 0.0709,0.0425 0.1324,0.1039 0.1792,0.1844 0.0527,0.0856 0.09,0.1895 0.1141,0.3124 0.0234,0.1229 0.033,0.27 0.033,0.4353 z m 6.6387,-0.5019 c 0,0.6577 -0.109,1.0931 -0.3263,1.3111 -0.218,0.2173 -0.6102,0.3263 -1.183,0.3263 -0.5583,0 -0.9416,-0.109 -1.1545,-0.3219 -0.2129,-0.2129 -0.3168,-0.6387 -0.3168,-1.2774 0,-0.6578 0.1082,-1.0931 0.3263,-1.3104 0.2173,-0.218 0.6101,-0.327 1.183,-0.327 0.5582,0 0.9416,0.1046 1.1545,0.3175 0.2078,0.2129 0.3168,0.6431 0.3168,1.2818 z m 15.6523,-3.5718 c 0,0.3022 -0.0468,0.5436 -0.1368,0.7192 -0.0951,0.1749 -0.2224,0.2597 -0.3885,0.2597 h -2.0251 v 3.7716 c 0,0.0753 -0.019,0.1368 -0.0563,0.1894 -0.0381,0.0469 -0.1047,0.0944 -0.199,0.1325 -0.0944,0.0329 -0.2225,0.0614 -0.3739,0.0804 -0.1514,0.0183 -0.3453,0.0279 -0.5816,0.0279 -0.232,0 -0.4215,-0.01 -0.5729,-0.0279 -0.1514,-0.019 -0.2744,-0.0475 -0.3643,-0.0804 -0.09,-0.0381 -0.1515,-0.0856 -0.1844,-0.1325 -0.0329,-0.0526 -0.052,-0.1141 -0.052,-0.1894 v -3.7716 h -7.344 c -0.1134,0 -0.2034,-0.0139 -0.2743,-0.0424 -0.0754,-0.0285 -0.142,-0.0754 -0.2034,-0.1514 -0.0571,-0.071 -0.0995,-0.18 -0.123,-0.3168 -0.0241,-0.1376 -0.0329,-0.3176 -0.0329,-0.54 0,-0.1748 0.004,-0.3307 0.0139,-0.4682 0.01,-0.1368 0.0286,-0.2649 0.0571,-0.3783 0.0234,-0.1185 0.0614,-0.2275 0.1083,-0.3314 0.0424,-0.109 0.0995,-0.2224 0.1661,-0.3409 l 6.3973,-10.9115 c 0.0468,-0.0753 0.1178,-0.1368 0.2077,-0.1938 0.09,-0.0564 0.2034,-0.1039 0.3454,-0.1369 0.1419,-0.038 0.3175,-0.0665 0.5209,-0.0804 0.2078,-0.0147 0.4543,-0.0191 0.7382,-0.0191 0.3073,0 0.5816,0.01 0.8092,0.033 0.2319,0.0234 0.4206,0.057 0.5582,0.09 0.1419,0.038 0.2509,0.0899 0.3263,0.1463 0.0761,0.0622 0.1134,0.1331 0.1134,0.218 v 11.4653 h 2.0251 c 0.1566,0 0.2839,0.0805 0.379,0.2414 0.0995,0.1602 0.1463,0.4068 0.1463,0.7382 z m -4.9348,-10.8361 h -0.0285 l -5.7725,9.8565 h 5.801 z m 10.8405,14.4079 c 0,0.6577 -0.109,1.0931 -0.3263,1.3111 -0.218,0.2173 -0.6102,0.3263 -1.183,0.3263 -0.5583,0 -0.9416,-0.109 -1.1545,-0.3219 -0.2129,-0.2129 -0.3168,-0.6387 -0.3168,-1.2774 0,-0.6578 0.1082,-1.0931 0.3263,-1.3104 0.2173,-0.218 0.6101,-0.327 1.183,-0.327 0.5582,0 0.9416,0.1046 1.1545,0.3175 0.2078,0.2129 0.3168,0.6431 0.3168,1.2818 z m 15.146,-15.3919 c 0,0.1705 -0.004,0.3168 -0.019,0.4543 -0.0139,0.1325 -0.0329,0.2649 -0.0563,0.3878 -0.0242,0.128 -0.0571,0.2458 -0.0995,0.3644 -0.0381,0.1134 -0.09,0.2363 -0.1419,0.3643 l -6.4588,14.8907 c -0.0476,0.1091 -0.1039,0.199 -0.1749,0.27 -0.0665,0.071 -0.1565,0.1229 -0.2655,0.1654 -0.1039,0.0424 -0.2408,0.0709 -0.4068,0.0856 -0.1654,0.0139 -0.3688,0.0183 -0.6102,0.0183 -0.3124,0 -0.5582,-0.0139 -0.7338,-0.0425 -0.1749,-0.0285 -0.3029,-0.071 -0.3827,-0.1324 -0.076,-0.0563 -0.109,-0.1324 -0.1046,-0.2173 0.01,-0.09 0.0425,-0.1946 0.0995,-0.3124 l 6.7902,-15.2222 h -8.6068 c -0.1756,0 -0.308,-0.0951 -0.3929,-0.2794 -0.09,-0.1844 -0.1324,-0.4449 -0.1324,-0.7807 0,-0.1748 0.01,-0.3263 0.0329,-0.4587 0.0234,-0.1281 0.0615,-0.2371 0.1039,-0.3271 0.0476,-0.0848 0.1039,-0.1507 0.1661,-0.1938 0.0658,-0.0425 0.1419,-0.0615 0.2224,-0.0615 h 10.452 c 0.128,0 0.2414,0.0146 0.3358,0.0424 0.0995,0.0286 0.1756,0.0805 0.2224,0.1661 0.0527,0.0849 0.09,0.1895 0.1185,0.3219 0.0285,0.1273 0.0424,0.2934 0.0424,0.4968 z"
     style="fill:#1b1918;fill-rule:evenodd"
     id="path327" />
  <g
     id="Layer1009"
     transform="translate(-147.0144,-238.13767)">
    <path
       d="m 382.3277,411.7526 c -31.4954,24.2575 -145.969,29.1515 -174.3718,15.5169 -8.4012,-4.0328 20.0657,53.1914 31.0141,58.9232 20.9356,10.9604 21.9692,14.5507 47.5385,21.6435 41.6375,11.5498 50.0311,-12.8505 77.1188,-39.9727 12.2952,-12.3117 20.0027,-38.0705 18.7004,-56.1109 z"
       style="fill:#f5b1b5;fill-rule:evenodd"
       id="path329" />
    <path
       d="m 210.0388,425.4437 c 0.548,7.4526 40.0642,11.9028 88.1458,8.3672 48.0816,-3.5356 86.2639,-17.2254 85.9167,-21.9478 -0.7085,-9.6354 -174.6106,6.1279 -174.0625,13.5806 z"
       style="fill:#f8c7cf;fill-rule:evenodd"
       id="path331" />
    <g
       id="Layer1010">
      <path
         d="m 150.6802,435.0985 c 0.9636,7.9886 0.963,15.3916 1.4807,21.8142 0.5156,6.397 3.885,11.3153 5.9301,16.1311 2.2874,5.3863 3.9165,12.7896 6.8933,14.0056 0.7069,0.2888 1.1365,4.8457 1.9873,5.4654 5.5727,4.0607 8.3503,3.9888 16.556,8.8803 8.6767,5.1721 11.8926,7.2994 20.3948,13.0181 1.7857,1.201 4.8537,3.5286 6.851,3.4344 2.3019,0.9993 19.0276,4.1923 18.771,2.9767 -0.626,-2.9666 6.7535,-8.4767 3.4237,-13.5792 -0.9466,-1.4506 -12.4014,-2.6267 -13.3314,-3.9986 -2.7526,-4.0599 -5.2045,-7.5317 -6.0066,-8.971 -4.0886,-7.3369 -9.1964,-10.7196 -17.983,-14.0993 -5.6564,-2.176 -6.0663,-4.1616 -6.2651,-7.0406 -0.2093,-3.0327 -0.0601,-6.9811 -0.4995,-10.064 -0.1835,-1.2883 11.5941,-10.8355 2.9884,-7.428 -10.054,3.9809 -9.127,19.4114 -9.169,19.4793 -2.4026,-1.4823 -6.2072,-19.7533 -1.0121,-24.6096 0.7205,-0.6736 7.8387,-6.2816 10.0218,-10.2407 1.3847,-2.5114 -0.3245,-5.1225 -3.3645,-2.9505 -3.1385,2.242 -3.7828,3.2528 -9.5944,8.1063 -2.4039,2.0075 -6.2612,10.7368 -3.196,0.5939 0.5696,-1.8843 7.2029,-9.2 9.646,-14.1677 4.0018,-8.1374 -2.9112,-10.3333 -6.357,-1.2995 -1.4265,3.7396 -8.2937,11.4364 -11.1713,14.9429 -1.0533,1.2836 -4.2643,5.0378 -4.4914,7.2932 -0.0982,0.9754 2.3779,15.2408 1.1647,14.9592 -2.2898,-0.5315 -5.0658,-5.8438 -6.3227,-11.2045 -2.4706,-10.5378 -0.6528,-23.4606 -5.4345,-26.1432 -0.4076,-0.2286 -3.1904,1.5095 -1.9103,4.6958 z"
         style="fill:#ffffff;fill-rule:evenodd"
         id="path333" />
      <g
         id="Layer1011">
        <path
           d="m 184.6088,425.0771 c 0.2046,-1.0382 3.5807,-5.7252 2.2538,-8.2262 -0.9068,0.495 -0.3045,-0.2044 -0.8002,0.9731 -0.6493,1.5427 0.3036,-0.3966 -0.2312,0.6009 l -0.5627,0.7794 c -0.2377,0.4685 -0.1178,0.3839 -0.4639,0.8276 -0.4677,0.6001 -0.2629,0.3031 -0.7115,0.6691 -0.259,0.9745 -1.3604,2.4808 -1.8004,3.6833 0.6371,2.2296 2.3512,1.3821 2.3161,0.6928 z"
           style="fill:#e30016;fill-rule:evenodd"
           id="path335" />
        <path
           d="m 191.3381,435.3091 0.8818,0.8209 1.0649,-0.0888 0.0856,-0.1287 c 0.4933,-1.4839 0.9696,-1.2811 1.9722,-2.6337 0.7642,-1.0315 0.9792,-1.5971 1.4094,-2.8165 l -0.0764,-2.1951 c -0.8338,0.5911 -0.4159,0.565 -1.6046,1.3156 0.0442,0.9528 -1.5522,2.2622 -2.2912,2.995 -2.0618,2.2001 -2.9747,2.9318 -1.4417,2.7313 z"
           style="fill:#e30016;fill-rule:evenodd"
           id="path337" />
        <path
           d="m 149.3842,430.2362 0.2342,1.3827 2.1899,-0.5948 c -0.2766,-1.3401 -0.9104,-3.1899 -1.5071,-4.4271 -1.1286,-2.3437 -2.3512,-2.948 -2.7131,-3.0337 -0.6476,-0.1527 -0.0352,0.9315 0.5054,2.4107 0.6196,1.6937 1.2358,3.8476 1.2907,4.2622 z"
           style="fill:#e30016;fill-rule:evenodd"
           id="path339" />
        <path
           d="m 196.0878,453.9638 c 1.2684,0.266 0.4473,0.3473 1.4039,-0.3156 1.339,-1.3373 1.9937,-2.0149 2.1741,-3.7876 0.0267,-0.2617 0.0272,-0.563 0.068,-0.7736 0.2615,-1.2603 -1.6,1.0868 -1.6174,1.1088 -1.1889,1.4561 -2.5021,2.0375 -3.324,3.3634 l 0.2327,-0.0196 c 0.9523,-0.1898 0.8976,0.295 1.0627,0.4242 z"
           style="fill:#e30016;fill-rule:evenodd"
           id="path341" />
        <path
           d="m 176.4134,446.6873 -0.2573,-0.2065 c -0.4148,0.483 -0.3149,-0.6379 -0.35,0.8345 z"
           style="fill:#b5b5b5;fill-rule:evenodd"
           id="path343" />
        <path
           d="m 172.0148,462.8848 c 0.5315,-2.8667 -1.7466,-6.6818 0.2371,-10.2747 1.2121,-2.1952 3.7591,-4.0682 5.6777,-5.8965 0.9039,-0.8617 11.3937,-10.7596 12.2151,-11.0501 0.5228,-0.8886 1.8282,-2.2856 2.6351,-3.0857 0.739,-0.7328 2.3354,-2.0422 2.2912,-2.995 l -0.2168,-0.4502 c -1.6147,2.2538 -6.834,7.0887 -9.0618,9.1049 -1.4831,1.3432 -3.1087,2.7843 -4.7321,4.2679 -1.2832,1.1728 -3.4654,3.4946 -4.6469,4.1819 l -0.6073,0.628 c 0.0351,-1.4724 -0.0648,-0.3515 0.35,-0.8345 1.6118,-4.4675 10.2477,-12.6056 10.0954,-16.8866 l -0.2481,-0.6979 c -1.2206,6.1053 -9.7321,13.5008 -11.0897,18.3494 -0.7107,2.5391 -1.0727,1.8881 -2.3048,3.5148 -2.6187,3.4576 -1.5214,4.886 -1.6053,9.5537 0.412,0.4333 0.1594,-0.1564 0.4693,0.8188 0.0147,0.0468 0.1461,0.7702 0.1621,0.8639 0.7186,4.1403 0.7049,8.1998 1.1556,11.2273 0.2802,1.8836 0.3717,1.1517 0.69,1.4304 z"
           style="fill:#1b1918;fill-rule:evenodd"
           id="path345" />
        <path
           d="m 233.6407,506.1975 c -5.5124,-1.0028 -10.2578,-2.0186 -12.6801,-3.7683 -2.3098,-2.5031 -12.2647,-16.4232 -12.7559,-16.9661 l -0.8885,-0.5984 c -1.0131,-0.3191 -3.3583,-1.7519 -4.6499,-2.3652 -1.3349,-0.6334 -3.8697,-1.7816 -5.0765,-1.8547 l -0.1958,0.2948 c 0.7364,0.4325 1.8149,0.7558 2.6942,1.1243 8.918,3.7374 13.1522,15.0776 19.0009,21.3059 1.6914,1.801 8.1044,3.1714 15.932,4.6943 -0.4694,-0.6205 -0.9299,-1.2429 -1.3804,-1.8666 z"
           style="fill:#1b1918;fill-rule:evenodd"
           id="path347" />
        <path
           d="m 190.2634,476.7335 0.1762,-0.2032 c -4.2548,-18.3191 5.3032,-14.0847 7.5001,-21.1169 1.0174,-3.2576 0.1188,-0.8767 1.6182,-3.2467 0.9888,-1.5643 0.6143,-2.195 0.4583,-3.8192 -0.5685,0.7846 -0.0948,-0.2685 -0.2844,0.7203 -0.0403,0.2112 -0.0393,0.5311 -0.066,0.7928 -0.1804,1.7727 -0.8351,2.4503 -2.1741,3.7876 0.0583,0.0622 0.0642,0.1848 0.1516,0.2064 0.0747,0.0184 0.0984,0.1631 0.0963,0.1975 -0.0386,0.7601 1.032,-0.124 -0.2098,0.4833 -1.687,4.5583 -6.835,6.3883 -8.0223,8.6242 -0.9767,1.84 -1.6498,12.4093 0.7559,13.5739 z"
           style="fill:#1b1918;fill-rule:evenodd"
           id="path349" />
        <path
           d="m 186.0034,428.8963 0.2481,0.6979 c 0.1973,-0.2166 0.4912,-0.1444 0.6436,-1.491 0.0337,-0.2997 0.0359,-1.4072 0.0144,-1.767 -0.073,-1.218 -0.6836,-2.4123 -0.4696,-3.3725 0.5038,-2.2598 2.0278,-3.5429 1.3448,-6.4539 l -0.9513,-0.0565 0.0292,0.3976 c 1.3269,2.501 -2.0492,7.188 -2.2538,8.2262 -0.2965,1.503 -0.5573,0.6197 0.4363,0.9281 0.2457,-1.1802 1.0008,-1.8539 0.9497,-1.873 -0.0568,-0.0217 0.1001,-0.1229 0.154,-0.181 0.2352,2.2781 -0.1228,3.1164 -0.1454,4.9451 z"
           style="fill:#1b1918;fill-rule:evenodd"
           id="path351" />
        <path
           d="m 170.267,493.7966 -1.3314,-0.9368 c -3.5602,-0.0272 -3.4967,-4.6667 -3.4872,-7.9806 0.0139,-4.7558 -0.1602,-17.6357 -0.8666,-21.7622 -0.58,-3.3904 -1.8324,-7.078 -1.1936,-10.3393 0.6179,-3.1559 4.7003,-6.9827 7.2354,-10.294 0.8826,-1.1532 1.3565,-2.155 2.2855,-3.2708 l 8.8695,-13.6039 -0.0158,-0.5867 0.5299,-0.638 c 0.44,-1.2029 1.5414,-2.7084 1.8004,-3.6833 l -0.1499,-0.0953 c -1.1098,0.844 -5.0903,8.8537 -6.2818,10.6251 -2.3146,3.4401 -4.5824,6.8003 -6.919,10.0056 -2.2963,3.1504 -6.0186,6.6378 -7.3968,9.6348 -1.9005,4.132 0.3907,10.8008 0.8426,15.6537 -0.5194,-0.3115 -0.1335,-0.0254 -0.5871,-0.4389 l -2.0198,-2.8918 c -0.8289,-1.3445 -1.3893,-2.3992 -2.0534,-3.7794 -3.7854,-7.8689 -0.6661,-25.8814 -6.0491,-29.2146 l -0.0711,0.2601 c 0.1029,0.5215 1.3221,2.7548 1.7092,4.2027 1.3751,5.1473 1.263,10.7492 1.691,16.2112 0.5365,6.8494 3.1287,13.7412 7.4967,16.744 l 0.415,18.2639 -0.0777,1.0967 -0.627,-0.4574 c -1.5406,-0.8441 -1.7877,-3.8483 -2.4494,-5.8842 -0.5909,-1.8204 -1.6372,-3.9252 -2.4205,-5.6262 -1.7656,-3.8321 -3.5525,-7.3469 -5.1738,-11.3426 -2.3354,-5.7541 -1.8517,-8.294 -2.0907,-14.3117 -0.1758,-4.4416 -1.5193,-14.0542 -1.5204,-14.9044 -0.1025,-0.1577 -0.1235,-0.0116 -0.3684,-0.6784 -0.0371,-0.1015 -0.1305,-0.4415 -0.1587,-0.5585 -0.1473,-0.6081 -0.1591,-0.9869 -0.2146,-1.5965 l -0.2343,-1.3831 -0.144,0.92 c 6e-4,0.4169 0.0793,0.6452 0.0761,1.2187 -0.003,2.3495 0.9291,5.6641 1.2453,8.1802 1.0771,8.5709 -0.3884,15.0345 2.8399,23.4982 1.994,5.2269 7.0124,14.6095 8.0431,18.4401 0.755,2.8059 0.8393,4.3782 3.1883,5.2779 0.6629,4.6068 1.309,5.0334 4.1468,6.032 3.2832,1.1549 23.3906,12.9806 26.2252,14.7743 3.6891,2.3344 13.0401,9.0229 15.6894,9.8807 2.8178,0.9128 29.2363,5.4274 41.4218,6.8556 -0.3734,-0.2727 -0.7447,-0.5501 -1.1139,-0.832 -11.7843,-1.9296 -33.3198,-5.0659 -37.8969,-6.0426 -3.0258,-0.6461 -5.591,-2.3192 -7.5244,-3.6583 -9.8045,-6.7922 -17.3822,-11.6909 -27.916,-17.3707 -2.4752,-1.3347 -4.9153,-2.3096 -7.3978,-3.6133 z"
           style="fill:#1b1918;fill-rule:evenodd"
           id="path353" />
        <path
           d="m 182.1864,473.3898 0.0428,1.0039 0.7664,0.004 c 0.1095,-3.4485 0.8373,-8.0692 1.4951,-11.231 0.5153,-2.4753 0.8216,-2.7838 2.5677,-4.0862 0.9883,-0.7372 3.2731,-2.2166 4.0107,-3.0718 l -0.4421,-0.1648 c -2.3312,0.5233 -5.9483,3.8052 -6.5117,5.7185 l -1.7764,9.4951 c -0.785,-2.1117 -3.6016,-13.1188 -2.5045,-16.154 0.7458,-2.0654 3.7345,-4.7754 5.2387,-6.2508 3.8268,-3.7547 8.1206,-7.1936 9.2265,-12.7209 0.4666,-2.3296 2.6764,-2.3766 2.5897,-4.8293 l -0.1373,-0.6407 c -0.4302,1.2194 -0.6452,1.785 -1.4094,2.8165 -1.0026,1.3526 -1.4789,1.1498 -1.9722,2.6337 0.9328,-0.3666 0.3072,-0.2071 0.5652,0.0415 -3.2748,5.8267 -2.7052,6.0544 -8.6302,11.5312 -7.863,7.2668 -7.3559,6.6508 -4.8701,19.9476 0.461,2.4691 1.0785,3.7576 1.7511,5.957 z"
           style="fill:#1b1918;fill-rule:evenodd"
           id="path355" />
        <path
           d="m 149.8844,431.5903 c 0.5653,0.4619 -0.474,0.4311 1.0629,0.3374 0.3407,-0.0211 0.6498,-0.2633 0.9615,-0.4223 0.5996,-0.8374 0.1846,-0.5922 0.5316,-1.5351 l 0.967,0.4904 0.0719,-0.2603 -0.3612,-0.3541 c -1.3032,-0.8643 -0.4309,0.4073 -1.1226,-0.8673 -0.7388,-1.3613 -0.6946,-3.1283 -2.7157,-4.7927 l -0.6545,-0.5669 -0.9704,0.0387 c 1.4443,0.721 1.7978,1.1767 2.6463,2.9389 0.5963,1.2373 1.2305,3.087 1.5071,4.4271 z"
           style="fill:#1b1918;fill-rule:evenodd"
           id="path357" />
        <path
           d="m 149.3163,432.3749 c 0.003,-0.574 -0.0756,-0.8022 -0.0762,-1.2191 l 0.1441,-0.9196 c -0.2646,-1.991 -0.8152,-5.2338 -2.3698,-6.5963 l 0.1942,1.2032 c 1.4114,1.7214 0.9526,6.1514 2.1077,7.5318 z"
           style="fill:#1b1918;fill-rule:evenodd"
           id="path359" />
        <path
           d="m 195.071,429.5828 c 1.1887,-0.7506 0.7708,-0.7245 1.6046,-1.3156 l 0.0764,2.1951 0.1373,0.6407 c 1.0052,-1.0864 0.77,-2.4923 -0.6315,-3.4752 l -1.4036,1.5048 z"
           style="fill:#1b1918;fill-rule:evenodd"
           id="path361" />
        <path
           d="m 193.2848,436.0412 -1.0649,0.0888 -0.8818,-0.8209 c -1.397,0.1824 -0.1391,-0.1353 -0.6137,0.5703 0.6452,0.5771 1.4344,0.9797 2.5604,0.1618 z"
           style="fill:#1b1918;fill-rule:evenodd"
           id="path363" />
        <g
           id="Layer1012">
          <path
             d="m 194.7924,453.5592 c 0.8219,-1.3259 2.1351,-1.9073 3.324,-3.3634 0.6646,-0.8147 0.3346,-0.6531 1.15,-1.264 l -0.6442,-0.0349 c -0.0692,0.1597 0.0354,0.1246 -0.2285,0.4577 -0.0166,0.0207 -0.442,0.4175 -0.4485,0.4229 l -2.4924,2.0231 c -0.9445,0.8216 -2.5058,1.9163 -3.3521,2.7791 -0.0764,0.0887 -0.0791,0.2285 -0.2208,0.2742 -0.1597,0.052 -0.2024,0.1988 -0.3514,0.3056 l 0.6005,0.1063 c 1.1218,-0.6147 1.4967,-1.3583 2.6634,-1.7066 z"
             style="fill:#1b1918;fill-rule:evenodd"
             id="path365" />
          <path
             d="m 185.2685,419.2043 0.5627,-0.7794 c 0.5348,-0.9975 -0.4181,0.9418 0.2312,-0.6009 0.4957,-1.1775 -0.1066,-0.4781 0.8002,-0.9731 l -0.0292,-0.3976 c -1.2646,0.4893 -1.646,1.3758 -2.0358,2.3345 0.6078,-0.0687 0.4458,-0.2012 0.4709,0.4165 z"
             style="fill:#1b1918;fill-rule:evenodd"
             id="path367" />
          <path
             d="m 182.7446,425.949 1.2897,-0.1079 c -0.8022,-1.0189 -1.3468,-0.0753 -1.7416,-1.4568 l -0.5299,0.638 0.0158,0.5867 z"
             style="fill:#1b1918;fill-rule:evenodd"
             id="path369" />
          <path
             d="m 184.0931,420.701 c 0.4486,-0.366 0.2438,-0.069 0.7115,-0.6691 0.3461,-0.4437 0.2262,-0.3591 0.4639,-0.8276 -0.0251,-0.6177 0.1369,-0.4852 -0.4709,-0.4165 -0.5419,0.8838 -0.5935,0.6848 -0.8544,1.8179 z"
             style="fill:#1b1918;fill-rule:evenodd"
             id="path371" />
          <path
             d="m 197.5298,454.5354 c 1.2418,-0.6073 0.1712,0.2768 0.2098,-0.4833 0.002,-0.0344 -0.0216,-0.1791 -0.0963,-0.1975 -0.0874,-0.0216 -0.0933,-0.1442 -0.1516,-0.2064 -0.9566,0.6629 -0.1355,0.5816 -1.4039,0.3156 l -0.0375,0.1786 c 0.6177,0.9887 0.9267,0.403 1.4795,0.393 z"
             style="fill:#1b1918;fill-rule:evenodd"
             id="path373" />
          <path
             d="m 191.0691,456.0092 1.0599,-0.7434 -0.6005,-0.1063 c 0.149,-0.1068 0.1917,-0.2536 0.3514,-0.3056 0.1417,-0.0457 0.1444,-0.1855 0.2208,-0.2742 -0.3316,0.1853 -0.6912,0.3555 -0.9219,0.5434 -0.6926,0.5648 -0.2965,0.2952 -0.5518,0.7213 z"
             style="fill:#1b1918;fill-rule:evenodd"
             id="path375" />
          <path
             d="m 196.0503,454.1424 0.0375,-0.1786 c -0.1651,-0.1292 -0.1104,-0.614 -1.0627,-0.4242 z"
             style="fill:#1b1918;fill-rule:evenodd"
             id="path377" />
        </g>
        <g
           id="Layer1013">
          <path
             d="m 173.589,476.8561 c 0.6316,0.9852 0.7344,1.8846 0.2682,2.872 -0.2893,-0.9945 -0.5107,-1.9854 -0.2682,-2.872 z m 1.1623,7.2228 -0.2703,-1.3573 1.1852,2.0749 c -0.3869,-1.8957 -0.9404,-3.0454 -1.1535,-5.231 -0.1869,-1.9146 -0.5709,-3.6248 -0.7461,-5.5772 l -1.143,-10.0167 c -0.372,-1.4888 -0.002,-0.6266 -0.6088,-1.0868 l 1.4658,11.7698 c -0.3183,-0.2787 -0.4098,0.4532 -0.69,-1.4304 -0.4507,-3.0275 -0.437,-7.087 -1.1556,-11.2273 -0.016,-0.0937 -0.1474,-0.8171 -0.1621,-0.8639 -0.3099,-0.9752 -0.0573,-0.3855 -0.4693,-0.8188 l 3.3143,23.1436 c 0.3806,0.7945 0.2153,0.3678 0.4334,0.6211 z"
             style="fill:#1b1918;fill-rule:evenodd"
             id="path380" />
          <path
             d="m 197.3939,480.9392 0.1962,-0.2948 c -0.9578,-1.0735 -1.6949,-0.9258 -3.6775,-1.9416 -1.9148,-0.9809 -2.2161,-1.5087 -3.473,-2.1725 l -0.1762,0.2032 c 1.1184,1.4992 5.5721,3.8366 7.1305,4.2057 z"
             style="fill:#1b1918;fill-rule:evenodd"
             id="path382" />
          <path
             d="m 175.6662,484.7965 -1.1852,-2.0749 0.2703,1.3573 c 0.2062,2.3063 1.9744,4.1551 4.0776,4.3351 -0.7456,-0.9908 -1.0992,-0.9755 -1.7543,-1.6705 -0.5916,-0.6268 -0.863,-1.3018 -1.4084,-1.947 z"
             style="fill:#1b1918;fill-rule:evenodd"
             id="path384" />
          <path
             d="m 182.813,475.9868 0.1826,-1.5886 -0.7664,-0.004 -0.0428,-1.0039 c -0.5277,0.4472 -0.2098,1.5382 -0.1407,2.4218 z"
             style="fill:#1b1918;fill-rule:evenodd"
             id="path386" />
          <path
             d="m 173.8572,479.7281 c 0.4662,-0.9874 0.3634,-1.8868 -0.2682,-2.872 -0.2425,0.8866 -0.0211,1.8775 0.2682,2.872 z"
             style="fill:#1b1918;fill-rule:evenodd"
             id="path388" />
          <path
             d="m 182.8953,476.9451 -0.0823,-0.9583 -0.7673,-0.1752 0.1302,1.5343 c 0.6159,-0.3078 0.3766,-0.0468 0.7194,-0.4008 z"
             style="fill:#1b1918;fill-rule:evenodd"
             id="path390" />
          <path
             d="m 170.2673,493.7961 -0.2238,-0.816 -1.1079,-0.1203 z"
             style="fill:#1b1918;fill-rule:evenodd"
             id="path392" />
          <path
             d="m 182.8953,476.9451 c -0.3428,0.354 -0.1035,0.093 -0.7194,0.4008 l 0.3588,0.4897 z"
             style="fill:#1b1918;fill-rule:evenodd"
             id="path394" />
          <path
             d="m 164.7199,485.882 -0.1932,0.8895 -0.5118,-0.2501 0.627,0.4574 z"
             style="fill:#1b1918;fill-rule:evenodd"
             id="path396" />
          <path
             d="m 208.2047,485.4631 -0.8885,-0.5984 z"
             style="fill:#1b1918;fill-rule:evenodd"
             id="path398" />
        </g>
      </g>
    </g>
    <g
       id="Layer1014">
      <g
         id="Layer1015">
        <path
           d="m 352.1506,617.666 1.6091,-2.1005 c 0.7356,-0.9981 -0.7383,-0.4107 -1.0196,-0.3973 -5.092,2.283 -3.9237,4.2554 -0.5895,2.4978 z m 54.9892,-30.2215 c 1.053,-0.8165 0.7844,-8.2669 -0.3287,-15.8404 -1.1346,-7.3115 -0.9606,-8.9616 -1.1374,-16.0808 -0.5427,-21.8821 -9.3057,-22.1259 -15.6259,-33.185 0.3095,0.1143 0.1945,0.038 0.5826,0.3282 0.0774,0.0579 0.4332,0.3935 0.5016,0.466 3.1836,3.388 9.8191,11.4449 11.7488,15.0047 5.3258,9.8264 2.502,21.4023 4.6505,33.4126 0.7546,4.2179 1.1066,9.9878 0.7608,14.2048 -0.0882,1.071 -0.4514,1.7535 -0.824,2.6179 0.2734,0.8957 0.1279,1.1267 0.1857,1.4348 0.2973,2.2324 0.1991,4.3552 -1.5481,6.2761 l -1.4135,1.8847 c -0.4384,1.8096 -0.3586,2.1369 -1.2879,3.8139 -2.1519,3.8833 -5.7663,5.4491 -9.0044,8.2189 -1.8977,1.9864 -3.6507,6.387 -4.2577,8.4254 -0.8843,2.9693 -1.4139,5.6511 -3.5734,8.6851 -1.6006,2.249 -6.1109,6.2945 -10.2845,10.4571 -3.8188,3.8081 -7.2703,7.7656 -9.7358,9.4911 -0.5945,0.4162 -0.8367,-0.1981 -0.8447,-0.7175 -0.0214,-1.3308 0.6839,-2.757 1.4762,-3.9997 -2.2848,-3.6757 3.2406,-9.3298 8.6729,-14.3191 3.8633,-4.1526 5.788,-7.814 6.4588,-11.8741 -2.669,-0.4362 -11.8606,1.9637 -13.0567,1.3076 -1.3419,0.6929 -2.859,1.6914 -3.6382,2.8275 -1.4964,2.1465 -3.1643,3.1589 -3.6739,2.7396 -0.5214,-0.4294 -0.2206,-2.8765 0.1649,-4.7054 -1.4308,-1.5607 -7.8294,0.4438 -9.9341,-0.0477 -0.4866,0.1576 -0.6798,0.2782 -1.2239,0.3532 -3.8497,0.4547 -1.9848,-1.7527 0.3512,-3.1068 1.2161,-0.705 2.516,-1.0162 3.2587,-0.9757 0.922,-0.3676 8.6804,-3.1162 8.6621,-3.1392 0.0582,-0.8044 0.3357,-2.0496 0.5116,-2.9546 0.175,-0.9015 0.8953,-4.2809 0.8038,-5.07 -0.2216,-1.2405 -7.8151,-2.4032 -9.6439,-2.5472 -1.0437,-0.0819 -1.7686,-0.0345 -2.3741,-0.1429 -1.1901,-0.2136 -0.8056,-0.8408 -0.3068,-1.779 1.1262,-2.1175 6.9918,-2.533 9.377,-2.2908 0.9845,0.0998 2.8916,0.5078 3.5958,1.2457 -2.6982,-0.8054 -8.222,-1.7156 -9.2666,1.9369 0.4571,0.7636 7.2265,1.1081 8.7201,2.2755 1.2041,-0.5303 0.864,-5.8073 0.9397,-7.2735 0.1327,-2.5694 0.0339,-4.8563 0.0547,-7.4032 0.1208,-14.8069 8.6038,-19.279 10.6845,-27.4375 0.1618,-0.6348 0.2815,-1.2352 0.3648,-1.8052 0.2973,-0.5155 0.6052,-1.0629 0.8814,-1.5899 -0.0196,1.6412 -0.4029,3.3971 -1.1244,5.4341 -1.8149,5.1247 -6.7374,10.306 -8.5696,15.6391 -1.9492,5.674 -1.4258,10.5018 -1.6031,17.0991 -0.1501,5.5994 -1.149,12.4086 -2.4338,16.6927 l 0.008,0.0298 c 1.425,0.0979 3.3419,0.1462 4.4776,1.0222 -0.1444,0.5471 -0.2388,0.6979 -0.4315,1.2486 -0.4139,1.1823 -0.5527,3.1932 -1.4608,4.5239 0.3625,0.004 0.1771,0.1653 0.5941,-0.1679 1.6322,-1.2565 4.184,-3.9156 5.1315,-5.4825 3.4563,-5.7172 0.9485,-18.6559 6.3977,-20.8652 3.2452,4.4977 2.7154,8.5353 4.1062,13.5683 0.8657,2.992 0.9555,8.6802 0.3123,11.6016 -0.5175,2.351 -1.6862,5.1975 -3.5873,7.861 -2.6209,3.6725 -13.9142,12.4324 -11.8673,16.9936 0.801,-0.9663 1.585,-1.9382 2.5811,-2.7526 0.6323,-0.5172 0.5257,-0.5972 1.1185,-0.1872 0.8221,0.5686 1.6103,1.0419 1.3335,1.7335 l -1.8798,-1.0571 c -2.1553,1.5752 -4.0313,4.2538 -4.254,6.2992 -0.039,0.356 0.1149,0.7238 0.4443,0.4416 1.51,-1.2943 2.7656,-2.6915 3.9392,-3.6695 l 2.1735,-2.3547 c 2.333,-2.4127 4.6694,-4.9 7.1439,-7.2897 2.649,-2.5583 5.1453,-4.6704 6.8383,-7.5554 2.3904,-4.0729 2.8738,-11.678 7.4886,-16.4098 0.1326,-0.8058 1.8661,-6.093 1.9575,-6.1678 0.0501,1.2318 -0.043,2.0861 -0.8427,4.7585 -0.1767,0.5906 -0.1758,0.7617 -0.4851,1.0575 l 1.2509,-0.9784 c 10.5776,-6.2338 6.8927,-12.2756 7.6017,-13.1172 0.557,0.6749 0.648,3.2782 1.3095,1.9755 0.5423,-1.0676 1.159,-1.3367 1.6928,-3.0094 1.0293,-3.2223 -1.0949,-6.1741 -0.7674,-8.0478 0.596,1.1329 0.7676,1.4256 0.9823,2.0103 z m -32.7075,22.6578 5.508,-2.0266 c 1.0283,-0.4794 2.5375,-0.5632 1.654,-2.3729 -0.4497,0.2547 -4.9011,-0.2403 -6.4868,-0.0549 -0.0112,1.698 -0.5185,2.9707 -0.6752,4.4544 z m 5.808,-1.5109 c -1.4359,0.9307 -5.5558,1.6682 -6.1862,2.2911 -0.1205,0.1186 -1.2935,2.1336 -1.608,2.614 -0.8985,1.3721 -1.6647,1.9609 -2.6947,3.0938 l 0.6247,0.1372 c 1.5137,-0.5479 4.2097,-0.6178 5.9804,-0.8319 1.6877,-0.2037 4.7715,-0.3021 6.0607,-0.6077 0.6621,-2.2616 0.1128,-4.6418 -0.0287,-7.0304 -0.4771,-0.6332 0.1059,-0.3463 -0.5109,-0.4033 -0.8555,0.6379 -0.8168,0.6925 -1.6373,0.7372 z m 0.2345,-9.2288 c -0.5658,-0.7033 0.2061,-0.5843 -1.049,-0.061 -0.9194,0.3833 -2.8387,0.7707 -3.7693,0.547 -0.3795,0.8625 -0.4309,3.9461 -0.197,4.9935 1.5341,-0.391 5.9581,0.5438 6.0791,0.0184 0.1719,-0.7441 -0.329,-3.3287 -1.0638,-5.4979 z m -2.2901,-6.0751 c -1.4993,1.5594 -2.4082,4.02 -2.3997,5.7704 1.7824,-0.1591 2.1576,0.0571 4.4948,-1.2078 -0.4822,-1.2301 -0.7356,-3.9921 -2.0951,-4.5626 z m -24.8714,6.8864 c 0.7604,0.1308 1.0948,0.0837 1.6238,0.0225 0.203,-1.2183 0.9644,-2.0668 1.3023,-2.7471 -1.5778,0.3014 -2.9778,0.3006 -3.5952,1.7265 -0.3548,0.8176 -0.1975,0.8488 0.6691,0.9981 z m 10.6881,12.2256 c 0.2436,0.0247 0.725,0.0246 1.0973,-0.0352 0.6575,0.1979 1.4188,0.0596 2.2647,0.7419 -1.3916,4.3274 -1.1991,6.7116 -4.136,8.6391 -0.7156,0.4696 -0.865,0.6135 -0.9818,-0.1569 -0.3824,-2.5176 2.0309,-5.9413 1.7558,-9.1889 z m -10.9522,5.2361 c 1.9009,-0.2159 6.6868,-0.7581 8.4197,-0.3556 1.1814,0.2741 0.2347,0.3547 1.0489,0.0681 0.6555,-1.5437 0.4287,-2.5824 0.4689,-4.0634 0.0161,-0.6001 0.0647,-0.5307 -0.009,-1.0541 -2.5111,0.1867 -9.5503,2.873 -9.9287,5.405 z"
           style="fill:#1b1918;fill-rule:evenodd"
           id="path403" />
        <path
           d="m 363.8366,611.6587 c 1.1463,0.8256 2.284,0.4451 3.5268,1.4475 -0.0117,0.0368 -0.5849,6.1668 -3.274,8.1317 -1.2983,0.9487 -2.3184,2.1048 -2.1134,-0.2066 0.1171,-1.3248 0.6868,-3.1534 1.0462,-4.9753 0.4302,-2.1828 0.66,-4.2765 0.8144,-4.3973 z"
           style="fill:#e30016;fill-rule:evenodd"
           id="path405" />
        <path
           d="m 370.796,642.5729 c -1.1741,0.9787 -2.4334,2.3618 -3.904,3.6363 -0.369,0.3194 -0.5237,0.0368 -0.4841,-0.365 0.2003,-2.0507 2.0881,-4.7562 4.2586,-6.3426 l 1.5771,0.8686 c 0.8137,0.2349 0.227,0.3881 -1.4476,2.2027 z"
           style="fill:#e30016;fill-rule:evenodd"
           id="path407" />
        <path
           d="m 352.4249,599.8995 c 0.4306,-2.1563 2.0051,-2.1047 3.8145,-2.4502 -0.3932,1.5197 -1.2072,1.1172 -0.8352,2.7239 -0.7452,0.0861 -2.0285,0.1906 -2.9793,-0.2737 z"
           style="fill:#e30016;fill-rule:evenodd"
           id="path409" />
        <path
           d="m 349.0731,618.0335 c -0.0314,-1.2173 4.298,-3.4925 4.6436,-3.0922 l 0.3568,0.0559 0.0493,0.356 -1.9722,2.3128 c -0.772,0.4075 -2.0325,1.2381 -3.0775,0.3675 z"
           style="fill:#e30016;fill-rule:evenodd"
           id="path411" />
      </g>
      <path
         d="m 377.4301,559.7721 c 2.1142,-6.4492 1.9318,-16.7209 -1.9141,-28.4636 -3.4731,-10.6049 -10.0706,-22.4612 -18.2375,-33.2577 l -0.6625,0.5013 c 8.1104,10.7212 13.9284,22.3272 17.3748,32.8502 5.1752,15.8025 3.7579,13.8961 3.4393,28.3698 z"
         style="fill:#1b1918;fill-rule:evenodd"
         id="path414" />
      <path
         d="m 399.7263,532.8143 c -2.7708,-4.5644 -7.9695,-15.0705 -11.2248,-22.4111 -3.1487,-7.1003 -5.9699,-13.4617 -7.4457,-15.2336 l -0.6365,0.5323 c 1.3939,1.6732 4.1949,7.9893 7.321,15.0389 3.2615,7.3548 6.1342,13.9953 8.944,18.6238 z"
         style="fill:#1b1918;fill-rule:evenodd"
         id="path416" />
    </g>
    <g
       id="Layer1016">
      <path
         d="m 302.602,715.8087 c 40.8513,0 73.9678,4.9614 73.9678,11.0819 0,6.1204 -33.1165,11.0818 -73.9678,11.0818 -40.8513,0 -73.9678,-4.9614 -73.9678,-11.0818 0,-6.1205 33.1165,-11.0819 73.9678,-11.0819 z"
         style="fill:#1b1918;fill-rule:evenodd"
         id="path419" />
      <path
         d="m 303.031,713.3321 c 40.3478,0 73.0573,4.0384 73.0573,9.0204 0,4.9821 -32.7095,9.0204 -73.0573,9.0204 -40.3499,0 -73.058,-4.0383 -73.058,-9.0204 0,-4.982 32.7081,-9.0204 73.058,-9.0204 z"
         style="fill:#ffffff;fill-rule:evenodd;stroke:#1b1918;stroke-width:0.5669;stroke-linecap:butt;stroke-linejoin:miter;stroke-dasharray:none"
         id="path421" />
      <path
         d="m 297.0329,702.6319 h 12.3145 v 17.484 h -12.3145 z"
         style="fill:#ffffff;fill-rule:evenodd"
         id="path423" />
    </g>
    <path
       d="m 198.3558,302.3368 c -4.9191,8.5783 -0.3844,37.3766 -4.2291,60.112 -3.0526,18.0534 7.2554,59.3472 11.7513,57.46 20.1112,-8.4422 37.4372,-18.2888 72.2763,-19.1495 27.1474,-0.6701 61.9671,13.7309 81.0838,-5.6034 24.9321,-25.2166 9.178,-16.605 1.9921,-45.2432 -6.4492,-25.7025 19.2371,-61.8128 -58.6172,-57.9482 -26.1674,1.2988 -76.0686,4.5101 -101.3423,10.5205 z"
       style="fill:#ffffff;fill-rule:evenodd"
       id="path426" />
    <path
       d="m 291.0302,402.2881 c -4.9701,-21.256 14.5902,-50.6164 41.6745,-35.9714 7.8805,4.2602 6.8164,7.9141 13.6385,-3.0273 -1.5891,33.3788 -40.5307,37.6649 -55.313,38.9987 z m 0.0635,0.4283 c -2.1858,-30.7196 34.8929,-42.3342 47.0697,-27.217 -2.8105,16.7407 -33.7664,26.0173 -47.0697,27.217 z"
       style="fill:#1b1918;fill-rule:evenodd"
       id="path428" />
    <g
       id="Layer1017">
      <path
         d="m 318.912,372.7781 c 5.6126,-2.618 11.9335,-0.2709 14.1147,5.2415 2.1813,5.5131 -0.6031,12.1063 -6.2157,14.7236 -5.6126,2.6179 -11.9335,0.2709 -14.1148,-5.2416 -2.1813,-5.5131 0.6032,-12.1063 6.2158,-14.7235 z"
         style="fill:#1b1918;fill-rule:evenodd"
         id="path430" />
      <path
         d="m 318.4428,377.3078 c 1.5549,-0.9079 3.5196,-0.4381 4.3887,1.0497 0.8684,1.4878 0.3125,3.43 -1.2423,4.3379 -1.5548,0.9079 -3.5195,0.4381 -4.3887,-1.0497 -0.8684,-1.4871 -0.3125,-3.43 1.2423,-4.3379 z"
         style="fill:#ffffff;fill-rule:evenodd"
         id="path432" />
      <path
         d="m 318.9338,386.1048 c 0.7182,-0.419 1.6247,-0.2017 2.0261,0.4847 0.4007,0.6864 0.1439,1.583 -0.5735,2.0021 -0.7175,0.419 -1.6247,0.2024 -2.0254,-0.4847 -0.4014,-0.6864 -0.1446,-1.583 0.5728,-2.0021 z"
         style="fill:#ffffff;fill-rule:evenodd"
         id="path434" />
    </g>
    <path
       d="m 255.8515,406.0127 c 0.6873,-17.3824 -28.9171,-45.2178 -42.8305,-25.9258 -2.461,3.4128 -1.7504,5.1614 -8.566,-3.8755 9.3916,36.5707 37.4366,32.7913 51.3965,29.8013 z m -0.0221,0.3794 c -5.339,-22.8776 -40.8533,-34.3512 -43.273,-20.1401 3.7586,14.4196 20.5859,21.5466 43.273,20.1401 z"
       style="fill:#1b1918;fill-rule:evenodd"
       id="path437" />
    <g
       id="Layer1018">
      <path
         d="m 236.1393,391.7231 c 3.2811,-4.335 9.1491,-5.1096 13.1046,-1.727 3.9555,3.382 4.5015,9.6408 1.2211,13.9765 -3.2803,4.3351 -9.149,5.109 -13.1045,1.727 -3.9555,-3.3827 -4.5015,-9.6415 -1.2212,-13.9765 z"
         style="fill:#1b1918;fill-rule:evenodd"
         id="path439" />
      <path
         d="m 237.6349,395.431 c 0.8339,-1.3432 2.5516,-1.7848 3.8363,-0.9877 1.2853,0.7979 1.6508,2.5333 0.8176,3.8758 -0.8338,1.3432 -2.5516,1.7848 -3.8363,0.9877 -1.2846,-0.7979 -1.6507,-2.5333 -0.8176,-3.8758 z"
         style="fill:#ffffff;fill-rule:evenodd"
         id="path441" />
      <path
         d="m 241.6278,402.0552 c 0.3845,-0.6201 1.1774,-0.824 1.7707,-0.4557 0.5933,0.3682 0.7619,1.1689 0.3774,1.789 -0.3852,0.6201 -1.1781,0.824 -1.7707,0.4558 -0.5933,-0.3683 -0.7626,-1.169 -0.3774,-1.7891 z"
         style="fill:#ffffff;fill-rule:evenodd"
         id="path443" />
    </g>
    <path
       d="m 255.7764,405.8393 c -23.8197,-12.3723 -40.4431,-15.0573 -42.0988,-15.9935 -5.7932,-3.2761 -2.5947,-8.1698 5.9294,-12.6297 9.9822,-5.2232 32.4502,7.8144 36.1694,28.6232 z"
       style="fill:#1b1918;fill-rule:evenodd"
       id="path446" />
    <path
       d="m 291.0993,402.8496 c 13.3762,-14.4232 37.9902,-27.5544 48.7873,-27.4247 6.6637,0.0804 3.6951,-2.4466 -6.0626,-7.2444 -26.569,-13.0642 -44.7211,8.5608 -42.7247,34.6691 z"
       style="fill:#1b1918;fill-rule:evenodd"
       id="path448" />
    <path
       d="m 253.4962,372.0911 c -3.1852,-8.2354 3.5934,3.4268 4.244,4.9863 6.9812,16.7333 13.0789,31.3578 -1.5572,45.932 1.7266,5.2668 11.2661,7.0311 14.6216,7.6514 2.7826,0.5142 4.9434,2.9058 4.8961,5.8405 -2.5582,-4.6723 -5.1096,-4.0443 -5.2239,-4.0654 -3.7516,-0.6935 -14.619,-2.7027 -16.1836,-9.4886 l 0.002,-6e-4 c -0.0677,-0.2959 0.016,-0.6192 0.2495,-0.8465 14.2486,-13.8449 8.3204,-28.0542 1.529,-44.3323 -1.0228,-2.4515 -1.5445,-3.0303 -2.5779,-5.6768 z"
       style="fill:#1b1918;fill-rule:evenodd"
       id="path450" />
    <path
       d="m 276.3327,428.1416 c 1.9729,0.6484 8.7455,7.2024 6.8751,0.6881 -0.3861,-1.3447 -6.3325,-0.5097 -6.8751,-0.6881 z"
       style="fill:#1b1918;fill-rule:evenodd"
       id="path452" />
    <path
       d="m 201.4154,266.6344 c -5.2155,44.4755 -14.3504,83.8012 -1.6395,151.8079 8.9148,28.0193 20.9168,56.967 63.0332,88.2095 h 75.7308 c 41.0576,-38.0008 53.3861,-79.974 50.7943,-124.0122 -4.4373,-43.5675 -21.3866,-91.0405 -43.4237,-140.1036 17.525,47.8405 33.5071,95.0327 36.6294,136.824 -0.3118,32.5406 1.7587,64.3743 -48.8289,111.8819 -15.4438,11.5836 -32.4199,13.7232 -51.0348,5.7854 -45.4526,-20.667 -69.7337,-48.4966 -77.196,-82.0171 -10.6355,-52.9311 -6.3463,-100.2771 -4.0648,-148.3758 z"
       style="fill:#1b1918;fill-rule:evenodd"
       id="path454" />
    <path
       d="m 215.9053,344.2997 c 10.1381,1.1945 31.6189,20.4671 27.4981,14.0526 -1.6518,-2.5713 -0.8599,-7.0557 -2.9118,-8.9239 -23.9217,-21.7817 -47.0427,-14.4679 -49.4155,19.6427 -0.007,0.1054 7.132,-26.8564 24.8292,-24.7714 z"
       style="fill:#1b1918;fill-rule:evenodd"
       id="path456" />
    <path
       d="m 303.7903,333.7043 c -12.382,4.558 -27.864,33.2472 -26.6393,24.6546 0.4907,-3.4443 -3.4167,-8.2921 -1.9553,-11.0636 17.0362,-32.3119 51.7223,-31.2961 76.7097,6.7311 0.0769,0.1177 -26.5006,-28.2784 -48.1151,-20.3221 z"
       style="fill:#1b1918;fill-rule:evenodd"
       id="path458" />
    <path
       d="m 256.1539,501.7376 c 5.6627,4.1827 11.846,8.4302 18.6106,12.766 9.6803,7.2471 18.4315,16.5479 25.1813,27.2821 6.6341,10.5494 10.9875,22.5527 13.1659,34.815 2.1171,19.9249 3.2529,39.9211 1.1612,59.7761 -2.11,20.0294 -7.4898,39.8506 -13.6252,59.7762 -3.025,9.9406 -7.7078,17.2103 -20.5711,22.1147 3.5696,1.1386 8.797,2.0366 14.6657,2.3646 12.7667,-32.4058 23.5912,-64.6021 25.424,-97.2182 1.8179,-32.3579 -5.2402,-64.8675 -15.1137,-97.2402 -0.7401,-2.4267 0.3753,-4.2912 2.8557,-4.2912 0,0 0,0 0,0 2.4923,0 5.5068,1.8553 6.2919,4.2912 10.4344,32.3643 17.9539,64.9296 16.0576,97.2839 -1.9132,32.6401 -13.3712,64.8343 -26.9597,97.2401 5.796,-0.2186 11.846,-1.0722 17.3641,-2.7802 -7.9985,-0.898 -7.9166,-10.9197 -3.5696,-22.2247 7.3346,-19.0748 15.1744,-46.4225 17.0981,-70.3961 1.9062,-23.7513 -1.0045,-44.1418 -1.5364,-49.3749 -1.0893,-12.0865 -2.7541,-24.3213 -3.4123,-35.2968 -0.6603,-11.0185 -0.424,-20.8011 4.8881,-28.0708 3.3763,-3.5033 6.2807,-7.1159 8.6764,-10.8168 -5.2761,0 -10.5395,0 -15.8156,0 -5.2635,0 -10.5276,0 -15.8037,0 -4.9974,1.0512 -10.5275,1.0512 -16.5295,0 -6.4253,0 -12.8506,0 -19.2639,0 -6.4133,0 -12.8393,0 -19.2399,0 z"
       style="fill:#1b1918;fill-rule:evenodd"
       id="path460" />
    <path
       d="m 291.6447,458.1412 c 0.7851,0.3908 7.0066,-1.0118 7.7035,-1.116 3.1112,-0.465 7.8476,-1.763 9.9506,-3.2205 -5.3657,-1.1604 -15.9032,-9.2358 -20.945,-10.1374 -1.2488,-0.1962 -1.7596,0.0953 -2.9008,0.491 -2.441,1.0426 -3.2911,3.1711 -5.1696,2.4578 -0.6668,-0.247 -2.254,-1.0208 -2.9079,-1.3461 -3.6692,-1.3714 -4.8007,0.1891 -7.8272,2.8318 -0.2539,0.3189 -9.9271,12.2094 -10.0343,12.2226 2.6997,1.7504 10.8492,0.7487 11.841,0.2096 l 1.9161,-0.1883 c -3.0264,1.1343 -8.9396,2.3597 -12.294,2.4536 7.7268,12.0541 22.9577,14.2467 35.2298,7.7763 9.4672,-5.0427 11.1201,-11.1371 12.8202,-15.6401 -7.8121,1.9429 -10.0626,3.0978 -17.6612,3.4653 z m -17.4587,1.9921 c 2.1679,-1.3812 5.2867,-2.469 7.5908,-2.7173 1.8695,-0.2011 6.8195,0.4628 8.6629,0.9247 -2.9686,0.3394 -5.4799,1.7517 -8.0859,2.2554 -0.951,0.1834 -6.6172,-0.3902 -8.1678,-0.4628 z"
       style="fill:#e30016;fill-rule:evenodd"
       id="path462" />
    <path
       d="m 274.1859,460.1336 c 1.5509,0.0723 7.2172,0.6457 8.1678,0.4622 2.6064,-0.5031 5.1175,-1.9157 8.0863,-2.2548 -1.8437,-0.4625 -6.794,-1.1259 -8.6637,-0.9248 -2.3032,0.2479 -5.4226,1.3357 -7.5904,2.7174 z"
       style="fill:#1b1918;fill-rule:evenodd"
       id="path464" />
    <path
       d="m 254.4081,462.1387 c 5.8008,1.5326 14.4876,0.4081 21.0123,-2.4113 -9.7802,2.2289 -17.2089,0.4319 -21.0643,-0.5031 -4.8906,-1.1856 -4.1687,2.3527 0.052,2.9144 z"
       style="fill:#1b1918;fill-rule:evenodd"
       id="path466" />
    <path
       d="m 288.5809,458.0953 c -1.0766,1.0024 23.6829,0.5347 29.6425,-8.0874 0.0275,-3.4285 -6.9466,2.4522 -9.9709,3.8673 -4.0697,1.9041 -14.6403,4.5213 -19.6716,4.2201 z"
       style="fill:#1b1918;fill-rule:evenodd"
       id="path468" />
    <path
       d="m 276.85,477.6164 c -3.4849,-1.071 10.013,8.2105 22.4128,-2.9176 -4.7054,2.9213 -17.6218,5.5594 -22.4128,2.9176 z"
       style="fill:#1b1918;fill-rule:evenodd"
       id="path470" />
    <path
       d="m 308.5327,444.6772 c -0.3366,0.9589 0.0244,1.98 1.1011,1.9039 1.6749,-0.1184 1.4077,-3.5441 -1.1011,-1.9039 z"
       style="fill:#1b1918;fill-rule:evenodd"
       id="path472" />
    <path
       d="m 272.4759,242.8417 c 41.5019,-6.1809 75.8762,-6.2841 76.7778,-0.2304 0.9015,6.0537 -32.0111,15.9714 -73.513,22.1523 -41.5019,6.1808 -75.8762,6.2841 -76.7778,0.2304 -0.9015,-6.0537 32.0111,-15.9715 73.513,-22.1523 z m 4.2318,1.4539 c 35.9501,-5.354 65.6889,-5.7001 66.4228,-0.7724 0.7338,4.9277 -27.8152,13.2624 -63.7653,18.6164 -35.9514,5.3542 -65.6895,5.7002 -66.4234,0.7725 -0.7338,-4.9277 27.8145,-13.2623 63.7659,-18.6165 z"
       style="fill:#1b1918;fill-rule:evenodd"
       id="path474" />
  </g>
  <path
     d="m 1.6018,-185.51337 c 0,3.1414 0.6378,5.4644 1.9055,6.9679 1.2756,1.5043 2.8187,2.2598 4.6301,2.2598 1.8422,0 3.4169,-0.7796 4.7236,-2.3383 1.315,-1.5591 1.9684,-3.9683 1.9684,-7.2357 0,-3.1179 -0.6378,-5.4485 -1.921,-6.9996 -1.2833,-1.5514 -2.8109,-2.3225 -4.5905,-2.3225 -1.7637,0 -3.3224,0.8263 -4.6768,2.4718 -1.3618,1.6538 -2.0393,4.0476 -2.0393,7.1966 z m -3.7791,21.5108 v -33.9194 h 3.7791 v 3.2201 c 0.8901,-1.2438 1.8975,-2.1804 3.0237,-2.8026 1.118,-0.6222 2.4801,-0.9374 4.0785,-0.9374 2.0943,0 3.9365,0.5358 5.5352,1.6141 1.5979,1.0709 2.8027,2.5908 3.6219,4.543 0.8107,1.9608 1.22,4.1023 1.22,6.4406 0,2.4965 -0.4484,4.7478 -1.3462,6.7559 -0.8977,1.9998 -2.2045,3.5353 -3.9209,4.606 -1.7084,1.063 -3.5118,1.5981 -5.4011,1.5981 -1.3859,0 -2.6303,-0.2914 -3.7244,-0.8739 -1.1024,-0.5825 -1.9999,-1.315 -2.7083,-2.2045 v 11.96 z m -23.156,-23.9987 h 13.6528 c -0.1814,-2.0628 -0.7086,-3.606 -1.5667,-4.6378 -1.3153,-1.5979 -3.0316,-2.4009 -5.1338,-2.4009 -1.9055,0 -3.5036,0.6378 -4.803,1.9134 -1.2912,1.2753 -2.0075,2.984 -2.1493,5.1253 z m 13.6055,6.6611 4.299,0.5669 c -0.6695,2.4957 -1.921,4.4408 -3.748,5.8184 -1.8266,1.3782 -4.1573,2.0707 -6.9996,2.0707 -3.5742,0 -6.4088,-1.1021 -8.5033,-3.3066 -2.0945,-2.1968 -3.1414,-5.2911 -3.1414,-9.2673 0,-4.1099 1.0551,-7.3066 3.1726,-9.574 2.118,-2.2759 4.8659,-3.4098 8.244,-3.4098 3.2675,0 5.9366,1.1103 8.0073,3.3389 2.0707,2.2278 3.1101,5.3615 3.1101,9.4006 0,0.2443 -0.008,0.6142 -0.0235,1.1024 h -18.2588 c 0.1573,2.6849 0.9133,4.7477 2.2833,6.173 1.3618,1.425 3.0705,2.1413 5.1097,2.1413 1.52,0 2.8188,-0.4011 3.8897,-1.2045 1.0783,-0.803 1.9287,-2.0863 2.5589,-3.85 z m -33.4942,-16.5818 v 10.582 c 1.3385,0 2.2836,-0.2517 2.8267,-0.7478 0.5434,-0.5037 1.3229,-1.9763 2.3307,-4.4331 0.945,-2.3306 1.8031,-3.8109 2.575,-4.4563 0.7554,-0.6299 1.9522,-0.9448 3.5977,-0.9448 h 1.5199 v 3.4248 l -1.1262,-0.0232 c -1.1103,0 -1.811,0.1649 -2.118,0.4881 -0.3223,0.3387 -0.8184,1.3464 -1.4803,3.0231 -0.6137,1.6064 -1.1806,2.7088 -1.7005,3.3305 -0.5196,0.6142 -1.3385,1.1732 -2.4406,1.6849 1.7949,0.4804 3.543,2.1415 5.2515,4.9924 l 4.5586,7.5977 h -4.5663 l -4.4408,-7.5901 c -0.9056,-1.5432 -1.7007,-2.5509 -2.3697,-3.0314 -0.6775,-0.4804 -1.4803,-0.7163 -2.4177,-0.7163 v 11.3378 h -4.2517 v -11.3378 c -0.9212,0 -1.7164,0.2359 -2.3853,0.7084 -0.6775,0.4728 -1.4647,1.4882 -2.3624,3.0472 l -4.4799,7.5822 h -4.5663 l 4.5428,-7.5977 c 1.724,-2.8509 3.4877,-4.512 5.2829,-4.9924 -1.2282,-0.5667 -2.0942,-1.1889 -2.5824,-1.8579 -0.496,-0.6689 -1.2279,-2.2677 -2.2121,-4.795 -0.3388,-0.8504 -0.701,-1.37 -1.0871,-1.5591 -0.4011,-0.1964 -0.9921,-0.2914 -1.7793,-0.2914 -0.197,0 -0.6061,0.008 -1.2203,0.0241 v -3.4489 h 0.5748 c 1.6062,0 2.7324,0.0944 3.3857,0.2914 0.6534,0.1891 1.2359,0.5981 1.7558,1.2203 0.5117,0.6222 1.1807,1.9131 1.9999,3.8894 0.9997,2.4171 1.7713,3.8818 2.3071,4.4014 0.5352,0.5198 1.4797,0.7795 2.8261,0.7795 v -10.582 z m -39.1708,33.9429 -0.472,-3.8421 c 0.9133,0.2438 1.7005,0.3699 2.3774,0.3699 0.9289,0 1.6693,-0.1573 2.2207,-0.4649 0.5584,-0.3069 1.0156,-0.7398 1.3697,-1.2911 0.2602,-0.4173 0.6854,-1.4485 1.2679,-3.1023 0.0785,-0.2282 0.1967,-0.5669 0.3699,-1.0156 l -9.3064,-24.5968 h 4.4402 l 5.1182,14.1568 c 0.669,1.7872 1.2595,3.6771 1.7873,5.661 0.4805,-1.8663 1.0474,-3.7085 1.7084,-5.5193 l 5.2282,-14.2985 h 4.1491 l -9.2667,24.9434 c -1.0004,2.685 -1.7799,4.5273 -2.3383,5.5429 -0.7407,1.3621 -1.5908,2.3624 -2.5433,3.0002 -0.9609,0.6378 -2.1024,0.9524 -3.4253,0.9524 -0.8031,0 -1.7008,-0.1652 -2.685,-0.496 z m -22.9748,-35.36 c -2.7871,0.1262 -5.0389,0.9445 -6.7632,2.4724 -1.7246,1.527 -2.5906,3.653 -2.5906,6.3853 0,2.7006 0.8504,4.8187 2.5512,6.3618 1.7005,1.5429 3.9682,2.3698 6.8026,2.4959 z m 4.2043,-0.0476 v 17.8104 c 2.8897,-0.1417 5.1574,-0.9842 6.8188,-2.5277 1.6611,-1.5431 2.4879,-3.6691 2.4879,-6.3774 0,-2.6614 -0.8112,-4.7633 -2.4409,-6.3223 -1.6299,-1.5512 -3.9132,-2.4092 -6.8658,-2.583 z m -4.2043,-3.8265 v -4.299 h 4.2043 v 4.299 c 4.307,0.2282 7.7083,1.5279 10.1962,3.8974 2.4962,2.3703 3.7401,5.307 3.7401,8.8189 0,3.4404 -1.2048,6.3612 -3.6219,8.7706 -2.4171,2.4015 -5.8495,3.7321 -10.3144,3.9765 v 4.3461 h -4.2043 v -4.3461 c -3.9994,-0.1579 -7.3299,-1.3782 -9.9916,-3.6692 -2.6614,-2.283 -3.9915,-5.3147 -3.9915,-9.0779 0,-3.7721 1.3301,-6.795 3.9839,-9.0627 2.6529,-2.2674 5.9836,-3.4798 9.9992,-3.6536 z"
     style="fill:#1b1918;fill-rule:evenodd"
     id="path477" />
</svg>
