<?xml version="1.0" encoding="UTF-8" standalone="no"?>
<svg version="1.1" width="346.38519" height="542.30988" id="svg517" viewBox="0 0 346.38519 542.30988"
    xmlns="http://www.w3.org/2000/svg">
  <defs
     id="defs521" />
  <path
     d="m -5.3181838,-97.254559 c 0,0.1741 -0.009,0.322 -0.0269,0.4422 -0.0179,0.125 -0.0448,0.224 -0.0851,0.2991 -0.0399,0.0811 -0.0847,0.1389 -0.1341,0.1791 -0.0538,0.04 -0.1207,0.0579 -0.1967,0.0579 h -3.5257 v 10.1571 c 0,0.0711 -0.0173,0.1289 -0.053,0.1788 -0.036,0.0443 -0.0899,0.089 -0.1701,0.125 -0.0802,0.0312 -0.1879,0.0582 -0.3311,0.076 -0.138,0.0173 -0.3169002,0.0264 -0.5360002,0.0264 -0.214,0 -0.3884,-0.009 -0.5273,-0.0264 -0.1428,-0.0178 -0.2548,-0.0448 -0.335,-0.076 -0.0848,-0.036 -0.1429,-0.0807 -0.1741,-0.125 -0.0311,-0.0499 -0.0448,-0.1077 -0.0448,-0.1788 v -10.1571 h -3.5257 c -0.0669,0 -0.1292,-0.0179 -0.1874,-0.0579 -0.0578,-0.0402 -0.1029,-0.098 -0.1386,-0.1791 -0.0312,-0.0751 -0.0623,-0.178 -0.085,-0.3033 -0.0221,-0.125 -0.0312,-0.277 -0.0312,-0.4519 0,-0.1559 0.009,-0.2942 0.0312,-0.4149 0.0227,-0.1253 0.0538,-0.2282 0.0938,-0.3082 0.0403,-0.085 0.0851,-0.1431 0.1389,-0.1831 0.0491,-0.0408 0.1114,-0.0587 0.1783,-0.0587 h 9.2228002 c 0.0669,0 0.1298,0.0179 0.188,0.0587 0.0581,0.04 0.1029,0.0981 0.138,0.1831 0.0317,0.08 0.0629,0.1871 0.085,0.3121 0.0227,0.1259 0.0318,0.2682 0.0318,0.4249 z m -11.0951002,9.3209 c 0,0.1471 -0.005,0.2772 -0.0139,0.3841 -0.009,0.112 -0.0221,0.2013 -0.0442,0.2772 -0.0227,0.076 -0.049,0.1389 -0.0808,0.1968 -0.0309,0.0581 -0.0981,0.1431 -0.21,0.2503 -0.1069,0.1116 -0.2948,0.2457 -0.5539,0.411 -0.2634,0.161 -0.5585,0.3081 -0.8844,0.4331 -0.3311,0.1298 -0.684,0.2327 -1.0681,0.309 -0.3841,0.0799 -0.7821,0.1202 -1.1934,0.1202 -0.849,0 -1.5993,-0.1383 -2.2516,-0.4201 -0.6571,-0.2772 -1.207,-0.6834 -1.6444,-1.2195 -0.4427,-0.5363 -0.7778,-1.1979 -1.0099,-1.9752 -0.2322,-0.7823 -0.349,-1.6803 -0.349,-2.7036 0,-1.1571 0.1432,-2.1535 0.4249,-2.9895 0.286,-0.8311 0.6744,-1.5145 1.1662,-2.0463 0.4961,-0.5315 1.0772,-0.9247 1.7425,-1.1843 0.6701,-0.2543 1.3943,-0.3841 2.1716,-0.3841 0.3759,0 0.7378,0.036 1.0902,0.1072 0.3577,0.0668 0.6797,0.161 0.9791,0.2726 0.2948,0.1163 0.5629,0.2461 0.7908,0.398 0.2322,0.1471 0.4023,0.2773 0.5046,0.3793 0.1077,0.108 0.1789,0.1922 0.2188,0.2503 0.036,0.0629 0.072,0.1346 0.099,0.2188 0.0221,0.0811 0.0399,0.1749 0.049,0.2821 0.009,0.1029 0.013,0.237 0.013,0.3931 0,0.3399 -0.0399,0.576 -0.1159,0.7149 -0.0802,0.1341 -0.1743,0.2013 -0.2903,0.2013 -0.1298,0 -0.282,-0.072 -0.4518,-0.2191 -0.1692,-0.1432 -0.3841,-0.3042 -0.6474,-0.4782 -0.2639,-0.1741 -0.5811,-0.3351 -0.9519,-0.4779 -0.3711,-0.148 -0.8093,-0.2192 -1.3136,-0.2192 -1.0412,0 -1.8411,0.398 -2.3953,1.1974 -0.5541,0.7951 -0.8311,1.9531 -0.8311,3.4676 0,0.7552 0.0717,1.421 0.214,1.9931 0.148,0.5675 0.3581,1.0454 0.6392,1.4295 0.277,0.3801 0.6211,0.6661 1.0282,0.8532 0.4062,0.1879 0.8711,0.282 1.3941,0.282 0.5003,0 0.9382,-0.0807 1.3135,-0.2369 0.3751,-0.1562 0.6971,-0.3303 0.974,-0.523 0.2772,-0.1874 0.5091,-0.3572 0.6971,-0.5094 0.1879,-0.1559 0.331,-0.2319 0.4382,-0.2319 0.0578,0 0.112,0.0179 0.1562,0.053 0.0448,0.036 0.0808,0.0941 0.1117,0.1749 0.0311,0.0851 0.0533,0.1871 0.0671,0.3172 0.0131,0.125 0.0179,0.277 0.0179,0.451 z m -15.1478,2.1405 -1.5684,4.3387 c -0.0538,0.1383 -0.1879,0.246 -0.4019,0.322 -0.2101,0.0759 -0.5364,0.1114 -0.9743,0.1114 -0.2279,0 -0.411,-0.009 -0.5499,-0.0312 -0.1384,-0.0221 -0.2452,-0.0629 -0.3212,-0.112 -0.072,-0.0533 -0.112,-0.125 -0.121,-0.21 -0.009,-0.089 0.013,-0.1919 0.0629,-0.3172 l 1.6262,-4.1017 c -0.0808,-0.036 -0.1567,-0.0939 -0.2236,-0.1701 -0.0715,-0.08 -0.1205,-0.1607 -0.1432,-0.25 l -4.204,-11.2601 c -0.072,-0.1831 -0.1029,-0.3311 -0.1029,-0.4334 0,-0.1077 0.0309,-0.188 0.1029,-0.2506 0.0711,-0.0624 0.1831,-0.1023 0.3393,-0.1253 0.1559,-0.0221 0.3659,-0.0309 0.6298,-0.0309 0.2591,0 0.4652,0.0048 0.6166,0.0179 0.1477,0.013 0.2639,0.0402 0.3529,0.0759 0.085,0.0312 0.1479,0.0851 0.1879,0.1472 0.04,0.0671 0.0802,0.157 0.125,0.2681 l 3.3647,9.4555 h 0.04 l 3.2446,-9.5045 c 0.0532,-0.1701 0.1159,-0.277 0.1921,-0.3212 0.0712,-0.0499 0.1829,-0.085 0.3303,-0.108 0.1519,-0.0221 0.3668,-0.0309 0.6437,-0.0309 0.2452,0 0.4471,0.0088 0.6032,0.0309 0.1562,0.023 0.2722,0.0629 0.3442,0.1253 0.0759,0.0626 0.1119,0.1429 0.1119,0.2506 0,0.1023 -0.0269,0.2364 -0.0762,0.3931 z m -9.6069,-0.326 c 0,0.0711 -0.0181,0.1289 -0.0538,0.1788 -0.0355,0.0443 -0.0933,0.089 -0.1832,0.125 -0.085,0.0312 -0.2009,0.0582 -0.3441,0.076 -0.1471,0.0173 -0.326,0.0264 -0.5451,0.0264 -0.21,0 -0.3883,-0.009 -0.536,-0.0264 -0.1471,-0.0178 -0.2633,-0.0448 -0.3484,-0.076 -0.0808,-0.036 -0.1429,-0.0807 -0.1831,-0.125 -0.0405,-0.0499 -0.0587,-0.1077 -0.0587,-0.1788 v -14.660801 h -7.6674 v 14.660801 c 0,0.0711 -0.0182,0.1289 -0.0581,0.1788 -0.04,0.0443 -0.1029,0.089 -0.1831,0.125 -0.0851,0.0312 -0.1971,0.0582 -0.3399,0.076 -0.1471,0.0173 -0.326,0.0264 -0.5451,0.0264 -0.2183,0 -0.3974,-0.009 -0.5451,-0.0264 -0.1432,-0.0178 -0.2591,-0.0448 -0.3442,-0.076 -0.089,-0.036 -0.1471,-0.0807 -0.1831,-0.125 -0.036,-0.0499 -0.053,-0.1077 -0.053,-0.1788 v -15.702001 c 0,-0.3041 0.076,-0.5363 0.2271,-0.6882 0.157,-0.152 0.3489,-0.2279 0.5859,-0.2279 h 10.5721 c 0.246,0 0.4379,0.0759 0.5763,0.2279 0.1389,0.1519 0.21,0.3841 0.21,0.6882 z m -16.3941,-1.1132 c 0,0.6211 -0.1032,1.0321 -0.3082,1.2382 -0.2061,0.2052 -0.5763,0.3081 -1.1174,0.3081 -0.527,0 -0.8889,-0.1029 -1.0902,-0.3042 -0.201,-0.2009 -0.2991,-0.6029 -0.2991,-1.2061 0,-0.6211 0.1024,-1.0324 0.3082,-1.2373 0.2052,-0.2061 0.5763,-0.309 1.1171,-0.309 0.5273,0 0.8892,0.0989 1.0902,0.2999 0.1962,0.201 0.2994,0.6072 0.2994,1.2104 z m -8.1729,-2.6716 c 0,-0.4023 -0.076,-0.7643 -0.2237,-1.0951 -0.1471,-0.3262 -0.3704,-0.6301 -0.6743,-0.9156 -0.2999,-0.2817 -0.6749,-0.559 -1.1262,-0.8268 -0.451,-0.2639 -0.97,-0.5412 -1.5642,-0.8311 -0.5493,0.2726 -1.0321,0.5408 -1.4473,0.8129 -0.4159,0.273 -0.7552,0.5502 -1.0234,0.8402 -0.2639,0.286 -0.4648,0.5902 -0.6032,0.9114 -0.1338,0.3177 -0.2009,0.6709 -0.2009,1.055 0,0.8442 0.2902,1.5012 0.8713,1.9656 0.5808,0.4609 1.4474,0.693 2.6005,0.693 1.1172,0 1.9613,-0.2321 2.5334,-0.7013 0.572,-0.4651 0.858,-1.1041 0.858,-1.9082 z m -0.536,-8.9326 c 0,-0.3662 -0.063,-0.7013 -0.1919,-0.9964 -0.1259,-0.299001 -0.309,-0.549301 -0.5542,-0.759101 -0.2461,-0.21 -0.5499,-0.371 -0.9119,-0.4782 -0.3623,-0.112 -0.7733,-0.1658 -1.2376,-0.1658 -0.9431,0 -1.658,0.2149 -2.1405,0.644 -0.487,0.4289 -0.7279,1.014001 -0.7279,1.755501 0,0.3399 0.0578,0.6571 0.178,0.9471 0.1162,0.2951 0.2999,0.572 0.5499,0.8359 0.2455,0.2591 0.5633,0.5182 0.9426,0.7642 0.3801,0.25 0.8311,0.5091 1.3541,0.7821 0.8849,-0.4558 1.5593,-0.9561 2.0333,-1.506 0.4691,-0.5542 0.7061,-1.1614 0.7061,-1.8233 z m 2.8148,8.6913 c 0,0.7325 -0.1293,1.3853 -0.3932,1.9568 -0.2639,0.572 -0.6392,1.055 -1.1304,1.4479 -0.4961,0.3892 -1.1039,0.6883 -1.8273,0.8892 -0.729,0.2013 -1.5553,0.2994 -2.4893,0.2994 -0.876,0 -1.6575,-0.0941 -2.3457,-0.2772 -0.688,-0.1832 -1.2739,-0.451 -1.7561,-0.8082 -0.4782,-0.358 -0.8444,-0.8002 -1.0993,-1.3232 -0.2548,-0.5224 -0.3801,-1.1214 -0.3801,-1.7915 0,-0.5321 0.0899,-1.0191 0.2639,-1.4661 0.1744,-0.4422 0.4244,-0.8532 0.7504,-1.2282 0.331,-0.3753 0.733,-0.7283 1.2155,-1.0545 0.4787,-0.3269 1.0238,-0.639 1.627,-0.934 -0.5281,-0.273 -0.9881,-0.5542 -1.3901,-0.8581 -0.4022,-0.2993 -0.7463,-0.6253 -1.0233,-0.9782 -0.2812,-0.358 -0.4912,-0.7331 -0.6392,-1.1353 -0.1429,-0.398 -0.214,-0.8354 -0.214,-1.3093 0,-0.5899 0.1071,-1.1483 0.322,-1.666501 0.214,-0.5188 0.536,-0.97 0.9692,-1.3541 0.4331,-0.3841 0.9833,-0.688 1.6534,-0.9071 0.6659,-0.2231 1.4474,-0.3351 2.3414,-0.3351 0.8533,0 1.5954,0.1029 2.2204,0.3082 0.6262,0.2058 1.1401,0.483 1.5463,0.8359 0.4071,0.3532 0.7061,0.7685 0.8983,1.2512 0.1919,0.4782 0.29,0.991601 0.29,1.541501 0,0.447 -0.0711,0.8711 -0.214,1.2824 -0.1471,0.411 -0.3572,0.7999 -0.6392,1.1662 -0.277,0.3662 -0.6211,0.7061 -1.0273,1.0278 -0.4071,0.3172 -0.8719,0.6165 -1.3992,0.8935 0.6211,0.3081 1.1713,0.621 1.6535,0.9431 0.487,0.3211 0.8892,0.6701 1.2152,1.0411 0.3268,0.3702 0.5768,0.7643 0.7461,1.1753 0.17,0.4152 0.2551,0.8711 0.2551,1.3671 z m -14.4641,2.9129 c 0,0.6211 -0.1029,1.0321 -0.3081,1.2382 -0.2058,0.2052 -0.576,0.3081 -1.1171,0.3081 -0.527,0 -0.8893,-0.1029 -1.0903,-0.3042 -0.2009,-0.2009 -0.299,-0.6029 -0.299,-1.2061 0,-0.6211 0.102,-1.0324 0.3081,-1.2373 0.2052,-0.2061 0.5763,-0.309 1.1172,-0.309 0.5272,0 0.8892,0.0989 1.0902,0.2999 0.1961,0.201 0.299,0.6072 0.299,1.2104 z m -10.2367,-13.605701 h -0.027 l -5.4513,9.307501 h 5.4783 z m 4.6598,10.232801 c 0,0.2854 -0.0442,0.5133 -0.1289,0.6791 -0.0899,0.165 -0.2101,0.2452 -0.3671,0.2452 h -1.9123 v 3.5618 c 0,0.0711 -0.0181,0.1289 -0.0533,0.1788 -0.036,0.0443 -0.0986,0.089 -0.1879,0.125 -0.089,0.0312 -0.2101,0.0582 -0.3529,0.076 -0.1432,0.0173 -0.3263,0.0264 -0.5494,0.0264 -0.2191,0 -0.398,-0.009 -0.5408,-0.0264 -0.1432,-0.0178 -0.2591,-0.0448 -0.3442,-0.076 -0.085,-0.036 -0.1431,-0.0807 -0.174,-0.125 -0.0312,-0.0499 -0.049,-0.1077 -0.049,-0.1788 v -3.5618 h -6.9353 c -0.1071,0 -0.1922,-0.013 -0.2591,-0.0399 -0.0711,-0.027 -0.1341,-0.0712 -0.1922,-0.1432 -0.0538,-0.0669 -0.0938,-0.1698 -0.1159,-0.299 -0.023,-0.1299 -0.0312,-0.2999 -0.0312,-0.51 0,-0.165 0.0043,-0.3124 0.0131,-0.4422 0.009,-0.1293 0.0269,-0.25 0.0538,-0.3572 0.0221,-0.1119 0.0581,-0.2148 0.1023,-0.3129 0.0403,-0.1029 0.0942,-0.21 0.1568,-0.322 l 6.0412,-10.304001 c 0.0442,-0.0711 0.1114,-0.1292 0.1964,-0.1831 0.0848,-0.0533 0.1919,-0.0981 0.326,-0.1292 0.1341,-0.0357 0.2999,-0.0627 0.4918,-0.076 0.1965,-0.0136 0.4292,-0.0179 0.6974,-0.0179 0.2899,0 0.549,0.009 0.7639,0.0312 0.2191,0.0221 0.3974,0.0539 0.5272,0.0848 0.1341,0.036 0.237,0.085 0.3082,0.1383 0.072,0.0587 0.1071,0.1256 0.1071,0.2058 v 10.826901 h 1.9123 c 0.1479,0 0.2681,0.0763 0.358,0.2282 0.0938,0.1514 0.138,0.3841 0.138,0.6971 z m -14.7809,3.3729 c 0,0.6211 -0.1029,1.0321 -0.3082,1.2382 -0.2058,0.2052 -0.5763,0.3081 -1.1171,0.3081 -0.527296,0 -0.889196,-0.1029 -1.090196,-0.3042 -0.201,-0.2009 -0.2991,-0.6029 -0.2991,-1.2061 0,-0.6211 0.1021,-1.0324 0.3082,-1.2373 0.2049,-0.2061 0.576,-0.309 1.117096,-0.309 0.527,0 0.8892,0.0989 1.0902,0.2999 0.1962,0.201 0.2991,0.6072 0.2991,1.2104 z m -6.269196,0.474 c 0,0.1561 -0.009,0.295 -0.0311,0.4152 -0.0227,0.1256 -0.0539,0.2279 -0.0939,0.3087 -0.0402,0.0851 -0.0898,0.1432 -0.1567,0.1831 -0.0672,0.0403 -0.1383,0.0582 -0.2143,0.0582 h -9.3748 c -0.1201,0 -0.2279,-0.0131 -0.322,-0.0448 -0.089,-0.0312 -0.1692,-0.0803 -0.2321,-0.1523 -0.0669,-0.0669 -0.116,-0.1692 -0.1471,-0.299 -0.0318,-0.1293 -0.0448,-0.2903 -0.0448,-0.4822 0,-0.1749 0.009,-0.3268 0.0221,-0.4561 0.0136,-0.1298 0.0405,-0.246 0.0847,-0.3489 0.0451,-0.0981 0.1032,-0.1962 0.1701,-0.2991 0.0669,-0.0981 0.1562,-0.2052 0.2639,-0.3172 l 3.3869,-3.4855 c 0.786,-0.8041 1.4122,-1.5233 1.8853,-2.1625 0.4739,-0.6341 0.8359,-1.2152 1.095,-1.7425 0.2543,-0.523 0.4243,-0.9969 0.5051,-1.4252 0.0803,-0.4292 0.1202,-0.8311 0.1202,-1.207 0,-0.3753 -0.0621,-0.7325 -0.1871,-1.0675 -0.1301,-0.3351 -0.3089,-0.6302 -0.5499,-0.885001 -0.237,-0.2549 -0.5363,-0.4561 -0.8983,-0.6032 -0.3572,-0.1471 -0.773,-0.2231 -1.2421,-0.2231 -0.5494,0 -1.0412,0.076 -1.4794,0.2231 -0.4332,0.1471 -0.8173,0.3129 -1.1481,0.4872 -0.3262,0.1741 -0.6032,0.339101 -0.8223,0.487001 -0.2188,0.1472 -0.3841,0.2231 -0.4912,0.2231 -0.063,0 -0.1208,-0.0178 -0.1698,-0.0533 -0.0491,-0.0357 -0.0893,-0.0895 -0.1211,-0.1698 -0.0312,-0.0759 -0.0581,-0.1831 -0.0754,-0.312901 -0.0178,-0.1341 -0.0269,-0.2903 -0.0269,-0.4734 0,-0.1298 0.004,-0.2418 0.0133,-0.3399 0.009,-0.0938 0.0221,-0.1788 0.0448,-0.25 0.0221,-0.0672 0.049,-0.1341 0.085,-0.197 0.0352,-0.0581 0.1072,-0.1341 0.2101,-0.2279 0.1071,-0.0893 0.286,-0.2143 0.5451,-0.3705 0.2543,-0.161 0.5803,-0.3129 0.9692,-0.4649 0.3843,-0.1562 0.8132,-0.2812 1.2824,-0.3889 0.4648,-0.1023 0.9561,-0.1562 1.4703,-0.1562 0.822,0 1.5412,0.116 2.1535,0.3481 0.6168,0.2282 1.1262,0.5451 1.5329,0.9479 0.4063,0.4023 0.7104,0.8666 0.9114,1.3986 0.201,0.531801 0.2999,1.099001 0.2999,1.702301 0,0.5411 -0.0499,1.0814 -0.1432,1.6174 -0.0986,0.536 -0.2996,1.1171 -0.6077,1.743 -0.3132,0.6253 -0.7594,1.3176 -1.3453,2.0818 -0.5811,0.7642 -1.3584,1.6444 -2.3276,2.6413 l -2.6812,2.8015 h 7.3731 c 0.0669,0 0.1338,0.0181 0.201,0.0581 0.0669,0.04 0.125,0.0981 0.1693,0.174 0.0498,0.0808 0.085,0.1789 0.1077,0.2951 0.0221,0.116 0.0311,0.2549 0.0311,0.4111 z m 110.2521962,0.6519 c 0,0.1035 -0.036,0.1834 -0.1029,0.2373 -0.0709,0.0538 -0.1647,0.0893 -0.29,0.1162 -0.121,0.0267 -0.3002,0.04 -0.536,0.04 -0.224,0 -0.4071,-0.0133 -0.5409,-0.04 -0.1344,-0.0269 -0.2321,-0.0624 -0.2951,-0.1162 -0.0623,-0.0539 -0.0944,-0.1298 -0.0944,-0.2373 v -1.1789 c -0.513,0.5491 -1.0851,0.9782 -1.7203,1.2824 -0.6341,0.299 -1.30399999,0.4507 -2.01029999,0.4507 -0.6211,0 -1.18440001,-0.0802 -1.68440001,-0.2409 -0.5009,-0.1611 -0.9292,-0.398 -1.2821,-0.7013 -0.3529,-0.3042 -0.6304,-0.6838 -0.8272,-1.126 -0.1961,-0.4473 -0.295,-0.9521 -0.295,-1.5196 0,-0.6656 0.134,-1.2422 0.4073,-1.7294 0.2676,-0.4918 0.6559,-0.898 1.1662,-1.2198 0.5048,-0.3214 1.1259,-0.5675 1.85810001,-0.7282 0.733,-0.1613 1.55959999,-0.2412 2.47579999,-0.2412 h 1.6259 v -0.9204 c 0,-0.4516 -0.049,-0.8538 -0.1429,-1.2067 -0.0977,-0.3484 -0.25,-0.6393 -0.4643,-0.8714 -0.2145,-0.2325 -0.4918,-0.4062 -0.8311,-0.5227 -0.3396,-0.1202 -0.76,-0.1786 -1.25539999,-0.1786 -0.5318,0 -1.01,0.0624 -1.4298,0.1922 -0.4244,0.1292 -0.79540001,0.2681 -1.11240001,0.4243 -0.318,0.1568 -0.5862,0.2946 -0.8002,0.4249 -0.2097,0.1287 -0.371,0.1922 -0.4739,0.1922 -0.0712,0 -0.1338,-0.0184 -0.1831,-0.0544 -0.0533,-0.0309 -0.0984,-0.0845 -0.1384,-0.1562 -0.0405,-0.0669 -0.0669,-0.1565 -0.0847,-0.2636 -0.0182,-0.1114 -0.027,-0.2279 -0.027,-0.362 0,-0.2143 0.0128,-0.3883 0.0448,-0.5136 0.0309,-0.1247 0.1069,-0.2458 0.2231,-0.3578 0.1159,-0.1111 0.322,-0.246 0.6078,-0.4022 0.2857,-0.1516 0.6216,-0.2951 0.9963,-0.4238 0.3711,-0.1253 0.78240001,-0.2333 1.22860001,-0.3175 0.443,-0.0847 0.894,-0.1255 1.34499999,-0.1255 0.8445,0 1.5642,0.0938 2.1586,0.2857 0.5941,0.1922 1.0723,0.4782 1.4383,0.8493 0.3671,0.3713 0.6304,0.8311 0.796,1.3813 0.1652,0.5491 0.25,1.1925 0.25,1.9256 z m -2.1453,-5.3969 h -1.8451 c -0.5896,0 -1.10349999,0.0488 -1.54119999,0.1514 -0.4334,0.0987 -0.7956,0.2509 -1.0865,0.447 -0.28510001,0.1968 -0.49550001,0.4289 -0.63380001,0.7059 -0.1344,0.2772 -0.2013,0.5941 -0.2013,0.9521 0,0.612 0.1922,1.0993 0.5811,1.4604 0.38840001,0.3623 0.92920001,0.546 1.63050001,0.546 0.56299999,0 1.09109999,-0.1432 1.57329999,-0.434 0.4827,-0.286 0.9918,-0.7282 1.523,-1.3224 z m 14.7999998,5.3842 c 0,0.0711 -0.0131,0.1289 -0.0442,0.1831 -0.0318,0.0536 -0.0851,0.0938 -0.1661,0.1247 -0.0803,0.0315 -0.1871,0.0542 -0.3303,0.072 -0.1386,0.0173 -0.3217,0.0264 -0.5499,0.0264 -0.214,0 -0.3889,-0.009 -0.527,-0.0264 -0.1428,-0.0178 -0.2548,-0.0405 -0.335,-0.072 -0.0851,-0.0309 -0.1429,-0.0711 -0.1744,-0.1247 -0.0314,-0.0493 -0.0447,-0.112 -0.0447,-0.1831 v -4.9561 h -1.2422 c -0.5408,0 -0.9604,0.045 -1.2645,0.1304 -0.2996,0.0887 -0.5718,0.2316 -0.809,0.4374 -0.241,0.2055 -0.4558,0.4697 -0.648,0.7866 -0.1922,0.3172 -0.3753,0.7061 -0.5491,1.171 l -0.9564,2.3006 c -0.0445,0.1119 -0.0896,0.206 -0.1429,0.2732 -0.0538,0.0709 -0.1298,0.1247 -0.2282,0.1647 -0.0978,0.04 -0.2276,0.0675 -0.3797998,0.0811 -0.1519,0.0133 -0.3393,0.0173 -0.5672,0.0173 -0.1607,0 -0.3084,-0.004 -0.4331,-0.0133 -0.1256,-0.009 -0.2328,-0.0222 -0.3221,-0.0451 -0.085,-0.0218 -0.1519,-0.0578 -0.1922,-0.1069 -0.045,-0.0448 -0.0668,-0.1071 -0.0668,-0.174 0,-0.0627 0.0218,-0.161 0.0711,-0.2951 0.049,-0.1338 0.148,-0.3711 0.2951,-0.7104 l 0.9431,-2.2119 c 0.2452,-0.5584 0.5447998,-1.0414 0.9021998,-1.4436 0.3581,-0.4062 0.7688,-0.7059 1.2334,-0.8981 -0.8493,-0.1561 -1.5197,-0.496 -2.0244998,-1.0139 -0.5,-0.5233 -0.7501,-1.2113 -0.7501,-2.0687 0,-0.5678 0.1157,-1.0814 0.353,-1.5424 0.2367,-0.4597 0.5808,-0.8481 1.0407998,-1.1661 0.4553,-0.3209 1.0185,-0.5672 1.6889,-0.737 0.6659,-0.1696 1.4298,-0.2543 2.2972,-0.2543 0.205,0 0.451,0.0042 0.7231,0.0133 0.2773,0.0085 0.5593,0.0218 0.8493,0.04 0.2951,0.0178 0.5768,0.036 0.8538,0.0578 0.2724,0.023 0.5091,0.0411 0.7104,0.0584 0.2633,0.0269 0.4597,0.1208 0.5901,0.2906 0.129,0.1652 0.1962,0.371 0.1962,0.6122 z m -2.1716,-10.5324 c -0.3127,-0.0445 -0.6341,-0.076 -0.9652,-0.0888 -0.326,-0.0141 -0.6302,-0.0181 -0.9114,-0.0181 -0.5899,0 -1.0814,0.049 -1.4748,0.1519 -0.3975,0.0981 -0.7104,0.2455 -0.9516,0.4332 -0.2367,0.1882 -0.4065,0.4113 -0.5049,0.6661 -0.1029,0.25 -0.1522,0.5315 -0.1522,0.8402 0,0.3124 0.0584,0.5984 0.1743,0.8484 0.1208,0.2509 0.2951,0.4606 0.5361,0.6301 0.2372,0.1698 0.5451,0.3042 0.9161,0.3929 0.3756,0.0944 0.8938,0.1389 1.5642,0.1389 h 1.7694 z m 20.4879,-0.6027 c 0,0.1738 -0.009,0.3217 -0.0269,0.4419 -0.0181,0.1248 -0.0451,0.2237 -0.0853,0.2994 -0.04,0.0805 -0.0845,0.1389 -0.1338,0.1788 -0.0536,0.04 -0.1211,0.0579 -0.197,0.0579 h -3.5255 v 10.1571 c 0,0.0711 -0.0173,0.1289 -0.0533,0.1788 -0.036,0.0443 -0.0898,0.089 -0.1698,0.125 -0.0802,0.0312 -0.1882,0.0582 -0.331,0.076 -0.1381,0.0173 -0.317,0.0264 -0.5361,0.0264 -0.2143,0 -0.3883,-0.009 -0.5272,-0.0264 -0.1429,-0.0178 -0.2551,-0.0448 -0.3351,-0.076 -0.0853,-0.036 -0.1431,-0.0807 -0.174,-0.125 -0.0315,-0.0499 -0.0451,-0.1077 -0.0451,-0.1788 v -10.1571 h -3.5257 c -0.0669,0 -0.129,-0.0179 -0.1871,-0.0579 -0.0578,-0.0399 -0.1029,-0.0983 -0.1389,-0.1788 -0.0312,-0.0757 -0.0621,-0.1786 -0.0848,-0.3033 -0.0224,-0.1253 -0.0314,-0.2773 -0.0314,-0.4522 0,-0.1559 0.009,-0.2942 0.0314,-0.4149 0.0227,-0.1251 0.0536,-0.228 0.0939,-0.3082 0.0399,-0.0853 0.085,-0.1431 0.1389,-0.1831 0.049,-0.0411 0.1111,-0.0587 0.178,-0.0587 h 9.2228 c 0.0672,0 0.1301,0.0176 0.1879,0.0587 0.0584,0.04 0.1029,0.0978 0.1383,0.1831 0.0315,0.0802 0.063,0.1871 0.0848,0.3124 0.0227,0.1256 0.032,0.2676 0.032,0.4249 z m 12.9807,5.0488 c 0,1.0324 -0.1119,1.957 -0.3353,2.7797 -0.2188,0.8172 -0.546,1.5142 -0.9788,2.0863 -0.4295,0.572 -0.9655,1.0145 -1.5996,1.3232 -0.635,0.3078 -1.3629,0.464 -2.1804,0.464 -0.3492,0 -0.6701,-0.0351 -0.9652,-0.1029 -0.2996,-0.0711 -0.5862,-0.178 -0.8711,-0.3302 -0.282,-0.148 -0.5635,-0.3351 -0.8402,-0.5633 -0.282,-0.2231 -0.5768,-0.4907 -0.8892,-0.7948 v 5.9023 c 0,0.0717 -0.0179,0.1295 -0.0539,0.1837 -0.036,0.0533 -0.0893,0.0981 -0.1703,0.1341 -0.0803,0.0308 -0.1871,0.0581 -0.33,0.0751 -0.1389,0.0181 -0.318,0.0272 -0.536,0.0272 -0.2149,0 -0.3889,-0.009 -0.5278,-0.0272 -0.1429,-0.017 -0.2546,-0.0443 -0.3351,-0.0751 -0.0853,-0.036 -0.1431,-0.0808 -0.1743,-0.1341 -0.0312,-0.0542 -0.0448,-0.112 -0.0448,-0.1837 v -16.4653 c 0,-0.0811 0.0136,-0.1435 0.0405,-0.1922 0.0264,-0.0451 0.0802,-0.0902 0.1562,-0.1211 0.0802,-0.036 0.1789,-0.0629 0.3042,-0.0759 0.1202,-0.0134 0.2724,-0.0179 0.4461,-0.0179 0.184,0 0.3357,0.0045 0.4559,0.0179 0.1162,0.013 0.2151,0.0399 0.295,0.0714 0.0803,0.0354 0.1344,0.0805 0.1653,0.1256 0.032,0.0487 0.0448,0.1111 0.0448,0.1922 v 1.5769 c 0.3574,-0.3665 0.7013,-0.684 1.0324,-0.9559 0.3308,-0.2681 0.6661,-0.4921 1.0012,-0.6712 0.335,-0.178 0.6789,-0.3169 1.0323,-0.4059 0.353,-0.0939 0.7232,-0.1389 1.1169,-0.1389 0.8532,0 1.5775,0.1655 2.1807,0.4963 0.5978,0.3345 1.0902,0.7866 1.47,1.3629 0.3793,0.5763 0.6565,1.2461 0.8306,2.0103 0.1746,0.764 0.2599,1.5733 0.2599,2.4265 z m -2.2527,0.25 c 0,-0.6029 -0.0445,-1.188 -0.1389,-1.7512 -0.0887,-0.5633 -0.25,-1.0633 -0.4691,-1.5013 -0.2231,-0.4382 -0.5221,-0.7866 -0.8977,-1.0502 -0.3753,-0.263 -0.8448,-0.3934 -1.4026,-0.3934 -0.2823,0 -0.5542,0.0402 -0.8274,0.1253 -0.2676,0.0853 -0.5452,0.2148 -0.8261,0.3928 -0.2772,0.1792 -0.5723,0.4164 -0.8759,0.7115 -0.3044,0.294 -0.6304,0.656 -0.9694,1.0851 v 4.6877 c 0.5941,0.7282 1.1568,1.2824 1.6883,1.6707 0.5363,0.385 1.095,0.5772 1.6804,0.5772 0.5408,0 1.0051,-0.1304 1.3941,-0.3935 0.3889,-0.2636 0.7012,-0.612 0.943,-1.0502 0.2416,-0.438 0.4153,-0.9253 0.5315,-1.4704 0.112,-0.5408 0.1698,-1.0899 0.1698,-1.6401 z m 15.5322,-0.572 c 0,0.3399 -0.0842,0.5811 -0.2543,0.7291 -0.1701,0.1431 -0.3668,0.214 -0.5851,0.214 h -7.7394 c 0,0.657 0.0669,1.2472 0.1962,1.7696 0.1298,0.5267 0.3486,0.9788 0.657,1.3542 0.3036,0.3753 0.7016,0.6613 1.1886,0.862 0.4915,0.2012 1.0905,0.3041 1.7958,0.3041 0.5592,0 1.0593,-0.045 1.493,-0.1389 0.4376,-0.0893 0.8175,-0.1922 1.135,-0.3033 0.3177,-0.1119 0.5808,-0.2148 0.7866,-0.3041 0.2049,-0.0939 0.3571,-0.1389 0.464,-0.1389 0.0635,0 0.1162,0.0141 0.1664,0.045 0.0439,0.0309 0.0842,0.0763 0.1069,0.1389 0.0269,0.0579 0.0487,0.1421 0.062,0.2501 0.0139,0.1111 0.0182,0.2412 0.0182,0.3971 0,0.112 -0.004,0.2103 -0.0133,0.2951 -0.009,0.081 -0.0182,0.157 -0.0318,0.2188 -0.0133,0.0672 -0.0351,0.1253 -0.0669,0.1792 -0.0312,0.049 -0.0669,0.0983 -0.1162,0.1471 -0.049,0.049 -0.1922,0.125 -0.4243,0.233 -0.2367,0.1111 -0.5409,0.214 -0.9156,0.3211 -0.3753,0.1029 -0.8093,0.1971 -1.3006,0.2773 -0.4915,0.0847 -1.0142,0.1247 -1.5732,0.1247 -0.9695,0 -1.8139,-0.1338 -2.5424,-0.4062 -0.7285,-0.2682 -1.3405,-0.6701 -1.8363,-1.2022 -0.4963,-0.5357 -0.8716,-1.2022 -1.1217,-2.0061 -0.2551,-0.8002 -0.3798,-1.7336 -0.3798,-2.802 0,-1.01 0.1298,-1.921 0.3932,-2.7301 0.2591,-0.8041 0.6392,-1.4924 1.131,-2.0556 0.4912,-0.5627 1.0902,-0.9916 1.7872,-1.2955 0.6971,-0.2996 1.4786,-0.4515 2.3415,-0.4515 0.9243,0 1.7112,0.1479 2.3587,0.447 0.6531,0.2951 1.1843,0.697 1.6041,1.1971 0.4164,0.5008 0.7242,1.091 0.9213,1.7699 0.1961,0.6744 0.2942,1.3986 0.2942,2.1671 z m -2.1716,-0.6384 c 0.0269,-1.135 -0.2231,-2.029 -0.7549,-2.6764 -0.5315,-0.648 -1.3133,-0.9701 -2.3547,-0.9701 -0.5361,0 -1.0055,0.0981 -1.4074,0.2994 -0.4023,0.2015 -0.7379,0.47 -1.01,0.8044 -0.273,0.3306 -0.4833,0.7195 -0.6305,1.1577 -0.1468,0.4419 -0.2321,0.902 -0.2497,1.385 z m 16.4483,0.974 c 0,0.9828 -0.1338,1.8808 -0.4071,2.6941 -0.2678,0.809 -0.6613,1.5063 -1.1752,2.0965 -0.5182,0.589 -1.1441,1.0448 -1.8811,1.3668 -0.7373,0.3215 -1.5684,0.4822 -2.4885,0.4822 -0.9613,0 -1.7924,-0.1562 -2.4937,-0.464 -0.7013,-0.3087 -1.2821,-0.7781 -1.7424,-1.3992 -0.4558,-0.6253 -0.7951,-1.4071 -1.0143,-2.3414 -0.2191,-0.938 -0.3268,-2.0415 -0.3268,-3.3064 0,-1.0723 0.0496,-2.0596 0.1519,-2.9624 0.099,-0.9026 0.2418,-1.7119 0.425,-2.435 0.1831,-0.7197 0.4022,-1.3323 0.657,-1.837401 0.25,-0.504 0.5091,-0.906 0.7773,-1.2011 0.2681,-0.3002 0.5272,-0.5366 0.7863,-0.7154 0.2591,-0.1789 0.5451,-0.3439 0.8581,-0.4958 0.3126,-0.1522 0.6701,-0.286 1.0681,-0.398 0.3971,-0.1162 0.8444,-0.214 1.3442,-0.3033 l 4.2049,-0.6931 c 0.1479,-0.0269 0.2681,-0.036 0.3671,-0.0309 0.0932,0.004 0.1692,0.036 0.223,0.1029 0.0491,0.0669 0.0851,0.1741 0.1029,0.3209 0.0182,0.148 0.027,0.3535 0.027,0.6171 0,0.1743 -0.009,0.3215 -0.027,0.4422 -0.0178,0.1253 -0.0487,0.2231 -0.0898,0.3042 -0.0442,0.0759 -0.1111,0.138 -0.1962,0.1831 -0.0896,0.04 -0.2007,0.076 -0.3438,0.1029 l -3.9186,0.6571 c -0.3935,0.0623 -0.7373,0.1292 -1.0324,0.2097 -0.3002,0.0757 -0.5633,0.1653 -0.7954,0.2634 -0.2327,0.0941 -0.4337,0.2012 -0.608,0.3172 -0.1741,0.1207 -0.3479,0.2729 -0.527,0.4558 -0.1743,0.183101 -0.3308,0.411301 -0.4779,0.684001 -0.1432,0.2681 -0.2642,0.5765 -0.3671,0.9243 -0.0984,0.3445 -0.1831,0.72 -0.2455,1.1265 -0.0669,0.4068 -0.1298,0.8402 -0.1922,1.3003 0.2866,-0.3042 0.5944,-0.5811 0.9162,-0.8311 0.3214,-0.2461 0.6613,-0.4604 1.0187,-0.6344 0.3578,-0.1738 0.7373,-0.3081 1.135,-0.398 0.3972,-0.0938 0.8175,-0.1378 1.26,-0.1378 0.8493,0 1.5866,0.1429 2.221,0.4238 0.6296,0.2818 1.1571,0.688 1.5681,1.2113 0.4159,0.5227 0.724,1.1483 0.9295,1.881 0.2058,0.7328 0.3087,1.537 0.3087,2.4174 z m -2.2521,0.1831 c 0,-0.5765 -0.0542,-1.1259 -0.1653,-1.6489 -0.108,-0.5272 -0.2821,-0.987 -0.5233,-1.385 -0.2367,-0.3934 -0.5629,-0.7155 -0.9649,-0.9519 -0.407,-0.2418 -0.9071,-0.362 -1.4973,-0.362 -0.3659,0 -0.7103,0.0451 -1.0272,0.1387 -0.322,0.0895 -0.6302,0.2276 -0.9386,0.4155 -0.3036,0.1874 -0.6077,0.4204 -0.9161,0.6973 -0.3036,0.2722 -0.6296,0.5982 -0.9788,0.974 -0.008,0.1384 -0.0134,0.3033 -0.0134,0.4873 0,0.1828 0,0.3702 0,0.5632 0,0.942 0.0584,1.7689 0.1789,2.4835 0.1162,0.72 0.3084,1.3141 0.5811,1.7963 0.2682,0.4782 0.6256,0.8402 1.0724,1.0859 0.4422,0.2461 0.9873,0.3663 1.6355,0.3663 0.567,0 1.0721,-0.1111 1.5146,-0.3348 0.4467,-0.2236 0.8178,-0.5312 1.1219,-0.9334 0.2994,-0.4031 0.527,-0.8944 0.6832,-1.4661 0.157,-0.5763 0.2373,-1.2195 0.2373,-1.9259 z m 16.5061,-0.1428 c 0,0.9603 -0.1253,1.8453 -0.3804,2.6538 -0.25,0.805 -0.6302,1.502 -1.1302,2.0871 -0.5009,0.5854 -1.1302,1.0412 -1.8813,1.3674 -0.7552,0.3263 -1.6311,0.491 -2.6227,0.491 -0.9697,0 -1.8138,-0.1429 -2.5338,-0.4331 -0.7195,-0.2858 -1.3179,-0.7061 -1.7961,-1.2552 -0.4779,-0.5502 -0.8359,-1.22 -1.0726,-2.0024 -0.2364,-0.7863 -0.3535,-1.6753 -0.3535,-2.6714 0,-0.9612 0.1262,-1.8462 0.3711,-2.6504 0.2506,-0.8084 0.6261,-1.5057 1.1262,-2.0908 0.5003,-0.5856 1.1265,-1.0369 1.8765,-1.3629 0.7512,-0.322 1.6268,-0.483 2.6277,-0.483 0.97,0 1.8142,0.1428 2.5333,0.434 0.7198,0.2857 1.3182,0.7061 1.7964,1.2551 0.4782,0.5502 0.8402,1.2155 1.0814,2.0024 0.2367,0.7864 0.358,1.6705 0.358,2.6584 z m -2.2527,0.1383 c 0,-0.6392 -0.0578,-1.2421 -0.1791,-1.8096 -0.1157,-0.5673 -0.3119,-1.0633 -0.5851,-1.4922 -0.2676,-0.4289 -0.6387,-0.769 -1.1033,-1.0145 -0.4597,-0.2503 -1.0408,-0.3756 -1.7339,-0.3756 -0.6384,0 -1.1886,0.112 -1.6484,0.3401 -0.4603,0.2277 -0.8362,0.5491 -1.1352,0.965 -0.2991,0.4152 -0.5182,0.907 -0.6611,1.4743 -0.1471,0.5677 -0.2191,1.1888 -0.2191,1.8592 0,0.6474 0.0578,1.2555 0.1789,1.8227 0.1162,0.568 0.3124,1.0638 0.5893,1.4882 0.2769,0.4198 0.648,0.7599 1.1083,1.0048 0.4649,0.2506 1.046,0.3762 1.738,0.3762 0.6304,0 1.1752,-0.112 1.6404,-0.3402 0.4643,-0.2276 0.8441,-0.5451 1.144,-0.9561 0.2994,-0.4107 0.5185,-0.9031 0.6563,-1.47 0.1389,-0.5672 0.21,-1.1934 0.21,-1.8723 z m 15.129904,2.5021 c 0,0.6211 -0.1159,1.1753 -0.3529,1.6575 -0.2372,0.4872 -0.5851,0.8903 -1.0499,1.2203 -0.4604,0.3262 -1.0364,0.5762 -1.7249,0.746 -0.6925,0.1704 -1.496704,0.2549 -2.412904,0.2549 -0.2866,0 -0.5675,0 -0.8356,-0.005 -0.2727,-0.004 -0.5361,-0.013 -0.7861,-0.0263 -0.2548,-0.0136 -0.5054,-0.0318 -0.7554,-0.0496 -0.2458,-0.0133 -0.4958,-0.0355 -0.7376,-0.0624 -0.3523,-0.0448 -0.6074,-0.1607 -0.7727,-0.3489 -0.1658,-0.1871 -0.2506,-0.4643 -0.2506,-0.8309 v -10.1425 c 0,-0.3574 0.0808,-0.6344 0.2418,-0.8266 0.1604,-0.1922 0.4113,-0.3041 0.7415,-0.3396 0.2277,-0.0275 0.4689,-0.0493 0.728,-0.0674 0.2551,-0.0128 0.5187,-0.0309 0.7911,-0.0443 0.273,-0.0136 0.55,-0.0226 0.8399,-0.0317 0.2861,-0.0088 0.5766,-0.0128 0.8762,-0.0128 0.8493,0 1.581504,0.0709 2.198604,0.2098 0.6211,0.1381 1.1341,0.3444 1.5454,0.612 0.4111,0.2724 0.7152,0.6035 0.9119,0.9964 0.1965,0.3929 0.2951,0.8402 0.2951,1.345 0,0.6613 -0.1788,1.2286 -0.5318,1.7025 -0.3534,0.4691 -0.8761,0.8042 -1.5641,1.0052 0.8629,0.1834 1.5148,0.5363 1.9531,1.059 0.4331,0.5272 0.6519,1.1843 0.6519,1.9794 z m -2.6005,-5.4646 c 0,-0.286 -0.0536,-0.5406 -0.1562,-0.7682 -0.1074,-0.2236 -0.2769,-0.4161 -0.5187,-0.5723 -0.2412,-0.1562 -0.5542,-0.2724 -0.9335,-0.3529 -0.380104,-0.0763 -0.839904,-0.1162 -1.385004,-0.1162 -0.4113,0 -0.7869,0.009 -1.1262,0.0309 -0.3441,0.0229 -0.6301,0.0493 -0.8674,0.072 v 3.6507 h 2.2034 c 0.9026,0 1.590504,-0.1658 2.068704,-0.5009 0.4782,-0.3353 0.7149,-0.8175 0.7149,-1.4431 z m 0.3753,5.4961 c 0,-0.3484 -0.0623,-0.6565 -0.1831,-0.9204 -0.121,-0.2682 -0.3169,-0.487 -0.5811,-0.6611 -0.2681,-0.1743 -0.6075,-0.3041 -1.023,-0.3934 -0.411304,-0.0848 -0.902604,-0.1298 -1.470304,-0.1298 h -2.1048 v 4.1737 c 0.1653,0.0269 0.3402,0.0442 0.5182,0.0578 0.1789,0.0134 0.362,0.0275 0.5502,0.0403 0.1879,0.013 0.3711,0.0221 0.5581,0.0314 0.188,0.009 0.362,0.0137 0.5191,0.0137 0.5669,0 1.0491,-0.0494 1.452204,-0.1523 0.4019,-0.0978 0.7322,-0.2457 1.0003,-0.4379 0.2642,-0.1922 0.4601,-0.4241 0.5811,-0.6971 0.1208,-0.2769 0.1831,-0.5853 0.1831,-0.9249 z m 14.2634,3.3732 c 0,0.1035 -0.036,0.1834 -0.1029,0.2373 -0.0709,0.0538 -0.1653,0.0893 -0.29,0.1162 -0.121,0.0267 -0.3002,0.04 -0.5363,0.04 -0.2237,0 -0.4068,-0.0133 -0.5411,-0.04 -0.1338,-0.0269 -0.2316,-0.0624 -0.2951,-0.1162 -0.0618,-0.0539 -0.0938,-0.1298 -0.0938,-0.2373 v -1.1789 c -0.5131,0.5491 -1.0854,0.9782 -1.7204,1.2824 -0.6341,0.299 -1.3045,0.4507 -2.0103,0.4507 -0.6211,0 -1.1843,-0.0802 -1.6844,-0.2409 -0.5009,-0.1611 -0.9292,-0.398 -1.2821,-0.7013 -0.3535,-0.3042 -0.6304,-0.6838 -0.8274,-1.126 -0.1959,-0.4473 -0.2948,-0.9521 -0.2948,-1.5196 0,-0.6656 0.1341,-1.2422 0.4068,-1.7294 0.2681,-0.4918 0.6565,-0.898 1.1661,-1.2198 0.5054,-0.3214 1.1265,-0.5675 1.8587,-0.7282 0.733,-0.1613 1.5591,-0.2412 2.4755,-0.2412 h 1.6265 v -0.9204 c 0,-0.4516 -0.0493,-0.8538 -0.1431,-1.2067 -0.0984,-0.3484 -0.25,-0.6393 -0.4643,-0.8714 -0.2152,-0.2325 -0.4919,-0.4062 -0.8312,-0.5227 -0.3401,-0.1202 -0.7599,-0.1786 -1.2554,-0.1786 -0.5318,0 -1.01,0.0624 -1.4304,0.1922 -0.4238,0.1292 -0.7948,0.2681 -1.1117,0.4243 -0.3181,0.1568 -0.5862,0.2946 -0.8003,0.4249 -0.2103,0.1287 -0.371,0.1922 -0.4739,0.1922 -0.0714,0 -0.1344,-0.0184 -0.1831,-0.0544 -0.0533,-0.0309 -0.0984,-0.0845 -0.1384,-0.1562 -0.0405,-0.0669 -0.0669,-0.1565 -0.0847,-0.2636 -0.0182,-0.1114 -0.0272,-0.2279 -0.0272,-0.362 0,-0.2143 0.013,-0.3883 0.045,-0.5136 0.0309,-0.1247 0.1069,-0.2458 0.2231,-0.3578 0.1163,-0.1111 0.322,-0.246 0.6078,-0.4022 0.2857,-0.1516 0.6213,-0.2951 0.9964,-0.4238 0.371,-0.1253 0.7823,-0.2333 1.2285,-0.3175 0.4428,-0.0847 0.894,-0.1255 1.3453,-0.1255 0.8442,0 1.5639,0.0938 2.1583,0.2857 0.5942,0.1922 1.0724,0.4782 1.4383,0.8493 0.3671,0.3713 0.6304,0.8311 0.796,1.3813 0.165,0.5491 0.25,1.1925 0.25,1.9256 z m -2.145,-5.3969 h -1.8456 c -0.5893,0 -1.1033,0.0488 -1.5415,0.1514 -0.4328,0.0987 -0.7951,0.2509 -1.0859,0.447 -0.2852,0.1968 -0.4955,0.4289 -0.6344,0.7059 -0.1338,0.2772 -0.2007,0.5941 -0.2007,0.9521 0,0.612 0.1922,1.0993 0.5811,1.4604 0.3877,0.3623 0.9292,0.546 1.6305,0.546 0.5629,0 1.0904,-0.1432 1.5729,-0.434 0.483,-0.286 0.9921,-0.7282 1.5236,-1.3224 z m 14.2642,-5.7509 c 0,0.1738 -0.009,0.3217 -0.0272,0.4419 -0.0178,0.1248 -0.0448,0.2237 -0.0847,0.2994 -0.04,0.0805 -0.0851,0.1389 -0.1344,0.1788 -0.0536,0.04 -0.1207,0.0579 -0.1967,0.0579 h -3.5257 v 10.1571 c 0,0.0711 -0.0173,0.1289 -0.0533,0.1788 -0.0355,0.0443 -0.0896,0.089 -0.1698,0.125 -0.0803,0.0312 -0.1877,0.0582 -0.3311,0.076 -0.1381,0.0173 -0.3169,0.0264 -0.536,0.0264 -0.2141,0 -0.3884,-0.009 -0.5273,-0.0264 -0.1429,-0.0178 -0.2545,-0.0448 -0.3348,-0.076 -0.085,-0.036 -0.1434,-0.0807 -0.1743,-0.125 -0.0309,-0.0499 -0.0445,-0.1077 -0.0445,-0.1788 v -10.1571 h -3.526 c -0.0669,0 -0.1293,-0.0179 -0.1871,-0.0579 -0.0581,-0.0399 -0.1029,-0.0983 -0.1389,-0.1788 -0.0315,-0.0757 -0.0624,-0.1786 -0.085,-0.3033 -0.0219,-0.1253 -0.0309,-0.2773 -0.0309,-0.4522 0,-0.1559 0.009,-0.2942 0.0309,-0.4149 0.0226,-0.1251 0.0535,-0.228 0.0938,-0.3082 0.04,-0.0853 0.085,-0.1431 0.1389,-0.1831 0.049,-0.0411 0.1114,-0.0587 0.1783,-0.0587 h 9.2228 c 0.0669,0 0.1298,0.0176 0.1882,0.0587 0.0578,0.04 0.1029,0.0978 0.1378,0.1831 0.032,0.0802 0.0629,0.1871 0.0853,0.3124 0.0227,0.1256 0.0317,0.2676 0.0317,0.4249 z m 11.9384,4.7268 c 0,0.3399 -0.0842,0.5811 -0.2539,0.7291 -0.1704,0.1431 -0.3671,0.214 -0.5851,0.214 h -7.7397 c 0,0.657 0.0669,1.2472 0.1961,1.7696 0.1298,0.5267 0.349,0.9788 0.6571,1.3542 0.3039,0.3753 0.7019,0.6613 1.1886,0.862 0.4918,0.2012 1.0904,0.3041 1.796,0.3041 0.559,0 1.059,-0.045 1.493,-0.1389 0.4377,-0.0893 0.8175,-0.1922 1.1347,-0.3033 0.3178,-0.1119 0.5811,-0.2148 0.7869,-0.3041 0.205,-0.0939 0.3569,-0.1389 0.464,-0.1389 0.0632,0 0.1163,0.0141 0.1661,0.045 0.0443,0.0309 0.0842,0.0763 0.1072,0.1389 0.0269,0.0579 0.0488,0.1421 0.0618,0.2501 0.0142,0.1111 0.0181,0.2412 0.0181,0.3971 0,0.112 -0.004,0.2103 -0.013,0.2951 -0.009,0.081 -0.0181,0.157 -0.032,0.2188 -0.0131,0.0672 -0.0349,0.1253 -0.0669,0.1792 -0.0309,0.049 -0.0669,0.0983 -0.116,0.1471 -0.0493,0.049 -0.1922,0.125 -0.4243,0.233 -0.237,0.1111 -0.5412,0.214 -0.9159,0.3211 -0.3753,0.1029 -0.809,0.1971 -1.3005,0.2773 -0.4913,0.0847 -1.014,0.1247 -1.5733,0.1247 -0.9694,0 -1.8136,-0.1338 -2.5421,-0.4062 -0.7285,-0.2682 -1.3405,-0.6701 -1.8365,-1.2022 -0.4964,-0.5357 -0.8714,-1.2022 -1.1214,-2.0061 -0.2551,-0.8002 -0.3799,-1.7336 -0.3799,-2.802 0,-1.01 0.1299,-1.921 0.3929,-2.7301 0.2591,-0.8041 0.6395,-1.4924 1.1313,-2.0556 0.4913,-0.5627 1.0899,-0.9916 1.7873,-1.2955 0.697,-0.2996 1.4785,-0.4515 2.3414,-0.4515 0.9244,0 1.711,0.1479 2.3587,0.447 0.6528,0.2951 1.1843,0.697 1.6041,1.1971 0.4161,0.5008 0.724,1.091 0.9213,1.7699 0.1961,0.6744 0.2939,1.3986 0.2939,2.1671 z m -2.1713,-0.6384 c 0.0266,-1.135 -0.2234,-2.029 -0.7552,-2.6764 -0.5312,-0.648 -1.3135,-0.9701 -2.3544,-0.9701 -0.536,0 -1.0055,0.0981 -1.4077,0.2994 -0.4019,0.2015 -0.7376,0.47 -1.01,0.8044 -0.2727,0.3306 -0.483,0.7195 -0.6301,1.1577 -0.1471,0.4419 -0.2322,0.902 -0.25,1.385 z m 14.7141,7.0467 c 0,0.0711 -0.0182,0.1289 -0.0542,0.1788 -0.0351,0.0443 -0.0893,0.089 -0.1692,0.125 -0.0757,0.0312 -0.1876,0.0582 -0.3265,0.076 -0.1387,0.0173 -0.3124,0.0264 -0.5225,0.0264 -0.2188,0 -0.398,-0.009 -0.5363,-0.0264 -0.1389,-0.0178 -0.25,-0.0448 -0.335,-0.076 -0.0808,-0.036 -0.1389,-0.0807 -0.1747,-0.125 -0.0354,-0.0499 -0.0532,-0.1077 -0.0532,-0.1788 v -10.2909 h -3.2443 c -0.1383,1.385 -0.3084,2.6181 -0.5046,3.6998 -0.1967,1.0808 -0.4158,2.0245 -0.6621,2.8286 -0.245,0.8 -0.5222,1.4789 -0.8261,2.028 -0.3041,0.5502 -0.6392,0.9924 -1.0012,1.3274 -0.3662,0.3351 -0.7591,0.5769 -1.184,0.724 -0.4201,0.1471 -0.8756,0.2231 -1.3535,0.2231 -0.0808,0 -0.1477,-0.0131 -0.2058,-0.04 -0.0539,-0.0269 -0.1032,-0.0711 -0.1381,-0.1429 -0.032,-0.0671 -0.0584,-0.1655 -0.0759,-0.2951 -0.0185,-0.125 -0.027,-0.286 -0.027,-0.4869 0,-0.2104 0.004,-0.3793 0.0176,-0.5094 0.0133,-0.129 0.0357,-0.237 0.0672,-0.313 0.0312,-0.0802 0.0714,-0.1292 0.1159,-0.1562 0.0494,-0.0269 0.1072,-0.0399 0.1789,-0.0399 0.2903,0 0.5624,-0.0669 0.8266,-0.201 0.2591,-0.1389 0.5051,-0.362 0.733,-0.6701 0.2279,-0.3087 0.4422,-0.7155 0.6432,-1.2155 0.197,-0.5049 0.3801,-1.122 0.5499,-1.8542 0.1653,-0.733 0.3215,-1.5913 0.4692,-2.5744 0.1471,-0.9782 0.2899,-2.1084 0.42,-3.3826 0.0173,-0.263 0.0803,-0.4552 0.1922,-0.585 0.1072,-0.1253 0.2634,-0.188 0.4641,-0.188 h 6.0502 c 0.2058,0 0.3711,0.0627 0.4873,0.1925 0.1208,0.1253 0.1789,0.3175 0.1789,0.5805 z m 59.6747,-1.5373 c 0,0.2679 -0.0134,0.5182 -0.0403,0.7419 -0.0269,0.2273 -0.0669,0.4422 -0.125,0.6432 -0.0539,0.2012 -0.1341,0.3979 -0.237,0.5941 -0.0981,0.197 -0.2231,0.4022 -0.371,0.6213 l -1.7825,2.6632 c -0.045,0.0714 -0.0941,0.1253 -0.1519,0.1701 -0.0581,0.0442 -0.125,0.0802 -0.2013,0.1111 -0.0807,0.0312 -0.174,0.0541 -0.286,0.072 -0.1068,0.0179 -0.2409,0.0269 -0.398,0.0269 -0.1471,0 -0.2721,-0.005 -0.375,-0.0178 -0.0981,-0.0139 -0.1701,-0.0409 -0.2143,-0.072 -0.0448,-0.036 -0.0669,-0.0803 -0.0717,-0.125 -0.004,-0.0491 0.009,-0.112 0.0448,-0.1922 l 1.7155,-3.5657 v -1.6711 c 0,-0.2369 0.0269,-0.4243 0.0808,-0.5632 0.049,-0.138 0.1293,-0.2412 0.2282,-0.3129 0.102,-0.0712 0.2273,-0.116 0.3883,-0.1432 0.1568,-0.0261 0.3439,-0.04 0.563,-0.04 0.21,0 0.3932,0.0139 0.5499,0.04 0.1605,0.0272 0.286,0.072 0.3884,0.1432 0.0986,0.0717 0.1746,0.1749 0.2239,0.3129 0.049,0.1389 0.0712,0.3263 0.0712,0.5632 z m 0,-8.6147 c 0,0.2812 -0.0182,0.5181 -0.0582,0.71 -0.0402,0.1922 -0.1162,0.349 -0.223,0.4649 -0.112,0.1205 -0.2552,0.2013 -0.4292,0.2503 -0.1741,0.0491 -0.398,0.0712 -0.6701,0.0712 -0.2821,0 -0.51,-0.0221 -0.684,-0.0712 -0.1741,-0.049 -0.3172,-0.1298 -0.4201,-0.2503 -0.1072,-0.1159 -0.1783,-0.2727 -0.2191,-0.4649 -0.04,-0.1919 -0.0579,-0.4288 -0.0579,-0.71 0,-0.2951 0.0179,-0.5412 0.0579,-0.7373 0.0408,-0.197 0.1119,-0.358 0.2191,-0.474 0.1029,-0.121 0.246,-0.2009 0.4201,-0.25 0.174,-0.049 0.4019,-0.072 0.684,-0.072 0.2721,0 0.496,0.023 0.6701,0.072 0.174,0.0491 0.3172,0.129 0.4292,0.25 0.1068,0.116 0.1828,0.277 0.223,0.474 0.04,0.1961 0.0582,0.4422 0.0582,0.7373 z m -9.3881,-0.3802 c -0.313,-0.0447 -0.6341,-0.0759 -0.9652,-0.089 -0.326,-0.0139 -0.6301,-0.0181 -0.9113,-0.0181 -0.5899,0 -1.0812,0.049 -1.4749,0.1519 -0.3974,0.0984 -0.7104,0.2455 -0.9513,0.4334 -0.237,0.188 -0.4071,0.4111 -0.5052,0.6659 -0.1028,0.2503 -0.1519,0.5315 -0.1519,0.8402 0,0.3124 0.0578,0.5984 0.1741,0.8484 0.1207,0.2509 0.295,0.4609 0.536,0.6301 0.237,0.1698 0.5451,0.3039 0.9161,0.3932 0.3759,0.0938 0.8941,0.1389 1.5642,0.1389 h 1.7694 z m 2.1716,10.5322 c 0,0.0711 -0.0133,0.1289 -0.0442,0.1828 -0.0318,0.0541 -0.085,0.0941 -0.1658,0.1253 -0.0803,0.0309 -0.1874,0.0539 -0.3303,0.0717 -0.1389,0.0173 -0.322,0.0264 -0.5499,0.0264 -0.2143,0 -0.3892,-0.009 -0.5272,-0.0264 -0.1432,-0.0178 -0.2549,-0.0408 -0.3351,-0.0717 -0.085,-0.0312 -0.1431,-0.0712 -0.174,-0.1253 -0.0318,-0.049 -0.0451,-0.1117 -0.0451,-0.1828 v -4.9558 h -1.2422 c -0.5411,0 -0.9603,0.0447 -1.2642,0.1298 -0.2999,0.089 -0.5723,0.2321 -0.8093,0.4379 -0.2409,0.2053 -0.4558,0.4692 -0.648,0.7864 -0.1919,0.3172 -0.375,0.7061 -0.5491,1.171 l -0.9564,2.3006 c -0.0448,0.1119 -0.0895,0.206 -0.1428,0.2729 -0.0539,0.0712 -0.1299,0.125 -0.2279,0.1653 -0.0984,0.04 -0.2282,0.0669 -0.3802,0.0808 -0.1519,0.013 -0.3393,0.0173 -0.5672,0.0173 -0.161,0 -0.3081,-0.004 -0.4331,-0.0133 -0.1259,-0.009 -0.233,-0.0222 -0.322,-0.0448 -0.0851,-0.0221 -0.152,-0.0581 -0.1922,-0.1072 -0.0448,-0.0448 -0.0669,-0.1071 -0.0669,-0.174 0,-0.063 0.0221,-0.161 0.0711,-0.2951 0.0491,-0.1341 0.148,-0.3711 0.2951,-0.7101 l 0.9431,-2.2124 c 0.2452,-0.5582 0.5451,-1.0412 0.9023,-1.4432 0.3577,-0.4062 0.769,-0.7061 1.233,-0.8983 -0.8489,-0.1561 -1.519,-0.496 -2.0242,-1.0142 -0.5003,-0.523 -0.7503,-1.211 -0.7503,-2.0684 0,-0.5681 0.1162,-1.0812 0.3532,-1.5421 0.237,-0.46 0.5808,-0.8484 1.0412,-1.1662 0.4552,-0.3214 1.0182,-0.5672 1.6883,-0.7372 0.6661,-0.1693 1.4303,-0.2543 2.2974,-0.2543 0.205,0 0.451,0.0042 0.7232,0.013 0.2772,0.0091 0.559,0.0221 0.8492,0.0403 0.2951,0.0178 0.5769,0.0357 0.8538,0.0578 0.2724,0.023 0.5094,0.0408 0.7104,0.0581 0.2633,0.0269 0.46,0.1211 0.5902,0.2909 0.1289,0.1652 0.1961,0.371 0.1961,0.6122 z m -14.7997,-5.3842 h -1.8453 c -0.5893,0 -1.1036,0.0491 -1.5415,0.1511 -0.4331,0.099 -0.7951,0.2509 -1.086,0.4471 -0.2854,0.197 -0.4955,0.4291 -0.6344,0.7061 -0.134,0.2772 -0.2009,0.5941 -0.2009,0.9521 0,0.612 0.1919,1.0993 0.5811,1.4604 0.388,0.362 0.9292,0.546 1.6305,0.546 0.5629,0 1.0907,-0.1432 1.5732,-0.434 0.4827,-0.286 0.9921,-0.7282 1.5233,-1.3224 z m 2.1453,5.3972 c 0,0.1029 -0.036,0.1831 -0.1029,0.237 -0.0714,0.0538 -0.1653,0.089 -0.2903,0.1159 -0.121,0.027 -0.2999,0.0403 -0.5363,0.0403 -0.2236,0 -0.4068,-0.0133 -0.5408,-0.0403 -0.1341,-0.0269 -0.2322,-0.0621 -0.2951,-0.1159 -0.0621,-0.0539 -0.0939,-0.1298 -0.0939,-0.237 v -1.1795 c -0.5133,0.5494 -1.0853,0.9785 -1.7203,1.2824 -0.6344,0.2991 -1.3045,0.4513 -2.0106,0.4513 -0.6211,0 -1.184,-0.0802 -1.6844,-0.2412 -0.5008,-0.1611 -0.9292,-0.398 -1.2824,-0.7013 -0.3529,-0.3039 -0.6298,-0.684 -0.8268,-1.1262 -0.1962,-0.4471 -0.2951,-0.9519 -0.2951,-1.5191 0,-0.6662 0.1341,-1.2425 0.407,-1.7294 0.2679,-0.4919 0.6563,-0.8983 1.1662,-1.2201 0.5052,-0.3214 1.1262,-0.5672 1.8584,-0.7282 0.7331,-0.161 1.5594,-0.2412 2.4755,-0.2412 h 1.6265 v -0.9202 c 0,-0.4518 -0.049,-0.854 -0.1431,-1.2069 -0.0981,-0.3484 -0.25,-0.6393 -0.4643,-0.8714 -0.2149,-0.2322 -0.4918,-0.4062 -0.8312,-0.523 -0.3398,-0.1202 -0.7599,-0.1783 -1.2551,-0.1783 -0.5321,0 -1.0103,0.0624 -1.4304,0.1922 -0.4241,0.1292 -0.7951,0.2679 -1.1123,0.424 -0.3178,0.1571 -0.5859,0.2951 -0.8,0.425 -0.21,0.1292 -0.371,0.1921 -0.4739,0.1921 -0.0712,0 -0.1341,-0.0181 -0.1831,-0.0538 -0.0533,-0.0312 -0.0981,-0.085 -0.1381,-0.1562 -0.0408,-0.0672 -0.0671,-0.1568 -0.085,-0.2639 -0.0181,-0.1114 -0.0269,-0.2279 -0.0269,-0.362 0,-0.2143 0.013,-0.3883 0.0448,-0.5133 0.0311,-0.125 0.1071,-0.2461 0.223,-0.3581 0.1163,-0.1111 0.3221,-0.2457 0.6081,-0.4019 0.2854,-0.1522 0.621,-0.2951 0.9963,-0.4244 0.3711,-0.125 0.7821,-0.2327 1.2283,-0.3172 0.4431,-0.0847 0.894,-0.1255 1.3453,-0.1255 0.8442,0 1.5642,0.0938 2.1583,0.286 0.5942,0.1919 1.0724,0.4782 1.4386,0.849 0.3668,0.371 0.6299,0.8311 0.7957,1.3813 0.1652,0.5491 0.2503,1.1922 0.2503,1.9253 z m -12.8874,-0.013 c 0,0.0711 -0.0179,0.1289 -0.0531,0.1788 -0.036,0.0443 -0.0898,0.089 -0.17,0.125 -0.0803,0.0312 -0.188,0.0582 -0.3308,0.076 -0.1384,0.0173 -0.3124,0.0264 -0.5225,0.0264 -0.2239,0 -0.4022,-0.009 -0.5408,-0.0264 -0.1432,-0.0178 -0.2503,-0.0448 -0.3311,-0.076 -0.0802,-0.036 -0.1341,-0.0807 -0.1692,-0.125 -0.036,-0.0499 -0.0539,-0.1077 -0.0539,-0.1788 v -5.1701 h -5.9783 v 5.1701 c 0,0.0711 -0.0181,0.1289 -0.0538,0.1788 -0.036,0.0443 -0.0893,0.089 -0.1701,0.125 -0.0802,0.0312 -0.1874,0.0582 -0.3302,0.076 -0.1389,0.0173 -0.3178,0.0264 -0.5361,0.0264 -0.2148,0 -0.3892,-0.009 -0.5281,-0.0264 -0.1428,-0.0178 -0.2542,-0.0448 -0.335,-0.076 -0.0848,-0.036 -0.1429,-0.0807 -0.1741,-0.125 -0.0311,-0.0499 -0.0447,-0.1077 -0.0447,-0.1788 v -11.7876 c 0,-0.0717 0.0136,-0.1298 0.0447,-0.1789 0.0312,-0.0448 0.0893,-0.089 0.1741,-0.1298 0.0808,-0.04 0.1922,-0.0672 0.335,-0.0802 0.1389,-0.0131 0.3133,-0.0179 0.5281,-0.0179 0.2183,0 0.3972,0.0048 0.5361,0.0179 0.1428,0.013 0.25,0.0402 0.3302,0.0802 0.0808,0.0408 0.1341,0.085 0.1701,0.1298 0.0357,0.0491 0.0538,0.1072 0.0538,0.1789 v 4.7942 h 5.9783 v -4.7942 c 0,-0.0717 0.0179,-0.1298 0.0539,-0.1789 0.0351,-0.0448 0.089,-0.089 0.1692,-0.1298 0.0808,-0.04 0.1879,-0.0672 0.3311,-0.0802 0.1386,-0.0131 0.3169,-0.0179 0.5408,-0.0179 0.2101,0 0.3841,0.0048 0.5225,0.0179 0.1428,0.013 0.2505,0.0402 0.3308,0.0802 0.0802,0.0408 0.134,0.085 0.17,0.1298 0.0352,0.0491 0.0531,0.1072 0.0531,0.1789 z m -15.4063,-3.606 c 0,-0.362 -0.0579,-0.688 -0.1698,-0.983 -0.112,-0.2909 -0.2994,-0.5412 -0.5633,-0.7461 -0.2591,-0.2061 -0.6029,-0.3671 -1.0182,-0.474 -0.4201,-0.1119 -0.934,-0.1652 -1.542,-0.1652 -0.3663,0 -0.7283,0.009 -1.0815,0.0269 -0.3529,0.0173 -0.6743,0.04 -0.9603,0.0672 v 4.5487 c 0.3033,0.0312 0.6295,0.0621 0.9825,0.089 0.3489,0.027 0.733,0.0403 1.1622,0.0403 1.0811,0 1.8813,-0.2143 2.4035,-0.6392 0.5229,-0.4241 0.7869,-1.0143 0.7869,-1.7646 z m 2.2787,-0.1477 c 0,0.603 -0.1114,1.1662 -0.335,1.6892 -0.2234,0.523 -0.5672,0.9782 -1.0412,1.3623 -0.4691,0.385 -1.0723,0.6883 -1.8054,0.9071 -0.7373,0.224 -1.6126,0.3354 -2.6359,0.3354 -0.2327,0 -0.4788,0 -0.7331,-0.004 -0.2548,-0.004 -0.5008,-0.013 -0.746,-0.0269 -0.2461,-0.0131 -0.4831,-0.0312 -0.7192,-0.0491 -0.237,-0.013 -0.47,-0.036 -0.697,-0.0629 -0.3671,-0.0442 -0.635,-0.1602 -0.809,-0.3523 -0.1744,-0.1928 -0.2642,-0.487 -0.2642,-0.881 v -10.9517 c 0,-0.0717 0.0139,-0.1298 0.0451,-0.1789 0.0311,-0.0448 0.089,-0.089 0.174,-0.1298 0.0808,-0.04 0.1922,-0.0672 0.3351,-0.0802 0.1389,-0.0131 0.3129,-0.0179 0.5278,-0.0179 0.2094,0 0.3841,0.0048 0.5224,0.0179 0.1429,0.013 0.2548,0.0402 0.335,0.0802 0.0851,0.0408 0.1432,0.085 0.1789,0.1298 0.036,0.0491 0.0539,0.1072 0.0539,0.1789 v 4.151 c 0.3214,-0.0269 0.6704,-0.049 1.0454,-0.0629 0.3753,-0.013 0.7594,-0.0179 1.1531,-0.0179 0.9513,0 1.7694,0.0939 2.4526,0.2818 0.684,0.1879 1.2424,0.4561 1.6803,0.8042 0.438,0.3489 0.76,0.7642 0.9695,1.2512 0.21,0.4822 0.3129,1.0281 0.3129,1.6265 z"
     style="fill:#1b1918;fill-rule:evenodd"
     id="path424" />
  <path
     d="m 133.20652,633.39624 c 0,0.1641 -0.01,0.31 -0.0327,0.4363 -0.024,0.1321 -0.0566,0.2396 -0.0987,0.3245 -0.0421,0.0893 -0.0944,0.1503 -0.1648,0.1924 -0.0705,0.0421 -0.1452,0.061 -0.2251,0.061 h -9.8511 c -0.1263,0 -0.2395,-0.0138 -0.3383,-0.0472 -0.0936,-0.0327 -0.1778,-0.0842 -0.2439,-0.1597 -0.0704,-0.0704 -0.122,-0.1779 -0.1546,-0.3144 -0.0334,-0.1357 -0.0472,-0.3049 -0.0472,-0.5067 0,-0.1837 0.009,-0.3434 0.0232,-0.4792 0.0145,-0.1364 0.0428,-0.2584 0.0893,-0.3666 0.0472,-0.1031 0.1082,-0.2062 0.1786,-0.3143 0.0704,-0.1031 0.1641,-0.2157 0.2773,-0.3333 l 3.5589,-3.6626 c 0.8261,-0.8451 1.4839,-1.6009 1.9812,-2.2724 0.498,-0.6665 0.8785,-1.277 1.1507,-1.831 0.2672,-0.5495 0.4458,-1.0476 0.5307,-1.4977 0.0842,-0.4508 0.1263,-0.8734 0.1263,-1.2683 0,-0.3942 -0.0653,-0.7696 -0.1967,-1.1217 -0.1365,-0.3521 -0.3245,-0.6621 -0.5779,-0.93 -0.249,-0.2679 -0.5634,-0.4791 -0.9438,-0.6338 -0.3753,-0.1546 -0.8124,-0.2345 -1.3053,-0.2345 -0.5772,0 -1.0941,0.0799 -1.5544,0.2345 -0.4552,0.1547 -0.8588,0.3289 -1.2066,0.5119 -0.3427,0.1829 -0.6338,0.3564 -0.8639,0.5118 -0.2302,0.1546 -0.4037,0.2345 -0.5162,0.2345 -0.0661,0 -0.1271,-0.0189 -0.1786,-0.0559 -0.0516,-0.0378 -0.0937,-0.0944 -0.1271,-0.1786 -0.0326,-0.0799 -0.0609,-0.1924 -0.0791,-0.3289 -0.0189,-0.1408 -0.0283,-0.3049 -0.0283,-0.4973 0,-0.1365 0.004,-0.2541 0.0138,-0.3572 0.009,-0.0987 0.0232,-0.188 0.0472,-0.2628 0.0232,-0.0704 0.0515,-0.1408 0.0893,-0.2069 0.037,-0.061 0.1125,-0.1409 0.2207,-0.2396 0.1125,-0.0936 0.3005,-0.225 0.5728,-0.3891 0.2671,-0.1692 0.6098,-0.3289 1.0186,-0.4886 0.4036,-0.1641 0.8545,-0.2955 1.3474,-0.4088 0.4886,-0.1074 1.0048,-0.164 1.5449,-0.164 0.864,0 1.6197,0.1219 2.263,0.3659 0.6483,0.2395 1.1833,0.5728 1.6109,0.996 0.4269,0.4226 0.7464,0.9104 0.9576,1.4695 0.2113,0.559 0.3151,1.155 0.3151,1.7888 0,0.5685 -0.0523,1.1362 -0.1503,1.6996 -0.1038,0.5633 -0.315,1.1739 -0.6388,1.8317 -0.3289,0.657 -0.7979,1.3844 -1.4136,2.1874 -0.6105,0.8029 -1.4273,1.7279 -2.4458,2.7755 l -2.8176,2.9439 h 7.7478 c 0.0704,0 0.1408,0.0189 0.2113,0.061 0.0704,0.0421 0.1314,0.1031 0.1778,0.1829 0.0523,0.085 0.0893,0.1881 0.1133,0.31 0.0232,0.122 0.0327,0.2679 0.0327,0.432 z m 6.5877,-0.498 c 0,0.6526 -0.1082,1.0846 -0.3238,1.3009 -0.2164,0.2157 -0.6055,0.3238 -1.174,0.3238 -0.5539,0 -0.9343,-0.1081 -1.1456,-0.3194 -0.2113,-0.2113 -0.3144,-0.6338 -0.3144,-1.2676 0,-0.6527 0.1075,-1.0846 0.3238,-1.3003 0.2157,-0.2163 0.6055,-0.3245 1.174,-0.3245 0.5539,0 0.9343,0.1038 1.1456,0.3151 0.2062,0.2113 0.3144,0.6382 0.3144,1.272 z m 15.5319,-3.5444 c 0,0.2999 -0.0464,0.5395 -0.1357,0.7137 -0.0944,0.1735 -0.2207,0.2577 -0.3855,0.2577 h -2.0096 v 3.7425 c 0,0.0748 -0.0189,0.1358 -0.0559,0.1881 -0.0377,0.0464 -0.1038,0.0936 -0.1975,0.1314 -0.0936,0.0326 -0.2207,0.061 -0.3709,0.0798 -0.1503,0.0182 -0.3427,0.0276 -0.5772,0.0276 -0.2302,0 -0.4182,-0.009 -0.5685,-0.0276 -0.1502,-0.0188 -0.2722,-0.0472 -0.3615,-0.0798 -0.0893,-0.0378 -0.1503,-0.085 -0.183,-0.1314 -0.0326,-0.0523 -0.0515,-0.1133 -0.0515,-0.1881 v -3.7425 h -7.2876 c -0.1125,0 -0.2018,-0.0138 -0.2722,-0.0421 -0.0748,-0.0283 -0.1409,-0.0748 -0.2018,-0.1503 -0.0567,-0.0704 -0.0988,-0.1786 -0.122,-0.3143 -0.024,-0.1365 -0.0327,-0.3151 -0.0327,-0.5358 0,-0.1735 0.004,-0.3282 0.0138,-0.4646 0.01,-0.1358 0.0283,-0.2629 0.0566,-0.3754 0.0233,-0.1176 0.061,-0.2258 0.1075,-0.3289 0.0421,-0.1081 0.0987,-0.2207 0.1648,-0.3383 l 6.3481,-10.8275 c 0.0465,-0.0748 0.1169,-0.1358 0.2062,-0.1924 0.0893,-0.0559 0.2018,-0.1031 0.3427,-0.1357 0.1408,-0.0378 0.315,-0.0661 0.5169,-0.0799 0.2062,-0.0145 0.4508,-0.0189 0.7325,-0.0189 0.3049,0 0.5772,0.01 0.803,0.0327 0.2301,0.0232 0.4174,0.0566 0.5539,0.0893 0.1408,0.0377 0.249,0.0893 0.3238,0.1452 0.0755,0.0617 0.1125,0.1321 0.1125,0.2163 v 11.3771 h 2.0096 c 0.1553,0 0.2817,0.0799 0.376,0.2396 0.0988,0.159 0.1452,0.4037 0.1452,0.7325 z m -4.8968,-10.7527 h -0.0283 l -5.7281,9.7806 h 5.7564 z m 10.7571,14.2971 c 0,0.6526 -0.1082,1.0846 -0.3238,1.3009 -0.2164,0.2157 -0.6055,0.3238 -1.1739,0.3238 -0.554,0 -0.9344,-0.1081 -1.1457,-0.3194 -0.2112,-0.2113 -0.3143,-0.6338 -0.3143,-1.2676 0,-0.6527 0.1074,-1.0846 0.3238,-1.3003 0.2156,-0.2163 0.6054,-0.3245 1.1739,-0.3245 0.5539,0 0.9344,0.1038 1.1456,0.3151 0.2062,0.2113 0.3144,0.6382 0.3144,1.272 z m 15.1987,-3.0608 c 0,0.7695 -0.1357,1.4556 -0.4131,2.056 -0.2773,0.6011 -0.6715,1.1086 -1.1877,1.5217 -0.5213,0.4087 -1.1601,0.7231 -1.9203,0.9343 -0.7659,0.2113 -1.6342,0.3144 -2.6157,0.3144 -0.9206,0 -1.7417,-0.0988 -2.4648,-0.2911 -0.7231,-0.1924 -1.3387,-0.4741 -1.8455,-0.8495 -0.5024,-0.376 -0.8871,-0.8407 -1.155,-1.3902 -0.2679,-0.5489 -0.3993,-1.1783 -0.3993,-1.8826 0,-0.559 0.0944,-1.0708 0.2773,-1.5405 0.183,-0.4647 0.4458,-0.8966 0.7884,-1.2908 0.3478,-0.3943 0.7703,-0.7652 1.2771,-1.1079 0.5031,-0.3434 1.0759,-0.6716 1.7097,-0.9816 -0.5547,-0.2867 -1.0382,-0.5822 -1.4607,-0.9016 -0.4225,-0.3144 -0.7841,-0.6571 -1.0752,-1.0281 -0.2955,-0.376 -0.5162,-0.7702 -0.6716,-1.1928 -0.1502,-0.4181 -0.225,-0.8777 -0.225,-1.3757 0,-0.62 0.1125,-1.2066 0.3383,-1.7511 0.225,-0.5453 0.5634,-1.0193 1.0186,-1.423 0.4552,-0.4036 1.0331,-0.7231 1.7373,-0.9532 0.6998,-0.2345 1.5209,-0.3521 2.4604,-0.3521 0.8966,0 1.6763,0.1081 2.3333,0.3238 0.6578,0.2163 1.1979,0.5074 1.6248,0.8784 0.4276,0.371 0.742,0.8073 0.9438,1.3148 0.2018,0.5024 0.3049,1.0418 0.3049,1.6197 0,0.4697 -0.0748,0.9155 -0.225,1.3474 -0.1547,0.432 -0.3754,0.8408 -0.6716,1.2255 -0.2911,0.3848 -0.6527,0.742 -1.0795,1.0803 -0.4276,0.3332 -0.9162,0.6476 -1.4702,0.9387 0.6527,0.3238 1.2306,0.6527 1.7373,0.991 0.5119,0.3376 0.9344,0.7042 1.2771,1.0941 0.3434,0.3891 0.6062,0.8029 0.784,1.2349 0.1786,0.4363 0.2679,0.9155 0.2679,1.4368 z m -2.9577,-9.1331 c 0,-0.3848 -0.066,-0.7369 -0.2018,-1.0469 -0.1321,-0.3143 -0.3245,-0.5771 -0.5823,-0.7978 -0.2584,-0.2207 -0.5779,-0.3899 -0.9583,-0.5024 -0.3804,-0.1176 -0.8124,-0.1743 -1.3002,-0.1743 -0.991,0 -1.7424,0.2258 -2.2492,0.6767 -0.5118,0.4508 -0.7652,1.0657 -0.7652,1.8447 0,0.3572 0.061,0.6904 0.1873,0.9954 0.122,0.31 0.3151,0.6011 0.5779,0.8784 0.2578,0.2723 0.5917,0.5445 0.9903,0.803 0.3993,0.2628 0.8734,0.535 1.4229,0.8218 0.93,-0.4792 1.6386,-1.0048 2.1366,-1.5827 0.493,-0.5822 0.742,-1.2204 0.742,-1.9159 z m 0.5634,9.3864 c 0,-0.4225 -0.0799,-0.8029 -0.2352,-1.1507 -0.1547,-0.3426 -0.3892,-0.6621 -0.7086,-0.9619 -0.3151,-0.2962 -0.7093,-0.5874 -1.1834,-0.869 -0.4741,-0.2774 -1.0193,-0.5685 -1.6436,-0.8734 -0.5772,0.2868 -1.0847,0.5684 -1.521,0.8545 -0.4371,0.2868 -0.7935,0.5779 -1.0752,0.8828 -0.2773,0.3006 -0.4886,0.62 -0.6338,0.9576 -0.1408,0.3339 -0.2113,0.7049 -0.2113,1.1086 0,0.8871 0.305,1.5776 0.9155,2.0654 0.6106,0.4843 1.521,0.7282 2.7327,0.7282 1.1739,0 2.0611,-0.2439 2.6622,-0.7369 0.6011,-0.4886 0.9017,-1.1601 0.9017,-2.0052 z"
     style="fill:#1b1918;fill-rule:evenodd"
     id="path426" />
  <g
     id="Layer1019"
     transform="translate(-149.61838,-195.13626)">
    <path
       d="m 323.4156,445.5931 c -1.159,-0.2005 -12.5902,-8.1521 -14.6277,-9.461 -0.7393,-0.475 -1.571,-0.9413 -2.918,-1.6599 -5.4584,-1.1442 -7.6054,1.9351 -7.8376,1.8233 -2.1893,-0.993 -3.638,-2.6372 -7.417,-2.1479 l -2.4158,0.8784 -0.1654,0.1326 -17.5924,9.2195 1.157,1.703 c 2.1128,3.9065 3.5456,4.3794 5.0658,6.8102 9.1522,7.7423 17.3344,3.5154 20.4201,3.5025 9.9409,-0.0408 15.5906,5.4656 26.331,-10.8007 z"
       style="fill:#e30016;fill-rule:evenodd"
       id="path428" />
    <path
       d="m 292.4199,446.1097 14.6379,0.3245 c 2.7804,0.263 13.3683,-0.0802 19.839,1.1384 6.2343,1.1749 9.6286,-3.1637 0.6247,-2.6744 -7.4507,0.4055 -35.0944,1.2165 -35.1016,1.2115 z"
       style="fill:#1b1918;fill-rule:evenodd"
       id="path430" />
    <path
       d="m 293.3115,714.9975 c -41.3763,-0.0287 -74.9218,4.9732 -74.9261,11.1723 -0.004,6.1991 33.5343,11.2475 74.9105,11.2762 41.3763,0.0286 74.9218,-4.9732 74.9261,-11.1724 0.004,-6.1991 -33.5343,-11.2474 -74.9105,-11.2761 z"
       style="fill:#1b1918;fill-rule:evenodd"
       id="path432" />
    <path
       d="m 292.8787,712.4888 c -40.8662,-0.0284 -73.9988,4.0389 -74.0023,9.085 -0.004,5.046 33.1234,9.1592 73.9897,9.1876 40.8684,0.0283 73.9995,-4.039 74.003,-9.0851 0.003,-5.046 -33.122,-9.1592 -73.9904,-9.1875 z"
       style="fill:#ffffff;fill-rule:evenodd;stroke:#1b1918;stroke-width:0.5669;stroke-linecap:butt;stroke-linejoin:miter;stroke-dasharray:none"
       id="path434" />
    <path
       d="m 364.0325,248.3414 c 11.8298,43.7855 26.8228,81.8295 24.187,151.8533 -5.3517,32.9717 -14.4187,67.6889 -65.1276,111.7487 -14.1135,14.8085 -20.8338,38.454 -21.0577,63.5631 l -0.5177,122.3866 c -0.6527,10.1798 1.0012,17.6052 11.967,22.6328 -9.7762,2.8061 -28.8264,4.1412 -41.0388,-0.3779 8.5639,-0.9175 13.7182,-11.324 13.58,-22.7479 -0.4767,-39.3856 -0.9344,-111.9141 -1.433,-122.597 -2.2353,-24.7468 -3.7959,-49.9866 -21.2383,-64.8972 -47.5655,-32.0919 -66.3975,-72.5882 -70.3708,-117.4324 -2.0238,-44.309 7.908,-94.3903 22.7008,-146.8189 -10.4538,50.5339 -19.4587,100.1898 -16.3799,142.5243 5.1443,32.5562 7.7968,64.7581 65.5365,104.8434 17.1929,9.3119 34.5192,8.9354 51.991,-1.7827 42.4701,-27.4559 62.6642,-58.9446 65.1632,-93.6362 2.7954,-54.6118 -8.5334,-101.4109 -17.9617,-149.262 z"
       style="fill:#1b1918;fill-rule:evenodd"
       id="path436" />
    <path
       d="m 280.2654,386.6346 c 1.3834,-23.0891 -21.1801,-40.6665 -42.0198,-37.0829 -7.4915,1.2891 -10.182,11.6842 -18.3043,-1.031 5.3218,43.2599 45.2137,39.8076 60.3241,38.1139 z m -0.0166,0.5745 c -6.2693,-34.3707 -48.2494,-39.9209 -52.0478,-26.2391 4.707,21.2284 38.4493,27.7642 52.0478,26.2391 z"
       style="fill:#1b1918;fill-rule:evenodd"
       id="path438" />
    <g
       id="Layer1020">
      <path
         d="m 258.5613,362.7431 c -6.0121,-1.7889 -11.9971,1.5009 -13.3633,7.3483 -1.3669,5.8474 2.4022,12.0394 8.4136,13.8283 6.0122,1.7896 11.9971,-1.5002 13.3641,-7.3476 1.3662,-5.8474 -2.4022,-12.0401 -8.4144,-13.829 z"
         style="fill:#1b1918;fill-rule:evenodd"
         id="path440" />
      <path
         d="m 259.704,367.2121 c -1.6929,-0.6784 -3.5914,0.0839 -4.2412,1.7037 -0.6498,1.6191 0.1956,3.4825 1.8885,4.1616 1.6929,0.6792 3.5914,-0.0838 4.2412,-1.7029 0.6498,-1.6198 -0.1956,-3.4832 -1.8885,-4.1624 z"
         style="fill:#ffffff;fill-rule:evenodd"
         id="path442" />
      <path
         d="m 260.5186,376.0993 c -0.7816,-0.3138 -1.6578,0.0387 -1.958,0.7859 -0.2994,0.7479 0.0903,1.6076 0.8719,1.9214 0.7809,0.3131 1.6578,-0.0387 1.9572,-0.7866 0.3002,-0.7472 -0.0902,-1.6076 -0.8711,-1.9207 z"
         style="fill:#ffffff;fill-rule:evenodd"
         id="path444" />
    </g>
    <path
       d="m 315.8708,386.881 c 0.0905,-21.0309 18.9851,-36.4865 40.0032,-35.3267 7.4435,0.4112 9.9525,9.7447 15.038,-1.8421 -4.4644,45.8342 -41.539,35.2601 -55.0412,37.1688 z m -0.018,0.5241 c 7.6289,-29.6081 40.387,-35.2749 47.1952,-25.8573 -4.4785,23.74 -35.3586,26.7173 -47.1952,25.8573 z"
       style="fill:#1b1918;fill-rule:evenodd"
       id="path447" />
    <g
       id="Layer1021">
      <path
         d="m 349.5857,361.2823 c -5.0579,-4.2977 -12.2572,-3.6651 -16.075,1.4143 -3.8185,5.0786 -2.8112,12.6827 2.2474,16.9805 5.0586,4.297 12.2579,3.6652 16.0757,-1.4142 3.8185,-5.0794 2.8105,-12.6835 -2.2481,-16.9806 z"
         style="fill:#1b1918;fill-rule:evenodd"
         id="path449" />
      <path
         d="m 348.7862,366.0974 c -1.3498,-1.3798 -3.5141,-1.4515 -4.8337,-0.1605 -1.3203,1.291 -1.2967,3.4567 0.053,4.8358 1.3498,1.3798 3.5133,1.4515 4.8337,0.1605 1.3196,-1.291 1.296,-3.456 -0.053,-4.8358 z"
         style="fill:#ffffff;fill-rule:evenodd"
         id="path451" />
      <path
         d="m 345.783,375.0504 c -0.6233,-0.6368 -1.622,-0.6698 -2.231,-0.0745 -0.6096,0.5961 -0.5989,1.5955 0.0244,2.2324 0.6226,0.6369 1.622,0.6698 2.2309,0.0738 0.609,-0.5961 0.5982,-1.5948 -0.0243,-2.2317 z"
         style="fill:#ffffff;fill-rule:evenodd"
         id="path453" />
    </g>
    <path
       d="m 316.0079,387.9517 c 14.6786,-21.4796 45.2884,-26.221 48.9529,-28.3787 5.1453,-3.0297 4.1006,-0.7415 -4.9376,-4.3859 -20.7582,-8.3692 -42.3575,10.9046 -44.0153,32.7646 z"
       style="fill:#1b1918;fill-rule:evenodd"
       id="path456" />
    <path
       d="m 280.2824,387.3614 c -12.1267,-20.5597 -44.9789,-31.2709 -52.6137,-26.6485 -5.7735,3.4946 -5.5414,-4.017 4.6832,-8.112 13.7359,-5.5014 17.2965,-3.1272 31.8083,6.0185 2.9093,1.8334 15.2775,11.2828 16.1222,28.742 z"
       style="fill:#1b1918;fill-rule:evenodd"
       id="path458" />
    <path
       d="m 302.8851,348.2632 c 0.5918,-8.892 -2.4243,4.0485 -2.582,5.7397 -1.6915,18.1458 -3.1663,34.0043 15.255,46.6273 -0.0804,5.6391 -8.7128,8.9044 -11.7494,10.0526 -2.5181,0.9521 -3.8767,3.7242 -2.9521,6.7113 1.057,-5.1602 3.6953,-4.9113 3.7987,-4.9504 3.395,-1.2838 13.2292,-5.0029 12.699,-12.1671 l -0.002,-3e-4 c -0.0236,-0.3123 -0.2008,-0.6294 -0.4931,-0.8253 -17.8307,-11.9384 -16.3942,-27.3472 -14.7487,-44.9995 0.2478,-2.6584 0.5755,-3.3291 0.7751,-6.1883 z"
       style="fill:#1b1918;fill-rule:evenodd"
       id="path460" />
    <path
       d="m 297.7454,408.9614 c -1.7005,0.9646 -6.241,8.6921 -6.3962,1.7579 -0.032,-1.4313 5.9285,-1.4925 6.3962,-1.7579 z"
       style="fill:#1b1918;fill-rule:evenodd"
       id="path462" />
    <path
       d="m 289.3033,235.0557 c -42.4988,-0.0294 -76.9539,4.9718 -76.9582,11.1709 -0.004,6.1992 34.4438,11.2481 76.9426,11.2776 42.4988,0.0294 76.9539,-4.9718 76.9582,-11.1709 0.004,-6.1991 -34.4439,-11.2481 -76.9426,-11.2776 z m -4.024,2.0852 c -36.8136,-0.0255 -66.6604,4.044 -66.6639,9.0901 -0.004,5.046 29.8376,9.157 66.6512,9.1825 36.815,0.0255 66.6611,-4.0441 66.6646,-9.0901 0.004,-5.0461 -29.8369,-9.157 -66.6519,-9.1825 z"
       style="fill:#1b1918;fill-rule:evenodd"
       id="path464" />
    <path
       d="m 293.2939,519.478 h -7e-4 c -2.4172,-10e-4 -4.3945,1.973 -4.3959,4.3902 l -0.139,200.3997 c -0.002,2.4158 1.973,4.3945 4.3902,4.3959 h 7e-4 c 2.4165,0.002 4.3945,-1.9737 4.3967,-4.3894 l 0.1382,-200.4005 c 0.002,-2.4165 -1.9737,-4.3938 -4.3902,-4.3959 z"
       style="fill:#ffffff;fill-rule:evenodd"
       id="path466" />
    <path
       d="m 315.492,343.2264 c 0.7028,-1.7124 -2.177,-9.2598 -0.2511,-9.2582 25.9869,0.0232 32.6949,-33.7007 59.4715,-4.2877 0.0137,0.0151 -18.2837,-7.2832 -30.2261,3.5934 -16.422,14.9548 -30.0947,12.6306 -28.9943,9.9525 z"
       style="fill:#1b1918;fill-rule:evenodd"
       id="path468" />
    <path
       d="m 321.7428,428.0785 c 0.5047,1.0456 0.2599,2.2674 -0.9215,2.3428 -1.8378,0.1172 -2.0427,-3.8397 0.9215,-2.3428 z"
       style="fill:#1b1918;fill-rule:evenodd"
       id="path470" />
    <path
       d="m 308.4774,469.0505 c 3.8511,1.5686 -10.9859,-9.8323 -24.9186,0.0842 5.267,-2.4128 19.6423,-3.4538 24.9186,-0.0842 z"
       style="fill:#1b1918;fill-rule:evenodd"
       id="path472" />
    <path
       d="m 285.8329,343.2267 c -0.7025,-1.7112 1.1022,-7.9717 -0.8224,-7.9704 -25.9871,0.0214 -30.3335,-35.6336 -75.5796,-1.7099 -0.016,0.0122 32.8876,-14.1553 46.3342,1.0156 14.731,16.6219 31.1671,11.3425 30.0678,8.6647 z"
       style="fill:#1b1918;fill-rule:evenodd"
       id="path474" />
    <path
       d="m 303.5186,446.6649 c -9.3736,-0.0587 -27.0303,-1.2929 -35.032,0.2142 -6.2343,1.1742 -9.6287,-3.1637 -0.6247,-2.6744 7.4507,0.4055 35.6496,2.4652 35.6567,2.4602 z"
       style="fill:#1b1918;fill-rule:evenodd"
       id="path476" />
    <g
       id="Layer1022">
      <path
         d="m 212.2443,529.9649 c 4.2712,9.2167 5.6782,29.9656 1.95,43.9529 -0.0615,5.4611 1.0461,23.5686 -3.3321,24.6749 -2.6277,1.0015 -2.9064,0.0759 -5.1001,-1.5118 -6.9758,10.7098 -19.4192,-2.5224 -24.6985,-7.4529 -0.303,-0.2536 1.9795,1.7954 -7.685,8.4895 -2.4336,5.5967 -4.8673,11.1927 -7.3017,16.7885 -3.9059,7.1743 -5.7442,18.2617 -15.1408,14.4625 l -0.5272,-0.245 0.1475,-0.5623 c 2.5525,-9.7464 6.8225,-19.9632 9.6431,-29.177 2.4781,-16.3064 8.7481,-27.3851 10.1251,-32.6405 0.227,-2.0871 15.744,-36.2809 18.2113,-41.8031 3.5119,-10.2755 7.023,-20.5517 10.535,-30.8268 l 0.257,-0.7513 0.7107,0.3537 c 3.7571,1.8686 31.0152,1.5605 29.9463,2.8694 -6.2679,7.6779 -11.4728,25.7014 -17.7406,33.3793 z"
         style="fill:#1b1918;fill-rule:evenodd"
         id="path478" />
      <path
         d="m 151.6318,628.5015 c 1.2065,-4.6036 3.4811,-9.7073 4.6876,-14.3117 1.1132,-3.6366 2.4738,-7.0304 3.5848,-10.6653 0.4033,-1.3205 3.9655,-14.4452 4.3701,-15.767 4.2671,-20.4587 17.3381,-42.6059 25.8112,-61.5752 3.5148,-10.285 6.1281,-21.5586 9.6438,-31.8441 3.1155,-7.3899 1.7372,-13.3871 6.8131,-10.8745 6.5272,3.2318 27.6807,3.0871 21.1687,12.3208 -6.3596,7.7905 -10.7701,26.6402 -17.1304,34.4305 5.6898,11.9598 6.7581,25.3955 2.807,43.116 0.0114,4.7356 -0.1592,7.6335 -0.2988,12.826 -0.9601,11.2234 -0.8196,16.6511 -8.675,10.0356 -2.3427,6.1971 -5.9262,4.9706 -12.8862,2.0855 -3.901,-3.2632 -9.5449,-7.9213 -11.8997,-14.2568 2.3103,6.9487 -4.9368,11.8325 -7.3419,13.4982 -1.839,7.3984 -6.9536,15.991 -10.2133,17.7155 -0.2685,0.796 1.3053,-0.1685 1.1849,0.6162 -1.5251,9.9223 -5.6511,14.1227 -11.6259,12.6503 z"
         style="fill:#ffffff;fill-rule:evenodd"
         id="path480" />
      <path
         d="m 181.1759,588.2031 c -0.04,-0.6594 15.4515,-18.8641 5.4478,-13.1785 -2.5847,1.4689 -0.5514,1.4677 2.1595,-3.0001 1.6368,-2.6981 1.6588,-0.4743 0.3632,-1.3871 -0.0438,-0.6684 11.6219,-2.3585 12.3405,-0.9469 3.9479,7.7543 -0.7748,2.2713 -3.3959,0.9223 -0.0854,-0.0441 -4.6308,1.0149 -5.7632,0.9341 -1.0508,-0.0751 3.1687,7.3449 6.9,7.1002 2.5914,-0.1699 0.4782,1.7081 -1.986,0.812 -2.6927,-0.9791 -0.4583,10.4115 -1.4728,11.5543 -1.7565,1.9782 1.5381,-5.4604 -1.5924,-7.5022 -4.7576,3.8743 -5.2532,1.8371 -8.6945,5.4737 -2.6185,-1.709 9.0718,-4.6137 6.0707,-9.8345 -1.9988,-3.4767 -10.4757,7.4235 -10.3769,9.0527 z"
         style="fill:#1b1918;fill-rule:evenodd"
         id="path482" />
      <path
         d="m 204.1738,595.7995 c -2.4061,-3.4626 -2.9768,-6.9609 -2.2263,-10.7886 0.2861,-1.4587 1.3012,-8.8848 1.3575,-8.8439 1.3979,1.0158 -2.2806,15.1004 0.8688,19.6325 z"
         style="fill:#1b1918;fill-rule:evenodd"
         id="path484" />
      <path
         d="m 205.0964,591.0394 c -0.2952,2.4504 0.1255,10.1939 1.5303,12.4363 3.9103,6.2421 6.0634,-10.6292 5.0365,-12.3812 -0.9974,-1.7015 -6.3072,-2.2111 -6.5668,-0.0551 z"
         style="fill:#1b1918;fill-rule:evenodd"
         id="path486" />
      <path
         d="m 205.5617,591.1229 c -0.3012,2.4998 -0.1798,9.6189 1.0963,11.6561 0.2656,0.4241 0.9686,1.9785 1.5038,1.9163 1.4013,-0.1631 2.7802,-4.7951 2.9935,-6.0133 0.253,-1.4452 0.2291,-3.4694 0.2809,-4.9474 0.0145,-0.4158 0.0406,-2.0144 -0.1641,-2.3635 -0.4402,-0.7514 -1.9578,-1.4629 -2.6876,-1.5462 -0.6652,-0.0759 -2.8956,0.2418 -3.0228,1.298 z"
         style="fill:#e30016;fill-rule:evenodd"
         id="path488" />
      <g
         id="Layer1023">
        <path
           d="m 152.3795,632.5673 c 2.2976,-2.5154 3.5653,-5.7084 4.003,-9.3829 0.22,-1.8469 -0.0894,-2.3976 -1.3195,-3.5112 -0.5878,-0.532 -0.7229,-0.4623 -1.372,-0.2545 -0.4266,0.1364 -0.5483,0.7341 -0.6914,1.2608 -0.9484,3.5175 -2.0235,7.0574 -2.972,10.5749 -0.1886,0.8049 -0.7862,2.6178 -0.0553,3.1311 0.7965,0.5591 1.9389,-1.1444 2.4072,-1.8182 z"
           style="fill:#1b1918;fill-rule:evenodd"
           id="path490" />
        <path
           d="m 153.1292,620.8141 c 0.4791,-1.1409 1.222,-0.9545 2.0734,-0.2265 0.3488,0.2982 0.794,1.4346 0.7416,1.9774 -0.3726,3.8781 -1.6499,7.0817 -3.9172,9.5496 -1.8433,2.643 -2.3482,2.2181 -1.7431,-0.748 0.9484,-3.5173 1.8969,-7.0353 2.8453,-10.5525 z"
           style="fill:#e30016;fill-rule:evenodd"
           id="path492" />
      </g>
    </g>
    <g
       id="Layer1024">
      <path
         d="m 435.9046,305.157 c 10.0306,-1.6051 28.0271,-12.0273 37.5468,-22.9324 4.4955,-3.1012 20.1337,-12.2965 18.606,-16.5459 -0.637,-2.739 -1.5605,-2.4532 -4.1027,-3.386 4.9871,-11.7682 -12.9389,-14.6988 -19.9773,-16.324 -0.3796,-0.1096 2.5949,0.6392 2.7494,-11.1162 3.283,-5.1447 6.5654,-10.289 9.8472,-15.4337 3.7692,-7.247 11.9391,-14.9647 3.5393,-20.637 l -0.4977,-0.3004 -0.384,0.4365 c -6.6586,7.561 -12.7482,16.8094 -18.8153,24.2954 -12.1416,11.1634 -17.8289,22.5522 -21.4191,26.6298 -1.6044,1.354 -21.3001,33.3238 -24.5025,38.4548 -6.5617,8.6524 -13.1243,17.3046 -19.6856,25.9568 l -0.4797,0.6328 0.6904,0.392 c 3.6484,2.0726 18.6179,24.8546 19.1065,23.2369 2.8677,-9.4875 14.9106,-23.8719 17.7783,-33.3594 z"
         style="fill:#1b1918;fill-rule:evenodd"
         id="path496" />
      <path
         d="m 483.7828,199.8431 c -3.1447,3.5722 -6.1076,8.3096 -9.2529,11.8821 -2.3948,2.9546 -4.4498,5.9788 -6.8443,8.9306 -0.87,1.0721 -9.767,11.3576 -10.6374,12.4315 -14.5865,14.9667 -25.6562,38.1789 -36.658,55.8025 -6.568,8.6601 -14.4594,17.1246 -21.0273,25.7857 -4.3896,6.7118 -10.1338,8.9183 -5.2146,11.7252 6.3265,3.609 18.0217,21.2361 22.0435,10.677 2.9099,-9.6265 16.0817,-23.8133 18.9909,-33.4402 13.0984,-1.9606 24.8396,-8.579 37.3314,-21.7542 3.9344,-2.6355 6.2429,-4.3956 10.4719,-7.4117 8.7733,-7.0652 13.3538,-9.9803 3.4789,-12.8011 3.8317,-5.4045 0.8128,-7.6918 -5.4678,-11.8536 -4.8856,-1.413 -11.9017,-3.4927 -18.4722,-1.9073 7.0542,-1.9648 7.0574,-10.704 7.0956,-13.6293 5.1096,-5.6577 9.3802,-14.6996 8.9899,-18.3666 0.5103,-0.6673 0.5893,1.1768 1.1729,0.6387 7.3784,-6.8071 8.558,-12.5757 3.9995,-16.7093 z"
         style="fill:#ffffff;fill-rule:evenodd"
         id="path498" />
      <path
         d="m 466.8582,246.8578 c -0.5693,0.3351 -7.0168,23.3532 -7.8883,11.8797 -0.2253,-2.9645 0.9094,-1.2772 -1.2823,3.4669 -1.3237,2.8647 0.5331,1.6409 -0.9477,1.076 -0.5789,0.337 4.535,10.9574 6.1073,10.765 8.6371,-1.0565 1.4513,-1.9113 -1.1318,-3.332 -0.0842,-0.0461 -1.7446,-4.4079 -2.4442,-5.3021 -0.6492,-0.8296 7.8623,-1.4741 9.7435,1.7576 1.3064,2.2444 1.6839,-0.5574 -0.4358,-2.1009 -2.3162,-1.6867 8.3801,-6.1955 8.7613,-7.6753 0.6598,-2.5619 -3.6701,4.3257 -7.1122,2.8695 0.5562,-6.1103 -1.4104,-5.3836 -0.3161,-10.2692 -2.8801,-1.2175 1.2401,10.1018 -4.7666,10.5285 -4.0003,0.284 0.3064,-12.8356 1.7129,-13.6637 z"
         style="fill:#1b1918;fill-rule:evenodd"
         id="path500" />
      <path
         d="m 486.0047,261.691 c -4.216,-0.0618 -7.4366,1.4188 -10.1924,4.1792 -1.0501,1.0521 -6.6428,6.042 -6.5774,6.0658 1.6232,0.5922 11.2514,-10.326 16.7698,-10.245 z"
         style="fill:#1b1918;fill-rule:evenodd"
         id="path502" />
      <path
         d="m 482.5716,265.1149 c 1.8677,-1.6135 8.5257,-5.5896 11.1703,-5.6769 7.3617,-0.243 -5.4299,10.9664 -7.4567,11.0932 -1.9684,0.123 -5.3569,-3.9966 -3.7136,-5.4163 z"
         style="fill:#1b1918;fill-rule:evenodd"
         id="path504" />
      <path
         d="m 482.9007,265.4543 c 1.9054,-1.6461 7.8782,-5.5218 10.2809,-5.6012 0.5,-0.0165 2.182,-0.3016 2.4294,0.1771 0.6474,1.2534 -2.4245,4.9843 -3.3159,5.8417 -1.0574,1.0171 -2.7497,2.1278 -3.9467,2.9964 -0.3369,0.2443 -1.6483,1.1588 -2.0522,1.184 -0.8692,0.0545 -2.307,-0.8068 -2.7837,-1.3657 -0.4345,-0.5094 -1.4168,-2.5369 -0.6118,-3.2323 z"
         style="fill:#e30016;fill-rule:evenodd"
         id="path506" />
      <g
         id="Layer1025">
        <path
           d="m 487.5729,198.1924 c -0.8032,3.3109 -2.7436,6.1458 -5.547,8.5612 -1.4091,1.2141 -2.0387,1.2651 -3.6495,0.8667 -0.7696,-0.1904 -0.7872,-0.3414 -0.9774,-0.9959 -0.1251,-0.43 0.3027,-0.8648 0.6596,-1.2776 2.3879,-2.7515 4.7237,-5.6204 7.1116,-8.3719 0.5623,-0.606 1.7322,-2.1143 2.5662,-1.7947 0.9087,0.3484 0.1338,2.2475 -0.1635,3.0122 z"
           style="fill:#1b1918;fill-rule:evenodd"
           id="path508" />
        <path
           d="m 478.2426,205.379 c -0.6787,1.0347 -0.1091,1.5468 0.9703,1.8464 0.4421,0.1227 1.6334,-0.1427 2.0544,-0.4894 3.0086,-2.4752 4.9525,-5.324 5.7332,-8.583 1.1627,-3.0053 0.5282,-3.1867 -1.5941,-1.0282 -2.3877,2.7512 -4.776,5.503 -7.1638,8.2542 z"
           style="fill:#e30016;fill-rule:evenodd"
           id="path510" />
      </g>
    </g>
  </g>
  <path
     d="m -1.0021838,-142.51196 c 0,3.1414 0.63780001,5.4644 1.90550001,6.9679 1.27559999,1.5043 2.81869999,2.2598 4.63009999,2.2598 1.8422,0 3.4169,-0.7796 4.7235998,-2.3383 1.315,-1.5591 1.9684,-3.9683 1.9684,-7.2357 0,-3.1179 -0.6378,-5.4485 -1.921,-6.9996 -1.2832998,-1.5514 -2.8108998,-2.3225 -4.5904998,-2.3225 -1.7637,0 -3.3224,0.8263 -4.6768,2.4718 -1.36179999,1.6538 -2.0393,4.0476 -2.0393,7.1966 z m -3.7791,21.5108 v -33.9194 h 3.7791 v 3.2201 c 0.89010001,-1.2438 1.89750001,-2.1804 3.0237,-2.8026 1.118,-0.6222 2.4801,-0.9374 4.0785,-0.9374 2.0943,0 3.9364998,0.5358 5.5351998,1.6141 1.5979,1.0709 2.8027,2.5908 3.6219,4.543 0.8107,1.9608 1.22,4.1023 1.22,6.4406 0,2.4965 -0.4484,4.7478 -1.3462,6.7559 -0.8977,1.9998 -2.2045,3.5353 -3.9209,4.606 -1.7083998,1.063 -3.5117998,1.5981 -5.4010998,1.5981 -1.3859,0 -2.6303,-0.2914 -3.7244,-0.8739 -1.10239999,-0.5825 -1.99989999,-1.315 -2.70829999,-2.2045 v 11.96 z m -23.1560002,-23.9987 h 13.6528 c -0.1814,-2.0628 -0.7086,-3.606 -1.5667,-4.6378 -1.3153,-1.5979 -3.0316,-2.4009 -5.1338,-2.4009 -1.9055,0 -3.5036,0.6378 -4.803,1.9134 -1.2912,1.2753 -2.0075,2.984 -2.1493,5.1253 z m 13.6055,6.6611 4.299,0.5669 c -0.6695,2.4957 -1.921,4.4408 -3.748,5.8184 -1.8266,1.3782 -4.1573,2.0707 -6.9996,2.0707 -3.5742,0 -6.4088,-1.1021 -8.5033,-3.3066 -2.0945,-2.1968 -3.1414,-5.2911 -3.1414,-9.2673 0,-4.1099 1.0551,-7.3066 3.1726,-9.574 2.118,-2.2759 4.8659,-3.4098 8.244,-3.4098 3.2675,0 5.9366,1.1103 8.0073,3.3389 2.0707,2.2278 3.1101002,5.3615 3.1101002,9.4006 0,0.2443 -0.008,0.6142 -0.0235,1.1024 H -28.173384 c 0.1573,2.6849 0.9133,4.7477 2.2833,6.173 1.3618,1.425 3.0705,2.1413 5.1097,2.1413 1.52,0 2.8188,-0.4011 3.8897,-1.2045 1.0783,-0.803 1.9287,-2.0863 2.5589,-3.85 z m -33.4942,-16.5818 v 10.582 c 1.3385,0 2.2836,-0.2517 2.8267,-0.7478 0.5434,-0.5037 1.3229,-1.9763 2.3307,-4.4331 0.945,-2.3306 1.8031,-3.8109 2.575,-4.4563 0.7554,-0.6299 1.9522,-0.9448 3.5977,-0.9448 h 1.5199 v 3.4248 l -1.1262,-0.0232 c -1.1103,0 -1.811,0.1649 -2.118,0.4881 -0.3223,0.3387 -0.8184,1.3464 -1.4803,3.0231 -0.6137,1.6064 -1.1806,2.7088 -1.7005,3.3305 -0.5196,0.6142 -1.3385,1.1732 -2.4406,1.6849 1.7949,0.4804 3.543,2.1415 5.2515,4.9924 l 4.5586,7.5977 h -4.5663 l -4.4408,-7.5901 c -0.9056,-1.5432 -1.7007,-2.5509 -2.3697,-3.0314 -0.6775,-0.4804 -1.4803,-0.7163 -2.4177,-0.7163 v 11.3378 h -4.2517 v -11.3378 c -0.9212,0 -1.7164,0.2359 -2.3853,0.7084 -0.6775,0.4728 -1.4647,1.4882 -2.3624,3.0472 l -4.4799,7.5822 h -4.5663 l 4.5428,-7.5977 c 1.724,-2.8509 3.4877,-4.512 5.2829,-4.9924 -1.2282,-0.5667 -2.0942,-1.1889 -2.5824,-1.8579 -0.496,-0.6689 -1.2279,-2.2677 -2.2121,-4.795 -0.3388,-0.8504 -0.701,-1.37 -1.0871,-1.5591 -0.4011,-0.1964 -0.9921,-0.2914 -1.7793,-0.2914 -0.197,0 -0.6061,0.008 -1.2203,0.0241 v -3.4489 h 0.5748 c 1.6062,0 2.7324,0.0944 3.3857,0.2914 0.6534,0.1891 1.2359,0.5981 1.7558,1.2203 0.5117,0.6222 1.1807,1.9131 1.9999,3.8894 0.9997,2.4171 1.7713,3.8818 2.3071,4.4014 0.5352,0.5198 1.4797,0.7795 2.8261,0.7795 v -10.582 z m -39.1708,33.9429 -0.472,-3.8421 c 0.9133,0.2438 1.7005,0.3699 2.3774,0.3699 0.9289,0 1.6693,-0.1573 2.2207,-0.4649 0.5584,-0.3069 1.0156,-0.7398 1.3697,-1.2911 0.2602,-0.4173 0.6854,-1.4485 1.2679,-3.1023 0.0785,-0.2282 0.1967,-0.5669 0.3699,-1.0156 l -9.3064,-24.5968 h 4.4402 l 5.1182,14.1568 c 0.669,1.7872 1.2595,3.6771 1.7873,5.661 0.4805,-1.8663 1.0474,-3.7085 1.7084,-5.5193 l 5.2282,-14.2985 h 4.1491 l -9.2667,24.9434 c -1.0004,2.685 -1.7799,4.5273 -2.3383,5.5429 -0.7407,1.3621 -1.5908,2.3624 -2.5433,3.0002 -0.9609,0.6378 -2.1024,0.9524 -3.4253,0.9524 -0.8031,0 -1.7008,-0.1652 -2.685,-0.496 z m -22.974796,-35.36 c -2.7871,0.1262 -5.0389,0.9445 -6.7632,2.4724 -1.7246,1.527 -2.5906,3.653 -2.5906,6.3853 0,2.7006 0.8504,4.8187 2.5512,6.3618 1.7005,1.5429 3.9682,2.3698 6.8026,2.4959 z m 4.2043,-0.0476 v 17.8104 c 2.8897,-0.1417 5.1574,-0.9842 6.818796,-2.5277 1.6611,-1.5431 2.4879,-3.6691 2.4879,-6.3774 0,-2.6614 -0.8112,-4.7633 -2.4409,-6.3223 -1.629896,-1.5512 -3.913196,-2.4092 -6.865796,-2.583 z m -4.2043,-3.8265 v -4.299 h 4.2043 v 4.299 c 4.307,0.2282 7.708296,1.5279 10.196196,3.8974 2.4962,2.3703 3.7401,5.307 3.7401,8.8189 0,3.4404 -1.2048,6.3612 -3.6219,8.7706 -2.4171,2.4015 -5.849496,3.7321 -10.314396,3.9765 v 4.3461 h -4.2043 v -4.3461 c -3.9994,-0.1579 -7.3299,-1.3782 -9.9916,-3.6692 -2.6614,-2.283 -3.9915,-5.3147 -3.9915,-9.0779 0,-3.7721 1.3301,-6.795 3.9839,-9.0627 2.6529,-2.2674 5.9836,-3.4798 9.9992,-3.6536 z"
     style="fill:#1b1918;fill-rule:evenodd"
     id="path515" />
</svg>
