<?xml version="1.0" encoding="UTF-8" standalone="no"?>
<svg version="1.1" width="271.72516" height="506.74649" id="svg322" viewBox="0 0 271.72516 506.74649"
    xmlns="http://www.w3.org/2000/svg">
  <defs
     id="defs326" />
  <path
     d="m -87.554791,-123.2483 c 0,0.1562 -0.0093,0.2951 -0.0314,0.4153 -0.023,0.1255 -0.0539,0.2281 -0.0939,0.3086 -0.0402,0.0851 -0.0898,0.1429 -0.1567,0.1832 -0.0675,0.0399 -0.1384,0.0581 -0.2143,0.0581 h -9.375 c -0.1202,0 -0.2277,-0.0131 -0.3218,-0.0451 -0.089,-0.0309 -0.1689,-0.0799 -0.2318,-0.1519 -0.0675,-0.0669 -0.1163,-0.1695 -0.1477,-0.2994 -0.0312,-0.1292 -0.0445,-0.29 -0.0445,-0.4821 0,-0.1749 0.0087,-0.3269 0.0218,-0.4559 0.0142,-0.1301 0.0411,-0.2457 0.0853,-0.3486 0.0451,-0.0984 0.1029,-0.1965 0.1698,-0.2994 0.0669,-0.0983 0.1562,-0.2052 0.2639,-0.3172 l 3.3866,-3.4857 c 0.7863,-0.8042 1.4125,-1.5234 1.8856,-2.1626 0.4739,-0.6338 0.8359,-1.2149 1.095,-1.7421 0.2543,-0.5233 0.4246,-0.9973 0.5051,-1.4253 0.0802,-0.4289 0.1202,-0.8314 0.1202,-1.2073 0,-0.375 -0.0618,-0.7322 -0.1871,-1.0672 -0.1298,-0.3351 -0.3087,-0.6302 -0.5502,-0.8853 -0.2367,-0.2548 -0.5357,-0.4558 -0.8977,-0.6029 -0.3575,-0.1474 -0.7733,-0.2231 -1.2424,-0.2231 -0.5497,0 -1.0415,0.0757 -1.4794,0.2231 -0.4332,0.1471 -0.8173,0.3129 -1.1483,0.487 -0.326,0.1743 -0.603,0.339 -0.8221,0.4873 -0.2188,0.1468 -0.3841,0.223 -0.4912,0.223 -0.063,0 -0.1208,-0.0178 -0.1698,-0.0532 -0.0494,-0.036 -0.0893,-0.0899 -0.1211,-0.1698 -0.0312,-0.0763 -0.0578,-0.1832 -0.0754,-0.313 -0.0176,-0.1343 -0.0266,-0.2905 -0.0266,-0.4737 0,-0.1298 0.0039,-0.2418 0.013,-0.3395 0.0088,-0.0939 0.0218,-0.1789 0.0448,-0.2501 0.0221,-0.0674 0.049,-0.1343 0.085,-0.1973 0.0352,-0.0578 0.1072,-0.1337 0.2101,-0.2279 0.1069,-0.089 0.2857,-0.214 0.5451,-0.3702 0.2543,-0.1607 0.5805,-0.3129 0.9694,-0.4648 0.3841,-0.1562 0.8133,-0.2812 1.2822,-0.389 0.4648,-0.1026 0.9564,-0.1561 1.4703,-0.1561 0.822,0 1.5415,0.1159 2.1535,0.3483 0.6168,0.2277 1.1259,0.5448 1.5329,0.9474 0.4062,0.4022 0.7104,0.8665 0.9114,1.3986 0.2012,0.5323 0.2999,1.099 0.2999,1.7025 0,0.5408 -0.0499,1.0811 -0.1429,1.6174 -0.0989,0.5361 -0.3002,1.1169 -0.6083,1.743 -0.3129,0.6254 -0.7591,1.3173 -1.345,2.0815 -0.5811,0.7645 -1.3584,1.6447 -2.3276,2.6416 l -2.6815,2.8018 h 7.3732 c 0.0674,0 0.1343,0.0176 0.2012,0.0578 0.0669,0.04 0.1253,0.0978 0.1695,0.1738 0.0496,0.0811 0.0845,0.1791 0.1075,0.2951 0.0221,0.1162 0.0314,0.2551 0.0314,0.4113 z m 6.2688,-0.474 c 0,0.6211 -0.1029,1.0321 -0.3078,1.2379 -0.2058,0.2055 -0.5766,0.3084 -1.1174,0.3084 -0.527,0 -0.889,-0.1029 -1.0902,-0.3041 -0.2013,-0.201 -0.2991,-0.603 -0.2991,-1.2065 0,-0.621 0.1024,-1.0321 0.3082,-1.237 0.2049,-0.2064 0.576,-0.3093 1.1171,-0.3093 0.5272,0 0.8892,0.099 1.0899,0.3002 0.1964,0.2007 0.2993,0.6075 0.2993,1.2104 z m 14.7813,-3.3729 c 0,0.2851 -0.0442,0.5131 -0.1295,0.6789 -0.0896,0.1652 -0.2098,0.2455 -0.3668,0.2455 h -1.9123 v 3.5614 c 0,0.0714 -0.0181,0.1293 -0.0533,0.1789 -0.0357,0.0445 -0.0986,0.0893 -0.1879,0.1253 -0.0893,0.0309 -0.2101,0.0578 -0.3529,0.0759 -0.1429,0.0173 -0.326,0.0264 -0.5491,0.0264 -0.2191,0 -0.398,-0.009 -0.5411,-0.0264 -0.1435,-0.0181 -0.2591,-0.045 -0.3442,-0.0759 -0.085,-0.036 -0.1431,-0.0808 -0.174,-0.1253 -0.0315,-0.0496 -0.0491,-0.1075 -0.0491,-0.1789 v -3.5614 h -6.9349 c -0.1077,0 -0.1922,-0.0134 -0.2594,-0.04 -0.0714,-0.0269 -0.1341,-0.0712 -0.1919,-0.1432 -0.0544,-0.0669 -0.0944,-0.1698 -0.1162,-0.299 -0.0227,-0.1298 -0.0309,-0.3002 -0.0309,-0.51 0,-0.1652 0.004,-0.3123 0.0127,-0.4422 0.0091,-0.1292 0.0273,-0.25 0.0542,-0.3571 0.0218,-0.112 0.0578,-0.2149 0.102,-0.3133 0.04,-0.1029 0.0941,-0.2097 0.1571,-0.3217 l 6.0412,-10.3039 c 0.0442,-0.0715 0.1111,-0.1293 0.1961,-0.1832 0.0848,-0.053 0.1917,-0.0983 0.326,-0.1292 0.1341,-0.036 0.2996,-0.0627 0.4918,-0.076 0.1965,-0.0136 0.4289,-0.0178 0.6974,-0.0178 0.2899,0 0.549,0.009 0.7639,0.0311 0.2191,0.0219 0.3977,0.0536 0.5272,0.0845 0.1341,0.036 0.237,0.0853 0.3079,0.1386 0.072,0.0587 0.1074,0.1256 0.1074,0.2058 v 10.827 h 1.9123 c 0.1479,0 0.2681,0.0759 0.3577,0.2281 0.0944,0.1511 0.1386,0.3839 0.1386,0.6971 z m -4.6602,-10.2331 h -0.0269 l -5.4516,9.3079 h 5.4785 z m 10.2368,13.606 c 0,0.6211 -0.1029,1.0321 -0.3078,1.2379 -0.2064,0.2055 -0.5766,0.3084 -1.1175,0.3084 -0.5272,0 -0.8892,-0.1029 -1.0902,-0.3041 -0.2012,-0.201 -0.299,-0.603 -0.299,-1.2065 0,-0.621 0.102,-1.0321 0.3081,-1.237 0.205,-0.2064 0.576,-0.3093 1.1171,-0.3093 0.5273,0 0.8893,0.099 1.0902,0.3002 0.1962,0.2007 0.2991,0.6075 0.2991,1.2104 z m 14.4913,-4.0527 c 0,0.7416 -0.1123,1.457 -0.3402,2.1541 -0.2273,0.6922 -0.576,1.3042 -1.0496,1.8314 -0.4695,0.5279 -1.0679,0.9522 -1.7918,1.2691 -0.7246,0.3175 -1.5775,0.4782 -2.5651,0.4782 -0.7058,0 -1.332,-0.0893 -1.872,-0.263 -0.5408,-0.1749 -1.0103,-0.4198 -1.4125,-0.7464 -0.402,-0.322 -0.7373,-0.72 -1.0009,-1.1891 -0.2682,-0.4731 -0.4822,-1.0094 -0.6435,-1.6132 -0.1607,-0.5984 -0.2766,-1.2595 -0.3481,-1.9744 -0.0672,-0.7149 -0.1029,-1.4836 -0.1029,-2.3054 0,-0.7242 0.04,-1.4573 0.116,-2.1985 0.0802,-0.7421 0.2191,-1.457 0.4203,-2.1493 0.2007,-0.6885 0.474,-1.3365 0.8178,-1.9442 0.3484,-0.6035 0.7773,-1.1345 1.3006,-1.5815 0.5181,-0.4513 1.1392,-0.8093 1.8632,-1.0684 0.7231,-0.2633 1.5681,-0.3928 2.5285,-0.3928 0.322,0 0.6522,0.0175 0.9833,0.0578 0.3308,0.0399 0.6392,0.0941 0.9162,0.1562 0.2812,0.0671 0.5139,0.1389 0.7061,0.2188 0.1916,0.0763 0.3212,0.1432 0.3793,0.1882 0.0629,0.0491 0.1074,0.1029 0.1389,0.161 0.0309,0.053 0.0538,0.1157 0.0711,0.1831 0.0176,0.063 0.0318,0.1381 0.0406,0.2231 0.009,0.0808 0.013,0.1837 0.013,0.3039 0,0.161 0,0.2951 -0.004,0.4071 -0.0045,0.1162 -0.0227,0.2052 -0.0538,0.2769 -0.0309,0.0714 -0.072,0.1202 -0.1211,0.1562 -0.0442,0.0357 -0.1068,0.0541 -0.1871,0.0541 -0.0989,0 -0.2281,-0.032 -0.3931,-0.0944 -0.1656,-0.0578 -0.3668,-0.1247 -0.6038,-0.2006 -0.2361,-0.076 -0.5221,-0.1432 -0.8572,-0.2013 -0.3353,-0.0629 -0.7243,-0.0938 -1.1713,-0.0938 -0.8132,0 -1.5103,0.1652 -2.0956,0.4957 -0.5851,0.3354 -1.0633,0.7773 -1.4344,1.3366 -0.371,0.5581 -0.648,1.2061 -0.8268,1.9434 -0.178,0.7373 -0.2809,1.5058 -0.3082,2.3105 0.228,-0.1304 0.4831,-0.2591 0.7685,-0.3934 0.2818,-0.1298 0.5896,-0.2461 0.9298,-0.3529 0.3353,-0.1029 0.6882,-0.188 1.0633,-0.2551 0.3753,-0.0669 0.7772,-0.0978 1.2064,-0.0978 0.9161,0 1.6892,0.1247 2.3145,0.3702 0.6301,0.2508 1.1352,0.5947 1.5239,1.0369 0.3886,0.4422 0.6653,0.9604 0.8311,1.5596 0.1653,0.5941 0.2506,1.2421 0.2506,1.9434 z m -2.2788,0.2007 c 0,-0.5091 -0.0499,-0.9689 -0.1519,-1.3841 -0.099,-0.4113 -0.2682,-0.7643 -0.5009,-1.0551 -0.2373,-0.286 -0.5494,-0.5091 -0.9428,-0.6653 -0.3937,-0.157 -0.8759,-0.2372 -1.4519,-0.2372 -0.322,0 -0.648,0.0269 -0.97,0.085 -0.3215,0.0578 -0.6344,0.1338 -0.9335,0.2364 -0.3041,0.0989 -0.5902,0.2191 -0.8671,0.3529 -0.273,0.1338 -0.523,0.2818 -0.7512,0.438 0,1.1301 0.072,2.0732 0.2149,2.8332 0.1471,0.7597 0.3535,1.3674 0.6301,1.8278 0.2724,0.46 0.6163,0.786 1.0273,0.983 0.4113,0.1965 0.8895,0.2951 1.4394,0.2951 0.5585,0 1.0409,-0.1032 1.4522,-0.3132 0.411,-0.2098 0.7504,-0.4918 1.0182,-0.8487 0.2733,-0.3535 0.4694,-0.7515 0.5993,-1.1937 0.1253,-0.4379 0.1879,-0.8892 0.1879,-1.3541 z m 8.1454,3.852 c 0,0.6211 -0.1029,1.0321 -0.3079,1.2379 -0.2061,0.2055 -0.5763,0.3084 -1.1174,0.3084 -0.5272,0 -0.8892,-0.1029 -1.0899,-0.3041 -0.2013,-0.201 -0.2994,-0.603 -0.2994,-1.2065 0,-0.621 0.1021,-1.0321 0.3085,-1.237 0.2049,-0.2064 0.576,-0.3093 1.1168,-0.3093 0.5272,0 0.8892,0.099 1.0902,0.3002 0.1962,0.2007 0.2991,0.6075 0.2991,1.2104 z m 16.3947,1.1129 c 0,0.0714 -0.0184,0.1293 -0.0544,0.1789 -0.0349,0.0445 -0.0933,0.0893 -0.1829,0.1253 -0.0853,0.0309 -0.2009,0.0578 -0.3438,0.0759 -0.1477,0.0173 -0.3266,0.0264 -0.5457,0.0264 -0.2097,0 -0.3877,-0.009 -0.5357,-0.0264 -0.1471,-0.0181 -0.2634,-0.045 -0.3484,-0.0759 -0.0808,-0.036 -0.1431,-0.0808 -0.1831,-0.1253 -0.0405,-0.0496 -0.0587,-0.1075 -0.0587,-0.1789 v -14.6608 h -7.6674 v 14.6608 c 0,0.0714 -0.0182,0.1293 -0.0581,0.1789 -0.0403,0.0445 -0.1029,0.0893 -0.1832,0.1253 -0.085,0.0309 -0.1967,0.0578 -0.3395,0.0759 -0.1477,0.0173 -0.3266,0.0264 -0.5457,0.0264 -0.218,0 -0.3971,-0.009 -0.5451,-0.0264 -0.1429,-0.0181 -0.2591,-0.045 -0.3436,-0.0759 -0.0893,-0.036 -0.1471,-0.0808 -0.1831,-0.1253 -0.036,-0.0496 -0.0533,-0.1075 -0.0533,-0.1789 v -15.7019 c 0,-0.3039 0.076,-0.5361 0.2271,-0.6883 0.1567,-0.1519 0.3489,-0.2276 0.5862,-0.2276 h 10.5718 c 0.246,0 0.4382,0.0757 0.576,0.2276 0.1389,0.1522 0.2106,0.3844 0.2106,0.6883 z m 9.6066,0.3263 -1.5684,4.3387 c -0.0536,0.1383 -0.1879,0.2457 -0.4019,0.322 -0.2101,0.076 -0.5361,0.1111 -0.974,0.1111 -0.2282,0 -0.4113,-0.009 -0.5502,-0.0312 -0.1384,-0.0218 -0.2455,-0.0626 -0.3215,-0.1119 -0.0714,-0.0533 -0.1117,-0.1248 -0.1207,-0.2098 -0.009,-0.0893 0.0133,-0.1922 0.0629,-0.3169 l 1.6265,-4.102 c -0.0811,-0.036 -0.157,-0.0941 -0.2239,-0.1701 -0.0712,-0.0802 -0.1202,-0.161 -0.1432,-0.25 l -4.2043,-11.2601 c -0.0717,-0.1831 -0.1029,-0.3311 -0.1029,-0.4334 0,-0.1074 0.0312,-0.1877 0.1029,-0.2506 0.0717,-0.0623 0.1831,-0.1023 0.3393,-0.1253 0.1562,-0.0221 0.3662,-0.0309 0.6301,-0.0309 0.2594,0 0.4652,0.005 0.6163,0.0179 0.1479,0.013 0.2642,0.04 0.3532,0.076 0.0847,0.0309 0.1477,0.085 0.1876,0.1471 0.0403,0.0669 0.0802,0.157 0.1253,0.2681 l 3.3647,9.4556 h 0.04 l 3.2445,-9.5046 c 0.0531,-0.1701 0.116,-0.277 0.192,-0.3212 0.0711,-0.0501 0.1831,-0.085 0.3302,-0.108 0.1522,-0.0221 0.3671,-0.0309 0.6437,-0.0309 0.2455,0 0.4473,0.009 0.6035,0.0309 0.1562,0.023 0.2724,0.063 0.3442,0.1253 0.0756,0.0629 0.1116,0.1432 0.1116,0.2506 0,0.1023 -0.0269,0.2361 -0.0759,0.3934 z m 15.14779971,-2.1405 c 0,0.1472 -0.005,0.2773 -0.0139,0.3841 -0.009,0.1117 -0.0221,0.201 -0.0439,0.277 -0.023,0.0759 -0.0494,0.1389 -0.0811,0.1973 -0.0312,0.0578 -0.0981,0.1428 -0.21,0.25 -0.1069,0.1119 -0.2951,0.2457 -0.5542,0.411 -0.2631,0.1607 -0.5582,0.3078 -0.88410001,0.4331 -0.3311,0.1299 -0.684,0.2328 -1.0684,0.3087 -0.3838,0.0803 -0.7818,0.1202 -1.1931,0.1202 -0.8493,0 -1.5991,-0.138 -2.2516,-0.4198 -0.6571,-0.2772 -1.2067,-0.6834 -1.6444,-1.2195 -0.4425,-0.5363 -0.7778,-1.1979 -1.0099,-1.9751 -0.2322,-0.7824 -0.349,-1.6804 -0.349,-2.7037 0,-1.1574 0.1432,-2.1538 0.4249,-2.9897 0.286,-0.8311 0.6744,-1.514 1.1662,-2.0464 0.4961,-0.5309 1.0774,-0.9243 1.7427,-1.184 0.6699,-0.2545 1.3938,-0.3844 2.1711,-0.3844 0.3761,0 0.7381,0.036 1.0905,0.1072 0.358,0.0669 0.68,0.1613 0.9791,0.2732 0.29500001,0.1157 0.56290001,0.2458 0.79080001,0.398 0.2325,0.1471 0.4023,0.2767 0.5046,0.3793 0.1074,0.1074 0.1791,0.1916 0.2191,0.25 0.0354,0.0627 0.0714,0.1347 0.0984,0.2189 0.0224,0.0807 0.0399,0.1749 0.049,0.282 0.009,0.1029 0.0133,0.2367 0.0133,0.3929 0,0.3401 -0.0399,0.5766 -0.1162,0.7149 -0.0799,0.1343 -0.1737,0.2012 -0.29,0.2012 -0.1298,0 -0.2817,-0.072 -0.4515,-0.2188 -0.1695,-0.1431 -0.3844,-0.3044 -0.6477,-0.4782 -0.26390001,-0.174 -0.58090001,-0.3353 -0.95220001,-0.4782 -0.3711,-0.148 -0.809,-0.2191 -1.313,-0.2191 -1.0415,0 -1.8417,0.398 -2.3959,1.1976 -0.5536,0.7951 -0.8308,1.9531 -0.8308,3.4676 0,0.7549 0.0717,1.421 0.214,1.9931 0.148,0.5675 0.3578,1.0454 0.6392,1.4292 0.277,0.3804 0.6211,0.6664 1.0282,0.8535 0.4062,0.188 0.8711,0.2818 1.3938,0.2818 0.5006,0 0.9385,-0.0805 1.3138,-0.2367 0.3753,-0.1562 0.6971,-0.3302 0.97400001,-0.5233 0.2772,-0.1871 0.5091,-0.3569 0.697,-0.5091 0.1883,-0.1562 0.3311,-0.2321 0.4383,-0.2321 0.0581,0 0.112,0.0181 0.1562,0.0532 0.045,0.036 0.0805,0.0939 0.1119,0.1749 0.0309,0.0851 0.0533,0.1871 0.0669,0.317 0.0134,0.1252 0.0179,0.2772 0.0179,0.4512 z m 11.09510029,-9.3206 c 0,0.1738 -0.009,0.3218 -0.0269,0.442 -0.0179,0.125 -0.0451,0.2236 -0.0851,0.2993 -0.0402,0.0805 -0.0847,0.1389 -0.1341,0.1789 -0.0535,0.0399 -0.1204,0.0578 -0.1967,0.0578 H 7.7055087 v 10.1568 c 0,0.0714 -0.0173,0.1293 -0.0533,0.1789 -0.036,0.0445 -0.0896,0.0893 -0.1698,0.1253 -0.0802,0.0309 -0.1879,0.0578 -0.3311,0.0759 -0.138,0.0173 -0.3169,0.0264 -0.536,0.0264 -0.2143,0 -0.3884,-0.009 -0.5273,-0.0264 -0.1428,-0.0181 -0.2548,-0.045 -0.335,-0.0759 -0.0848,-0.036 -0.1429,-0.0808 -0.1741,-0.1253 -0.0309,-0.0496 -0.045,-0.1075 -0.045,-0.1789 v -10.1568 h -3.5252 c -0.0675,0 -0.1296,-0.0179 -0.1877,-0.0578 -0.0578,-0.04 -0.1029,-0.0984 -0.1389,-0.1789 -0.0309,-0.0757 -0.062,-0.1786 -0.0847,-0.3033 -0.0224,-0.1253 -0.0309,-0.2772 -0.0309,-0.4521 0,-0.1562 0.008,-0.2943 0.0309,-0.4153 0.0227,-0.1247 0.0538,-0.2276 0.0938,-0.3079 0.04,-0.0853 0.0851,-0.1431 0.1389,-0.1831 0.049,-0.0411 0.1111,-0.0587 0.1786,-0.0587 h 9.2225003 c 0.0672,0 0.1298,0.0176 0.1877,0.0587 0.0584,0.04 0.1029,0.0978 0.1386,0.1831 0.0317,0.0803 0.0626,0.1871 0.0845,0.3119 0.0232,0.1261 0.032,0.2681 0.032,0.4254 z m 11.0231,11.1478 c 0,0.1029 -0.036,0.1832 -0.1029,0.2373 -0.0709,0.0539 -0.1647,0.0887 -0.29,0.1162 -0.1211,0.0267 -0.3002,0.04 -0.536,0.04 -0.224,0 -0.4071,-0.0133 -0.5409,-0.04 -0.1344,-0.0275 -0.2322,-0.0623 -0.2951,-0.1162 -0.0623,-0.0541 -0.0944,-0.1301 -0.0944,-0.2373 v -1.1792 c -0.513,0.5494 -1.0851,0.9786 -1.7203,1.2821 -0.6341,0.2994 -1.304,0.4513 -2.0104,0.4513 -0.621,0 -1.1843,-0.0802 -1.6843,-0.2409 -0.5009,-0.161 -0.9292,-0.398 -1.2821,-0.7013 -0.3529,-0.3042 -0.6304,-0.6843 -0.8272,-1.1265 -0.1961,-0.4467 -0.295,-0.9516 -0.295,-1.5191 0,-0.6661 0.134,-1.2421 0.4073,-1.7294 0.2676,-0.4918 0.6559,-0.8977 1.1662,-1.2198 0.5048,-0.3214 1.1259,-0.5675 1.8581,-0.7285 0.733,-0.1607 1.5596,-0.2409 2.4758,-0.2409 h 1.6259 v -0.9204 c 0,-0.4516 -0.049,-0.8538 -0.1429,-1.207 -0.0978,-0.3481 -0.25,-0.6389 -0.4643,-0.8711 -0.2146,-0.2324 -0.4918,-0.4062 -0.8311,-0.5233 -0.3396,-0.1202 -0.76,-0.178 -1.2555,-0.178 -0.5317,0 -1.0099,0.0624 -1.4297,0.1922 -0.4244,0.1293 -0.7955,0.2676 -1.1124,0.4238 -0.318,0.1573 -0.5862,0.2951 -0.8002,0.4255 -0.2097,0.1287 -0.371,0.1916 -0.4739,0.1916 -0.0712,0 -0.1338,-0.0179 -0.1832,-0.0539 -0.0532,-0.0309 -0.0983,-0.085 -0.1383,-0.1562 -0.0405,-0.0669 -0.0669,-0.1564 -0.0847,-0.2639 -0.0182,-0.1111 -0.027,-0.2276 -0.027,-0.362 0,-0.214 0.0128,-0.388 0.0448,-0.5133 0.0309,-0.125 0.1069,-0.2458 0.2231,-0.3577 0.1159,-0.1112 0.322,-0.2461 0.6078,-0.4023 0.2857,-0.1519 0.6216,-0.2951 0.9963,-0.4243 0.3711,-0.1247 0.7824,-0.2327 1.2286,-0.3169 0.443,-0.0851 0.894,-0.1256 1.345,-0.1256 0.8444,0 1.5642,0.0938 2.1586,0.2857 0.5941,0.1922 1.0723,0.4782 1.4383,0.8493 0.3671,0.3713 0.6304,0.8311 0.796,1.3813 0.1652,0.5491 0.25,1.1925 0.25,1.925 z m -2.1453,-5.3971 h -1.8451 c -0.5896,0 -1.1035,0.049 -1.5412,0.1516 -0.4334,0.0987 -0.7956,0.2503 -1.0865,0.4465 -0.2851,0.1973 -0.4955,0.4294 -0.6338,0.7064 -0.1344,0.2769 -0.2013,0.5941 -0.2013,0.9521 0,0.612 0.1922,1.0993 0.5811,1.4605 0.3884,0.3619 0.9292,0.5459 1.6305,0.5459 0.563,0 1.0911,-0.1431 1.5733,-0.434 0.4827,-0.286 0.9918,-0.7282 1.523,-1.3223 z m 14.8,5.3841 c 0,0.0714 -0.0131,0.1293 -0.0442,0.1834 -0.0318,0.0536 -0.0851,0.0938 -0.1662,0.1247 -0.0802,0.0309 -0.187,0.0539 -0.3302,0.072 -0.1386,0.0173 -0.3217,0.0264 -0.5499,0.0264 -0.214,0 -0.3889,-0.009 -0.527,-0.0264 -0.1428,-0.0181 -0.2548,-0.0411 -0.335,-0.072 -0.0851,-0.0309 -0.1429,-0.0711 -0.1744,-0.1247 -0.0314,-0.0493 -0.0447,-0.112 -0.0447,-0.1834 v -4.9558 h -1.2422 c -0.5408,0 -0.9604,0.0451 -1.2645,0.1298 -0.2996,0.0893 -0.5718,0.2322 -0.809,0.438 -0.241,0.2055 -0.4558,0.4691 -0.648,0.7866 -0.1922,0.3169 -0.3753,0.7061 -0.5491,1.171 l -0.9564,2.3006 c -0.0445,0.1119 -0.0896,0.2058 -0.1429,0.2732 -0.0538,0.0709 -0.1298,0.1248 -0.2282,0.1647 -0.0978,0.04 -0.2276,0.0669 -0.3798,0.0811 -0.1519,0.0128 -0.3393,0.0173 -0.5672,0.0173 -0.1607,0 -0.3084,-0.004 -0.4332,-0.0133 -0.1255,-0.009 -0.2327,-0.0221 -0.322,-0.0451 -0.085,-0.0218 -0.1519,-0.0578 -0.1922,-0.1069 -0.045,-0.045 -0.0669,-0.1071 -0.0669,-0.174 0,-0.0627 0.0219,-0.161 0.0712,-0.2951 0.049,-0.1344 0.148,-0.3711 0.2951,-0.7104 l 0.9431,-2.2118 c 0.2452,-0.5585 0.5448,-1.0415 0.9022,-1.4437 0.3581,-0.4062 0.7688,-0.7061 1.2334,-0.8978 -0.8493,-0.1561 -1.5197,-0.4963 -2.0245,-1.0148 -0.5,-0.5227 -0.7501,-1.2106 -0.7501,-2.0681 0,-0.5681 0.1157,-1.0814 0.353,-1.5423 0.2366,-0.4598 0.5808,-0.8482 1.0408,-1.1662 0.4553,-0.3215 1.0185,-0.5672 1.6889,-0.737 0.6659,-0.1695 1.4298,-0.2543 2.2972,-0.2543 0.205,0 0.451,0.004 0.7231,0.0128 0.2773,0.009 0.5593,0.0224 0.8493,0.0402 0.2951,0.0182 0.5768,0.036 0.8538,0.0581 0.2724,0.023 0.5091,0.0406 0.7103,0.0579 0.2634,0.0274 0.4598,0.1213 0.5902,0.2911 0.129,0.1652 0.1962,0.371 0.1962,0.612 z m -2.1716,-10.5321 c -0.3127,-0.0445 -0.6342,-0.076 -0.9652,-0.089 -0.326,-0.0139 -0.6302,-0.0179 -0.9114,-0.0179 -0.5899,0 -1.0814,0.0491 -1.4748,0.152 -0.3975,0.098 -0.7104,0.2451 -0.9516,0.4331 -0.2367,0.1882 -0.4065,0.4113 -0.5049,0.6661 -0.1029,0.25 -0.1522,0.5315 -0.1522,0.8402 0,0.3124 0.0584,0.5984 0.1743,0.8484 0.1208,0.2509 0.2951,0.4607 0.5361,0.6302 0.2372,0.1698 0.5451,0.3036 0.9161,0.3928 0.3756,0.0939 0.8938,0.1389 1.5642,0.1389 h 1.7694 z m 27.1233,10.4165 c 0.009,0.1916 -0.0539,0.3259 -0.1832,0.4059 -0.1298,0.0762 -0.3979,0.1162 -0.7959,0.1162 -0.2191,0 -0.3974,-0.004 -0.5361,-0.0133 -0.1383,-0.009 -0.2503,-0.0267 -0.3262,-0.0542 -0.0802,-0.0258 -0.1341,-0.0618 -0.165,-0.1111 -0.0315,-0.0445 -0.049,-0.1077 -0.0584,-0.1879 l -0.8617,-6.8672 c -0.027,-0.2458 -0.0545,-0.5052 -0.0811,-0.7869 -0.0269,-0.2773 -0.0493,-0.5633 -0.0762,-0.8493 -0.0267,-0.29 -0.0533,-0.5763 -0.076,-0.8623 -0.0218,-0.2903 -0.0442,-0.5584 -0.0712,-0.8133 l -0.0136,-0.2987 c -0.0799,0.25 -0.1601,0.5176 -0.25,0.7951 -0.085,0.2809 -0.1789,0.5627 -0.2812,0.8532 -0.0989,0.286 -0.1967,0.5769 -0.286,0.8629 -0.0938,0.2852 -0.1789,0.5584 -0.2551,0.8132 l -2.4752,6.9702 c -0.036,0.1029 -0.076,0.1921 -0.1253,0.2633 -0.0491,0.0677 -0.112,0.1261 -0.1967,0.1701 -0.0848,0.0402 -0.1877,0.0717 -0.3124,0.0898 -0.1299,0.0173 -0.2818,0.0264 -0.4649,0.0264 -0.1831,0 -0.3393,-0.009 -0.4604,-0.0264 -0.1207,-0.0181 -0.223,-0.045 -0.3081,-0.0853 -0.0847,-0.04 -0.1516,-0.0935 -0.201,-0.1655 -0.0535,-0.0669 -0.0986,-0.1562 -0.1338,-0.2591 l -2.3825,-6.9835 c -0.0893,-0.2463 -0.178,-0.5099 -0.2681,-0.7871 -0.0933,-0.2809 -0.1871,-0.567 -0.277,-0.8569 -0.0932,-0.2912 -0.1828,-0.5817 -0.2681,-0.8723 -0.0893,-0.286 -0.1602,-0.5581 -0.2231,-0.8081 l -0.0131,0.2987 c -0.0269,0.2549 -0.0498,0.523 -0.0762,0.8133 -0.0269,0.286 -0.0536,0.5723 -0.0848,0.8623 -0.0266,0.286 -0.0581,0.572 -0.0901,0.8493 -0.0258,0.2817 -0.0527,0.5411 -0.0669,0.7869 l -0.7948,6.7515 c -0.009,0.1029 -0.027,0.1877 -0.0584,0.2546 -0.0309,0.0623 -0.0888,0.1114 -0.1786,0.1428 -0.0893,0.0315 -0.2013,0.0533 -0.3393,0.0675 -0.1435,0.0128 -0.3263,0.0173 -0.5542,0.0173 -0.2188,0 -0.3932,-0.009 -0.5182,-0.0264 -0.1301,-0.0181 -0.2239,-0.0496 -0.2908,-0.0898 -0.0669,-0.044 -0.1072,-0.0984 -0.1253,-0.1653 -0.0176,-0.0669 -0.0176,-0.1471 0,-0.2406 l 1.2872,-11.1496 c 0.0451,-0.2769 0.1432,-0.4867 0.2951,-0.6344 0.1522,-0.1428 0.3841,-0.2143 0.6883,-0.2143 h 1.0321 c 0.25,0 0.464,0.0176 0.6428,0.0587 0.1792,0.04 0.3311,0.1072 0.4607,0.205 0.125,0.0941 0.2324,0.2231 0.3169,0.3843 0.0901,0.1608 0.1701,0.362 0.2509,0.6078 l 1.7424,5.0088 c 0.0938,0.3084 0.1965,0.6168 0.2994,0.9255 0.1068,0.3082 0.2057,0.612 0.295,0.9162 0.0939,0.299 0.1789,0.5941 0.2637,0.8801 0.0802,0.29 0.1562,0.5627 0.227,0.8261 h 0.0275 c 0.0805,-0.2719 0.1607,-0.5585 0.2418,-0.8581 0.0842,-0.299 0.1738,-0.6075 0.2676,-0.915 0.0984,-0.3093 0.1964,-0.6171 0.2948,-0.9213 0.1029,-0.3084 0.2007,-0.5984 0.2951,-0.8753 l 1.743,-4.987 c 0.0709,-0.2188 0.1471,-0.4071 0.2271,-0.5678 0.0847,-0.1601 0.1876,-0.2945 0.3089,-0.3934 0.1251,-0.1021 0.2682,-0.1738 0.442,-0.2231 0.17,-0.0488 0.3753,-0.0715 0.621,-0.0715 h 1.0233 c 0.313,0 0.5542,0.0669 0.7155,0.1968 0.1607,0.1298 0.254,0.3401 0.2809,0.625 z m 12.1402,0.1286 c 0,0.1029 -0.036,0.1832 -0.1029,0.2373 -0.0712,0.0539 -0.165,0.0887 -0.2903,0.1162 -0.1205,0.0267 -0.2996,0.04 -0.5357,0.04 -0.2243,0 -0.4071,-0.0133 -0.5412,-0.04 -0.1343,-0.0275 -0.2321,-0.0623 -0.2951,-0.1162 -0.0623,-0.0541 -0.0941,-0.1301 -0.0941,-0.2373 v -1.1792 c -0.5133,0.5494 -1.0851,0.9786 -1.7203,1.2821 -0.6338,0.2994 -1.3042,0.4513 -2.0103,0.4513 -0.6211,0 -1.1841,-0.0802 -1.6844,-0.2409 -0.5009,-0.161 -0.9295,-0.398 -1.2824,-0.7013 -0.3529,-0.3042 -0.6301,-0.6843 -0.8268,-1.1265 -0.1962,-0.4467 -0.2951,-0.9516 -0.2951,-1.5191 0,-0.6661 0.1338,-1.2421 0.407,-1.7294 0.2679,-0.4918 0.6562,-0.8977 1.1662,-1.2198 0.5048,-0.3214 1.1262,-0.5675 1.8584,-0.7285 0.733,-0.1607 1.5596,-0.2409 2.4758,-0.2409 h 1.6259 v -0.9204 c 0,-0.4516 -0.0487,-0.8538 -0.1428,-1.207 -0.0981,-0.3481 -0.2501,-0.6389 -0.4641,-0.8711 -0.2151,-0.2324 -0.4924,-0.4062 -0.8317,-0.5233 -0.3395,-0.1202 -0.7599,-0.178 -1.2551,-0.178 -0.5321,0 -1.01,0.0624 -1.4298,0.1922 -0.4247,0.1293 -0.7957,0.2676 -1.1126,0.4238 -0.3178,0.1573 -0.586,0.2951 -0.8,0.4255 -0.21,0.1287 -0.371,0.1916 -0.4742,0.1916 -0.0709,0 -0.1338,-0.0179 -0.1828,-0.0539 -0.0533,-0.0309 -0.0984,-0.085 -0.1387,-0.1562 -0.0405,-0.0669 -0.0669,-0.1564 -0.0844,-0.2639 -0.0185,-0.1111 -0.027,-0.2276 -0.027,-0.362 0,-0.214 0.0131,-0.388 0.0445,-0.5133 0.0315,-0.125 0.1072,-0.2458 0.2231,-0.3577 0.1163,-0.1112 0.322,-0.2461 0.6083,-0.4023 0.2852,-0.1519 0.6214,-0.2951 0.9961,-0.4243 0.3711,-0.1247 0.7821,-0.2327 1.2286,-0.3169 0.443,-0.0851 0.8943,-0.1256 1.345,-0.1256 0.8442,0 1.5642,0.0938 2.1583,0.2857 0.5944,0.1922 1.0724,0.4782 1.4386,0.8493 0.3671,0.3713 0.6301,0.8311 0.796,1.3813 0.1652,0.5491 0.25,1.1925 0.25,1.925 z m -2.1453,-5.3971 h -1.845 c -0.5897,0 -1.1033,0.049 -1.5415,0.1516 -0.4334,0.0987 -0.7954,0.2503 -1.0865,0.4465 -0.2849,0.1973 -0.495,0.4294 -0.6339,0.7064 -0.1343,0.2769 -0.2012,0.5941 -0.2012,0.9521 0,0.612 0.1922,1.0993 0.5811,1.4605 0.3883,0.3619 0.9294,0.5459 1.6307,0.5459 0.5627,0 1.0908,-0.1431 1.5733,-0.434 0.4824,-0.286 0.9915,-0.7282 1.523,-1.3223 z m 81.986501,3.8469 c 0,0.2681 -0.0131,0.5182 -0.04,0.7421 -0.0269,0.2273 -0.0669,0.4422 -0.125,0.6432 -0.0539,0.2009 -0.1341,0.398 -0.237,0.5941 -0.0981,0.197 -0.2231,0.4022 -0.371,0.6211 l -1.7825,2.6634 c -0.045,0.0712 -0.0941,0.125 -0.1522,0.1701 -0.0578,0.0442 -0.125,0.0799 -0.2009,0.1111 -0.0808,0.0312 -0.1741,0.0539 -0.2861,0.072 -0.1071,0.0179 -0.2409,0.0269 -0.3979,0.0269 -0.1472,0 -0.2722,-0.005 -0.3751,-0.0181 -0.0981,-0.0136 -0.1701,-0.0405 -0.2143,-0.0717 -0.0448,-0.036 -0.0669,-0.0802 -0.0717,-0.125 -0.004,-0.0491 0.009,-0.112 0.0448,-0.1922 l 1.7155,-3.5657 v -1.6713 c 0,-0.237 0.027,-0.4241 0.0808,-0.563 0.0491,-0.1383 0.1293,-0.2412 0.2282,-0.3129 0.102,-0.0712 0.2271,-0.1162 0.3881,-0.1432 0.157,-0.0261 0.3441,-0.0399 0.5632,-0.0399 0.2101,0 0.3932,0.0138 0.5499,0.0399 0.1602,0.027 0.286,0.072 0.3884,0.1432 0.0986,0.0717 0.1746,0.1746 0.2236,0.3129 0.0491,0.1389 0.0712,0.326 0.0712,0.563 z m 0,-8.6148 c 0,0.2812 -0.0179,0.5182 -0.0578,0.7104 -0.0403,0.1919 -0.1163,0.3489 -0.2234,0.4649 -0.1117,0.1201 -0.2549,0.2009 -0.4289,0.25 -0.174,0.049 -0.398,0.0711 -0.6701,0.0711 -0.2821,0 -0.51,-0.0221 -0.684,-0.0711 -0.1743,-0.0491 -0.3172,-0.1299 -0.4201,-0.25 -0.1072,-0.116 -0.1783,-0.273 -0.2191,-0.4649 -0.04,-0.1922 -0.0581,-0.4292 -0.0581,-0.7104 0,-0.2951 0.0181,-0.5408 0.0581,-0.737 0.0408,-0.197 0.1119,-0.358 0.2191,-0.474 0.1029,-0.121 0.2458,-0.2012 0.4201,-0.2503 0.174,-0.049 0.4019,-0.0717 0.684,-0.0717 0.2721,0 0.4961,0.0227 0.6701,0.0717 0.174,0.0491 0.3172,0.1293 0.4289,0.2503 0.1071,0.116 0.1831,0.277 0.2234,0.474 0.0399,0.1962 0.0578,0.4419 0.0578,0.737 z m -9.3878,-0.3798 c -0.3129,-0.0451 -0.6341,-0.076 -0.9652,-0.0893 -0.326,-0.0136 -0.6301,-0.0179 -0.9113,-0.0179 -0.5899,0 -1.0812,0.0491 -1.4749,0.152 -0.3974,0.098 -0.7104,0.2451 -0.9516,0.4331 -0.237,0.1879 -0.4068,0.4113 -0.5048,0.6661 -0.1032,0.25 -0.1523,0.5312 -0.1523,0.8402 0,0.3121 0.0581,0.5981 0.1744,0.8484 0.1207,0.2506 0.2948,0.4607 0.536,0.6302 0.237,0.1698 0.5451,0.3038 0.9162,0.3928 0.3758,0.0942 0.894,0.1389 1.5641,0.1389 h 1.7694 z m 2.1713,10.5318 c 0,0.0712 -0.013,0.1293 -0.0439,0.1831 -0.032,0.0539 -0.085,0.0941 -0.1658,0.125 -0.0802,0.0312 -0.1874,0.0539 -0.3303,0.072 -0.1389,0.0173 -0.322,0.0261 -0.5502,0.0261 -0.214,0 -0.3889,-0.009 -0.5269,-0.0261 -0.1432,-0.0181 -0.2551,-0.0408 -0.3351,-0.072 -0.085,-0.0309 -0.1431,-0.0711 -0.1743,-0.125 -0.0318,-0.049 -0.0448,-0.1119 -0.0448,-0.1831 v -4.9558 h -1.2421 c -0.5412,0 -0.9604,0.0451 -1.2646,0.1301 -0.2996,0.089 -0.572,0.2319 -0.809,0.438 -0.2409,0.2052 -0.4558,0.4691 -0.648,0.786 -0.1922,0.3172 -0.375,0.7061 -0.5493,1.1713 l -0.9562,2.3006 c -0.0448,0.1119 -0.0898,0.2058 -0.1428,0.273 -0.0542,0.0711 -0.1301,0.125 -0.2282,0.1649 -0.0981,0.0403 -0.2279,0.0672 -0.3799,0.0808 -0.1519,0.0133 -0.3393,0.0173 -0.5672,0.0173 -0.161,0 -0.3081,-0.004 -0.4331,-0.013 -0.1259,-0.009 -0.233,-0.0221 -0.322,-0.0448 -0.0851,-0.0221 -0.152,-0.0581 -0.1922,-0.1072 -0.0448,-0.045 -0.0669,-0.1071 -0.0669,-0.174 0,-0.0629 0.0221,-0.161 0.0711,-0.2951 0.0491,-0.1341 0.1477,-0.3711 0.2951,-0.7104 l 0.9428,-2.2121 c 0.2455,-0.5582 0.5454,-1.0412 0.9026,-1.4434 0.3577,-0.4062 0.7687,-0.7058 1.2331,-0.898 -0.849,-0.1562 -1.5191,-0.4961 -2.0243,-1.0143 -0.5003,-0.523 -0.7503,-1.2112 -0.7503,-2.0684 0,-0.5681 0.1159,-1.0814 0.3529,-1.5421 0.237,-0.4603 0.5811,-0.8487 1.0412,-1.1664 0.4555,-0.3212 1.0185,-0.5672 1.6886,-0.737 0.6661,-0.1693 1.4303,-0.2543 2.2972,-0.2543 0.2052,0 0.4512,0.004 0.7234,0.013 0.2772,0.009 0.559,0.0222 0.8492,0.04 0.2948,0.0182 0.5769,0.036 0.8538,0.0581 0.2724,0.023 0.5094,0.0408 0.7104,0.0581 0.263,0.027 0.4601,0.1208 0.5899,0.2909 0.1292,0.1652 0.1961,0.371 0.1961,0.612 z m -14.7994,-5.3841 h -1.8456 c -0.5893,0 -1.1032,0.049 -1.5412,0.1514 -0.4331,0.0986 -0.7954,0.2508 -1.0862,0.447 -0.2852,0.197 -0.4952,0.4289 -0.6341,0.7061 -0.1341,0.2769 -0.201,0.5941 -0.201,0.9519 0,0.6122 0.1919,1.0992 0.5808,1.4607 0.3883,0.3619 0.9295,0.5456 1.6305,0.5456 0.5632,0 1.091,-0.1428 1.5732,-0.4337 0.483,-0.286 0.9921,-0.7282 1.5236,-1.3223 z m 2.145,5.3974 c 0,0.1029 -0.0357,0.1829 -0.1029,0.237 -0.0711,0.0539 -0.165,0.089 -0.29,0.1159 -0.121,0.027 -0.2999,0.04 -0.5363,0.04 -0.2236,0 -0.4068,-0.013 -0.5408,-0.04 -0.1341,-0.0269 -0.2322,-0.062 -0.2951,-0.1159 -0.0621,-0.0541 -0.0938,-0.1301 -0.0938,-0.237 v -1.1795 c -0.5134,0.5494 -1.0854,0.9783 -1.7204,1.2824 -0.6344,0.2991 -1.3045,0.451 -2.0106,0.451 -0.6211,0 -1.184,-0.0799 -1.6844,-0.2409 -0.5008,-0.161 -0.9292,-0.398 -1.2823,-0.7013 -0.353,-0.3042 -0.6302,-0.684 -0.8269,-1.1262 -0.1962,-0.447 -0.2951,-0.9522 -0.2951,-1.5194 0,-0.6658 0.1341,-1.2421 0.4071,-1.7291 0.2678,-0.4921 0.6562,-0.8983 1.1661,-1.2203 0.5049,-0.3212 1.1262,-0.5673 1.8584,-0.7283 0.7331,-0.161 1.5594,-0.2409 2.4755,-0.2409 h 1.6265 v -0.9204 c 0,-0.4519 -0.049,-0.8538 -0.1431,-1.207 -0.0981,-0.3481 -0.25,-0.6389 -0.4643,-0.8711 -0.2149,-0.2322 -0.4918,-0.4062 -0.8311,-0.523 -0.3399,-0.1202 -0.76,-0.1783 -1.2555,-0.1783 -0.5318,0 -1.01,0.0621 -1.4301,0.1919 -0.4241,0.1293 -0.7951,0.2682 -1.1123,0.4244 -0.3178,0.1567 -0.5859,0.2951 -0.7999,0.4249 -0.2101,0.1292 -0.3711,0.1922 -0.474,0.1922 -0.0711,0 -0.1341,-0.0182 -0.1831,-0.0542 -0.0533,-0.0309 -0.0981,-0.0847 -0.1383,-0.1559 -0.0406,-0.0672 -0.0669,-0.157 -0.0848,-0.2639 -0.0181,-0.1114 -0.0272,-0.2282 -0.0272,-0.3623 0,-0.214 0.0133,-0.388 0.0451,-0.5133 0.0311,-0.125 0.1071,-0.2458 0.223,-0.3577 0.1163,-0.1114 0.3221,-0.2461 0.6081,-0.4023 0.2854,-0.1519 0.621,-0.2948 0.9964,-0.424 0.3707,-0.125 0.782,-0.233 1.2282,-0.3172 0.4431,-0.0851 0.8941,-0.1256 1.3453,-0.1256 0.8442,0 1.5642,0.0938 2.1583,0.286 0.5942,0.1919 1.0724,0.4779 1.4383,0.849 0.3671,0.371 0.6302,0.8311 0.796,1.381 0.1653,0.5494 0.25,1.1926 0.25,1.9256 z m -11.287,4.3166 c 0,0.0491 -0.0139,0.0939 -0.045,0.1293 -0.0309,0.0357 -0.0848,0.0629 -0.156,0.085 -0.0759,0.0227 -0.1652,0.0406 -0.2729,0.0539 -0.1114,0.013 -0.2413,0.0178 -0.3974,0.0178 -0.1659,0 -0.3087,-0.005 -0.4289,-0.0178 -0.1211,-0.0133 -0.2191,-0.036 -0.2951,-0.0629 -0.0717,-0.0222 -0.125,-0.0533 -0.1562,-0.0845 -0.0318,-0.0269 -0.0448,-0.0675 -0.0448,-0.1077 v -4.0167 h -15.188 c -0.2189,0 -0.3889,-0.063 -0.5052,-0.1922 -0.1207,-0.125 -0.1788,-0.313 -0.1788,-0.5672 v -11.3542 c 0,-0.0717 0.0139,-0.1298 0.045,-0.1789 0.0309,-0.045 0.0891,-0.0893 0.1789,-0.1298 0.089,-0.0402 0.201,-0.0672 0.3441,-0.0802 0.1381,-0.0131 0.3121,-0.0182 0.527,-0.0182 0.21,0 0.3844,0.005 0.523,0.0182 0.1431,0.013 0.2503,0.04 0.3302,0.0802 0.0811,0.0405 0.1341,0.0848 0.1701,0.1298 0.036,0.0491 0.0539,0.1072 0.0539,0.1789 v 10.2634 h 4.5309 v -10.2634 c 0,-0.0717 0.013,-0.1298 0.0442,-0.1789 0.0317,-0.045 0.085,-0.0893 0.1658,-0.1298 0.0802,-0.0402 0.1874,-0.0672 0.3212,-0.0802 0.1389,-0.0131 0.309,-0.0182 0.523,-0.0182 0.21,0 0.3801,0.005 0.5181,0.0182 0.1341,0.013 0.2413,0.04 0.3221,0.0802 0.0802,0.0405 0.134,0.0848 0.17,0.1298 0.0352,0.0491 0.0533,0.1072 0.0533,0.1789 v 10.2634 h 4.5309 v -10.2634 c 0,-0.0717 0.0136,-0.1298 0.0448,-0.1789 0.0312,-0.045 0.089,-0.0893 0.1741,-0.1298 0.0807,-0.0402 0.1921,-0.0672 0.3262,-0.0802 0.1386,-0.0131 0.3087,-0.0182 0.523,-0.0182 0.2189,0 0.398,0.005 0.536,0.0182 0.1429,0.013 0.2549,0.04 0.3351,0.0802 0.085,0.0405 0.1432,0.0848 0.1789,0.1298 0.036,0.0491 0.0533,0.1072 0.0533,0.1789 v 10.2634 h 1.6041 c 0.2012,0 0.3489,0.0405 0.434,0.1165 0.0893,0.0802 0.125,0.2191 0.1071,0.4201 z m -23.865701,-14.8617 c -0.313,-0.0451 -0.6341,-0.076 -0.9652,-0.0893 -0.326,-0.0136 -0.6299,-0.0179 -0.9111,-0.0179 -0.5901,0 -1.0814,0.0491 -1.4751,0.152 -0.3971,0.098 -0.7104,0.2451 -0.9513,0.4331 -0.237,0.1879 -0.4071,0.4113 -0.5052,0.6661 -0.1029,0.25 -0.1519,0.5312 -0.1519,0.8402 0,0.3121 0.0581,0.5981 0.1741,0.8484 0.121,0.2506 0.295,0.4607 0.536,0.6302 0.237,0.1698 0.5451,0.3038 0.9161,0.3928 0.3759,0.0942 0.8941,0.1389 1.5642,0.1389 h 1.7694 z m 2.1716,10.5318 c 0,0.0712 -0.013,0.1293 -0.0442,0.1831 -0.0318,0.0539 -0.085,0.0941 -0.1658,0.125 -0.0803,0.0312 -0.1874,0.0539 -0.3303,0.072 -0.1389,0.0173 -0.322,0.0261 -0.5499,0.0261 -0.2143,0 -0.3889,-0.009 -0.5272,-0.0261 -0.1429,-0.0181 -0.2549,-0.0408 -0.3351,-0.072 -0.085,-0.0309 -0.1429,-0.0711 -0.174,-0.125 -0.0318,-0.049 -0.0451,-0.1119 -0.0451,-0.1831 v -4.9558 h -1.2422 c -0.5408,0 -0.9603,0.0451 -1.2642,0.1301 -0.2999,0.089 -0.572,0.2319 -0.809,0.438 -0.2412,0.2052 -0.4561,0.4691 -0.6483,0.786 -0.1919,0.3172 -0.375,0.7061 -0.5491,1.1713 l -0.9561,2.3006 c -0.0451,0.1119 -0.0899,0.2058 -0.1431,0.273 -0.0539,0.0711 -0.1299,0.125 -0.2279,0.1649 -0.0981,0.0403 -0.2282,0.0672 -0.3802,0.0808 -0.1519,0.0133 -0.3393,0.0173 -0.5672,0.0173 -0.161,0 -0.3081,-0.004 -0.4331,-0.013 -0.1259,-0.009 -0.2327,-0.0221 -0.322,-0.0448 -0.0851,-0.0221 -0.152,-0.0581 -0.1919,-0.1072 -0.0451,-0.045 -0.0672,-0.1071 -0.0672,-0.174 0,-0.0629 0.0221,-0.161 0.0711,-0.2951 0.0491,-0.1341 0.148,-0.3711 0.2951,-0.7104 l 0.9431,-2.2121 c 0.2452,-0.5582 0.5451,-1.0412 0.9023,-1.4434 0.358,-0.4062 0.769,-0.7058 1.2333,-0.898 -0.8492,-0.1562 -1.5193,-0.4961 -2.0245,-1.0143 -0.5,-0.523 -0.7503,-1.2112 -0.7503,-2.0684 0,-0.5681 0.1162,-1.0814 0.3532,-1.5421 0.237,-0.4603 0.5811,-0.8487 1.0412,-1.1664 0.4552,-0.3212 1.0184,-0.5672 1.6885,-0.737 0.6659,-0.1693 1.4301,-0.2543 2.2972,-0.2543 0.2053,0 0.451,0.004 0.7234,0.013 0.277,0.009 0.5588,0.0222 0.849,0.04 0.2951,0.0182 0.5769,0.036 0.8541,0.0581 0.2721,0.023 0.5091,0.0408 0.7101,0.0581 0.2633,0.027 0.4603,0.1208 0.5902,0.2909 0.1292,0.1652 0.1961,0.371 0.1961,0.612 z m -12.6995,0 c 0,0.0712 -0.0178,0.1293 -0.053,0.1792 -0.036,0.0439 -0.0899,0.089 -0.1701,0.125 -0.0802,0.0309 -0.1879,0.0578 -0.3308,0.0759 -0.1383,0.0173 -0.3124,0.0261 -0.5224,0.0261 -0.2239,0 -0.402,-0.009 -0.5408,-0.0261 -0.1432,-0.0181 -0.2503,-0.045 -0.3311,-0.0759 -0.0803,-0.036 -0.1341,-0.0811 -0.1693,-0.125 -0.036,-0.0499 -0.0538,-0.108 -0.0538,-0.1792 v -5.1698 h -5.9783 v 5.1698 c 0,0.0712 -0.0181,0.1293 -0.0538,0.1792 -0.036,0.0439 -0.0893,0.089 -0.1701,0.125 -0.0802,0.0309 -0.1871,0.0578 -0.3303,0.0759 -0.1389,0.0173 -0.3177,0.0261 -0.536,0.0261 -0.2149,0 -0.3892,-0.009 -0.5278,-0.0261 -0.1432,-0.0181 -0.2543,-0.045 -0.3353,-0.0759 -0.0848,-0.036 -0.1429,-0.0811 -0.1741,-0.125 -0.0309,-0.0499 -0.0448,-0.108 -0.0448,-0.1792 v -11.7873 c 0,-0.0717 0.0139,-0.1298 0.0448,-0.1789 0.0312,-0.045 0.0893,-0.0893 0.1741,-0.1298 0.081,-0.0402 0.1921,-0.0672 0.3353,-0.0802 0.1386,-0.0131 0.3129,-0.0182 0.5278,-0.0182 0.2183,0 0.3971,0.005 0.536,0.0182 0.1432,0.013 0.2501,0.04 0.3303,0.0802 0.0808,0.0405 0.1341,0.0848 0.1701,0.1298 0.0357,0.0491 0.0538,0.1072 0.0538,0.1789 v 4.7942 h 5.9783 v -4.7942 c 0,-0.0717 0.0178,-0.1298 0.0538,-0.1789 0.0352,-0.045 0.089,-0.0893 0.1693,-0.1298 0.0808,-0.0402 0.1879,-0.0672 0.3311,-0.0802 0.1388,-0.0131 0.3169,-0.0182 0.5408,-0.0182 0.21,0 0.3841,0.005 0.5224,0.0182 0.1429,0.013 0.2506,0.04 0.3308,0.0802 0.0802,0.0405 0.1341,0.0848 0.1701,0.1298 0.0352,0.0491 0.053,0.1072 0.053,0.1789 z"
     style="fill:#1b1918;fill-rule:evenodd"
     id="path165" />
  <path
     d="m 146.27221,579.6456 c 0,0.1641 -0.009,0.31 -0.0327,0.4363 -0.0239,0.1321 -0.0566,0.2396 -0.0987,0.3245 -0.0421,0.0893 -0.0944,0.1503 -0.1648,0.1924 -0.0704,0.0421 -0.1452,0.061 -0.2251,0.061 h -9.851 c -0.1264,0 -0.2396,-0.0138 -0.3383,-0.0472 -0.0937,-0.0327 -0.1779,-0.0842 -0.244,-0.1597 -0.0704,-0.0704 -0.1219,-0.1779 -0.1546,-0.3144 -0.0334,-0.1357 -0.0472,-0.3049 -0.0472,-0.5067 0,-0.1837 0.009,-0.3434 0.0232,-0.4792 0.0145,-0.1365 0.0429,-0.2584 0.0893,-0.3666 0.0472,-0.1031 0.1082,-0.2062 0.1786,-0.3144 0.0704,-0.103 0.1641,-0.2156 0.2774,-0.3332 l 3.5588,-3.6626 c 0.8262,-0.8451 1.4839,-1.6009 1.9812,-2.2724 0.4981,-0.6665 0.8785,-1.277 1.1507,-1.831 0.2672,-0.5495 0.4458,-1.0476 0.5307,-1.4977 0.0843,-0.4508 0.1264,-0.8734 0.1264,-1.2683 0,-0.3942 -0.0654,-0.7696 -0.1968,-1.1217 -0.1365,-0.3521 -0.3245,-0.6621 -0.5779,-0.93 -0.249,-0.2679 -0.5633,-0.4791 -0.9438,-0.6338 -0.3753,-0.1546 -0.8124,-0.2345 -1.3053,-0.2345 -0.5772,0 -1.0941,0.0799 -1.5544,0.2345 -0.4552,0.1547 -0.8588,0.3289 -1.2066,0.5119 -0.3426,0.1829 -0.6338,0.3564 -0.8639,0.5118 -0.2302,0.1546 -0.4037,0.2345 -0.5162,0.2345 -0.0661,0 -0.127,-0.0189 -0.1786,-0.0559 -0.0515,-0.0378 -0.0936,-0.0944 -0.127,-0.1786 -0.0327,-0.0799 -0.061,-0.1924 -0.0792,-0.3289 -0.0189,-0.1408 -0.0283,-0.3049 -0.0283,-0.4973 0,-0.1365 0.004,-0.2541 0.0138,-0.3572 0.009,-0.0987 0.0232,-0.188 0.0472,-0.2628 0.0232,-0.0704 0.0515,-0.1409 0.0893,-0.2069 0.037,-0.061 0.1125,-0.1409 0.2207,-0.2396 0.1125,-0.0936 0.3006,-0.2251 0.5728,-0.3891 0.2672,-0.1692 0.6098,-0.3289 1.0186,-0.4886 0.4036,-0.1641 0.8545,-0.2955 1.3474,-0.4088 0.4886,-0.1074 1.0048,-0.164 1.545,-0.164 0.8639,0 1.6197,0.1219 2.2629,0.3659 0.6483,0.2395 1.1834,0.5728 1.611,0.996 0.4269,0.4226 0.7463,0.9104 0.9576,1.4695 0.2112,0.559 0.315,1.155 0.315,1.7888 0,0.5685 -0.0522,1.1362 -0.1502,1.6996 -0.1039,0.5633 -0.3151,1.1739 -0.6389,1.8317 -0.3289,0.657 -0.7979,1.3844 -1.4135,2.1874 -0.6106,0.8029 -1.4273,1.7279 -2.4459,2.7755 l -2.8176,2.9439 h 7.7478 c 0.0705,0 0.1409,0.0189 0.2113,0.061 0.0704,0.0421 0.1314,0.1031 0.1779,0.1829 0.0522,0.085 0.0893,0.188 0.1132,0.31 0.0233,0.122 0.0327,0.2679 0.0327,0.432 z m 6.5877,-0.498 c 0,0.6526 -0.1082,1.0846 -0.3238,1.3009 -0.2163,0.2157 -0.6055,0.3238 -1.1739,0.3238 -0.554,0 -0.9344,-0.1081 -1.1457,-0.3194 -0.2112,-0.2113 -0.3143,-0.6338 -0.3143,-1.2676 0,-0.6527 0.1074,-1.0846 0.3238,-1.3003 0.2156,-0.2163 0.6055,-0.3245 1.1739,-0.3245 0.5539,0 0.9344,0.1038 1.1456,0.3151 0.2062,0.2113 0.3144,0.6382 0.3144,1.272 z m 15.532,-3.5444 c 0,0.2999 -0.0465,0.5395 -0.1358,0.7137 -0.0944,0.1735 -0.2207,0.2577 -0.3855,0.2577 h -2.0095 v 3.7425 c 0,0.0748 -0.0189,0.1358 -0.0559,0.1881 -0.0378,0.0464 -0.1039,0.0936 -0.1975,0.1314 -0.0937,0.0326 -0.2207,0.061 -0.371,0.0798 -0.1503,0.0182 -0.3427,0.0276 -0.5772,0.0276 -0.2301,0 -0.4181,-0.009 -0.5684,-0.0276 -0.1503,-0.0188 -0.2723,-0.0472 -0.3616,-0.0798 -0.0893,-0.0378 -0.1503,-0.085 -0.1829,-0.1314 -0.0327,-0.0523 -0.0516,-0.1133 -0.0516,-0.1881 v -3.7425 h -7.2875 c -0.1126,0 -0.2019,-0.0138 -0.2723,-0.0421 -0.0748,-0.0283 -0.1408,-0.0748 -0.2018,-0.1503 -0.0566,-0.0704 -0.0987,-0.1786 -0.122,-0.3143 -0.0239,-0.1365 -0.0326,-0.3151 -0.0326,-0.5358 0,-0.1735 0.004,-0.3282 0.0137,-0.4646 0.01,-0.1358 0.0284,-0.2629 0.0567,-0.3754 0.0232,-0.1176 0.061,-0.2258 0.1074,-0.3289 0.0421,-0.1081 0.0988,-0.2207 0.1648,-0.3383 l 6.3481,-10.8275 c 0.0465,-0.0748 0.1169,-0.1358 0.2062,-0.1924 0.0893,-0.0559 0.2019,-0.1031 0.3427,-0.1357 0.1408,-0.0378 0.3151,-0.0661 0.5169,-0.0799 0.2062,-0.0145 0.4509,-0.0189 0.7325,-0.0189 0.305,0 0.5772,0.01 0.803,0.0327 0.2301,0.0232 0.4174,0.0566 0.5539,0.0893 0.1409,0.0377 0.249,0.0893 0.3238,0.1452 0.0755,0.0617 0.1126,0.1321 0.1126,0.2163 v 11.3771 h 2.0095 c 0.1554,0 0.2817,0.0799 0.3761,0.2396 0.0987,0.159 0.1452,0.4037 0.1452,0.7325 z m -4.8969,-10.7527 h -0.0283 l -5.7281,9.7806 h 5.7564 z m 10.7571,14.2971 c 0,0.6526 -0.1081,1.0846 -0.3238,1.3009 -0.2163,0.2157 -0.6054,0.3238 -1.1739,0.3238 -0.5539,0 -0.9344,-0.1081 -1.1456,-0.3194 -0.2113,-0.2113 -0.3144,-0.6338 -0.3144,-1.2676 0,-0.6527 0.1075,-1.0846 0.3238,-1.3003 0.2156,-0.2163 0.6055,-0.3245 1.1739,-0.3245 0.554,0 0.9344,0.1038 1.1457,0.3151 0.2062,0.2113 0.3143,0.6382 0.3143,1.272 z m 15.2271,-4.2587 c 0,0.7797 -0.1176,1.5311 -0.3572,2.2636 -0.2388,0.7275 -0.6055,1.3707 -1.1028,1.9246 -0.4937,0.5547 -1.1224,1.0005 -1.8832,1.3337 -0.7609,0.3332 -1.6575,0.5024 -2.6949,0.5024 -0.742,0 -1.3997,-0.0937 -1.9675,-0.2766 -0.5684,-0.1837 -1.0614,-0.4414 -1.4839,-0.7841 -0.4225,-0.3383 -0.7747,-0.7565 -1.052,-1.2494 -0.2817,-0.4974 -0.5067,-1.0607 -0.6759,-1.6952 -0.1691,-0.6288 -0.2911,-1.3235 -0.3659,-2.0749 -0.0704,-0.7515 -0.1082,-1.5588 -0.1082,-2.4227 0,-0.7608 0.0421,-1.5311 0.122,-2.3101 0.0842,-0.7797 0.2301,-1.5311 0.4414,-2.2586 0.2113,-0.7231 0.498,-1.4041 0.8596,-2.0429 0.3659,-0.6338 0.8167,-1.1921 1.3663,-1.6619 0.5445,-0.474 1.1972,-0.8501 1.958,-1.1223 0.7602,-0.2766 1.648,-0.4131 2.6572,-0.4131 0.3383,0 0.6853,0.0188 1.0331,0.0609 0.3477,0.0422 0.6715,0.0988 0.9626,0.1641 0.2955,0.0704 0.5402,0.1459 0.742,0.2302 0.2018,0.0798 0.3376,0.1502 0.3986,0.1974 0.0661,0.0516 0.1132,0.1082 0.1459,0.1692 0.0327,0.0559 0.0566,0.122 0.0748,0.1924 0.0189,0.066 0.0334,0.1452 0.0428,0.2345 0.01,0.0849 0.0138,0.1931 0.0138,0.3194 0,0.1692 0,0.31 -0.004,0.4276 -0.005,0.122 -0.024,0.2156 -0.0567,0.2912 -0.0326,0.0747 -0.0755,0.1263 -0.127,0.164 -0.0465,0.0378 -0.1125,0.0567 -0.1968,0.0567 -0.1038,0 -0.2395,-0.0334 -0.4131,-0.0988 -0.1742,-0.061 -0.3855,-0.1314 -0.6345,-0.2112 -0.2483,-0.0799 -0.5488,-0.1503 -0.9009,-0.2113 -0.3521,-0.0661 -0.7609,-0.0987 -1.2306,-0.0987 -0.8545,0 -1.587,0.1735 -2.2019,0.5212 -0.615,0.3521 -1.1174,0.8168 -1.5072,1.4041 -0.3899,0.5866 -0.681,1.2676 -0.869,2.0422 -0.1873,0.7747 -0.2955,1.5827 -0.3238,2.4278 0.2395,-0.1365 0.5074,-0.2723 0.8073,-0.4131 0.2962,-0.1365 0.62,-0.2585 0.9772,-0.371 0.3521,-0.1082 0.7231,-0.1975 1.1173,-0.2679 0.3942,-0.0704 0.8167,-0.1031 1.2676,-0.1031 0.9626,0 1.775,0.1314 2.4321,0.3891 0.6621,0.2636 1.1928,0.6251 1.6015,1.0898 0.408,0.4646 0.6991,1.0091 0.8734,1.6385 0.1735,0.6244 0.2628,1.3054 0.2628,2.0423 z m -2.3943,0.2112 c 0,-0.535 -0.0523,-1.0186 -0.1598,-1.4549 -0.1038,-0.4319 -0.2816,-0.8029 -0.5263,-1.1086 -0.249,-0.3005 -0.5772,-0.535 -0.9903,-0.6991 -0.4138,-0.1648 -0.9205,-0.249 -1.526,-0.249 -0.3383,0 -0.681,0.0283 -1.0193,0.0893 -0.3376,0.061 -0.6665,0.1408 -0.9808,0.2483 -0.3195,0.1038 -0.62,0.2301 -0.9112,0.3709 -0.2867,0.1409 -0.5495,0.2963 -0.7891,0.4603 0,1.1878 0.0755,2.1787 0.2258,2.9773 0.1546,0.7979 0.3709,1.4368 0.6621,1.9203 0.286,0.4835 0.6476,0.8262 1.0795,1.0331 0.432,0.2062 0.9344,0.31 1.5123,0.31 0.5866,0 1.0941,-0.1082 1.526,-0.3289 0.432,-0.2207 0.7885,-0.5169 1.0701,-0.8922 0.2868,-0.371 0.493,-0.7892 0.6295,-1.2538 0.1314,-0.4603 0.1975,-0.9344 0.1975,-1.423 z"
     style="fill:#1b1918;fill-rule:evenodd"
     id="path167" />
  <g
     id="Layer1000"
     transform="translate(-131.24459,-236.0967)">
    <g
       id="Layer1001">
      <path
         d="m 292.0473,720.3731 c -41.4162,0 -74.9906,5.0299 -74.9906,11.235 0,6.2051 33.5744,11.2351 74.9906,11.2351 41.4162,0 74.9907,-5.03 74.9907,-11.2351 0,-6.2051 -33.5745,-11.235 -74.9907,-11.235 z"
         style="fill:#1b1918;fill-rule:evenodd"
         id="path169" />
      <path
         d="m 291.6124,717.8622 c -40.9057,0 -74.0675,4.0942 -74.0675,9.1451 0,5.051 33.1618,9.1451 74.0675,9.1451 40.9079,0 74.0682,-4.0941 74.0682,-9.1451 0,-5.0509 -33.1603,-9.1451 -74.0682,-9.1451 z"
         style="fill:#ffffff;fill-rule:evenodd;stroke:#1b1918;stroke-width:0.5669;stroke-linecap:butt;stroke-linejoin:miter;stroke-dasharray:none"
         id="path171" />
      <path
         d="m 297.6934,707.014 h -12.4847 v 17.7258 h 12.4847 z"
         style="fill:#ffffff;fill-rule:evenodd"
         id="path173" />
    </g>
    <path
       d="m 397.7352,301.1839 c 4.987,8.6968 0.3897,37.892 4.2878,60.9428 3.0952,18.3029 -16.4599,84.6589 -17.2969,79.7854 -4.2437,-24.7073 -32.5707,33.9396 -67.8932,33.0659 -27.524,-0.6807 -53.4025,-19.7193 -72.7844,-39.3217 -25.2783,-25.5664 -18.7253,-57.2043 -11.4398,-86.2386 6.5389,-26.0585 -19.5033,-62.6675 59.4277,-58.75 26.5291,1.3167 77.1204,4.5722 102.7435,10.6661 z"
       style="fill:#ffffff;fill-rule:evenodd"
       id="path176" />
    <path
       d="m 303.7791,402.517 c 5.0389,-21.5499 -14.7919,-51.3164 -42.2508,-36.4688 -7.9894,4.3191 -6.9106,8.0235 -13.8271,-3.0692 1.6112,33.8404 41.0913,38.1858 56.0779,39.538 z m -0.0643,0.4342 c 2.216,-31.1443 -35.3754,-42.9196 -47.7206,-27.5934 2.8493,16.9723 34.2333,26.3771 47.7206,27.5934 z"
       style="fill:#1b1918;fill-rule:evenodd"
       id="path178" />
    <g
       id="Layer1002">
      <path
         d="m 282.8197,368.7478 a 10.713,11.5365 -39.8449 0 0 -14.3127,5.3151 10.713,11.5365 -39.8449 1 0 14.3127,-5.3151 z"
         style="fill:#1b1918;fill-rule:evenodd"
         id="path180" />
      <path
         d="m 283.2968,373.3412 a 3.1629,3.3055 -59.713 0 0 -4.4495,1.0641 3.1629,3.3055 -59.713 1 0 4.4495,-1.0641 z"
         style="fill:#ffffff;fill-rule:evenodd"
         id="path182" />
      <path
         d="m 282.7989,382.26 a 1.4599,1.5257 -59.713 0 0 -2.0538,0.4912 1.4599,1.5257 -59.713 1 0 2.0538,-0.4912 z"
         style="fill:#ffffff;fill-rule:evenodd"
         id="path184" />
    </g>
    <path
       d="m 339.4443,406.2931 c -0.6968,-17.6228 29.317,-45.8431 43.4227,-26.2843 2.4951,3.46 1.7747,5.2328 8.6845,-3.9291 -9.5214,37.0764 -37.9542,33.2448 -52.1072,30.2134 z m 0.0225,0.3847 c 5.4127,-23.194 41.4181,-34.8263 43.8713,-20.4186 -3.8106,14.619 -20.8706,21.8445 -43.8713,20.4186 z"
       style="fill:#1b1918;fill-rule:evenodd"
       id="path187" />
    <g
       id="Layer1003">
      <path
         d="m 372.0756,380.2194 a 10.1589,10.9398 -11.9635 0 0 -14.3539,-1.8919 10.1589,10.9398 -11.9635 1 0 14.3539,1.8919 z"
         style="fill:#1b1918;fill-rule:evenodd"
         id="path189" />
      <path
         d="m 370.4386,384.2812 a 2.9993,3.1346 -31.8315 0 0 -4.2014,-1.0812 2.9993,3.1346 -31.8315 1 0 4.2014,1.0812 z"
         style="fill:#ffffff;fill-rule:evenodd"
         id="path191" />
      <path
         d="m 366.0662,391.5361 a 1.3844,1.4468 -31.8315 0 0 -1.9393,-0.499 1.3844,1.4468 -31.8315 1 0 1.9393,0.499 z"
         style="fill:#ffffff;fill-rule:evenodd"
         id="path193" />
    </g>
    <path
       d="m 339.5205,406.1173 c 16.8831,-29.3079 41.7555,-30.7127 43.7037,-20.6482 1.1357,5.8677 1.6084,-3.8492 -7.0342,-8.3708 -10.1202,-5.2961 -32.8989,7.9225 -36.6695,29.019 z"
       style="fill:#1b1918;fill-rule:evenodd"
       id="path196" />
    <path
       d="m 303.7091,403.0862 c -11.1052,-36.5188 -36.7641,-37.6336 -49.1423,-27.8038 -5.291,4.2018 -4.0659,-2.4797 5.8268,-7.3446 26.937,-13.245 45.3395,8.6792 43.3155,35.1484 z"
       style="fill:#1b1918;fill-rule:evenodd"
       id="path198" />
    <path
       d="m 341.8322,371.9024 c 3.2292,-8.3492 -3.6431,3.4742 -4.3028,5.0553 -7.0777,16.9646 -13.2597,31.7914 1.5788,46.5672 -1.7505,5.3395 -11.4219,7.1283 -14.8238,7.7571 -2.8211,0.5214 -5.0117,2.946 -4.9637,5.9213 2.5935,-4.7369 5.1802,-4.1002 5.2961,-4.1216 3.8035,-0.7031 14.8211,-2.7401 16.4073,-9.6198 l -0.002,-6e-4 c 0.0687,-0.3001 -0.0162,-0.6278 -0.2529,-0.8582 -14.4456,-14.0364 -8.4354,-28.4421 -1.5502,-44.9454 1.0369,-2.4854 1.5659,-3.0721 2.6136,-5.7553 z"
       style="fill:#1b1918;fill-rule:evenodd"
       id="path200" />
    <path
       d="m 318.6799,428.728 c -2.0002,0.6574 -8.8665,7.302 -6.9701,0.6976 0.3914,-1.3632 6.42,-0.5167 6.9701,-0.6976 z"
       style="fill:#1b1918;fill-rule:evenodd"
       id="path202" />
    <path
       d="m 322.59,240.8657 c -42.0758,-6.2663 -76.9254,-6.3709 -77.8394,-0.2335 -0.9141,6.1374 32.4537,16.1923 74.5295,22.4586 42.0757,6.2663 76.9254,6.3709 77.8394,0.2335 0.9141,-6.1374 -32.4537,-16.1923 -74.5295,-22.4586 z m -4.2903,1.4741 c -36.4473,-5.4281 -66.5972,-5.7789 -67.3413,-0.7831 -0.744,4.9958 28.1998,13.4458 64.647,18.8738 36.4486,5.4283 66.5979,5.779 67.3419,0.7832 0.744,-4.9958 -28.1991,-13.4457 -64.6476,-18.8739 z"
       style="fill:#1b1918;fill-rule:evenodd"
       id="path204" />
    <path
       d="m 394.6332,264.9874 c 5.2876,45.0906 14.5488,84.96 1.6621,153.9072 -9.0381,28.4067 -21.206,57.7547 -63.9048,89.4293 h -76.778 c -41.6253,-38.5263 -54.1244,-81.08 -51.4967,-125.7271 4.4987,-44.17 21.6824,-92.2995 44.0242,-142.041 -17.7673,48.5021 -33.9705,96.3469 -37.136,138.716 0.3161,32.9906 -1.783,65.2645 49.5041,113.429 15.6574,11.7438 32.8683,13.913 51.7406,5.8655 46.0811,-20.9529 70.6979,-49.1673 78.2634,-83.1513 10.7826,-53.663 6.4341,-101.6637 4.1211,-150.4276 z"
       style="fill:#1b1918;fill-rule:evenodd"
       id="path206" />
    <path
       d="m 317.8503,357.9804 c 3.0166,1.8278 3.9865,-8.7531 1.9823,-11.2167 -8.8604,-10.891 -59.5037,-17.2639 -77.7705,6.8242 -0.0856,0.1117 36.1045,-19.6504 75.7882,4.3925 z"
       style="fill:#1b1918;fill-rule:evenodd"
       id="path208" />
    <g
       id="Layer1004">
      <path
         d="m 197.3117,507.1329 c 14.6789,18.5555 23.6528,51.7553 30.2045,53.6806 1.664,0.4887 -1.6422,-10.6897 0.5972,-13.3206 10.1361,-11.9105 23.5825,-18.1904 16.695,-24.485 -7.498,-6.8534 -14.9867,-17.5232 -18.5474,-26.8889 -3.607,-9.4859 -13.7575,9.1838 -28.9493,11.0139 z"
         style="fill:#ffffff;fill-rule:evenodd"
         id="path210" />
      <g
         id="Layer1005">
        <g
           id="Layer1006">
          <path
             d="m 168.3335,443.6842 c -0.2011,-1.7492 2.7059,-1.5989 4.6166,-2.0806 -0.8463,-15.2784 -7.7371,-16.2021 -5.0386,0.6968 -0.4652,0.8355 -0.4489,0.1587 -0.3141,0.9612 0.2742,1.6341 0.0495,0.1871 0.7361,0.4226 z"
             style="fill:#e30016;fill-rule:evenodd"
             id="path212" />
          <path
             d="m 182.5791,467.1912 -2.0619,0.5626 c 1.011,-2.7029 -1.1542,0.3792 0.5515,-1.1328 0.1494,-0.1323 1.0309,-0.4585 1.2369,-0.5144 1.188,-0.3227 1.6805,-0.2314 2.6525,-0.6702 0.435,-1.2982 -0.1285,-2.2719 -0.6755,-4.3908 -0.6825,-2.818 -2.4792,-6.4129 -4.5377,-7.0718 -1.9647,1.7601 -0.9204,7.3853 0.092,10.1018 l 0.3864,3.0746 c 0.5863,1.1713 -0.3748,0.5878 1.0466,0.6507 1.9068,0.0844 1.2602,-0.5665 1.3092,-0.6097 z"
             style="fill:#e30016;fill-rule:evenodd"
             id="path214" />
          <path
             d="m 138.6262,456.3785 c -0.5629,-2.5018 -0.3829,-3.5476 1.3135,-4.8161 l 1.5097,-1.1996 c -8.724,-2.2535 -12.329,1.2065 -6.9841,4.2317 1.1367,0.6434 2.6991,1.4086 4.1609,1.784 z"
             style="fill:#e30016;fill-rule:evenodd"
             id="path216" />
          <path
             d="m 204.5295,485.5552 2.4706,-1.0049 0.5466,-0.617 -0.5151,-0.967 c -0.1224,-1.5188 -1.3702,-3.0419 -2.1698,-4.2874 -0.895,-1.3939 -1.7693,-2.8689 -2.9889,-3.0637 -0.4252,1.2153 -0.2926,1.0959 0.0163,2.1963 0.8767,1.9065 0.8493,5.1934 2.1108,7.8152 z"
             style="fill:#e30016;fill-rule:evenodd"
             id="path218" />
        </g>
        <path
           d="m 213.9378,492.3117 c -0.3207,-0.3794 0.0224,0.4466 -0.6597,-0.8941 -0.0807,-0.1587 -0.2522,-0.7224 -0.285,-0.8366 l 0.2753,1.635 c 0.2232,2.1856 0.9689,4.1679 0.5263,6.1786 -0.3895,1.7706 -1.6177,3.2304 -4.1959,3.2799 -1.9068,-1.2089 -5.7408,-10.6026 -6.1075,-13.9045 -1.3263,-0.3634 -1.7798,-4.6715 -1.9876,-6.1367 l 1.0295,1.7782 -0.726,-4.3436 c -0.2081,-1.3192 -0.3611,-0.6285 0.082,-1.2564 -0.3089,-1.1004 -0.4415,-0.981 -0.0163,-2.1963 1.2196,0.1948 2.0939,1.6698 2.9889,3.0637 0.7996,1.2455 2.0474,2.7686 2.1698,4.2874 l 0.9069,0.8355 -0.9384,0.7485 -2.4706,1.0049 c 0.5715,0.7836 -0.5613,0.9234 1.2828,0.3369 l 2.9112,-1.5258 c -0.4577,-2.0854 -1.9462,-4.0344 -2.7108,-5.9656 l -0.7287,-0.6064 0.8343,0.484 c 2.6776,2.6657 4.8579,7.5339 6.1539,11.8958 0.7136,-0.6877 0.3168,0.1233 0.2741,-0.8607 -0.001,-0.027 -0.2565,-1.1459 -0.262,-1.1683 -0.4757,-2.3675 -2.981,-7.3672 -4.3454,-9.1557 -1.4099,-1.8483 -2.1476,-1.3609 -3.3878,-2.7074 -1.1328,-1.2299 -1.4339,-2.2547 -3.626,-1.6747 -2.0695,4.1724 2.3197,14.0834 3.6561,19.0265 -9.6727,-1.9756 -10.4209,-3.4851 -12.377,-10.4335 -1.0178,-3.6155 -2.1964,-6.9068 -3.0854,-10.5671 -0.8988,-3.6998 -1.3355,-7.3999 -2.3269,-10.9928 -0.7382,1.6081 1.1359,9.6721 1.4872,11.1959 0.8675,3.7643 2.1153,7.5957 3.1002,11.3634 1.1256,4.3057 2.296,6.5691 5.1866,8.0901 2.2867,1.2034 4.9011,2.3789 8.404,2.3314 1.5235,3.0299 2.7432,9.5077 6.7623,7.5214 3.5515,-1.7551 3.2905,-5.5416 2.2056,-9.8309 z"
           style="fill:#1b1918;fill-rule:evenodd"
           id="path221" />
        <path
           d="m 202.695,504.5281 c 1.342,-0.4021 0.7138,-0.1553 1.1557,-0.6682 -4.5583,1.3738 -8.2744,-1.631 -11.135,-2.8514 -4.051,-1.7282 -7.3581,-1.5133 -8.69,-7.3162 -1.0749,-4.6844 -1.4567,-9.7515 -2.2605,-14.4941 -0.7497,-4.4224 -2.5158,-10.8886 -3.7567,-15.284 l 0.2138,-1.9445 1.5266,4.8166 c 0.1432,-1.2881 -0.5691,-2.2713 0.088,-2.7107 -1.0124,-2.7165 -2.0567,-8.3417 -0.092,-10.1018 2.0585,0.6589 3.8552,4.2538 4.5377,7.0718 0.6152,0.5186 0.0913,-0.0855 0.629,0.8777 0.0601,0.1077 0.2043,0.4791 0.2735,0.5887 0.4631,0.7331 0.0465,0.2208 0.5533,0.6083 -0.7646,-2.7498 -1.1055,-4.5953 -2.4825,-7.1611 -1.2325,-2.2964 -2.5051,-3.596 -5.1658,-2.093 -0.6752,-4.0947 -0.9009,-13.0002 -2.6434,-16.1144 -0.2159,0.4355 -0.159,-0.1375 -0.1528,0.8439 l 0.9229,4.6995 c 0.1952,1.6543 0.2773,3.2809 0.407,4.9791 0.2848,3.7272 1.0398,6.9 1.142,10.5091 0.0812,2.8811 -1.2535,2.5887 0.6252,10.2091 2.9029,11.7747 2.3278,10.4117 4.2148,21.6525 1.8441,10.9859 3.7158,8.0531 11.8154,11.955 2.3074,1.1115 4.6395,2.6484 8.2738,1.9281 z"
           style="fill:#1b1918;fill-rule:evenodd"
           id="path223" />
        <path
           d="m 218.0399,476.7254 1.0688,0.7122 c 2.1612,1.0544 3.3442,4.6005 3.5487,7.4812 0.2057,2.9019 -0.4788,5.6323 -0.7502,8.0327 1.018,-1.0089 1.3613,-3.3835 1.6077,-4.7621 1.2197,4.2877 1.5849,6.662 3.5857,10.6353 2.8822,5.7242 11.3638,19.8684 15.4383,22.2982 l 0.3035,-0.3154 c -0.4829,-1.1326 -4.7233,-5.7311 -6.1403,-7.6592 -5.2912,-7.1993 -9.4288,-15.5082 -12.1696,-24.127 -1.8727,-5.8889 0.3459,-14.6187 -16.5755,-16.9035 -10.8638,-1.4668 -7.8335,-2.7548 -15.8327,-9.1031 l 0.0252,0.3532 c 0.7019,1.2442 3.7591,4.1216 5.1174,5.4696 2.1553,2.1387 3.229,2.9108 6.3669,3.6269 2.5107,0.573 5.248,0.7246 7.7376,1.3803 2.0475,0.5393 5.5825,1.7604 6.6685,2.8807 z"
           style="fill:#1b1918;fill-rule:evenodd"
           id="path225" />
        <path
           d="m 167.0519,471.5143 c -1.4687,-4.838 -1.7688,-8.6714 -2.3849,-13.5168 l 2.9145,0.9811 c 0.0572,0.0199 0.1771,0.0546 0.2629,0.0894 0.1307,2.3782 -0.0109,3.9977 -0.1147,6.2252 -0.0597,1.2792 -0.1931,5.0675 -0.6778,6.2211 z m -1.004,-34.652 -0.4121,0.0937 c 0.4287,7.3881 1.1728,13.7227 2.2063,21.4133 -1.0517,-0.2658 -2.1516,-0.9339 -3.1764,-1.4674 -0.5601,-2.4531 -0.7483,-5.2093 -1.2048,-7.7734 -0.4928,-2.7696 -1.1834,-5.1953 -1.7807,-7.8582 -0.1015,0.6613 0.1561,1.4219 0.3418,2.3093 l 0.2543,2.8874 c 1.6492,7.4399 1.3948,17.3458 3.7792,24.0626 1.0443,2.9418 1.0795,2.627 1.6126,5.8606 0.3378,2.0494 0.9401,4.072 1.5102,6.0676 1.1757,4.1154 2.2584,8.2006 3.4507,12.2945 0.1754,-0.4462 0.1512,-0.221 0.184,-0.9516 0.0211,-0.4705 -0.007,-0.5639 -0.0727,-1.0262 -1.4077,-9.8557 -5.3505,-10.4247 -4.1477,-27.2882 0.3478,-4.8767 0.0699,-9.0198 -0.9147,-14.1959 -0.9373,-4.9259 -0.8309,-9.9609 -1.63,-14.4281 z"
           style="fill:#1b1918;fill-rule:evenodd"
           id="path227" />
        <path
           d="m 179.5879,506.1455 c 2.007,0.8882 0.697,0.3164 0.8092,-0.1998 -5.0225,-3.3269 -8.9027,2.9958 -15.2121,-5.3106 -3.0505,-4.0164 -5.1394,-12.81 -6.9585,-18.1335 -4.1504,-12.1464 -1.2272,-29.7728 -4.1875,-38.4689 l -0.3083,-0.6338 c -0.2929,2.5967 0.3147,6.6331 0.5974,9.4853 1.0517,10.6107 -0.3455,20.2544 2.9969,29.6695 3.2428,9.1342 4.8375,20.7583 13.6915,23.0418 2.3018,0.5937 2.0183,0.3743 4.6236,0.1699 4.0669,-0.3191 2.3725,0.5603 3.9478,0.3801 z"
           style="fill:#1b1918;fill-rule:evenodd"
           id="path229" />
        <path
           d="m 138.6262,456.3785 c -1.4618,-0.3754 -3.0242,-1.1406 -4.1609,-1.784 -5.3449,-3.0252 -1.7399,-6.4852 6.9841,-4.2317 l -1.5097,1.1996 c -1.6964,1.2685 -1.8764,2.3143 -1.3135,4.8161 z m 12.2366,-4.5876 c 0.596,-0.1587 0.5226,0.027 0.2891,-0.5231 -4.7754,-2.151 -5.3331,-0.2156 -12.32,-1.8989 -5.6689,-1.3658 -13.6818,2.3339 -0.2014,8.11 1.8682,0.8006 3.3574,2.4281 4.7877,3.2641 2.2144,1.294 7.543,4.1837 10.8301,4.324 l -6.9509,-3.4331 c -13.4204,-6.5321 -8.0603,-12.9554 3.5654,-9.843 z"
           style="fill:#1b1918;fill-rule:evenodd"
           id="path231" />
        <path
           d="m 168.3335,443.6842 c 2.3047,-1.0668 3.5879,-0.6109 5.4961,-1.2854 0.2575,-4.8139 -1.6083,-16.6286 -6.2464,-12.7039 -1.2142,1.0273 -1.095,2.598 -1.3355,4.4342 0.0762,0.5268 0.2639,1.3119 0.3114,1.7722 0.1862,1.8065 -0.032,-1.454 0.0338,0.7058 l -0.0858,0.6757 1.4044,5.0176 c -2.6985,-16.8989 4.1923,-15.9752 5.0386,-0.6968 -1.9107,0.4817 -4.8177,0.3314 -4.6166,2.0806 z"
           style="fill:#1b1918;fill-rule:evenodd"
           id="path233" />
        <path
           d="m 160.7649,443.6679 c -0.5071,-1.7598 -0.6011,-3.6878 -0.8936,-5.1913 -0.7468,-2.2472 -1.0368,-3.6381 -2.8929,-4.2345 -1.7117,0.4273 -1.9999,1.6511 -2.3493,2.9338 -0.2967,1.0892 -0.6032,2.6413 -0.1724,3.7617 0.0161,1.1832 0.1163,1.4206 0.3725,2.5814 0.0867,0.3937 0.1874,0.9899 0.3536,1.338 0.3909,0.8172 -0.1838,0.3437 0.6033,0.6009 -0.8685,-3.269 -1.3623,-8.7454 1.0693,-10.2092 2.4296,1.2796 3.4535,10.2401 3.8476,13.0885 l -4.0576,0.7207 c 1.377,0.4918 3.4365,0.4743 5.1118,0.1189 z"
           style="fill:#1b1918;fill-rule:evenodd"
           id="path235" />
        <path
           d="m 208.3074,524.029 c -0.0249,0.0224 -1.5036,-0.7077 -0.1825,1.5816 l 3.2779,7.5729 c 0.6063,1.5541 2.3022,6.6121 2.9624,7.6126 1.0934,-2.5479 -5.0566,-13.8664 -6.0578,-16.7671 z"
           style="fill:#1b1918;fill-rule:evenodd"
           id="path237" />
        <path
           d="m 206.0783,522.1527 c 0.6903,0.156 0.466,0.3065 0.6467,-0.194 -0.5221,-2.7083 -7.3087,-12.053 -9.0226,-13.7952 l -0.2173,0.2726 c 0.6551,1.4156 3.2614,4.7564 4.3785,6.6053 1.506,2.4928 2.8024,4.4435 4.2147,7.1113 z"
           style="fill:#1b1918;fill-rule:evenodd"
           id="path239" />
        <path
           d="m 193.8939,506.8955 3.9028,-1.8677 c -7.7047,0.7173 -9.2738,4.9985 -13.5276,4.069 -0.7666,-0.1674 0.0425,-0.066 -0.7015,-0.069 l -0.1563,0.1566 c 0.2168,0.3655 -0.652,1.0182 2.3667,0.7984 1.2097,-0.0881 1.5742,-0.2497 2.7098,-0.7495 1.8609,-0.8189 3.4003,-1.9424 5.4061,-2.3378 z"
           style="fill:#1b1918;fill-rule:evenodd"
           id="path241" />
        <path
           d="m 205.8123,485.8921 c -1.8441,0.5865 -0.7113,0.4467 -1.2828,-0.3369 L 204,485.6267 c -1.2615,-2.6218 -1.2341,-5.9087 -2.1108,-7.8152 -0.4431,0.6279 -0.2901,-0.0628 -0.082,1.2564 l 0.726,4.3436 -1.0295,-1.7782 c 0.2078,1.4652 0.6613,5.7733 1.9876,6.1367 -0.0868,-1.2593 -0.3309,-1.2658 -0.8602,-2.5734 1.1358,0.8503 0.9796,1.476 1.9384,1.5464 2.3727,-0.5511 0.7448,-0.2869 1.2428,-0.8509 z"
           style="fill:#1b1918;fill-rule:evenodd"
           id="path243" />
        <path
           d="m 182.5791,467.1912 2.8777,-1.2094 c 0.3384,-0.8108 0.4413,-1.726 0.2816,-2.8615 -0.5068,-0.3875 -0.0902,0.1248 -0.5533,-0.6083 -0.0692,-0.1096 -0.2134,-0.481 -0.2735,-0.5887 -0.5377,-0.9632 -0.0138,-0.3591 -0.629,-0.8777 0.547,2.1189 1.1105,3.0926 0.6755,4.3908 -0.972,0.4388 -1.4645,0.3475 -2.6525,0.6702 -0.206,0.0559 -1.0875,0.3821 -1.2369,0.5144 -1.7057,1.512 0.4595,-1.5701 -0.5515,1.1328 z"
           style="fill:#1b1918;fill-rule:evenodd"
           id="path245" />
        <path
           d="m 162.2763,446.467 -0.2543,-2.8874 c -0.1857,-0.8874 -0.4433,-1.648 -0.3418,-2.3093 -0.3902,-1.0738 -0.5006,-1.5762 -1.328,-2.4415 -0.0458,-0.048 -0.103,-0.1678 -0.2326,-0.1781 -0.1342,-0.0107 -0.1658,-0.1158 -0.2483,-0.1741 0.2925,1.5035 0.3865,3.4315 0.8936,5.1913 l -0.2539,-3.4519 z"
           style="fill:#1b1918;fill-rule:evenodd"
           id="path247" />
        <path
           d="m 154.039,444.0327 c 1.387,1.0279 0.1056,2.4478 1.9292,3.7349 l -0.1821,-2.3097 c -0.7871,-0.2572 -0.2124,0.2163 -0.6033,-0.6009 -0.1662,-0.3481 -0.2669,-0.9443 -0.3536,-1.338 -0.2562,-1.1608 -0.3564,-1.3982 -0.3725,-2.5814 -0.9622,1.1485 -0.7839,0.9485 -0.726,2.4613 z"
           style="fill:#1b1918;fill-rule:evenodd"
           id="path249" />
        <path
           d="m 183.4113,509.1844 0.1563,-0.1566 c -0.5153,-0.56 -1.0632,-1.3969 -1.6154,-1.9217 -0.509,-0.4837 -1.0876,-0.7541 -1.5551,-1.1604 -0.1122,0.5162 1.1978,1.088 -0.8092,0.1998 0.6834,0.7029 1.0278,1.0475 1.7583,1.8773 0.7543,0.857 0.1534,0.4002 0.9812,0.8075 0.517,0.2546 0.6297,0.1952 1.0839,0.3541 z"
           style="fill:#1b1918;fill-rule:evenodd"
           id="path251" />
        <path
           d="m 197.4851,508.4361 0.2173,-0.2726 c -0.673,-1.2 -0.9232,-1.0976 -1.7249,-2.0396 l 2.4774,-0.617 c -0.058,-1.2773 0.1384,-0.2987 -0.6582,-0.4791 l -3.9028,1.8677 1.5394,-0.4471 c 0.266,0.47 0.496,0.8617 0.8575,1.2298 0.7553,0.7693 0.4672,0.4536 1.1943,0.7579 z"
           style="fill:#1b1918;fill-rule:evenodd"
           id="path253" />
        <path
           d="m 180.2233,467.1502 -0.3864,-3.0746 c -0.6571,0.4394 0.0552,1.4226 -0.088,2.7107 l -1.5266,-4.8166 -0.2138,1.9445 c 0.5825,0.3603 0.4907,0.0127 0.9893,1.6167 0.1777,0.5717 0.2376,0.9579 0.4644,1.6347 z"
           style="fill:#1b1918;fill-rule:evenodd"
           id="path255" />
        <path
           d="m 242.8424,520.8075 -0.3035,0.3154 c 0.9759,1.3697 1.7439,2.1371 3.0021,2.5023 -0.6249,-1.267 -1.526,-2.1827 -2.6986,-2.8177 z"
           style="fill:#1b1918;fill-rule:evenodd"
           id="path257" />
        <path
           d="m 213.9378,492.3117 c -0.4155,-1.582 -0.7567,-3.1189 -1.6535,-4.1666 0.006,0.0224 0.2606,1.1413 0.262,1.1683 0.0427,0.984 0.4395,0.173 -0.2741,0.8607 0.1279,0.3184 0.3793,1.0588 0.5009,1.3137 0.4253,0.8908 0.3041,0.5013 0.4953,0.7282 l -0.2753,-1.635 c 0.0328,0.1142 0.2043,0.6779 0.285,0.8366 0.6821,1.3407 0.339,0.5147 0.6597,0.8941 z"
           style="fill:#1b1918;fill-rule:evenodd"
           id="path259" />
        <path
           d="m 203.8507,503.8599 c -0.4419,0.5129 0.1863,0.2661 -1.1557,0.6682 1.1802,0.6308 3.1783,-0.088 4.0921,-1.1136 z"
           style="fill:#1b1918;fill-rule:evenodd"
           id="path261" />
        <path
           d="m 208.1249,525.6106 c -1.3211,-2.2893 0.1576,-1.5592 0.1825,-1.5816 -0.2371,-0.3675 -0.5304,-0.958 -0.7443,-1.2618 -0.7389,-1.0491 -0.2333,-0.4108 -0.8381,-0.8085 -0.1807,0.5005 0.0436,0.35 -0.6467,0.194 z"
           style="fill:#1b1918;fill-rule:evenodd"
           id="path263" />
        <path
           d="m 151.1519,451.2678 c 0.2335,0.5501 0.3069,0.3644 -0.2891,0.5231 l 2.9755,1.447 c -0.7049,-1.3241 -1.2973,-1.8413 -2.6864,-1.9701 z"
           style="fill:#1b1918;fill-rule:evenodd"
           id="path265" />
        <path
           d="m 192.1495,463.3679 -0.0252,-0.3532 c -1.3747,-1.1357 -1.6605,-1.2568 -3.2886,-1.4164 l 1.6199,0.9987 c 0.9203,0.4832 0.687,0.4771 1.6939,0.7709 z"
           style="fill:#1b1918;fill-rule:evenodd"
           id="path267" />
        <path
           d="m 166.5071,437.2828 0.0858,-0.6757 c -0.0658,-2.1598 0.1524,1.1007 -0.0338,-0.7058 -0.0475,-0.4603 -0.2352,-1.2454 -0.3114,-1.7722 -0.0243,0.0973 -0.0521,0.2263 -0.0686,0.2929 -0.016,0.0644 -0.0485,0.2047 -0.0685,0.2826 l -0.4748,2.2514 0.4121,-0.0937 z"
           style="fill:#1b1918;fill-rule:evenodd"
           id="path269" />
        <path
           d="m 207.0316,482.9663 0.5151,0.967 -0.5466,0.617 0.9384,-0.7485 z"
           style="fill:#1b1918;fill-rule:evenodd"
           id="path271" />
        <path
           d="m 206.1183,478.2783 -0.8343,-0.484 0.7287,0.6064 z"
           style="fill:#1b1918;fill-rule:evenodd"
           id="path273" />
        <path
           d="m 219.1087,477.4376 -1.0688,-0.7122 z"
           style="fill:#1b1918;fill-rule:evenodd"
           id="path275" />
        <path
           d="m 156.0945,448.3146 c -0.4183,-1.6816 -1.5458,-6.8827 -0.9591,-8.2977 0.2168,-0.523 -0.5518,-2.3112 1.3379,-4.8781 0.2079,-0.2821 1.7065,-0.2321 1.8576,1.577 0.002,0.024 1.5561,4.234 1.5063,5.7605 -0.0277,0.858 2.2386,6.2242 0.9056,6.2785 -0.9871,0.0405 -4.4998,0.1575 -4.6483,-0.4402 z"
           style="fill:#e30016;fill-rule:evenodd"
           id="path277" />
      </g>
    </g>
    <path
       d="m 339.1378,503.3417 c -4.2591,4.2205 -8.8915,8.5254 -13.9495,12.9268 -13.9674,14.6754 -20.6067,38.0972 -20.8112,62.9644 l -0.4285,121.2062 c -0.6394,10.0823 1.0035,17.4347 11.8668,22.4061 -4.0445,1.1644 -9.6925,2.0749 -15.7811,2.4146 V 528.1017 c 0,-2.3939 -1.9583,-4.3507 -4.3514,-4.3507 h -7e-4 c -2.3931,0 -4.3506,1.9568 -4.3506,4.3507 v 197.2282 c -5.7839,-0.2432 -11.4777,-1.1022 -16.1588,-2.8308 8.4803,-0.9141 13.5776,-11.2239 13.4331,-22.5378 -0.4992,-39.0048 -1.002,-110.8335 -1.5034,-121.4129 -2.2307,-24.5067 -3.7934,-49.5019 -21.078,-64.2568 -5.2661,-3.5474 -10.1738,-7.2 -14.7483,-10.9499 h 32.0479 c 5.5736,1.0471 11.1601,1.0536 16.7617,0 z"
       style="fill:#1b1918;fill-rule:evenodd"
       id="path281" />
    <path
       d="m 352.7494,362.0184 c -3.1511,1.5744 -3.3132,-4.7173 -1.3098,-7.1806 5.5295,-6.7963 24.0471,-22.3228 36.9999,-17.278 7.8,3.0384 12.0901,21.3121 14.5302,31.5031 0.0193,0.0814 -4.7738,-21.1433 -17.5337,-24.1824 -7.8335,-1.8657 -19.2558,10.4272 -32.6866,17.1379 z"
       style="fill:#1b1918;fill-rule:evenodd"
       id="path283" />
    <path
       d="m 300.7294,458.7289 c 2.6242,-0.8652 6.1366,-1.1435 8.5669,-0.7529 1.9726,0.3175 6.8438,2.4423 8.5954,3.4651 -3.1384,-0.4827 -6.123,0.3175 -8.938,0.1144 -1.027,-0.0736 -6.6579,-2.3065 -8.2243,-2.8266 z m 18.4533,2.8409 c 0.6887,0.6437 7.004,1.6285 7.7479,1.7157 2.9666,0.3462 5.9433,0.8898 8.4967,0.0352 -2.9596,-1.6458 -9.5382,-12.5119 -12.7487,-15.8298 -0.6545,-0.6759 -1.4003,-1.3526 -2.6156,-2.4046 -1.2201,-0.5665 -1.828,-0.3991 -3.1125,-0.3004 -1.0078,0.2925 -1.9504,0.3798 -3.0167,0.6953 -0.852,0.2516 -2.2759,1.0377 -2.9961,0.4699 -0.2431,-0.1825 -0.5957,-0.4692 -0.7953,-0.6803 -1.3654,-1.4455 -3.0089,-2.6649 -5.1173,-2.6155 l -2.5348,0.7438 -0.1851,0.1395 c -3.5526,1.0305 -24.0234,8.0325 -24.4783,7.9668 2.2495,2.6498 18.7142,7.142 19.8879,6.846 l 2.0162,0.3439 c -3.4308,0.3555 -19.7269,-3.2956 -22.9646,-4.9678 10.1659,35.2435 39.6426,36.0258 57.0552,11.1846 -2.6341,-0.0438 -5.2345,-0.3993 -7.7314,-0.9785 -2.5075,-0.5814 -5.0758,-1.6714 -7.2688,-2.1642 z"
       style="fill:#e30016;fill-rule:evenodd"
       id="path285" />
    <path
       d="m 318.7388,460.8735 0.0823,0.8977 c 2.1899,0.5089 4.7557,1.6181 7.2601,2.2182 4.1048,0.9838 7.9413,1.1738 12.1452,0.8478 0.5363,-0.1991 1.4908,-0.4201 2.3336,-0.7814 2.9079,-1.2469 4.0133,-4.3683 -0.7412,-2.3338 -5.4016,1.5557 -18.5665,1.5206 -21.08,-0.8485 z"
       style="fill:#1b1918;fill-rule:evenodd"
       id="path287" />
    <path
       d="m 290.1994,456.6249 c 3.8028,13.639 27.1888,16.1014 36.0724,6.6078 -3.6733,-3.6569 -11.2074,-5.6417 -14.2548,-6.1359 -3.7549,-0.6085 -10.9499,-1.0749 -21.8176,-0.4719 z"
       style="fill:#1b1918;fill-rule:evenodd"
       id="path289" />
    <path
       d="m 300.3862,457.9609 -0.3655,0.8268 c -2.2415,-0.1946 -5.0315,0.065 -7.6013,-0.1402 -4.2104,-0.3362 -13.1427,-3.2693 -17.0292,-4.8792 -0.4455,-0.3548 -1.2816,-0.8597 -1.9653,-1.4634 -2.3617,-2.0826 -2.4132,-5.3884 1.4496,-1.9861 4.6304,3.1476 22.3683,9.1132 25.5117,7.6421 z"
       style="fill:#1b1918;fill-rule:evenodd"
       id="path291" />
    <path
       d="m 335.8002,445.5708 c 0.3596,1.1018 -0.0456,2.278 -1.2245,2.1948 -1.8339,-0.1294 -1.5084,-4.0714 1.2245,-2.1948 z"
       style="fill:#1b1918;fill-rule:evenodd"
       id="path293" />
    <path
       d="m 308.7737,488.3324 c 2.7435,-1.2099 -8.5415,8.7524 -16.386,-2.2955 3.1438,2.8548 12.4642,5.1609 16.386,2.2955 z"
       style="fill:#1b1918;fill-rule:evenodd"
       id="path295" />
    <g
       id="Layer1007">
      <path
         d="m 301.798,460.2653 c -2.0333,10.8275 11.6801,3.315 18.0662,10.6287 3.6841,4.2183 10.0602,-0.7059 11.8325,7.9868 0.3004,1.4748 8.9623,12.828 -2.0648,3.9866 -5.1102,-4.0968 -12.5055,10.6559 -15.6538,-0.3068 -0.0244,-0.0844 -12.5513,-11.8039 -8.2228,9.4608 1.4125,6.9375 -15.0903,16.2682 -1.2731,15.7246 2.0584,-0.0808 1.6908,13.4961 5.889,26.932 3.7327,11.9434 12.0299,23.7787 14.3415,25.8099 4.6424,4.0803 -1.3389,23.976 14.4508,29.456 11.9848,4.1596 13.8773,10.4628 24.6662,-4.6832 0.8054,-1.1308 -11.2037,-27.2425 -10.6287,-39.5305 0.3376,-7.2258 4.6074,-24.147 6.193,-29.8329 5.4635,-19.5882 -4.9085,-18.6892 -1.793,-23.0148 12.0563,-16.7417 2.3738,-17.8867 -10.1096,-27.8396 -0.2245,-0.1788 -24.6626,-3.923 -11.6314,2.3123 5.1709,2.4739 8.2764,0.3089 11.4548,9.3192 0.0179,0.0507 5.824,3.5388 1.3453,4.5766 -4.2097,0.9763 -2.2973,-11.4606 -22.532,-16.7152 -4.8105,-1.2488 -24.1649,-5.1488 -24.3301,-4.2705 z m 17.9604,41.0817 c -4.2033,5.5272 -3.0053,10.2197 1.356,11.2868 3.7835,0.9255 10.563,-1.384 10.6882,-1.9268 2.8315,-0.5858 7.4703,-9.0381 -1.7223,-13.2121 -0.545,-0.2475 -9.6067,2.9116 -10.3219,3.8521 z"
         style="fill:#ffffff;fill-rule:evenodd"
         id="path297" />
      <g
         id="Layer1008">
        <path
           d="m 314.5932,487.5933 c -4.1775,2.922 -5.1532,3.0979 -8.6105,7.3822 -0.6109,-3.2562 -3.8293,-13.0712 0.5121,-14.8803 3.3926,-1.4141 7.8797,4.0459 8.0984,7.4981 z m 42.9718,7.7144 c 1.3961,-3.3649 3.8262,-8.1556 5.5722,-11.9941 1.9172,-4.2125 1.8808,-8.0343 -3.104,-10.8664 -3.9674,-3.2774 -7.9349,-6.5543 -11.9025,-9.8318 -5.9505,-0.2591 -13.8766,-0.7874 -19.8279,-1.0457 0.0339,0.5409 -0.061,1.3384 2.2192,1.8494 0.5417,0.121 0.3162,1.0617 0.5423,1.5625 -5.1462,-2.0911 -9.9394,-3.4766 -14.4245,-4.2464 -5.0176,-0.558 -10.0352,-1.1154 -15.0525,-1.6726 -9.8514,-0.6813 -0.4216,1.3006 -0.5241,1.9026 -0.5491,3.2178 1.0143,5.4975 5.5409,6.4597 3.1595,0.372 6.3187,0.7432 9.4783,1.1152 2.8144,3.6038 8.0393,5.3988 13.937,6.6902 1.2077,2.6015 2.4161,5.2028 3.6237,7.8048 -4.0649,-2.7836 -7.8549,-3.3755 -11.1495,0 l -6.8575,4.0249 c -0.8375,-3.4638 -2.3004,-5.2476 -3.9861,-6.6726 -1.0533,-0.4821 -2.5405,-0.8076 -2.9817,-1.6432 -2.4631,-4.6644 -4.3383,-5.1835 -5.0521,2.5956 -0.3963,4.3282 0.8609,10.289 1.9284,14.3343 -0.9401,1.165 -11.7862,13.2967 -9.771,13.8945 0.3269,0.0966 2.8301,-1.7553 3.1727,-1.5309 0.691,0.4538 4.4951,1.0255 6.4218,-0.2776 0.3362,13.653 3.3487,25.1183 7.8892,35.3316 l 0.037,0.4323 c 3.1323,6.0072 6.7574,11.7675 11.4294,17.0041 2.044,7.4334 4.0881,14.8671 6.1322,22.2999 l 1.7076,3.4585 c -1.9886,-7.0432 -4.7968,-19.9738 -6.4896,-26.1298 l -0.0866,-0.316 -0.2188,-0.2451 c -4.4475,-4.9854 -8.0085,-10.5697 -11.1024,-16.4714 -0.6681,-7.6779 -2.0116,-18.502 1.8642,-25.3933 3.6371,-6.4664 6.3087,-5.6748 12.5818,-5.0274 0.5076,0.0521 0.1986,20.653 0.7076,20.7057 1.0197,-15.0945 -0.3412,-17.9151 6.7348,-31.3228 l 0.6051,-1.1459 -1.0959,-0.6925 c -1.7656,-1.1146 -3.5307,-2.2295 -5.2966,-3.3447 l -0.8211,-0.5185 -0.7737,0.5874 c -2.5466,1.9343 -5.38,3.1682 -8.5544,3.6321 l -0.683,0.0997 -0.3375,0.6034 c -0.416,0.7457 -0.83,1.4931 -1.2597,2.2312 -1.8049,5.0434 -4.9308,8.6343 -9.0901,7.1886 -1.0944,-0.3807 2.4615,-3.5565 1.6614,-3.8318 0.7673,-1.3962 -0.5151,-1.6575 -0.4378,-1.8349 1.4701,-3.3435 3.9002,-6.5669 5.1462,-9.0057 l 5.1066,-4.9778 c 2.4738,-2.6108 3.6125,-3.6879 6.9836,-2.7069 l 17.0445,4.9596 -17.6306,-5.9199 c -3.057,-0.8664 -3.4152,-0.3028 -6.1285,1.5906 l -6.7317,6.2784 c -4.2677,5.8852 -8.608,15.9605 -14.7119,11.9634 1.1796,-1.4615 3.6388,-5.5202 2.0844,-5.5434 -0.6768,-0.0101 6.6771,-7.4839 9.4318,-10.8969 1.4973,-0.8785 11.4347,-6.8367 12.8959,-7.7203 2.9771,-3.05 5.7462,-1.0443 8.8906,1.1091 l 22.1472,14.0006 c -10.4935,-8.2264 -17.0417,-8.3981 -22.6324,-20.4393 l -1.3698,-3.7419 c -7.8808,-1.7242 -8.7259,-1.0124 -14.7514,-6.8611 -3.1374,-0.3695 -7.2326,-0.2597 -10.37,-0.6284 -3.5508,-0.7692 -4.5629,-2.2264 -3.7494,-5.4008 2.1485,0.2387 5.4557,1.7556 6.6952,-0.2193 0.3012,-0.4796 5.147,0.9468 7.6214,1.2222 5.2451,0.9048 10.008,1.7323 14.9024,3.8027 6.4356,2.2992 8.1718,1.2381 11.9333,8.2914 l 0.0168,0.0308 0.0182,0.03 c 4.7386,7.8987 9.8366,15.557 14.5755,23.4551 0.4695,0.6936 2.604,3.6061 3.2368,5.6729 0.56,2.7259 -0.9482,5.8694 -2.0101,8.3466 l -0.0956,0.2235 -0.0151,0.2432 c -0.4518,7.4423 -1.1191,15.0035 -4.5856,21.7444 l -0.0863,0.1672 -0.039,0.1841 c -1.5205,7.1911 -1.8703,14.8558 0.5878,21.8853 1.9642,7.4802 7.4221,24.4252 9.5794,32.871 l -0.9917,-5.6848 c -2.416,-9.1994 -4.8321,-18.3978 -7.2476,-27.5966 -2.2018,-6.2557 -2.2055,-13.3902 -0.5572,-21.1853 3.5671,-6.937 4.2697,-14.5892 4.7383,-22.3005 3.7753,-8.8091 0.839,-11.7448 -1.6726,-15.0525 z m -25.9236,-31.9046 c 3.4382,1.7388 6.8193,2.1298 7.8788,-0.2714 0.1313,-0.2989 5.4223,0.3936 7.9608,0.5034 3.8467,3.1777 7.6937,6.1159 11.5398,9.2934 l 0.3199,0.7364 c 4.0052,2.2755 5.0439,4.6255 3.2405,8.5898 -0.746,1.6382 -2.2438,3.7408 -3.0206,5.3644 -0.9701,2.0278 -1.9925,4.1052 -2.8917,6.1964 l -7.0032,-11.6726 2.9489,-2.9967 c -2.8858,-1.6024 -6.6398,-3.8361 -7.5289,-7.1584 l -0.9488,-1.9082 c -0.9477,0.2213 -1.2429,-0.1319 -2.2219,-0.0778 -4.1397,-4.1742 -9.2069,-2.771 -10.2736,-6.5987 z m -13.9505,43.7379 c 0.6398,1.6371 1.3454,3.2506 2.1001,4.8493 -7.8074,5.7501 -7.7584,15.9181 -6.9208,26.5306 -3.2783,-8.4245 -5.1664,-16.9795 -5.8426,-25.788 -0.0227,-0.3009 1.2152,-1.6401 1.3637,-1.5903 4.5091,1.5054 6.9773,-0.8163 9.2996,-4.0016 z m -10.8644,2.2052 c -0.037,-0.8976 -0.0622,-1.7973 -0.0754,-2.7002 2.4004,-2.23 4.575,-5.7383 6.8222,-8.8373 -1.9656,3.8455 -4.6638,7.6916 -6.7468,11.5375 z m 36.2196,-38.059 c 0.23,-0.0369 0.4586,-0.0809 0.6869,-0.1336 0.916,3.4226 3.5671,5.9787 7.2443,8.0203 l -2.043,1.7508 -4.4198,-7.367 c -0.4378,-0.8214 -0.928,-1.5771 -1.4684,-2.2705 z m -24.4911,34.7216 c 0.7709,-1.2127 1.1085,-3.4316 1.8001,-4.6706 3.4638,-0.5059 7.0642,-1.7631 9.7573,-3.8091 1.7657,1.1146 3.4377,2.7886 5.2034,3.9033 -1.7657,3.3455 -2.6002,7.4353 -4.3652,10.7803 -2.0547,-0.8239 -8.3573,-1.4547 -10.2655,-0.2723 -0.8401,-1.7875 -1.4351,-4.071 -2.1301,-5.9316 z"
           style="fill:#1b1918;fill-rule:evenodd"
           id="path299" />
        <path
           d="m 339.6397,464.6141 c 0.617,-1.0789 0.8734,-2.1113 -0.8182,-2.7202 -0.5114,-0.8175 -7.6189,-1.5589 -9.071,-1.8404 -0.7534,-0.088 -2.5744,-0.3626 -3.1538,0.0465 -0.5234,1.3553 4.3427,4.8691 8.2065,5.3517 2.0648,0.2577 3.7582,1.0418 4.8365,-0.8376 z"
           style="fill:#1b1918;fill-rule:evenodd"
           id="path301" />
        <path
           d="m 338.6524,461.9351 c 1.3635,0.5007 0.8553,1.7586 -0.0703,3.186 -3.7655,0.2859 -7.0078,-0.6878 -9.6754,-3.047 -2.515,-1.6725 -2.2297,-2.2652 0.3752,-1.9621 3.1233,0.6077 6.2472,1.2155 9.3705,1.8231 z"
           style="fill:#e30016;fill-rule:evenodd"
           id="path303" />
        <path
           d="m 309.7496,461.7462 c 0.5836,-0.8156 0.809,-1.6041 -0.8951,-2.1138 -0.5338,-0.6417 -7.6408,-1.3849 -9.0966,-1.6368 -0.7537,-0.086 -2.577,-0.3416 -3.1426,-0.0407 -0.4822,1.0307 4.4714,3.8536 8.3373,4.3188 2.0659,0.2484 3.777,0.8932 4.797,-0.5275 z"
           style="fill:#1b1918;fill-rule:evenodd"
           id="path305" />
        <path
           d="m 308.6871,459.66 c 1.3739,0.4185 0.904,1.3745 0.0231,2.4508 -3.7455,0.1288 -7.0061,-0.6994 -9.7344,-2.5802 -2.5561,-1.3485 -2.289,-1.7978 0.3166,-1.5013 3.1314,0.5435 6.2633,1.0872 9.3947,1.6307 z"
           style="fill:#e30016;fill-rule:evenodd"
           id="path307" />
        <path
           d="m 303.2048,501.1805 c -0.7084,-0.8927 -1.5004,-1.4703 -2.5973,-0.2848 -0.8714,0.1344 -3.9325,5.7583 -4.6686,6.8613 -0.3325,0.5928 -1.1889,2.0038 -1.0384,2.6283 0.976,0.913 5.6331,-1.8738 7.3649,-4.903 0.9252,-1.6189 2.1722,-2.7439 0.9394,-4.3018 z"
           style="fill:#1b1918;fill-rule:evenodd"
           id="path309" />
        <path
           d="m 300.5848,501.0504 c 0.8926,-0.9521 1.7906,-0.0862 2.6905,1.1853 -1.0435,3.2197 -2.9813,5.5603 -5.9032,6.935 -2.2846,1.4911 -2.6921,1.0452 -1.5435,-1.0049 1.5853,-2.3716 3.1709,-4.7438 4.7562,-7.1154 z"
           style="fill:#e30016;fill-rule:evenodd"
           id="path311" />
        <path
           d="m 312.2139,505.4103 c -0.6087,-0.7671 -1.2892,-1.2634 -2.2319,-0.2447 -0.7487,0.1155 -3.3791,4.9481 -4.0117,5.8959 -0.2857,0.5094 -1.0216,1.7219 -0.8923,2.2585 0.8387,0.7846 4.8405,-1.6102 6.3287,-4.2132 0.7951,-1.3911 1.8666,-2.3578 0.8072,-3.6965 z"
           style="fill:#1b1918;fill-rule:evenodd"
           id="path313" />
        <path
           d="m 309.9625,505.2985 c 0.767,-0.8181 1.5388,-0.0741 2.312,1.0185 -0.8966,2.7667 -2.5618,4.778 -5.0726,5.9593 -1.9632,1.2813 -2.3134,0.8981 -1.3264,-0.8635 1.3623,-2.038 2.7248,-4.0764 4.087,-6.1143 z"
           style="fill:#e30016;fill-rule:evenodd"
           id="path315" />
      </g>
    </g>
  </g>
  <path
     d="m 17.371609,-183.4724 c 0,3.1414 0.6378,5.4644 1.9055,6.9679 1.2756,1.5043 2.8187,2.2598 4.6301,2.2598 1.8422,0 3.4169,-0.7796 4.7236,-2.3383 1.315,-1.5591 1.9684,-3.9683 1.9684,-7.2357 0,-3.1179 -0.6378,-5.4485 -1.921,-6.9996 -1.2833,-1.5514 -2.8109,-2.3225 -4.5905,-2.3225 -1.7637,0 -3.3224,0.8263 -4.6768,2.4718 -1.3618,1.6538 -2.0393,4.0476 -2.0393,7.1966 z m -3.7791,21.5108 v -33.9194 h 3.7791 v 3.2201 c 0.8901,-1.2438 1.8975,-2.1804 3.0237,-2.8026 1.118,-0.6222 2.4801,-0.9374 4.0785,-0.9374 2.0943,0 3.9365,0.5358 5.5352,1.6141 1.5979,1.0709 2.8027,2.5908 3.6219,4.543 0.8107,1.9608 1.22,4.1023 1.22,6.4406 0,2.4965 -0.4484,4.7478 -1.3462,6.7559 -0.8977,1.9998 -2.2045,3.5353 -3.9209,4.606 -1.7084,1.063 -3.5118,1.5981 -5.4011,1.5981 -1.3859,0 -2.6303,-0.2914 -3.7244,-0.8739 -1.1024,-0.5825 -1.9999,-1.315 -2.7083,-2.2045 v 11.96 z m -23.1560003,-23.9987 h 13.6528 c -0.1814,-2.0628 -0.7086,-3.606 -1.5667,-4.6378 -1.3153,-1.5979 -3.03159999,-2.4009 -5.1338,-2.4009 -1.9055,0 -3.5036,0.6378 -4.803,1.9134 -1.2912,1.2753 -2.0075,2.984 -2.1493,5.1253 z m 13.6055,6.6611 4.299,0.5669 c -0.6695,2.4957 -1.921,4.4408 -3.748,5.8184 -1.8266,1.3782 -4.15729999,2.0707 -6.9996,2.0707 -3.5742,0 -6.4088,-1.1021 -8.5032997,-3.3066 -2.0945,-2.1968 -3.1414,-5.2911 -3.1414,-9.2673 0,-4.1099 1.0551,-7.3066 3.1726,-9.574 2.1179997,-2.2759 4.8658997,-3.4098 8.2439997,-3.4098 3.26750001,0 5.9366,1.1103 8.0073,3.3389 2.0707,2.2278 3.1101,5.3615 3.1101,9.4006 0,0.2443 -0.008,0.6142 -0.0235,1.1024 h -18.2588 c 0.1573,2.6849 0.9133,4.7477 2.2833,6.173 1.3618,1.425 3.0705,2.1413 5.1097,2.1413 1.52000001,0 2.81880001,-0.4011 3.8897,-1.2045 1.0783,-0.803 1.9287,-2.0863 2.5589,-3.85 z M -29.452191,-195.881 v 10.582 c 1.3385,0 2.2836,-0.2517 2.8267,-0.7478 0.5434,-0.5037 1.3229,-1.9763 2.3307,-4.4331 0.945,-2.3306 1.8031,-3.8109 2.575,-4.4563 0.7554,-0.6299 1.9522,-0.9448 3.5977,-0.9448 h 1.5199 v 3.4248 l -1.1262,-0.0232 c -1.1103,0 -1.811,0.1649 -2.118,0.4881 -0.3223,0.3387 -0.8184,1.3464 -1.4803,3.0231 -0.6137,1.6064 -1.1806,2.7088 -1.7005,3.3305 -0.5196,0.6142 -1.3385,1.1732 -2.4406,1.6849 1.7949,0.4804 3.543,2.1415 5.2515,4.9924 l 4.5586,7.5977 h -4.5663 l -4.4408,-7.5901 c -0.9056,-1.5432 -1.7007,-2.5509 -2.3697,-3.0314 -0.6775,-0.4804 -1.4803,-0.7163 -2.4177,-0.7163 v 11.3378 h -4.2517 v -11.3378 c -0.9212,0 -1.7164,0.2359 -2.3853,0.7084 -0.6775,0.4728 -1.4647,1.4882 -2.3624,3.0472 l -4.4799,7.5822 h -4.5663 l 4.5428,-7.5977 c 1.724,-2.8509 3.4877,-4.512 5.2829,-4.9924 -1.2282,-0.5667 -2.0942,-1.1889 -2.5824,-1.8579 -0.496,-0.6689 -1.2279,-2.2677 -2.2121,-4.795 -0.3388,-0.8504 -0.701,-1.37 -1.0871,-1.5591 -0.4011,-0.1964 -0.9921,-0.2914 -1.7793,-0.2914 -0.197,0 -0.6061,0.008 -1.2203,0.0241 v -3.4489 h 0.5748 c 1.6062,0 2.7324,0.0944 3.3857,0.2914 0.6534,0.1891 1.2359,0.5981 1.7558,1.2203 0.5117,0.6222 1.1807,1.9131 1.9999,3.8894 0.9997,2.4171 1.7713,3.8818 2.3071,4.4014 0.5352,0.5198 1.4797,0.7795 2.8261,0.7795 v -10.582 z m -39.1708,33.9429 -0.472,-3.8421 c 0.9133,0.2438 1.7005,0.3699 2.3774,0.3699 0.9289,0 1.6693,-0.1573 2.2207,-0.4649 0.5584,-0.3069 1.0156,-0.7398 1.3697,-1.2911 0.2602,-0.4173 0.6854,-1.4485 1.2679,-3.1023 0.0785,-0.2282 0.1967,-0.5669 0.3699,-1.0156 l -9.3064,-24.5968 h 4.4402 l 5.1182,14.1568 c 0.669,1.7872 1.2595,3.6771 1.7873,5.661 0.4805,-1.8663 1.0474,-3.7085 1.7084,-5.5193 l 5.2282,-14.2985 h 4.1491 l -9.2667,24.9434 c -1.0004,2.685 -1.7799,4.5273 -2.3383,5.5429 -0.7407,1.3621 -1.5908,2.3624 -2.5433,3.0002 -0.9609,0.6378 -2.1024,0.9524 -3.4253,0.9524 -0.8031,0 -1.7008,-0.1652 -2.685,-0.496 z m -22.9748,-35.36 c -2.7871,0.1262 -5.0389,0.9445 -6.7632,2.4724 -1.724599,1.527 -2.590599,3.653 -2.590599,6.3853 0,2.7006 0.8504,4.8187 2.551199,6.3618 1.7005,1.5429 3.9682,2.3698 6.8026,2.4959 z m 4.2043,-0.0476 v 17.8104 c 2.8897,-0.1417 5.1574,-0.9842 6.8188,-2.5277 1.6611,-1.5431 2.4879,-3.6691 2.4879,-6.3774 0,-2.6614 -0.8112,-4.7633 -2.4409,-6.3223 -1.6299,-1.5512 -3.9132,-2.4092 -6.8658,-2.583 z m -4.2043,-3.8265 v -4.299 h 4.2043 v 4.299 c 4.307,0.2282 7.7083,1.5279 10.1962,3.8974 2.4962,2.3703 3.7401,5.307 3.7401,8.8189 0,3.4404 -1.2048,6.3612 -3.6219,8.7706 -2.4171,2.4015 -5.8495,3.7321 -10.3144,3.9765 v 4.3461 h -4.2043 v -4.3461 c -3.9994,-0.1579 -7.3299,-1.3782 -9.991599,-3.6692 -2.6614,-2.283 -3.9915,-5.3147 -3.9915,-9.0779 0,-3.7721 1.3301,-6.795 3.9839,-9.0627 2.652899,-2.2674 5.983599,-3.4798 9.999199,-3.6536 z"
     style="fill:#1b1918;fill-rule:evenodd"
     id="path320" />
</svg>
