<?xml version="1.0" encoding="UTF-8" standalone="no"?>
<svg version="1.1" width="197.91948" height="498.83795" id="svg878" viewBox="0 0 197.91948 498.83795"
    xmlns="http://www.w3.org/2000/svg">
  <defs
     id="defs882" />
  <path
     d="m -49.938665,-188.23447 c 0,3.1414 0.6378,5.4644 1.9055,6.9679 1.2756,1.5043 2.8187,2.2598 4.6301,2.2598 1.8422,0 3.4169,-0.7796 4.7236,-2.3383 1.315,-1.5591 1.9684,-3.9683 1.9684,-7.2357 0,-3.1179 -0.6378,-5.4485 -1.921,-6.9996 -1.2833,-1.5514 -2.8109,-2.3225 -4.5905,-2.3225 -1.7637,0 -3.3224,0.8263 -4.6768,2.4718 -1.3618,1.6538 -2.0393,4.0476 -2.0393,7.1966 z m -3.7791,21.5108 v -33.9194 h 3.7791 v 3.2201 c 0.8901,-1.2438 1.8975,-2.1804 3.0237,-2.8026 1.118,-0.6222 2.4801,-0.9374 4.0785,-0.9374 2.0943,0 3.9365,0.5358 5.5352,1.6141 1.5979,1.0709 2.8027,2.5908 3.6219,4.543 0.8107,1.9608 1.22,4.1023 1.22,6.4406 0,2.4965 -0.4484,4.7478 -1.3462,6.7559 -0.8977,1.9998 -2.2045,3.5353 -3.9209,4.606 -1.7084,1.063 -3.5118,1.5981 -5.4011,1.5981 -1.3859,0 -2.6303,-0.2914 -3.7244,-0.8739 -1.1024,-0.5825 -1.9999,-1.315 -2.7083,-2.2045 v 11.96 z m -23.156,-23.9987 h 13.6528 c -0.1814,-2.0628 -0.7086,-3.606 -1.5667,-4.6378 -1.3153,-1.5979 -3.0316,-2.4009 -5.1338,-2.4009 -1.9055,0 -3.5036,0.6378 -4.803,1.9134 -1.2912,1.2753 -2.0075,2.984 -2.1493,5.1253 z m 13.6055,6.6611 4.299,0.5669 c -0.6695,2.4957 -1.921,4.4408 -3.748,5.8184 -1.8266,1.3782 -4.1573,2.0707 -6.9996,2.0707 -3.5742,0 -6.4088,-1.1021 -8.5033,-3.3066 -2.0945,-2.1968 -3.1414,-5.2911 -3.1414,-9.2673 0,-4.1099 1.0551,-7.3066 3.1726,-9.574 2.118,-2.2759 4.8659,-3.4098 8.244,-3.4098 3.2675,0 5.9366,1.1103 8.0073,3.3389 2.0707,2.2278 3.1101,5.3615 3.1101,9.4006 0,0.2443 -0.008,0.6142 -0.0235,1.1024 h -18.2588 c 0.1573,2.6849 0.9133,4.7477 2.2833,6.173 1.3618,1.425 3.0705,2.1413 5.1097,2.1413 1.52,0 2.8188,-0.4011 3.8897,-1.2045 1.0783,-0.803 1.9287,-2.0863 2.5589,-3.85 z m -33.4942,-16.5818 v 10.582 c 1.3385,0 2.2836,-0.2517 2.8267,-0.7478 0.5434,-0.5037 1.3229,-1.9763 2.3307,-4.4331 0.945,-2.3306 1.8031,-3.8109 2.575,-4.4563 0.7554,-0.6299 1.9522,-0.9448 3.5977,-0.9448 h 1.5199 v 3.4248 l -1.1262,-0.0232 c -1.1103,0 -1.811,0.1649 -2.118,0.4881 -0.3223,0.3387 -0.8184,1.3464 -1.4803,3.0231 -0.6137,1.6064 -1.1806,2.7088 -1.7005,3.3305 -0.5196,0.6142 -1.3385,1.1732 -2.4406,1.6849 1.7949,0.4804 3.543,2.1415 5.2515,4.9924 l 4.5586,7.5977 h -4.5663 l -4.4408,-7.5901 c -0.9056,-1.5432 -1.7007,-2.5509 -2.3697,-3.0314 -0.6775,-0.4804 -1.4803,-0.7163 -2.4177,-0.7163 v 11.3378 h -4.251695 v -11.3378 c -0.9212,0 -1.7164,0.2359 -2.3853,0.7084 -0.6775,0.4728 -1.4647,1.4882 -2.3624,3.0472 l -4.4799,7.5822 h -4.5663 l 4.5428,-7.5977 c 1.724,-2.8509 3.4877,-4.512 5.2829,-4.9924 -1.2282,-0.5667 -2.0942,-1.1889 -2.5824,-1.8579 -0.496,-0.6689 -1.2279,-2.2677 -2.2121,-4.795 -0.3388,-0.8504 -0.701,-1.37 -1.0871,-1.5591 -0.4011,-0.1964 -0.9921,-0.2914 -1.7793,-0.2914 -0.197,0 -0.6061,0.008 -1.2203,0.0241 v -3.4489 h 0.5748 c 1.6062,0 2.7324,0.0944 3.3857,0.2914 0.6534,0.1891 1.2359,0.5981 1.7558,1.2203 0.5117,0.6222 1.1807,1.9131 1.9999,3.8894 0.9997,2.4171 1.7713,3.8818 2.3071,4.4014 0.5352,0.5198 1.4797,0.7795 2.8261,0.7795 v -10.582 z m -39.170795,33.9429 -0.472,-3.8421 c 0.9133,0.2438 1.7005,0.3699 2.3774,0.3699 0.9289,0 1.6693,-0.1573 2.2207,-0.4649 0.5584,-0.3069 1.0156,-0.7398 1.3697,-1.2911 0.2602,-0.4173 0.6854,-1.4485 1.2679,-3.1023 0.0785,-0.2282 0.1967,-0.5669 0.3699,-1.0156 l -9.3064,-24.5968 h 4.4402 l 5.1182,14.1568 c 0.669,1.7872 1.2595,3.6771 1.7873,5.661 0.4805,-1.8663 1.0474,-3.7085 1.7084,-5.5193 l 5.2282,-14.2985 h 4.1491 l -9.2667,24.9434 c -1.0004,2.685 -1.7799,4.5273 -2.3383,5.5429 -0.7407,1.3621 -1.5908,2.3624 -2.5433,3.0002 -0.9609,0.6378 -2.1024,0.9524 -3.4253,0.9524 -0.8031,0 -1.7008,-0.1652 -2.685,-0.496 z m -22.9748,-35.36 c -2.7871,0.1262 -5.0389,0.9445 -6.7632,2.4724 -1.7246,1.527 -2.5906,3.653 -2.5906,6.3853 0,2.7006 0.8504,4.8187 2.5512,6.3618 1.7005,1.5429 3.9682,2.3698 6.8026,2.4959 z m 4.2043,-0.0476 v 17.8104 c 2.8897,-0.1417 5.1574,-0.9842 6.8188,-2.5277 1.6611,-1.5431 2.4879,-3.6691 2.4879,-6.3774 0,-2.6614 -0.8112,-4.7633 -2.4409,-6.3223 -1.6299,-1.5512 -3.9132,-2.4092 -6.8658,-2.583 z m -4.2043,-3.8265 v -4.299 h 4.2043 v 4.299 c 4.307,0.2282 7.7083,1.5279 10.1962,3.8974 2.4962,2.3703 3.7401,5.307 3.7401,8.8189 0,3.4404 -1.2048,6.3612 -3.6219,8.7706 -2.4171,2.4015 -5.8495,3.7321 -10.3144,3.9765 v 4.3461 h -4.2043 v -4.3461 c -3.9994,-0.1579 -7.3299,-1.3782 -9.9916,-3.6692 -2.6614,-2.283 -3.9915,-5.3147 -3.9915,-9.0779 0,-3.7721 1.3301,-6.795 3.9839,-9.0627 2.6529,-2.2674 5.9836,-3.4798 9.9992,-3.6536 z"
     style="fill:#1b1918;fill-rule:evenodd"
     id="path785" />
  <path
     d="m -44.212665,-140.06137 c 0,0.1741 -0.009,0.3218 -0.0269,0.4423 -0.0179,0.125 -0.0448,0.2236 -0.0848,0.299 -0.0402,0.0808 -0.085,0.1389 -0.1341,0.1789 -0.0538,0.0402 -0.121,0.0581 -0.197,0.0581 h -3.5257 v 10.1568 c 0,0.0712 -0.017,0.1293 -0.053,0.1789 -0.036,0.0442 -0.0899,0.0893 -0.1701,0.125 -0.0802,0.0312 -0.1879,0.0581 -0.3308,0.0762 -0.1383,0.0173 -0.3172,0.0261 -0.5363,0.0261 -0.214,0 -0.3881,-0.009 -0.527,-0.0261 -0.1431,-0.0181 -0.2551,-0.045 -0.335,-0.0762 -0.0851,-0.0357 -0.1432,-0.0808 -0.1744,-0.125 -0.0308,-0.0496 -0.0447,-0.1077 -0.0447,-0.1789 v -10.1568 h -3.5258 c -0.0669,0 -0.1289,-0.0179 -0.1871,-0.0581 -0.0581,-0.04 -0.1029,-0.0981 -0.1389,-0.1789 -0.0311,-0.0754 -0.062,-0.1783 -0.085,-0.3033 -0.0221,-0.125 -0.0312,-0.2769 -0.0312,-0.4518 0,-0.1562 0.009,-0.2943 0.0312,-0.4153 0.023,-0.125 0.0539,-0.2279 0.0941,-0.3081 0.04,-0.0851 0.0848,-0.1429 0.1386,-0.1832 0.0494,-0.0408 0.1114,-0.0586 0.1783,-0.0586 h 9.2228 c 0.0672,0 0.1299,0.0178 0.188,0.0586 0.0581,0.0403 0.1029,0.0981 0.1383,0.1832 0.0317,0.0802 0.0626,0.1873 0.0848,0.3123 0.0229,0.1256 0.0317,0.2679 0.0317,0.4249 z m -11.0951,9.3209 c 0,0.1471 -0.005,0.277 -0.0136,0.3841 -0.009,0.112 -0.0221,0.201 -0.0442,0.277 -0.023,0.0759 -0.049,0.1389 -0.0808,0.197 -0.0312,0.0581 -0.0984,0.1428 -0.21,0.25 -0.1072,0.112 -0.2951,0.246 -0.5542,0.411 -0.2634,0.161 -0.5582,0.3081 -0.8844,0.4334 -0.3308,0.1299 -0.684,0.2328 -1.0681,0.3087 -0.3841,0.0802 -0.7821,0.1202 -1.1931,0.1202 -0.8493,0 -1.5996,-0.138 -2.2516,-0.4201 -0.6571,-0.2769 -1.207,-0.6831 -1.6444,-1.2194 -0.443,-0.5361 -0.7781,-1.198 -1.0102,-1.9752 -0.2322,-0.7821 -0.349,-1.6804 -0.349,-2.7034 0,-1.1574 0.1432,-2.1535 0.4249,-2.9897 0.2861,-0.8311 0.6744,-1.5143 1.1665,-2.0464 0.4961,-0.5312 1.0769,-0.9243 1.7425,-1.184 0.6701,-0.2543 1.394,-0.3844 2.1713,-0.3844 0.3759,0 0.7379,0.036 1.0902,0.1072 0.358,0.0672 0.6797,0.161 0.9791,0.273 0.2951,0.1159 0.5629,0.246 0.7911,0.3979 0.2322,0.1472 0.402,0.277 0.5043,0.3793 0.1077,0.1077 0.1789,0.1919 0.2189,0.25 0.036,0.063 0.072,0.1347 0.0989,0.2192 0.0221,0.0807 0.0399,0.1746 0.049,0.2817 0.009,0.1029 0.0131,0.237 0.0131,0.3932 0,0.3399 -0.04,0.5763 -0.116,0.7152 -0.0802,0.134 -0.174,0.2009 -0.2902,0.2009 -0.1299,0 -0.2818,-0.0717 -0.4519,-0.2191 -0.1692,-0.1428 -0.3841,-0.3039 -0.6474,-0.4779 -0.2639,-0.174 -0.5808,-0.3351 -0.9519,-0.4782 -0.371,-0.1477 -0.809,-0.2191 -1.3136,-0.2191 -1.0411,0 -1.8411,0.398 -2.3952,1.1973 -0.5539,0.7954 -0.8312,1.9534 -0.8312,3.4677 0,0.7551 0.072,1.4212 0.2143,1.9933 0.1477,0.5672 0.3578,1.0454 0.639,1.4295 0.2772,0.3798 0.621,0.6658 1.0281,0.8532 0.4062,0.188 0.8711,0.2818 1.3941,0.2818 0.5003,0 0.9382,-0.0808 1.3135,-0.237 0.3751,-0.1562 0.6971,-0.3302 0.974,-0.523 0.2773,-0.1871 0.5094,-0.3572 0.6974,-0.5091 0.1879,-0.1562 0.3308,-0.2321 0.4379,-0.2321 0.0581,0 0.112,0.0178 0.1562,0.0532 0.0448,0.0358 0.0808,0.0939 0.112,0.1747 0.0309,0.085 0.053,0.1873 0.0669,0.3172 0.013,0.125 0.0178,0.2769 0.0178,0.4512 z m -15.1478,2.1402 -1.5684,4.339 c -0.0538,0.138 -0.1879,0.246 -0.4019,0.322 -0.2101,0.076 -0.5361,0.1111 -0.9743,0.1111 -0.2279,0 -0.411,-0.009 -0.5499,-0.0312 -0.1381,-0.0221 -0.2452,-0.0626 -0.3212,-0.1117 -0.072,-0.0532 -0.1119,-0.1252 -0.121,-0.21 -0.009,-0.0893 0.0133,-0.1922 0.0629,-0.3172 l 1.6265,-4.102 c -0.081,-0.0357 -0.157,-0.0938 -0.2239,-0.1698 -0.0712,-0.0802 -0.1202,-0.161 -0.1432,-0.25 l -4.204,-11.2604 c -0.0717,-0.1831 -0.1029,-0.3308 -0.1029,-0.4331 0,-0.1077 0.0312,-0.1879 0.1029,-0.2509 0.0711,-0.062 0.1831,-0.1023 0.3393,-0.125 0.1562,-0.0221 0.3662,-0.0312 0.6301,-0.0312 0.2591,0 0.4649,0.005 0.6163,0.0182 0.1477,0.013 0.2639,0.04 0.3529,0.076 0.085,0.0308 0.148,0.085 0.1879,0.1471 0.0403,0.0669 0.0803,0.1567 0.125,0.2681 l 3.3648,9.4556 h 0.0402 l 3.2443,-9.5046 c 0.0533,-0.1701 0.1162,-0.2772 0.1922,-0.3215 0.0711,-0.0496 0.1831,-0.085 0.3302,-0.1077 0.1519,-0.0221 0.3668,-0.0312 0.6437,-0.0312 0.2455,0 0.4471,0.009 0.6033,0.0312 0.1561,0.0227 0.2724,0.063 0.3441,0.125 0.0759,0.063 0.1119,0.1432 0.1119,0.2509 0,0.1023 -0.0269,0.2361 -0.0759,0.3932 z m -9.6069,-0.326 c 0,0.0712 -0.0178,0.1293 -0.0538,0.1789 -0.0352,0.0442 -0.0933,0.0893 -0.1831,0.125 -0.0851,0.0312 -0.201,0.0581 -0.3442,0.0762 -0.1471,0.0173 -0.3259,0.0261 -0.5451,0.0261 -0.21,0 -0.388,-0.009 -0.536,-0.0261 -0.1471,-0.0181 -0.2633,-0.045 -0.3481,-0.0762 -0.0811,-0.0357 -0.1431,-0.0808 -0.1831,-0.125 -0.0408,-0.0496 -0.059,-0.1077 -0.059,-0.1789 v -14.6608 h -7.6674 v 14.6608 c 0,0.0712 -0.0179,0.1293 -0.0581,0.1789 -0.04,0.0442 -0.1029,0.0893 -0.1831,0.125 -0.0848,0.0312 -0.1968,0.0581 -0.3399,0.0762 -0.1471,0.0173 -0.326,0.0261 -0.5451,0.0261 -0.2183,0 -0.3971,-0.009 -0.5451,-0.0261 -0.1429,-0.0181 -0.2591,-0.045 -0.3441,-0.0762 -0.089,-0.0357 -0.1472,-0.0808 -0.1832,-0.125 -0.0357,-0.0496 -0.053,-0.1077 -0.053,-0.1789 v -15.7019 c 0,-0.3039 0.076,-0.5361 0.2274,-0.6883 0.1567,-0.1519 0.3489,-0.2279 0.5859,-0.2279 h 10.5718 c 0.2461,0 0.4382,0.076 0.5763,0.2279 0.1389,0.1522 0.21,0.3844 0.21,0.6883 z m -16.3941,-1.1129 c 0,0.6211 -0.1029,1.0321 -0.3082,1.2379 -0.2058,0.2052 -0.5762,0.3081 -1.1171,0.3081 -0.5272,0 -0.8892,-0.1029 -1.0902,-0.3038 -0.2013,-0.201 -0.2993,-0.6032 -0.2993,-1.2065 0,-0.621 0.1023,-1.0321 0.3081,-1.2373 0.2052,-0.2058 0.5763,-0.3087 1.1171,-0.3087 0.5273,0 0.8893,0.0987 1.0905,0.2996 0.1962,0.2013 0.2991,0.6075 0.2991,1.2107 z m -6.242195,0.5539 c 0,0.1658 -0.0139,0.3042 -0.0408,0.4161 -0.0264,0.1117 -0.0581,0.205 -0.1024,0.2722 -0.0447,0.0717 -0.0938,0.1207 -0.1519,0.1519 -0.0581,0.0317 -0.1162,0.0448 -0.174,0.0448 h -8.8478 c -0.0578,0 -0.116,-0.0131 -0.1698,-0.0448 -0.0491,-0.0312 -0.1029,-0.0802 -0.1471,-0.1519 -0.0491,-0.0672 -0.0851,-0.1605 -0.112,-0.2722 -0.0269,-0.1119 -0.0403,-0.2503 -0.0403,-0.4161 0,-0.1562 0.0134,-0.29 0.0403,-0.4019 0.0269,-0.1163 0.0581,-0.2101 0.0981,-0.2812 0.036,-0.076 0.085,-0.1299 0.1428,-0.1701 0.0582,-0.04 0.1211,-0.0581 0.188,-0.0581 h 3.5257 v -12.8954 l -3.2754,1.9573 c -0.1653,0.0851 -0.2994,0.1381 -0.4023,0.1562 -0.098,0.0179 -0.1788,0 -0.2409,-0.0581 -0.0629,-0.0581 -0.1032,-0.1519 -0.1253,-0.282 -0.0227,-0.129 -0.0317,-0.2943 -0.0317,-0.4953 0,-0.1479 0.005,-0.2772 0.0181,-0.3801 0.0136,-0.1068 0.0357,-0.1919 0.0626,-0.2639 0.027,-0.0669 0.0624,-0.1292 0.112,-0.1831 0.0442,-0.049 0.1072,-0.1029 0.1874,-0.1559 l 3.9056,-2.4985 c 0.0351,-0.026 0.0759,-0.049 0.1292,-0.0669 0.0539,-0.0133 0.1208,-0.0311 0.1967,-0.049 0.0803,-0.0181 0.1701,-0.0312 0.2773,-0.036 0.1029,-0.004 0.2321,-0.004 0.3931,-0.004 0.2058,0 0.3841,0.009 0.523,0.027 0.1381,0.0181 0.2452,0.0402 0.326,0.0711 0.0802,0.0321 0.1293,0.072 0.1562,0.1162 0.0269,0.0496 0.04,0.0987 0.04,0.152 v 14.8887 h 3.0656 c 0.0718,0 0.1389,0.0181 0.1968,0.0581 0.0623,0.0402 0.1114,0.0941 0.1522,0.1701 0.04,0.0711 0.0711,0.1649 0.0932,0.2812 0.0227,0.1119 0.0318,0.2457 0.0318,0.4019 z m -13.5887,0 c 0,0.1658 -0.0136,0.3042 -0.0406,0.4161 -0.0263,0.1117 -0.0581,0.205 -0.1023,0.2722 -0.0451,0.0717 -0.0941,0.1207 -0.1519,0.1519 -0.0581,0.0317 -0.1163,0.0448 -0.1744,0.0448 h -8.8475 c -0.0581,0 -0.1159,-0.0131 -0.17,-0.0448 -0.0491,-0.0312 -0.1029,-0.0802 -0.1472,-0.1519 -0.049,-0.0672 -0.0847,-0.1605 -0.1119,-0.2722 -0.027,-0.1119 -0.04,-0.2503 -0.04,-0.4161 0,-0.1562 0.013,-0.29 0.04,-0.4019 0.0272,-0.1163 0.0581,-0.2101 0.0983,-0.2812 0.0358,-0.076 0.0848,-0.1299 0.1429,-0.1701 0.0581,-0.04 0.121,-0.0581 0.1879,-0.0581 h 3.5258 v -12.8954 l -3.2757,1.9573 c -0.165,0.0851 -0.2991,0.1381 -0.402,0.1562 -0.0981,0.0179 -0.1789,0 -0.2412,-0.0581 -0.063,-0.0581 -0.1029,-0.1519 -0.125,-0.282 -0.0227,-0.129 -0.0318,-0.2943 -0.0318,-0.4953 0,-0.1479 0.005,-0.2772 0.0179,-0.3801 0.0139,-0.1068 0.036,-0.1919 0.0629,-0.2639 0.0269,-0.0669 0.0621,-0.1292 0.112,-0.1831 0.0442,-0.049 0.1071,-0.1029 0.1871,-0.1559 l 3.9058,-2.4985 c 0.0352,-0.026 0.076,-0.049 0.129,-0.0669 0.0541,-0.0133 0.121,-0.0311 0.197,-0.049 0.0802,-0.0181 0.1701,-0.0312 0.2769,-0.036 0.1032,-0.004 0.2322,-0.004 0.3932,-0.004 0.2061,0 0.3841,0.009 0.523,0.027 0.1383,0.0181 0.2455,0.0402 0.3263,0.0711 0.0799,0.0321 0.1292,0.072 0.1562,0.1162 0.0269,0.0496 0.0399,0.0987 0.0399,0.152 v 14.8887 h 3.0654 c 0.072,0 0.1389,0.0181 0.197,0.0581 0.0621,0.0402 0.1111,0.0941 0.152,0.1701 0.0402,0.0711 0.0711,0.1649 0.0932,0.2812 0.023,0.1119 0.0318,0.2457 0.0318,0.4019 z m -14.1157,-0.5539 c 0,0.6211 -0.1029,1.0321 -0.3081,1.2379 -0.2058,0.2052 -0.576,0.3081 -1.1172,0.3081 -0.5269,0 -0.8892,-0.1029 -1.0902,-0.3038 -0.201,-0.201 -0.299,-0.6032 -0.299,-1.2065 0,-0.621 0.102,-1.0321 0.3081,-1.2373 0.2052,-0.2058 0.5763,-0.3087 1.1171,-0.3087 0.5273,0 0.8893,0.0987 1.0902,0.2996 0.1962,0.2013 0.2991,0.6075 0.2991,1.2107 z m -10.2368,-13.606 h -0.0269 l -5.4513,9.3078 h 5.4782 z m 4.6599,10.2331 c 0,0.2851 -0.0442,0.513 -0.129,0.6789 -0.0898,0.1652 -0.21,0.2455 -0.3671,0.2455 h -1.9122 v 3.5614 c 0,0.0712 -0.0182,0.1293 -0.0533,0.1789 -0.036,0.0442 -0.0986,0.0893 -0.1879,0.125 -0.089,0.0312 -0.2101,0.0581 -0.353,0.0762 -0.1431,0.0173 -0.3262,0.0261 -0.5493,0.0261 -0.2191,0 -0.398,-0.009 -0.5409,-0.0261 -0.1431,-0.0181 -0.259,-0.045 -0.3441,-0.0762 -0.085,-0.0357 -0.1431,-0.0808 -0.174,-0.125 -0.0312,-0.0496 -0.0491,-0.1077 -0.0491,-0.1789 v -3.5614 h -6.9352 c -0.1072,0 -0.1922,-0.0134 -0.2591,-0.0403 -0.0712,-0.0269 -0.1341,-0.0711 -0.1922,-0.1429 -0.0538,-0.0671 -0.0938,-0.17 -0.1159,-0.2993 -0.023,-0.1298 -0.0312,-0.2996 -0.0312,-0.5097 0,-0.1652 0.004,-0.3123 0.013,-0.4422 0.009,-0.1292 0.027,-0.2503 0.0539,-0.3571 0.0221,-0.112 0.0581,-0.2149 0.1023,-0.313 0.0403,-0.1032 0.0941,-0.21 0.1568,-0.322 l 6.0412,-10.3039 c 0.0442,-0.0715 0.1114,-0.1293 0.1964,-0.1832 0.0848,-0.0532 0.1919,-0.098 0.326,-0.1292 0.1341,-0.036 0.2999,-0.0629 0.4918,-0.076 0.1964,-0.0139 0.4292,-0.0181 0.6973,-0.0181 0.29,0 0.5491,0.009 0.764,0.0312 0.2191,0.0221 0.3974,0.0538 0.5272,0.085 0.1341,0.036 0.237,0.085 0.3081,0.138 0.072,0.0587 0.1072,0.1259 0.1072,0.2061 v 10.8269 h 1.9122 c 0.148,0 0.2682,0.076 0.3581,0.228 0.0938,0.1513 0.138,0.384 0.138,0.6973 z m -14.781,3.3729 c 0,0.6211 -0.1029,1.0321 -0.3081,1.2379 -0.2058,0.2052 -0.5763,0.3081 -1.1171,0.3081 -0.5273,0 -0.8893,-0.1029 -1.0902,-0.3038 -0.201,-0.201 -0.2991,-0.6032 -0.2991,-1.2065 0,-0.621 0.1021,-1.0321 0.3081,-1.2373 0.205,-0.2058 0.576,-0.3087 1.1172,-0.3087 0.5269,0 0.8892,0.0987 1.0902,0.2996 0.1961,0.2013 0.299,0.6075 0.299,1.2107 z m -6.2691,0.474 c 0,0.1559 -0.009,0.2948 -0.0312,0.415 -0.0226,0.1258 -0.0538,0.2282 -0.0938,0.3089 -0.0402,0.0851 -0.0898,0.1429 -0.1567,0.1832 -0.0672,0.0399 -0.1384,0.0578 -0.2143,0.0578 h -9.3748 c -0.1202,0 -0.2279,-0.0131 -0.322,-0.0448 -0.089,-0.0312 -0.1692,-0.0802 -0.2322,-0.1519 -0.0668,-0.0672 -0.1159,-0.1693 -0.1471,-0.2994 -0.0317,-0.129 -0.0448,-0.29 -0.0448,-0.4821 0,-0.1747 0.009,-0.3269 0.0222,-0.4559 0.0136,-0.1301 0.0405,-0.246 0.0847,-0.3489 0.0451,-0.0981 0.1032,-0.1962 0.1701,-0.2993 0.0669,-0.0981 0.1562,-0.2053 0.2639,-0.317 l 3.3868,-3.4857 c 0.7861,-0.8042 1.4122,-1.5234 1.8854,-2.1623 0.4739,-0.6344 0.8359,-1.2155 1.095,-1.7424 0.2542,-0.523 0.4243,-0.997 0.5051,-1.4256 0.0802,-0.4289 0.1202,-0.8311 0.1202,-1.207 0,-0.375 -0.0621,-0.7322 -0.1871,-1.0672 -0.1301,-0.3351 -0.309,-0.6302 -0.5499,-0.885 -0.237,-0.2551 -0.5363,-0.4561 -0.8983,-0.6032 -0.3572,-0.1471 -0.773,-0.2234 -1.2422,-0.2234 -0.5493,0 -1.0411,0.0763 -1.4794,0.2234 -0.4331,0.1471 -0.8172,0.3129 -1.148,0.487 -0.3263,0.174 -0.6032,0.3393 -0.8223,0.487 -0.2189,0.1474 -0.3841,0.2233 -0.4913,0.2233 -0.0629,0 -0.1207,-0.0181 -0.1698,-0.0532 -0.049,-0.036 -0.0892,-0.0899 -0.121,-0.1701 -0.0312,-0.076 -0.0581,-0.1831 -0.0754,-0.313 -0.0179,-0.1341 -0.0269,-0.29 -0.0269,-0.4731 0,-0.1301 0.004,-0.2418 0.0133,-0.3398 0.009,-0.0942 0.0221,-0.1792 0.0448,-0.2503 0.0221,-0.0669 0.049,-0.1341 0.085,-0.1968 0.0352,-0.0581 0.1072,-0.1341 0.2101,-0.2282 0.1071,-0.089 0.286,-0.214 0.5451,-0.3702 0.2542,-0.161 0.5802,-0.3129 0.9691,-0.4648 0.3844,-0.1562 0.8133,-0.2812 1.2824,-0.3892 0.4649,-0.1021 0.9562,-0.1562 1.4704,-0.1562 0.822,0 1.5412,0.1162 2.1534,0.3483 0.6169,0.2279 1.1262,0.5451 1.533,0.9479 0.4062,0.402 0.7104,0.8663 0.9114,1.3984 0.2009,0.532 0.2999,1.0993 0.2999,1.7025 0,0.5408 -0.0499,1.0811 -0.1432,1.6171 -0.0986,0.5363 -0.2996,1.1175 -0.6077,1.7433 -0.3133,0.6254 -0.7594,1.3176 -1.3454,2.0815 -0.5811,0.7642 -1.3583,1.6444 -2.3275,2.6413 l -2.6813,2.8018 h 7.3732 c 0.0669,0 0.1338,0.0179 0.201,0.0578 0.0669,0.0403 0.125,0.0981 0.1692,0.1744 0.0499,0.0808 0.0851,0.1788 0.1077,0.2948 0.0222,0.1162 0.0312,0.2551 0.0312,0.4113 z m 123.840895,0.6522 c 0,0.1029 -0.036,0.1829 -0.1029,0.2367 -0.0712,0.0542 -0.1653,0.0893 -0.29,0.1162 -0.1213,0.0267 -0.3002,0.04 -0.5366,0.04 -0.2234,0 -0.4065,-0.0133 -0.5409,-0.04 -0.1338,-0.0269 -0.2321,-0.062 -0.295,-0.1162 -0.0618,-0.0538 -0.0939,-0.1298 -0.0939,-0.2367 v -1.1795 c -0.513,0.5491 -1.0856,0.9783 -1.7203,1.2824 -0.6344,0.2991 -1.3045,0.4513 -2.0103,0.4513 -0.6211,0 -1.1844,-0.0802 -1.6844,-0.2415 -0.5009,-0.1607 -0.9295,-0.398 -1.2824,-0.7013 -0.3532,-0.3036 -0.6301,-0.6837 -0.8271,-1.1259 -0.1959,-0.4473 -0.2948,-0.9522 -0.2948,-1.5197 0,-0.6656 0.1338,-1.2421 0.4067,-1.7288 0.2682,-0.4924 0.6565,-0.8986 1.1662,-1.2203 0.5049,-0.3212 1.1265,-0.567 1.8587,-0.7283 0.733,-0.1607 1.559,-0.2409 2.4752,-0.2409 h 1.6265 v -0.9201 c 0,-0.4522 -0.049,-0.8544 -0.1429,-1.2073 -0.0983,-0.3484 -0.25,-0.6392 -0.4645,-0.8711 -0.2149,-0.2322 -0.4919,-0.4065 -0.8309,-0.523 -0.3401,-0.1205 -0.76,-0.1783 -1.2554,-0.1783 -0.5318,0 -1.01,0.0621 -1.4304,0.1919 -0.4238,0.1293 -0.7951,0.2682 -1.1123,0.4244 -0.3175,0.1564 -0.5857,0.2951 -0.8002,0.4249 -0.2098,0.1292 -0.3705,0.1922 -0.4734,0.1922 -0.0715,0 -0.1344,-0.0185 -0.1832,-0.0539 -0.0532,-0.0315 -0.0983,-0.085 -0.1383,-0.1562 -0.0405,-0.0674 -0.0669,-0.157 -0.0853,-0.2642 -0.0176,-0.1111 -0.0269,-0.2282 -0.0269,-0.362 0,-0.214 0.0133,-0.3883 0.0453,-0.513 0.0309,-0.1253 0.1069,-0.2464 0.2231,-0.358 0.1159,-0.1114 0.3217,-0.2458 0.6078,-0.402 0.2854,-0.1522 0.621,-0.2951 0.9963,-0.4243 0.3711,-0.1253 0.7824,-0.2328 1.2286,-0.317 0.4425,-0.0853 0.8937,-0.1261 1.345,-0.1261 0.8442,0 1.5642,0.0941 2.1586,0.2863 0.5941,0.1916 1.0723,0.4782 1.4383,0.8487 0.3671,0.3713 0.6301,0.8317 0.796,1.381 0.1649,0.5497 0.25,1.1929 0.25,1.9259 z m -2.1453,-5.3974 h -1.8453 c -0.5894,0 -1.1036,0.0493 -1.5415,0.1511 -0.4332,0.0989 -0.7951,0.2511 -1.086,0.4473 -0.2854,0.1967 -0.4955,0.4289 -0.6344,0.7061 -0.1338,0.2769 -0.2007,0.5938 -0.2007,0.9519 0,0.6122 0.1917,1.0992 0.5809,1.4606 0.388,0.362 0.9289,0.5457 1.6302,0.5457 0.5632,0 1.091,-0.1431 1.5732,-0.4337 0.4833,-0.2863 0.9924,-0.7285 1.5236,-1.3223 z m 14.7994,5.3841 c 0,0.0712 -0.0127,0.1293 -0.0439,0.1831 -0.0321,0.0536 -0.0848,0.0938 -0.1658,0.1253 -0.0803,0.0309 -0.1871,0.0536 -0.3303,0.0717 -0.1389,0.017 -0.3217,0.0261 -0.5499,0.0261 -0.214,0 -0.3889,-0.009 -0.5272,-0.0261 -0.1432,-0.0181 -0.2546,-0.0408 -0.3348,-0.0717 -0.0853,-0.0315 -0.1435,-0.0717 -0.1744,-0.1253 -0.032,-0.0493 -0.0447,-0.1119 -0.0447,-0.1831 v -4.9555 h -1.2422 c -0.5414,0 -0.9609,0.0445 -1.2645,0.1298 -0.3002,0.089 -0.572,0.2322 -0.8093,0.438 -0.2407,0.2049 -0.4558,0.4688 -0.6477,0.786 -0.1922,0.3172 -0.3753,0.7061 -0.5494,1.171 l -0.9561,2.3009 c -0.0451,0.1119 -0.0899,0.2058 -0.1432,0.2727 -0.0541,0.0711 -0.1295,0.1253 -0.2279,0.1655 -0.098,0.04 -0.2281,0.0669 -0.3798,0.0805 -0.1522,0.0131 -0.3393,0.0173 -0.5675,0.0173 -0.161,0 -0.3081,-0.004 -0.4328,-0.0133 -0.1262,-0.008 -0.2333,-0.0218 -0.3221,-0.0445 -0.085,-0.0224 -0.1522,-0.0584 -0.1922,-0.1072 -0.045,-0.045 -0.0669,-0.1074 -0.0669,-0.1743 0,-0.0626 0.0219,-0.1607 0.0712,-0.2951 0.049,-0.1338 0.148,-0.3705 0.2951,-0.7098 l 0.9428,-2.2127 c 0.2452,-0.5581 0.5451,-1.0409 0.9023,-1.4428 0.3577,-0.4062 0.769,-0.7064 1.2333,-0.8986 -0.8492,-0.1562 -1.5194,-0.4958 -2.0245,-1.014 -0.5,-0.5233 -0.7503,-1.2112 -0.7503,-2.0687 0,-0.5678 0.1162,-1.0808 0.3535,-1.5418 0.2366,-0.4603 0.5808,-0.8487 1.0408,-1.1667 0.4553,-0.3209 1.0185,-0.5669 1.6884,-0.7367 0.6661,-0.1693 1.4303,-0.2546 2.2972,-0.2546 0.2055,0 0.4512,0.004 0.7236,0.0133 0.277,0.009 0.5587,0.0224 0.8493,0.04 0.2945,0.0179 0.5768,0.036 0.8538,0.0578 0.2721,0.0233 0.5091,0.0411 0.7104,0.0584 0.263,0.027 0.4597,0.1208 0.5896,0.2909 0.1292,0.1649 0.1961,0.3707 0.1961,0.612 z m -2.171,-10.5318 c -0.3133,-0.0451 -0.6344,-0.076 -0.9652,-0.0893 -0.3263,-0.0136 -0.6305,-0.0179 -0.9114,-0.0179 -0.5901,0 -1.0814,0.0488 -1.4751,0.1517 -0.3972,0.0983 -0.7101,0.2454 -0.9513,0.4337 -0.2367,0.1873 -0.4071,0.4107 -0.5052,0.6655 -0.1029,0.2506 -0.1519,0.5315 -0.1519,0.8402 0,0.3124 0.0581,0.5984 0.1738,0.8487 0.1213,0.2506 0.295,0.4609 0.5366,0.6299 0.2367,0.1703 0.5451,0.3041 0.9161,0.3934 0.3756,0.0939 0.8938,0.1389 1.5642,0.1389 h 1.7694 z m 20.7286001,8.7176 c 0,0.1471 -0.005,0.277 -0.0136,0.3838 -0.009,0.1123 -0.0224,0.2013 -0.0442,0.2776 -0.0227,0.0759 -0.0491,0.1389 -0.0811,0.1967 -0.0309,0.0581 -0.0978,0.1428 -0.2098,0.25 -0.1071,0.112 -0.2951,0.2463 -0.5541,0.411 -0.2634,0.1613 -0.5585,0.3084 -0.8845,0.4332 -0.331,0.1301 -0.684,0.233 -1.0683,0.3092 -0.3838,0.0799 -0.7818,0.1202 -1.1928,0.1202 -0.8493,0 -1.5994,-0.1386 -2.2519,-0.4204 -0.6571,-0.2769 -1.2067,-0.6831 -1.6444,-1.2194 -0.4425001,-0.5361 -0.7775001,-1.198 -1.0097001,-1.9752 -0.2324,-0.7821 -0.3489,-1.6804 -0.3489,-2.7037 0,-1.1568 0.1429,-2.1532 0.4249,-2.9894 0.286,-0.8309 0.6744,-1.5143 1.1662001,-2.0464 0.4958,-0.5312 1.0769,-0.9243 1.7424,-1.1843 0.6699,-0.254 1.3941,-0.3838 2.1714,-0.3838 0.3761,0 0.7381,0.036 1.0905,0.1069 0.3574,0.0672 0.6797,0.161 0.979,0.273 0.2946,0.1159 0.5627,0.2457 0.7909,0.3979 0.2322,0.1472 0.402,0.2773 0.504,0.3793 0.108,0.108 0.1792,0.1922 0.2191,0.25 0.036,0.0627 0.072,0.1347 0.0987,0.2189 0.0224,0.081 0.0402,0.1749 0.0493,0.282 0.009,0.1029 0.0133,0.2373 0.0133,0.3935 0,0.3396 -0.0402,0.576 -0.1162,0.7149 -0.0802,0.1338 -0.1741,0.2012 -0.29,0.2012 -0.1298,0 -0.282,-0.072 -0.4521,-0.2191 -0.169,-0.1429 -0.3841,-0.3042 -0.6472,-0.4782 -0.2642,-0.1743 -0.5811,-0.3351 -0.9521,-0.4779 -0.3711,-0.148 -0.8093,-0.2191 -1.3133,-0.2191 -1.0415,0 -1.8414,0.3979 -2.3956,1.197 -0.5541,0.7954 -0.8311,1.9531 -0.8311,3.4677 0,0.7554 0.072,1.421 0.214,1.9936 0.148,0.5666 0.358,1.0448 0.6395,1.4292 0.2767,0.3798 0.6211,0.6661 1.0281,0.8532 0.4063,0.1877 0.8711,0.2821 1.3938,0.2821 0.5004,0 0.9386,-0.0811 1.3136,-0.2373 0.3753,-0.1562 0.6973,-0.3302 0.974,-0.5227 0.2769,-0.1874 0.5091,-0.3575 0.6973,-0.5091 0.188,-0.1562 0.3311,-0.2324 0.438,-0.2324 0.0578,0 0.1119,0.0178 0.1562,0.0532 0.0448,0.0358 0.0805,0.0939 0.1119,0.1747 0.0312,0.085 0.053,0.1873 0.0669,0.3172 0.0134,0.1247 0.0179,0.2769 0.0179,0.4512 z m 12.4624999,1.908 c 0,0.0491 -0.0142,0.0984 -0.0451,0.1344 -0.0309,0.04 -0.0893,0.076 -0.1698,0.0978 -0.085,0.0269 -0.1921,0.0493 -0.3301999,0.0629 -0.1341,0.0131 -0.309,0.0173 -0.519,0.0173 -0.241,0 -0.4422,-0.009 -0.5942,-0.0261 -0.1516,-0.0181 -0.2769,-0.0408 -0.3753,-0.0717 -0.0938,-0.0315 -0.1647,-0.0717 -0.2058,-0.1162 -0.0442,-0.0493 -0.0759,-0.1029 -0.0932,-0.1653 l -1.2509,-3.0523 c -0.1571,-0.3929 -0.3221,-0.728 -0.5009,-1.014 -0.1786,-0.2814 -0.3844,-0.5142 -0.6211,-0.6885 -0.2322,-0.174 -0.4963,-0.2991 -0.7954,-0.3793 -0.2951,-0.0759 -0.6299,-0.1165 -1.0142,-0.1165 h -0.9111 v 5.3039 c 0,0.0451 -0.023,0.0851 -0.0675,0.1299 -0.0445,0.045 -0.1074,0.0799 -0.1967,0.1028 -0.0893,0.0264 -0.2007,0.0491 -0.3441,0.0672 -0.1381,0.017 -0.2993,0.0261 -0.4825,0.0261 -0.1873,0 -0.3486,-0.009 -0.4867,-0.0261 -0.1428,-0.0181 -0.2548,-0.0408 -0.3441,-0.0672 -0.0899,-0.0229 -0.15219997,-0.0578 -0.19279997,-0.1028 -0.0399,-0.0448 -0.0581,-0.0899 -0.0581,-0.1299 v -11.9755 c 0,-0.04 0.0182,-0.0842 0.0581,-0.1202 0.0406,-0.04 0.10289997,-0.076 0.19279997,-0.0986 0.0893,-0.0261 0.2013,-0.0494 0.3441,-0.0621 0.1381,-0.0131 0.2994,-0.0182 0.4867,-0.0182 0.1832,0 0.3444,0.005 0.4825,0.0182 0.1434,0.0127 0.2548,0.036 0.3441,0.0621 0.0893,0.0226 0.1522,0.0586 0.1967,0.0986 0.0445,0.036 0.0675,0.0802 0.0675,0.1253 v 4.951 h 0.9111 c 0.3259,0 0.6301,-0.036 0.9019,-0.112 0.2733,-0.0759 0.5233,-0.1961 0.7464,-0.3659 0.2282,-0.1746 0.4289,-0.3935 0.6038,-0.6665 0.1786,-0.2721 0.3444,-0.5981 0.4915,-0.983 l 1.0899,-2.7207 c 0.0185,-0.072 0.0494,-0.1298 0.0893,-0.184 0.0451,-0.0533 0.112,-0.0978 0.1968,-0.1287 0.0892,-0.036 0.2055,-0.0635 0.3483,-0.0762 0.1429,-0.0131 0.3359,-0.0182 0.5721,-0.0182 0.206,0 0.3801,0.005 0.5139,0.0182 0.1343,0.0127 0.2415,0.036 0.3175,0.0621 0.0714,0.0226 0.1207,0.0586 0.1474,0.0986 0.0263,0.036 0.0402,0.0802 0.0402,0.1202 0,0.0811 -0.009,0.1658 -0.0312,0.2511 -0.0226,0.0891 -0.0535,0.1871 -0.0986,0.3031 l -1.1254,2.5965 c -0.1746,0.438 -0.3622,0.8042 -0.568,1.1032 -0.205,0.2951 -0.4108,0.5452 -0.6211,0.7424 -0.2049,0.1968 -0.4198,0.3487 -0.6389,0.4598 -0.2146,0.1072 -0.4244,0.1922 -0.6254,0.2551 v 0.0267 c 0.3039,0.1026 0.5851,0.2273 0.8445,0.3753 0.2591,0.1522 0.4958,0.335 0.7189,0.5491 0.2239,0.2191 0.4288,0.4782 0.621,0.7823 0.1931,0.2996 0.3711,0.6441 0.5412,1.0369 l 1.2961999,2.9849 c 0.0352,0.0578 0.0579,0.116 0.076,0.1698 0.0173,0.0493 0.0309,0.1029 0.0403,0.1471 0.008,0.0491 0.0175,0.0896 0.0218,0.1211 0.005,0.0309 0.005,0.0578 0.005,0.0847 z m 8.1947,0.2322 -1.5684,4.339 c -0.0536,0.138 -0.188,0.246 -0.402,0.322 -0.21,0.076 -0.5363,0.1111 -0.974,0.1111 -0.2281,0 -0.4113,-0.009 -0.5502,-0.0309 -0.1383,-0.0224 -0.2452,-0.0629 -0.3214,-0.112 -0.072,-0.0532 -0.112,-0.1252 -0.1205,-0.21 -0.009,-0.0893 0.0131,-0.1922 0.0627,-0.3172 l 1.6262,-4.102 c -0.0808,-0.036 -0.1568,-0.0938 -0.2237,-0.1698 -0.0711,-0.0802 -0.1201,-0.1613 -0.1428,-0.25 l -4.2044,-11.2604 c -0.072,-0.1831 -0.1029,-0.3311 -0.1029,-0.4331 0,-0.108 0.0309,-0.1879 0.1029,-0.2509 0.0709,-0.0618 0.1831,-0.102 0.3393,-0.1253 0.1562,-0.0218 0.366,-0.0309 0.6302,-0.0309 0.2591,0 0.4649,0.005 0.6159,0.0182 0.148,0.0127 0.2642,0.0402 0.3535,0.0762 0.0848,0.0309 0.1474,0.0845 0.1877,0.1469 0.04,0.0672 0.0799,0.1567 0.125,0.2678 l 3.3647,9.4559 h 0.04 l 3.2445,-9.5046 c 0.0533,-0.1704 0.116,-0.2772 0.1922,-0.3215 0.0709,-0.0496 0.1828,-0.0847 0.33,-0.108 0.1522,-0.0218 0.367,-0.0309 0.644,-0.0309 0.2455,0 0.447,0.009 0.6032,0.0309 0.1562,0.0233 0.2724,0.0635 0.3444,0.1253 0.0754,0.063 0.1114,0.1429 0.1114,0.2509 0,0.102 -0.0269,0.2364 -0.076,0.3929 z m 15.3309,-0.326 c 0,0.0712 -0.0179,0.1293 -0.053,0.1789 -0.036,0.0442 -0.0902,0.0893 -0.1701,0.1253 -0.0808,0.0309 -0.1877,0.0578 -0.3308,0.0759 -0.1383,0.017 -0.3132,0.0261 -0.5227,0.0261 -0.2143,0 -0.3889,-0.009 -0.5363,-0.0261 -0.1435,-0.0181 -0.2591,-0.045 -0.3393,-0.0759 -0.0851,-0.036 -0.1429,-0.0811 -0.1744,-0.1253 -0.032,-0.0496 -0.0448,-0.1077 -0.0448,-0.1789 v -4.7497 c -0.4869,0.2191 -1.0054,0.3889 -1.5502,0.5139 -0.5451,0.129 -1.1353,0.1919 -1.7697,0.1919 -0.8132,0 -1.4879,-0.1029 -2.029,-0.3129 -0.5406,-0.2098 -0.974,-0.5001 -1.2955,-0.8621 -0.322,-0.3668 -0.5502,-0.8044 -0.6879,-1.3096 -0.1344,-0.5048 -0.2013,-1.1437 -0.2013,-1.9125 v -3.3463 c 0,-0.072 0.013,-0.1298 0.0442,-0.1789 0.0318,-0.045 0.0902,-0.0893 0.1789,-0.1298 0.085,-0.04 0.197,-0.0675 0.3311,-0.0802 0.1383,-0.0131 0.3081,-0.0182 0.5182,-0.0182 0.2188,0 0.3979,0.005 0.5357,0.0182 0.1389,0.0127 0.2506,0.0402 0.3266,0.0802 0.0807,0.0405 0.1389,0.0848 0.1791,0.1298 0.04,0.0491 0.0578,0.1069 0.0578,0.1789 v 3.0067 c 0,0.7064 0.0536,1.2331 0.1562,1.5823 0.1077,0.3481 0.2591,0.6253 0.4598,0.8311 0.1973,0.2007 0.447,0.3484 0.7381,0.4289 0.29,0.0842 0.6344,0.1253 1.0273,0.1253 0.5142,0 1.0191,-0.0669 1.5103,-0.1973 0.4918,-0.1287 0.9834,-0.3169 1.4703,-0.5627 v -5.2143 c 0,-0.072 0.0128,-0.1298 0.0448,-0.1789 0.0315,-0.045 0.0893,-0.0893 0.1744,-0.1298 0.0802,-0.04 0.1958,-0.0675 0.3393,-0.0802 0.1474,-0.0131 0.322,-0.0182 0.5363,-0.0182 0.2095,0 0.3844,0.005 0.5227,0.0182 0.1431,0.0127 0.25,0.0402 0.3308,0.0802 0.0799,0.0405 0.1341,0.0848 0.1701,0.1298 0.0351,0.0491 0.053,0.1069 0.053,0.1789 z m 12.8914,0.0133 c 0,0.1029 -0.036,0.1829 -0.1029,0.2367 -0.0712,0.0542 -0.1653,0.0893 -0.29,0.1162 -0.1213,0.0267 -0.3002,0.04 -0.5366,0.04 -0.2234,0 -0.4065,-0.0133 -0.5408,-0.04 -0.1338,-0.0269 -0.2319,-0.062 -0.2946,-0.1162 -0.0623,-0.0538 -0.0944,-0.1298 -0.0944,-0.2367 v -1.1795 c -0.513,0.5491 -1.0851,0.9783 -1.7203,1.2824 -0.6341,0.2991 -1.3039,0.4513 -2.0103,0.4513 -0.6211,0 -1.1843,-0.0802 -1.6844,-0.2415 -0.5009,-0.1607 -0.9295,-0.398 -1.2824,-0.7013 -0.3532,-0.3036 -0.6301,-0.6837 -0.8268,-1.1259 -0.1962,-0.4473 -0.2951,-0.9522 -0.2951,-1.5197 0,-0.6656 0.1341,-1.2421 0.4067,-1.7288 0.2682,-0.4924 0.6565,-0.8986 1.1665,-1.2203 0.5051,-0.3212 1.1262,-0.567 1.8584,-0.7283 0.733,-0.1607 1.5591,-0.2409 2.4752,-0.2409 h 1.6265 v -0.9201 c 0,-0.4522 -0.049,-0.8544 -0.1428,-1.2073 -0.0978,-0.3484 -0.2501,-0.6392 -0.4646,-0.8711 -0.2149,-0.2322 -0.4916,-0.4065 -0.8309,-0.523 -0.3398,-0.1205 -0.7599,-0.1783 -1.2554,-0.1783 -0.5318,0 -1.01,0.0621 -1.4304,0.1919 -0.4238,0.1293 -0.7948,0.2682 -1.1117,0.4244 -0.3181,0.1564 -0.5863,0.2951 -0.8003,0.4249 -0.2103,0.1292 -0.371,0.1922 -0.4739,0.1922 -0.0712,0 -0.1344,-0.0185 -0.1831,-0.0539 -0.0533,-0.0315 -0.0984,-0.085 -0.1384,-0.1562 -0.0405,-0.0674 -0.0669,-0.157 -0.0847,-0.2642 -0.0182,-0.1111 -0.0272,-0.2282 -0.0272,-0.362 0,-0.214 0.013,-0.3883 0.045,-0.513 0.0309,-0.1253 0.1069,-0.2464 0.2231,-0.358 0.116,-0.1114 0.3218,-0.2458 0.6078,-0.402 0.2854,-0.1522 0.621,-0.2951 0.9963,-0.4243 0.3711,-0.1253 0.7824,-0.2328 1.2286,-0.317 0.443,-0.0853 0.8937,-0.1261 1.345,-0.1261 0.8445,0 1.5642,0.0941 2.1586,0.2863 0.5941,0.1916 1.0724,0.4782 1.4383,0.8487 0.3671,0.3713 0.6301,0.8317 0.796,1.381 0.1652,0.5497 0.25,1.1929 0.25,1.9259 z m -2.1453,-5.3974 h -1.8453 c -0.5893,0 -1.1036,0.0493 -1.5415,0.1511 -0.4331,0.0989 -0.7951,0.2511 -1.086,0.4473 -0.2851,0.1967 -0.4955,0.4289 -0.6344,0.7061 -0.1337,0.2769 -0.2006,0.5938 -0.2006,0.9519 0,0.6122 0.1921,1.0992 0.5808,1.4606 0.3886,0.362 0.9295,0.5457 1.6307,0.5457 0.5627,0 1.0905,-0.1431 1.5727,-0.4337 0.4833,-0.2863 0.9924,-0.7285 1.5236,-1.3223 z m 22.2801,-0.675 c 0,0.9604 -0.1299,1.8454 -0.3844,2.6587 -0.2594,0.8132 -0.6347,1.5103 -1.1305,2.0953 -0.4915,0.5862 -1.0947,1.0409 -1.8096,1.3763 -0.7194,0.3308 -1.5321,0.4963 -2.4534,0.4963 -0.9422,0 -1.7512,-0.1295 -2.435,-0.3844 -0.6797,-0.2591 -1.2512,-0.6344 -1.707,-1.1302 -0.4598,-0.5008 -0.809,-1.1083 -1.0499,-1.8232 -0.2373,-0.7194 -0.3804,-1.5372 -0.4244,-2.4534 h -2.6005 v 5.2237 c 0,0.0712 -0.0178,0.1293 -0.0538,0.1789 -0.036,0.0442 -0.0893,0.0893 -0.1698,0.1253 -0.0803,0.0309 -0.1877,0.0578 -0.3306,0.0759 -0.1389,0.017 -0.318,0.0261 -0.536,0.0261 -0.2149,0 -0.3889,-0.009 -0.5278,-0.0261 -0.1429,-0.0181 -0.2546,-0.045 -0.3351,-0.0759 -0.0853,-0.036 -0.1431,-0.0811 -0.1743,-0.1253 -0.0312,-0.0496 -0.0448,-0.1077 -0.0448,-0.1789 v -11.7873 c 0,-0.072 0.0136,-0.1298 0.0448,-0.1789 0.0312,-0.045 0.089,-0.0893 0.1743,-0.1298 0.0805,-0.04 0.1922,-0.0675 0.3351,-0.0802 0.1389,-0.0131 0.3129,-0.0182 0.5278,-0.0182 0.218,0 0.3971,0.005 0.536,0.0182 0.1429,0.0127 0.2503,0.0402 0.3306,0.0802 0.0805,0.0405 0.1338,0.0848 0.1698,0.1298 0.036,0.0491 0.0538,0.1069 0.0538,0.1789 v 4.8481 h 2.6538 c 0.076,-0.8045 0.2548,-1.5372 0.5273,-2.2034 0.2766,-0.6653 0.6525,-1.2373 1.1304,-1.7203 0.4737,-0.4782 1.0505,-0.8533 1.7337,-1.1166 0.6794,-0.2687 1.4652,-0.4028 2.3547,-0.4028 0.9479,0 1.7654,0.148 2.467,0.447 0.6968,0.2951 1.2776,0.7195 1.7376,1.2691 0.4649,0.5496 0.8133,1.2155 1.0415,1.9976 0.2327,0.7818 0.3487,1.6483 0.3487,2.6095 z m -2.2522,0.1381 c 0,-0.6211 -0.0533,-1.2104 -0.1562,-1.7736 -0.1068,-0.5627 -0.286,-1.0591 -0.5451,-1.4879 -0.259,-0.4292 -0.6083,-0.7682 -1.0505,-1.0234 -0.4422,-0.2548 -1.0009,-0.3801 -1.6753,-0.3801 -0.6037,0 -1.1259,0.1171 -1.5732,0.3532 -0.4467,0.237 -0.8132,0.5587 -1.1032,0.97 -0.2909,0.4113 -0.5009,0.9026 -0.6347,1.4704 -0.1386,0.5669 -0.2055,1.1795 -0.2055,1.8314 0,0.6662 0.0533,1.2821 0.1562,1.8542 0.1071,0.5723 0.286,1.0723 0.5451,1.4927 0.2591,0.4249 0.608,0.76 1.0454,0.9967 0.4382,0.2415 0.9969,0.3619 1.6804,0.3619 0.5678,0 1.0723,-0.0986 1.5103,-0.2996 0.4376,-0.2012 0.8042,-0.4963 1.0992,-0.8841 0.2997,-0.3895 0.5228,-0.8762 0.6789,-1.4618 0.1523,-0.5851 0.2282,-1.26 0.2282,-2.02 z m 23.1015,10.2509 c 0,0.0488 -0.0141,0.0939 -0.045,0.129 -0.0309,0.036 -0.0853,0.0632 -0.1562,0.085 -0.076,0.0227 -0.165,0.0411 -0.2727,0.0539 -0.1111,0.013 -0.2415,0.0181 -0.3977,0.0181 -0.1658,0 -0.3087,-0.005 -0.4289,-0.0181 -0.1207,-0.0128 -0.2191,-0.0357 -0.2951,-0.0629 -0.0714,-0.0219 -0.1247,-0.0528 -0.1562,-0.0842 -0.0314,-0.0269 -0.0445,-0.0675 -0.0445,-0.1075 v -4.0172 h -15.188 c -0.2188,0 -0.3892,-0.0627 -0.5054,-0.1922 -0.1208,-0.1247 -0.1786,-0.3127 -0.1786,-0.5669 v -11.3542 c 0,-0.072 0.0139,-0.1298 0.0448,-0.1789 0.0309,-0.045 0.0893,-0.0893 0.1789,-0.1298 0.0892,-0.04 0.2012,-0.0675 0.3444,-0.0802 0.1377,-0.0131 0.3123,-0.0182 0.5266,-0.0182 0.2104,0 0.3844,0.005 0.5233,0.0182 0.1429,0.0127 0.25,0.0402 0.3303,0.0802 0.0807,0.0405 0.134,0.0848 0.1697,0.1298 0.036,0.0491 0.0542,0.1069 0.0542,0.1789 v 10.2631 h 4.5306 v -10.2631 c 0,-0.072 0.0133,-0.1298 0.0442,-0.1789 0.0321,-0.045 0.0853,-0.0893 0.1658,-0.1298 0.0803,-0.04 0.1877,-0.0675 0.3215,-0.0802 0.1389,-0.0131 0.3087,-0.0182 0.5227,-0.0182 0.2103,0 0.3804,0.005 0.5182,0.0182 0.1343,0.0127 0.2415,0.0402 0.322,0.0802 0.0802,0.0405 0.1344,0.0848 0.1704,0.1298 0.0348,0.0491 0.0532,0.1069 0.0532,0.1789 v 10.2631 h 4.5307 v -10.2631 c 0,-0.072 0.0136,-0.1298 0.0448,-0.1789 0.0314,-0.045 0.0892,-0.0893 0.1743,-0.1298 0.0805,-0.04 0.1922,-0.0675 0.326,-0.0802 0.1389,-0.0131 0.3087,-0.0182 0.5227,-0.0182 0.2191,0 0.398,0.005 0.5366,0.0182 0.1428,0.0127 0.2548,0.0402 0.335,0.0802 0.0848,0.0405 0.1429,0.0848 0.1789,0.1298 0.036,0.0491 0.0533,0.1069 0.0533,0.1789 v 10.2631 h 1.6041 c 0.201,0 0.349,0.0406 0.434,0.1168 0.089,0.0799 0.1247,0.2188 0.1071,0.4201 z m 11.2868,-4.3166 c 0,0.1029 -0.036,0.1829 -0.1029,0.2367 -0.0709,0.0542 -0.1647,0.0893 -0.29,0.1162 -0.1208,0.0267 -0.2997,0.04 -0.5361,0.04 -0.2239,0 -0.407,-0.0133 -0.5408,-0.04 -0.1344,-0.0269 -0.2322,-0.062 -0.2951,-0.1162 -0.0624,-0.0538 -0.0944,-0.1298 -0.0944,-0.2367 v -1.1795 c -0.5131,0.5491 -1.0851,0.9783 -1.7201,1.2824 -0.6341,0.2991 -1.3042,0.4513 -2.0106,0.4513 -0.621,0 -1.1837,-0.0802 -1.6843,-0.2415 -0.5009,-0.1607 -0.9292,-0.398 -1.2821,-0.7013 -0.3529,-0.3036 -0.6304,-0.6837 -0.8269,-1.1259 -0.1964,-0.4473 -0.2951,-0.9522 -0.2951,-1.5197 0,-0.6656 0.1338,-1.2421 0.4071,-1.7288 0.2676,-0.4924 0.6562,-0.8986 1.1662,-1.2203 0.5048,-0.3212 1.1259,-0.567 1.8581,-0.7283 0.7333,-0.1607 1.5596,-0.2409 2.4757,-0.2409 h 1.6263 v -0.9201 c 0,-0.4522 -0.0488,-0.8544 -0.1432,-1.2073 -0.0978,-0.3484 -0.25,-0.6392 -0.464,-0.8711 -0.2149,-0.2322 -0.4921,-0.4065 -0.8314,-0.523 -0.3396,-0.1205 -0.76,-0.1783 -1.2555,-0.1783 -0.5317,0 -1.01,0.0621 -1.4298,0.1919 -0.4243,0.1293 -0.7954,0.2682 -1.1123,0.4244 -0.3177,0.1564 -0.5862,0.2951 -0.8002,0.4249 -0.2098,0.1292 -0.3711,0.1922 -0.474,0.1922 -0.0708,0 -0.1337,-0.0185 -0.1831,-0.0539 -0.0533,-0.0315 -0.0983,-0.085 -0.1383,-0.1562 -0.0405,-0.0674 -0.0669,-0.157 -0.0848,-0.2642 -0.0181,-0.1111 -0.0269,-0.2282 -0.0269,-0.362 0,-0.214 0.0128,-0.3883 0.0448,-0.513 0.0315,-0.1253 0.1069,-0.2464 0.2231,-0.358 0.1162,-0.1114 0.322,-0.2458 0.6083,-0.402 0.2852,-0.1522 0.6211,-0.2951 0.9958,-0.4243 0.3714,-0.1253 0.7824,-0.2328 1.2285,-0.317 0.4431,-0.0853 0.8944,-0.1261 1.3454,-0.1261 0.8441,0 1.5641,0.0941 2.1583,0.2863 0.5941,0.1916 1.0723,0.4782 1.4383,0.8487 0.3671,0.3713 0.6304,0.8317 0.7959,1.381 0.1656,0.5497 0.2501,1.1929 0.2501,1.9259 z m -2.145,-5.3974 h -1.8451 c -0.5899,0 -1.1035,0.0493 -1.5415,0.1511 -0.4334,0.0989 -0.7954,0.2511 -1.0865,0.4473 -0.2849,0.1967 -0.4949,0.4289 -0.6338,0.7061 -0.1344,0.2769 -0.2013,0.5938 -0.2013,0.9519 0,0.6122 0.1922,1.0992 0.5811,1.4606 0.3884,0.362 0.9292,0.5457 1.6305,0.5457 0.563,0 1.0911,-0.1431 1.5732,-0.4337 0.4828,-0.2863 0.9919,-0.7285 1.5234,-1.3223 z m 14.799705,5.3841 c 0,0.0712 -0.0131,0.1293 -0.044,0.1831 -0.032,0.0536 -0.0853,0.0938 -0.1664,0.1253 -0.0799,0.0309 -0.1871,0.0536 -0.3299,0.0717 -0.1389,0.017 -0.322,0.0261 -0.5502,0.0261 -0.214,0 -0.3889,-0.009 -0.5267,-0.0261 -0.1432,-0.0181 -0.2551,-0.0408 -0.3353,-0.0717 -0.0851,-0.0315 -0.1429,-0.0717 -0.1738,-0.1253 -0.032,-0.0493 -0.0451,-0.1119 -0.0451,-0.1831 v -4.9555 h -1.2424 c -0.5409,0 -0.9604,0.0445 -1.2645,0.1298 -0.2997,0.089 -0.5718,0.2322 -0.8088,0.438 -0.2412,0.2049 -0.4561,0.4688 -0.6482,0.786 -0.1917,0.3172 -0.3754,0.7061 -0.5491,1.171 l -0.9564,2.3009 c -0.0445,0.1119 -0.0896,0.2058 -0.1429,0.2727 -0.0538,0.0711 -0.1298,0.1253 -0.2282,0.1655 -0.0978,0.04 -0.2276,0.0669 -0.3798,0.0805 -0.152,0.0131 -0.339,0.0173 -0.5672,0.0173 -0.1608,0 -0.3079,-0.004 -0.4332,-0.0133 -0.1255,-0.008 -0.2327,-0.0218 -0.322,-0.0445 -0.085,-0.0224 -0.1519,-0.0584 -0.1922,-0.1072 -0.045,-0.045 -0.0669,-0.1074 -0.0669,-0.1743 0,-0.0626 0.0219,-0.1607 0.0712,-0.2951 0.049,-0.1338 0.1479,-0.3705 0.2951,-0.7098 l 0.9431,-2.2127 c 0.2454,-0.5581 0.5451,-1.0409 0.9025,-1.4428 0.3577,-0.4062 0.7685,-0.7064 1.2331,-0.8986 -0.8493,-0.1562 -1.5191,-0.4958 -2.0245,-1.014 -0.5001,-0.5233 -0.7501,-1.2112 -0.7501,-2.0687 0,-0.5678 0.1162,-1.0808 0.3529,-1.5418 0.2367,-0.4603 0.5811,-0.8487 1.0415,-1.1667 0.4547,-0.3209 1.0182,-0.5669 1.6883,-0.7367 0.6659,-0.1693 1.4298,-0.2546 2.2972,-0.2546 0.2049,0 0.451,0.004 0.7231,0.0133 0.2775,0.009 0.5593,0.0224 0.8493,0.04 0.2951,0.0179 0.5771,0.036 0.8538,0.0578 0.2724,0.0233 0.5096,0.0411 0.7103,0.0584 0.2634,0.027 0.4604,0.1208 0.5902,0.2909 0.1293,0.1649 0.1962,0.3707 0.1962,0.612 z m -2.1714,-10.5318 c -0.3129,-0.0451 -0.6344,-0.076 -0.9655,-0.0893 -0.3259,-0.0136 -0.6298,-0.0179 -0.911,-0.0179 -0.5902,0 -1.0817,0.0488 -1.4749,0.1517 -0.3977,0.0983 -0.7103,0.2454 -0.9519,0.4337 -0.2366,0.1873 -0.4064,0.4107 -0.5048,0.6655 -0.1029,0.2506 -0.1522,0.5315 -0.1522,0.8402 0,0.3124 0.0584,0.5984 0.1743,0.8487 0.1208,0.2506 0.2951,0.4609 0.536,0.6299 0.2373,0.1703 0.5451,0.3041 0.9162,0.3934 0.3756,0.0939 0.894,0.1389 1.5642,0.1389 h 1.7696 z m 9.3878,8.9946 c 0,0.2681 -0.0133,0.5181 -0.0402,0.7421 -0.027,0.2273 -0.0669,0.4422 -0.1251,0.6432 -0.0538,0.2009 -0.134,0.398 -0.2369,0.5941 -0.0981,0.197 -0.2231,0.402 -0.3711,0.6211 l -1.7824,2.6634 c -0.0448,0.0712 -0.0938,0.125 -0.152,0.1701 -0.0581,0.0442 -0.125,0.0799 -0.2009,0.1111 -0.0808,0.0312 -0.1744,0.0539 -0.286,0.0717 -0.1072,0.0182 -0.2413,0.0272 -0.398,0.0272 -0.1471,0 -0.2724,-0.005 -0.3753,-0.0181 -0.0981,-0.0139 -0.1698,-0.0408 -0.214,-0.0717 -0.0451,-0.036 -0.0672,-0.0802 -0.072,-0.125 -0.004,-0.0494 0.009,-0.112 0.045,-0.1922 l 1.7153,-3.5657 v -1.6713 c 0,-0.237 0.0272,-0.4244 0.081,-0.563 0.0491,-0.1383 0.129,-0.2412 0.2279,-0.3132 0.1024,-0.0712 0.2274,-0.116 0.3884,-0.1429 0.1567,-0.0263 0.3441,-0.0399 0.5629,-0.0399 0.2101,0 0.3932,0.0136 0.55,0.0399 0.1604,0.0269 0.286,0.0717 0.3883,0.1429 0.0989,0.072 0.1749,0.1749 0.224,0.3132 0.049,0.1386 0.0711,0.326 0.0711,0.563 z m 0,-8.6148 c 0,0.2812 -0.0181,0.5182 -0.0581,0.7104 -0.04,0.1919 -0.1159,0.3486 -0.2231,0.4648 -0.112,0.1202 -0.2551,0.201 -0.4292,0.2501 -0.174,0.049 -0.3979,0.0711 -0.6701,0.0711 -0.2817,0 -0.5099,-0.0221 -0.684,-0.0711 -0.174,-0.0491 -0.3172,-0.1299 -0.4201,-0.2501 -0.1071,-0.1162 -0.1783,-0.2729 -0.2188,-0.4648 -0.0403,-0.1922 -0.0581,-0.4292 -0.0581,-0.7104 0,-0.2951 0.0178,-0.5408 0.0581,-0.7373 0.0405,-0.1967 0.1117,-0.3577 0.2188,-0.4739 0.1029,-0.1208 0.2461,-0.201 0.4201,-0.2501 0.1741,-0.049 0.4023,-0.0717 0.684,-0.0717 0.2722,0 0.4961,0.0227 0.6701,0.0717 0.1741,0.0491 0.3172,0.1293 0.4292,0.2501 0.1072,0.1162 0.1831,0.2772 0.2231,0.4739 0.04,0.1965 0.0581,0.4422 0.0581,0.7373 z"
     style="fill:#1b1918;fill-rule:evenodd"
     id="path787" />
  <path
     d="m 76.717635,586.43753 c 0,0.1654 -0.01,0.3124 -0.0329,0.4397 -0.0241,0.1332 -0.0571,0.2415 -0.0995,0.3271 -0.0424,0.09 -0.0951,0.1514 -0.1661,0.1938 -0.0709,0.0425 -0.1463,0.0615 -0.2268,0.0615 h -9.9274 c -0.1273,0 -0.2414,-0.0139 -0.3409,-0.0476 -0.0944,-0.0329 -0.1793,-0.0848 -0.2458,-0.1609 -0.071,-0.071 -0.123,-0.1793 -0.1559,-0.3168 -0.0336,-0.1368 -0.0475,-0.3073 -0.0475,-0.5107 0,-0.1851 0.01,-0.346 0.0234,-0.4829 0.0146,-0.1375 0.0431,-0.2604 0.09,-0.3694 0.0475,-0.1039 0.109,-0.2078 0.1799,-0.3168 0.071,-0.1039 0.1654,-0.2173 0.2795,-0.3358 l 3.5864,-3.6911 c 0.8326,-0.8516 1.4955,-1.6132 1.9966,-2.29 0.5019,-0.6716 0.8853,-1.2869 1.1597,-1.8451 0.2692,-0.5539 0.4492,-1.0557 0.5348,-1.5094 0.0849,-0.4543 0.1273,-0.8801 0.1273,-1.2781 0,-0.3973 -0.0659,-0.7755 -0.1983,-1.1304 -0.1375,-0.3548 -0.327,-0.6672 -0.5824,-0.9372 -0.2509,-0.2699 -0.5677,-0.4828 -0.9511,-0.6387 -0.3782,-0.1558 -0.8186,-0.2363 -1.3154,-0.2363 -0.5817,0 -1.1026,0.0805 -1.5664,0.2363 -0.4588,0.1559 -0.8655,0.3315 -1.216,0.5158 -0.3453,0.1844 -0.6387,0.3592 -0.8706,0.5158 -0.2319,0.1559 -0.4068,0.2363 -0.5202,0.2363 -0.0666,0 -0.128,-0.019 -0.18,-0.0563 -0.0519,-0.038 -0.0944,-0.0951 -0.128,-0.18 -0.0329,-0.0805 -0.0615,-0.1939 -0.0798,-0.3314 -0.019,-0.1419 -0.0285,-0.3073 -0.0285,-0.5012 0,-0.1375 0.004,-0.256 0.0139,-0.3599 0.01,-0.0995 0.0234,-0.1895 0.0476,-0.2649 0.0234,-0.0709 0.0519,-0.1419 0.09,-0.2085 0.0373,-0.0614 0.1134,-0.1419 0.2224,-0.2414 0.1134,-0.0944 0.3029,-0.2268 0.5772,-0.3922 0.2693,-0.1704 0.6146,-0.3314 1.0265,-0.4924 0.4068,-0.1653 0.8611,-0.2977 1.3579,-0.4119 0.4924,-0.1082 1.0125,-0.1653 1.5569,-0.1653 0.8706,0 1.6322,0.1229 2.2804,0.3687 0.6534,0.2415 1.1926,0.5773 1.6235,1.0038 0.4302,0.4258 0.7521,0.9175 0.965,1.4808 0.2129,0.5634 0.3176,1.164 0.3176,1.8027 0,0.5729 -0.0527,1.145 -0.1515,1.7128 -0.1046,0.5677 -0.3175,1.183 -0.6438,1.8459 -0.3314,0.6621 -0.8041,1.3952 -1.4245,2.2043 -0.6153,0.8092 -1.4384,1.7413 -2.4648,2.797 l -2.8395,2.9668 h 7.8079 c 0.071,0 0.142,0.019 0.2129,0.0614 0.071,0.0425 0.1324,0.1039 0.1793,0.1844 0.0526,0.0856 0.09,0.1895 0.1141,0.3124 0.0234,0.1229 0.0329,0.27 0.0329,0.4353 z m 6.6388,-0.5019 c 0,0.6578 -0.109,1.0931 -0.3263,1.3111 -0.218,0.2173 -0.6102,0.3263 -1.1831,0.3263 -0.5582,0 -0.9416,-0.109 -1.1545,-0.3219 -0.2129,-0.2129 -0.3168,-0.6387 -0.3168,-1.2774 0,-0.6578 0.1083,-1.0931 0.3264,-1.3104 0.2172,-0.218 0.6101,-0.327 1.183,-0.327 0.5582,0 0.9416,0.1046 1.1545,0.3175 0.2078,0.2129 0.3168,0.6431 0.3168,1.2818 z m 15.6523,-3.5718 c 0,0.3022 -0.0468,0.5436 -0.1368,0.7192 -0.0951,0.1749 -0.2224,0.2598 -0.3885,0.2598 h -2.0251 v 3.7715 c 0,0.0753 -0.019,0.1368 -0.0563,0.1895 -0.0381,0.0468 -0.1047,0.0943 -0.199,0.1324 -0.0944,0.0329 -0.2225,0.0614 -0.3739,0.0805 -0.1514,0.0183 -0.3453,0.0278 -0.5816,0.0278 -0.232,0 -0.4215,-0.009 -0.5729,-0.0278 -0.1514,-0.0191 -0.2744,-0.0476 -0.3644,-0.0805 -0.0899,-0.0381 -0.1514,-0.0856 -0.1843,-0.1324 -0.0329,-0.0527 -0.052,-0.1142 -0.052,-0.1895 v -3.7715 h -7.344 c -0.1134,0 -0.2034,-0.014 -0.2744,-0.0425 -0.0753,-0.0285 -0.1419,-0.0753 -0.2034,-0.1514 -0.057,-0.071 -0.0995,-0.18 -0.1229,-0.3168 -0.0241,-0.1376 -0.0329,-0.3175 -0.0329,-0.54 0,-0.1748 0.004,-0.3307 0.0139,-0.4682 0.01,-0.1368 0.0285,-0.2648 0.0571,-0.3783 0.0234,-0.1185 0.0614,-0.2275 0.1083,-0.3314 0.0424,-0.109 0.0995,-0.2224 0.166,-0.3409 l 6.3974,-10.9114 c 0.0468,-0.0754 0.1177,-0.1369 0.2077,-0.1939 0.09,-0.0564 0.2034,-0.1039 0.3454,-0.1368 0.1419,-0.0381 0.3175,-0.0666 0.5209,-0.0805 0.2078,-0.0147 0.4543,-0.019 0.7382,-0.019 0.3073,0 0.5816,0.01 0.8092,0.0329 0.2319,0.0234 0.4206,0.057 0.5582,0.09 0.1419,0.038 0.2509,0.09 0.3263,0.1463 0.0761,0.0622 0.1134,0.1331 0.1134,0.218 v 11.4653 h 2.0251 c 0.1566,0 0.2839,0.0805 0.379,0.2414 0.0995,0.1603 0.1463,0.4068 0.1463,0.7382 z m -4.9348,-10.836 h -0.0285 l -5.7725,9.8564 h 5.801 z m 10.840505,14.4078 c 0,0.6578 -0.109,1.0931 -0.3263,1.3111 -0.218,0.2173 -0.6102,0.3263 -1.183,0.3263 -0.5583,0 -0.9416,-0.109 -1.1545,-0.3219 -0.2129,-0.2129 -0.3168,-0.6387 -0.3168,-1.2774 0,-0.6578 0.1082,-1.0931 0.3263,-1.3104 0.2173,-0.218 0.6101,-0.327 1.183,-0.327 0.5582,0 0.9416,0.1046 1.1545,0.3175 0.2078,0.2129 0.3168,0.6431 0.3168,1.2818 z m 14.9478,0.5868 c 0,0.1756 -0.0146,0.3219 -0.0432,0.4404 -0.0278,0.1185 -0.0614,0.2173 -0.1082,0.2883 -0.0476,0.0761 -0.0995,0.128 -0.161,0.1609 -0.0615,0.0337 -0.1229,0.0476 -0.1844,0.0476 h -9.3691 c -0.0615,0 -0.123,-0.0139 -0.18,-0.0476 -0.052,-0.0329 -0.109,-0.0848 -0.1559,-0.1609 -0.0519,-0.071 -0.0899,-0.1698 -0.1185,-0.2883 -0.0285,-0.1185 -0.0424,-0.2648 -0.0424,-0.4404 0,-0.1654 0.0139,-0.3073 0.0424,-0.4258 0.0286,-0.1229 0.0615,-0.2224 0.1039,-0.2978 0.0381,-0.0805 0.09,-0.1375 0.1515,-0.18 0.0614,-0.0424 0.128,-0.0614 0.199,-0.0614 h 3.7334 v -13.6558 l -3.4686,2.0727 c -0.1748,0.09 -0.3168,0.1463 -0.4258,0.1654 -0.1039,0.019 -0.1895,0 -0.2553,-0.0615 -0.0666,-0.0615 -0.109,-0.161 -0.1325,-0.2985 -0.0241,-0.1368 -0.0336,-0.3117 -0.0336,-0.5246 0,-0.1565 0.005,-0.2934 0.019,-0.4024 0.0146,-0.1134 0.0381,-0.2034 0.0666,-0.2795 0.0285,-0.0709 0.0658,-0.1368 0.1185,-0.1938 0.0468,-0.052 0.1134,-0.109 0.1983,-0.1654 l 4.1358,-2.6455 c 0.0374,-0.0278 0.0805,-0.052 0.1369,-0.071 0.057,-0.0139 0.128,-0.0329 0.2085,-0.0519 0.0848,-0.0191 0.18,-0.033 0.2934,-0.0381 0.109,-0.004 0.2458,-0.004 0.4163,-0.004 0.218,0 0.4067,0.01 0.5538,0.0286 0.1463,0.019 0.2597,0.0424 0.3453,0.0753 0.0849,0.0337 0.1368,0.0761 0.1654,0.1229 0.0285,0.0527 0.0424,0.1046 0.0424,0.161 v 15.7665 h 3.2462 c 0.0761,0 0.1471,0.019 0.2085,0.0614 0.0659,0.0425 0.1178,0.0995 0.161,0.18 0.0424,0.0754 0.0753,0.1749 0.0988,0.2978 0.0241,0.1185 0.0336,0.2604 0.0336,0.4258 z m 14.3896,0 c 0,0.1756 -0.0147,0.3219 -0.0432,0.4404 -0.0278,0.1185 -0.0614,0.2173 -0.1083,0.2883 -0.0475,0.0761 -0.0995,0.128 -0.1609,0.1609 -0.0615,0.0337 -0.1229,0.0476 -0.1844,0.0476 h -9.3692 c -0.0614,0 -0.1229,-0.0139 -0.1799,-0.0476 -0.052,-0.0329 -0.1091,-0.0848 -0.1559,-0.1609 -0.0519,-0.071 -0.09,-0.1698 -0.1185,-0.2883 -0.0285,-0.1185 -0.0424,-0.2648 -0.0424,-0.4404 0,-0.1654 0.0139,-0.3073 0.0424,-0.4258 0.0285,-0.1229 0.0615,-0.2224 0.1039,-0.2978 0.038,-0.0805 0.09,-0.1375 0.1514,-0.18 0.0615,-0.0424 0.1281,-0.0614 0.199,-0.0614 h 3.7335 v -13.6558 l -3.4686,2.0727 c -0.1749,0.09 -0.3168,0.1463 -0.4258,0.1654 -0.1039,0.019 -0.1895,0 -0.2554,-0.0615 -0.0665,-0.0615 -0.109,-0.161 -0.1324,-0.2985 -0.0241,-0.1368 -0.0336,-0.3117 -0.0336,-0.5246 0,-0.1565 0.005,-0.2934 0.019,-0.4024 0.0146,-0.1134 0.038,-0.2034 0.0666,-0.2795 0.0285,-0.0709 0.0658,-0.1368 0.1185,-0.1938 0.0468,-0.052 0.1134,-0.109 0.1983,-0.1654 l 4.1358,-2.6455 c 0.0373,-0.0278 0.0805,-0.052 0.1368,-0.071 0.0571,-0.0139 0.1281,-0.0329 0.2085,-0.0519 0.0849,-0.0191 0.18,-0.033 0.2934,-0.0381 0.109,-0.004 0.2459,-0.004 0.4163,-0.004 0.218,0 0.4068,0.01 0.5539,0.0286 0.1463,0.019 0.2597,0.0424 0.3453,0.0753 0.0849,0.0337 0.1368,0.0761 0.1653,0.1229 0.0286,0.0527 0.0425,0.1046 0.0425,0.161 v 15.7665 h 3.2462 c 0.0761,0 0.147,0.019 0.2085,0.0614 0.0658,0.0425 0.1178,0.0995 0.161,0.18 0.0424,0.0754 0.0753,0.1749 0.0987,0.2978 0.0242,0.1185 0.0337,0.2604 0.0337,0.4258 z"
     style="fill:#1b1918;fill-rule:evenodd"
     id="path789" />
  <g
     id="Layer1040"
     transform="translate(-198.55486,-240.85877)">
    <path
       d="m 273.2221,438.8708 c -1.4723,-6.1996 1.5431,-9.8074 8.053,-13.6348 13.2571,-7.7945 19.6744,-0.0714 33.2094,-3.3381 9.1524,-2.2094 31.2892,12.5926 17.1553,19.5445 -3.8746,1.906 -0.8427,-3.1086 -12.1401,7.0233 -5.2577,4.7155 -21.2977,4.1094 -28.6432,1.8476 -8.1197,-2.5002 -8.7145,-7.0274 -13.5297,-8.6254 -2.7416,-0.9099 -3.671,-0.9896 -4.1047,-2.8171 z"
       style="fill:#e30016;fill-rule:evenodd"
       id="path791" />
    <path
       d="m 273.0251,441.4902 c 2.6235,-0.9945 5.1751,-2.1369 7.7053,-3.2687 4.897,-2.191 9.7292,-4.3527 14.9847,-5.4304 12.5425,-2.5801 17.13,-1.1475 30.6869,4.5732 5.6617,2.3887 10.666,4.4929 12.8243,5.126 2.2044,1.2413 0.547,3.359 -0.7583,2.6697 -2.5232,-1.3067 -7.8832,-5.0463 -12.9672,-7.1917 -19.1752,-8.0924 -24.2436,-7.3796 -44.1927,1.5479 -3.5113,1.5706 -7.0595,4.7376 -10.8247,5.9511 -4.4025,-0.3265 -0.8856,-2.6775 2.5417,-3.9771 z"
       style="fill:#1b1918;fill-rule:evenodd"
       id="path793" />
    <path
       d="m 301.9347,717.4069 c -41.0836,-0.0284 -74.3919,4.9381 -74.3962,11.0933 -0.004,6.1553 33.2971,11.168 74.3808,11.1964 41.0836,0.0285 74.392,-4.938 74.3962,-11.0933 0.004,-6.1552 -33.2971,-11.1679 -74.3808,-11.1964 z"
       style="fill:#1b1918;fill-rule:evenodd"
       id="path795" />
    <path
       d="m 301.505,714.9159 c -40.5772,-0.0281 -73.4756,4.0104 -73.479,9.0208 -0.004,5.0104 32.8892,9.0945 73.4665,9.1226 40.5794,0.0281 73.4763,-4.0104 73.4798,-9.0208 0.003,-5.0103 -32.8878,-9.0945 -73.4673,-9.1226 z"
       style="fill:#ffffff;fill-rule:evenodd;stroke:#1b1918;stroke-width:0.5669;stroke-linecap:butt;stroke-linejoin:miter;stroke-dasharray:none"
       id="path797" />
    <path
       d="m 372.1556,254.0506 c 11.7463,43.4759 26.6332,81.2509 24.016,150.7795 -5.3138,32.7386 -14.3167,67.2103 -64.667,110.9586 -14.0137,14.7037 -20.6865,38.1821 -20.9088,63.1136 l -0.5141,121.5212 c -0.648,10.1078 0.9942,17.4806 11.8825,22.4727 -9.7071,2.7863 -28.6227,4.1119 -40.7486,-0.3752 8.5032,-0.911 13.6211,-11.2439 13.4839,-22.587 -0.4733,-39.1072 -0.9278,-111.1228 -1.4229,-121.7302 -2.2195,-24.5718 -3.769,-49.6331 -21.0881,-64.4383 -47.2292,-31.8649 -65.928,-72.0748 -69.8732,-116.6019 -2.0095,-43.9957 7.8521,-93.7229 22.5402,-145.7808 -10.3798,50.1766 -19.321,99.4814 -16.264,141.5165 5.1079,32.326 7.7417,64.3002 65.0731,104.102 17.0714,9.2461 34.2751,8.8723 51.6233,-1.7701 42.1698,-27.2617 62.2212,-58.5277 64.7025,-92.9741 2.7756,-54.2255 -8.4731,-100.6938 -17.8348,-148.2065 z"
       style="fill:#1b1918;fill-rule:evenodd"
       id="path799" />
    <g
       id="Layer1041">
      <path
         d="m 266.2744,369.2325 c -5.9697,-1.7762 -11.9123,1.4903 -13.2689,7.2964 -1.3572,5.806 2.3852,11.9542 8.3541,13.7305 5.9697,1.7769 11.9123,-1.4896 13.2696,-7.2956 1.3565,-5.8061 -2.3852,-11.955 -8.3548,-13.7313 z"
         style="fill:#1b1918;fill-rule:evenodd"
         id="path801" />
      <path
         d="m 267.409,373.67 c -1.6809,-0.6737 -3.566,0.0832 -4.2112,1.6915 -0.6452,1.6077 0.1942,3.4579 1.8751,4.1323 1.6809,0.6743 3.566,-0.0832 4.2112,-1.6909 0.6452,-1.6084 -0.1942,-3.4586 -1.8751,-4.1329 z"
         style="fill:#ffffff;fill-rule:evenodd"
         id="path803" />
      <path
         d="m 268.2178,382.4943 c -0.7761,-0.3116 -1.6461,0.0384 -1.9441,0.7803 -0.2974,0.7427 0.0896,1.5963 0.8657,1.9079 0.7753,0.3108 1.646,-0.0385 1.9434,-0.7811 0.298,-0.7419 -0.0896,-1.5963 -0.865,-1.9071 z"
         style="fill:#ffffff;fill-rule:evenodd"
         id="path805" />
    </g>
    <path
       d="m 311.4407,353.2659 c 0.5876,-8.8292 -2.4072,4.0198 -2.5637,5.699 -1.6796,18.0176 -3.144,33.764 15.147,46.2977 -0.0798,5.5991 -8.6512,8.8414 -11.6662,9.9815 -2.5004,0.9453 -3.8493,3.6978 -2.9313,6.6638 1.0495,-5.1237 3.6691,-4.8765 3.7718,-4.9154 3.371,-1.2747 13.1357,-4.9675 12.6092,-12.081 l -0.002,-3e-4 c -0.0234,-0.3102 -0.1994,-0.6249 -0.4897,-0.8195 -17.7045,-11.8539 -16.2783,-27.1538 -14.6443,-44.6813 0.246,-2.6396 0.5714,-3.3056 0.7696,-6.1445 z"
       style="fill:#1b1918;fill-rule:evenodd"
       id="path808" />
    <path
       d="m 306.3373,413.5349 c -1.6884,0.9577 -6.1968,8.6306 -6.351,1.7454 -0.0318,-1.4211 5.8866,-1.482 6.351,-1.7454 z"
       style="fill:#1b1918;fill-rule:evenodd"
       id="path810" />
    <path
       d="m 297.9549,240.8589 c -42.1983,-0.0292 -76.4098,4.9366 -76.414,11.0919 -0.004,6.1553 34.2003,11.1686 76.3985,11.1978 42.1983,0.0293 76.4097,-4.9366 76.414,-11.0919 0.004,-6.1553 -34.2003,-11.1686 -76.3985,-11.1978 z m -3.9956,2.0704 c -36.5533,-0.0253 -66.189,4.0155 -66.1925,9.0258 -0.003,5.0104 29.6267,9.0923 66.18,9.1176 36.5546,0.0253 66.1897,-4.0155 66.1931,-9.0258 0.003,-5.0104 -29.6259,-9.0923 -66.1806,-9.1176 z"
       style="fill:#1b1918;fill-rule:evenodd"
       id="path812" />
    <path
       d="m 301.9173,523.2699 h -7e-4 c -2.4001,-10e-4 -4.3634,1.9591 -4.3648,4.3592 l -0.138,198.9827 c -0.002,2.3987 1.959,4.3634 4.3591,4.3648 h 7e-4 c 2.3994,0.002 4.3635,-1.9597 4.3656,-4.3584 l 0.1373,-198.9834 c 0.002,-2.3994 -1.9598,-4.3627 -4.3592,-4.3649 z"
       style="fill:#ffffff;fill-rule:evenodd"
       id="path814" />
    <path
       d="m 337.5468,427.4064 c 0.501,1.0383 0.258,2.2514 -0.9151,2.3262 -1.8248,0.1164 -2.0282,-3.8124 0.9151,-2.3262 z"
       style="fill:#1b1918;fill-rule:evenodd"
       id="path816" />
    <path
       d="m 317.5611,461.2747 c 3.8238,1.5575 -10.9082,-9.7628 -24.7424,0.0836 5.2297,-2.3958 19.5033,-3.4294 24.7424,-0.0836 z"
       style="fill:#1b1918;fill-rule:evenodd"
       id="path818" />
    <path
       d="m 289.9923,347.5121 c 1.1459,1.4333 4.9715,-5.7356 3.7002,-7.1612 -16.7692,-18.7997 -46.6831,-38.3928 -75.0452,-1.6978 -0.0123,0.0147 35.5448,-35.9153 71.345,8.859 z"
       style="fill:#1b1918;fill-rule:evenodd"
       id="path820" />
    <path
       d="m 236.3116,366.3445 c 20.999,15.8794 30.1676,4.2972 50.4988,17.8534 1.8829,1.2556 2.3346,-1.917 3.2487,-4.495 10.1325,-28.5643 -14.2071,-37.3715 -39.0155,-35.7212 -6.5259,0.4339 -9.3777,4.6964 -13.0945,10.1183 -2.5666,3.7452 -3.9053,10.5294 -1.6375,12.2445 z"
       style="fill:#ffffff;fill-rule:evenodd"
       id="path822" />
    <path
       d="m 288.1343,390.232 c -6.3216,-14.1794 -22.0449,-6.4466 -38.7331,-10.7818 -12.1144,-3.1462 -17.6703,-5.958 -26.0786,-15.9116 13.3292,6.078 7.53,-2.7107 16.4367,4.7781 14.1026,11.8576 43.7143,4.1742 48.9006,20.5706 1.8057,5.7091 -2.7553,-2.4036 -16.0877,0.0867 -17.1969,3.2122 -37.1626,-10.3825 -36.95,-10.0403 11.054,17.835 40.6664,9.3167 46.9129,10.5763 6.8376,1.3779 5.9677,1.5132 6.1347,1.464 z"
       style="fill:#1b1918;fill-rule:evenodd"
       id="path824" />
    <path
       d="m 321.7571,347.5121 c -1.0748,1.4333 -4.6634,-5.7356 -3.4709,-7.1612 15.7303,-18.7997 43.791,-38.3928 70.3961,-1.6978 0.0115,0.0147 -33.3428,-35.9153 -66.9252,8.859 z"
       style="fill:#1b1918;fill-rule:evenodd"
       id="path826" />
    <g
       id="Layer1042">
      <path
         d="m 346.0794,369.2325 c 5.9697,-1.7762 11.9123,1.4903 13.2689,7.2964 1.3572,5.806 -2.3852,11.9542 -8.3541,13.7305 -5.9697,1.7769 -11.9123,-1.4896 -13.2696,-7.2956 -1.3565,-5.8061 2.3852,-11.955 8.3548,-13.7313 z"
         style="fill:#1b1918;fill-rule:evenodd"
         id="path828" />
      <path
         d="m 344.9448,373.67 c 1.6809,-0.6737 3.566,0.0832 4.2112,1.6915 0.6452,1.6077 -0.1942,3.4579 -1.8751,4.1323 -1.6809,0.6743 -3.566,-0.0832 -4.2112,-1.6909 -0.6452,-1.6084 0.1942,-3.4586 1.8751,-4.1329 z"
         style="fill:#ffffff;fill-rule:evenodd"
         id="path830" />
      <path
         d="m 344.136,382.4943 c 0.7761,-0.3116 1.6461,0.0384 1.9441,0.7803 0.2974,0.7427 -0.0896,1.5963 -0.8657,1.9079 -0.7753,0.3108 -1.646,-0.0385 -1.9434,-0.7811 -0.298,-0.7419 0.0896,-1.5963 0.865,-1.9071 z"
         style="fill:#ffffff;fill-rule:evenodd"
         id="path832" />
    </g>
    <path
       d="m 376.0422,366.3445 c -20.999,15.8794 -30.1676,4.2972 -50.4988,17.8534 -1.8829,1.2556 -2.3346,-1.917 -3.2487,-4.495 -10.1325,-28.5643 14.2071,-37.3715 39.0155,-35.7212 6.5259,0.4339 9.3777,4.6964 13.0945,10.1183 2.5666,3.7452 3.9053,10.5294 1.6375,12.2445 z"
       style="fill:#ffffff;fill-rule:evenodd"
       id="path835" />
    <path
       d="m 324.2195,390.232 c 6.3216,-14.1794 22.0449,-6.4466 38.7331,-10.7818 12.1143,-3.1462 17.6703,-5.958 26.0786,-15.9116 -13.3292,6.078 -7.53,-2.7107 -16.4367,4.7781 -14.1026,11.8576 -43.7143,4.1742 -48.9006,20.5706 -1.8057,5.7091 2.7553,-2.4036 16.0876,0.0867 17.197,3.2122 37.1627,-10.3825 36.9501,-10.0403 -11.054,17.835 -40.6664,9.3167 -46.9129,10.5763 -6.8376,1.3779 -5.9677,1.5132 -6.1347,1.464 z"
       style="fill:#1b1918;fill-rule:evenodd"
       id="path837" />
    <g
       id="Layer1043">
      <path
         d="m 325.5285,467.0917 c -2.0224,10.7691 11.6171,3.2971 17.9687,10.5714 3.6642,4.1955 10.0059,-0.7021 11.7686,7.9436 0.2988,1.4668 8.914,12.7588 -2.0537,3.9651 -5.0826,-4.0746 -12.4379,10.5984 -15.5693,-0.3052 -0.0242,-0.0839 -12.4835,-11.7401 -8.1784,9.4098 1.4049,6.9001 -15.0088,16.1804 -1.2662,15.6398 2.0473,-0.0804 1.6816,13.4232 5.8573,26.7866 3.7125,11.8788 11.9649,23.6503 14.264,25.6705 4.6174,4.0583 -1.3317,23.8466 14.3728,29.297 11.9201,4.1372 13.8024,10.4064 24.5331,-4.6579 0.801,-1.1247 -11.1433,-27.0954 -10.5714,-39.3171 0.3358,-7.1868 4.5825,-24.0166 6.1596,-29.6719 5.434,-19.4825 -4.882,-18.5883 -1.7834,-22.8905 11.9913,-16.6513 2.361,-17.7902 -10.0549,-27.6894 -0.2234,-0.1778 -24.5295,-3.9017 -11.5687,2.2998 5.1431,2.4606 8.2317,0.3073 11.393,9.2689 0.0178,0.0505 5.7925,3.5198 1.338,4.552 -4.187,0.971 -2.2848,-11.3987 -22.4104,-16.625 -4.7845,-1.242 -24.0344,-5.121 -24.1987,-4.2475 z m 17.8634,40.86 c -4.1806,5.4973 -2.9891,10.1645 1.3488,11.2258 3.763,0.9205 10.5059,-1.3764 10.6304,-1.9163 2.8162,-0.5826 7.4301,-8.9894 -1.7129,-13.1408 -0.5421,-0.2462 -9.5549,2.8959 -10.2663,3.8313 z"
         style="fill:#ffffff;fill-rule:evenodd"
         id="path839" />
      <g
         id="Layer1044">
        <path
           d="m 338.2547,494.2723 c -4.155,2.9062 -5.1254,3.0811 -8.5641,7.3422 -0.6076,-3.2386 -3.8086,-13.0006 0.5093,-14.7999 3.3743,-1.4064 7.8372,4.024 8.0548,7.4577 z m 42.7398,7.6727 c 1.3886,-3.3467 3.8055,-8.1116 5.5421,-11.9294 1.9069,-4.1898 1.8706,-7.9909 -3.0873,-10.8077 -3.946,-3.2598 -7.892,-6.519 -11.8383,-9.7787 -5.9183,-0.2578 -13.8016,-0.7832 -19.7207,-1.0401 0.0337,0.538 -0.0608,1.3312 2.2071,1.8394 0.5389,0.1204 0.3146,1.0559 0.5394,1.5541 -5.1184,-2.0798 -9.8857,-3.4579 -14.3466,-4.2235 -4.9905,-0.555 -9.981,-1.1094 -14.9713,-1.6636 -9.7982,-0.6776 -0.4193,1.2936 -0.5213,1.8923 -0.546,3.2005 1.0089,5.4678 5.511,6.4249 3.1425,0.37 6.2847,0.7391 9.4272,1.1091 2.7992,3.5844 7.9959,5.3697 13.8618,6.6541 1.2011,2.5875 2.403,5.1747 3.6041,7.7628 -4.0429,-2.7686 -7.8126,-3.3573 -11.0893,0 l -6.8205,4.0031 c -0.833,-3.4451 -2.2879,-5.2193 -3.9646,-6.6366 -1.0476,-0.4795 -2.5268,-0.8032 -2.9656,-1.6343 -2.4498,-4.6392 -4.3149,-5.1555 -5.0248,2.5816 -0.3942,4.3048 0.8562,10.2335 1.918,14.2569 -0.935,1.1588 -11.7227,13.2249 -9.7183,13.8195 0.3251,0.0961 2.8148,-1.7458 3.1556,-1.5226 0.6873,0.4513 4.4709,1.02 6.3872,-0.2761 0.3343,13.5793 3.3305,24.9826 7.8465,35.1409 l 0.0368,0.4299 c 3.1155,5.9748 6.721,11.704 11.3677,16.9123 2.0331,7.3933 4.0661,14.7869 6.0991,22.1796 l 1.6985,3.4398 c -1.9779,-7.0052 -4.771,-19.866 -6.4547,-25.9888 l -0.0861,-0.3143 -0.2176,-0.2438 c -4.4235,-4.9584 -7.9652,-10.5126 -11.0425,-16.3824 -0.6645,-7.6365 -2.0007,-18.4021 1.8542,-25.2563 3.6175,-6.4315 6.2746,-5.6441 12.5139,-5.0003 0.5048,0.0519 0.1975,20.5416 0.7037,20.594 1.0142,-15.0131 -0.3393,-17.8184 6.6985,-31.1537 l 0.6018,-1.1398 -1.09,-0.6887 c -1.7561,-1.1086 -3.5116,-2.2175 -5.268,-3.3266 l -0.8166,-0.5158 -0.7695,0.5843 c -2.5329,1.9238 -5.3511,3.1511 -8.5083,3.6125 l -0.6793,0.0992 -0.3357,0.6001 c -0.4137,0.7417 -0.8255,1.485 -1.2529,2.2192 -1.7951,5.0161 -4.9042,8.5877 -9.041,7.1497 -1.0886,-0.3786 2.4482,-3.5372 1.6524,-3.8111 0.7632,-1.3886 -0.5123,-1.6486 -0.4354,-1.8249 1.4621,-3.3256 3.8791,-6.5316 5.1184,-8.9572 l 5.0791,-4.9509 c 2.4604,-2.5967 3.593,-3.668 6.9458,-2.6923 l 16.9525,4.9329 -17.5354,-5.8879 c -3.0405,-0.8618 -3.3968,-0.3012 -6.0955,1.5819 l -6.6953,6.2446 c -4.2447,5.8534 -8.5615,15.8742 -14.6325,11.8987 1.1733,-1.4535 3.6192,-5.4903 2.0732,-5.5135 -0.6732,-0.01 6.641,-7.4434 9.3809,-10.838 1.4892,-0.8737 11.373,-6.7998 12.8262,-7.6786 2.9611,-3.0335 5.7152,-1.0387 8.8426,1.103 l 22.0277,13.9251 c -10.4368,-8.182 -16.9497,-8.3528 -22.5102,-20.329 l -1.3624,-3.7217 c -7.8383,-1.7149 -8.6788,-1.0069 -14.6718,-6.8241 -3.1205,-0.3675 -7.1935,-0.2582 -10.314,-0.6249 -3.5317,-0.7651 -4.5383,-2.2144 -3.7292,-5.3717 2.1369,0.2374 5.4262,1.7461 6.6591,-0.2181 0.2995,-0.477 5.1192,0.9417 7.5802,1.2156 5.2168,0.8999 9.954,1.7229 14.822,3.7822 6.4008,2.2868 8.1277,1.2314 11.8689,8.2466 l 0.0167,0.0307 0.0181,0.0298 c 4.713,7.856 9.7835,15.473 14.4968,23.3285 0.467,0.6899 2.59,3.5866 3.2194,5.6422 0.5569,2.7112 -0.9431,5.8378 -1.9993,8.3016 l -0.095,0.2223 -0.0151,0.2418 c -0.4494,7.4022 -1.1131,14.9226 -4.5609,21.6271 l -0.0858,0.1663 -0.0387,0.1831 c -1.5123,7.1523 -1.8603,14.7757 0.5845,21.7672 1.9536,7.4398 7.3821,24.2934 9.5277,32.6936 l -0.9863,-5.6542 c -2.403,-9.1497 -4.806,-18.2985 -7.2085,-27.4476 -2.1899,-6.222 -2.1935,-13.318 -0.5542,-21.0709 3.5479,-6.8996 4.2466,-14.5105 4.7128,-22.1801 3.7548,-8.7616 0.8344,-11.6814 -1.6636,-14.9713 z m -25.7837,-31.7324 c 3.4197,1.7294 6.7825,2.1183 7.8362,-0.27 0.1307,-0.2972 5.3932,0.3915 7.9179,0.5007 3.826,3.1606 7.6522,6.083 11.4775,9.2433 l 0.3182,0.7325 c 3.9836,2.2631 5.0167,4.6004 3.223,8.5433 -0.742,1.6294 -2.2317,3.7206 -3.0043,5.3355 -0.9648,2.0169 -1.9818,4.0831 -2.8761,6.1629 l -6.9654,-11.6095 2.933,-2.9806 c -2.8703,-1.5937 -6.604,-3.8154 -7.4883,-7.1197 l -0.9436,-1.8979 c -0.9426,0.2201 -1.2362,-0.1312 -2.21,-0.0775 -4.1173,-4.1516 -9.1572,-2.756 -10.2181,-6.563 z m -13.8752,43.5018 c 0.6363,1.6282 1.3381,3.2331 2.0887,4.8231 -7.7652,5.7191 -7.7164,15.8322 -6.8834,26.3874 -3.2606,-8.379 -5.1385,-16.8878 -5.811,-25.6488 -0.0226,-0.2992 1.2086,-1.6313 1.3563,-1.5817 4.4848,1.4973 6.9397,-0.8119 9.2494,-3.98 z m -10.8058,2.1933 c -0.0368,-0.8927 -0.0618,-1.7876 -0.0749,-2.6856 2.3874,-2.218 4.5503,-5.7074 6.7853,-8.7897 -1.955,3.8248 -4.6386,7.6502 -6.7104,11.4753 z m 36.0241,-37.8535 c 0.2288,-0.0368 0.4561,-0.0805 0.6832,-0.1329 0.9111,3.4041 3.5479,5.9464 7.2052,7.977 l -2.0319,1.7413 -4.396,-7.3273 c -0.4354,-0.8169 -0.923,-1.5685 -1.4605,-2.2581 z m -24.3588,34.5341 c 0.7667,-1.2061 1.1024,-3.413 1.7903,-4.6453 3.4451,-0.5032 7.0261,-1.7536 9.7047,-3.7886 1.7561,1.1086 3.4191,2.7736 5.1752,3.8822 -1.7561,3.3274 -2.5861,7.3952 -4.3416,10.7221 -2.0436,-0.8194 -8.3121,-1.4468 -10.21,-0.2708 -0.8356,-1.7778 -1.4274,-4.0491 -2.1186,-5.8996 z"
           style="fill:#1b1918;fill-rule:evenodd"
           id="path841" />
        <path
           d="m 363.1659,471.4171 c 0.6137,-1.0731 0.8687,-2.0999 -0.8137,-2.7055 -0.5087,-0.8131 -7.5778,-1.5506 -9.0221,-1.8306 -0.7493,-0.0875 -2.5605,-0.3606 -3.1367,0.0463 -0.5206,1.348 4.3191,4.8429 8.1621,5.3229 2.0537,0.2562 3.7379,1.0362 4.8104,-0.8331 z"
           style="fill:#1b1918;fill-rule:evenodd"
           id="path843" />
        <path
           d="m 362.1839,468.7526 c 1.3562,0.4979 0.8507,1.749 -0.0698,3.1687 -3.7453,0.2844 -6.97,-0.684 -9.6232,-3.0305 -2.5014,-1.6635 -2.2177,-2.253 0.3731,-1.9515 3.1064,0.6044 6.2135,1.2089 9.3199,1.8133 z"
           style="fill:#e30016;fill-rule:evenodd"
           id="path845" />
        <path
           d="m 333.4372,468.5647 c 0.5804,-0.8112 0.8046,-1.5955 -0.8903,-2.1025 -0.5309,-0.6382 -7.5995,-1.3774 -9.0475,-1.6279 -0.7496,-0.0856 -2.5631,-0.3397 -3.1256,-0.0405 -0.4796,1.0251 4.4472,3.8328 8.2923,4.2955 2.0547,0.2471 3.7566,0.8883 4.7711,-0.5246 z"
           style="fill:#1b1918;fill-rule:evenodd"
           id="path847" />
        <path
           d="m 332.3804,466.4897 c 1.3664,0.4162 0.8991,1.3671 0.0229,2.4376 -3.7252,0.1281 -6.9682,-0.6956 -9.6818,-2.5663 -2.5422,-1.3412 -2.2766,-1.7881 0.3149,-1.4932 3.1145,0.5406 6.2296,1.0813 9.344,1.6219 z"
           style="fill:#e30016;fill-rule:evenodd"
           id="path849" />
        <path
           d="m 326.9277,507.7861 c -0.7045,-0.8879 -1.4923,-1.4623 -2.5833,-0.2833 -0.8667,0.1337 -3.9112,5.7272 -4.6434,6.8243 -0.3307,0.5896 -1.1825,1.993 -1.0327,2.6141 0.9706,0.9081 5.6026,-1.8637 7.325,-4.8765 0.9203,-1.6102 2.1605,-2.7291 0.9344,-4.2786 z"
           style="fill:#1b1918;fill-rule:evenodd"
           id="path851" />
        <path
           d="m 324.3218,507.6567 c 0.8878,-0.947 1.781,-0.0858 2.676,1.1789 -1.0378,3.2023 -2.9651,5.5303 -5.8713,6.8975 -2.2723,1.4831 -2.6776,1.0396 -1.5352,-0.9994 1.5767,-2.3588 3.1538,-4.7182 4.7305,-7.077 z"
           style="fill:#e30016;fill-rule:evenodd"
           id="path853" />
        <path
           d="m 335.8882,511.993 c -0.6054,-0.7629 -1.2823,-1.2566 -2.2198,-0.2434 -0.7448,0.1149 -3.361,4.9214 -3.9902,5.8641 -0.2841,0.5067 -1.016,1.7126 -0.8874,2.2464 0.8341,0.7803 4.8144,-1.6015 6.2945,-4.1905 0.7908,-1.3836 1.8565,-2.3451 0.8029,-3.6766 z"
           style="fill:#1b1918;fill-rule:evenodd"
           id="path855" />
        <path
           d="m 333.6489,511.8818 c 0.7629,-0.8137 1.5305,-0.0736 2.2996,1.013 -0.8919,2.7518 -2.548,4.7523 -5.0453,5.9272 -1.9526,1.2744 -2.3009,0.8932 -1.3192,-0.8589 1.3549,-2.0269 2.71,-4.0543 4.0649,-6.0813 z"
           style="fill:#e30016;fill-rule:evenodd"
           id="path857" />
      </g>
    </g>
    <g
       id="Layer1045">
      <g
         id="Layer1046">
        <path
           d="m 255.3001,626.408 -1.6226,-2.1181 c -0.7418,-1.0064 0.7444,-0.414 1.0281,-0.4006 5.1346,2.3021 3.9564,4.291 0.5945,2.5187 z m -55.4488,-30.474 c -1.0618,-0.8233 -0.7909,-8.336 0.3315,-15.9727 1.144,-7.3727 0.9686,-9.0366 1.1469,-16.2152 0.5472,-22.065 9.3834,-22.3108 15.7565,-33.4623 -0.3121,0.1152 -0.1961,0.0383 -0.5875,0.3309 -0.078,0.0584 -0.4368,0.3968 -0.5058,0.4699 -3.2102,3.4163 -9.9012,11.5405 -11.847,15.1301 -5.3702,9.9084 -2.5229,21.5811 -4.6893,33.6918 -0.761,4.2531 -1.1159,10.0713 -0.7672,14.3234 0.0889,1.08 0.4552,1.7683 0.8309,2.6398 -0.2757,0.9032 -0.129,1.1361 -0.1872,1.4469 -0.2998,2.251 -0.2008,4.3915 1.561,6.3284 l 1.4253,1.9005 c 0.4421,1.8248 0.3615,2.1547 1.2987,3.8458 2.1699,3.9157 5.8145,5.4946 9.0796,8.2875 1.9136,2.0031 3.6812,6.4404 4.2933,8.4958 0.8917,2.9942 1.4257,5.6984 3.6032,8.7577 1.614,2.2678 6.162,6.3471 10.3704,10.5445 3.8508,3.8399 7.3311,7.8305 9.8172,9.5704 0.5994,0.4197 0.8437,-0.1997 0.8518,-0.7235 0.0216,-1.3419 -0.6896,-2.78 -1.4886,-4.0331 2.3039,-3.7064 -3.2677,-9.4078 -8.7453,-14.4388 -3.8956,-4.1872 -5.8364,-7.8792 -6.5128,-11.9733 2.6913,-0.4398 11.9597,1.9801 13.1658,1.3186 1.3532,0.6986 2.8829,1.7055 3.6686,2.8511 1.5089,2.1644 3.1907,3.1853 3.7046,2.7625 0.5258,-0.433 0.2225,-2.9006 -0.1663,-4.7447 1.4428,-1.5738 7.8948,0.4474 10.0172,-0.0482 0.4906,0.159 0.6854,0.2805 1.2341,0.3562 3.8818,0.4585 2.0013,-1.7673 -0.3541,-3.1327 -1.2263,-0.7109 -2.5371,-1.0248 -3.286,-0.984 -0.9297,-0.3706 -8.753,-3.1421 -8.7345,-3.1653 -0.0587,-0.8112 -0.3384,-2.0668 -0.5158,-2.9793 -0.1765,-0.9091 -0.9028,-4.3167 -0.8106,-5.1124 0.2235,-1.2508 7.8804,-2.4232 9.7245,-2.5685 1.0524,-0.0825 1.7834,-0.0348 2.3939,-0.1441 1.2001,-0.2153 0.8124,-0.8478 0.3094,-1.7938 -1.1357,-2.1352 -7.0502,-2.5542 -9.4553,-2.31 -0.9928,0.1006 -2.9158,0.5121 -3.6259,1.2561 2.7207,-0.8121 8.2907,-1.7299 9.3441,1.9531 -0.4609,0.77 -7.2869,1.1174 -8.793,2.2945 -1.2142,-0.5347 -0.8712,-5.8558 -0.9476,-7.3342 -0.1337,-2.5909 -0.0341,-4.897 -0.0552,-7.4651 -0.1217,-14.9306 -8.6756,-19.4401 -10.7737,-27.6668 -0.1632,-0.64 -0.2838,-1.2455 -0.3679,-1.8203 -0.2997,-0.5198 -0.6102,-1.0717 -0.8888,-1.6032 0.0198,1.655 0.4063,3.4256 1.1338,5.4796 1.8302,5.1675 6.7938,10.3921 8.6413,15.7697 1.9655,5.7215 1.4377,10.5896 1.6165,17.242 0.1514,5.6462 1.1585,12.5123 2.4541,16.8322 l -0.008,0.03 c -1.4369,0.0987 -3.3697,0.1475 -4.5149,1.0307 0.1456,0.5518 0.2407,0.7038 0.435,1.2592 0.4174,1.1921 0.5573,3.2198 1.4731,4.5616 -0.3656,0.004 -0.1787,0.1667 -0.5991,-0.1693 -1.6459,-1.2669 -4.219,-3.9483 -5.1744,-5.5283 -3.4852,-5.765 -0.9564,-18.8117 -6.4512,-21.0395 -3.2723,4.5353 -2.7381,8.6065 -4.1404,13.6817 -0.873,3.0169 -0.9636,8.7527 -0.315,11.6985 0.5219,2.3706 1.7003,5.2409 3.6173,7.9267 2.6428,3.7032 14.0305,12.5363 11.9665,17.1356 -0.8077,-0.9744 -1.5983,-1.9544 -2.6027,-2.7756 -0.6376,-0.5216 -0.5301,-0.6023 -1.1279,-0.1888 -0.829,0.5734 -1.6237,1.0506 -1.3446,1.7479 l 1.8955,-1.0658 c 2.1733,1.5884 4.065,4.2893 4.2895,6.3518 0.0393,0.359 -0.1158,0.7298 -0.448,0.4452 -1.5226,-1.3051 -2.7886,-2.7139 -3.9721,-3.7001 l -2.1916,-2.3743 c -2.3525,-2.4329 -4.7084,-4.941 -7.2037,-7.3507 -2.6711,-2.5796 -5.1882,-4.7094 -6.8954,-7.6185 -2.4103,-4.1069 -2.8977,-11.7756 -7.5512,-16.5469 -0.1337,-0.8125 -1.8816,-6.1439 -1.9738,-6.2194 -0.0505,1.2421 0.0434,2.1035 0.8497,4.7983 0.1782,0.5955 0.1774,0.7681 0.4892,1.0663 l -1.2613,-0.9865 c -10.6661,-6.286 -6.9503,-12.3782 -7.6653,-13.2268 -0.5617,0.6805 -0.6534,3.3056 -1.3204,1.992 -0.5468,-1.0765 -1.1687,-1.3479 -1.707,-3.0345 -1.0378,-3.2493 1.1041,-6.2258 0.7739,-8.1152 -0.601,1.1424 -0.774,1.4375 -0.9906,2.0272 z m 32.9809,22.8471 -5.5541,-2.0436 c -1.0369,-0.4834 -2.5587,-0.5678 -1.6678,-2.3926 0.4534,0.2567 4.9421,-0.2423 6.5409,-0.0554 0.0114,1.7122 0.5229,2.9955 0.681,4.4916 z m -5.8565,-1.5236 c 1.4478,0.9385 5.6021,1.6822 6.2378,2.3103 0.1215,0.1196 1.3043,2.1514 1.6215,2.6358 0.906,1.3836 1.6785,1.9774 2.7172,3.1197 l -0.63,0.1384 c -1.5264,-0.5525 -4.2448,-0.623 -6.0304,-0.8389 -1.7018,-0.2054 -4.8113,-0.3046 -6.1112,-0.6128 -0.6677,-2.2805 -0.1138,-4.6805 0.0289,-7.0891 0.4811,-0.6385 -0.1068,-0.3492 0.5151,-0.4067 0.8626,0.6432 0.8236,0.6983 1.6511,0.7433 z m -0.2366,-9.3059 c 0.5705,-0.7091 -0.2078,-0.5891 1.0578,-0.0614 0.927,0.3864 2.8624,0.7771 3.8008,0.5515 0.3827,0.8697 0.4345,3.979 0.1987,5.0352 -1.547,-0.3942 -6.0079,0.5484 -6.13,0.0186 -0.1733,-0.7503 0.3319,-3.3565 1.0727,-5.5439 z m 2.3093,-6.1258 c 1.5119,1.5724 2.4283,4.0536 2.4197,5.8186 -1.7972,-0.1604 -2.1756,0.0575 -4.5324,-1.2178 0.4863,-1.2404 0.7418,-4.0255 2.1127,-4.6008 z m 25.0792,6.944 c -0.7667,0.1318 -1.1039,0.0844 -1.6374,0.0226 -0.2047,-1.2284 -0.9724,-2.0841 -1.3132,-2.77 1.5911,0.3039 3.0028,0.3031 3.6252,1.7409 0.3578,0.8244 0.1993,0.8559 -0.6746,1.0065 z m -10.7774,12.3277 c -0.2457,0.0249 -0.731,0.0248 -1.1064,-0.0355 -0.6631,0.1995 -1.4307,0.0601 -2.2837,0.7481 1.4032,4.3635 1.2091,6.7677 4.1705,8.7112 0.7216,0.4736 0.8723,0.6187 0.9901,-0.1582 0.3855,-2.5386 -2.0479,-5.9909 -1.7705,-9.2656 z m 11.0437,5.2798 c -1.9168,-0.2176 -6.7427,-0.7644 -8.49,-0.3585 -1.1913,0.2763 -0.2367,0.3576 -1.0577,0.0687 -0.661,-1.5566 -0.4323,-2.6041 -0.4728,-4.0975 -0.0163,-0.605 -0.0653,-0.535 0.009,-1.0629 2.5321,0.1883 9.6301,2.8971 10.0117,5.4502 z"
           style="fill:#1b1918;fill-rule:evenodd"
           id="path861" />
        <path
           d="m 243.5164,620.3505 c -1.1559,0.8325 -2.3031,0.4488 -3.5563,1.4596 0.0118,0.0371 0.5898,6.2183 3.3013,8.1997 1.3092,0.9566 2.3378,2.1223 2.1312,-0.2083 -0.1181,-1.336 -0.6926,-3.1798 -1.055,-5.017 -0.4338,-2.201 -0.6655,-4.3122 -0.8212,-4.434 z"
           style="fill:#e30016;fill-rule:evenodd"
           id="path863" />
        <path
           d="m 236.4988,651.523 c 1.1839,0.9869 2.4538,2.3816 3.9366,3.6667 0.3721,0.3221 0.5281,0.0371 0.4882,-0.3681 -0.202,-2.0678 -2.1055,-4.7959 -4.2942,-6.3955 l -1.5903,0.8758 c -0.8204,0.2368 -0.2289,0.3914 1.4597,2.2211 z"
           style="fill:#e30016;fill-rule:evenodd"
           id="path865" />
        <path
           d="m 255.0234,608.4931 c -0.4342,-2.1744 -2.0218,-2.1223 -3.8464,-2.4707 0.3965,1.5324 1.2173,1.1265 0.8422,2.7466 0.7514,0.0869 2.0455,0.1922 3.0042,-0.2759 z"
           style="fill:#e30016;fill-rule:evenodd"
           id="path867" />
        <path
           d="m 258.4032,626.7786 c 0.0316,-1.2275 -4.3338,-3.5217 -4.6824,-3.1181 l -0.3597,0.0564 -0.0498,0.359 1.9888,2.3321 c 0.7784,0.4109 2.0494,1.2485 3.1031,0.3706 z"
           style="fill:#e30016;fill-rule:evenodd"
           id="path869" />
      </g>
      <path
         d="m 229.8093,568.0304 c -2.1319,-6.5032 -1.9479,-16.8606 1.93,-28.7014 3.5022,-10.6936 10.1548,-22.6489 18.39,-33.5356 l 0.668,0.5054 c -8.1781,10.8108 -14.0447,22.5138 -17.52,33.1248 -5.2184,15.9344 -3.7893,14.0121 -3.468,28.6068 z"
         style="fill:#1b1918;fill-rule:evenodd"
         id="path872" />
      <path
         d="m 207.3268,540.8474 c 2.794,-4.6026 8.0361,-15.1965 11.3186,-22.5984 3.175,-7.1597 6.0198,-13.5743 7.5079,-15.361 l 0.6418,0.5368 c -1.4055,1.6872 -4.2299,8.056 -7.3822,15.1646 -3.2887,7.4163 -6.1854,14.1122 -9.0187,18.7794 z"
         style="fill:#1b1918;fill-rule:evenodd"
         id="path874" />
    </g>
  </g>
</svg>
