<?xml version="1.0" encoding="UTF-8" standalone="no"?>
<svg version="1.1" width="288.04044" height="544.95972" id="svg1391" viewBox="0 0 288.04043 544.95972"
    xmlns="http://www.w3.org/2000/svg">
  <defs
     id="defs1395" />
  <path
     d="m -7.1495,-146.61359 c 0,3.1414 0.6378,5.4644 1.9055,6.9679 1.2756,1.5043 2.8187,2.2598 4.6301,2.2598 1.8422,0 3.4169,-0.7796 4.7236,-2.3383 1.315,-1.5591 1.9684,-3.9683 1.9684,-7.2357 0,-3.1179 -0.6378,-5.4485 -1.921,-6.9996 -1.2833,-1.5514 -2.8109,-2.3225 -4.5905,-2.3225 -1.7637,0 -3.3224,0.8263 -4.6768,2.4718 -1.3618,1.6538 -2.0393,4.0476 -2.0393,7.1966 z m -3.7791,21.5108 v -33.9194 h 3.7791 v 3.2201 c 0.8901,-1.2438 1.8975,-2.1804 3.0237,-2.8026 1.118,-0.6222 2.4801,-0.9374 4.0785,-0.9374 2.0943,0 3.9365,0.5358 5.5352,1.6141 1.5979,1.0709 2.8027,2.5908 3.6219,4.543 0.8107,1.9608 1.22,4.1023 1.22,6.4406 0,2.4965 -0.4484,4.7478 -1.3462,6.7559 -0.8977,1.9998 -2.2045,3.5353 -3.9209,4.606 -1.7084,1.063 -3.5118,1.5981 -5.4011,1.5981 -1.3859,0 -2.6303,-0.2914 -3.7244,-0.8739 -1.1024,-0.5825 -1.9999,-1.315 -2.7083,-2.2045 v 11.96 z m -23.156,-23.9987 h 13.6528 c -0.1814,-2.0628 -0.7086,-3.606 -1.5667,-4.6378 -1.3153,-1.5979 -3.0316,-2.4009 -5.1338,-2.4009 -1.9055,0 -3.5036,0.6378 -4.803,1.9134 -1.2912,1.2753 -2.0075,2.984 -2.1493,5.1253 z m 13.6055,6.6611 4.299,0.5669 c -0.6695,2.4957 -1.921,4.4408 -3.748,5.8184 -1.8266,1.3782 -4.1573,2.0707 -6.9996,2.0707 -3.5742,0 -6.4088,-1.1021 -8.5033,-3.3066 -2.0945,-2.1968 -3.1414,-5.2911 -3.1414,-9.2673 0,-4.1099 1.0551,-7.3066 3.1726,-9.574 2.118,-2.2759 4.8659,-3.4098 8.244,-3.4098 3.2675,0 5.9366,1.1103 8.0073,3.3389 2.0707,2.2278 3.1101,5.3615 3.1101,9.4006 0,0.2443 -0.008,0.6142 -0.0235,1.1024 h -18.2588 c 0.1573,2.6849 0.9133,4.7477 2.2833,6.173 1.3618,1.425 3.0705,2.1413 5.1097,2.1413 1.52,0 2.8188,-0.4011 3.8897,-1.2045 1.0783,-0.803 1.9287,-2.0863 2.5589,-3.85 z m -33.4942,-16.5818 v 10.582 c 1.3385,0 2.2836,-0.2517 2.8267,-0.7478 0.5434,-0.5037 1.3229,-1.9763 2.3307,-4.4331 0.945,-2.3306 1.8031,-3.8109 2.575,-4.4563 0.7554,-0.6299 1.9522,-0.9448 3.5977,-0.9448 h 1.5199 v 3.4248 l -1.1262,-0.0232 c -1.1103,0 -1.811,0.1649 -2.118,0.4881 -0.3223,0.3387 -0.8184,1.3464 -1.4803,3.0231 -0.6137,1.6064 -1.1806,2.7088 -1.7005,3.3305 -0.5196,0.6142 -1.3385,1.1732 -2.4406,1.6849 1.7949,0.4804 3.543,2.1415 5.2515,4.9924 l 4.5586,7.5977 h -4.5663 l -4.4408,-7.5901 c -0.9056,-1.5432 -1.7007,-2.5509 -2.3697,-3.0314 -0.6775,-0.4804 -1.4803,-0.7163 -2.4177,-0.7163 v 11.3378 h -4.2517 v -11.3378 c -0.9212,0 -1.7164,0.2359 -2.3853,0.7084 -0.6775,0.4728 -1.4647,1.4882 -2.3624,3.0472 l -4.4799,7.5822 h -4.5663 l 4.5428,-7.5977 c 1.724,-2.8509 3.4877,-4.512 5.2829,-4.9924 -1.2282,-0.5667 -2.0942,-1.1889 -2.5824,-1.8579 -0.496,-0.6689 -1.2279,-2.2677 -2.2121,-4.795 -0.3388,-0.8504 -0.701,-1.37 -1.0871,-1.5591 -0.4011,-0.1964 -0.9921,-0.2914 -1.7793,-0.2914 -0.197,0 -0.6061,0.008 -1.2203,0.0241 v -3.4489 h 0.5748 c 1.6062,0 2.7324,0.0944 3.3857,0.2914 0.6534,0.1891 1.2359,0.5981 1.7558,1.2203 0.5117,0.6222 1.1807,1.9131 1.9999,3.8894 0.9997,2.4171 1.7713,3.8818 2.3071,4.4014 0.5352,0.5198 1.4797,0.7795 2.8261,0.7795 v -10.582 z m -39.1708,33.9429 -0.472,-3.8421 c 0.9133,0.2438 1.7005,0.3699 2.3774,0.3699 0.9289,0 1.6693,-0.1573 2.2207,-0.4649 0.5584,-0.3069 1.0156,-0.7398 1.3697,-1.2911 0.2602,-0.4173 0.6854,-1.4485 1.2679,-3.1023 0.0785,-0.2282 0.1967,-0.5669 0.3699,-1.0156 l -9.3064,-24.5968 h 4.4402 l 5.1182,14.1568 c 0.669,1.7872 1.2595,3.6771 1.7873,5.661 0.4805,-1.8663 1.0474,-3.7085 1.7084,-5.5193 l 5.2282,-14.2985 h 4.1491 l -9.2667,24.9434 c -1.0004,2.685 -1.7799,4.5273 -2.3383,5.5429 -0.7407,1.3621 -1.5908,2.3624 -2.5433,3.0002 -0.9609,0.6378 -2.1024,0.9524 -3.4253,0.9524 -0.8031,0 -1.7008,-0.1652 -2.685,-0.496 z m -22.9748,-35.36 c -2.7871,0.1262 -5.0389,0.9445 -6.7632,2.4724 -1.7246,1.527 -2.5906,3.653 -2.5906,6.3853 0,2.7006 0.8504,4.8187 2.5512,6.3618 1.7005,1.5429 3.9682,2.3698 6.8026,2.4959 z m 4.2043,-0.0476 v 17.8104 c 2.8897,-0.1417 5.1574,-0.9842 6.8188,-2.5277 1.6611,-1.5431 2.4879,-3.6691 2.4879,-6.3774 0,-2.6614 -0.8112,-4.7633 -2.4409,-6.3223 -1.6299,-1.5512 -3.9132,-2.4092 -6.8658,-2.583 z m -4.2043,-3.8265 v -4.299 h 4.2043 v 4.299 c 4.307,0.2282 7.7083,1.5279 10.1962,3.8974 2.4962,2.3703 3.7401,5.307 3.7401,8.8189 0,3.4404 -1.2048,6.3612 -3.6219,8.7706 -2.4171,2.4015 -5.8495,3.7321 -10.3144,3.9765 v 4.3461 h -4.2043 v -4.3461 c -3.9994,-0.1579 -7.3299,-1.3782 -9.9916,-3.6692 -2.6614,-2.283 -3.9915,-5.3147 -3.9915,-9.0779 0,-3.7721 1.3301,-6.795 3.9839,-9.0627 2.6529,-2.2674 5.9836,-3.4798 9.9992,-3.6536 z"
     style="fill:#1b1918;fill-rule:evenodd"
     id="path1217" />
  <path
     d="m -49.1703,-89.233494 c 0,0.621 -0.1029,1.0321 -0.3081,1.2382 -0.2058,0.2052 -0.5763,0.3081 -1.1171,0.3081 -0.5273,0 -0.8893,-0.1029 -1.0902,-0.3042 -0.2013,-0.201 -0.2994,-0.6029 -0.2994,-1.2061 0,-0.6211 0.1024,-1.0324 0.3082,-1.2373 0.2052,-0.2061 0.5762,-0.309 1.1171,-0.309 0.5272,0 0.8892,0.0989 1.0905,0.2999 0.1961,0.201 0.299,0.6072 0.299,1.2104 z m -10.237,-13.605796 h -0.0269 l -5.4511,9.307596 h 5.478 z m 4.6602,10.232796 c 0,0.2855 -0.0443,0.5134 -0.1293,0.6792 -0.0899,0.165 -0.2101,0.2452 -0.3668,0.2452 h -1.9125 v 3.5617 c 0,0.0712 -0.0179,0.129 -0.0531,0.1789 -0.036,0.0442 -0.0989,0.089 -0.1879,0.125 -0.0893,0.0312 -0.21,0.0581 -0.3532,0.076 -0.1429,0.0173 -0.326,0.0263 -0.5491,0.0263 -0.2191,0 -0.3979,-0.009 -0.5411,-0.0263 -0.1429,-0.0179 -0.2591,-0.0448 -0.3441,-0.076 -0.0848,-0.036 -0.1429,-0.0808 -0.1741,-0.125 -0.0311,-0.0499 -0.049,-0.1077 -0.049,-0.1789 v -3.5617 h -6.9353 c -0.1071,0 -0.1919,-0.013 -0.259,-0.04 -0.0712,-0.0269 -0.1341,-0.0711 -0.1919,-0.1431 -0.0539,-0.0669 -0.0942,-0.1698 -0.1163,-0.2991 -0.0226,-0.1298 -0.0311,-0.2999 -0.0311,-0.5099 0,-0.165 0.0042,-0.3124 0.0133,-0.4422 0.0088,-0.1293 0.0269,-0.25 0.0538,-0.3572 0.0221,-0.112 0.0581,-0.2149 0.1024,-0.3129 0.0399,-0.1029 0.0938,-0.2101 0.1567,-0.322 l 6.0412,-10.303996 c 0.0442,-0.0711 0.1111,-0.1292 0.1962,-0.1831 0.085,-0.0533 0.1922,-0.0981 0.326,-0.1293 0.134,-0.0357 0.2999,-0.0626 0.4921,-0.0759 0.1961,-0.0139 0.4288,-0.0179 0.697,-0.0179 0.2903,0 0.5494,0.009 0.7642,0.0312 0.2189,0.0221 0.3972,0.0539 0.527,0.0847 0.1341,0.036 0.237,0.0851 0.3084,0.1384 0.0717,0.0587 0.1069,0.1256 0.1069,0.2058 v 10.826896 h 1.9125 c 0.1477,0 0.2679,0.0763 0.3577,0.2282 0.0941,0.1514 0.1384,0.3841 0.1384,0.697 z m -14.2541,3.9272 c 0,0.1658 -0.0136,0.3038 -0.0405,0.4158 -0.0264,0.112 -0.0581,0.2052 -0.1023,0.2721 -0.0451,0.072 -0.0941,0.1211 -0.152,0.1522 -0.0581,0.0318 -0.1162,0.0448 -0.1743,0.0448 h -8.8475 c -0.0581,0 -0.1159,-0.013 -0.1701,-0.0448 -0.049,-0.0311 -0.1029,-0.0802 -0.1471,-0.1522 -0.049,-0.0669 -0.0847,-0.1601 -0.112,-0.2721 -0.0269,-0.112 -0.0399,-0.25 -0.0399,-0.4158 0,-0.1562 0.013,-0.2903 0.0399,-0.4023 0.0273,-0.1159 0.0582,-0.21 0.0984,-0.2812 0.0357,-0.076 0.0848,-0.1298 0.1429,-0.1698 0.0581,-0.0402 0.121,-0.0581 0.1879,-0.0581 h 3.5257 v -12.895596 l -3.2757,1.9573 c -0.165,0.085 -0.299,0.1383 -0.4019,0.1562 -0.0981,0.0178 -0.1789,0 -0.2413,-0.0581 -0.0629,-0.0579 -0.1029,-0.152 -0.125,-0.2818 -0.0226,-0.1293 -0.0317,-0.2942 -0.0317,-0.4955 0,-0.1477 0.0048,-0.2769 0.0178,-0.3798 0.0139,-0.1072 0.036,-0.1922 0.063,-0.2639 0.0269,-0.0672 0.0621,-0.1293 0.1119,-0.1832 0.0443,-0.049 0.1072,-0.1029 0.1871,-0.1562 l 3.9059,-2.4981 c 0.0351,-0.0264 0.076,-0.0491 0.129,-0.0672 0.0541,-0.013 0.121,-0.0309 0.197,-0.049 0.0802,-0.0179 0.17,-0.0312 0.2769,-0.036 0.1032,-0.004 0.2322,-0.004 0.3932,-0.004 0.2061,0 0.3841,0.009 0.523,0.0269 0.1383,0.0179 0.2455,0.04 0.3262,0.0712 0.08,0.0317 0.1293,0.0717 0.1562,0.1159 0.027,0.0499 0.04,0.0989 0.04,0.1522 v 14.888696 h 3.0654 c 0.072,0 0.1389,0.0179 0.197,0.0581 0.0621,0.04 0.1111,0.0938 0.1519,0.1698 0.0403,0.0712 0.0712,0.1653 0.0933,0.2812 0.0229,0.112 0.0317,0.2461 0.0317,0.4023 z m -14.1156,-0.5542 c 0,0.621 -0.1029,1.0321 -0.3082,1.2382 -0.2058,0.2052 -0.576,0.3081 -1.1171,0.3081 -0.527,0 -0.8892,-0.1029 -1.0902,-0.3042 -0.201,-0.201 -0.2991,-0.6029 -0.2991,-1.2061 0,-0.6211 0.1021,-1.0324 0.3082,-1.2373 0.2052,-0.2061 0.5762,-0.309 1.1171,-0.309 0.5272,0 0.8892,0.0989 1.0902,0.2999 0.1962,0.201 0.2991,0.6072 0.2991,1.2104 z m -10.2368,-13.605796 h -0.0269 l -5.4513,9.307596 h 5.4782 z m 4.6599,10.232796 c 0,0.2855 -0.0443,0.5134 -0.129,0.6792 -0.0899,0.165 -0.2101,0.2452 -0.3671,0.2452 h -1.9122 v 3.5617 c 0,0.0712 -0.0182,0.129 -0.0533,0.1789 -0.036,0.0442 -0.0987,0.089 -0.188,0.125 -0.089,0.0312 -0.21,0.0581 -0.3529,0.076 -0.1431,0.0173 -0.3263,0.0263 -0.5493,0.0263 -0.2192,0 -0.398,-0.009 -0.5409,-0.0263 -0.1431,-0.0179 -0.2591,-0.0448 -0.3441,-0.076 -0.0851,-0.036 -0.1432,-0.0808 -0.1741,-0.125 -0.0311,-0.0499 -0.049,-0.1077 -0.049,-0.1789 v -3.5617 h -6.9352 c -0.1072,0 -0.1922,-0.013 -0.2591,-0.04 -0.0712,-0.0269 -0.1341,-0.0711 -0.1922,-0.1431 -0.0539,-0.0669 -0.0939,-0.1698 -0.116,-0.2991 -0.0229,-0.1298 -0.0311,-0.2999 -0.0311,-0.5099 0,-0.165 0.004,-0.3124 0.013,-0.4422 0.009,-0.1293 0.0269,-0.25 0.0539,-0.3572 0.0221,-0.112 0.0581,-0.2149 0.1023,-0.3129 0.0402,-0.1029 0.0941,-0.2101 0.1567,-0.322 l 6.0412,-10.303996 c 0.0443,-0.0711 0.1114,-0.1292 0.1965,-0.1831 0.0847,-0.0533 0.1919,-0.0981 0.326,-0.1293 0.134,-0.0357 0.2999,-0.0626 0.4918,-0.0759 0.1964,-0.0139 0.4291,-0.0179 0.6973,-0.0179 0.29,0 0.5491,0.009 0.7639,0.0312 0.2192,0.0221 0.3975,0.0539 0.5273,0.0847 0.1341,0.036 0.237,0.0851 0.3081,0.1384 0.072,0.0587 0.1072,0.1256 0.1072,0.2058 v 10.826896 h 1.9122 c 0.148,0 0.2682,0.0763 0.358,0.2282 0.0938,0.1514 0.1381,0.3841 0.1381,0.697 z m -14.781,3.373 c 0,0.621 -0.1029,1.0321 -0.3081,1.2382 -0.2058,0.2052 -0.5763,0.3081 -1.1172,0.3081 -0.5272,0 -0.8892,-0.1029 -1.0902,-0.3042 -0.2009,-0.201 -0.299,-0.6029 -0.299,-1.2061 0,-0.6211 0.102,-1.0324 0.3081,-1.2373 0.2049,-0.2061 0.576,-0.309 1.1171,-0.309 0.527,0 0.8893,0.0989 1.0902,0.2999 0.1962,0.201 0.2991,0.6072 0.2991,1.2104 z m -6.2691,0.4739 c 0,0.1562 -0.009,0.2951 -0.0312,0.4153 -0.0227,0.1256 -0.0538,0.2279 -0.0938,0.3087 -0.0403,0.085 -0.0899,0.1431 -0.1568,0.1831 -0.0672,0.0403 -0.1383,0.0581 -0.2143,0.0581 h -9.3747 c -0.1202,0 -0.2279,-0.013 -0.322,-0.0448 -0.089,-0.0311 -0.1693,-0.0802 -0.2322,-0.1522 -0.0669,-0.0669 -0.1159,-0.1692 -0.1471,-0.299 -0.0318,-0.1293 -0.0448,-0.2903 -0.0448,-0.4822 0,-0.1749 0.009,-0.3268 0.0221,-0.4561 0.0136,-0.1298 0.0406,-0.2461 0.0848,-0.3489 0.045,-0.0981 0.1032,-0.1962 0.1701,-0.2991 0.0669,-0.0981 0.1561,-0.2052 0.2639,-0.3172 l 3.3868,-3.4855 c 0.786,-0.8042 1.4122,-1.5233 1.8853,-2.1625 0.474,-0.6341 0.836,-1.2152 1.095,-1.7425 0.2543,-0.523 0.4244,-0.9969 0.5052,-1.4252 0.0802,-0.4292 0.1202,-0.8312 0.1202,-1.206996 0,-0.3753 -0.0621,-0.7325 -0.1871,-1.0676 -0.1301,-0.335 -0.309,-0.6301 -0.5499,-0.8849 -0.237,-0.2549 -0.5364,-0.4561 -0.8983,-0.6033 -0.3572,-0.1471 -0.7731,-0.223 -1.2422,-0.223 -0.5493,0 -1.0412,0.0759 -1.4794,0.223 -0.4331,0.1472 -0.8172,0.313 -1.148,0.4873 -0.3263,0.1741 -0.6032,0.339 -0.8224,0.487 -0.2188,0.1471 -0.384,0.2231 -0.4912,0.2231 -0.0629,0 -0.1208,-0.0179 -0.1698,-0.0533 -0.049,-0.0357 -0.0893,-0.0896 -0.121,-0.1698 -0.0312,-0.076 -0.0581,-0.1831 -0.0754,-0.3129 -0.0179,-0.1341 -0.027,-0.2903 -0.027,-0.4734 0,-0.1298 0.004,-0.2418 0.0134,-0.3399 0.009,-0.0938 0.0221,-0.1789 0.0448,-0.25 0.0221,-0.0672 0.049,-0.1341 0.085,-0.197 0.0351,-0.0581 0.1071,-0.1341 0.21,-0.2279 0.1072,-0.0893 0.2861,-0.2143 0.5451,-0.3705 0.2543,-0.161 0.5803,-0.313 0.9692,-0.4649 0.3844,-0.1562 0.8133,-0.2812 1.2824,-0.3889 0.4649,-0.1023 0.9561,-0.1562 1.4703,-0.1562 0.8221,0 1.5412,0.1159 2.1535,0.3481 0.6168,0.2282 1.1262,0.5451 1.533,0.9479 0.4062,0.4022 0.7103,0.8666 0.9113,1.3986 0.201,0.5318 0.2999,1.099 0.2999,1.7022 0,0.5412 -0.0499,1.081396 -0.1431,1.617496 -0.0987,0.536 -0.2996,1.1171 -0.6078,1.743 -0.3132,0.6253 -0.7594,1.3175 -1.3453,2.0818 -0.5811,0.7642 -1.3584,1.6443 -2.3275,2.6413 l -2.6813,2.8015 h 7.3732 c 0.0669,0 0.1338,0.0181 0.201,0.0581 0.0669,0.0399 0.125,0.0981 0.1692,0.174 0.0499,0.0808 0.085,0.1789 0.1077,0.2951 0.0221,0.1159 0.0312,0.2548 0.0312,0.411 z m 76.9946,0.6254 c 0,0.072 -0.0178,0.1337 -0.0538,0.1839 -0.0352,0.0527 -0.0938,0.0927 -0.1831,0.1247 -0.0893,0.0309 -0.2053,0.0584 -0.3484,0.0803 -0.1474,0.0221 -0.3218,0.0309 -0.5318,0.0309 -0.2322,0 -0.4153,-0.009 -0.5542,-0.0309 -0.1428,-0.0219 -0.2548,-0.0494 -0.3438,-0.0803 -0.0893,-0.032 -0.1474,-0.072 -0.1834,-0.1247 -0.0354,-0.0502 -0.0539,-0.1119 -0.0539,-0.1839 v -7.5158 h -7.6943 v 7.5158 c 0,0.072 -0.0179,0.1337 -0.0533,0.1839 -0.0357,0.0527 -0.0939,0.0927 -0.1837,0.1247 -0.0842,0.0309 -0.2013,0.0584 -0.3441,0.0803 -0.1472,0.0221 -0.326,0.0309 -0.5451,0.0309 -0.2098,0 -0.3884,-0.009 -0.5361,-0.0309 -0.1471,-0.0219 -0.2681,-0.0494 -0.3532,-0.0803 -0.0887,-0.032 -0.1471,-0.072 -0.1831,-0.1247 -0.036,-0.0502 -0.0533,-0.1119 -0.0533,-0.1839 v -16.264396 c 0,-0.072 0.0173,-0.1338 0.0533,-0.1831 0.036,-0.0542 0.0944,-0.0941 0.1831,-0.1253 0.0851,-0.0318 0.2061,-0.0587 0.3532,-0.0805 0.1477,-0.0224 0.3263,-0.0315 0.5361,-0.0315 0.2191,0 0.3979,0.009 0.5451,0.0315 0.1428,0.0218 0.2599,0.0487 0.3441,0.0805 0.0898,0.0312 0.148,0.0711 0.1837,0.1253 0.0354,0.0533 0.0533,0.1111 0.0533,0.1831 v 6.791496 h 7.6943 v -6.791496 c 0,-0.072 0.0185,-0.1298 0.0539,-0.1831 0.036,-0.0542 0.0941,-0.0941 0.1834,-0.1253 0.089,-0.0318 0.201,-0.0587 0.3438,-0.0805 0.1389,-0.0224 0.322,-0.0315 0.5542,-0.0315 0.21,0 0.3844,0.009 0.5318,0.0315 0.1431,0.0218 0.2591,0.0487 0.3484,0.0805 0.0893,0.0312 0.1479,0.0711 0.1831,0.1253 0.036,0.0493 0.0538,0.1111 0.0538,0.1831 z m 13.1372,0.0269 c 0,0.1029 -0.036,0.1828 -0.1029,0.2372 -0.0709,0.0536 -0.1647,0.0888 -0.29,0.1157 -0.121,0.0272 -0.2996,0.04 -0.536,0.04 -0.2239,0 -0.4071,-0.0128 -0.5409,-0.04 -0.1343,-0.0269 -0.2321,-0.0621 -0.295,-0.1157 -0.0624,-0.0544 -0.0942,-0.1304 -0.0942,-0.2372 v -1.1795 c -0.5133,0.5491 -1.0851,0.9785 -1.7203,1.2824 -0.6344,0.299 -1.3042,0.4513 -2.0106,0.4513 -0.6211,0 -1.1843,-0.0803 -1.6844,-0.2416 -0.5008,-0.1607 -0.9292,-0.3974 -1.2821,-0.7012 -0.3529,-0.3036 -0.6301,-0.6838 -0.8268,-1.126 -0.1965,-0.4467 -0.2951,-0.9518 -0.2951,-1.5191 0,-0.6661 0.1338,-1.2421 0.407,-1.7294 0.2676,-0.4918 0.6562,-0.898 1.1662,-1.22 0.5048,-0.3215 1.1259,-0.5672 1.8581,-0.7285 0.7333,-0.1607 1.5596,-0.241 2.4758,-0.241 h 1.6262 v -0.9201 c 0,-0.4518 -0.0493,-0.8538 -0.1431,-1.2073 -0.0978,-0.3483 -0.25,-0.6389 -0.4641,-0.871 -0.2148,-0.2322 -0.4921,-0.4062 -0.8314,-0.5233 -0.3395,-0.1202 -0.7599,-0.178 -1.2554,-0.178 -0.5318,0 -1.01,0.062 -1.4298,0.1922 -0.4244,0.1289 -0.7954,0.2678 -1.1123,0.424 -0.3178,0.1571 -0.5862,0.2951 -0.8003,0.4249 -0.2097,0.1293 -0.371,0.1919 -0.4739,0.1919 -0.0709,0 -0.1338,-0.0175 -0.1831,-0.0535 -0.0533,-0.0309 -0.0984,-0.0851 -0.1384,-0.1562 -0.0405,-0.0669 -0.0669,-0.1568 -0.0847,-0.2642 -0.0182,-0.1111 -0.0267,-0.2276 -0.0267,-0.362 0,-0.214 0.0128,-0.3878 0.0445,-0.5131 0.0315,-0.1253 0.1069,-0.246 0.2231,-0.358 0.1163,-0.1111 0.322,-0.2457 0.6083,-0.4019 0.2852,-0.1523 0.6211,-0.2951 0.9959,-0.424396 0.3713,-0.125 0.7823,-0.2327 1.2285,-0.3169 0.4431,-0.0853 0.894,-0.1259 1.3453,-0.1259 0.8442,0 1.5642,0.0939 2.1583,0.2861 0.5942,0.1921 1.0724,0.478196 1.4386,0.849196 0.3668,0.3705 0.6301,0.8311 0.7957,1.3811 0.1655,0.549 0.25,1.1925 0.25,1.9253 z m -2.145,-5.3975 h -1.845 c -0.5899,0 -1.1039,0.0494 -1.5415,0.1517 -0.4334,0.0983 -0.7954,0.2506 -1.0865,0.4467 -0.2849,0.197 -0.495,0.4289 -0.6339,0.7061 -0.1343,0.277 -0.2012,0.5945 -0.2012,0.9522 0,0.612 0.1922,1.0993 0.5811,1.4604 0.3883,0.362 0.9292,0.546 1.6305,0.546 0.5629,0 1.091,-0.1429 1.5732,-0.434 0.4827,-0.286 0.9918,-0.728 1.5233,-1.3224 z m 16.0597,5.3842 c 0,0.0714 -0.0176,0.1292 -0.0536,0.1788 -0.0357,0.0442 -0.0893,0.0893 -0.1695,0.1253 -0.0759,0.0309 -0.1879,0.0578 -0.326,0.076 -0.1389,0.0173 -0.3129,0.0261 -0.5232,0.0261 -0.2189,0 -0.398,-0.009 -0.5358,-0.0261 -0.1389,-0.0182 -0.25,-0.0451 -0.3353,-0.076 -0.0805,-0.036 -0.1389,-0.0811 -0.1749,-0.1253 -0.0349,-0.0496 -0.0533,-0.1074 -0.0533,-0.1788 v -10.2907 h -5.603 v 10.2907 c 0,0.0714 -0.0178,0.1292 -0.0538,0.1788 -0.036,0.0442 -0.0939,0.0893 -0.1789,0.1253 -0.0802,0.0309 -0.1922,0.0578 -0.3351,0.076 -0.138,0.0173 -0.3129,0.0261 -0.5224,0.0261 -0.2148,0 -0.3889,-0.009 -0.5278,-0.0261 -0.1429,-0.0182 -0.254,-0.0451 -0.335,-0.076 -0.0851,-0.036 -0.1429,-0.0811 -0.1741,-0.1253 -0.0312,-0.0496 -0.0451,-0.1074 -0.0451,-0.1788 v -11.3412 c 0,-0.263 0.0579,-0.4552 0.1792,-0.584996 0.1159,-0.1248 0.2818,-0.1877 0.4873,-0.1877 h 8.6283 c 0.205,0 0.3711,0.0629 0.4822,0.1877 0.112,0.129796 0.1698,0.321996 0.1698,0.584996 z m 14.9471,-6.0322 c 0,0.9604 -0.1253,1.8457 -0.3801,2.6538 -0.25,0.8051 -0.6299,1.5018 -1.1302,2.0875 -0.5009,0.585 -1.1302,1.0408 -1.8811,1.3668 -0.7554,0.326 -1.6316,0.4916 -2.6229,0.4916 -0.97,0 -1.8141,-0.1432 -2.5341,-0.4332 -0.7195,-0.286 -1.3179,-0.7064 -1.7958,-1.2554 -0.4782,-0.55 -0.8362,-1.2204 -1.0729,-2.0022 -0.2364,-0.7863 -0.3529,-1.6758 -0.3529,-2.6719 0,-0.9609 0.1256,-1.8462 0.3708,-2.6504 0.2503,-0.8081 0.6258,-1.5052 1.1264,-2.0905 0.5001,-0.586 1.126,-1.0367 1.876,-1.363196 0.7515,-0.322 1.6274,-0.4828 2.628,-0.4828 0.9697,0 1.8142,0.1432 2.533,0.434 0.72,0.285996 1.3182,0.705896 1.7964,1.255496 0.4782,0.5496 0.8402,1.2149 1.0814,2.0021 0.237,0.7861 0.358,1.6702 0.358,2.6583 z m -2.2521,0.1381 c 0,-0.6389 -0.0584,-1.2422 -0.1792,-1.8091 -0.1159,-0.5675 -0.3121,-1.0633 -0.5853,-1.4927 -0.2679,-0.4289 -0.639,-0.7688 -1.1036,-1.014 -0.4597,-0.2511 -1.0408,-0.3758 -1.7339,-0.3758 -0.6384,0 -1.1883,0.1122 -1.6484,0.3398 -0.4603,0.2282 -0.8359,0.5491 -1.1352,0.9652 -0.2991,0.4153 -0.5182,0.9071 -0.6611,1.4746 -0.1471,0.5678 -0.2191,1.1889 -0.2191,1.8593 0,0.6468 0.0578,1.2551 0.1792,1.8221 0.1159,0.568 0.3123,1.0641 0.589,1.4882 0.2775,0.4203 0.648,0.7599 1.1083,1.0054 0.4649,0.25 1.046,0.3756 1.7382,0.3756 0.6302,0 1.1753,-0.1114 1.6402,-0.3396 0.4646,-0.2282 0.8441,-0.5451 1.1443,-0.9564 0.2991,-0.411 0.5182,-0.9028 0.6562,-1.4703 0.1389,-0.567 0.2104,-1.1929 0.2104,-1.8723 z m 14.6335,5.8941 c 0,0.0714 -0.0181,0.1292 -0.0541,0.1788 -0.0351,0.0442 -0.0887,0.0893 -0.1689,0.1253 -0.076,0.0309 -0.188,0.0578 -0.3269,0.076 -0.138,0.0173 -0.3124,0.0261 -0.5224,0.0261 -0.2188,0 -0.398,-0.009 -0.536,-0.0261 -0.1386,-0.0182 -0.2503,-0.0451 -0.3351,-0.076 -0.0811,-0.036 -0.1389,-0.0811 -0.1749,-0.1253 -0.0349,-0.0496 -0.0533,-0.1074 -0.0533,-0.1788 v -10.2907 h -3.2442 c -0.1384,1.3853 -0.3084,2.6184 -0.5046,3.6998 -0.1967,1.0812 -0.4158,2.0242 -0.6616,2.8282 -0.2455,0.8002 -0.5224,1.4796 -0.8266,2.0287 -0.3036,0.5499 -0.6386,0.9921 -1.0009,1.3272 -0.3665,0.3353 -0.7594,0.5771 -1.1843,0.7242 -0.4198,0.1472 -0.8751,0.2231 -1.3533,0.2231 -0.081,0 -0.1479,-0.0133 -0.2058,-0.0402 -0.0541,-0.0267 -0.1034,-0.0709 -0.1383,-0.1429 -0.032,-0.0669 -0.0578,-0.1653 -0.0763,-0.2951 -0.0175,-0.1253 -0.0266,-0.286 -0.0266,-0.4873 0,-0.2097 0.004,-0.3792 0.0176,-0.5091 0.0133,-0.1292 0.0357,-0.2366 0.0674,-0.3126 0.0309,-0.0802 0.0712,-0.1293 0.1163,-0.1562 0.0487,-0.0269 0.1068,-0.0403 0.1788,-0.0403 0.29,0 0.5624,-0.0669 0.826,-0.2012 0.2591,-0.1389 0.5049,-0.362 0.7331,-0.6701 0.2282,-0.3087 0.4422,-0.7149 0.6434,-1.215 0.1968,-0.5054 0.3799,-1.1219 0.5497,-1.8547 0.1652,-0.733 0.3214,-1.5911 0.4694,-2.5741 0.1471,-0.9785 0.29,-2.1087 0.4198,-3.3829 0.0173,-0.263 0.0802,-0.4552 0.1922,-0.584996 0.1072,-0.1248 0.2633,-0.1877 0.464,-0.1877 h 6.0503 c 0.2058,0 0.3711,0.0629 0.4873,0.1928 0.1207,0.124696 0.1788,0.316896 0.1788,0.579896 z m 14.3252,0 c 0,0.0714 -0.0184,0.1292 -0.0533,0.1788 -0.036,0.0442 -0.0898,0.0893 -0.1701,0.1253 -0.0799,0.0309 -0.1879,0.0578 -0.3308,0.076 -0.138,0.0173 -0.3123,0.0261 -0.5224,0.0261 -0.2239,0 -0.4019,-0.009 -0.5408,-0.0261 -0.1432,-0.0182 -0.2501,-0.0451 -0.3311,-0.076 -0.0802,-0.036 -0.1338,-0.0811 -0.169,-0.1253 -0.036,-0.0496 -0.0541,-0.1074 -0.0541,-0.1788 v -5.1696 h -5.9786 v 5.1696 c 0,0.0714 -0.0175,0.1292 -0.0535,0.1788 -0.036,0.0442 -0.0893,0.0893 -0.1698,0.1253 -0.0803,0.0309 -0.1877,0.0578 -0.3308,0.076 -0.1387,0.0173 -0.3178,0.0261 -0.5358,0.0261 -0.2149,0 -0.3889,-0.009 -0.5278,-0.0261 -0.1429,-0.0182 -0.2545,-0.0451 -0.3351,-0.076 -0.0853,-0.036 -0.1431,-0.0811 -0.174,-0.1253 -0.0315,-0.0496 -0.0451,-0.1074 -0.0451,-0.1788 v -11.7873 c 0,-0.072 0.0136,-0.129896 0.0451,-0.178896 0.0309,-0.0448 0.0887,-0.0893 0.174,-0.1298 0.0806,-0.04 0.1922,-0.0669 0.3351,-0.0803 0.1389,-0.013 0.3129,-0.0181 0.5278,-0.0181 0.218,0 0.3971,0.005 0.5358,0.0181 0.1431,0.0134 0.2505,0.0403 0.3308,0.0803 0.0805,0.0405 0.1338,0.085 0.1698,0.1298 0.036,0.049 0.0535,0.106896 0.0535,0.178896 v 4.7945 h 5.9786 v -4.7945 c 0,-0.072 0.0181,-0.129896 0.0541,-0.178896 0.0352,-0.0448 0.0888,-0.0893 0.169,-0.1298 0.081,-0.04 0.1879,-0.0669 0.3311,-0.0803 0.1389,-0.013 0.3169,-0.0181 0.5408,-0.0181 0.2101,0 0.3844,0.005 0.5224,0.0181 0.1429,0.0134 0.2509,0.0403 0.3308,0.0803 0.0803,0.0405 0.1341,0.085 0.1701,0.1298 0.0349,0.049 0.0533,0.106896 0.0533,0.178896 z m 14.0394,-6.4078 c 0,0.3396 -0.0844,0.5811 -0.2542,0.7285 -0.1698,0.1432 -0.3668,0.2146 -0.5851,0.2146 h -7.7397 c 0,0.6571 0.0675,1.2467 0.1964,1.7691 0.1301,0.5273 0.3493,0.9788 0.6571,1.3541 0.3042,0.3753 0.7021,0.6611 1.1883,0.8623 0.4918,0.201 1.091,0.3039 1.7966,0.3039 0.5587,0 1.059,-0.0448 1.493,-0.1389 0.4371,-0.0887 0.8172,-0.1916 1.1341,-0.3033 0.3181,-0.1114 0.5811,-0.2143 0.7869,-0.3036 0.2055,-0.0944 0.3575,-0.1389 0.4646,-0.1389 0.0627,0 0.116,0.0136 0.1656,0.0445 0.0442,0.0315 0.0844,0.076 0.1071,0.1389 0.0269,0.0584 0.0491,0.1426 0.0624,0.2506 0.0136,0.1111 0.0178,0.2407 0.0178,0.3969 0,0.1122 -0.004,0.21 -0.0133,0.295 -0.008,0.0811 -0.0178,0.1568 -0.0314,0.2192 -0.0131,0.0669 -0.0355,0.1253 -0.0672,0.1788 -0.0312,0.0494 -0.0672,0.0981 -0.1162,0.1471 -0.0488,0.0494 -0.1917,0.1253 -0.4241,0.2328 -0.2373,0.1117 -0.5409,0.2146 -0.9162,0.3214 -0.375,0.1029 -0.809,0.1967 -1.3005,0.277 -0.4907,0.085 -1.014,0.1253 -1.5727,0.1253 -0.9694,0 -1.8136,-0.1341 -2.5426,-0.4062 -0.7283,-0.2682 -1.3403,-0.6704 -1.8366,-1.2022 -0.4958,-0.5366 -0.8711,-1.2022 -1.1211,-2.0064 -0.2548,-0.7999 -0.3801,-1.7334 -0.3801,-2.8017 0,-1.01 0.1298,-1.9211 0.3928,-2.7304 0.2591,-0.8042 0.6395,-1.4921 1.1314,-2.0554 0.4912,-0.5632 1.0904,-0.9921 1.7872,-1.295396 0.697,-0.2996 1.4785,-0.4519 2.3414,-0.4519 0.9247,0 1.7116,0.1477 2.3587,0.4468 0.6528,0.295096 1.1843,0.696996 1.6047,1.197596 0.4156,0.5009 0.724,1.0911 0.9207,1.77 0.1962,0.6743 0.2942,1.3983 0.2942,2.1665 z m -2.1713,-0.6383 c 0.0269,-1.1353 -0.2231,-2.0296 -0.7554,-2.6768 -0.5312,-0.6477 -1.313,-0.9697 -2.3545,-0.9697 -0.536,0 -1.0052,0.0978 -1.4071,0.299 -0.402,0.2019 -0.7381,0.4695 -1.0106,0.8048 -0.2726,0.33 -0.4824,0.7194 -0.6295,1.1574 -0.1471,0.4422 -0.2322,0.902 -0.2506,1.3853 z m 15.804,7.0461 c 0,0.0714 -0.0176,0.1292 -0.0533,0.1788 -0.036,0.0442 -0.0896,0.0893 -0.1698,0.1253 -0.0802,0.0309 -0.1879,0.0578 -0.3311,0.076 -0.1377,0.0173 -0.3118,0.0261 -0.5221,0.0261 -0.2237,0 -0.4022,-0.009 -0.5411,-0.0261 -0.1429,-0.0182 -0.2501,-0.0451 -0.3306,-0.076 -0.0802,-0.036 -0.1343,-0.0811 -0.1692,-0.1253 -0.036,-0.0496 -0.0544,-0.1074 -0.0544,-0.1788 v -5.1696 h -5.9783 v 5.1696 c 0,0.0714 -0.0178,0.1292 -0.0536,0.1788 -0.036,0.0442 -0.0893,0.0893 -0.17,0.1253 -0.08,0.0309 -0.1871,0.0578 -0.33,0.076 -0.1389,0.0173 -0.3178,0.0261 -0.5366,0.0261 -0.2149,0 -0.3886,-0.009 -0.5275,-0.0261 -0.1432,-0.0182 -0.2543,-0.0451 -0.3354,-0.076 -0.0844,-0.036 -0.1428,-0.0811 -0.1737,-0.1253 -0.0312,-0.0496 -0.0451,-0.1074 -0.0451,-0.1788 v -11.7873 c 0,-0.072 0.0139,-0.129896 0.0451,-0.178896 0.0309,-0.0448 0.0893,-0.0893 0.1737,-0.1298 0.0811,-0.04 0.1922,-0.0669 0.3354,-0.0803 0.1389,-0.013 0.3126,-0.0181 0.5275,-0.0181 0.2188,0 0.3977,0.005 0.5366,0.0181 0.1429,0.0134 0.25,0.0403 0.33,0.0803 0.0807,0.0405 0.134,0.085 0.17,0.1298 0.0358,0.049 0.0536,0.106896 0.0536,0.178896 v 4.7945 h 5.9783 v -4.7945 c 0,-0.072 0.0184,-0.129896 0.0544,-0.178896 0.0349,-0.0448 0.089,-0.0893 0.1692,-0.1298 0.0805,-0.04 0.1877,-0.0669 0.3306,-0.0803 0.1389,-0.013 0.3174,-0.0181 0.5411,-0.0181 0.2103,0 0.3844,0.005 0.5221,0.0181 0.1432,0.0134 0.2509,0.0403 0.3311,0.0803 0.0802,0.0405 0.1338,0.085 0.1698,0.1298 0.0357,0.049 0.0533,0.106896 0.0533,0.178896 z m 14.3351,0 c 0,0.0714 -0.0182,0.1292 -0.0533,0.1788 -0.036,0.0442 -0.0901,0.0893 -0.1704,0.1253 -0.0802,0.0309 -0.1876,0.0578 -0.3305,0.076 -0.1383,0.0173 -0.3124,0.0261 -0.5224,0.0261 -0.2239,0 -0.402,-0.009 -0.5409,-0.0261 -0.1428,-0.0182 -0.2505,-0.0451 -0.331,-0.076 -0.0803,-0.036 -0.1338,-0.0811 -0.1693,-0.1253 -0.036,-0.0496 -0.0538,-0.1074 -0.0538,-0.1788 v -5.1696 h -5.9783 v 5.1696 c 0,0.0714 -0.0181,0.1292 -0.0541,0.1788 -0.0358,0.0442 -0.089,0.0893 -0.1701,0.1253 -0.08,0.0309 -0.1871,0.0578 -0.33,0.076 -0.1389,0.0173 -0.3177,0.0261 -0.536,0.0261 -0.2149,0 -0.3892,-0.009 -0.5281,-0.0261 -0.1431,-0.0182 -0.2543,-0.0451 -0.3348,-0.076 -0.085,-0.036 -0.1434,-0.0811 -0.1743,-0.1253 -0.0309,-0.0496 -0.0448,-0.1074 -0.0448,-0.1788 v -11.7873 c 0,-0.072 0.0139,-0.129896 0.0448,-0.178896 0.0309,-0.0448 0.0893,-0.0893 0.1743,-0.1298 0.0805,-0.04 0.1917,-0.0669 0.3348,-0.0803 0.1389,-0.013 0.3132,-0.0181 0.5281,-0.0181 0.2183,0 0.3971,0.005 0.536,0.0181 0.1429,0.0134 0.25,0.0403 0.33,0.0803 0.0811,0.0405 0.1343,0.085 0.1701,0.1298 0.036,0.049 0.0541,0.106896 0.0541,0.178896 v 4.7945 h 5.9783 v -4.7945 c 0,-0.072 0.0178,-0.129896 0.0538,-0.178896 0.0355,-0.0448 0.089,-0.0893 0.1693,-0.1298 0.0805,-0.04 0.1882,-0.0669 0.331,-0.0803 0.1389,-0.013 0.317,-0.0181 0.5409,-0.0181 0.21,0 0.3841,0.005 0.5224,0.0181 0.1429,0.0134 0.2503,0.0403 0.3305,0.0803 0.0803,0.0405 0.1344,0.085 0.1704,0.1298 0.0351,0.049 0.0533,0.106896 0.0533,0.178896 z m 12.8869,0.0133 c 0,0.1029 -0.036,0.1828 -0.1029,0.2372 -0.0709,0.0536 -0.1647,0.0888 -0.29,0.1157 -0.1211,0.0272 -0.3002,0.04 -0.5363,0.04 -0.2237,0 -0.4068,-0.0128 -0.5412,-0.04 -0.1338,-0.0269 -0.2316,-0.0621 -0.2945,-0.1157 -0.0624,-0.0544 -0.0944,-0.1304 -0.0944,-0.2372 v -1.1795 c -0.5131,0.5491 -1.0851,0.9785 -1.7203,1.2824 -0.6341,0.299 -1.304,0.4513 -2.0104,0.4513 -0.621,0 -1.1843,-0.0803 -1.6843,-0.2416 -0.5009,-0.1607 -0.9292,-0.3974 -1.2821,-0.7012 -0.3535,-0.3036 -0.6304,-0.6838 -0.8272,-1.126 -0.1961,-0.4467 -0.2951,-0.9518 -0.2951,-1.5191 0,-0.6661 0.1341,-1.2421 0.4068,-1.7294 0.2682,-0.4918 0.6565,-0.898 1.1668,-1.22 0.5048,-0.3215 1.1259,-0.5672 1.8581,-0.7285 0.733,-0.1607 1.5596,-0.241 2.4755,-0.241 h 1.6265 v -0.9201 c 0,-0.4518 -0.0493,-0.8538 -0.1432,-1.2073 -0.0978,-0.3483 -0.25,-0.6389 -0.4643,-0.871 -0.2146,-0.2322 -0.4918,-0.4062 -0.8311,-0.5233 -0.3396,-0.1202 -0.76,-0.178 -1.2555,-0.178 -0.5317,0 -1.01,0.062 -1.4298,0.1922 -0.4243,0.1289 -0.7954,0.2678 -1.1123,0.424 -0.318,0.1571 -0.5862,0.2951 -0.8002,0.4249 -0.2103,0.1293 -0.3711,0.1919 -0.4739,0.1919 -0.0712,0 -0.1338,-0.0175 -0.1832,-0.0535 -0.0533,-0.0309 -0.0983,-0.0851 -0.1383,-0.1562 -0.0405,-0.0669 -0.0669,-0.1568 -0.0848,-0.2642 -0.0181,-0.1111 -0.0269,-0.2276 -0.0269,-0.362 0,-0.214 0.0128,-0.3878 0.0448,-0.5131 0.0309,-0.1253 0.1069,-0.246 0.2231,-0.358 0.1162,-0.1111 0.322,-0.2457 0.6077,-0.4019 0.2858,-0.1523 0.6214,-0.2951 0.9964,-0.424396 0.3711,-0.125 0.7824,-0.2327 1.2286,-0.3169 0.443,-0.0853 0.894,-0.1259 1.3453,-0.1259 0.8441,0 1.5638,0.0939 2.1583,0.2861 0.5941,0.1921 1.0723,0.478196 1.4383,0.849196 0.3671,0.3705 0.6304,0.8311 0.7959,1.3811 0.1653,0.549 0.2501,1.1925 0.2501,1.9253 z m -2.145,-5.3975 h -1.8457 c -0.5893,0 -1.1032,0.0494 -1.5414,0.1517 -0.4329,0.0983 -0.7952,0.2506 -1.086,0.4467 -0.2852,0.197 -0.4955,0.4289 -0.6344,0.7061 -0.1338,0.277 -0.2007,0.5945 -0.2007,0.9522 0,0.612 0.1922,1.0993 0.5811,1.4604 0.3884,0.362 0.9292,0.546 1.6305,0.546 0.563,0 1.0905,-0.1429 1.5732,-0.434 0.4828,-0.286 0.9919,-0.728 1.5234,-1.3224 z m 14.7997,5.3842 c 0,0.0714 -0.0131,0.1292 -0.0445,0.1831 -0.0315,0.0541 -0.0848,0.0941 -0.1659,0.1253 -0.0802,0.0309 -0.1871,0.0535 -0.3299,0.0717 -0.1389,0.0173 -0.322,0.0261 -0.5502,0.0261 -0.214,0 -0.3889,-0.009 -0.527,-0.0261 -0.1428,-0.0182 -0.2548,-0.0408 -0.335,-0.0717 -0.0851,-0.0312 -0.1429,-0.0712 -0.1744,-0.1253 -0.0314,-0.0488 -0.0448,-0.1117 -0.0448,-0.1831 v -4.9556 h -1.2421 c -0.5408,0 -0.9604,0.0451 -1.2645,0.1299 -0.2997,0.089 -0.5718,0.2321 -0.809,0.4379 -0.241,0.2052 -0.4559,0.4689 -0.648,0.7863 -0.1922,0.317 -0.3753,0.7059 -0.5491,1.1713 l -0.9564,2.3003 c -0.0451,0.112 -0.0896,0.2058 -0.1429,0.2727 -0.0538,0.0717 -0.1298,0.1253 -0.2282,0.1656 -0.0978,0.0399 -0.2276,0.0669 -0.3798,0.0808 -0.152,0.0127 -0.3393,0.017 -0.5672,0.017 -0.1608,0 -0.3084,-0.004 -0.4332,-0.0128 -0.1255,-0.009 -0.233,-0.0224 -0.322,-0.0451 -0.085,-0.0224 -0.1519,-0.0578 -0.1922,-0.1071 -0.045,-0.0451 -0.0669,-0.1069 -0.0669,-0.1738 0,-0.0635 0.0219,-0.1613 0.0712,-0.2951 0.049,-0.1343 0.148,-0.371 0.2951,-0.7103 l 0.9431,-2.2122 c 0.2452,-0.5581 0.5448,-1.0414 0.9022,-1.4434 0.3575,-0.4062 0.7688,-0.7064 1.2334,-0.898 -0.8493,-0.1562 -1.5197,-0.4963 -2.0245,-1.0145 -0.5001,-0.5227 -0.7501,-1.2113 -0.7501,-2.0687 0,-0.5678 0.1157,-1.0809 0.3529,-1.5418 0.2367,-0.4604 0.5811,-0.8484 1.0409,-1.1662 0.4553,-0.3214 1.0185,-0.5675 1.6889,-0.737296 0.6659,-0.1692 1.4298,-0.2545 2.2972,-0.2545 0.2049,0 0.451,0.004 0.7231,0.0133 0.2775,0.009 0.5593,0.0224 0.8493,0.04 0.2951,0.0181 0.5768,0.036 0.8538,0.0584 0.2724,0.0226 0.5091,0.0405 0.7103,0.0578 0.2634,0.0269 0.4601,0.121 0.5902,0.290796 0.129,0.1653 0.1962,0.3714 0.1962,0.612 z m -2.1717,-10.5319 c -0.3132,-0.0451 -0.6341,-0.076 -0.9652,-0.0893 -0.3259,-0.0136 -0.6301,-0.0178 -0.911,-0.0178 -0.5902,0 -1.0817,0.0493 -1.4752,0.1522 -0.3974,0.0978 -0.7103,0.2449 -0.9515,0.4331 -0.2367,0.188 -0.4065,0.411 -0.5049,0.6662 -0.1029,0.25 -0.1522,0.5309 -0.1522,0.8402 0,0.3118 0.0584,0.5981 0.1743,0.8481 0.1208,0.2508 0.2951,0.4609 0.536,0.6301 0.2367,0.1701 0.5451,0.3039 0.9162,0.3932 0.3756,0.0938 0.8938,0.1389 1.5642,0.1389 h 1.7693 z m 23.6776,3.4356 c 0,0.3362 -0.04,0.5769 -0.1248,0.733 -0.0802,0.1523 -0.2052,0.2282 -0.371,0.2282 H 111.928 c -0.1652,0 -0.2857,-0.0759 -0.3668,-0.2282 -0.0754,-0.1561 -0.1156,-0.3968 -0.1156,-0.733 0,-0.3209 0.0402,-0.5581 0.1156,-0.714 0.0811,-0.152 0.2016,-0.2282 0.3668,-0.2282 h 12.5873 c 0.0759,0 0.1474,0.0178 0.2148,0.0578 0.0669,0.0403 0.1163,0.0984 0.1562,0.1704 0.0403,0.0756 0.0715,0.174 0.0939,0.2902 0.0218,0.116 0.0309,0.2591 0.0309,0.4238 z m 16.4619,5.2821 c 0,0.1471 -0.005,0.2769 -0.0136,0.3844 -0.009,0.1116 -0.0224,0.2007 -0.0442,0.2769 -0.0227,0.076 -0.0491,0.1389 -0.0811,0.1967 -0.0309,0.0581 -0.0978,0.1435 -0.2098,0.2503 -0.1071,0.1117 -0.2951,0.2461 -0.5542,0.4108 -0.2633,0.1613 -0.5581,0.3084 -0.8844,0.4334 -0.3311,0.1298 -0.6837,0.2327 -1.0681,0.3087 -0.3838,0.0802 -0.7818,0.1205 -1.1931,0.1205 -0.8492,0 -1.5993,-0.1381 -2.2518,-0.4201 -0.6571,-0.2773 -1.2064,-0.6835 -1.6441,-1.2192 -0.4428,-0.5366 -0.7778,-1.1982 -1.01,-1.9755 -0.2321,-0.7823 -0.3489,-1.6804 -0.3489,-2.7034 0,-1.1574 0.1431,-2.1537 0.4249,-2.99 0.286,-0.8308 0.6743,-1.5142 1.1662,-2.0463 0.4957,-0.5312 1.0768,-0.9244 1.7421,-1.183696 0.6704,-0.2546 1.3944,-0.3844 2.1717,-0.3844 0.3761,0 0.7381,0.036 1.0904,0.1068 0.3575,0.0672 0.6801,0.1613 0.9786,0.273 0.295,0.115996 0.5632,0.246296 0.7914,0.397996 0.2324,0.1474 0.4022,0.2772 0.5043,0.3793 0.1077,0.1077 0.1788,0.1922 0.2188,0.2503 0.036,0.0629 0.072,0.1349 0.0989,0.2191 0.0222,0.0805 0.04,0.1749 0.0491,0.2818 0.009,0.1029 0.0133,0.2369 0.0133,0.3931 0,0.3402 -0.0402,0.576 -0.1162,0.7149 -0.0802,0.1344 -0.1738,0.2013 -0.29,0.2013 -0.1301,0 -0.2818,-0.072 -0.4521,-0.2191 -0.169,-0.1429 -0.3838,-0.3042 -0.6472,-0.4782 -0.2642,-0.1738 -0.5811,-0.3351 -0.9521,-0.478 -0.3711,-0.1482 -0.809,-0.2191 -1.3133,-0.2191 -1.0412,0 -1.8414,0.398 -2.3956,1.1971 -0.5542,0.7954 -0.8308,1.9533 -0.8308,3.4679 0,0.7551 0.0717,1.4213 0.214,1.993 0.148,0.5675 0.3577,1.0457 0.6392,1.4295 0.277,0.3802 0.6211,0.6662 1.0276,0.8533 0.4067,0.1882 0.8716,0.282 1.3943,0.282 0.5006,0 0.9386,-0.0808 1.3139,-0.237 0.375,-0.1561 0.697,-0.3305 0.974,-0.5229 0.2766,-0.1874 0.5091,-0.3572 0.697,-0.5092 0.1882,-0.1561 0.3311,-0.2324 0.438,-0.2324 0.0578,0 0.1122,0.0184 0.1562,0.0533 0.0447,0.036 0.0807,0.0938 0.1122,0.1749 0.0309,0.0848 0.0527,0.1871 0.0669,0.3169 0.013,0.1253 0.0176,0.2775 0.0176,0.4513 z m 13.3469,1.8275 c 0,0.0626 -0.0181,0.121 -0.0533,0.1698 -0.036,0.0541 -0.0896,0.0941 -0.1698,0.1253 -0.0759,0.0309 -0.1879,0.0535 -0.326,0.0717 -0.1389,0.0173 -0.3132,0.0261 -0.5232,0.0261 -0.2098,0 -0.3844,-0.009 -0.5233,-0.0261 -0.1378,-0.0182 -0.254,-0.0408 -0.3388,-0.0717 -0.0901,-0.0312 -0.1479,-0.0712 -0.1834,-0.1253 -0.0354,-0.0539 -0.0538,-0.1072 -0.0538,-0.1698 v -6.7828 c 0,-0.3435 0.009,-0.6879 0.0269,-1.0457 0.0182,-0.3529 0.04,-0.6973 0.0669,-1.0414 -0.2007,0.3532 -0.4249,0.6931 -0.661,1.0321 -0.2418,0.3353 -0.4828,0.6704 -0.724,1.0015 l -4.9907,6.8363 c -0.0635,0.0717 -0.117,0.1295 -0.1664,0.1828 -0.0487,0.0544 -0.1111,0.0944 -0.1828,0.1259 -0.0763,0.0314 -0.1701,0.0533 -0.286,0.0672 -0.1111,0.0127 -0.2543,0.017 -0.4198,0.017 -0.1922,0 -0.3535,-0.009 -0.4737,-0.0261 -0.1247,-0.0182 -0.2237,-0.0408 -0.2951,-0.0717 -0.0757,-0.0312 -0.1298,-0.0712 -0.1607,-0.1253 -0.0309,-0.0539 -0.0451,-0.1072 -0.0451,-0.1698 v -11.8143 c 0,-0.0623 0.0142,-0.116196 0.0451,-0.169696 0.0309,-0.0533 0.0893,-0.0984 0.174,-0.1296 0.0811,-0.0357 0.1922,-0.0626 0.3351,-0.076 0.1389,-0.013 0.3087,-0.0181 0.5142,-0.0181 0.4201,0 0.7104,0.0315 0.8668,0.0984 0.1562,0.0669 0.2373,0.1658 0.2373,0.294996 v 6.823 c 0,0.3402 -0.009,0.6795 -0.0272,1.0146 -0.0179,0.3395 -0.0403,0.6704 -0.0669,1.0048 0.2012,-0.3344 0.4059,-0.6559 0.6123,-0.9779 0.2009,-0.3175 0.424,-0.6302 0.6568,-0.934 l 5.0578,-6.9305 c 0.0493,-0.0711 0.1026,-0.129196 0.1613,-0.178496 0.0578,-0.0496 0.1253,-0.0896 0.2098,-0.1165 0.0802,-0.0309 0.1785,-0.0494 0.2948,-0.0624 0.1114,-0.0136 0.2593,-0.0227 0.4425,-0.0227 0.1831,0 0.3393,0.009 0.4646,0.0227 0.1298,0.013 0.2276,0.036 0.3035,0.0714 0.072,0.036 0.1253,0.076 0.1562,0.1299 0.0321,0.0532 0.0451,0.111896 0.0451,0.183096 z m 162.8756,-1.5503 c 0,0.2679 -0.013,0.5179 -0.0399,0.7418 -0.027,0.2274 -0.0669,0.4422 -0.125,0.6432 -0.0539,0.2013 -0.1341,0.398 -0.237,0.5942 -0.0981,0.197 -0.2231,0.4022 -0.3711,0.6213 l -1.7824,2.6632 c -0.0451,0.0714 -0.0941,0.1253 -0.1522,0.17 -0.0579,0.0443 -0.125,0.0803 -0.201,0.1112 -0.0808,0.0311 -0.174,0.0541 -0.286,0.072 -0.1072,0.0178 -0.241,0.0269 -0.398,0.0269 -0.1471,0 -0.2721,-0.005 -0.375,-0.0179 -0.0981,-0.0139 -0.1701,-0.0408 -0.2143,-0.072 -0.0448,-0.036 -0.0669,-0.0802 -0.0717,-0.125 -0.004,-0.049 0.009,-0.1119 0.0447,-0.1922 l 1.7156,-3.5657 v -1.671 c 0,-0.2372 0.0269,-0.4243 0.0808,-0.5632 0.049,-0.1381 0.1292,-0.2413 0.2282,-0.313 0.102,-0.0711 0.227,-0.1159 0.388,-0.1431 0.1571,-0.0261 0.3441,-0.04 0.5633,-0.04 0.21,0 0.3931,0.0139 0.5499,0.04 0.1601,0.0272 0.286,0.072 0.3883,0.1431 0.0987,0.0717 0.1746,0.1749 0.2237,0.313 0.049,0.1389 0.0711,0.326 0.0711,0.5632 z m 0,-8.6148 c 0,0.281 -0.0178,0.5182 -0.0578,0.7101 -0.0403,0.1922 -0.1162,0.349 -0.2234,0.4649 -0.1117,0.1202 -0.2548,0.2013 -0.4289,0.2503 -0.174,0.049 -0.3979,0.0712 -0.6701,0.0712 -0.282,0 -0.5099,-0.0222 -0.684,-0.0712 -0.1743,-0.049 -0.3172,-0.1301 -0.4201,-0.2503 -0.1071,-0.1159 -0.1783,-0.2727 -0.2191,-0.4649 -0.0399,-0.1919 -0.0581,-0.4291 -0.0581,-0.7101 0,-0.295 0.0182,-0.5411 0.0581,-0.7372 0.0408,-0.1971 0.112,-0.3581 0.2191,-0.474 0.1029,-0.121 0.2458,-0.201 0.4201,-0.25 0.1741,-0.0491 0.402,-0.072 0.684,-0.072 0.2722,0 0.4961,0.0229 0.6701,0.072 0.1741,0.049 0.3172,0.129 0.4289,0.25 0.1072,0.1159 0.1831,0.2769 0.2234,0.474 0.04,0.1961 0.0578,0.4422 0.0578,0.7372 z m -9.3878,-0.3801 c -0.3129,-0.0448 -0.6341,-0.076 -0.9651,-0.089 -0.326,-0.0139 -0.6302,-0.0181 -0.9114,-0.0181 -0.5899,0 -1.0811,0.049 -1.4749,0.1519 -0.3974,0.0984 -0.7103,0.2455 -0.9515,0.4334 -0.237,0.188 -0.4068,0.411 -0.5049,0.6659 -0.1029,0.25 -0.1522,0.5312 -0.1522,0.8402 0,0.3123 0.0581,0.5984 0.1743,0.8484 0.1208,0.2508 0.2948,0.4609 0.536,0.6301 0.237,0.1698 0.5452,0.3039 0.9162,0.3932 0.3759,0.0938 0.8941,0.1389 1.5642,0.1389 h 1.7693 z m 2.1717,10.5321 c 0,0.0712 -0.0134,0.129 -0.0442,0.1829 -0.0321,0.0541 -0.0851,0.0941 -0.1659,0.1253 -0.0802,0.0309 -0.1873,0.0538 -0.3302,0.0717 -0.1389,0.0173 -0.322,0.0263 -0.5502,0.0263 -0.214,0 -0.3889,-0.009 -0.527,-0.0263 -0.1431,-0.0179 -0.2551,-0.0408 -0.335,-0.0717 -0.0851,-0.0312 -0.1432,-0.0712 -0.1744,-0.1253 -0.0317,-0.0491 -0.0448,-0.1117 -0.0448,-0.1829 v -4.9558 h -1.2421 c -0.5411,0 -0.9604,0.0448 -1.2645,0.1299 -0.2997,0.089 -0.5721,0.2321 -0.809,0.4379 -0.241,0.2052 -0.4558,0.4691 -0.648,0.7863 -0.1919,0.3172 -0.3751,0.7062 -0.5494,1.171 l -0.9561,2.3006 c -0.0448,0.112 -0.0899,0.2061 -0.1429,0.273 -0.0538,0.0712 -0.1301,0.125 -0.2282,0.1653 -0.0981,0.0399 -0.2279,0.0669 -0.3798,0.0808 -0.152,0.013 -0.3393,0.0172 -0.5672,0.0172 -0.161,0 -0.3082,-0.004 -0.4332,-0.0133 -0.1258,-0.009 -0.233,-0.0221 -0.322,-0.0448 -0.085,-0.0221 -0.1519,-0.0581 -0.1922,-0.1071 -0.0448,-0.0448 -0.0669,-0.1072 -0.0669,-0.1741 0,-0.0629 0.0221,-0.161 0.0712,-0.295 0.049,-0.1341 0.1477,-0.3711 0.2951,-0.7101 l 0.9428,-2.2125 c 0.2455,-0.5581 0.5454,-1.0411 0.9025,-1.4431 0.3578,-0.4062 0.7688,-0.7061 1.2331,-0.8983 -0.849,-0.1562 -1.5191,-0.496 -2.0242,-1.0142 -0.5003,-0.523 -0.7504,-1.211 -0.7504,-2.0685 0,-0.568 0.116,-1.0811 0.353,-1.542 0.2369,-0.4601 0.5811,-0.8484 1.0411,-1.1662 0.4556,-0.3214 1.0185,-0.5672 1.6886,-0.737296 0.6662,-0.1692 1.4304,-0.2542 2.2972,-0.2542 0.2052,0 0.4513,0.004 0.7234,0.013 0.2773,0.009 0.559,0.0221 0.8493,0.0403 0.2948,0.0178 0.5768,0.0357 0.8538,0.0578 0.2724,0.0229 0.5094,0.0408 0.7103,0.0581 0.2631,0.0269 0.4601,0.121 0.5899,0.290796 0.1293,0.1653 0.1965,0.3711 0.1965,0.6123 z m -14.7997,-5.3844 h -1.8454 c -0.5896,0 -1.1035,0.0494 -1.5414,0.1514 -0.4332,0.0989 -0.7955,0.2509 -1.0863,0.447 -0.2852,0.197 -0.4952,0.4292 -0.6341,0.7061 -0.1341,0.2773 -0.201,0.5942 -0.201,0.9522 0,0.612 0.1919,1.0993 0.5808,1.4604 0.3884,0.362 0.9295,0.546 1.6308,0.546 0.563,0 1.0908,-0.1432 1.573,-0.434 0.483,-0.286 0.9921,-0.7282 1.5236,-1.3224 z m 2.145,5.3975 c 0,0.1029 -0.0358,0.1831 -0.1029,0.237 -0.0712,0.0538 -0.165,0.089 -0.29,0.1159 -0.1211,0.0269 -0.2999,0.0402 -0.5363,0.0402 -0.2237,0 -0.4068,-0.0133 -0.5409,-0.0402 -0.1341,-0.0269 -0.2321,-0.0621 -0.2951,-0.1159 -0.0621,-0.0539 -0.0938,-0.1299 -0.0938,-0.237 v -1.1795 c -0.5134,0.5493 -1.0854,0.9785 -1.7203,1.2824 -0.6344,0.299 -1.3045,0.4513 -2.0107,0.4513 -0.621,0 -1.184,-0.0803 -1.6843,-0.2413 -0.5009,-0.161 -0.9292,-0.398 -1.2824,-0.7013 -0.3529,-0.3038 -0.6301,-0.684 -0.8269,-1.1262 -0.1961,-0.447 -0.2951,-0.9518 -0.2951,-1.5191 0,-0.6661 0.1341,-1.2424 0.4071,-1.7294 0.2679,-0.4918 0.6562,-0.8983 1.1662,-1.22 0.5048,-0.3215 1.1262,-0.5672 1.8584,-0.7282 0.733,-0.161 1.5593,-0.2413 2.4755,-0.2413 h 1.6265 v -0.9201 c 0,-0.4518 -0.0491,-0.8541 -0.1432,-1.207 -0.098,-0.3483 -0.25,-0.6392 -0.4643,-0.8713 -0.2148,-0.2322 -0.4918,-0.4062 -0.8311,-0.523 -0.3399,-0.1202 -0.76,-0.1783 -1.2555,-0.1783 -0.5317,0 -1.0099,0.0623 -1.43,0.1922 -0.4241,0.1292 -0.7952,0.2678 -1.1124,0.424 -0.3177,0.1571 -0.5859,0.2951 -0.7999,0.4249 -0.21,0.1293 -0.371,0.1922 -0.4739,0.1922 -0.0712,0 -0.1341,-0.0181 -0.1832,-0.0538 -0.0533,-0.0312 -0.098,-0.0851 -0.1383,-0.1562 -0.0405,-0.0672 -0.0669,-0.1568 -0.0847,-0.2639 -0.0182,-0.1114 -0.0273,-0.2282 -0.0273,-0.362 0,-0.2143 0.0134,-0.3884 0.0451,-0.5134 0.0312,-0.125 0.1072,-0.246 0.2231,-0.358 0.1162,-0.1111 0.322,-0.2457 0.608,-0.4019 0.2855,-0.1523 0.6211,-0.2951 0.9964,-0.424396 0.3708,-0.125 0.7821,-0.2327 1.2283,-0.3172 0.443,-0.0847 0.894,-0.1256 1.3453,-0.1256 0.8441,0 1.5641,0.0939 2.1583,0.2861 0.5941,0.1919 1.0723,0.478196 1.4383,0.848896 0.3671,0.3711 0.6301,0.8312 0.7959,1.3814 0.1653,0.549 0.2501,1.1922 0.2501,1.9253 z m -11.0231,-11.1484 c 0,0.1741 -0.009,0.322 -0.027,0.4422 -0.0178,0.125 -0.0447,0.2239 -0.085,0.2991 -0.04,0.081 -0.085,0.1389 -0.1341,0.1791 -0.0538,0.04 -0.1207,0.0578 -0.1967,0.0578 h -3.5257 v 10.1571 c 0,0.0712 -0.0173,0.129 -0.0533,0.1789 -0.0357,0.0442 -0.0899,0.089 -0.1698,0.125 -0.0802,0.0312 -0.188,0.0581 -0.3311,0.076 -0.138,0.0173 -0.3169,0.0263 -0.536,0.0263 -0.2143,0 -0.3884,-0.009 -0.5273,-0.0263 -0.1428,-0.0179 -0.2548,-0.0448 -0.335,-0.076 -0.0851,-0.036 -0.1429,-0.0808 -0.1741,-0.125 -0.0312,-0.0499 -0.0451,-0.1077 -0.0451,-0.1789 v -10.1571 h -3.5254 c -0.0672,0 -0.1293,-0.0178 -0.1874,-0.0578 -0.0578,-0.0402 -0.1029,-0.0981 -0.1389,-0.1791 -0.0309,-0.0752 -0.062,-0.1781 -0.0847,-0.3033 -0.0221,-0.1251 -0.0312,-0.277 -0.0312,-0.4519 0,-0.1559 0.009,-0.2942 0.0312,-0.415 0.0227,-0.1253 0.0538,-0.2282 0.0938,-0.3081 0.04,-0.085 0.085,-0.143196 0.1389,-0.183096 0.049,-0.0408 0.1111,-0.0587 0.1783,-0.0587 h 9.2228 c 0.0669,0 0.1298,0.0179 0.1879,0.0587 0.0579,0.0399 0.1029,0.0981 0.1381,0.183096 0.0317,0.0799 0.0629,0.1871 0.085,0.3121 0.0227,0.1258 0.0318,0.2681 0.0318,0.4249 z m -14.4287,0.6032 c -0.3129,-0.0448 -0.6343,-0.076 -0.9652,-0.089 -0.3259,-0.0139 -0.6301,-0.0181 -0.9113,-0.0181 -0.5899,0 -1.0811,0.049 -1.4751,0.1519 -0.3972,0.0984 -0.7101,0.2455 -0.9513,0.4334 -0.237,0.188 -0.4068,0.411 -0.5049,0.6659 -0.1032,0.25 -0.1522,0.5312 -0.1522,0.8402 0,0.3123 0.0581,0.5984 0.1743,0.8484 0.1208,0.2508 0.2948,0.4609 0.536,0.6301 0.237,0.1698 0.5451,0.3039 0.9162,0.3932 0.3759,0.0938 0.894,0.1389 1.5642,0.1389 h 1.7693 z m 2.1714,10.5321 c 0,0.0712 -0.0131,0.129 -0.0442,0.1829 -0.0318,0.0541 -0.0848,0.0941 -0.1659,0.1253 -0.0799,0.0309 -0.187,0.0538 -0.3302,0.0717 -0.1386,0.0173 -0.3217,0.0263 -0.5499,0.0263 -0.214,0 -0.3889,-0.009 -0.527,-0.0263 -0.1431,-0.0179 -0.2551,-0.0408 -0.335,-0.0717 -0.0851,-0.0312 -0.1432,-0.0712 -0.1744,-0.1253 -0.0317,-0.0491 -0.0448,-0.1117 -0.0448,-0.1829 v -4.9558 h -1.2421 c -0.5411,0 -0.9604,0.0448 -1.2645,0.1299 -0.2997,0.089 -0.5721,0.2321 -0.809,0.4379 -0.241,0.2052 -0.4559,0.4691 -0.648,0.7863 -0.1922,0.3172 -0.3751,0.7062 -0.5494,1.171 l -0.9561,2.3006 c -0.0448,0.112 -0.0899,0.2061 -0.1429,0.273 -0.0541,0.0712 -0.1301,0.125 -0.2282,0.1653 -0.0981,0.0399 -0.2279,0.0669 -0.3798,0.0808 -0.1522,0.013 -0.3393,0.0172 -0.5672,0.0172 -0.161,0 -0.3082,-0.004 -0.4334,-0.0133 -0.1256,-0.009 -0.2328,-0.0221 -0.3218,-0.0448 -0.085,-0.0221 -0.1522,-0.0581 -0.1922,-0.1071 -0.0448,-0.0448 -0.0669,-0.1072 -0.0669,-0.1741 0,-0.0629 0.0221,-0.161 0.0712,-0.295 0.049,-0.1341 0.1477,-0.3711 0.2948,-0.7101 l 0.9431,-2.2125 c 0.2455,-0.5581 0.5451,-1.0411 0.9025,-1.4431 0.3578,-0.4062 0.7688,-0.7061 1.2331,-0.8983 -0.849,-0.1562 -1.5194,-0.496 -2.0242,-1.0142 -0.5003,-0.523 -0.7504,-1.211 -0.7504,-2.0685 0,-0.568 0.116,-1.0811 0.353,-1.542 0.2369,-0.4601 0.5811,-0.8484 1.0411,-1.1662 0.4556,-0.3214 1.0185,-0.5672 1.6886,-0.737296 0.6662,-0.1692 1.4301,-0.2542 2.2972,-0.2542 0.2052,0 0.4513,0.004 0.7234,0.013 0.2772,0.009 0.559,0.0221 0.8493,0.0403 0.2948,0.0178 0.5768,0.0357 0.8538,0.0578 0.2721,0.0229 0.5091,0.0408 0.7103,0.0581 0.2631,0.0269 0.4601,0.121 0.5899,0.290796 0.1293,0.1653 0.1962,0.3711 0.1962,0.6123 z m -11.9523,-0.1162 c 0.009,0.1922 -0.0539,0.326 -0.1831,0.4062 -0.1298,0.076 -0.398,0.1162 -0.796,0.1162 -0.2191,0 -0.3971,-0.004 -0.536,-0.0133 -0.1383,-0.009 -0.2503,-0.0269 -0.3263,-0.0538 -0.0799,-0.0261 -0.1341,-0.0621 -0.165,-0.1112 -0.0311,-0.045 -0.049,-0.1077 -0.0581,-0.1879 l -0.8623,-6.8675 c -0.0269,-0.246 -0.0538,-0.5051 -0.0808,-0.7869 -0.0269,-0.2772 -0.049,-0.5632 -0.0759,-0.8492 -0.027,-0.29 -0.0533,-0.576 -0.076,-0.8621 -0.0221,-0.2902 -0.0442,-0.5584 -0.0711,-0.8132 l -0.0139,-0.2994 c -0.0803,0.2503 -0.1602,0.5182 -0.2501,0.7954 -0.085,0.2812 -0.1791,0.563 -0.2811,0.8533 -0.099,0.286 -0.1971,0.5768 -0.2861,0.8628 -0.0941,0.2855 -0.1791,0.5582 -0.2551,0.8133 l -2.4755,6.9704 c -0.0357,0.1029 -0.0759,0.1922 -0.125,0.2633 -0.049,0.0675 -0.112,0.1256 -0.1967,0.1698 -0.0845,0.0403 -0.1874,0.072 -0.3124,0.0899 -0.1298,0.0173 -0.282,0.0263 -0.4649,0.0263 -0.1831,0 -0.3393,-0.009 -0.4603,-0.0263 -0.1208,-0.0179 -0.2231,-0.0448 -0.3081,-0.0851 -0.0848,-0.0399 -0.152,-0.0938 -0.201,-0.1658 -0.0539,-0.0669 -0.0989,-0.1562 -0.1341,-0.2591 l -2.3822,-6.9834 c -0.089,-0.246 -0.1783,-0.51 -0.2679,-0.7869 -0.0933,-0.2812 -0.1874,-0.5672 -0.2772,-0.8575 -0.0933,-0.2908 -0.1832,-0.5811 -0.2679,-0.8719 -0.0893,-0.286 -0.1605,-0.5582 -0.2234,-0.8085 l -0.013,0.2994 c -0.0269,0.2548 -0.0496,0.523 -0.076,0.8132 -0.0269,0.2861 -0.0538,0.5721 -0.085,0.8621 -0.027,0.286 -0.0581,0.572 -0.0899,0.8492 -0.0261,0.2818 -0.053,0.5409 -0.0669,0.7869 l -0.7954,6.7513 c -0.009,0.1032 -0.0269,0.1879 -0.0578,0.2551 -0.0312,0.0621 -0.0893,0.1111 -0.1792,0.1429 -0.089,0.0312 -0.2009,0.0533 -0.339,0.0672 -0.1431,0.013 -0.3263,0.0172 -0.5542,0.0172 -0.2191,0 -0.3931,-0.009 -0.5181,-0.0263 -0.1299,-0.0179 -0.224,-0.0496 -0.2909,-0.0899 -0.0671,-0.0442 -0.1071,-0.0981 -0.125,-0.1649 -0.0181,-0.0672 -0.0181,-0.1472 0,-0.2413 l 1.287,-11.1489 c 0.045,-0.277 0.1431,-0.487 0.295,-0.634096 0.152,-0.1432 0.3841,-0.2149 0.6883,-0.2149 h 1.0321 c 0.25,0 0.4643,0.0179 0.6432,0.0587 0.1791,0.0399 0.3311,0.1068 0.4603,0.205196 0.125,0.0938 0.2327,0.2231 0.3169,0.3841 0.0899,0.161 0.1701,0.362 0.2509,0.608 l 1.7425,5.0089 c 0.0938,0.3081 0.1961,0.6162 0.299,0.9252 0.1072,0.3081 0.2061,0.612 0.2951,0.9161 0.0941,0.2991 0.1789,0.5942 0.2639,0.8802 0.0802,0.29 0.1562,0.563 0.2273,0.8263 h 0.027 c 0.0808,-0.2721 0.161,-0.5584 0.2418,-0.8581 0.0842,-0.2993 0.174,-0.6074 0.2681,-0.9155 0.0981,-0.3087 0.1962,-0.6169 0.2943,-0.921 0.1029,-0.3081 0.2009,-0.5981 0.295,-0.8754 l 1.7431,-4.9867 c 0.0711,-0.2191 0.1471,-0.407 0.2273,-0.568 0.085,-0.1602 0.1879,-0.2943 0.309,-0.3932 0.125,-0.101996 0.2679,-0.173996 0.4419,-0.223096 0.1701,-0.049 0.3753,-0.0717 0.6214,-0.0717 h 1.023 c 0.3129,0 0.5542,0.0669 0.7152,0.1967 0.161,0.129896 0.2542,0.339896 0.2812,0.625296 z m -20.3179,-5.7778 c 0,-0.6392 -0.0581,-1.2425 -0.1789,-1.8097 -0.1162,-0.5672 -0.3123,-1.0632 -0.5853,-1.4921 -0.2679,-0.4292 -0.6389,-0.7691 -1.1033,-1.0143 -0.46,-0.2508 -1.0411,-0.3758 -1.7342,-0.3758 -0.6384,0 -1.1883,0.1119 -1.6483,0.3398 -0.4604,0.2279 -0.836,0.5494 -1.1353,0.9652 -0.2991,0.4153 -0.5182,0.9071 -0.6611,1.4743 -0.1474,0.5681 -0.2191,1.1892 -0.2191,1.8593 0,0.6474 0.0581,1.2554 0.1789,1.8227 0.1162,0.5677 0.3124,1.0638 0.5893,1.4881 0.2772,0.4201 0.6483,0.76 1.1084,1.0052 0.4648,0.25 1.046,0.3759 1.7382,0.3759 0.6301,0 1.1752,-0.112 1.6401,-0.3399 0.4643,-0.2282 0.8444,-0.5451 1.1441,-0.9561 0.2993,-0.4113 0.5181,-0.9031 0.6565,-1.4704 0.1389,-0.5672 0.21,-1.1931 0.21,-1.8722 z m 2.2524,-0.1384 c 0,0.9604 -0.1253,1.8454 -0.3801,2.6538 -0.25,0.8051 -0.6301,1.5021 -1.1302,2.0872 -0.5009,0.5853 -1.1304,1.0411 -1.8813,1.3674 -0.7552,0.326 -1.6314,0.4913 -2.6226,0.4913 -0.9701,0 -1.8145,-0.1432 -2.5342,-0.4335 -0.7195,-0.286 -1.3176,-0.7061 -1.7958,-1.2551 -0.4782,-0.55 -0.8359,-1.2204 -1.0729,-2.0024 -0.2364,-0.7861 -0.3532,-1.6753 -0.3532,-2.6717 0,-0.9609 0.1259,-1.8459 0.3711,-2.6501 0.25,-0.8084 0.6259,-1.5055 1.1262,-2.0908 0.5003,-0.5857 1.1262,-1.0369 1.8765,-1.362896 0.7509,-0.322 1.6271,-0.4831 2.6274,-0.4831 0.9701,0 1.8142,0.1429 2.5337,0.4337 0.7197,0.286296 1.3181,0.706196 1.7963,1.255496 0.4779,0.5499 0.8399,1.2152 1.0811,2.0021 0.237,0.7864 0.358,1.6708 0.358,2.6586 z m -14.9468,6.0324 c 0,0.0712 -0.0181,0.129 -0.0541,0.1789 -0.0352,0.0442 -0.089,0.089 -0.1693,0.125 -0.0759,0.0312 -0.1879,0.0581 -0.3259,0.076 -0.1389,0.0173 -0.313,0.0263 -0.523,0.0263 -0.2191,0 -0.398,-0.009 -0.5363,-0.0263 -0.1387,-0.0179 -0.2501,-0.0448 -0.3351,-0.076 -0.0808,-0.036 -0.1389,-0.0808 -0.1746,-0.125 -0.0354,-0.0499 -0.0533,-0.1077 -0.0533,-0.1789 v -10.2909 h -5.6032 v 10.2909 c 0,0.0712 -0.0179,0.129 -0.0539,0.1789 -0.036,0.0442 -0.0938,0.089 -0.1789,0.125 -0.0802,0.0312 -0.1922,0.0581 -0.335,0.076 -0.1384,0.0173 -0.313,0.0263 -0.5225,0.0263 -0.2148,0 -0.3889,-0.009 -0.5278,-0.0263 -0.1428,-0.0179 -0.2542,-0.0448 -0.335,-0.076 -0.0851,-0.036 -0.1432,-0.0808 -0.1741,-0.125 -0.0311,-0.0499 -0.045,-0.1077 -0.045,-0.1789 v -11.3411 c 0,-0.2633 0.0581,-0.4552 0.1791,-0.585296 0.1159,-0.1251 0.2818,-0.1877 0.487,-0.1877 h 8.6287 c 0.2052,0 0.371,0.0626 0.4821,0.1877 0.112,0.130096 0.1701,0.321996 0.1701,0.585296 z m -21.4571,-5.894 c 0,-0.6392 -0.0581,-1.2425 -0.1792,-1.8097 -0.1159,-0.5672 -0.3121,-1.0632 -0.585,-1.4921 -0.2682,-0.4292 -0.6392,-0.7691 -1.1036,-1.0143 -0.46,-0.2508 -1.0411,-0.3758 -1.7339,-0.3758 -0.6384,0 -1.1883,0.1119 -1.6486,0.3398 -0.4601,0.2279 -0.836,0.5494 -1.135,0.9652 -0.2994,0.4153 -0.5182,0.9071 -0.6614,1.4743 -0.1471,0.5681 -0.2188,1.1892 -0.2188,1.8593 0,0.6474 0.0578,1.2554 0.1789,1.8227 0.1159,0.5677 0.3123,1.0638 0.5893,1.4881 0.2769,0.4201 0.648,0.76 1.1081,1.0052 0.4651,0.25 1.0462,0.3759 1.7384,0.3759 0.6302,0 1.1753,-0.112 1.6402,-0.3399 0.4643,-0.2282 0.8441,-0.5451 1.144,-0.9561 0.2991,-0.4113 0.5182,-0.9031 0.6565,-1.4704 0.1387,-0.5672 0.2101,-1.1931 0.2101,-1.8722 z m 2.2521,-0.1384 c 0,0.9604 -0.125,1.8454 -0.3798,2.6538 -0.2503,0.8051 -0.6302,1.5021 -1.1305,2.0872 -0.5009,0.5853 -1.1302,1.0411 -1.8813,1.3674 -0.7552,0.326 -1.6311,0.4913 -2.6227,0.4913 -0.97,0 -1.8141,-0.1432 -2.5341,-0.4335 -0.7192,-0.286 -1.3176,-0.7061 -1.7955,-1.2551 -0.4782,-0.55 -0.8362,-1.2204 -1.0732,-2.0024 -0.2361,-0.7861 -0.3529,-1.6753 -0.3529,-2.6717 0,-0.9609 0.1259,-1.8459 0.371,-2.6501 0.2501,-0.8084 0.6259,-1.5055 1.1263,-2.0908 0.5,-0.5857 1.1259,-1.0369 1.8762,-1.362896 0.7512,-0.322 1.6271,-0.4831 2.6277,-0.4831 0.97,0 1.8142,0.1429 2.5333,0.4337 0.72,0.286296 1.3184,0.706196 1.7964,1.255496 0.4782,0.5499 0.8401,1.2152 1.0814,2.0021 0.237,0.7864 0.3577,1.6708 0.3577,2.6586 z m -14.9516,6.0324 c 0,0.0712 -0.0179,0.129 -0.0533,0.1789 -0.0357,0.0442 -0.0896,0.089 -0.1698,0.125 -0.0802,0.0312 -0.1879,0.0581 -0.3311,0.076 -0.138,0.0173 -0.3121,0.0263 -0.5221,0.0263 -0.224,0 -0.4023,-0.009 -0.5412,-0.0263 -0.1428,-0.0179 -0.25,-0.0448 -0.3308,-0.076 -0.0802,-0.036 -0.134,-0.0808 -0.1692,-0.125 -0.036,-0.0499 -0.0539,-0.1077 -0.0539,-0.1789 v -5.1701 h -5.9785 v 5.1701 c 0,0.0712 -0.0179,0.129 -0.0539,0.1789 -0.0357,0.0442 -0.089,0.089 -0.1698,0.125 -0.0802,0.0312 -0.1873,0.0581 -0.3302,0.076 -0.1389,0.0173 -0.3178,0.0263 -0.5363,0.0263 -0.2149,0 -0.3889,-0.009 -0.5278,-0.0263 -0.1429,-0.0179 -0.2543,-0.0448 -0.3351,-0.076 -0.085,-0.036 -0.1428,-0.0808 -0.174,-0.125 -0.0312,-0.0499 -0.0451,-0.1077 -0.0451,-0.1789 v -11.7875 c 0,-0.0718 0.0139,-0.129896 0.0451,-0.178896 0.0312,-0.0448 0.089,-0.089 0.174,-0.1298 0.0808,-0.04 0.1922,-0.0672 0.3351,-0.0803 0.1389,-0.013 0.3129,-0.0178 0.5278,-0.0178 0.2185,0 0.3974,0.005 0.5363,0.0178 0.1429,0.0131 0.25,0.0403 0.3302,0.0803 0.0808,0.0408 0.1341,0.085 0.1698,0.1298 0.036,0.049 0.0539,0.107096 0.0539,0.178896 v 4.7942 h 5.9785 v -4.7942 c 0,-0.0718 0.0179,-0.129896 0.0539,-0.178896 0.0352,-0.0448 0.089,-0.089 0.1692,-0.1298 0.0808,-0.04 0.188,-0.0672 0.3308,-0.0803 0.1389,-0.013 0.3172,-0.0178 0.5412,-0.0178 0.21,0 0.3841,0.005 0.5221,0.0178 0.1432,0.0131 0.2509,0.0403 0.3311,0.0803 0.0802,0.0408 0.1341,0.085 0.1698,0.1298 0.0354,0.049 0.0533,0.107096 0.0533,0.178896 z m -15.4063,-3.6059 c 0,-0.362 -0.0581,-0.688 -0.1698,-0.9831 -0.112,-0.2908 -0.2993,-0.5411 -0.5633,-0.746 -0.259,-0.2061 -0.6032,-0.3671 -1.0182,-0.474 -0.4201,-0.112 -0.9343,-0.1653 -1.5423,-0.1653 -0.3659,0 -0.7279,0.009 -1.0811,0.027 -0.3529,0.0173 -0.6744,0.0399 -0.9604,0.0669 v 4.549 c 0.3033,0.0312 0.6296,0.0621 0.9825,0.089 0.3489,0.0269 0.733,0.0403 1.1622,0.0403 1.0811,0 1.8811,-0.2143 2.4035,-0.6392 0.523,-0.4241 0.7869,-1.0143 0.7869,-1.7646 z m 2.2785,-0.1477 c 0,0.6029 -0.1111,1.1662 -0.3351,1.6892 -0.2231,0.523 -0.5672,0.9782 -1.0411,1.3623 -0.4692,0.3849 -1.0721,0.6883 -1.8051,0.9071 -0.7373,0.2239 -1.6127,0.3353 -2.636,0.3353 -0.2327,0 -0.4788,0 -0.733,-0.004 -0.2549,-0.004 -0.5009,-0.0131 -0.7461,-0.027 -0.246,-0.013 -0.483,-0.0311 -0.7192,-0.049 -0.2369,-0.0133 -0.4699,-0.036 -0.6973,-0.0629 -0.3668,-0.0442 -0.6349,-0.1602 -0.809,-0.3524 -0.174,-0.1927 -0.2639,-0.487 -0.2639,-0.881 v -10.9515 c 0,-0.0718 0.0139,-0.129896 0.0451,-0.178896 0.0309,-0.0448 0.089,-0.089 0.174,-0.1298 0.0808,-0.04 0.1919,-0.0672 0.3351,-0.0803 0.1389,-0.013 0.3129,-0.0178 0.5278,-0.0178 0.2095,0 0.3841,0.005 0.5224,0.0178 0.1429,0.0131 0.2549,0.0403 0.3351,0.0803 0.085,0.0408 0.1428,0.085 0.1788,0.1298 0.036,0.049 0.0539,0.107096 0.0539,0.178896 v 4.151 c 0.3215,-0.0269 0.6701,-0.049 1.0454,-0.0629 0.375,-0.0131 0.7591,-0.0179 1.1532,-0.0179 0.9513,0 1.7693,0.0938 2.4525,0.2818 0.684,0.1879 1.2424,0.4561 1.6804,0.8042 0.4379,0.3489 0.7599,0.7642 0.9691,1.2512 0.2101,0.4822 0.313,1.0281 0.313,1.6265 z m -13.7889,3.7536 c 0,0.0712 -0.0178,0.129 -0.0538,0.1789 -0.0352,0.0442 -0.089,0.089 -0.1693,0.125 -0.0759,0.0312 -0.1879,0.0581 -0.3268,0.076 -0.138,0.0173 -0.3121,0.0263 -0.5221,0.0263 -0.2192,0 -0.398,-0.009 -0.5364,-0.0263 -0.1388,-0.0179 -0.25,-0.0448 -0.335,-0.076 -0.0808,-0.036 -0.1389,-0.0808 -0.1746,-0.125 -0.0355,-0.0499 -0.0533,-0.1077 -0.0533,-0.1789 v -10.2909 h -3.2445 c -0.1381,1.3851 -0.3082,2.6184 -0.5043,3.6995 -0.197,1.0815 -0.4159,2.0245 -0.6619,2.8287 -0.2452,0.8 -0.5224,1.4792 -0.8263,2.0285 -0.3039,0.5499 -0.6392,0.9921 -1.0012,1.3272 -0.3663,0.335 -0.7591,0.5768 -1.184,0.724 -0.4201,0.1471 -0.8754,0.2233 -1.3536,0.2233 -0.0808,0 -0.148,-0.0133 -0.2058,-0.0402 -0.0538,-0.027 -0.1032,-0.0712 -0.1383,-0.1429 -0.0318,-0.0672 -0.0581,-0.1653 -0.076,-0.2951 -0.0178,-0.125 -0.0269,-0.286 -0.0269,-0.487 0,-0.21 0.004,-0.3792 0.0178,-0.5094 0.0134,-0.1289 0.0355,-0.2369 0.0672,-0.3129 0.0309,-0.0802 0.0712,-0.1293 0.116,-0.1562 0.049,-0.0269 0.1071,-0.04 0.1791,-0.04 0.29,0 0.5624,-0.0669 0.8263,-0.2009 0.2591,-0.1389 0.5049,-0.362 0.733,-0.6701 0.228,-0.309 0.442,-0.7152 0.6432,-1.2155 0.1968,-0.5049 0.3799,-1.122 0.55,-1.8545 0.1649,-0.733 0.3211,-1.5911 0.4691,-2.5741 0.1471,-0.9782 0.29,-2.1087 0.4201,-3.3826 0.0173,-0.2633 0.0799,-0.4552 0.1919,-0.585296 0.1071,-0.1251 0.2633,-0.1877 0.4643,-0.1877 h 6.0503 c 0.2058,0 0.371,0.0626 0.487,0.1928 0.121,0.124996 0.1788,0.316896 0.1788,0.580196 z"
     style="fill:#1b1918;fill-rule:evenodd"
     id="path1219" />
  <path
     d="m 99.3556,627.51731 c 0,0.1653 -0.01,0.3124 -0.033,0.4397 -0.0241,0.1331 -0.057,0.2414 -0.0995,0.327 -0.0424,0.09 -0.0951,0.1515 -0.166,0.1939 -0.071,0.0424 -0.1464,0.0615 -0.2268,0.0615 h -9.9275 c -0.1273,0 -0.2414,-0.0139 -0.3409,-0.0476 -0.0944,-0.0329 -0.1793,-0.0849 -0.2458,-0.1609 -0.071,-0.071 -0.1229,-0.1793 -0.1559,-0.3168 -0.0336,-0.1369 -0.0475,-0.3073 -0.0475,-0.5107 0,-0.1851 0.01,-0.3461 0.0234,-0.4829 0.0146,-0.1375 0.0432,-0.2604 0.09,-0.3695 0.0475,-0.1038 0.109,-0.2077 0.18,-0.3168 0.0709,-0.1038 0.1653,-0.2172 0.2794,-0.3358 l 3.5865,-3.691 c 0.8326,-0.8516 1.4954,-1.6132 1.9966,-2.29 0.5019,-0.6716 0.8852,-1.2869 1.1596,-1.8451 0.2692,-0.5539 0.4492,-1.0558 0.5348,-1.5094 0.0849,-0.4543 0.1273,-0.8801 0.1273,-1.2781 0,-0.3973 -0.0658,-0.7756 -0.1983,-1.1304 -0.1375,-0.3548 -0.327,-0.6672 -0.5823,-0.9372 -0.251,-0.27 -0.5678,-0.4829 -0.9511,-0.6387 -0.3783,-0.1558 -0.8187,-0.2363 -1.3155,-0.2363 -0.5816,0 -1.1026,0.0805 -1.5664,0.2363 -0.4587,0.1558 -0.8655,0.3314 -1.216,0.5158 -0.3453,0.1844 -0.6387,0.3592 -0.8706,0.5158 -0.2319,0.1558 -0.4068,0.2363 -0.5202,0.2363 -0.0666,0 -0.128,-0.019 -0.18,-0.0563 -0.0519,-0.0381 -0.0944,-0.0952 -0.128,-0.18 -0.0329,-0.0805 -0.0615,-0.1939 -0.0798,-0.3314 -0.019,-0.142 -0.0285,-0.3073 -0.0285,-0.5012 0,-0.1376 0.004,-0.2561 0.0139,-0.36 0.01,-0.0995 0.0234,-0.1895 0.0476,-0.2648 0.0234,-0.071 0.0519,-0.1419 0.09,-0.2085 0.0373,-0.0615 0.1134,-0.142 0.2224,-0.2415 0.1134,-0.0943 0.3029,-0.2268 0.5772,-0.3921 0.2693,-0.1705 0.6146,-0.3314 1.0265,-0.4924 0.4068,-0.1653 0.8611,-0.2978 1.3579,-0.4119 0.4924,-0.1083 1.0126,-0.1653 1.5569,-0.1653 0.8706,0 1.6322,0.1229 2.2805,0.3687 0.6533,0.2414 1.1925,0.5772 1.6234,1.0038 0.4302,0.4258 0.7522,0.9174 0.9651,1.4808 0.2129,0.5633 0.3175,1.164 0.3175,1.8027 0,0.5729 -0.0527,1.145 -0.1515,1.7127 -0.1046,0.5678 -0.3175,1.1831 -0.6438,1.8459 -0.3314,0.6621 -0.8041,1.3952 -1.4245,2.2044 -0.6153,0.8092 -1.4383,1.7413 -2.4648,2.797 l -2.8395,2.9667 h 7.8079 c 0.071,0 0.142,0.0191 0.213,0.0615 0.0709,0.0424 0.1324,0.1039 0.1792,0.1844 0.0527,0.0856 0.09,0.1895 0.1141,0.3124 0.0234,0.1229 0.033,0.2699 0.033,0.4353 z m 6.6387,-0.5019 c 0,0.6577 -0.109,1.093 -0.3263,1.3111 -0.218,0.2173 -0.6102,0.3263 -1.183,0.3263 -0.5582,0 -0.9416,-0.109 -1.1545,-0.3219 -0.2129,-0.213 -0.3168,-0.6388 -0.3168,-1.2775 0,-0.6577 0.1083,-1.093 0.3263,-1.3103 0.2173,-0.218 0.6102,-0.327 1.183,-0.327 0.5583,0 0.9416,0.1046 1.1545,0.3175 0.2078,0.2129 0.3168,0.6431 0.3168,1.2818 z m 15.6524,-3.5718 c 0,0.3022 -0.0468,0.5436 -0.1368,0.7192 -0.0951,0.1748 -0.2224,0.2597 -0.3885,0.2597 h -2.0251 v 3.7715 c 0,0.0754 -0.0191,0.1369 -0.0564,0.1895 -0.038,0.0469 -0.1046,0.0944 -0.199,0.1325 -0.0944,0.0329 -0.2224,0.0614 -0.3738,0.0804 -0.1515,0.0183 -0.3454,0.0278 -0.5817,0.0278 -0.2319,0 -0.4214,-0.01 -0.5728,-0.0278 -0.1515,-0.019 -0.2744,-0.0475 -0.3644,-0.0804 -0.09,-0.0381 -0.1514,-0.0856 -0.1844,-0.1325 -0.0329,-0.0526 -0.0519,-0.1141 -0.0519,-0.1895 v -3.7715 h -7.3441 c -0.1134,0 -0.2033,-0.0139 -0.2743,-0.0424 -0.0754,-0.0286 -0.1419,-0.0754 -0.2034,-0.1515 -0.0571,-0.0709 -0.0995,-0.1799 -0.1229,-0.3168 -0.0242,-0.1375 -0.0329,-0.3175 -0.0329,-0.5399 0,-0.1749 0.004,-0.3307 0.0139,-0.4682 0.01,-0.1368 0.0285,-0.2649 0.057,-0.3783 0.0234,-0.1185 0.0615,-0.2275 0.1083,-0.3314 0.0424,-0.109 0.0995,-0.2224 0.1661,-0.3409 l 6.3973,-10.9115 c 0.0468,-0.0753 0.1178,-0.1368 0.2078,-0.1939 0.09,-0.0563 0.2034,-0.1039 0.3453,-0.1368 0.142,-0.038 0.3175,-0.0666 0.5209,-0.0805 0.2078,-0.0146 0.4544,-0.019 0.7383,-0.019 0.3072,0 0.5816,0.01 0.8091,0.0329 0.232,0.0235 0.4207,0.0571 0.5583,0.09 0.1419,0.0381 0.2509,0.09 0.3263,0.1464 0.0761,0.0621 0.1134,0.1331 0.1134,0.218 v 11.4653 h 2.0251 c 0.1566,0 0.2839,0.0804 0.379,0.2414 0.0995,0.1602 0.1463,0.4068 0.1463,0.7382 z m -4.9348,-10.8361 h -0.0285 l -5.7726,9.8565 h 5.8011 z m 10.8405,14.4079 c 0,0.6577 -0.109,1.093 -0.3263,1.3111 -0.218,0.2173 -0.6102,0.3263 -1.1831,0.3263 -0.5582,0 -0.9416,-0.109 -1.1545,-0.3219 -0.2129,-0.213 -0.3168,-0.6388 -0.3168,-1.2775 0,-0.6577 0.1083,-1.093 0.3264,-1.3103 0.2172,-0.218 0.6101,-0.327 1.183,-0.327 0.5582,0 0.9416,0.1046 1.1545,0.3175 0.2078,0.2129 0.3168,0.6431 0.3168,1.2818 z m 14.9478,0.5868 c 0,0.1755 -0.0146,0.3219 -0.0431,0.4404 -0.0278,0.1185 -0.0615,0.2173 -0.1083,0.2883 -0.0476,0.076 -0.0995,0.128 -0.161,0.1609 -0.0614,0.0337 -0.1229,0.0476 -0.1844,0.0476 h -9.3691 c -0.0615,0 -0.123,-0.0139 -0.18,-0.0476 -0.052,-0.0329 -0.109,-0.0849 -0.1559,-0.1609 -0.0519,-0.071 -0.09,-0.1698 -0.1185,-0.2883 -0.0285,-0.1185 -0.0424,-0.2649 -0.0424,-0.4404 0,-0.1654 0.0139,-0.3073 0.0424,-0.4259 0.0285,-0.1229 0.0615,-0.2224 0.1039,-0.2977 0.0381,-0.0805 0.09,-0.1376 0.1515,-0.18 0.0614,-0.0424 0.128,-0.0615 0.199,-0.0615 h 3.7334 v -13.6557 l -3.4686,2.0727 c -0.1749,0.09 -0.3168,0.1463 -0.4258,0.1653 -0.1039,0.019 -0.1895,0 -0.2553,-0.0614 -0.0666,-0.0615 -0.1091,-0.161 -0.1325,-0.2985 -0.0241,-0.1369 -0.0336,-0.3117 -0.0336,-0.5246 0,-0.1566 0.005,-0.2934 0.019,-0.4024 0.0146,-0.1134 0.038,-0.2034 0.0666,-0.2795 0.0285,-0.071 0.0658,-0.1368 0.1185,-0.1939 0.0468,-0.0519 0.1134,-0.109 0.1983,-0.1653 l 4.1359,-2.6456 c 0.0373,-0.0278 0.0804,-0.0519 0.1368,-0.0709 0.057,-0.0139 0.128,-0.033 0.2085,-0.052 0.0848,-0.019 0.18,-0.0329 0.2934,-0.038 0.109,-0.004 0.2458,-0.004 0.4163,-0.004 0.218,0 0.4067,0.01 0.5538,0.0285 0.1463,0.019 0.2597,0.0425 0.3453,0.0754 0.0849,0.0336 0.1368,0.0761 0.1654,0.1229 0.0285,0.0527 0.0424,0.1046 0.0424,0.1609 v 15.7665 h 3.2462 c 0.0761,0 0.1471,0.0191 0.2085,0.0615 0.0659,0.0424 0.1178,0.0995 0.161,0.18 0.0424,0.0753 0.0754,0.1748 0.0988,0.2977 0.0241,0.1186 0.0336,0.2605 0.0336,0.4259 z m 15.0942,-4.1586 c 0,0.3022 -0.0468,0.5436 -0.1368,0.7192 -0.0952,0.1748 -0.2225,0.2597 -0.3885,0.2597 h -2.0252 v 3.7715 c 0,0.0754 -0.019,0.1369 -0.0563,0.1895 -0.0381,0.0469 -0.1046,0.0944 -0.199,0.1325 -0.0944,0.0329 -0.2224,0.0614 -0.3739,0.0804 -0.1514,0.0183 -0.3453,0.0278 -0.5816,0.0278 -0.2319,0 -0.4214,-0.01 -0.5729,-0.0278 -0.1514,-0.019 -0.2743,-0.0475 -0.3643,-0.0804 -0.09,-0.0381 -0.1515,-0.0856 -0.1844,-0.1325 -0.0329,-0.0526 -0.0519,-0.1141 -0.0519,-0.1895 v -3.7715 h -7.3441 c -0.1134,0 -0.2034,-0.0139 -0.2743,-0.0424 -0.0754,-0.0286 -0.142,-0.0754 -0.2034,-0.1515 -0.0571,-0.0709 -0.0995,-0.1799 -0.123,-0.3168 -0.0241,-0.1375 -0.0329,-0.3175 -0.0329,-0.5399 0,-0.1749 0.004,-0.3307 0.0139,-0.4682 0.01,-0.1368 0.0286,-0.2649 0.0571,-0.3783 0.0234,-0.1185 0.0614,-0.2275 0.1083,-0.3314 0.0424,-0.109 0.0995,-0.2224 0.1661,-0.3409 l 6.3973,-10.9115 c 0.0468,-0.0753 0.1178,-0.1368 0.2078,-0.1939 0.09,-0.0563 0.2034,-0.1039 0.3453,-0.1368 0.1419,-0.038 0.3175,-0.0666 0.5209,-0.0805 0.2078,-0.0146 0.4543,-0.019 0.7382,-0.019 0.3073,0 0.5817,0.01 0.8092,0.0329 0.2319,0.0235 0.4207,0.0571 0.5582,0.09 0.142,0.0381 0.251,0.09 0.3263,0.1464 0.0761,0.0621 0.1134,0.1331 0.1134,0.218 v 11.4653 h 2.0252 c 0.1565,0 0.2838,0.0804 0.3789,0.2414 0.0996,0.1602 0.1464,0.4068 0.1464,0.7382 z m -4.9348,-10.8361 h -0.0286 l -5.7725,9.8565 h 5.8011 z"
     style="fill:#1b1918;fill-rule:evenodd"
     id="path1221" />
  <g
     id="Layer1061"
     transform="translate(-155.7657,-199.23789)">
    <path
       d="m 354.5898,250.2507 c 2.305,-12.8626 -9.2619,-24.622 20.2278,-35.1058 8.4547,-3.0057 40.811,-12.7374 45.2168,-15.5694 1.1149,0.7261 -15.7199,37.523 -19.8246,43.2464 -7.3014,10.1812 -18.7734,18.292 -30.4133,22.7108 -11.5929,4.4014 -16.4823,-8.1651 -15.2067,-15.282 z"
       style="fill:#1b1918;fill-rule:evenodd;stroke:#1b1918;stroke-width:0.5669;stroke-linecap:butt;stroke-linejoin:miter;stroke-dasharray:none"
       id="path1223" />
    <path
       d="m 352.4101,253.0322 c 16.7493,-4.2153 5.6538,6.273 11.0456,9.3357 6.1424,3.4899 4.0061,4.6971 1.5108,11.7405 -1.2025,3.3937 -13.9782,5.6263 -15.0351,-4.4348 -0.5756,-5.4817 -5.5779,-2.9457 -0.4163,-14.1999 0.9983,-2.1753 5.3541,-3.0605 2.895,-2.4415 z"
       style="fill:#1b1918;fill-rule:evenodd"
       id="path1225" />
    <path
       d="m 182.3583,413.6217 c 34.0582,22.4552 151.58,18.8492 179.6216,2.758 8.2945,-4.7595 -16.5325,55.9466 -27.3058,62.6365 -20.601,12.7925 -21.3886,16.5446 -47.0227,25.7277 -41.7431,14.9536 -52.1694,-9.3863 -81.9324,-35.1049 -13.5094,-11.6748 -23.3359,-37.4565 -23.3607,-56.0173 z"
       style="fill:#f5b1b5;fill-rule:evenodd"
       id="path1227" />
    <path
       d="m 359.711,414.6678 c 0,7.6684 -40.1064,15.1965 -89.5798,15.1965 -49.4733,0 -89.5797,-11.137 -89.5797,-15.996 0,-9.9143 179.1595,-6.8688 179.1595,0.7995 z"
       style="fill:#f8c7cf;fill-rule:evenodd"
       id="path1229" />
    <path
       d="m 276.744,721.5139 c -41.8096,-0.0289 -75.7065,5.0253 -75.7108,11.2894 -0.004,6.264 33.8855,11.3653 75.6951,11.3942 41.8096,0.029 75.7065,-5.0253 75.7108,-11.2893 0.004,-6.264 -33.8855,-11.3653 -75.6951,-11.3943 z"
       style="fill:#1b1918;fill-rule:evenodd"
       id="path1231" />
    <path
       d="m 276.3067,718.9789 c -41.2943,-0.0286 -74.7739,4.0813 -74.7775,9.1802 -0.004,5.0989 33.4704,9.2552 74.7647,9.2838 41.2965,0.0286 74.7747,-4.0813 74.7782,-9.1802 0.004,-5.0989 -33.4689,-9.2552 -74.7654,-9.2838 z"
       style="fill:#ffffff;fill-rule:evenodd;stroke:#1b1918;stroke-width:0.5669;stroke-linecap:butt;stroke-linejoin:miter;stroke-dasharray:none"
       id="path1233" />
    <path
       d="m 348.2058,249.9699 c 11.9537,44.2442 27.1038,82.6866 24.4403,153.4439 -5.4077,33.3171 -14.5696,68.3978 -65.8097,112.9192 -14.2613,14.9636 -21.0521,38.8568 -21.2783,64.2289 l -0.5231,123.6685 c -0.6595,10.2864 1.0117,17.7895 12.0924,22.8698 -9.8786,2.8355 -29.1285,4.1846 -41.4687,-0.3818 8.6535,-0.9271 13.8618,-11.4427 13.7222,-22.9862 -0.4816,-39.7981 -0.9442,-113.0863 -1.448,-123.8811 -2.2587,-25.006 -3.8356,-50.5102 -21.4608,-65.577 -48.0637,-32.428 -67.0929,-73.3485 -71.1078,-118.6624 -2.0451,-44.7731 7.9908,-95.379 22.9385,-148.3568 -10.5633,51.0633 -19.6625,101.2393 -16.5514,144.0172 5.1981,32.8972 7.8784,65.4364 66.2229,105.9415 17.373,9.4095 34.8807,9.0291 52.5355,-1.8013 42.915,-27.7435 63.3207,-59.562 65.8459,-94.617 2.8246,-55.1838 -8.6228,-102.4731 -18.1499,-150.8254 z"
       style="fill:#1b1918;fill-rule:evenodd"
       id="path1235" />
    <path
       d="m 286.4179,359.7427 c 0.598,-8.9852 -2.4497,4.0909 -2.609,5.7997 -1.7092,18.3359 -3.1995,34.3606 15.4147,47.1158 -0.0812,5.6981 -8.804,8.9976 -11.8724,10.1579 -2.5445,0.962 -3.9173,3.7631 -2.9831,6.7816 1.0681,-5.2144 3.734,-4.9628 3.8385,-5.0023 3.4306,-1.2973 13.3679,-5.0553 12.832,-12.2945 l -0.002,-3e-4 c -0.0239,-0.3157 -0.203,-0.636 -0.4984,-0.834 -18.0174,-12.0634 -16.5659,-27.6336 -14.9031,-45.4709 0.2504,-2.6862 0.5815,-3.3639 0.7832,-6.253 z"
       style="fill:#1b1918;fill-rule:evenodd"
       id="path1237" />
    <path
       d="m 281.2243,421.0766 c -1.7182,0.9747 -6.3063,8.7831 -6.4631,1.7763 -0.0324,-1.4462 5.9906,-1.5081 6.4631,-1.7763 z"
       style="fill:#1b1918;fill-rule:evenodd"
       id="path1239" />
    <path
       d="m 272.6938,236.5451 c -42.9439,-0.0298 -77.7599,5.0238 -77.7642,11.2879 -0.004,6.264 34.8046,11.3659 77.7485,11.3957 42.9439,0.0297 77.7599,-5.0239 77.7643,-11.288 0.004,-6.264 -34.8047,-11.3659 -77.7486,-11.3956 z m -4.0661,2.107 c -37.1992,-0.0258 -67.3586,4.0864 -67.3622,9.1853 -0.004,5.0989 30.1502,9.2529 67.3494,9.2786 37.2006,0.0258 67.3593,-4.0864 67.3628,-9.1853 0.004,-5.0989 -30.1494,-9.2529 -67.35,-9.2786 z"
       style="fill:#1b1918;fill-rule:evenodd"
       id="path1241" />
    <path
       d="m 276.7263,523.9464 h -7e-4 c -2.4425,-0.001 -4.4406,1.9937 -4.442,4.4362 l -0.1404,202.4988 c -0.002,2.4411 1.9936,4.4406 4.4361,4.442 h 8e-4 c 2.4417,0.002 4.4405,-1.9944 4.4427,-4.4354 l 0.1397,-202.4996 c 0.002,-2.4418 -1.9944,-4.4398 -4.4362,-4.442 z"
       style="fill:#ffffff;fill-rule:evenodd"
       id="path1243" />
    <path
       d="m 262.8032,354.6532 c 1.634,0.9005 1.6575,-10.6553 -0.1929,-11.2462 -33.9206,-10.8316 -49.1675,-11.1047 -74.4557,11.042 -0.0136,0.0118 35.5359,-21.3525 74.6486,0.2042 z"
       style="fill:#1b1918;fill-rule:evenodd"
       id="path1245" />
    <g
       id="Layer1062">
      <path
         d="m 305.8974,452.2718 c -1.2488,-3.8523 -12.8393,-9.7542 -15.0349,-11.1644 -0.7964,-0.5119 -1.6929,-1.0144 -3.1442,-1.7885 -5.8818,-1.2332 -8.1951,2.085 -8.4456,1.9645 -2.359,-1.07 -3.92,-2.8417 -7.9921,-2.3146 l -2.6032,0.9467 c -6.3782,3.2781 -12.9988,6.5566 -16.953,12.0166 2.0483,3.0152 2.8143,4.5016 4.5234,7.2342 9.862,8.3429 18.6788,3.7877 22.0038,3.7743 10.7116,-0.0442 16.0724,6.8591 27.6458,-10.6688 z"
         style="fill:#e30016;fill-rule:evenodd"
         id="path1247" />
      <path
         d="m 274.9222,450.889 c 13.6587,-0.1152 21.8002,-1.0744 34.9686,4.9706 4.5357,2.685 5.284,-2.563 0.6732,-2.8818 -18.211,-4.4116 -35.6342,-2.0834 -35.6418,-2.0888 z"
         style="fill:#1b1918;fill-rule:evenodd"
         id="path1249" />
      <path
         d="m 304.8222,432.4291 c 0.5437,1.1268 0.28,2.4433 -0.9931,2.5245 -1.9803,0.1263 -2.2011,-4.1374 0.9931,-2.5245 z"
         style="fill:#1b1918;fill-rule:evenodd"
         id="path1251" />
      <path
         d="m 292.7097,471.7301 c 4.1497,1.6902 -11.8379,-10.5948 -26.8512,0.0907 5.6755,-2.6 21.1656,-3.7217 26.8512,-0.0907 z"
         style="fill:#1b1918;fill-rule:evenodd"
         id="path1253" />
      <path
         d="m 280.2222,450.889 c -13.6587,-0.1152 -21.8002,-1.0744 -34.9686,4.9706 -4.5357,2.685 -5.284,-2.563 -0.6732,-2.8818 18.211,-4.4116 35.6342,-2.0834 35.6418,-2.0888 z"
         style="fill:#1b1918;fill-rule:evenodd"
         id="path1255" />
      <path
         d="m 256.9946,451.2013 c -0.069,0.0214 7.3779,2.4506 9.6398,2.4984 l 20.8498,0.4424 c 3.3631,0.0714 15.4836,-2.5904 14.8893,-2.4985 -1.3632,0.211 -12.5109,-1.2596 -21.8948,-1.3991 -12.2912,-0.1826 -23.3495,0.9153 -23.4841,0.9568 z"
         style="fill:#1b1918;fill-rule:evenodd"
         id="path1257" />
    </g>
    <path
       d="m 296.6104,391.0625 c 4.2817,-17.5214 20.7846,-29.6068 38.0815,-24.4359 6.1216,1.8294 8.6975,13.092 15.256,4.4459 -12.8901,37.3323 -41.6951,21.0986 -53.3375,19.99 z m -0.1198,0.4335 c 12.2841,-23.167 40.7373,-21.3414 44.5318,-12.1256 -8.4831,18.9032 -34.8323,15.2102 -44.5318,12.1256 z"
       style="fill:#1b1918;fill-rule:evenodd"
       id="path1260" />
    <g
       id="Layer1063">
      <path
         d="m 329.8483,376.4562 c -3.3589,-4.5954 -9.4898,-5.5083 -13.6893,-2.0356 -4.2002,3.4726 -4.8814,10.0154 -1.5217,14.6116 3.359,4.5954 9.4892,5.5083 13.6894,2.0356 4.2002,-3.4726 4.8806,-10.0154 1.5216,-14.6116 z"
         style="fill:#1b1918;fill-rule:evenodd"
         id="path1262" />
      <path
         d="m 328.2181,380.3118 c -0.8499,-1.4203 -2.6402,-1.9126 -3.999,-1.0996 -1.3595,0.8122 -1.7728,2.6228 -0.923,4.0431 0.8492,1.4211 2.6402,1.9133 3.999,1.1004 1.3588,-0.813 1.7721,-2.6228 0.923,-4.0439 z"
         style="fill:#ffffff;fill-rule:evenodd"
         id="path1264" />
      <path
         d="m 323.9231,387.1782 c -0.3924,-0.6559 -1.2191,-0.8832 -1.846,-0.5082 -0.6277,0.3757 -0.8181,1.2111 -0.4264,1.867 0.3923,0.6552 1.219,0.8825 1.846,0.5075 0.6276,-0.375 0.818,-1.2104 0.4264,-1.8663 z"
         style="fill:#ffffff;fill-rule:evenodd"
         id="path1266" />
    </g>
    <path
       d="m 296.5106,391.9829 c 17.3429,-21.0165 43.5696,-16.9724 46.5021,-13.877 3.5218,3.7173 3.568,0.202 -3.2407,-4.6452 -15.6384,-11.1315 -37.5066,0.6227 -43.2614,18.5222 z"
       style="fill:#1b1918;fill-rule:evenodd"
       id="path1269" />
    <g
       id="Layer1064">
      <path
         d="m 264.9951,390.6568 c -4.2817,-17.5215 -30.0449,-19.7209 -47.3392,-14.5477 -6.126,1.8294 -6.3514,10.1175 -12.9099,1.4713 12.8902,37.3324 48.6066,14.1849 60.2491,13.0764 z m 0.1197,0.4334 c -12.284,-23.167 -47.6488,-14.4277 -51.4432,-5.2119 8.4831,18.9032 41.7437,8.2965 51.4432,5.2119 z"
         style="fill:#1b1918;fill-rule:evenodd"
         id="path1271" />
      <g
         id="Layer1065">
        <path
           d="m 231.757,376.0508 c 3.359,-4.5961 9.4899,-5.5083 13.6901,-2.0356 4.2002,3.4719 4.8807,10.0154 1.521,14.6109 -3.359,4.5961 -9.4892,5.5083 -13.6894,2.0356 -4.2002,-3.4719 -4.8806,-10.0154 -1.5217,-14.6109 z"
           style="fill:#1b1918;fill-rule:evenodd"
           id="path1273" />
        <path
           d="m 233.3873,379.9064 c 0.8499,-1.4203 2.6402,-1.9133 3.999,-1.1003 1.3595,0.8129 1.7728,2.6235 0.923,4.0438 -0.8492,1.4203 -2.6402,1.9126 -3.999,1.1004 -1.3588,-0.813 -1.7721,-2.6235 -0.923,-4.0439 z"
           style="fill:#ffffff;fill-rule:evenodd"
           id="path1275" />
        <path
           d="m 237.6823,386.7721 c 0.3924,-0.6551 1.2191,-0.8825 1.846,-0.5075 0.6277,0.375 0.8181,1.2104 0.4264,1.8663 -0.3923,0.6559 -1.2191,0.8832 -1.846,0.5082 -0.6276,-0.3757 -0.818,-1.2111 -0.4264,-1.867 z"
           style="fill:#ffffff;fill-rule:evenodd"
           id="path1277" />
      </g>
      <path
         d="m 265.0949,391.5771 c -19.3981,-18.9613 -48.988,-9.6851 -51.9203,-6.5903 -3.5215,3.717 -2.447,-4.2823 4.3617,-9.1293 15.6384,-11.1315 41.8038,-2.1798 47.5586,15.7196 z"
         style="fill:#1b1918;fill-rule:evenodd"
         id="path1280" />
    </g>
    <path
       d="m 297.7935,354.6532 c -1.4871,0.9005 -1.5085,-10.6553 0.1755,-11.2462 30.8711,-10.8316 44.7473,-11.1047 67.762,11.042 0.0123,0.0118 -32.3412,-21.3525 -67.9375,0.2042 z"
       style="fill:#1b1918;fill-rule:evenodd"
       id="path1283" />
    <g
       id="Layer1066">
      <path
         d="m 292.5937,395.4848 c 1.1208,-0.1675 9.3788,-5.5243 13.7527,-5.6025 0.1412,-0.002 19.8972,-4.248 20.2601,-4.3944 3.3952,-1.3727 23.0497,0.0234 26.7883,0.6453 1.7423,0.2895 5.396,-6.8882 2.4116,1.7138 -7.1061,20.4803 -8.009,19.5688 -20.2718,17.4639 -13.5557,-2.3275 -8.6273,4.9404 -16.6634,-7.4491 -2.7623,-4.2582 -26.6421,5.8318 -25.9834,-2.0658 0.0277,-0.3276 -0.0174,-0.3527 -0.2941,-0.3112 z"
         style="fill:#ffffff;fill-rule:evenodd"
         id="path1285" />
      <path
         d="m 301.111,391.6218 c 8.5366,-7.702 41.049,-7.7893 51.693,-5.205 -3.1912,1.0487 -18.1743,0.7641 -24.0356,0.3304 -1.9766,-0.1469 -12.9652,1.2465 -20.5141,2.7808 -4.3078,0.8759 -7.7034,2.5991 -7.1433,2.0938 z"
         style="fill:#1b1918;fill-rule:evenodd"
         id="path1287" />
    </g>
    <g
       id="Layer1067">
      <g
         id="Layer1068">
        <path
           d="m 292.8031,604.3422 2.5158,-1.4663 c 1.1659,-0.7087 -0.5801,-0.7265 -0.8721,-0.8304 -6.1377,0.197 -5.7723,2.6932 -1.6437,2.2967 z m 68.6084,-7.7947 c 1.4131,-0.3912 4.2522,-8.0885 6.283,-16.2638 1.8995,-7.9176 2.766,-9.5249 5.5602,-16.8465 8.5892,-22.5042 -0.2303,-26.4133 -2.0445,-40.3126 0.2673,0.2457 0.1821,0.12 0.456,0.5775 0.0546,0.0913 0.2766,0.5816 0.316,0.684 1.8257,4.7792 5.2152,15.7538 5.6925,20.1841 1.3168,12.2288 -6.394,22.8342 -9.2243,35.9591 -0.9939,4.6093 -3.046,10.6306 -5.1598,14.7792 -0.5372,1.0535 -1.1922,1.5967 -1.9326,2.321 -0.0958,1.0261 -0.3404,1.2005 -0.4104,1.5383 -0.6299,2.3969 -1.6167,4.517 -4.198,5.7427 l -2.2264,1.3282 c -1.2023,1.6592 -1.2577,2.0257 -2.9045,3.3448 -3.8131,3.0544 -8.1469,3.1385 -12.6007,4.6056 -2.7619,1.2295 -6.3849,4.9772 -7.8545,6.7989 -2.1408,2.6535 -3.8003,5.1625 -7.2663,7.3492 -2.5691,1.6209 -8.851,3.8552 -14.8389,6.3494 -5.4788,2.2815 -10.646,4.8686 -13.8769,5.5952 -0.7791,0.1754 -0.769,-0.5512 -0.5602,-1.0834 0.5341,-1.3637 1.848,-2.521 3.1738,-3.4551 -0.7904,-4.6967 7.1969,-8.1446 14.8117,-10.9546 5.668,-2.6136 9.157,-5.5371 11.5362,-9.3903 -2.535,-1.5591 -12.8952,-2.9559 -13.8389,-4.1235 -1.6557,0.1448 -3.6173,0.5275 -4.8852,1.3587 -2.4201,1.56 -4.5412,1.894 -4.8848,1.2542 -0.3514,-0.655 0.9772,-3.0207 2.1337,-4.7215 -0.8047,-2.1867 -8.1563,-2.8191 -10.0937,-4.1988 -0.5612,-0.0428 -0.8083,-8e-4 -1.3935,-0.1517 -4.1092,-1.1453 -1.2884,-2.6135 1.6554,-3.0162 1.5326,-0.2097 2.986,0.0165 3.7253,0.368 1.0921,0.011 10.139,0.454 10.13,0.4229 0.3953,-0.7946 1.198,-1.9464 1.7552,-2.7942 0.5548,-0.8447 2.6999,-3.9843 2.9364,-4.8259 0.2926,-1.3554 -6.9523,-5.7114 -8.7539,-6.6221 -1.0284,-0.5193 -1.7862,-0.774 -2.3574,-1.1373 -1.1223,-0.7146 -0.4689,-1.1925 0.4309,-1.9393 2.0312,-1.6852 8.1764,0.3422 10.5034,1.5852 0.9607,0.5129 2.7317,1.7251 3.1404,2.7704 -2.4104,-1.9471 -7.6539,-5.1814 -10.2432,-1.8994 0.1463,0.9684 6.8941,4.1472 7.927,5.9597 1.4474,-0.0368 3.3057,-5.5513 3.9953,-7.0124 1.2085,-2.5604 2.0634,-4.9299 3.1486,-7.514 6.3088,-15.024 16.8134,-16.0329 22.3401,-23.4696 0.4299,-0.5786 0.8025,-1.1399 1.1256,-1.6854 0.5179,-0.4006 1.0601,-0.8293 1.5615,-1.2504 -0.7056,1.6627 -1.8294,3.2902 -3.4149,5.0626 -3.9887,4.459 -11.1647,7.6774 -15.2581,12.3414 -4.3548,4.9623 -5.8389,10.0959 -8.7755,16.7383 -2.4921,5.6379 -6.3537,12.1529 -9.4515,15.9776 l -0.005,0.0335 c 1.4099,0.695 3.3411,1.5451 4.1314,2.9113 -0.3756,0.4967 -0.5346,0.6108 -0.9609,1.091 -0.9153,1.0307 -1.8966,3.0199 -3.3772,3.9953 0.3676,0.1551 0.1114,0.2422 0.675,0.0772 2.1867,-0.5972 5.8955,-2.2384 7.5147,-3.4378 5.9072,-4.3765 8.7595,-18.5966 15.2301,-18.5693 1.4249,5.9347 -0.8013,9.8239 -1.4881,15.5289 -0.3686,3.4076 -2.6535,9.2362 -4.5288,11.9416 -1.509,2.1773 -3.888,4.587 -6.9362,6.5044 -4.2025,2.6439 -19.3595,6.8441 -19.1812,12.3428 1.2192,-0.6491 2.4234,-1.311 3.7777,-1.724 0.8599,-0.2625 0.7847,-0.3885 1.217,0.2767 0.5994,0.9223 1.2041,1.7334 0.6334,2.3218 l -1.4722,-1.8614 c -2.8523,0.7032 -5.8812,2.6465 -6.9624,4.6357 -0.1885,0.3463 -0.1854,0.785 0.2678,0.6352 2.0781,-0.6868 3.94,-1.5847 5.5434,-2.0901 l 3.1964,-1.4892 c 3.3831,-1.4816 6.8009,-3.0378 10.3185,-4.4369 3.7656,-1.4978 7.1893,-2.6052 10.1182,-4.835 4.1351,-3.1478 7.8044,-10.6884 14.4795,-13.5778 0.4716,-0.7649 4.4452,-5.4235 4.5695,-5.4614 -0.4636,1.275 -0.9153,2.1058 -2.8458,4.4924 -0.4267,0.5274 -0.4973,0.702 -0.9357,0.8739 l 1.6822,-0.4734 c 13.3731,-1.9275 12.1457,-9.6178 13.2191,-10.1784 0.2851,0.9198 -0.7099,3.6081 0.5078,2.5582 0.9981,-0.8603 1.7384,-0.8767 2.9806,-2.3565 2.3941,-2.8506 1.4647,-6.7431 2.5809,-8.5139 0.1335,1.4024 0.1859,1.772 0.1602,2.457 z m -42.7642,9.403 6.4542,0.2378 c 1.2471,-0.0585 2.8187,0.4868 2.6752,-1.7247 -0.5642,0.0714 -4.8893,-2.2922 -6.581,-2.7659 -0.7209,1.724 -1.769,2.8077 -2.5484,4.2528 z m 6.5441,0.8881 c -1.8506,0.3477 -6.353,-0.6226 -7.2551,-0.2518 -0.1721,0.0704 -2.2081,1.6317 -2.7291,1.9894 -1.4879,1.0215 -2.5139,1.3009 -4.0359,2.024 l 0.5787,0.4006 c 1.77,0.0746 4.5439,1.1298 6.4361,1.6515 1.8032,0.4977 4.9838,1.6858 6.424,1.9133 1.6189,-2.0259 2.054,-4.6785 2.9079,-7.1694 -0.2213,-0.8439 0.2525,-0.3083 -0.3517,-0.624 -1.1374,0.292 -1.1208,0.3638 -1.9749,0.0664 z m 4.0944,-9.2975 c -0.2822,-0.9524 0.4539,-0.5087 -1.0425,-0.5003 -1.0961,0.006 -3.212,-0.4013 -4.066,-1.0178 -0.7466,0.7195 -2.0872,3.8373 -2.2866,5.0014 1.7251,0.2428 5.8385,3.0427 6.1812,2.5584 0.4859,-0.6857 1.0556,-3.5263 1.2139,-6.0417 z m 0.2064,-7.1415 c -2.1778,0.9611 -4.1311,3.0865 -4.8537,4.872 1.881,0.5827 2.1727,0.9595 5.0806,0.6483 0.0229,-1.4538 0.9189,-4.3716 -0.2269,-5.5203 z m -28.1976,-3.3798 c 0.7195,0.4508 1.0795,0.5426 1.6437,0.7012 0.7157,-1.1554 1.8453,-1.7012 2.4735,-2.2525 -1.7322,-0.3524 -3.1572,-0.9381 -4.3814,0.2557 -0.7028,0.6841 -0.5557,0.7816 0.2642,1.2956 z m 5.7737,16.9117 c 0.2377,0.1269 0.7278,0.3278 1.1318,0.4225 0.5868,0.4762 1.4195,0.6534 1.9956,1.7015 -3.2244,3.8241 -4.0246,6.3318 -7.8197,7.0672 -0.9248,0.1791 -1.137,0.2632 -0.9341,-0.5699 0.6625,-2.7228 4.5497,-5.2001 5.6264,-8.6213 z m -13.3375,0.7551 c 2.0254,0.5744 7.1243,2.0218 8.7203,3.1555 1.0882,0.7726 0.0908,0.4592 1.0394,0.5076 1.3123,-1.2978 1.5153,-2.45 2.1749,-3.941 0.2672,-0.6042 0.2876,-0.5132 0.4315,-1.0768 -2.6345,-0.859 -10.9231,-1.0649 -12.3661,1.3547 z"
           style="fill:#1b1918;fill-rule:evenodd"
           id="path1290" />
        <path
           d="m 307.21,603.1084 c 0.8221,1.3194 2.1393,1.4074 2.9857,2.9471 -0.0272,0.0326 -3.1717,6.0338 -6.7302,6.9108 -1.7182,0.4234 -3.2396,1.1743 -2.0654,-1.0932 0.6728,-1.2999 2.0166,-2.9235 3.1437,-4.6282 1.3499,-2.0425 2.4585,-4.078 2.6662,-4.1365 z"
           style="fill:#e30016;fill-rule:evenodd"
           id="path1292" />
        <path
           d="m 301.3801,637.4885 c -1.6042,0.5059 -3.4641,1.388 -5.4937,2.0711 -0.5091,0.171 -0.5486,-0.1813 -0.3403,-0.5739 1.0606,-2.004 4.1127,-3.9698 6.9852,-4.678 l 1.2427,1.5431 c 0.7303,0.5791 0.069,0.49 -2.3939,1.6377 z"
           style="fill:#e30016;fill-rule:evenodd"
           id="path1294" />
        <path
           d="m 300.5048,586.3693 c 1.3392,-2.0154 2.9206,-1.3051 4.907,-0.9008 -1.0352,1.3829 -1.6957,0.633 -1.9882,2.4241 -0.7947,-0.2236 -2.1448,-0.6534 -2.9188,-1.5233 z"
           style="fill:#e30016;fill-rule:evenodd"
           id="path1296" />
        <path
           d="m 289.5166,603.4306 c 0.4766,-1.2523 5.8346,-1.76 6.0193,-1.2081 l 0.3398,0.2059 -0.0985,0.3832 -2.9741,1.5306 c -0.9561,0.0923 -2.5864,0.4113 -3.2865,-0.9116 z"
           style="fill:#e30016;fill-rule:evenodd"
           id="path1298" />
      </g>
      <path
         d="m 342.7258,555.9634 c 4.8467,-5.6825 8.9521,-16.2159 9.9426,-29.7774 0.8945,-12.2475 -0.8689,-27.0743 -4.673,-41.4777 l -0.8838,0.2336 c 3.7778,14.3031 4.8523,28.5494 3.9648,40.7024 -1.3331,18.2499 -1.9796,15.717 -8.3506,30.3191 z"
         style="fill:#1b1918;fill-rule:evenodd"
         id="path1301" />
      <path
         d="m 376.6869,537.8333 c -0.9139,-5.8044 -1.8174,-18.6722 -2.0649,-27.5054 -0.2392,-8.5441 -0.4537,-16.199 -1.2159,-18.6194 l -0.8704,0.276 c 0.72,2.2857 0.9329,9.8861 1.1704,18.3691 0.2478,8.8503 0.3982,16.8108 1.3251,22.6968 z"
         style="fill:#1b1918;fill-rule:evenodd"
         id="path1303" />
    </g>
    <g
       id="Layer1069">
      <path
         d="m 158.8524,483.9462 c 5.945,-11.6332 11.8901,-23.2665 17.8351,-34.8996 1.3196,-4.1126 2.639,-8.2252 3.9586,-12.3379 0.2649,-18.4275 6.7662,-35.9531 11.3281,-53.7592 1.6168,-3.5578 3.2872,-5.6061 9.5223,-9.3123 4.3928,-3.0133 7.0013,-3.3535 11.4811,-0.838 1.9875,0.6932 4.2796,0.5447 6.4896,2.0235 5.5488,-2.3712 9.9838,-1.2816 13.467,8.3403 4.0811,-1.7428 7.5359,-0.628 9.9915,5.0446 6.81,-1.0772 11.2775,1.1123 9.6502,11.8028 -1.672,14.522 -4.921,21.4289 -9.7108,20.8952 -1.0695,11.922 -10.2947,22.8968 -19.5845,33.8641 -4.2813,5.6763 -8.9818,10.3809 -14.0096,14.3266 -6.4294,12.3978 -12.8588,24.7955 -19.2882,37.1934 -10.3768,-7.4479 -20.7536,-14.8957 -31.1304,-22.3435 z M 207.525,380.4598 c 1.2611,1.2384 2.7746,2.125 5.277,1.6322 -2.2401,3.7645 -4.4802,7.5291 -6.7203,11.2935 -1.2279,0.9105 -2.3451,0.6685 -3.2629,-1.6475 0.0226,-2.3306 0.0453,-4.6611 0.068,-6.9917 1.546,-1.4288 3.0921,-2.8577 4.6382,-4.2865 z"
         style="fill:#1b1918;fill-rule:evenodd"
         id="path1306" />
      <path
         d="m 243.9097,420.0142 c 0.4514,0.0503 0.9237,0.0176 1.3927,-0.164 1.8618,-0.7214 2.8612,-4.5667 3.4683,-6.1947 0.7271,-1.9503 1.2375,-3.9925 1.6475,-5.9692 0.5614,-2.7058 0.9527,-5.4276 1.2629,-8.1221 l 0.003,-0.0238 0.004,-0.0239 c 0.5228,-3.435 0.7897,-8.2479 -2.2203,-10.0297 -1.6905,-1.0007 -4.0936,-0.908 -6.2091,-0.5734 0.6318,1.3796 1.8582,8.6728 1.7413,9.8889 -0.1177,1.2256 -0.2773,4.7613 -0.9015,8.2831 -0.4919,2.7756 -0.451,4.8335 -0.5757,6.722 -0.1299,1.9648 -1.2911,5.3848 0.3875,6.2068 z m -10.8373,-19.6964 c 0.8003,-3.2157 0.788,-6.8063 0.6925,-16.4709 3.0777,-1.4891 6.5404,-0.8903 9.7212,7.7436 0.6452,2.9743 0.9353,10.9494 -0.193,17.2766 -1.0693,5.9972 -2.8822,10.4715 -8.6018,7.488 -3.7395,-1.9509 0.4942,-10.0402 -1.6189,-16.0373 z m -0.5447,2.0101 c -0.3518,0.6655 -1.1822,0.6804 -2.7316,1.0284 -4.2997,0.9659 -7.8911,-3.3227 -7.8567,-8.8186 -1.8949,-1.166 -5.8161,-2.4643 -7.711,-3.6304 -9.0849,2.614 -0.7506,15.4641 6.8575,17.6772 0.7965,2.1539 -0.0508,6.7834 0.7457,8.9373 3.467,1.1227 6.9341,2.2455 10.4011,3.3682 -3.1985,-0.6538 -6.3971,-1.3076 -9.5956,-1.9614 1.3216,1.9112 2.6432,3.8226 3.9648,5.7338 -1.9885,-2.1511 -3.9769,-4.3022 -5.9654,-6.4533 -4.6969,0.092 -8.8825,4.1664 -11.9214,9.5387 2.3913,-5.9852 5.6847,-9.8169 10.7793,-10.1574 1.6974,-0.1134 1.3233,-8.194 0.0166,-8.7789 -5.5614,-2.4893 -8.4264,-4.9246 -9.1748,-8.121 -1.4007,-5.9811 -0.0669,-10.8088 3.473,-10.5585 2.5886,0.183 8.4949,5.1992 8.4427,2.7975 -0.0228,-1.0484 1.046,-4.1634 -1.9138,-3.4503 -1.0542,0.0323 -2.2165,-0.2221 -3.2662,0.1733 -2.4473,-0.004 -2.7496,-1.3575 -2.3075,-2.959 0.1214,1.991 1.3738,2.9649 4.2149,2.3227 2.9488,-1.0741 5.2222,0.2477 4.0112,3.3446 -1.7384,9.549 7.6896,13.3167 8.9826,8.041 0.3261,-5.4894 0.633,-10.7771 0.9591,-16.2665 -3.4887,-6.2797 -4.3405,-11.3775 -12.7649,-8.8822 1.8916,2.6586 -0.1225,4.0705 -4.3894,6.5879 l -0.004,0.0112 -1.9155,0.2634 c -0.6195,0.0851 -5.0296,6.6263 -6.7106,10.5163 l -0.3499,0.8096 c -0.2703,0.6256 -0.8834,0.9448 -1.5348,1.0142 -1.7919,0.1912 -2.492,-1.1543 -3.0286,-2.5086 l -0.0774,-0.1951 0.002,-0.224 c 0.0227,-2.3305 -0.0973,-4.3144 0.1686,-6.6792 l 0.0782,-0.6958 c 1.3574,-1.2543 2.162,-1.4892 3.0647,-2.7274 l 1.7105,-2.3461 0.935,1.2035 c 3.6421,4.6875 15.2183,-1.5652 10.7259,-4.7484 -0.5835,-0.4561 -3.0299,-1.7759 -3.8061,-1.8592 -0.8474,-0.091 -1.9174,-0.0318 -2.6949,-0.303 l -0.0848,-0.0296 -0.0767,-0.0431 c -3.5428,-2.4358 -5.919,-1.5222 -10.1589,1.0001 -2.6457,1.5726 -5.2938,2.2848 -7.0488,4.9357 -0.478,0.7221 -2.039,3.2065 -2.3926,3.9762 -1.0742,4.184 -1.6461,8.2956 -2.8282,12.4716 -3.8842,13.7203 -7.6188,27.1365 -7.815,40.7859 l -0.003,0.1952 -0.0632,0.1972 c -1.3196,4.1127 -2.6391,8.2253 -3.9586,12.3379 l -0.0377,0.1171 -0.0575,0.1125 c -5.7833,11.317 -16.2669,30.7535 -22.0503,42.0704 9.7338,6.9863 20.6821,12.7546 30.4158,19.7407 6.1598,-11.8777 15.8051,-30.6572 21.9648,-42.5349 l 0.1671,-0.3223 0.292,-0.2291 c 1.8961,-1.4879 11.3064,-11.2608 11.3232,-11.2495 14.2794,-14.1478 22.1496,-28.1715 22.0354,-37.4257 0.0221,-1.0734 0.8265,-3.6342 -0.0534,-3.0265 -4.4578,3.0787 -7.9932,1.2342 -8.736,-0.6554 -1.8214,-4.6326 0.5647,-10.7777 -0.6472,-13.4689 z"
         style="fill:#ffffff;fill-rule:evenodd"
         id="path1308" />
      <path
         d="m 230.2259,410.6528 c 0.4412,-0.1684 5.1228,-18.6709 -1.1819,-17.5362 -4.5249,0.8144 -1.9815,18.7432 1.1819,17.5362 z"
         style="fill:#e30016;fill-rule:evenodd"
         id="path1310" />
      <path
         d="m 237.5179,425.4523 c 0.5739,-0.087 10.353,-17.4567 2.4323,-17.4655 -5.6847,-0.006 -6.5472,18.0885 -2.4323,17.4655 z"
         style="fill:#e30016;fill-rule:evenodd"
         id="path1312" />
      <path
         d="m 245.8479,423.3629 c 0.3755,-0.0569 6.7737,-11.4214 1.5914,-11.4272 -3.7193,-0.004 -4.2836,11.8348 -1.5914,11.4272 z"
         style="fill:#e30016;fill-rule:evenodd"
         id="path1314" />
      <path
         d="m 224.4197,375.5379 c 0.3612,-0.1089 -5.6153,-1.9802 -10.7667,-2.5397 -3.6971,-0.401 4.6298,4.3933 10.7667,2.5397 z"
         style="fill:#e30016;fill-rule:evenodd"
         id="path1316" />
      <path
         d="m 219.8062,393.1238 c 0.339,0.377 -5.1927,-4.4852 -12.13,-5.2368 -3.5012,-0.3787 2.1777,7.9281 2.6271,5.9655 1.4654,-6.3992 9.2864,-0.9698 9.5029,-0.7287 z"
         style="fill:#e30016;fill-rule:evenodd"
         id="path1318" />
    </g>
    <path
       d="m 171.4153,275.4663 c 13.7806,18.0727 8.6581,21.439 0.4105,46.5293 -5.0407,15.3341 21.4621,-2.2919 44.1512,-2.8587 11.9085,-0.2975 119.059,-25.6333 138.2479,-43.8544 3.5009,-3.325 0.6327,-3.0926 -0.8202,-8.8333 -2.0291,-8.0211 0.6581,-9.5297 -2.1478,-10.4853 -3.3134,-1.1279 -10.4071,1.8033 -20.2025,7.7011 -4.5701,2.7523 -50.7961,4.7286 -69.1714,9.5659 -26.0192,6.8497 -78.7532,-14.3315 -90.4677,2.2354 z"
       style="fill:#1b1918;fill-rule:evenodd"
       id="path1321" />
    <path
       d="m 364.6458,256.2361 c 23.1358,-14.2909 32.6047,-18.119 56.7431,-7.9009 23.9183,10.1248 36.4501,-2.2173 -2.8595,19.7146 -13.2774,7.4086 -44.4314,21.0588 -57.9948,6.8548 -5.2701,-5.5192 -0.1882,-16.0124 4.1112,-18.6685 z"
       style="fill:#1b1918;fill-rule:evenodd"
       id="path1323" />
    <g
       id="Layer1070">
      <path
         d="m 416.4966,203.1401 c -4.8785,1.7287 -13.6401,4.2994 -18.5635,5.8956 -7.2645,2.3557 -14.718,6.9656 -21.9029,9.5196 -12.5796,4.4717 -20.5507,4.3138 -19.2194,18.3072 0.3113,3.2772 1.9271,10.7604 1.3421,14.0267 l -0.0311,0.1854 c 3.7188,-4.6353 8.126,-9.044 10.1762,-13.1689 3.1903,-6.4183 5.8217,-2.7473 -1.5847,6.7774 -2.9254,3.7622 -4.8546,6.2228 -5.9702,7.7097 0.3142,0.1325 0.5654,0.2997 0.7638,0.4959 2.8305,-2.2434 8.3822,-6.7079 14.4682,-9.4153 12.8677,-5.7248 16.5539,-7.1075 3.4922,4.1234 l -0.3778,0.3301 c 5.9788,-2.9992 11.2091,-4.788 16.6834,-5.239 0.5169,-0.6493 1.0164,-1.3074 1.4957,-1.9756 1.4891,-2.0762 2.4801,-0.8506 3.6435,-3.1439 2.1268,-4.1944 7.0299,-12.2792 9.012,-16.5438 1.7889,-3.8498 7.8046,-18.3217 6.5725,-17.8845 z"
         style="fill:#000000;fill-rule:evenodd"
         id="path1325" />
      <path
         d="m 352.7648,254.7231 c -0.4517,0.1875 -0.9397,0.6544 -1.4095,1.2756 2.643,0.9584 0.0449,2.5257 2.0494,10.4505 1.3523,5.3432 3.9288,5.5119 1.4573,8.1904 0.375,0.3786 0.8701,0.645 1.5275,0.7399 0.6204,0.0897 2.7262,0.047 4.4883,-0.1332 -0.1144,-0.1137 -0.231,-0.2244 -0.3432,-0.3417 -3.4603,-3.624 -2.4577,-9.3929 -0.1433,-13.6792 l -0.118,-0.1701 c -1.2517,-1.7324 -0.1998,-3.4264 0.0391,-5.3368 0.055,-0.4358 0.2671,-2.2022 0.249,-2.9246 -1.1402,7e-4 -6.8302,1.7091 -7.7966,1.9292 z"
         style="fill:#000000;fill-rule:evenodd"
         id="path1327" />
      <path
         d="m 183.562,293.0193 c 0.1252,2.3447 22.0572,-6.0716 19.8644,-5.302 -18.9414,6.6485 -21.5265,16.2469 -22.1723,18.2095 -1.8937,5.7609 -4.0916,11.4249 -5.9897,17.1989 -0.1006,0.3062 -0.3011,0.9729 -0.396,1.5246 2.3419,0.0217 8.0645,-1.7193 9.5536,-2.1696 6.5638,-1.985 13.3361,-2.457 20.0693,-3.8491 3.852,-0.797 7.7886,-1.3624 11.7253,-1.4602 2.6445,-0.0666 6.1946,-0.8216 8.808,-1.3132 5.6133,-1.0547 11.2121,-2.2781 16.7797,-3.5515 15.3754,-3.5154 32.3702,-8.8282 47.5146,-13.2304 15.8235,-4.5991 30.4365,-10.1059 45.5296,-16.7298 4.8864,-2.1443 10.4338,-4.7591 14.7448,-7.9255 0.7601,-0.5589 4.0568,-3.199 3.9468,-4.3218 -0.0275,-0.2823 -0.7174,-0.8644 -0.9114,-1.0128 -0.6986,-15.5078 -23.9915,9.542 -24.5055,7.4752 -0.2881,-1.1582 11.6668,-12.0851 22.0152,-14.3683 2.069,-0.4568 0.5545,-4.3378 0.5922,-4.6556 0.0847,-0.7044 -1.4414,0.5878 -1.2944,-0.1006 -5.247,2.4744 -13.1066,6.4205 -15.1922,7.6757 -2.782,1.6759 -12.9879,4.1474 -16.3215,4.5209 -8.2621,0.9259 -20.5152,0.6776 -28.7831,1.555 -5.6582,0.6009 -11.3229,1.2444 -16.955,2.0545 -4.4224,0.6356 -9.0244,1.3595 -13.3462,2.4968 -12.0366,3.1686 -26.0199,0.4488 -38.2809,-1.243 -9.9518,-1.3733 -20.5797,-3.1621 -30.6139,-3.2265 -25.0796,-0.1643 -7.1133,7.9935 -6.3814,21.7488 z"
         style="fill:#000000;fill-rule:evenodd"
         id="path1329" />
      <path
         d="m 440.5084,254.608 c -4.7149,-0.8853 -16.0993,-1.0634 -20.5304,-2.9398 -23.6831,-10.0249 -35.6503,-7.0134 -56.72,6.002 -0.9939,0.6146 16.9492,-7.1683 16.6075,-5.4627 -0.3424,1.707 -18.502,8.4416 -18.3666,10.3463 0.1571,2.1985 -3.4669,8.9093 1.6534,9.8511 13.5337,17.099 42.3675,1.463 53.6136,-7.5158 5.6003,-3.1251 18.0568,-7.3188 23.7425,-10.2811 z"
         style="fill:#000000;fill-rule:evenodd"
         id="path1331" />
    </g>
    <g
       id="Layer1071">
      <g
         id="Layer1072">
        <path
           d="m 356.9476,238.0252 c 3.1346,0.1447 6.0534,2.0704 7.3123,5.1687 0.0543,0.134 0.105,0.2686 0.1521,0.4033 -1.9633,2.4164 -4.2321,4.9125 -6.2902,7.4774 l 0.0311,-0.1854 c 0.5234,-2.9232 -0.7166,-9.2234 -1.2053,-12.864 z m 7.8871,9.0721 c -0.1752,1.8373 -0.9599,3.5769 -2.2311,4.9234 l -1.0967,0.868 c -0.1984,-0.1962 -0.4496,-0.3634 -0.7638,-0.4959 0.8564,-1.1416 2.1928,-2.8573 4.0916,-5.2955 z"
           style="fill:#e30016;fill-rule:evenodd"
           id="path1334" />
        <g
           id="Layer1073">
          <path
             d="m 381.0831,216.4928 c -0.8868,1.277 -2.1413,2.3202 -3.6891,2.9493 -1.686,0.6856 -3.4661,0.7753 -5.1072,0.3706 1.1959,-0.3836 2.4446,-0.7955 3.7434,-1.2574 1.6715,-0.5943 3.3582,-1.3002 5.0529,-2.0625 z"
             style="fill:#e30016;fill-rule:evenodd"
             id="path1336" />
          <path
             d="m 408.9859,205.592 c -0.8375,0.9867 -1.9183,1.7925 -3.2004,2.3137 -1.7526,0.7123 -3.6066,0.7818 -5.3013,0.32 2.5511,-0.7985 5.5901,-1.7244 8.5017,-2.6337 z"
             style="fill:#e30016;fill-rule:evenodd"
             id="path1338" />
          <path
             d="m 380.6915,227.558 c 4.2472,-1.7258 9.0881,0.3178 10.8139,4.5643 1.7258,4.2472 -0.3178,9.0881 -4.565,10.8139 -0.9484,0.3859 -1.9278,0.5828 -2.8943,0.6096 6.5124,-6.0194 3.713,-5.2427 -4.9328,-1.4594 -1.2936,-0.8883 -2.3513,-2.1523 -2.9861,-3.7152 -1.7259,-4.2465 0.3178,-9.0881 4.5643,-10.8132 z"
             style="fill:#e30016;fill-rule:evenodd"
             id="path1340" />
          <path
             d="m 409.0829,216.0216 c 1.0722,-0.4358 2.1827,-0.6313 3.2707,-0.6117 -0.9831,2.3657 -1.8952,4.4644 -2.4295,5.6147 -0.9439,2.032 -2.5518,4.9306 -4.2059,7.8625 -0.4851,-0.6081 -0.8919,-1.2951 -1.1996,-2.0523 -1.7258,-4.2465 0.3178,-9.0881 4.5643,-10.8132 z"
             style="fill:#e30016;fill-rule:evenodd"
             id="path1342" />
        </g>
      </g>
      <g
         id="Layer1074">
        <path
           d="m 360.5296,253.6126 c -0.2679,0.1448 -0.5459,0.2773 -0.8347,0.3946 -1.7801,0.7239 -3.6652,0.7847 -5.3816,0.2982 2.0689,-0.5762 5.404,-1.5108 6.2481,-1.5115 0.005,0.2063 -0.009,0.498 -0.0318,0.8187 z"
           style="fill:#e30016;fill-rule:evenodd"
           id="path1346" />
        <path
           d="m 360.3348,275.297 c -0.9411,-0.8253 -1.7099,-1.8757 -2.213,-3.1136 -1.1235,-2.7654 -0.6486,-5.7827 0.9918,-8.0276 -1.2611,3.734 -1.2966,7.9031 1.421,10.7488 0.1122,0.1173 0.2288,0.228 0.3432,0.3417 z"
           style="fill:#e30016;fill-rule:evenodd"
           id="path1348" />
      </g>
      <g
         id="Layer1075">
        <g
           id="Layer1076">
          <path
             d="m 180.7098,283.769 c 2.121,0.7775 3.9185,2.4128 4.8357,4.67 0.648,1.5948 0.7645,3.2743 0.4322,4.8401 -1.4536,0.2491 -2.3904,0.2194 -2.4157,-0.2598 -0.1839,-3.4502 -1.4515,-6.5472 -2.8522,-9.2503 z"
             style="fill:#e30016;fill-rule:evenodd"
             id="path1351" />
          <path
             d="m 203.1245,272.3376 c 0.1332,-0.0543 0.2671,-0.105 0.4018,-0.1513 2.4476,0.2787 4.898,0.6008 7.3326,0.9382 1.3364,0.8911 2.4287,2.1775 3.0788,3.7774 1.7259,4.2465 -0.3178,9.0881 -4.565,10.8139 -2.0227,0.8217 -4.1807,0.7876 -6.0723,0.0681 0.3091,-0.1217 0.3757,-0.1542 0.126,-0.0666 l -0.1549,0.0557 c -2.0661,-0.7941 -3.8129,-2.4085 -4.712,-4.6222 -1.7259,-4.2466 0.3178,-9.0881 4.565,-10.8132 z"
             style="fill:#e30016;fill-rule:evenodd"
             id="path1353" />
          <path
             d="m 236.296,276.6239 c -1.7888,0.3663 -3.6065,0.1209 -5.1934,-0.6262 1.7215,0.2302 3.456,0.4438 5.1934,0.6262 z"
             style="fill:#e30016;fill-rule:evenodd"
             id="path1355" />
          <path
             d="m 184.2787,307.3681 c 4.2465,-1.7251 9.0881,0.3185 10.8139,4.565 1.2061,2.9688 0.5697,6.2287 -1.3733,8.5105 -3.1273,0.5139 -6.2351,1.1112 -9.2973,2.0371 l -0.4474,0.1346 c -1.8684,-0.847 -3.4277,-2.3831 -4.261,-4.4333 -1.7251,-4.2465 0.3186,-9.0881 4.5651,-10.8139 z"
             style="fill:#e30016;fill-rule:evenodd"
             id="path1357" />
          <path
             d="m 212.6709,295.8317 c 4.2465,-1.7258 9.0881,0.3178 10.8132,4.5643 1.7258,4.2465 -0.3178,9.0881 -4.5643,10.8139 -4.2466,1.7259 -9.0882,-0.3185 -10.814,-4.565 -1.7251,-4.2465 0.3185,-9.0881 4.5651,-10.8132 z"
             style="fill:#e30016;fill-rule:evenodd"
             id="path1359" />
          <path
             d="m 241.0623,284.2946 c 4.2465,-1.7251 9.0881,0.3185 10.8132,4.565 1.7259,4.2465 -0.3178,9.0881 -4.5643,10.8139 -4.2465,1.7251 -9.0881,-0.3185 -10.8139,-4.565 -1.7258,-4.2465 0.3185,-9.0881 4.565,-10.8139 z"
             style="fill:#e30016;fill-rule:evenodd"
             id="path1361" />
        </g>
        <g
           id="Layer1077">
          <path
             d="m 273.8704,273.0057 c 2.284,0.7146 4.2429,2.4071 5.2144,4.7982 1.7259,4.2465 -0.3178,9.0874 -4.565,10.8132 -4.2465,1.7258 -9.0881,-0.3178 -10.8132,-4.5643 -1.4949,-3.6783 -0.1615,-7.8017 2.9804,-9.9612 1.8416,-0.3127 3.6847,-0.5878 5.4974,-0.8484 z"
             style="fill:#e30016;fill-rule:evenodd"
             id="path1364" />
          <path
             d="m 308.0402,270.2758 c -0.3178,2.9392 -2.1985,5.614 -5.129,6.8049 -4.2465,1.7258 -9.0881,-0.3178 -10.8132,-4.5651 -0.2077,-0.5103 -0.3598,-1.0301 -0.4611,-1.5513 4.9364,-0.3757 10.8487,-0.4771 16.4033,-0.6885 z"
             style="fill:#e30016;fill-rule:evenodd"
             id="path1366" />
        </g>
        <path
           d="m 250.3025,307.0358 c 2.7907,-1.1336 5.8377,-0.6399 8.0883,1.036 -4.2313,1.1684 -8.4337,2.2789 -12.5463,3.28 0.842,-1.893 2.3875,-3.4748 4.458,-4.316 z"
           style="fill:#e30016;fill-rule:evenodd"
           id="path1369" />
        <g
           id="Layer1078">
          <path
             d="m 277.5117,295.9801 c 3.8868,-1.5796 8.2708,-10e-4 10.3094,3.5327 -5.0124,1.4645 -10.2123,3.0173 -15.4767,4.5636 -0.1679,-3.4241 1.812,-6.7332 5.1673,-8.0963 z"
             style="fill:#e30016;fill-rule:evenodd"
             id="path1371" />
          <path
             d="m 305.9032,284.443 c 4.2465,-1.7251 9.0881,0.3185 10.8132,4.565 0.097,0.2389 0.1817,0.4793 0.2548,0.721 -5.155,1.9858 -10.3332,3.8484 -15.6034,5.5981 l -0.0296,-0.0702 c -1.7251,-4.2465 0.3185,-9.0881 4.565,-10.8139 z"
             style="fill:#e30016;fill-rule:evenodd"
             id="path1373" />
          <path
             d="m 334.2954,272.9066 c 4.2031,-1.7085 8.9889,0.2765 10.7589,4.4347 -3.3148,1.8988 -6.9105,3.5595 -10.2058,5.0052 -1.6035,0.7036 -3.2012,1.395 -4.7953,2.0733 -0.1165,-0.2259 -0.2251,-0.4597 -0.3229,-0.7 -1.7258,-4.2465 0.3178,-9.0881 4.5651,-10.8132 z"
             style="fill:#e30016;fill-rule:evenodd"
             id="path1375" />
        </g>
      </g>
      <g
         id="Layer1079">
        <path
           d="m 362.6868,261.3702 c 4.2466,-1.7259 9.0874,0.3178 10.8133,4.5643 1.7258,4.2465 -0.3178,9.0881 -4.5651,10.8139 -0.2237,0.0905 -0.4481,0.1701 -0.6747,0.2404 -1.8648,-1.1518 -3.5841,-2.6583 -5.108,-4.5839 -5.1203,-0.9418 -1.4963,-7.6526 -1.6534,-9.8511 -0.0196,-0.2737 0.3395,-0.6472 0.9672,-1.0903 z"
           style="fill:#e30016;fill-rule:evenodd"
           id="path1379" />
        <g
           id="Layer1080">
          <path
             d="m 389.9323,250.2985 c 4.2466,-1.7251 9.0881,0.3185 10.814,4.5651 1.7251,4.2465 -0.3186,9.0881 -4.5651,10.8139 -4.2465,1.7251 -9.0881,-0.3185 -10.8139,-4.5651 -1.7251,-4.2465 0.3185,-9.0881 4.565,-10.8139 z"
             style="fill:#e30016;fill-rule:evenodd"
             id="path1381" />
          <path
             d="m 426.4266,253.0943 c -0.5581,0.417 -1.1778,0.7717 -1.8539,1.0461 -4.2465,1.7258 -9.0881,-0.3178 -10.8139,-4.5644 -0.0522,-0.1274 -0.0992,-0.2555 -0.1448,-0.3844 2.0298,0.7131 4.1451,1.5376 6.364,2.4766 1.5166,0.6421 3.8483,1.0859 6.4486,1.4261 z"
             style="fill:#e30016;fill-rule:evenodd"
             id="path1383" />
          <path
             d="m 399.4787,273.7926 c 1.3783,-0.5595 2.8197,-0.7224 4.1958,-0.5422 -2.517,1.2973 -5.184,2.512 -7.9218,3.5451 0.8889,-1.3016 2.1565,-2.3651 3.726,-3.0029 z"
             style="fill:#e30016;fill-rule:evenodd"
             id="path1385" />
        </g>
      </g>
    </g>
  </g>
</svg>
