<?xml version="1.0" encoding="UTF-8" standalone="no"?>
<svg version="1.1" width="211.51735" height="506.35818" id="svg1073" viewBox="0 0 211.51735 506.35819"
    xmlns="http://www.w3.org/2000/svg">
  <defs
     id="defs1077" />
  <path
     d="m -51.436057,-182.9648 c 0,3.1414 0.6378,5.4644 1.9055,6.9679 1.2756,1.5043 2.8187,2.2598 4.6301,2.2598 1.8422,0 3.4169,-0.7796 4.7236,-2.3383 1.315,-1.5591 1.9684,-3.9683 1.9684,-7.2357 0,-3.1179 -0.6378,-5.4485 -1.921,-6.9996 -1.2833,-1.5514 -2.8109,-2.3225 -4.5905,-2.3225 -1.7637,0 -3.3224,0.8263 -4.6768,2.4718 -1.3618,1.6538 -2.0393,4.0476 -2.0393,7.1966 z m -3.7791,21.5108 v -33.9194 h 3.7791 v 3.2201 c 0.8901,-1.2438 1.8975,-2.1804 3.0237,-2.8026 1.118,-0.6222 2.4801,-0.9374 4.0785,-0.9374 2.0943,0 3.9365,0.5358 5.5352,1.6141 1.5979,1.0709 2.8027,2.5908 3.6219,4.543 0.8107,1.9608 1.22,4.1023 1.22,6.4406 0,2.4965 -0.4484,4.7478 -1.3462,6.7559 -0.8977,1.9998 -2.2045,3.5353 -3.9209,4.606 -1.7084,1.063 -3.5118,1.5981 -5.4011,1.5981 -1.3859,0 -2.6303,-0.2914 -3.7244,-0.8739 -1.1024,-0.5825 -1.9999,-1.315 -2.7083,-2.2045 v 11.96 z m -23.156,-23.9987 h 13.6528 c -0.1814,-2.0628 -0.7086,-3.606 -1.5667,-4.6378 -1.3153,-1.5979 -3.0316,-2.4009 -5.1338,-2.4009 -1.9055,0 -3.5036,0.6378 -4.803,1.9134 -1.2912,1.2753 -2.0075,2.984 -2.1493,5.1253 z m 13.6055,6.6611 4.299,0.5669 c -0.6695,2.4957 -1.921,4.4408 -3.748,5.8184 -1.8266,1.3782 -4.1573,2.0707 -6.9996,2.0707 -3.5742,0 -6.4088,-1.1021 -8.5033,-3.3066 -2.0945,-2.1968 -3.1414,-5.2911 -3.1414,-9.2673 0,-4.1099 1.0551,-7.3066 3.1726,-9.574 2.118,-2.2759 4.8659,-3.4098 8.244,-3.4098 3.2675,0 5.9366,1.1103 8.0073,3.3389 2.0707,2.2278 3.1101,5.3615 3.1101,9.4006 0,0.2443 -0.008,0.6142 -0.0235,1.1024 h -18.2588 c 0.1573,2.6849 0.9133,4.7477 2.2833,6.173 1.3618,1.425 3.0705,2.1413 5.1097,2.1413 1.52,0 2.8188,-0.4011 3.8897,-1.2045 1.0783,-0.803 1.9287,-2.0863 2.5589,-3.85 z m -33.4942,-16.5818 v 10.582 c 1.3385,0 2.2836,-0.2517 2.8267,-0.7478 0.5434,-0.5037 1.3229,-1.9763 2.3307,-4.4331 0.945,-2.3306 1.8031,-3.8109 2.575,-4.4563 0.7554,-0.6299 1.9522,-0.9448 3.5977,-0.9448 h 1.5199 v 3.4248 l -1.1262,-0.0232 c -1.1103,0 -1.811,0.1649 -2.118,0.4881 -0.3223,0.3387 -0.8184,1.3464 -1.4803,3.0231 -0.6137,1.6064 -1.1806,2.7088 -1.7005,3.3305 -0.5196,0.6142 -1.3385,1.1732 -2.4406,1.6849 1.7949,0.4804 3.543,2.1415 5.2515,4.9924 l 4.5586,7.5977 h -4.5663 l -4.4408,-7.5901 c -0.9056,-1.5432 -1.7007,-2.5509 -2.3697,-3.0314 -0.6775,-0.4804 -1.4803,-0.7163 -2.4177,-0.7163 v 11.3378 h -4.251703 v -11.3378 c -0.9212,0 -1.7164,0.2359 -2.3853,0.7084 -0.6775,0.4728 -1.4647,1.4882 -2.3624,3.0472 l -4.4799,7.5822 h -4.5663 l 4.5428,-7.5977 c 1.724,-2.8509 3.4877,-4.512 5.2829,-4.9924 -1.2282,-0.5667 -2.0942,-1.1889 -2.5824,-1.8579 -0.496,-0.6689 -1.2279,-2.2677 -2.2121,-4.795 -0.3388,-0.8504 -0.701,-1.37 -1.0871,-1.5591 -0.4011,-0.1964 -0.9921,-0.2914 -1.7793,-0.2914 -0.197,0 -0.6061,0.008 -1.2203,0.0241 v -3.4489 h 0.5748 c 1.6062,0 2.7324,0.0944 3.3857,0.2914 0.6534,0.1891 1.2359,0.5981 1.7558,1.2203 0.5117,0.6222 1.1807,1.9131 1.9999,3.8894 0.9997,2.4171 1.7713,3.8818 2.3071,4.4014 0.5352,0.5198 1.4797,0.7795 2.8261,0.7795 v -10.582 z m -39.170803,33.9429 -0.472,-3.8421 c 0.9133,0.2438 1.7005,0.3699 2.3774,0.3699 0.9289,0 1.6693,-0.1573 2.2207,-0.4649 0.5584,-0.3069 1.0156,-0.7398 1.3697,-1.2911 0.2602,-0.4173 0.6854,-1.4485 1.2679,-3.1023 0.0785,-0.2282 0.1967,-0.5669 0.3699,-1.0156 l -9.3064,-24.5968 h 4.4402 l 5.1182,14.1568 c 0.669,1.7872 1.2595,3.6771 1.7873,5.661 0.4805,-1.8663 1.0474,-3.7085 1.7084,-5.5193 l 5.2282,-14.2985 h 4.1491 l -9.2667,24.9434 c -1.0004,2.685 -1.7799,4.5273 -2.3383,5.5429 -0.7407,1.3621 -1.5908,2.3624 -2.5433,3.0002 -0.9609,0.6378 -2.1024,0.9524 -3.4253,0.9524 -0.8031,0 -1.7008,-0.1652 -2.685,-0.496 z m -22.9748,-35.36 c -2.7871,0.1262 -5.0389,0.9445 -6.7632,2.4724 -1.7246,1.527 -2.5906,3.653 -2.5906,6.3853 0,2.7006 0.8504,4.8187 2.5512,6.3618 1.7005,1.5429 3.9682,2.3698 6.8026,2.4959 z m 4.2043,-0.0476 v 17.8104 c 2.8897,-0.1417 5.1574,-0.9842 6.8188,-2.5277 1.6611,-1.5431 2.4879,-3.6691 2.4879,-6.3774 0,-2.6614 -0.8112,-4.7633 -2.4409,-6.3223 -1.6299,-1.5512 -3.9132,-2.4092 -6.8658,-2.583 z m -4.2043,-3.8265 v -4.299 h 4.2043 v 4.299 c 4.307,0.2282 7.7083,1.5279 10.1962,3.8974 2.4962,2.3703 3.7401,5.307 3.7401,8.8189 0,3.4404 -1.2048,6.3612 -3.6219,8.7706 -2.4171,2.4015 -5.8495,3.7321 -10.3144,3.9765 v 4.3461 h -4.2043 v -4.3461 c -3.9994,-0.1579 -7.3299,-1.3782 -9.9916,-3.6692 -2.6614,-2.283 -3.9915,-5.3147 -3.9915,-9.0779 0,-3.7721 1.3301,-6.795 3.9839,-9.0627 2.6529,-2.2674 5.9836,-3.4798 9.9992,-3.6536 z"
     style="fill:#1b1918;fill-rule:evenodd"
     id="path932" />
  <path
     d="m 17.822043,-124.1036 c 0,0.0711 -0.0182,0.1292 -0.0533,0.1788 -0.036,0.0443 -0.0899,0.0893 -0.1701,0.1253 -0.0799,0.0309 -0.1879,0.0579 -0.3308,0.076 -0.1383,0.0173 -0.3124,0.0261 -0.5224,0.0261 -0.2237,0 -0.402,-0.009 -0.5409,-0.0261 -0.1431,-0.0181 -0.25,-0.0451 -0.3311,-0.076 -0.0799,-0.036 -0.134,-0.081 -0.1692,-0.1253 -0.036,-0.0496 -0.0539,-0.1077 -0.0539,-0.1788 v -5.1698 h -5.9782 v 5.1698 c 0,0.0711 -0.0179,0.1292 -0.0539,0.1788 -0.036,0.0443 -0.0893,0.0893 -0.1701,0.1253 -0.0802,0.0309 -0.187,0.0579 -0.3302,0.076 -0.1389,0.0173 -0.3178,0.0261 -0.536,0.0261 -0.2149,0 -0.3889,-0.009 -0.5278,-0.0261 -0.1432,-0.0181 -0.2543,-0.0451 -0.3351,-0.076 -0.085,-0.036 -0.1431,-0.081 -0.1743,-0.1253 -0.0309,-0.0496 -0.0448,-0.1077 -0.0448,-0.1788 v -11.7873 c 0,-0.0717 0.0139,-0.1299 0.0448,-0.1789 0.0312,-0.0451 0.0893,-0.0893 0.1743,-0.1298 0.0808,-0.0403 0.1919,-0.0672 0.3351,-0.0802 0.1389,-0.0131 0.3129,-0.0182 0.5278,-0.0182 0.2182,0 0.3971,0.005 0.536,0.0182 0.1432,0.013 0.25,0.0399 0.3302,0.0802 0.0808,0.0405 0.1341,0.0847 0.1701,0.1298 0.036,0.049 0.0539,0.1072 0.0539,0.1789 v 4.7942 h 5.9782 v -4.7942 c 0,-0.0717 0.0179,-0.1299 0.0539,-0.1789 0.0352,-0.0451 0.0893,-0.0893 0.1692,-0.1298 0.0811,-0.0403 0.188,-0.0672 0.3311,-0.0802 0.1389,-0.0131 0.3172,-0.0182 0.5409,-0.0182 0.21,0 0.3841,0.005 0.5224,0.0182 0.1429,0.013 0.2509,0.0399 0.3308,0.0802 0.0802,0.0405 0.1341,0.0847 0.1701,0.1298 0.0351,0.049 0.0533,0.1072 0.0533,0.1789 z m -15.8043,-7.0464 c 0.0269,-1.1353 -0.2231,-2.029 -0.7552,-2.6765 -0.53119999,-0.648 -1.31349999,-0.97 -2.3547,-0.97 -0.536,0 -1.0052,0.0981 -1.4071,0.2991 -0.4023,0.2018 -0.7379,0.4697 -1.0103,0.805 -0.273,0.3303 -0.4827,0.7192 -0.6301,1.1571 -0.1472,0.4422 -0.2322,0.9023 -0.25,1.3853 z m 2.1713,0.6384 c 0,0.3399 -0.0842,0.5811 -0.2542,0.7288 -0.1698,0.1431 -0.3668,0.2143 -0.5851,0.2143 h -7.7394 c 0,0.657 0.0668,1.2469 0.1961,1.7694 0.1298,0.5272 0.349,0.979 0.6571,1.3541 0.3041,0.3753 0.7018,0.6613 1.1883,0.8623 0.4921,0.2009 1.091,0.3038 1.79630001,0.3038 0.559,0 1.0593,-0.0448 1.493,-0.1389 0.43739999,-0.089 0.81749999,-0.1919 1.13469999,-0.3033 0.3178,-0.1117 0.5808,-0.2148 0.7869,-0.3038 0.2052,-0.0939 0.3572,-0.1389 0.4643,-0.1389 0.0627,0 0.1159,0.0138 0.1656,0.045 0.0442,0.0309 0.0844,0.076 0.1071,0.1386 0.0269,0.0582 0.049,0.1426 0.0624,0.2503 0.0136,0.1112 0.0178,0.241 0.0178,0.3972 0,0.1119 -0.004,0.21 -0.013,0.2951 -0.009,0.0808 -0.0182,0.1567 -0.0318,0.2191 -0.0133,0.0669 -0.0354,0.125 -0.0671,0.1788 -0.0312,0.0491 -0.0669,0.0981 -0.116,0.1472 -0.049,0.049 -0.1922,0.125 -0.4243,0.2327 -0.237,0.1114 -0.5409,0.2143 -0.9162,0.3214 -0.375,0.1029 -0.809,0.1968 -1.30019999,0.277 -0.4913,0.085 -1.0143,0.125 -1.5733,0.125 -0.96910001,0 -1.81360001,-0.1341 -2.54240001,-0.4062 -0.7282,-0.2682 -1.3402,-0.6701 -1.8362,-1.2022 -0.4961,-0.536 -0.8714,-1.2022 -1.1214,-2.0063 -0.2549,-0.8 -0.3802,-1.7334 -0.3802,-2.8015 0,-1.0103 0.1302,-1.9214 0.3932,-2.7304 0.2591,-0.8044 0.6392,-1.4924 1.131,-2.0556 0.4913,-0.563 1.0902,-0.9922 1.7873,-1.2952 0.6973,-0.2999 1.4785,-0.4521 2.34170001,-0.4521 0.9244,0 1.7113,0.1479 2.35869999,0.447 0.6528,0.2951 1.184,0.6973 1.6041,1.1974 0.4159,0.5008 0.724,1.091 0.921,1.7702 0.1961,0.6744 0.2942,1.3983 0.2942,2.1665 z m -14.0397,6.408 c 0,0.0711 -0.0179,0.1292 -0.053,0.1788 -0.036,0.0443 -0.0899,0.0893 -0.1701,0.1253 -0.0802,0.0309 -0.1879,0.0579 -0.3308,0.076 -0.1383,0.0173 -0.3124,0.0261 -0.5224,0.0261 -0.2239,0 -0.402,-0.009 -0.5409,-0.0261 -0.1431,-0.0181 -0.2503,-0.0451 -0.331,-0.076 -0.0803,-0.036 -0.1341,-0.081 -0.1693,-0.1253 -0.036,-0.0496 -0.0538,-0.1077 -0.0538,-0.1788 v -5.1698 h -5.9783 v 5.1698 c 0,0.0711 -0.0181,0.1292 -0.0539,0.1788 -0.036,0.0443 -0.0892,0.0893 -0.17,0.1253 -0.0803,0.0309 -0.1871,0.0579 -0.3303,0.076 -0.1389,0.0173 -0.3177,0.0261 -0.536,0.0261 -0.2149,0 -0.3892,-0.009 -0.5278,-0.0261 -0.1432,-0.0181 -0.2543,-0.0451 -0.3354,-0.076 -0.0847,-0.036 -0.1428,-0.081 -0.174,-0.1253 -0.0309,-0.0496 -0.0448,-0.1077 -0.0448,-0.1788 v -11.7873 c 0,-0.0717 0.0139,-0.1299 0.0448,-0.1789 0.0312,-0.0451 0.0893,-0.0893 0.174,-0.1298 0.0811,-0.0403 0.1922,-0.0672 0.3354,-0.0802 0.1386,-0.0131 0.3129,-0.0182 0.5278,-0.0182 0.2183,0 0.3971,0.005 0.536,0.0182 0.1432,0.013 0.25,0.0399 0.3303,0.0802 0.0808,0.0405 0.134,0.0847 0.17,0.1298 0.0358,0.049 0.0539,0.1072 0.0539,0.1789 v 4.7942 h 5.9783 v -4.7942 c 0,-0.0717 0.0178,-0.1299 0.0538,-0.1789 0.0352,-0.0451 0.089,-0.0893 0.1693,-0.1298 0.0807,-0.0403 0.1879,-0.0672 0.331,-0.0802 0.1389,-0.0131 0.317,-0.0182 0.5409,-0.0182 0.21,0 0.3841,0.005 0.5224,0.0182 0.1429,0.013 0.2506,0.0399 0.3308,0.0802 0.0802,0.0405 0.1341,0.0847 0.1701,0.1298 0.0351,0.049 0.053,0.1072 0.053,0.1789 z m -14.3249,0 c 0,0.0711 -0.0178,0.1292 -0.0538,0.1788 -0.0352,0.0443 -0.0893,0.0893 -0.1693,0.1253 -0.0759,0.0309 -0.1879,0.0579 -0.3268,0.076 -0.1383,0.0173 -0.3124,0.0261 -0.5224,0.0261 -0.2189,0 -0.398,-0.009 -0.5361,-0.0261 -0.1389,-0.0181 -0.25,-0.0451 -0.335,-0.076 -0.0808,-0.036 -0.1389,-0.081 -0.1749,-0.1253 -0.0352,-0.0496 -0.0533,-0.1077 -0.0533,-0.1788 v -10.2909 h -3.2442 c -0.1384,1.3853 -0.3082,2.6186 -0.5043,3.6998 -0.197,1.0814 -0.4162,2.0245 -0.6619,2.8287 -0.2455,0.7999 -0.5224,1.4791 -0.8263,2.0284 -0.3042,0.5499 -0.6392,0.9922 -1.0012,1.3272 -0.3663,0.3351 -0.7594,0.5769 -1.1843,0.724 -0.4201,0.1471 -0.8754,0.2231 -1.3533,0.2231 -0.0811,0 -0.148,-0.0131 -0.2061,-0.04 -0.0538,-0.0269 -0.1029,-0.0712 -0.138,-0.1432 -0.0318,-0.0669 -0.0581,-0.1649 -0.076,-0.2948 -0.0181,-0.1252 -0.0269,-0.286 -0.0269,-0.4872 0,-0.2101 0.004,-0.3793 0.0178,-0.5091 0.0131,-0.1293 0.0352,-0.237 0.0669,-0.313 0.0312,-0.0802 0.0712,-0.1292 0.1163,-0.1562 0.049,-0.0269 0.1071,-0.0399 0.1788,-0.0399 0.2903,0 0.5624,-0.0672 0.8263,-0.2013 0.2591,-0.1389 0.5052,-0.362 0.7331,-0.6701 0.2282,-0.3087 0.4422,-0.7149 0.6431,-1.2152 0.1971,-0.5052 0.3802,-1.122 0.55,-1.8544 0.1652,-0.7331 0.3214,-1.5911 0.4691,-2.5742 0.1474,-0.9785 0.2903,-2.1087 0.4201,-3.3826 0.0173,-0.2633 0.0802,-0.4555 0.1922,-0.5853 0.1071,-0.125 0.263,-0.188 0.4643,-0.188 h 6.05 c 0.2061,0 0.371,0.063 0.4873,0.1928 0.1207,0.125 0.1788,0.3172 0.1788,0.5805 z m -14.6338,-5.8941 c 0,-0.6389 -0.0581,-1.2421 -0.1789,-1.8094 -0.1162,-0.5672 -0.3124,-1.0632 -0.5854,-1.4924 -0.2678,-0.4289 -0.6389,-0.7687 -1.1032,-1.0142 -0.4601,-0.2506 -1.0412,-0.3756 -1.7342,-0.3756 -0.6384,0 -1.1883,0.1117 -1.6484,0.3399 -0.46,0.2279 -0.8359,0.549 -1.1353,0.9652 -0.299,0.4149 -0.5181,0.907 -0.661,1.4742 -0.1471,0.5678 -0.2191,1.1892 -0.2191,1.8593 0,0.6474 0.0581,1.2552 0.1789,1.8224 0.1162,0.5681 0.3123,1.0641 0.5893,1.4882 0.2772,0.4201 0.6483,0.7599 1.1083,1.0054 0.4649,0.25 1.046,0.3759 1.7382,0.3759 0.6302,0 1.1753,-0.112 1.6402,-0.3402 0.4643,-0.2279 0.8444,-0.5451 1.1443,-0.9561 0.2991,-0.411 0.5182,-0.9028 0.6562,-1.47 0.1389,-0.5672 0.2101,-1.1934 0.2101,-1.8726 z m 2.2524,-0.138 c 0,0.9603 -0.125,1.8453 -0.3802,2.6537 -0.25,0.8048 -0.6301,1.5018 -1.1301,2.0872 -0.5009,0.5851 -1.1305,1.0412 -1.8814,1.3671 -0.7551,0.3263 -1.6313,0.4913 -2.6226,0.4913 -0.97,0 -1.8144,-0.1429 -2.5342,-0.4331 -0.7194,-0.2861 -1.3175,-0.7062 -1.7957,-1.2555 -0.4782,-0.5499 -0.836,-1.22 -1.0729,-2.0021 -0.2364,-0.7863 -0.3532,-1.6753 -0.3532,-2.6717 0,-0.9609 0.1258,-1.8462 0.371,-2.6504 0.2503,-0.8081 0.6259,-1.5054 1.1262,-2.0905 0.5004,-0.5859 1.1262,-1.0369 1.8766,-1.3632 0.7509,-0.322 1.6271,-0.483 2.6274,-0.483 0.97,0 1.8142,0.1431 2.5336,0.434 0.7197,0.286 1.3181,0.7061 1.7963,1.2554 0.4779,0.55 0.8402,1.2152 1.0812,2.0021 0.2369,0.7864 0.358,1.6708 0.358,2.6587 z m -14.9468,6.0321 c 0,0.0711 -0.0182,0.1292 -0.0539,0.1788 -0.0354,0.0443 -0.0893,0.0893 -0.1695,0.1253 -0.076,0.0309 -0.1879,0.0579 -0.326,0.076 -0.1389,0.0173 -0.3129,0.0261 -0.523,0.0261 -0.2191,0 -0.398,-0.009 -0.536,-0.0261 -0.1389,-0.0181 -0.2503,-0.0451 -0.3353,-0.076 -0.0808,-0.036 -0.1387,-0.081 -0.1747,-0.1253 -0.0354,-0.0496 -0.0532,-0.1077 -0.0532,-0.1788 v -10.2909 h -5.6033 v 10.2909 c 0,0.0711 -0.0179,0.1292 -0.0539,0.1788 -0.0357,0.0443 -0.0938,0.0893 -0.1788,0.1253 -0.0802,0.0309 -0.1922,0.0579 -0.3351,0.076 -0.1383,0.0173 -0.3129,0.0261 -0.5224,0.0261 -0.2149,0 -0.3889,-0.009 -0.5278,-0.0261 -0.1429,-0.0181 -0.2543,-0.0451 -0.3351,-0.076 -0.085,-0.036 -0.1428,-0.081 -0.174,-0.1253 -0.0312,-0.0496 -0.0451,-0.1077 -0.0451,-0.1788 v -11.3409 c 0,-0.2633 0.0581,-0.4555 0.1792,-0.5853 0.1159,-0.125 0.2817,-0.188 0.487,-0.188 h 8.6286 c 0.2052,0 0.3711,0.063 0.4822,0.188 0.112,0.1298 0.1701,0.322 0.1701,0.5853 z m -16.06,-5.3841 h -1.8454 c -0.5893,0 -1.1032,0.049 -1.5414,0.1513 -0.4332,0.0987 -0.7951,0.2509 -1.086,0.447 -0.2854,0.1971 -0.4955,0.4289 -0.6344,0.7062 -0.1341,0.2769 -0.201,0.5941 -0.201,0.9518 0,0.6123 0.1922,1.0993 0.5811,1.4607 0.3884,0.362 0.9292,0.5457 1.6305,0.5457 0.563,0 1.0908,-0.1429 1.5733,-0.4337 0.4827,-0.286 0.9921,-0.7282 1.5233,-1.3224 z m 2.1453,5.3974 c 0,0.1029 -0.036,0.1828 -0.1029,0.237 -0.0712,0.0538 -0.1653,0.089 -0.2903,0.1159 -0.1208,0.0269 -0.2999,0.04 -0.536,0.04 -0.224,0 -0.4071,-0.0131 -0.5412,-0.04 -0.134,-0.0269 -0.2321,-0.0621 -0.2948,-0.1159 -0.0623,-0.0542 -0.0941,-0.1301 -0.0941,-0.237 v -1.1795 c -0.5133,0.5494 -1.0854,0.9782 -1.7203,1.2824 -0.6341,0.2991 -1.3045,0.451 -2.0104,0.451 -0.6213,0 -1.1843,-0.0799 -1.6846,-0.241 -0.5009,-0.161 -0.9292,-0.3979 -1.2821,-0.7012 -0.3532,-0.3042 -0.6301,-0.684 -0.8271,-1.1262 -0.1962,-0.4471 -0.2951,-0.9522 -0.2951,-1.5194 0,-0.6659 0.134,-1.2422 0.407,-1.7292 0.2682,-0.492 0.6562,-0.8983 1.1662,-1.2203 0.5051,-0.3211 1.1262,-0.5672 1.8587,-0.7282 0.733,-0.161 1.5593,-0.2409 2.4755,-0.2409 h 1.6262 v -0.9204 c 0,-0.4519 -0.049,-0.8538 -0.1429,-1.207 -0.0983,-0.3481 -0.2503,-0.639 -0.4643,-0.8711 -0.2148,-0.2322 -0.4921,-0.4062 -0.8311,-0.523 -0.3402,-0.1202 -0.7602,-0.1783 -1.2555,-0.1783 -0.532,0 -1.0099,0.0621 -1.43,0.1919 -0.4244,0.1293 -0.7954,0.2682 -1.1124,0.4243 -0.318,0.1568 -0.5859,0.2951 -0.8002,0.425 -0.21,0.1292 -0.371,0.1919 -0.4739,0.1919 -0.0712,0 -0.1341,-0.0179 -0.1831,-0.0539 -0.0531,-0.0309 -0.0981,-0.0848 -0.1381,-0.1559 -0.0408,-0.0672 -0.0672,-0.157 -0.085,-0.2642 -0.0179,-0.1111 -0.027,-0.2279 -0.027,-0.362 0,-0.214 0.0131,-0.388 0.0448,-0.5133 0.0312,-0.125 0.1072,-0.2458 0.2234,-0.3578 0.1159,-0.1114 0.3217,-0.246 0.6077,-0.4022 0.2855,-0.1519 0.6214,-0.2948 0.9964,-0.4241 0.3711,-0.125 0.7821,-0.233 1.2286,-0.3172 0.4427,-0.085 0.894,-0.1258 1.345,-0.1258 0.8444,0 1.5642,0.0941 2.1583,0.2863 0.5941,0.1919 1.0723,0.4779 1.4386,0.849 0.3668,0.371 0.6301,0.8311 0.7959,1.381 0.165,0.5494 0.2501,1.1925 0.2501,1.9256 z m -13.1375,-0.0272 c 0,0.072 -0.0178,0.1341 -0.0538,0.184 -0.0352,0.053 -0.0939,0.0932 -0.1832,0.125 -0.089,0.0311 -0.2052,0.0581 -0.3481,0.0802 -0.1479,0.0221 -0.322,0.0309 -0.532,0.0309 -0.2322,0 -0.4153,-0.009 -0.5542,-0.0309 -0.1429,-0.0221 -0.2548,-0.0491 -0.3438,-0.0802 -0.0893,-0.0318 -0.1474,-0.072 -0.1832,-0.125 -0.036,-0.0499 -0.0538,-0.112 -0.0538,-0.184 v -7.5155 h -7.6947 v 7.5155 c 0,0.072 -0.0178,0.1341 -0.0532,0.184 -0.0358,0.053 -0.0939,0.0932 -0.1837,0.125 -0.0842,0.0311 -0.201,0.0581 -0.3442,0.0802 -0.1471,0.0221 -0.3259,0.0309 -0.5451,0.0309 -0.21,0 -0.3883,-0.009 -0.536,-0.0309 -0.1471,-0.0221 -0.2682,-0.0491 -0.3532,-0.0802 -0.089,-0.0318 -0.1471,-0.072 -0.1831,-0.125 -0.0357,-0.0499 -0.053,-0.112 -0.053,-0.184 v -16.2644 c 0,-0.0717 0.0173,-0.1338 0.053,-0.1828 0.036,-0.0541 0.0941,-0.0941 0.1831,-0.1253 0.085,-0.0317 0.2061,-0.0587 0.3532,-0.0808 0.1477,-0.0221 0.326,-0.0309 0.536,-0.0309 0.2192,0 0.398,0.009 0.5451,0.0309 0.1432,0.0221 0.26,0.0491 0.3442,0.0808 0.0898,0.0312 0.1479,0.0712 0.1837,0.1253 0.0354,0.053 0.0532,0.1111 0.0532,0.1828 v 6.7916 h 7.6947 v -6.7916 c 0,-0.0717 0.0178,-0.1298 0.0538,-0.1828 0.0358,-0.0541 0.0939,-0.0941 0.1832,-0.1253 0.089,-0.0317 0.2009,-0.0587 0.3438,-0.0808 0.1389,-0.0221 0.322,-0.0309 0.5542,-0.0309 0.21,0 0.3841,0.009 0.532,0.0309 0.1429,0.0221 0.2591,0.0491 0.3481,0.0808 0.0893,0.0312 0.148,0.0712 0.1832,0.1253 0.036,0.049 0.0538,0.1111 0.0538,0.1828 z m -16.4211,-1.099 c 0,0.6211 -0.1029,1.0321 -0.3081,1.2379 -0.2058,0.2052 -0.5763,0.3081 -1.1171,0.3081 -0.5273,0 -0.8893,-0.1029 -1.0903,-0.3039 -0.2012,-0.2009 -0.2993,-0.6032 -0.2993,-1.2064 0,-0.6211 0.1023,-1.0321 0.3081,-1.2373 0.2053,-0.2058 0.5763,-0.3087 1.1172,-0.3087 0.5272,0 0.8892,0.0986 1.0905,0.2996 0.1961,0.2013 0.299,0.6075 0.299,1.2107 z m -6.269103,0.474 c 0,0.1561 -0.009,0.2948 -0.0312,0.4152 -0.0229,0.1256 -0.0538,0.2279 -0.0941,0.3087 -0.0399,0.0851 -0.0896,0.1432 -0.1567,0.1831 -0.0669,0.04 -0.1381,0.0581 -0.2141,0.0581 h -9.3747 c -0.1205,0 -0.2282,-0.0133 -0.322,-0.045 -0.0893,-0.0309 -0.1692,-0.0802 -0.2322,-0.152 -0.0671,-0.0669 -0.1162,-0.1692 -0.1471,-0.299 -0.0317,-0.1293 -0.0451,-0.2903 -0.0451,-0.4825 0,-0.1746 0.009,-0.3265 0.0222,-0.4558 0.0138,-0.1298 0.0408,-0.246 0.085,-0.3489 0.0448,-0.0981 0.1029,-0.1962 0.1701,-0.2991 0.0669,-0.0983 0.1559,-0.2052 0.2639,-0.3172 l 3.3865,-3.4855 c 0.7864,-0.8044 1.4123,-1.5236 1.8856,-2.1625 0.474,-0.6344 0.836,-1.2155 1.0951,-1.7425 0.2542,-0.523 0.4243,-0.9969 0.5051,-1.4252 0.0799,-0.4292 0.1202,-0.8314 0.1202,-1.207 0,-0.3753 -0.0624,-0.7325 -0.1874,-1.0675 -0.1298,-0.3351 -0.3087,-0.6302 -0.5499,-0.885 -0.237,-0.2551 -0.536,-0.4561 -0.898,-0.6032 -0.3572,-0.1472 -0.7733,-0.2231 -1.2424,-0.2231 -0.5491,0 -1.0412,0.0759 -1.4792,0.2231 -0.4331,0.1471 -0.8172,0.3129 -1.1483,0.487 -0.326,0.174 -0.6032,0.3393 -0.822,0.4872 -0.2191,0.1471 -0.3841,0.2231 -0.4913,0.2231 -0.0629,0 -0.121,-0.0181 -0.1701,-0.0533 -0.049,-0.036 -0.089,-0.0898 -0.1207,-0.1698 -0.0312,-0.0762 -0.0581,-0.1831 -0.0754,-0.3132 -0.0179,-0.1338 -0.0269,-0.29 -0.0269,-0.4731 0,-0.1298 0.004,-0.2418 0.013,-0.3399 0.009,-0.0941 0.0221,-0.1791 0.0451,-0.2503 0.0221,-0.0669 0.049,-0.1338 0.085,-0.1967 0.0352,-0.0581 0.1069,-0.1341 0.2101,-0.2282 0.1068,-0.089 0.286,-0.214 0.5451,-0.3702 0.2542,-0.161 0.5802,-0.3129 0.9691,-0.4649 0.3841,-0.1562 0.8133,-0.2812 1.2824,-0.3892 0.4649,-0.102 0.9561,-0.1559 1.4701,-0.1559 0.8223,0 1.5414,0.116 2.1537,0.3481 0.6168,0.2279 1.126,0.5451 1.533,0.9479 0.4062,0.4023 0.7104,0.8663 0.9113,1.3984 0.201,0.532 0.3,1.0992 0.3,1.7024 0,0.5409 -0.0499,1.0812 -0.1432,1.6175 -0.0986,0.536 -0.2999,1.1171 -0.608,1.743 -0.313,0.6253 -0.7591,1.3176 -1.3451,2.0818 -0.5811,0.7639 -1.3583,1.6441 -2.3278,2.641 l -2.6813,2.8018 h 7.3732 c 0.0672,0 0.1341,0.0178 0.2013,0.0581 0.0669,0.04 0.125,0.0981 0.1692,0.174 0.0496,0.0808 0.0848,0.1789 0.1077,0.2948 0.0221,0.1163 0.0312,0.2552 0.0312,0.4114 z m -13.5618,0.0799 c 0,0.1658 -0.0136,0.3041 -0.0405,0.4161 -0.0264,0.112 -0.0581,0.2052 -0.1024,0.2721 -0.045,0.0718 -0.0941,0.1211 -0.1519,0.152 -0.0581,0.0317 -0.1162,0.045 -0.1743,0.045 h -8.8475 c -0.0581,0 -0.116,-0.0133 -0.1701,-0.045 -0.049,-0.0309 -0.1029,-0.0802 -0.1471,-0.152 -0.0491,-0.0669 -0.0848,-0.1601 -0.112,-0.2721 -0.0269,-0.112 -0.0399,-0.2503 -0.0399,-0.4161 0,-0.1559 0.013,-0.29 0.0399,-0.402 0.0272,-0.1162 0.0581,-0.21 0.0984,-0.2812 0.0357,-0.0759 0.0847,-0.1298 0.1428,-0.17 0.0582,-0.04 0.1211,-0.0579 0.188,-0.0579 h 3.5257 v -12.8956 l -3.2757,1.9573 c -0.165,0.085 -0.2991,0.138 -0.402,0.1562 -0.098,0.0178 -0.1788,0 -0.2412,-0.0581 -0.0629,-0.0581 -0.1029,-0.152 -0.125,-0.2818 -0.0227,-0.1292 -0.0317,-0.2945 -0.0317,-0.4955 0,-0.1479 0.005,-0.2769 0.0178,-0.3801 0.0139,-0.1069 0.036,-0.1919 0.063,-0.2639 0.0269,-0.0669 0.062,-0.129 0.1119,-0.1828 0.0442,-0.0494 0.1072,-0.1032 0.1871,-0.1562 l 3.9059,-2.4985 c 0.0351,-0.0261 0.0759,-0.049 0.1289,-0.0669 0.0542,-0.013 0.1211,-0.0312 0.197,-0.049 0.0803,-0.0182 0.1701,-0.0312 0.277,-0.036 0.1032,-0.004 0.2322,-0.004 0.3932,-0.004 0.206,0 0.3841,0.009 0.523,0.0272 0.1383,0.0179 0.2454,0.04 0.3262,0.0712 0.08,0.0317 0.1293,0.0717 0.1562,0.1159 0.0269,0.0499 0.04,0.0989 0.04,0.152 v 14.8889 h 3.0654 c 0.072,0 0.1389,0.0179 0.197,0.0579 0.062,0.0402 0.1111,0.0941 0.1519,0.17 0.0403,0.0712 0.0712,0.165 0.0933,0.2812 0.0229,0.112 0.0317,0.2461 0.0317,0.402 z m -14.1157,-0.5539 c 0,0.6211 -0.1029,1.0321 -0.3081,1.2379 -0.2058,0.2052 -0.576,0.3081 -1.1171,0.3081 -0.527,0 -0.8893,-0.1029 -1.0902,-0.3039 -0.201,-0.2009 -0.2991,-0.6032 -0.2991,-1.2064 0,-0.6211 0.1021,-1.0321 0.3081,-1.2373 0.2053,-0.2058 0.5763,-0.3087 1.1172,-0.3087 0.5272,0 0.8892,0.0986 1.0902,0.2996 0.1961,0.2013 0.299,0.6075 0.299,1.2107 z m -10.2367,-13.606 h -0.027 l -5.4513,9.3078 h 5.4783 z m 4.6598,10.2331 c 0,0.2851 -0.0442,0.5133 -0.1289,0.6791 -0.0899,0.165 -0.2101,0.2452 -0.3671,0.2452 h -1.9123 v 3.5615 c 0,0.0711 -0.0181,0.1292 -0.0533,0.1788 -0.036,0.0443 -0.0986,0.0893 -0.1879,0.1253 -0.089,0.0309 -0.21,0.0579 -0.3529,0.076 -0.1432,0.0173 -0.3263,0.0261 -0.5494,0.0261 -0.2191,0 -0.3979,-0.009 -0.5408,-0.0261 -0.1432,-0.0181 -0.2591,-0.0451 -0.3441,-0.076 -0.0851,-0.036 -0.1432,-0.081 -0.1741,-0.1253 -0.0312,-0.0496 -0.049,-0.1077 -0.049,-0.1788 v -3.5615 h -6.9353 c -0.1071,0 -0.1922,-0.013 -0.2591,-0.0402 -0.0711,-0.0269 -0.134,-0.0712 -0.1921,-0.1429 -0.0539,-0.0669 -0.0939,-0.1701 -0.116,-0.299 -0.0229,-0.1302 -0.0312,-0.2999 -0.0312,-0.51 0,-0.1653 0.004,-0.3124 0.0131,-0.4422 0.009,-0.1293 0.0269,-0.25 0.0538,-0.3572 0.0221,-0.1119 0.0581,-0.2148 0.1024,-0.3129 0.0402,-0.1029 0.0941,-0.2101 0.1567,-0.322 l 6.0412,-10.304 c 0.0442,-0.0711 0.1114,-0.1292 0.1965,-0.1831 0.0847,-0.0533 0.1919,-0.0981 0.3259,-0.1292 0.1341,-0.036 0.2999,-0.063 0.4919,-0.076 0.1964,-0.0139 0.4291,-0.0179 0.6973,-0.0179 0.29,0 0.549,0.009 0.7639,0.0309 0.2191,0.0221 0.3974,0.0539 0.5273,0.0851 0.134,0.036 0.2369,0.085 0.3081,0.138 0.072,0.059 0.1071,0.1259 0.1071,0.2061 v 10.8269 h 1.9123 c 0.148,0 0.2681,0.076 0.358,0.2279 0.0938,0.1514 0.138,0.3844 0.138,0.6974 z m -14.7809,3.3729 c 0,0.6211 -0.1029,1.0321 -0.3082,1.2379 -0.2057,0.2052 -0.5762,0.3081 -1.1171,0.3081 -0.5272,0 -0.8892,-0.1029 -1.0902,-0.3039 -0.201,-0.2009 -0.299,-0.6032 -0.299,-1.2064 0,-0.6211 0.102,-1.0321 0.3081,-1.2373 0.2049,-0.2058 0.576,-0.3087 1.1171,-0.3087 0.527,0 0.8892,0.0986 1.0902,0.2996 0.1962,0.2013 0.2991,0.6075 0.2991,1.2107 z m -6.2691,0.474 c 0,0.1561 -0.009,0.2948 -0.0312,0.4152 -0.0227,0.1256 -0.0539,0.2279 -0.0938,0.3087 -0.0403,0.0851 -0.0899,0.1432 -0.1568,0.1831 -0.0672,0.04 -0.1383,0.0581 -0.2143,0.0581 h -9.3747 c -0.1202,0 -0.2279,-0.0133 -0.322,-0.045 -0.0891,-0.0309 -0.1693,-0.0802 -0.2322,-0.152 -0.0669,-0.0669 -0.1159,-0.1692 -0.1471,-0.299 -0.0318,-0.1293 -0.0448,-0.2903 -0.0448,-0.4825 0,-0.1746 0.009,-0.3265 0.0221,-0.4558 0.0136,-0.1298 0.0405,-0.246 0.0848,-0.3489 0.045,-0.0981 0.1031,-0.1962 0.17,-0.2991 0.0669,-0.0983 0.1562,-0.2052 0.2639,-0.3172 l 3.3869,-3.4855 c 0.786,-0.8044 1.4122,-1.5236 1.8853,-2.1625 0.4739,-0.6344 0.8359,-1.2155 1.095,-1.7425 0.2543,-0.523 0.4244,-0.9969 0.5052,-1.4252 0.0802,-0.4292 0.1201,-0.8314 0.1201,-1.207 0,-0.3753 -0.062,-0.7325 -0.187,-1.0675 -0.1302,-0.3351 -0.309,-0.6302 -0.55,-0.885 -0.2369,-0.2551 -0.5363,-0.4561 -0.8983,-0.6032 -0.3571,-0.1472 -0.773,-0.2231 -1.2421,-0.2231 -0.5494,0 -1.0412,0.0759 -1.4794,0.2231 -0.4331,0.1471 -0.8172,0.3129 -1.148,0.487 -0.3263,0.174 -0.6033,0.3393 -0.8224,0.4872 -0.2188,0.1471 -0.3841,0.2231 -0.4912,0.2231 -0.0629,0 -0.1208,-0.0181 -0.1698,-0.0533 -0.049,-0.036 -0.0893,-0.0898 -0.121,-0.1698 -0.0312,-0.0762 -0.0582,-0.1831 -0.0755,-0.3132 -0.0178,-0.1338 -0.0269,-0.29 -0.0269,-0.4731 0,-0.1298 0.004,-0.2418 0.0133,-0.3399 0.009,-0.0941 0.0222,-0.1791 0.0448,-0.2503 0.0221,-0.0669 0.0491,-0.1338 0.0851,-0.1967 0.0351,-0.0581 0.1071,-0.1341 0.21,-0.2282 0.1072,-0.089 0.286,-0.214 0.5451,-0.3702 0.2543,-0.161 0.5803,-0.3129 0.9692,-0.4649 0.3844,-0.1562 0.8132,-0.2812 1.2824,-0.3892 0.4649,-0.102 0.9561,-0.1559 1.4703,-0.1559 0.8221,0 1.5412,0.116 2.1535,0.3481 0.6168,0.2279 1.1262,0.5451 1.533,0.9479 0.4062,0.4023 0.7103,0.8663 0.9113,1.3984 0.201,0.532 0.2999,1.0992 0.2999,1.7024 0,0.5409 -0.0499,1.0812 -0.1431,1.6175 -0.0987,0.536 -0.2997,1.1171 -0.6078,1.743 -0.3132,0.6253 -0.7594,1.3176 -1.3453,2.0818 -0.5811,0.7639 -1.3584,1.6441 -2.3275,2.641 l -2.6813,2.8018 h 7.3732 c 0.0669,0 0.1338,0.0178 0.2009,0.0581 0.0669,0.04 0.1251,0.0981 0.1693,0.174 0.0499,0.0808 0.085,0.1789 0.1077,0.2948 0.0221,0.1163 0.0312,0.2552 0.0312,0.4114 z m 323.3188,-0.8983 c 0,0.2681 -0.013,0.5181 -0.04,0.7421 -0.0272,0.2273 -0.0671,0.4422 -0.1253,0.6431 -0.0538,0.201 -0.1338,0.398 -0.2369,0.5942 -0.0981,0.197 -0.2231,0.4022 -0.3708,0.6211 l -1.7827,2.6634 c -0.0448,0.0711 -0.0938,0.125 -0.1519,0.1701 -0.0582,0.0442 -0.1251,0.0799 -0.201,0.1111 -0.0808,0.0312 -0.1741,0.0538 -0.286,0.072 -0.1072,0.0178 -0.2413,0.0269 -0.398,0.0269 -0.1471,0 -0.2722,-0.005 -0.3753,-0.0181 -0.0981,-0.0136 -0.1698,-0.0406 -0.214,-0.0717 -0.0451,-0.036 -0.0672,-0.0803 -0.072,-0.1251 -0.004,-0.049 0.009,-0.1119 0.045,-0.1921 l 1.7155,-3.5657 v -1.6713 c 0,-0.237 0.027,-0.4241 0.0808,-0.563 0.0491,-0.1383 0.1293,-0.2412 0.2279,-0.313 0.1024,-0.0711 0.2274,-0.1162 0.3884,-0.1431 0.1567,-0.0261 0.3441,-0.04 0.5629,-0.04 0.2101,0 0.3932,0.0139 0.55,0.04 0.1604,0.0269 0.286,0.072 0.3883,0.1431 0.0989,0.0718 0.1749,0.1747 0.224,0.313 0.049,0.1389 0.0711,0.326 0.0711,0.563 z m 0,-8.6148 c 0,0.2812 -0.0179,0.5182 -0.0581,0.7103 -0.04,0.1919 -0.1159,0.349 -0.2231,0.4649 -0.112,0.1202 -0.2548,0.201 -0.4292,0.25 -0.174,0.0491 -0.3979,0.0712 -0.6701,0.0712 -0.2817,0 -0.5099,-0.0221 -0.684,-0.0712 -0.174,-0.049 -0.3172,-0.1298 -0.4201,-0.25 -0.1071,-0.1159 -0.1783,-0.273 -0.2188,-0.4649 -0.0402,-0.1921 -0.0581,-0.4291 -0.0581,-0.7103 0,-0.2951 0.0179,-0.5409 0.0581,-0.737 0.0405,-0.197 0.1117,-0.358 0.2188,-0.474 0.1029,-0.121 0.2461,-0.2012 0.4201,-0.2503 0.1741,-0.049 0.4023,-0.0717 0.684,-0.0717 0.2722,0 0.4961,0.0227 0.6701,0.0717 0.1744,0.0491 0.3172,0.1293 0.4292,0.2503 0.1072,0.116 0.1831,0.277 0.2231,0.474 0.0402,0.1961 0.0581,0.4419 0.0581,0.737 z m -9.3878,-0.3799 c -0.3132,-0.045 -0.6344,-0.0759 -0.9652,-0.0893 -0.3262,-0.0138 -0.6301,-0.0178 -0.9113,-0.0178 -0.5902,0 -1.0814,0.049 -1.4752,0.1519 -0.3971,0.0981 -0.71,0.2452 -0.9513,0.4332 -0.2369,0.1879 -0.407,0.411 -0.5051,0.6661 -0.1029,0.25 -0.1519,0.5312 -0.1519,0.8402 0,0.3121 0.0581,0.5981 0.174,0.8484 0.121,0.2506 0.2951,0.4606 0.5363,0.6301 0.237,0.1698 0.5451,0.3039 0.9159,0.3929 0.3759,0.0941 0.894,0.1389 1.5644,0.1389 h 1.7694 z m 2.1714,10.5319 c 0,0.0711 -0.0131,0.1292 -0.0443,0.1831 -0.0317,0.0539 -0.085,0.0941 -0.1658,0.125 -0.0802,0.0312 -0.1871,0.0539 -0.3302,0.072 -0.1389,0.0173 -0.322,0.0261 -0.5499,0.0261 -0.2143,0 -0.389,-0.009 -0.5273,-0.0261 -0.1429,-0.0181 -0.2548,-0.0408 -0.335,-0.072 -0.0851,-0.0309 -0.1429,-0.0711 -0.1741,-0.125 -0.0317,-0.049 -0.0448,-0.112 -0.0448,-0.1831 v -4.9558 h -1.2424 c -0.5409,0 -0.9604,0.045 -1.2643,0.1301 -0.2999,0.089 -0.572,0.2319 -0.809,0.4379 -0.2412,0.2053 -0.4561,0.4692 -0.648,0.7861 -0.1921,0.3172 -0.3753,0.7061 -0.5493,1.1713 l -0.9561,2.3006 c -0.0451,0.1119 -0.0899,0.2057 -0.1432,0.2729 -0.0538,0.0712 -0.1298,0.125 -0.2279,0.165 -0.0981,0.0403 -0.2279,0.0672 -0.3801,0.0808 -0.152,0.0133 -0.339,0.0173 -0.5672,0.0173 -0.161,0 -0.3082,-0.004 -0.4332,-0.0131 -0.1258,-0.009 -0.2327,-0.0221 -0.322,-0.0447 -0.085,-0.0222 -0.1519,-0.0582 -0.1919,-0.1072 -0.0451,-0.0451 -0.0672,-0.1071 -0.0672,-0.174 0,-0.063 0.0221,-0.161 0.0712,-0.2951 0.049,-0.1341 0.1479,-0.3711 0.2951,-0.7104 l 0.9431,-2.2121 c 0.2451,-0.5582 0.5451,-1.0412 0.9022,-1.4434 0.358,-0.4063 0.7691,-0.7059 1.2334,-0.8981 -0.8493,-0.1562 -1.5194,-0.496 -2.0245,-1.0142 -0.5001,-0.523 -0.7504,-1.2112 -0.7504,-2.0684 0,-0.5681 0.1163,-1.0815 0.3532,-1.5424 0.237,-0.46 0.5811,-0.8484 1.0412,-1.1661 0.4552,-0.3212 1.0185,-0.5673 1.6886,-0.7371 0.6659,-0.1692 1.4301,-0.2542 2.2972,-0.2542 0.2052,0 0.451,0.004 0.7234,0.013 0.2769,0.009 0.559,0.0221 0.849,0.04 0.2951,0.0181 0.5768,0.036 0.8541,0.0581 0.2721,0.023 0.5091,0.0408 0.71,0.0581 0.2634,0.0269 0.4604,0.1208 0.5902,0.2908 0.1293,0.1653 0.1962,0.3711 0.1962,0.612 z m -14.7997,-5.3841 h -1.8454 c -0.5893,0 -1.1032,0.049 -1.5415,0.1513 -0.4331,0.0987 -0.7951,0.2509 -1.0859,0.447 -0.2855,0.1971 -0.4955,0.4289 -0.6344,0.7062 -0.1338,0.2769 -0.201,0.5941 -0.201,0.9518 0,0.6123 0.1922,1.0993 0.5811,1.4607 0.3884,0.362 0.9292,0.5457 1.6305,0.5457 0.563,0 1.0911,-0.1429 1.5732,-0.4337 0.4831,-0.286 0.9922,-0.7282 1.5234,-1.3224 z m 2.1452,5.3974 c 0,0.1029 -0.036,0.1828 -0.1029,0.237 -0.0711,0.0538 -0.1652,0.089 -0.2902,0.1159 -0.1208,0.0269 -0.2999,0.04 -0.5361,0.04 -0.2239,0 -0.407,-0.0131 -0.5411,-0.04 -0.1338,-0.0269 -0.2322,-0.0621 -0.2948,-0.1159 -0.0624,-0.0542 -0.0941,-0.1301 -0.0941,-0.237 v -1.1795 c -0.5134,0.5494 -1.0854,0.9782 -1.7204,1.2824 -0.6341,0.2991 -1.3042,0.451 -2.0103,0.451 -0.6213,0 -1.1843,-0.0799 -1.6846,-0.241 -0.5009,-0.161 -0.9292,-0.3979 -1.2821,-0.7012 -0.3532,-0.3042 -0.6302,-0.684 -0.8272,-1.1262 -0.1961,-0.4471 -0.2948,-0.9522 -0.2948,-1.5194 0,-0.6659 0.1338,-1.2422 0.4068,-1.7292 0.2682,-0.492 0.6565,-0.8983 1.1662,-1.2203 0.5051,-0.3211 1.1262,-0.5672 1.8586,-0.7282 0.7331,-0.161 1.5594,-0.2409 2.4755,-0.2409 h 1.6263 v -0.9204 c 0,-0.4519 -0.0491,-0.8538 -0.1429,-1.207 -0.0984,-0.3481 -0.2503,-0.639 -0.4643,-0.8711 -0.2149,-0.2322 -0.4921,-0.4062 -0.8311,-0.523 -0.3402,-0.1202 -0.76,-0.1783 -1.2555,-0.1783 -0.532,0 -1.01,0.0621 -1.4301,0.1919 -0.4243,0.1293 -0.7954,0.2682 -1.1123,0.4243 -0.318,0.1568 -0.5859,0.2951 -0.8002,0.425 -0.21,0.1292 -0.3711,0.1919 -0.474,0.1919 -0.0711,0 -0.134,-0.0179 -0.1831,-0.0539 -0.053,-0.0309 -0.098,-0.0848 -0.138,-0.1559 -0.0408,-0.0672 -0.0672,-0.157 -0.0851,-0.2642 -0.0178,-0.1111 -0.0269,-0.2279 -0.0269,-0.362 0,-0.214 0.0131,-0.388 0.0448,-0.5133 0.0312,-0.125 0.1072,-0.2458 0.2234,-0.3578 0.1159,-0.1114 0.3217,-0.246 0.608,-0.4022 0.2852,-0.1519 0.6211,-0.2948 0.9961,-0.4241 0.3711,-0.125 0.7821,-0.233 1.2285,-0.3172 0.4428,-0.085 0.8941,-0.1258 1.3451,-0.1258 0.8444,0 1.5641,0.0941 2.1583,0.2863 0.5941,0.1919 1.0723,0.4779 1.4386,0.849 0.3668,0.371 0.6301,0.8311 0.7959,1.381 0.165,0.5494 0.25,1.1925 0.25,1.9256 z m -12.8871,-0.0133 c 0,0.0711 -0.0182,0.1292 -0.0533,0.1788 -0.036,0.0443 -0.0899,0.0893 -0.1701,0.1253 -0.0799,0.0309 -0.1879,0.0579 -0.3308,0.076 -0.1383,0.0173 -0.3124,0.0261 -0.5224,0.0261 -0.2237,0 -0.402,-0.009 -0.5409,-0.0261 -0.1431,-0.0181 -0.25,-0.0451 -0.331,-0.076 -0.08,-0.036 -0.1338,-0.081 -0.1693,-0.1253 -0.036,-0.0496 -0.0538,-0.1077 -0.0538,-0.1788 v -5.1698 h -5.9783 v 5.1698 c 0,0.0711 -0.0179,0.1292 -0.0539,0.1788 -0.036,0.0443 -0.0893,0.0893 -0.17,0.1253 -0.08,0.0309 -0.1871,0.0579 -0.3303,0.076 -0.1389,0.0173 -0.3177,0.0261 -0.536,0.0261 -0.2149,0 -0.3889,-0.009 -0.5278,-0.0261 -0.1432,-0.0181 -0.2543,-0.0451 -0.3351,-0.076 -0.085,-0.036 -0.1431,-0.081 -0.1743,-0.1253 -0.0309,-0.0496 -0.0448,-0.1077 -0.0448,-0.1788 v -11.7873 c 0,-0.0717 0.0139,-0.1299 0.0448,-0.1789 0.0312,-0.0451 0.0893,-0.0893 0.1743,-0.1298 0.0808,-0.0403 0.1919,-0.0672 0.3351,-0.0802 0.1389,-0.0131 0.3129,-0.0182 0.5278,-0.0182 0.2183,0 0.3971,0.005 0.536,0.0182 0.1432,0.013 0.2503,0.0399 0.3303,0.0802 0.0807,0.0405 0.134,0.0847 0.17,0.1298 0.036,0.049 0.0539,0.1072 0.0539,0.1789 v 4.7942 h 5.9783 v -4.7942 c 0,-0.0717 0.0178,-0.1299 0.0538,-0.1789 0.0355,-0.0451 0.0893,-0.0893 0.1693,-0.1298 0.081,-0.0403 0.1879,-0.0672 0.331,-0.0802 0.1389,-0.0131 0.3172,-0.0182 0.5409,-0.0182 0.21,0 0.3841,0.005 0.5224,0.0182 0.1429,0.013 0.2509,0.0399 0.3308,0.0802 0.0802,0.0405 0.1341,0.0847 0.1701,0.1298 0.0351,0.049 0.0533,0.1072 0.0533,0.1789 z m -12.4708,-11.1351 c 0,0.1741 -0.009,0.322 -0.0269,0.4422 -0.0181,0.125 -0.0451,0.2237 -0.085,0.2991 -0.04,0.0808 -0.0851,0.1389 -0.1341,0.1789 -0.0539,0.0402 -0.1208,0.0581 -0.1967,0.0581 h -3.5258 v 10.1568 c 0,0.0711 -0.0172,0.1292 -0.0532,0.1788 -0.0358,0.0443 -0.0899,0.0893 -0.1698,0.1253 -0.0803,0.0309 -0.188,0.0579 -0.3311,0.076 -0.1381,0.0173 -0.3172,0.0261 -0.5361,0.0261 -0.2143,0 -0.3883,-0.009 -0.5272,-0.0261 -0.1429,-0.0181 -0.2548,-0.0451 -0.3351,-0.076 -0.085,-0.036 -0.1428,-0.081 -0.174,-0.1253 -0.0312,-0.0496 -0.0451,-0.1077 -0.0451,-0.1788 v -10.1568 h -3.5254 c -0.0672,0 -0.1293,-0.0179 -0.1874,-0.0581 -0.0578,-0.04 -0.1029,-0.0981 -0.1389,-0.1789 -0.0309,-0.0754 -0.0621,-0.1783 -0.0848,-0.3033 -0.0221,-0.125 -0.0311,-0.277 -0.0311,-0.4519 0,-0.1562 0.009,-0.2942 0.0311,-0.4152 0.0227,-0.125 0.0539,-0.2279 0.0939,-0.3082 0.0399,-0.085 0.085,-0.1428 0.1389,-0.1831 0.049,-0.0405 0.1111,-0.0587 0.1783,-0.0587 h 9.2228 c 0.0669,0 0.1298,0.0182 0.1879,0.0587 0.0578,0.0403 0.1029,0.0981 0.1381,0.1831 0.0317,0.0803 0.0629,0.1874 0.085,0.3124 0.0227,0.1259 0.0317,0.2682 0.0317,0.4249 z m -11.095,9.3209 c 0,0.1471 -0.005,0.277 -0.0139,0.3841 -0.009,0.112 -0.0221,0.201 -0.0442,0.2769 -0.0227,0.076 -0.0491,0.1389 -0.0808,0.1971 -0.0312,0.0581 -0.0981,0.1428 -0.2101,0.25 -0.1071,0.1119 -0.2951,0.246 -0.5542,0.411 -0.263,0.161 -0.5581,0.3084 -0.8841,0.4334 -0.3311,0.1298 -0.684,0.2327 -1.0684,0.3087 -0.3841,0.0802 -0.782,0.1202 -1.1931,0.1202 -0.8489,0 -1.5993,-0.1381 -2.2515,-0.4201 -0.6571,-0.2769 -1.207,-0.6832 -1.6444,-1.2195 -0.4428,-0.536 -0.7778,-1.1979 -1.01,-1.9751 -0.2321,-0.7821 -0.3489,-1.6801 -0.3489,-2.7034 0,-1.1574 0.1428,-2.1535 0.4249,-2.9895 0.286,-0.8311 0.6743,-1.5145 1.1662,-2.0466 0.496,-0.5312 1.0771,-0.9244 1.7424,-1.184 0.6701,-0.2543 1.3944,-0.3841 2.1716,-0.3841 0.3756,0 0.7379,0.0357 1.0902,0.1069 0.3578,0.0671 0.6798,0.161 0.9788,0.2729 0.2951,0.1163 0.5633,0.2461 0.7912,0.398 0.2322,0.1471 0.4022,0.277 0.5043,0.3793 0.108,0.1077 0.1791,0.1922 0.2191,0.25 0.036,0.0629 0.0717,0.1349 0.0986,0.2191 0.0222,0.0808 0.0403,0.1749 0.0494,0.2818 0.009,0.1032 0.013,0.237 0.013,0.3932 0,0.3398 -0.0402,0.5762 -0.1162,0.7151 -0.08,0.1341 -0.1741,0.201 -0.29,0.201 -0.1301,0 -0.282,-0.0717 -0.4518,-0.2188 -0.1693,-0.1432 -0.3841,-0.3042 -0.6475,-0.4782 -0.2639,-0.1741 -0.5811,-0.3351 -0.9521,-0.4782 -0.3711,-0.1477 -0.809,-0.2189 -1.3133,-0.2189 -1.0412,0 -1.8414,0.398 -2.3953,1.1974 -0.5542,0.7951 -0.8311,1.9531 -0.8311,3.4673 0,0.7552 0.0717,1.4213 0.214,1.9934 0.148,0.5672 0.358,1.0454 0.6392,1.4295 0.277,0.3798 0.6211,0.6661 1.0279,0.8532 0.4064,0.1879 0.8713,0.2818 1.3943,0.2818 0.5003,0 0.9383,-0.0808 1.3133,-0.237 0.3753,-0.1559 0.6973,-0.3303 0.9743,-0.523 0.2769,-0.1871 0.5091,-0.3572 0.697,-0.5091 0.1879,-0.1562 0.3311,-0.2322 0.438,-0.2322 0.0581,0 0.1119,0.0182 0.1562,0.0533 0.045,0.036 0.0807,0.0938 0.1119,0.1749 0.0312,0.0848 0.0533,0.1871 0.0672,0.3169 0.013,0.125 0.0179,0.2773 0.0179,0.4513 z m -15.147797,2.1404 -1.5684,4.3388 c -0.0539,0.138 -0.188,0.246 -0.4023,0.322 -0.21,0.0759 -0.536,0.1111 -0.9739,0.1111 -0.2282,0 -0.4111,-0.009 -0.55,-0.0309 -0.1383,-0.0221 -0.2454,-0.0629 -0.3214,-0.112 -0.0717,-0.0533 -0.112,-0.125 -0.1208,-0.21 -0.009,-0.0893 0.0131,-0.1922 0.063,-0.3172 l 1.6262,-4.1018 c -0.0808,-0.036 -0.1568,-0.0941 -0.2239,-0.17 -0.0712,-0.0803 -0.1202,-0.161 -0.1429,-0.25 l -4.2041,-11.2604 c -0.072,-0.1831 -0.1032,-0.3308 -0.1032,-0.4331 0,-0.1077 0.0312,-0.188 0.1032,-0.2509 0.0712,-0.0621 0.1831,-0.102 0.339,-0.125 0.1562,-0.0221 0.3663,-0.0312 0.6302,-0.0312 0.2591,0 0.4652,0.005 0.6162,0.0182 0.148,0.013 0.2639,0.0399 0.3532,0.0759 0.0851,0.0312 0.1477,0.0851 0.188,0.1471 0.0399,0.0669 0.0799,0.1568 0.125,0.2682 l 3.3647,9.4555 h 0.04 l 3.2445,-9.5045 c 0.053,-0.1701 0.1159,-0.2773 0.1919,-0.3215 0.0712,-0.0496 0.1831,-0.0847 0.3303,-0.1077 0.1522,-0.0221 0.367,-0.0312 0.644,-0.0312 0.2452,0 0.447,0.009 0.603197,0.0312 0.1562,0.023 0.2721,0.0629 0.3438,0.125 0.0763,0.0629 0.112,0.1432 0.112,0.2509 0,0.1023 -0.0269,0.2364 -0.076,0.3931 z m -10.6662,-6.1622 c 0,-0.6032 -0.0448,-1.1883 -0.1389,-1.7512 -0.089,-0.5633 -0.25,-1.0636 -0.4692,-1.5015 -0.223,-0.438 -0.5221,-0.7861 -0.898,-1.0503 -0.3753,-0.263 -0.8444,-0.3929 -1.4026,-0.3929 -0.2817,0 -0.5541,0.04 -0.8268,0.125 -0.2682,0.0851 -0.5451,0.2149 -0.8263,0.3932 -0.2772,0.1789 -0.5723,0.4159 -0.8762,0.7109 -0.3039,0.2943 -0.6301,0.6563 -0.9695,1.0854 v 4.6877 c 0.5945,0.7282 1.1574,1.2824 1.6886,1.6704 0.5364,0.385 1.0951,0.5772 1.6804,0.5772 0.5409,0 1.0052,-0.1301 1.3941,-0.3932 0.3892,-0.2639 0.7013,-0.6123 0.9431,-1.0502 0.2412,-0.438 0.4153,-0.9253 0.5315,-1.4704 0.1117,-0.5408 0.1698,-1.0902 0.1698,-1.6401 z m 2.2524,-0.25 c 0,1.0321 -0.112,1.9573 -0.3351,2.7794 -0.2191,0.8175 -0.5459,1.5145 -0.9791,2.0865 -0.4291,0.5721 -0.9652,1.0143 -1.5993,1.323 -0.6349,0.3081 -1.3631,0.4643 -2.1807,0.4643 -0.3486,0 -0.6701,-0.0352 -0.9649,-0.1029 -0.2999,-0.0712 -0.5859,-0.1783 -0.8713,-0.3302 -0.2818,-0.148 -0.563,-0.3351 -0.8402,-0.563 -0.2818,-0.2234 -0.5769,-0.4912 -0.8893,-0.7954 v 5.9023 c 0,0.072 -0.0178,0.1301 -0.0538,0.184 -0.0357,0.053 -0.089,0.098 -0.1698,0.134 -0.0802,0.0309 -0.1874,0.0579 -0.3302,0.0752 -0.1389,0.0181 -0.3178,0.0269 -0.5364,0.0269 -0.2148,0 -0.3889,-0.009 -0.5278,-0.0269 -0.1428,-0.0173 -0.2542,-0.0443 -0.335,-0.0752 -0.0851,-0.036 -0.1429,-0.081 -0.1741,-0.134 -0.0312,-0.0539 -0.0448,-0.112 -0.0448,-0.184 v -16.4653 c 0,-0.0808 0.0136,-0.1429 0.0406,-0.1922 0.0263,-0.0448 0.0802,-0.0896 0.1562,-0.1208 0.0802,-0.036 0.1788,-0.0629 0.3041,-0.0759 0.1202,-0.0131 0.2721,-0.0182 0.4462,-0.0182 0.1837,0 0.3359,0.005 0.4561,0.0182 0.1159,0.013 0.2149,0.0399 0.2948,0.0711 0.0802,0.036 0.1341,0.0808 0.1653,0.1256 0.0317,0.0493 0.0447,0.1114 0.0447,0.1922 v 1.5772 c 0.3572,-0.3668 0.7013,-0.684 1.0324,-0.9562 0.3308,-0.2678 0.6659,-0.4918 1.0009,-0.6706 0.3354,-0.1783 0.6792,-0.3172 1.0324,-0.4065 0.3529,-0.0938 0.7234,-0.1389 1.1171,-0.1389 0.8533,0 1.5772,0.1658 2.1805,0.496 0.5983,0.3354 1.0902,0.7872 1.4703,1.3632 0.3793,0.5763 0.6562,1.2464 0.8302,2.0106 0.1749,0.7643 0.26,1.5733 0.26,2.4265 z m -13.0751,-5.063 c 0,0.1749 -0.009,0.3221 -0.0312,0.4428 -0.0221,0.1205 -0.0538,0.2234 -0.0941,0.2993 -0.0357,0.0803 -0.0799,0.1389 -0.129,0.1698 -0.0499,0.036 -0.108,0.0533 -0.1749,0.0533 h -4.4231 v 10.1838 c 0,0.0711 -0.0179,0.1292 -0.0539,0.1788 -0.036,0.0443 -0.089,0.0893 -0.1701,0.1253 -0.0799,0.0309 -0.1871,0.0579 -0.3302,0.076 -0.1386,0.0173 -0.3178,0.0261 -0.5361,0.0261 -0.2148,0 -0.3889,-0.009 -0.5278,-0.0261 -0.1431,-0.0181 -0.2542,-0.0451 -0.335,-0.076 -0.0851,-0.036 -0.1432,-0.081 -0.1741,-0.1253 -0.0311,-0.0496 -0.045,-0.1077 -0.045,-0.1788 v -11.3409 c 0,-0.2633 0.0581,-0.4555 0.1791,-0.5853 0.116,-0.125 0.277,-0.188 0.487,-0.188 h 5.925 c 0.0711,0 0.1292,0.0182 0.1791,0.0587 0.0491,0.0403 0.089,0.0981 0.129,0.1831 0.0403,0.0803 0.072,0.1832 0.0941,0.2994 0.0221,0.1159 0.0312,0.2591 0.0312,0.424 z m -19.281,0.6171 c -0.3129,-0.045 -0.6341,-0.0759 -0.9652,-0.0893 -0.326,-0.0138 -0.6301,-0.0178 -0.9113,-0.0178 -0.5899,0 -1.0811,0.049 -1.4749,0.1519 -0.3974,0.0981 -0.7103,0.2452 -0.9516,0.4332 -0.2369,0.1879 -0.4067,0.411 -0.5048,0.6661 -0.1029,0.25 -0.152,0.5312 -0.152,0.8402 0,0.3121 0.0579,0.5981 0.1741,0.8484 0.1207,0.2506 0.2951,0.4606 0.536,0.6301 0.237,0.1698 0.5451,0.3039 0.9162,0.3929 0.3759,0.0941 0.894,0.1389 1.5641,0.1389 h 1.7694 z m 2.1716,10.5319 c 0,0.0711 -0.0133,0.1292 -0.0442,0.1831 -0.0317,0.0539 -0.085,0.0941 -0.1658,0.125 -0.0802,0.0312 -0.1874,0.0539 -0.3302,0.072 -0.1389,0.0173 -0.3221,0.0261 -0.55,0.0261 -0.2143,0 -0.3892,-0.009 -0.5272,-0.0261 -0.1432,-0.0181 -0.2551,-0.0408 -0.3351,-0.072 -0.085,-0.0309 -0.1431,-0.0711 -0.174,-0.125 -0.032,-0.049 -0.0451,-0.112 -0.0451,-0.1831 v -4.9558 h -1.2421 c -0.5412,0 -0.9604,0.045 -1.2646,0.1301 -0.2996,0.089 -0.572,0.2319 -0.809,0.4379 -0.2409,0.2053 -0.4558,0.4692 -0.648,0.7861 -0.1919,0.3172 -0.375,0.7061 -0.549,1.1713 l -0.9564,2.3006 c -0.0448,0.1119 -0.0899,0.2057 -0.1429,0.2729 -0.0539,0.0712 -0.1298,0.125 -0.2282,0.165 -0.0981,0.0403 -0.2279,0.0672 -0.3798,0.0808 -0.152,0.0133 -0.3393,0.0173 -0.5673,0.0173 -0.161,0 -0.3081,-0.004 -0.4331,-0.0131 -0.1258,-0.009 -0.233,-0.0221 -0.322,-0.0447 -0.085,-0.0222 -0.1519,-0.0582 -0.1922,-0.1072 -0.0448,-0.0451 -0.0669,-0.1071 -0.0669,-0.174 0,-0.063 0.0221,-0.161 0.0712,-0.2951 0.049,-0.1341 0.1476,-0.3711 0.295,-0.7104 l 0.9431,-2.2121 c 0.2452,-0.5582 0.5451,-1.0412 0.9023,-1.4434 0.3577,-0.4063 0.7688,-0.7059 1.2331,-0.8981 -0.849,-0.1562 -1.5191,-0.496 -2.0242,-1.0142 -0.5004,-0.523 -0.7504,-1.2112 -0.7504,-2.0684 0,-0.5681 0.1162,-1.0815 0.3532,-1.5424 0.237,-0.46 0.5808,-0.8484 1.0412,-1.1661 0.4552,-0.3212 1.0182,-0.5673 1.6883,-0.7371 0.6661,-0.1692 1.4304,-0.2542 2.2972,-0.2542 0.2052,0 0.4513,0.004 0.7234,0.013 0.2772,0.009 0.559,0.0221 0.8493,0.04 0.295,0.0181 0.5768,0.036 0.8538,0.0581 0.2724,0.023 0.5093,0.0408 0.7103,0.0581 0.2634,0.0269 0.4601,0.1208 0.5899,0.2908 0.1293,0.1653 0.1964,0.3711 0.1964,0.612 z m -14.7996,-5.3841 h -1.8454 c -0.5893,0 -1.1035,0.049 -1.5415,0.1513 -0.4331,0.0987 -0.7951,0.2509 -1.0862,0.447 -0.2852,0.1971 -0.4952,0.4289 -0.6341,0.7062 -0.1341,0.2769 -0.201,0.5941 -0.201,0.9518 0,0.6123 0.1919,1.0993 0.5811,1.4607 0.3881,0.362 0.9292,0.5457 1.6305,0.5457 0.563,0 1.0908,-0.1429 1.5729,-0.4337 0.4831,-0.286 0.9922,-0.7282 1.5237,-1.3224 z m 2.1452,5.3974 c 0,0.1029 -0.036,0.1828 -0.1032,0.237 -0.0711,0.0538 -0.1649,0.089 -0.2899,0.1159 -0.1211,0.0269 -0.3,0.04 -0.5364,0.04 -0.2236,0 -0.4067,-0.0131 -0.5408,-0.04 -0.1341,-0.0269 -0.2322,-0.0621 -0.2951,-0.1159 -0.0621,-0.0542 -0.0938,-0.1301 -0.0938,-0.237 v -1.1795 c -0.5134,0.5494 -1.0854,0.9782 -1.7204,1.2824 -0.6344,0.2991 -1.3045,0.451 -2.0106,0.451 -0.6211,0 -1.184,-0.0799 -1.6843,-0.241 -0.5009,-0.161 -0.9292,-0.3979 -1.2824,-0.7012 -0.3529,-0.3042 -0.6302,-0.684 -0.8269,-1.1262 -0.1961,-0.4471 -0.2951,-0.9522 -0.2951,-1.5194 0,-0.6659 0.1341,-1.2422 0.4071,-1.7292 0.2679,-0.492 0.6562,-0.8983 1.1662,-1.2203 0.5051,-0.3211 1.1262,-0.5672 1.8583,-0.7282 0.7331,-0.161 1.5594,-0.2409 2.4755,-0.2409 h 1.6266 v -0.9204 c 0,-0.4519 -0.0491,-0.8538 -0.1432,-1.207 -0.0981,-0.3481 -0.25,-0.639 -0.4643,-0.8711 -0.2149,-0.2322 -0.4918,-0.4062 -0.8311,-0.523 -0.3399,-0.1202 -0.76,-0.1783 -1.2552,-0.1783 -0.5321,0 -1.0103,0.0621 -1.4304,0.1919 -0.424,0.1293 -0.7951,0.2682 -1.1123,0.4243 -0.3177,0.1568 -0.5859,0.2951 -0.7999,0.425 -0.2101,0.1292 -0.3711,0.1919 -0.474,0.1919 -0.0711,0 -0.134,-0.0179 -0.1831,-0.0539 -0.0533,-0.0309 -0.0981,-0.0848 -0.1383,-0.1559 -0.0406,-0.0672 -0.0669,-0.157 -0.0848,-0.2642 -0.0181,-0.1111 -0.0269,-0.2279 -0.0269,-0.362 0,-0.214 0.013,-0.388 0.0448,-0.5133 0.0312,-0.125 0.1071,-0.2458 0.2231,-0.3578 0.1162,-0.1114 0.322,-0.246 0.608,-0.4022 0.2855,-0.1519 0.6211,-0.2948 0.9964,-0.4241 0.371,-0.125 0.7821,-0.233 1.2282,-0.3172 0.4431,-0.085 0.8941,-0.1258 1.3454,-0.1258 0.8441,0 1.5641,0.0941 2.1583,0.2863 0.5941,0.1919 1.0723,0.4779 1.4383,0.849 0.367,0.371 0.6301,0.8311 0.7959,1.381 0.1653,0.5494 0.2503,1.1925 0.2503,1.9256 z m -12.8874,-0.0133 c 0,0.0711 -0.0179,0.1292 -0.053,0.1788 -0.036,0.0443 -0.0899,0.0893 -0.1701,0.1253 -0.0802,0.0309 -0.1879,0.0579 -0.3311,0.076 -0.138,0.0173 -0.3121,0.0261 -0.5221,0.0261 -0.224,0 -0.4023,-0.009 -0.5412,-0.0261 -0.1428,-0.0181 -0.25,-0.0451 -0.3308,-0.076 -0.0802,-0.036 -0.134,-0.081 -0.1692,-0.1253 -0.036,-0.0496 -0.0539,-0.1077 -0.0539,-0.1788 v -5.1698 h -5.9782 v 5.1698 c 0,0.0711 -0.0182,0.1292 -0.0542,0.1788 -0.0357,0.0443 -0.089,0.0893 -0.1698,0.1253 -0.0802,0.0309 -0.1873,0.0579 -0.3302,0.076 -0.1389,0.0173 -0.3178,0.0261 -0.5363,0.0261 -0.2149,0 -0.3889,-0.009 -0.5278,-0.0261 -0.1429,-0.0181 -0.2543,-0.0451 -0.3351,-0.076 -0.085,-0.036 -0.1428,-0.081 -0.174,-0.1253 -0.0312,-0.0496 -0.0448,-0.1077 -0.0448,-0.1788 v -11.7873 c 0,-0.0717 0.0136,-0.1299 0.0448,-0.1789 0.0312,-0.0451 0.089,-0.0893 0.174,-0.1298 0.0808,-0.0403 0.1922,-0.0672 0.3351,-0.0802 0.1389,-0.0131 0.3129,-0.0182 0.5278,-0.0182 0.2185,0 0.3974,0.005 0.5363,0.0182 0.1429,0.013 0.25,0.0399 0.3302,0.0802 0.0808,0.0405 0.1341,0.0847 0.1698,0.1298 0.036,0.049 0.0542,0.1072 0.0542,0.1789 v 4.7942 h 5.9782 v -4.7942 c 0,-0.0717 0.0179,-0.1299 0.0539,-0.1789 0.0352,-0.0451 0.089,-0.0893 0.1692,-0.1298 0.0808,-0.0403 0.188,-0.0672 0.3308,-0.0802 0.1389,-0.0131 0.3172,-0.0182 0.5412,-0.0182 0.21,0 0.3841,0.005 0.5221,0.0182 0.1432,0.013 0.2509,0.0399 0.3311,0.0802 0.0802,0.0405 0.1341,0.0847 0.1701,0.1298 0.0351,0.049 0.053,0.1072 0.053,0.1789 z"
     style="fill:#1b1918;fill-rule:evenodd"
     id="path934" />
  <path
     d="m 63.691443,586.8999 c 0,0.1654 -0.01,0.3124 -0.033,0.4397 -0.0241,0.1332 -0.057,0.2415 -0.0995,0.3271 -0.0424,0.09 -0.0951,0.1514 -0.166,0.1939 -0.071,0.0424 -0.1464,0.0614 -0.2268,0.0614 h -9.9274 c -0.1273,0 -0.2415,-0.0139 -0.341,-0.0475 -0.0943,-0.033 -0.1792,-0.0849 -0.2458,-0.161 -0.071,-0.071 -0.1229,-0.1792 -0.1558,-0.3168 -0.0337,-0.1368 -0.0476,-0.3073 -0.0476,-0.5107 0,-0.1851 0.01,-0.346 0.0234,-0.4828 0.0147,-0.1376 0.0432,-0.2605 0.09,-0.3695 0.0476,-0.1039 0.109,-0.2078 0.18,-0.3168 0.071,-0.1039 0.1654,-0.2173 0.2795,-0.3358 l 3.5864,-3.691 c 0.8326,-0.8517 1.4954,-1.6133 1.9966,-2.29 0.5019,-0.6717 0.8853,-1.287 1.1596,-1.8452 0.2693,-0.5538 0.4492,-1.0557 0.5348,-1.5093 0.0849,-0.4544 0.1273,-0.8802 0.1273,-1.2782 0,-0.3972 -0.0658,-0.7755 -0.1982,-1.1303 -0.1376,-0.3549 -0.3271,-0.6673 -0.5824,-0.9372 -0.251,-0.27 -0.5677,-0.4829 -0.9511,-0.6387 -0.3783,-0.1559 -0.8187,-0.2364 -1.3155,-0.2364 -0.5816,0 -1.1025,0.0805 -1.5664,0.2364 -0.4587,0.1558 -0.8655,0.3314 -1.2159,0.5157 -0.3454,0.1844 -0.6387,0.3593 -0.8707,0.5158 -0.2319,0.1559 -0.4067,0.2364 -0.5201,0.2364 -0.0666,0 -0.1281,-0.0191 -0.18,-0.0564 -0.052,-0.038 -0.0944,-0.0951 -0.1281,-0.18 -0.0329,-0.0804 -0.0614,-0.1938 -0.0797,-0.3314 -0.019,-0.1419 -0.0285,-0.3073 -0.0285,-0.5011 0,-0.1376 0.004,-0.2561 0.0139,-0.36 0.009,-0.0995 0.0234,-0.1895 0.0475,-0.2649 0.0234,-0.0709 0.052,-0.1419 0.09,-0.2085 0.0373,-0.0614 0.1134,-0.1419 0.2224,-0.2414 0.1134,-0.0944 0.3029,-0.2268 0.5773,-0.3922 0.2692,-0.1704 0.6145,-0.3314 1.0264,-0.4923 0.4068,-0.1654 0.8612,-0.2978 1.3579,-0.4119 0.4924,-0.1083 1.0126,-0.1654 1.5569,-0.1654 0.8707,0 1.6323,0.1229 2.2805,0.3688 0.6533,0.2414 1.1925,0.5772 1.6235,1.0037 0.4302,0.4258 0.7521,0.9175 0.965,1.4808 0.2129,0.5634 0.3175,1.1641 0.3175,1.8028 0,0.5728 -0.0527,1.145 -0.1515,1.7127 -0.1046,0.5677 -0.3175,1.183 -0.6438,1.8459 -0.3314,0.6621 -0.804,1.3952 -1.4245,2.2044 -0.6152,0.8091 -1.4383,1.7412 -2.4648,2.797 l -2.8394,2.9667 h 7.8079 c 0.0709,0 0.1419,0.019 0.2129,0.0615 0.0709,0.0424 0.1324,0.1038 0.1792,0.1843 0.0527,0.0856 0.09,0.1895 0.1141,0.3124 0.0235,0.1229 0.033,0.27 0.033,0.4353 z m 6.6387,-0.5019 c 0,0.6578 -0.109,1.0931 -0.3263,1.3111 -0.218,0.2173 -0.6102,0.3263 -1.183,0.3263 -0.5583,0 -0.9416,-0.109 -1.1545,-0.3219 -0.2129,-0.2129 -0.3168,-0.6387 -0.3168,-1.2774 0,-0.6577 0.1083,-1.0931 0.3263,-1.3103 0.2173,-0.2181 0.6102,-0.3271 1.183,-0.3271 0.5582,0 0.9416,0.1046 1.1545,0.3175 0.2078,0.2129 0.3168,0.6431 0.3168,1.2818 z m 15.6523,-3.5717 c 0,0.3021 -0.0468,0.5436 -0.1368,0.7191 -0.0951,0.1749 -0.2224,0.2598 -0.3885,0.2598 h -2.0251 v 3.7715 c 0,0.0754 -0.019,0.1368 -0.0563,0.1895 -0.0381,0.0468 -0.1047,0.0944 -0.199,0.1324 -0.0944,0.0329 -0.2224,0.0615 -0.3739,0.0805 -0.1514,0.0183 -0.3453,0.0278 -0.5816,0.0278 -0.232,0 -0.4214,-0.01 -0.5729,-0.0278 -0.1514,-0.019 -0.2743,-0.0476 -0.3643,-0.0805 -0.09,-0.038 -0.1515,-0.0856 -0.1844,-0.1324 -0.0329,-0.0527 -0.052,-0.1141 -0.052,-0.1895 v -3.7715 h -7.344 c -0.1134,0 -0.2034,-0.0139 -0.2743,-0.0425 -0.0754,-0.0285 -0.142,-0.0753 -0.2034,-0.1514 -0.0571,-0.071 -0.0995,-0.18 -0.1229,-0.3168 -0.0242,-0.1375 -0.033,-0.3175 -0.033,-0.5399 0,-0.1749 0.004,-0.3307 0.0139,-0.4683 0.01,-0.1368 0.0286,-0.2648 0.0571,-0.3782 0.0234,-0.1185 0.0615,-0.2276 0.1083,-0.3315 0.0424,-0.109 0.0995,-0.2224 0.1661,-0.3409 l 6.3973,-10.9114 c 0.0468,-0.0754 0.1178,-0.1368 0.2078,-0.1939 0.0899,-0.0563 0.2033,-0.1039 0.3453,-0.1368 0.1419,-0.0381 0.3175,-0.0666 0.5209,-0.0805 0.2078,-0.0146 0.4543,-0.019 0.7382,-0.019 0.3073,0 0.5816,0.01 0.8092,0.0329 0.2319,0.0234 0.4207,0.0571 0.5582,0.09 0.1419,0.038 0.2509,0.09 0.3263,0.1463 0.0761,0.0622 0.1134,0.1332 0.1134,0.218 v 11.4653 h 2.0251 c 0.1566,0 0.2839,0.0805 0.379,0.2415 0.0995,0.1602 0.1463,0.4067 0.1463,0.7382 z m -4.9348,-10.8361 h -0.0285 l -5.7725,9.8564 h 5.801 z m 10.8405,14.4078 c 0,0.6578 -0.109,1.0931 -0.3263,1.3111 -0.218,0.2173 -0.6102,0.3263 -1.183,0.3263 -0.5583,0 -0.9416,-0.109 -1.1545,-0.3219 -0.2129,-0.2129 -0.3168,-0.6387 -0.3168,-1.2774 0,-0.6577 0.1083,-1.0931 0.3263,-1.3103 0.2173,-0.2181 0.6101,-0.3271 1.183,-0.3271 0.5582,0 0.9416,0.1046 1.1545,0.3175 0.2078,0.2129 0.3168,0.6431 0.3168,1.2818 z m 14.947797,0.5868 c 0,0.1756 -0.0147,0.3219 -0.0432,0.4404 -0.0278,0.1186 -0.0614,0.2173 -0.1083,0.2883 -0.0475,0.0761 -0.0995,0.128 -0.1609,0.161 -0.0615,0.0336 -0.1229,0.0475 -0.1844,0.0475 h -9.369097 c -0.0615,0 -0.123,-0.0139 -0.18,-0.0475 -0.052,-0.033 -0.109,-0.0849 -0.1559,-0.161 -0.0519,-0.071 -0.09,-0.1697 -0.1185,-0.2883 -0.0285,-0.1185 -0.0424,-0.2648 -0.0424,-0.4404 0,-0.1653 0.0139,-0.3073 0.0424,-0.4258 0.0285,-0.1229 0.0615,-0.2224 0.1039,-0.2978 0.038,-0.0804 0.09,-0.1375 0.1514,-0.1799 0.0615,-0.0425 0.1281,-0.0615 0.1991,-0.0615 h 3.733397 V 572.364 l -3.468597,2.0727 c -0.1749,0.09 -0.3168,0.1464 -0.4258,0.1654 -0.1039,0.019 -0.1895,0 -0.2553,-0.0615 -0.0666,-0.0614 -0.1091,-0.1609 -0.1325,-0.2985 -0.0241,-0.1368 -0.0336,-0.3117 -0.0336,-0.5246 0,-0.1565 0.005,-0.2933 0.019,-0.4023 0.0146,-0.1134 0.038,-0.2034 0.0666,-0.2795 0.0285,-0.071 0.0658,-0.1368 0.1185,-0.1939 0.0468,-0.052 0.1134,-0.109 0.1983,-0.1654 l 4.135797,-2.6455 c 0.0373,-0.0278 0.0805,-0.052 0.1368,-0.071 0.0571,-0.0139 0.1281,-0.0329 0.2086,-0.0519 0.0848,-0.019 0.1799,-0.0329 0.2933,-0.0381 0.1091,-0.004 0.2459,-0.004 0.4163,-0.004 0.2181,0 0.4068,0.01 0.5539,0.0286 0.1463,0.019 0.2597,0.0424 0.3453,0.0753 0.0849,0.0337 0.1368,0.0761 0.1653,0.123 0.0286,0.0526 0.0425,0.1046 0.0425,0.1609 v 15.7665 h 3.2462 c 0.0761,0 0.147,0.019 0.2085,0.0615 0.0658,0.0424 0.1178,0.0995 0.161,0.1799 0.0424,0.0754 0.0753,0.1749 0.0987,0.2978 0.0242,0.1185 0.0337,0.2605 0.0337,0.4258 z m 14.361,-0.0849 c 0,0.1654 -0.009,0.3124 -0.0329,0.4397 -0.0242,0.1332 -0.0571,0.2415 -0.0995,0.3271 -0.0425,0.09 -0.0951,0.1514 -0.1661,0.1939 -0.071,0.0424 -0.1463,0.0614 -0.2268,0.0614 h -9.9274 c -0.1273,0 -0.2414,-0.0139 -0.3409,-0.0475 -0.0944,-0.033 -0.1793,-0.0849 -0.2459,-0.161 -0.0709,-0.071 -0.1229,-0.1792 -0.1558,-0.3168 -0.0336,-0.1368 -0.0475,-0.3073 -0.0475,-0.5107 0,-0.1851 0.01,-0.346 0.0234,-0.4828 0.0146,-0.1376 0.0431,-0.2605 0.09,-0.3695 0.0475,-0.1039 0.109,-0.2078 0.1799,-0.3168 0.071,-0.1039 0.1654,-0.2173 0.2795,-0.3358 l 3.5864,-3.691 c 0.8326,-0.8517 1.4955,-1.6133 1.9966,-2.29 0.5019,-0.6717 0.8853,-1.287 1.1596,-1.8452 0.2693,-0.5538 0.4493,-1.0557 0.5349,-1.5093 0.0848,-0.4544 0.1273,-0.8802 0.1273,-1.2782 0,-0.3972 -0.0659,-0.7755 -0.1983,-1.1303 -0.1375,-0.3549 -0.327,-0.6673 -0.5824,-0.9372 -0.2509,-0.27 -0.5677,-0.4829 -0.9511,-0.6387 -0.3782,-0.1559 -0.8187,-0.2364 -1.3154,-0.2364 -0.5817,0 -1.1026,0.0805 -1.5664,0.2364 -0.4588,0.1558 -0.8656,0.3314 -1.216,0.5157 -0.3453,0.1844 -0.6387,0.3593 -0.8706,0.5158 -0.232,0.1559 -0.4068,0.2364 -0.5202,0.2364 -0.0666,0 -0.128,-0.0191 -0.18,-0.0564 -0.0519,-0.038 -0.0944,-0.0951 -0.128,-0.18 -0.033,-0.0804 -0.0615,-0.1938 -0.0798,-0.3314 -0.019,-0.1419 -0.0285,-0.3073 -0.0285,-0.5011 0,-0.1376 0.004,-0.2561 0.0139,-0.36 0.01,-0.0995 0.0234,-0.1895 0.0475,-0.2649 0.0235,-0.0709 0.052,-0.1419 0.09,-0.2085 0.0374,-0.0614 0.1134,-0.1419 0.2225,-0.2414 0.1134,-0.0944 0.3028,-0.2268 0.5772,-0.3922 0.2692,-0.1704 0.6146,-0.3314 1.0265,-0.4923 0.4067,-0.1654 0.8611,-0.2978 1.3579,-0.4119 0.4923,-0.1083 1.0125,-0.1654 1.5569,-0.1654 0.8706,0 1.6322,0.1229 2.2804,0.3688 0.6534,0.2414 1.1926,0.5772 1.6235,1.0037 0.4302,0.4258 0.7521,0.9175 0.965,1.4808 0.2129,0.5634 0.3175,1.1641 0.3175,1.8028 0,0.5728 -0.0527,1.145 -0.1514,1.7127 -0.1046,0.5677 -0.3175,1.183 -0.6438,1.8459 -0.3315,0.6621 -0.8041,1.3952 -1.4245,2.2044 -0.6153,0.8091 -1.4384,1.7412 -2.4649,2.797 l -2.8394,2.9667 h 7.8079 c 0.071,0 0.1419,0.019 0.2129,0.0615 0.071,0.0424 0.1324,0.1038 0.1792,0.1843 0.0527,0.0856 0.09,0.1895 0.1142,0.3124 0.0234,0.1229 0.0329,0.27 0.0329,0.4353 z"
     style="fill:#1b1918;fill-rule:evenodd"
     id="path936" />
  <g
     id="Layer1047"
     transform="translate(-200.05226,-235.5891)">
    <g
       id="Layer1048">
      <path
         d="m 402.0542,625.6029 c 1.0512,0.4024 7.1831,0.009 8.6869,2.6186 -0.9586,0.5374 0.0122,0.3899 -1.3292,0.171 -1.7572,-0.2868 0.529,-0.0493 -0.6722,-0.1312 l -1.0204,0.0666 c -0.5566,-0.0507 -0.4125,-0.1109 -1.008,-0.0498 -0.8051,0.0823 -0.4217,0.0656 -1.0051,0.263 -1.0246,-0.3174 -3.0045,-0.1763 -4.3369,-0.4594 -1.6491,-1.8343 0.0835,-2.8999 0.6849,-2.4788 z"
         style="fill:#e30016;fill-rule:evenodd"
         id="path938" />
      <path
         d="m 396.637,613.7556 -0.2414,-1.2587 0.6819,-0.9094 0.1644,-0.005 c 1.6161,0.3942 1.7024,-0.1496 3.4881,-0.2886 1.3615,-0.1056 1.9926,0.0202 3.3347,0.3218 l 1.9349,1.3096 c -1.0039,0.4172 -0.7442,0.0554 -2.0925,0.7024 -0.8336,-0.5784 -2.9159,0.1201 -3.9939,0.3719 -3.148,0.6145 -4.3234,1.0235 -3.2762,-0.2445 z"
         style="fill:#e30016;fill-rule:evenodd"
         id="path940" />
      <path
         d="m 377.4956,654.43 -1.1136,-0.9926 1.7737,-1.6373 c 1.0513,1.0067 2.36,2.6234 3.1377,3.8604 1.4742,2.3417 1.3278,3.7851 1.2004,4.1596 -0.2285,0.6699 -0.8594,-0.4947 -1.8867,-1.818 -1.1762,-1.5157 -2.7689,-3.2883 -3.1115,-3.5721 z"
         style="fill:#e30016;fill-rule:evenodd"
         id="path942" />
      <path
         d="m 382.5106,598.9314 c 0.4773,-1.2933 -0.0601,-0.5994 1.0779,-1.0868 1.962,-0.4507 2.9426,-0.6577 4.6421,0.1817 0.2509,0.1238 0.5227,0.2937 0.7355,0.3759 1.2836,0.4767 -1.8836,0.8276 -1.9133,0.8309 -1.9841,0.2484 -3.2503,1.1031 -4.9097,1.0944 l 0.1492,-0.1986 c 0.7093,-0.751 0.2415,-0.9756 0.2183,-1.1975 z"
         style="fill:#e30016;fill-rule:evenodd"
         id="path944" />
      <path
         d="m 377.9478,620.774 0.0406,0.3485 c -0.6696,0.1009 0.3969,0.6443 -0.9498,-0.1562 z"
         style="fill:#b5b5b5;fill-rule:evenodd"
         id="path946" />
      <path
         d="m 360.8651,615.5828 c 2.8837,1.1413 5.0342,5.3506 9.3931,5.5937 2.6634,0.1485 5.7908,-1.0882 8.5229,-1.7837 1.2873,-0.3276 16.1359,-4.1862 16.8619,-4.7622 1.0964,0.0312 3.0931,-0.3556 4.2702,-0.6305 1.078,-0.2518 3.1603,-0.9503 3.9939,-0.3719 l 0.2831,0.4498 c -2.9436,0.1812 -10.2506,2.1519 -13.3268,3.0199 -2.0486,0.5774 -4.2661,1.2278 -6.5206,1.8522 -1.7822,0.4934 -5.1079,1.1476 -6.395,1.8239 l -0.9092,0.1923 c 1.3467,0.8005 0.2802,0.2571 0.9498,0.1562 4.937,1.0727 17.1518,-2.1099 20.9236,0.447 l 0.4886,0.618 c -6.1917,-2.3508 -17.6669,1.1394 -22.8037,-0.3777 -2.6898,-0.7947 -2.3078,-0.1005 -4.4701,0.0904 -4.596,0.4056 -5.263,-1.3905 -9.5167,-3.9533 -0.1577,-0.6161 0.231,-0.0551 -0.4726,-0.8856 -0.0339,-0.0398 -0.6115,-0.567 -0.687,-0.6344 -3.3249,-2.9877 -6.9908,-5.2698 -9.4644,-7.3871 -1.539,-1.3172 -0.8278,-0.986 -0.899,-1.4304 z"
         style="fill:#1b1918;fill-rule:evenodd"
         id="path948" />
      <path
         d="m 361.9235,534.3302 c -2.2122,5.5347 -3.9787,10.3855 -3.7714,13.557 0.9499,3.496 2.6096,21.5717 2.8213,22.3212 l 0.0374,1.1392 c -0.2856,1.0933 -0.3195,4.0165 -0.4976,5.5269 -0.183,1.5606 -0.5815,4.4939 -1.1972,5.6227 l -0.3763,0.0104 c 0.0262,-0.9084 0.3444,-2.063 0.5093,-3.0636 1.6732,-10.149 -0.8951,-21.6112 -3.2025,-30.4016 -0.6665,-2.5427 1.723,-9.0967 4.7749,-17.0109 0.2944,0.7738 0.5947,1.5403 0.9021,2.2987 z"
         style="fill:#1b1918;fill-rule:evenodd"
         id="path950" />
      <path
         d="m 358.6995,591.3105 0.2828,-0.044 c 14.1035,14.1884 15.6899,3.1819 23.2688,5.1768 3.5106,0.9243 0.8571,0.3884 3.8404,0.3768 1.9685,-0.007 2.3252,0.6871 3.7007,1.7457 -1.0284,0.0687 0.1884,0.237 -0.8099,-0.1509 -0.2131,-0.0831 -0.5008,-0.2648 -0.7517,-0.3886 -1.6995,-0.8394 -2.6801,-0.6324 -4.6421,-0.1817 -0.0231,-0.0876 -0.1302,-0.1623 -0.1002,-0.2532 0.0256,-0.0778 -0.0915,-0.1808 -0.1236,-0.1984 -0.7068,-0.3948 0.6951,-0.8599 -0.5541,-0.0841 -5.0613,-1.0561 -9.6201,2.5487 -12.3061,2.3548 -2.2102,-0.1597 -12.1153,-5.5271 -11.805,-8.3532 z"
         style="fill:#1b1918;fill-rule:evenodd"
         id="path952" />
      <path
         d="m 399.4006,622.1875 -0.4886,-0.618 c 0.3067,-0.0554 0.4078,-0.3611 1.7074,0.2627 0.2891,0.1391 1.2884,0.763 1.6005,0.9858 1.0563,0.7542 1.7875,1.9795 2.7737,2.3293 2.3212,0.8233 4.3388,0.1752 6.576,2.436 l -0.4867,0.8892 -0.3418,-0.251 c -1.5038,-2.6094 -7.6357,-2.2162 -8.6869,-2.6186 -1.5221,-0.5823 -0.8735,0.1519 -0.5898,-0.9177 1.2024,0.4456 2.2363,0.146 2.2246,0.2028 -0.0125,0.0635 0.1674,-0.0207 0.2502,-0.0365 -1.9201,-1.4995 -2.8778,-1.6508 -4.5386,-2.664 z"
         style="fill:#1b1918;fill-rule:evenodd"
         id="path954" />
      <path
         d="m 332.0208,599.6862 0.0916,1.7292 c -1.9878,3.2238 2.229,5.7888 5.2208,7.6533 4.2936,2.6755 15.802,10.1122 19.1214,13.0812 2.7275,2.439 5.3427,5.6519 8.6428,6.9195 3.1932,1.227 8.9491,-0.289 13.366,-0.702 1.5381,-0.1435 2.7087,-0.004 4.2393,-0.2109 l 17.2724,-0.3037 0.5199,0.3458 0.8743,-0.1169 c 1.3327,0.2834 3.312,0.1417 4.3369,0.4594 l 10e-4,0.189 c -1.3879,0.523 -10.8557,-0.4171 -13.1254,-0.3446 -4.4085,0.1414 -8.7183,0.2859 -12.9274,0.5798 -4.1369,0.2887 -9.3836,1.672 -12.8632,1.22 -4.7978,-0.6227 -9.5125,-6.4567 -13.6304,-9.6069 -0.0128,0.6441 -0.0525,0.1347 0.0638,0.7772 l 1.4643,3.4545 c 0.7431,1.507 1.3768,2.6081 2.2453,3.9867 4.9516,7.8588 22.9468,15.2287 22.908,21.9636 l -0.2746,-0.0829 c -0.4118,-0.3876 -1.7353,-2.7485 -2.8213,-3.9157 -3.8613,-4.1485 -8.9728,-7.2138 -13.6531,-10.6867 -5.8692,-4.3547 -10.6146,-10.5861 -10.8518,-16.2195 l -16.2241,-10.6969 -1.0322,-0.5499 0.0577,0.8235 c -0.11,1.8655 2.4576,3.7861 3.9183,5.5331 1.3065,1.5614 2.6119,3.694 3.702,5.3613 2.4554,3.757 4.6128,7.3539 7.2972,11.0733 3.8653,5.3569 6.4276,6.3566 11.7155,9.9733 3.9032,2.6688 11.8063,9.3127 12.5718,9.7942 0.0842,0.1816 -0.0594,0.1179 0.4031,0.7154 0.0705,0.0909 0.3242,0.3672 0.4136,0.4588 0.4647,0.4763 0.7995,0.7011 1.3175,1.0957 l 1.1139,0.9929 -0.9104,-0.3902 c -0.3754,-0.2362 -0.5366,-0.4362 -1.0553,-0.7575 -2.1191,-1.325 -4.5791,-4.0386 -6.6678,-5.7457 -7.1149,-5.815 -13.768,-8.1477 -19.5705,-15.8407 -3.5832,-4.7511 -9.202,-14.5767 -12.0714,-17.6707 -2.1018,-2.2662 -3.471,-3.2309 -2.9542,-5.8563 -3.7767,-3.2011 -3.796,-4.0246 -3.0919,-7.1463 0.8149,-3.6114 1.523,-28.4153 1.5087,-31.9836 -0.0185,-4.644 -0.7606,-16.8511 -0.0363,-19.7233 0.7701,-3.0553 11.6338,-29.4142 17.2341,-41.2026 0.0348,0.4906 0.0749,0.982 0.1202,1.4741 -4.9217,11.7102 -14.2675,32.8898 -15.9744,37.5665 -1.1279,3.0919 -1.0701,6.3493 -0.9561,8.8484 0.5792,12.6744 0.7107,22.2719 -0.1247,34.9748 -0.1963,2.985 -0.6969,5.7349 -0.9251,8.709 z"
         style="fill:#1b1918;fill-rule:evenodd"
         id="path956" />
      <path
         d="m 357.1475,600.4791 -0.8805,-0.6061 0.4291,-0.6932 c 3.1696,1.8505 7.7449,3.8063 10.966,5.0006 2.5219,0.9348 2.973,0.8331 5.1336,-0.004 1.223,-0.474 3.8475,-1.6967 5.0351,-1.8781 l -0.1014,0.4916 c -1.7891,1.805 -6.7911,3.2096 -8.8337,2.6359 l -9.5607,-3.766 c 1.4593,1.901 9.7865,10.6606 13.1418,11.3874 2.2828,0.4953 6.4142,-0.6662 8.594,-1.1879 5.5464,-1.3263 11.0724,-3.252 16.6784,-1.1245 2.3631,0.8963 3.6544,-1.0686 5.8157,0.3959 l 0.4998,0.4858 c -1.3421,-0.3016 -1.9732,-0.4274 -3.3347,-0.3218 -1.7857,0.139 -1.872,0.6828 -3.4881,0.2886 0.8576,-0.6333 0.3603,-0.1597 0.282,-0.5327 -7.1017,-0.3422 -6.985,-0.9843 -15.2693,1.2596 -10.9928,2.9786 -10.1511,2.8697 -20.7287,-6.8859 -1.9644,-1.811 -2.7765,-3.0958 -4.3784,-4.9449 z"
         style="fill:#1b1918;fill-rule:evenodd"
         id="path958" />
      <path
         d="m 376.5581,653.2138 c -0.0968,-0.7705 -0.6564,0.1835 0.2967,-1.1485 0.2115,-0.2951 0.6046,-0.4368 0.924,-0.6278 1.0935,-0.067 0.638,0.1683 1.6838,0.3886 l 0.1047,-1.1486 0.2751,0.0824 0.115,0.5256 c 0.0423,1.6629 -0.6106,0.1581 0.147,1.5018 0.8092,1.4352 2.4266,2.3941 2.7842,5.1562 l 0.1409,0.9102 -0.5835,0.8527 c 0.1667,-1.7091 -0.0442,-2.2852 -1.1526,-4.0459 -0.778,-1.2367 -2.0864,-2.8537 -3.1377,-3.8604 z"
         style="fill:#1b1918;fill-rule:evenodd"
         id="path960" />
      <path
         d="m 375.5299,653.2823 c 0.5192,0.3214 0.6802,0.5216 1.0556,0.7578 l 0.9101,0.3899 c 1.6446,1.3638 4.2558,3.6927 4.6049,5.8638 l -0.9745,-0.855 c -0.7535,-2.2449 -5.005,-4.3353 -5.5961,-6.1565 z"
         style="fill:#1b1918;fill-rule:evenodd"
         id="path962" />
      <path
         d="m 403.9071,613.6282 c 1.3483,-0.647 1.0886,-0.2852 2.0925,-0.7024 l -1.9349,-1.3096 -0.4998,-0.4858 c 1.5471,-0.2919 2.6811,0.7147 2.7747,2.5333 l -2.1494,0.4143 z"
         style="fill:#1b1918;fill-rule:evenodd"
         id="path964" />
      <path
         d="m 397.0775,611.5875 -0.6819,0.9094 0.2414,1.2587 c -0.954,1.1557 0.0432,0.2018 -0.8609,0.2306 -0.1553,-0.9076 -0.0721,-1.8463 1.3014,-2.3987 z"
         style="fill:#1b1918;fill-rule:evenodd"
         id="path966" />
      <g
         id="Layer1049">
        <path
           d="m 382.1431,600.3275 c 1.6594,0.009 2.9256,-0.846 4.9097,-1.0944 1.1098,-0.1385 0.7777,0.0676 1.7891,-0.3219 l -0.3327,0.6002 c -0.183,-0.0279 -0.0922,-0.1023 -0.5416,-0.0528 -0.028,0.003 -0.626,0.1624 -0.6346,0.1651 l -3.2319,1.1027 c -1.2742,0.3867 -3.1432,1.175 -4.3991,1.4499 -0.1231,0.0187 -0.2505,-0.0579 -0.3718,0.044 -0.1371,0.1145 -0.2936,0.0701 -0.474,0.144 l 0.2436,-0.6013 c 1.188,-0.6635 2.07,-0.581 3.0433,-1.4355 z"
           style="fill:#1b1918;fill-rule:evenodd"
           id="path968" />
        <path
           d="m 407.7193,628.3279 1.0204,-0.0666 c 1.2012,0.0819 -1.085,-0.1556 0.6722,0.1312 1.3414,0.2189 0.3706,0.3664 1.3292,-0.171 l 0.3418,0.251 c -1.1557,0.863 -2.1701,0.7057 -3.2544,0.5151 0.4054,-0.5089 0.4333,-0.288 -0.1092,-0.6597 z"
           style="fill:#1b1918;fill-rule:evenodd"
           id="path970" />
        <path
           d="m 400.2147,626.7901 0.8263,-1.1013 c 0.4647,1.2989 -0.6934,1.2563 0.3283,2.3929 l -0.8743,0.1169 -0.5199,-0.3458 z"
           style="fill:#1b1918;fill-rule:evenodd"
           id="path972" />
        <path
           d="m 405.7062,628.5411 c 0.5834,-0.1974 0.2,-0.1807 1.0051,-0.263 0.5955,-0.0611 0.4514,-9e-4 1.008,0.0498 0.5425,0.3717 0.5146,0.1508 0.1092,0.6597 -1.1028,-0.0112 -0.9526,0.1478 -2.1211,-0.2575 z"
           style="fill:#1b1918;fill-rule:evenodd"
           id="path974" />
        <path
           d="m 382.8106,597.3089 c 1.2492,-0.7758 -0.1527,-0.3107 0.5541,0.0841 0.0321,0.0176 0.1492,0.1206 0.1236,0.1984 -0.03,0.0909 0.0771,0.1656 0.1002,0.2532 -1.138,0.4874 -0.6006,-0.2065 -1.0779,1.0868 l -0.1821,-0.0671 c -0.5419,-1.1155 0.1606,-1.0629 0.4821,-1.5554 z"
           style="fill:#1b1918;fill-rule:evenodd"
           id="path976" />
        <path
           d="m 377.8308,602.298 1.269,-0.535 -0.2436,0.6013 c 0.1804,-0.0739 0.3369,-0.0295 0.474,-0.144 0.1213,-0.1019 0.2487,-0.0253 0.3718,-0.044 -0.3544,0.1941 -0.711,0.422 -1.0107,0.5237 -0.9004,0.3049 -0.4336,0.1004 -0.9619,0.0896 z"
           style="fill:#1b1918;fill-rule:evenodd"
           id="path978" />
        <path
           d="m 382.3285,598.8643 0.1821,0.0671 c 0.0232,0.2219 0.491,0.4465 -0.2183,1.1975 z"
           style="fill:#1b1918;fill-rule:evenodd"
           id="path980" />
      </g>
      <g
         id="Layer1050">
        <path
           d="m 349.1644,606.2675 c -0.5308,-1.126 -1.2831,-1.727 -2.4365,-1.865 0.7327,0.8228 1.5005,1.5824 2.4365,1.865 z m -5.8519,-5.1299 1.0704,1.0107 -1.1999,-2.2407 c 1.4896,1.42 2.2128,2.5687 4.0619,3.9961 1.6198,1.2505 2.9439,2.5632 4.6043,3.8247 l 8.3806,6.6916 c 1.1314,1.1767 0.5638,0.3555 0.6353,1.1628 l -9.778,-7.9734 c 0.0712,0.4444 -0.64,0.1132 0.899,1.4304 2.4736,2.1173 6.1395,4.3994 9.4644,7.3871 0.0755,0.0674 0.6531,0.5946 0.687,0.6344 0.7036,0.8305 0.3149,0.2695 0.4726,0.8856 l -18.9828,-16.0677 c -0.5009,-0.7919 -0.2098,-0.4019 -0.3148,-0.7416 z"
           style="fill:#1b1918;fill-rule:evenodd"
           id="path983" />
        <path
           d="m 358.9397,582.5076 0.3766,-0.0102 c 0.426,1.47 -0.1237,2.0507 -0.3289,4.4115 -0.1983,2.28 0.1071,2.8498 -0.005,4.3576 l -0.2828,0.044 c -0.7189,-1.8553 -0.308,-7.1899 0.2402,-8.8029 z"
           style="fill:#1b1918;fill-rule:evenodd"
           id="path985" />
        <path
           d="m 343.183,599.9076 1.1999,2.2407 -1.0704,-1.0107 c -1.9618,-1.4893 -2.6285,-4.1277 -1.6019,-6.1248 0.4715,1.2319 0.2578,1.5419 0.5138,2.5251 0.2305,0.8874 0.6854,1.5135 0.9586,2.3697 z"
           style="fill:#1b1918;fill-rule:evenodd"
           id="path987" />
        <path
           d="m 355.1613,598.4465 1.5348,0.7333 -0.4291,0.6932 0.8805,0.6061 c -0.7013,0.2227 -1.5048,-0.6804 -2.2619,-1.2421 z"
           style="fill:#1b1918;fill-rule:evenodd"
           id="path989" />
        <path
           d="m 346.7279,604.4025 c 1.1534,0.138 1.9057,0.739 2.4365,1.865 -0.936,-0.2826 -1.7038,-1.0422 -2.4365,-1.865 z"
           style="fill:#1b1918;fill-rule:evenodd"
           id="path991" />
        <path
           d="m 354.3443,597.8307 0.817,0.6158 -0.2757,0.7905 -1.3091,-0.9845 c 0.6255,-0.3811 0.2551,-0.313 0.7678,-0.4218 z"
           style="fill:#1b1918;fill-rule:evenodd"
           id="path993" />
        <path
           d="m 332.0213,599.6862 0.6089,0.6628 -0.5178,1.0664 z"
           style="fill:#1b1918;fill-rule:evenodd"
           id="path995" />
        <path
           d="m 354.3443,597.8307 c -0.5127,0.1088 -0.1423,0.0407 -0.7678,0.4218 l -0.2385,-0.6002 z"
           style="fill:#1b1918;fill-rule:evenodd"
           id="path997" />
        <path
           d="m 336.0178,609.1584 -0.9108,-0.3287 -0.064,0.6026 -0.0577,-0.8235 z"
           style="fill:#1b1918;fill-rule:evenodd"
           id="path999" />
        <path
           d="m 360.9734,570.2084 0.0371,1.1389 z"
           style="fill:#1b1918;fill-rule:evenodd"
           id="path1001" />
      </g>
    </g>
    <path
       d="m 217.1287,411.8518 c 34.2448,22.5782 152.4103,18.9524 180.6056,2.773 8.3399,-4.7855 -16.6231,56.2531 -27.4555,62.9797 -20.7138,12.8626 -21.5057,16.6352 -47.2803,25.8686 -41.9717,15.0355 -52.4551,-9.4377 -82.3811,-35.2972 -13.5835,-11.7387 -23.4638,-37.6617 -23.4887,-56.3241 z"
       style="fill:#f5b1b5;fill-rule:evenodd"
       id="path1005" />
    <path
       d="m 395.4529,412.9036 c 0,7.7104 -40.3261,15.2797 -90.0705,15.2797 -49.7443,0 -90.0704,-11.1979 -90.0704,-16.0836 0,-9.9686 180.1409,-6.9065 180.1409,0.8039 z"
       style="fill:#f8c7cf;fill-rule:evenodd"
       id="path1007" />
    <path
       d="m 296.1982,449.4419 c 0.5873,0.3762 12.4024,2.6633 12.7233,2.5033 0.8364,-5.9753 -9.2209,-16.1738 -14.4704,-17.7184 -1.2583,-0.3421 -1.8152,-0.1003 -3.0301,0.1769 -2.6211,0.7949 -3.7327,2.8825 -5.5786,1.9399 -0.6559,-0.3283 -2.1975,-1.3007 -2.8314,-1.7077 -3.6089,-1.8189 -6.1464,0.5889 -9.5477,2.9596 -0.2963,0.2977 -7.5992,5.2633 -9.2304,14.1437 4.1236,-0.1682 6.1064,-2.1772 12.8727,-2.103 -3.2318,0.8232 -10.5965,0.6493 -12.6863,3.2755 -0.0619,2.6132 0.685,4.1964 2.9501,6.412 7.6363,7.5468 22.3353,7.2431 32.1101,3.3848 6.9752,-2.7523 8.2848,-5.2453 10.1357,-10.5814 -4.1183,-1.5795 -5.8974,-1.9727 -13.7316,-2.4501 z m -18.1304,0.0801 c 2.3789,-1.1735 5.701,-1.9385 8.0913,-1.9332 1.9398,0.004 6.9426,1.2409 8.7819,1.9222 -3.0833,0.014 -5.818,1.1807 -8.5476,1.4034 -0.9956,0.0815 -6.7432,-1.1442 -8.3256,-1.3924 z"
       style="fill:#e30016;fill-rule:evenodd"
       id="path1009" />
    <path
       d="m 278.068,449.5218 c 1.5826,0.2485 7.3298,1.474 8.3254,1.3927 2.7298,-0.2229 5.4642,-1.3893 8.5473,-1.4032 -1.839,-0.6817 -6.8416,-1.9189 -8.7819,-1.9229 -2.3902,-0.005 -5.712,0.7601 -8.0908,1.9334 z"
       style="fill:#1b1918;fill-rule:evenodd"
       id="path1011" />
    <path
       d="m 261.0063,452.7254 c 5.7772,-3.1168 14.0584,-4.3681 21.0679,-3.293 -10.2822,0.4026 -16.9445,3.3228 -20.7935,5.31 -4.8827,2.5206 -4.5399,-0.3072 -0.2744,-2.017 z"
       style="fill:#1b1918;fill-rule:evenodd"
       id="path1013" />
    <path
       d="m 292.0687,449.4906 c -1.2169,-1.0782 23.8355,0.6235 25.2857,5.4261 -0.0767,1.7605 -1.3735,1.1551 -4.6348,-0.414 -4.3888,-2.1114 -15.5243,-5.1682 -20.6509,-5.0121 z"
       style="fill:#1b1918;fill-rule:evenodd"
       id="path1015" />
    <path
       d="m 303.6194,397.2704 c -0.7069,-17.8602 20.4234,-38.5075 42.7286,-27.2703 8.6702,4.3679 10.4528,15.1857 18.9865,6.6005 -6.624,32.3491 -46.5886,24.0926 -61.7151,20.6698 z m -3e-4,0.4419 c 4.3478,-30.0895 43.3812,-30.3293 51.62,-11.7128 -5.3552,15.5793 -38.007,14.7938 -51.62,11.7128 z"
       style="fill:#1b1918;fill-rule:evenodd"
       id="path1017" />
    <g
       id="Layer1051">
      <path
         d="m 331.1119,373.8916 c 6.0611,-1.7986 12.0909,1.5213 13.4645,7.4158 1.3727,5.8944 -2.4297,12.1331 -8.4908,13.9317 -6.0604,1.7993 -12.0902,-1.5206 -13.4638,-7.4157 -1.3735,-5.8944 2.429,-12.1324 8.4901,-13.9318 z"
         style="fill:#1b1918;fill-rule:evenodd"
         id="path1019" />
      <path
         d="m 329.9575,378.3951 c 1.7061,-0.6828 3.6198,0.0873 4.2734,1.72 0.6529,1.6326 -0.2002,3.5098 -1.9063,4.1933 -1.7069,0.6828 -3.6198,-0.0873 -4.2735,-1.72 -0.6536,-1.6326 0.1995,-3.5098 1.9064,-4.1933 z"
         style="fill:#ffffff;fill-rule:evenodd"
         id="path1021" />
      <path
         d="m 329.1306,387.3517 c 0.7876,-0.3152 1.6705,0.0401 1.9718,0.7934 0.3021,0.7541 -0.0917,1.6203 -0.8792,1.9362 -0.7883,0.3152 -1.6713,-0.04 -1.9726,-0.7941 -0.3021,-0.7534 0.0917,-1.6203 0.88,-1.9355 z"
         style="fill:#ffffff;fill-rule:evenodd"
         id="path1023" />
    </g>
    <path
       d="m 267.5387,397.9829 c 3.8086,-15.9364 -9.9767,-37.5666 -30.4891,-30.7341 -7.9733,2.6557 -11.4026,12.1103 -16.9255,3.1533 -0.3478,30.0195 34.2614,28.4443 47.4146,27.5808 z m -0.0794,0.3969 c 1.8264,-27.6576 -30.4781,-33.5767 -40.6649,-18.0616 1.6267,14.7736 28.8276,18.8393 40.6649,18.0616 z"
       style="fill:#1b1918;fill-rule:evenodd"
       id="path1026" />
    <g
       id="Layer1052">
      <path
         d="m 242.0572,375.8606 c 4.8819,-2.6393 10.6613,-0.8749 12.9047,3.9415 2.244,4.8157 0.1026,10.8615 -4.7801,13.5008 -4.8819,2.6386 -10.6613,0.8749 -12.9047,-3.9415 -2.2433,-4.8164 -0.1026,-10.8615 4.7801,-13.5008 z"
         style="fill:#1b1918;fill-rule:evenodd"
         id="path1028" />
      <path
         d="m 241.8774,379.9382 c 1.3429,-0.8953 3.1255,-0.5787 3.9815,0.706 0.8567,1.2848 0.4622,3.0513 -0.8807,3.9466 -1.343,0.8946 -3.1256,0.5787 -3.9816,-0.706 -0.856,-1.2847 -0.4622,-3.052 0.8808,-3.9466 z"
         style="fill:#ffffff;fill-rule:evenodd"
         id="path1030" />
      <path
         d="m 242.7836,387.7819 c 0.6194,-0.4134 1.4427,-0.2671 1.8379,0.3261 0.3945,0.5925 0.2126,1.4085 -0.4069,1.8212 -0.6201,0.4134 -1.4427,0.2671 -1.8379,-0.3261 -0.3952,-0.5925 -0.2133,-1.4085 0.4069,-1.8212 z"
         style="fill:#ffffff;fill-rule:evenodd"
         id="path1032" />
    </g>
    <path
       d="m 267.3911,395.3984 c -9.5483,-21.9003 -37.4295,-13.2865 -40.3663,-15.8998 -4.0374,-3.593 -5.0526,-2.2827 4.6225,-6.0789 12.9975,-5.1 15.8835,-8.0745 26.881,0.1871 2.2056,1.6569 9.2545,7.274 8.8628,21.7916 z"
       style="fill:#1b1918;fill-rule:evenodd"
       id="path1035" />
    <path
       d="m 303.4584,395.673 c 10.5447,-19.819 40.6797,-21.2409 53.214,-9.2953 5.3516,5.1003 5.5885,-3.1035 -4.7148,-8.973 -13.8409,-7.8851 -18.5579,-10.0571 -33.1914,-3.3118 -2.9344,1.3527 -12.3886,6.0189 -15.3078,21.5801 z"
       style="fill:#1b1918;fill-rule:evenodd"
       id="path1037" />
    <path
       d="m 270.2615,363.2405 c -1.9778,-8.7943 3.113,4.0006 3.5355,5.6731 4.5327,17.9456 8.4905,33.6292 -8.4795,46.1442 0.9514,5.5776 10.3183,8.7936 13.6131,9.9245 2.7323,0.9377 4.5545,3.6774 4.0654,6.6336 -1.8804,-5.1025 -4.5511,-4.852 -4.6633,-4.8905 -3.6838,-1.2645 -14.3546,-4.9274 -14.914,-12.0145 l 0.002,-2e-4 c -0.0239,-0.309 0.1092,-0.6229 0.3792,-0.8172 16.469,-11.8369 12.6199,-27.0757 8.2104,-44.5333 -0.664,-2.6291 -1.1039,-3.292 -1.7493,-6.1197 z"
       style="fill:#1b1918;fill-rule:evenodd"
       id="path1039" />
    <path
       d="m 284.8913,423.27 c 1.8946,0.9513 7.7474,8.5875 6.8384,1.7285 -0.1876,-1.4157 -6.3174,-1.4668 -6.8384,-1.7285 z"
       style="fill:#1b1918;fill-rule:evenodd"
       id="path1041" />
    <path
       d="m 277.693,471.9444 c -3.4538,1.4904 9.3465,-9.5472 23.3158,0.4717 -5.1546,-2.4671 -18.699,-3.7201 -23.3158,-0.4717 z"
       style="fill:#1b1918;fill-rule:evenodd"
       id="path1043" />
    <path
       d="m 315.0342,437.5319 c -0.4531,0.9457 -0.1977,2.0336 0.9152,2.0766 1.7312,0.0669 1.8423,-3.4767 -0.9152,-2.0766 z"
       style="fill:#1b1918;fill-rule:evenodd"
       id="path1045" />
    <path
       d="m 304.4867,719.3214 c 41.7033,0 75.5104,5.0649 75.5104,11.313 0,6.2481 -33.8071,11.3129 -75.5104,11.3129 -41.7033,0 -75.5105,-5.0648 -75.5105,-11.3129 0,-6.2481 33.8072,-11.313 75.5105,-11.313 z"
       style="fill:#1b1918;fill-rule:evenodd"
       id="path1047" />
    <path
       d="m 304.9246,716.7932 c 41.1893,0 74.5809,4.1225 74.5809,9.2085 0,5.0859 -33.3916,9.2085 -74.5809,9.2085 -41.1914,0 -74.5816,-4.1226 -74.5816,-9.2085 0,-5.086 33.3902,-9.2085 74.5816,-9.2085 z"
       style="fill:#ffffff;fill-rule:evenodd;stroke:#1b1918;stroke-width:0.5669;stroke-linecap:butt;stroke-linejoin:miter;stroke-dasharray:none"
       id="path1049" />
    <path
       d="m 308.8618,235.5891 c 42.8347,0 77.5586,5.0648 77.5586,11.3129 0,6.2481 -34.7239,11.313 -77.5586,11.313 -42.8347,0 -77.5587,-5.0649 -77.5587,-11.313 0,-6.2481 34.724,-11.3129 77.5587,-11.3129 z m 4.0543,2.1044 c 37.1046,0 67.1844,4.1226 67.1844,9.2085 0,5.0859 -30.0798,9.2085 -67.1844,9.2085 -37.106,0 -67.1851,-4.1226 -67.1851,-9.2085 0,-5.0859 30.0791,-9.2085 67.1851,-9.2085 z"
       style="fill:#1b1918;fill-rule:evenodd"
       id="path1051" />
    <path
       d="m 233.5326,248.9275 c -11.9539,44.1234 -27.092,82.4576 -24.4842,153.0367 5.3709,33.2361 14.4853,68.2339 65.5643,112.6774 14.2147,14.9354 20.9716,38.7725 21.1797,64.0802 l 0.4364,123.3543 c 0.6507,10.2608 -1.0215,17.7436 -12.0775,22.8033 9.8515,2.8351 29.0515,4.1941 41.3634,-0.3522 -8.6308,-0.9307 -13.8186,-11.4231 -13.6714,-22.9372 0.508,-39.6965 1.02,-112.798 1.53,-123.565 2.2703,-24.9408 3.8608,-50.379 21.4515,-65.3953 47.9638,-32.3123 66.973,-73.1155 71.009,-118.3114 2.0707,-44.6578 -7.9046,-95.1419 -22.7777,-147.9952 10.5012,50.9407 19.5426,100.9953 16.4098,143.6623 -5.2076,32.8099 -7.9036,65.2644 -66.1277,105.6262 -17.3353,9.3735 -34.7982,8.982 -52.4006,-1.8331 -42.7867,-27.7025 -63.1184,-59.4542 -65.613,-94.4218 -2.7793,-55.0453 8.6717,-102.2065 18.208,-150.4292 z"
       style="fill:#1b1918;fill-rule:evenodd"
       id="path1053" />
    <path
       d="m 304.6409,522.2568 h 7e-4 c 2.4355,0 4.4277,1.9915 4.4277,4.4277 v 201.9842 c 0,2.4355 -1.9922,4.4277 -4.4277,4.4277 h -7e-4 c -2.4356,0 -4.4285,-1.9922 -4.4285,-4.4277 V 526.6845 c 0,-2.4362 1.9929,-4.4277 4.4285,-4.4277 z"
       style="fill:#ffffff;fill-rule:evenodd"
       id="path1055" />
    <path
       d="m 296.2727,343.7572 c 0.005,-2.461 0.8777,-17.3858 1.6246,-15.3142 11.8487,32.8744 75.6094,26.2921 75.3569,26.4775 -17.8306,13.0751 -77.0053,0.0785 -76.9815,-11.1633 z"
       style="fill:#1b1918;fill-rule:evenodd"
       id="path1057" />
    <path
       d="m 266.2442,341.8065 c -0.004,-2.1161 -0.7547,-14.9489 -1.3969,-13.1677 -10.1879,28.2665 -65.0115,22.6069 -64.7944,22.7663 15.3314,11.2424 66.2118,0.0675 66.1913,-9.5986 z"
       style="fill:#1b1918;fill-rule:evenodd"
       id="path1059" />
    <g
       id="Layer1053">
      <path
         d="m 284.0743,620.5239 -1.9212,-2.5759 c -0.878,-1.2244 0.9025,-0.4871 1.2444,-0.4671 6.1493,2.8521 4.6995,5.2291 0.6768,3.043 z m -66.319,-37.5567 c -1.2664,-1.0071 -0.8253,-10.0524 0.6446,-19.2332 1.4904,-8.863 1.3048,-10.8696 1.6291,-19.5132 0.9985,-26.5687 11.645,-26.729 19.4927,-40.0636 -0.3776,0.1339 -0.2369,0.043 -0.7132,0.3901 -0.0946,0.0689 -0.5323,0.471 -0.6158,0.5585 -3.9195,4.0651 -12.1032,13.7479 -14.5017,18.0417 -6.6209,11.852 -3.3708,25.9552 -6.1655,40.5086 -0.9816,5.1122 -1.4988,12.1147 -1.1438,17.2414 0.0903,1.3025 0.5217,2.1367 0.9605,3.1923 -0.3462,1.0839 -0.173,1.3662 -0.248,1.7397 -0.3954,2.7067 -0.3092,5.2866 1.7828,7.6464 l 1.6883,2.3113 c 0.5042,2.2045 0.4022,2.6007 1.5051,4.652 2.5529,4.7498 6.9193,6.7079 10.8092,10.1213 2.2743,2.4422 4.3351,7.8141 5.0408,10.2987 1.0278,3.6201 1.6295,6.8861 4.2058,10.6044 1.9087,2.7561 7.3238,7.7397 12.3291,12.8597 4.579,4.6844 8.7095,9.544 11.6774,11.6778 0.7157,0.5144 1.0194,-0.2272 1.0373,-0.8586 0.0466,-1.6154 -0.7884,-3.3585 -1.7311,-4.8804 2.832,-4.4288 -3.7916,-11.3819 -10.3123,-17.5254 -4.6275,-5.1033 -6.9087,-9.5802 -7.6607,-14.5217 3.2482,-0.4888 14.375,2.5688 15.8373,1.79 1.6196,0.8623 3.4466,2.0992 4.3754,3.4905 1.7841,2.6301 3.7942,3.8863 4.4202,3.3845 0.64,-0.5134 0.3117,-3.4904 -0.1272,-5.7176 1.7616,-1.8738 9.5018,0.6607 12.0654,0.0959 0.5889,0.1986 0.8214,0.3485 1.481,0.4479 4.6686,0.6115 2.4374,-2.0981 -0.3784,-3.779 -1.4655,-0.8748 -3.0397,-1.2733 -3.9425,-1.2352 -1.1147,-0.461 -10.4949,-3.919 -10.4723,-3.9467 -0.0581,-0.9782 -0.3758,-2.4947 -0.5748,-3.5965 -0.1991,-1.0977 -1.0214,-5.2136 -0.8986,-6.1703 0.2885,-1.5031 9.5291,-2.7976 11.7525,-2.9442 1.2691,-0.0841 2.1487,-0.0145 2.8856,-0.137 1.4485,-0.2411 0.9915,-1.0084 0.4002,-2.1556 -1.3348,-2.5899 -8.4528,-3.185 -11.3533,-2.9275 -1.197,0.1057 -3.5197,0.5717 -4.3862,1.4569 3.2895,-0.9362 10.0121,-1.956 11.2247,2.4962 -0.5667,0.92 -8.7946,1.2334 -10.6265,2.6285 -1.4539,-0.6625 -0.9592,-7.0672 -1.0288,-8.8489 -0.1215,-3.1224 0.034,-5.8985 0.048,-8.992 0.0822,-17.9857 -17.8301,-39.0859 -20.2309,-49.0276 -2.5171,-10.421 14.0128,-23.2729 16.533,-28.0229 l -15.4521,18.5869 c -7.7516,8.2681 3.5657,19.0545 6.4186,27.4486 2.1249,6.2528 8.0233,12.621 10.1661,19.1269 2.2792,6.9221 1.5689,12.7768 1.6821,20.7925 0.0957,6.8031 1.2039,15.0891 2.6979,20.312 l -0.01,0.0363 c -1.7323,0.0961 -4.0612,0.1259 -5.4538,1.1712 0.1668,0.6677 0.2785,0.8519 0.5048,1.5241 0.4843,1.4422 0.6213,3.8863 1.7038,5.5174 -0.4399,-0.002 -0.2175,0.1972 -0.7194,-0.2135 -1.9623,-1.551 -5.0209,-4.8205 -6.1469,-6.7379 -4.1097,-6.9978 -0.8639,-22.6737 -7.4478,-25.441 -4.0111,5.4121 -3.4302,10.3245 -5.1967,16.4158 -1.098,3.6201 -1.2948,10.5277 -0.5592,14.0858 0.5926,2.8636 1.9678,6.339 4.235,9.6034 3.1268,4.5005 16.708,15.315 14.1511,20.8227 -0.958,-1.1863 -1.8953,-2.3781 -3.0926,-3.383 -0.7595,-0.6382 -0.6289,-0.7332 -1.3555,-0.2446 -1.0072,0.6776 -1.9718,1.2402 -1.6467,2.0848 l 2.2996,-1.255 c 2.5935,1.9469 4.8305,5.2292 5.0694,7.7169 0.0416,0.433 -0.1507,0.8768 -0.5462,0.529 -1.8143,-1.5955 -3.3177,-3.3115 -4.7281,-4.5176 l -2.6034,-2.8936 c -2.796,-2.9664 -5.5951,-6.0233 -8.5637,-8.9639 -3.1771,-3.1484 -6.1767,-5.7525 -8.1883,-9.2824 -2.84,-4.9835 -3.3102,-14.2276 -8.8418,-20.0466 -0.1484,-0.9806 -2.1723,-7.4285 -2.2819,-7.5209 -0.0792,1.4951 0.0201,2.5343 0.9501,5.7919 0.2056,0.7201 0.2018,0.9279 0.573,1.2918 l -1.5042,-1.2073 c -12.7508,-7.7347 -8.1818,-15.0159 -9.0302,-16.0487 -0.6871,0.8112 -0.8377,3.9711 -1.621,2.3783 -0.6418,-1.3041 -1.3871,-1.641 -2.0095,-3.6809 -1.2,-3.9294 1.4261,-7.4816 1.0568,-9.7625 -0.7413,1.3669 -0.9543,1.7197 -1.2239,2.4259 z m 39.3741,28.0258 -6.6589,-2.5468 c -1.2409,-0.5985 -3.0728,-0.7234 -1.9712,-2.9076 0.5417,0.3163 5.9561,-0.2159 7.8793,0.0334 -0.0126,2.063 0.5837,3.6159 0.7508,5.421 z m -7.0307,-1.9249 c 1.7296,1.1524 6.7219,2.112 7.4783,2.878 0.1444,0.1464 1.538,2.6117 1.9124,3.1996 1.0701,1.68 1.9909,2.4078 3.2251,3.7994 l -0.7606,0.1569 c -1.8304,-0.6884 -5.1042,-0.8155 -7.251,-1.1025 -2.0467,-0.2736 -5.7906,-0.4404 -7.3522,-0.832 -0.7691,-2.7574 -0.0649,-5.6394 0.1437,-8.5385 0.5895,-0.7619 -0.1229,-0.4221 0.6267,-0.4819 1.0297,0.7887 0.982,0.8541 1.9776,0.921 z m -0.1418,-11.2125 c 0.698,-0.8455 -0.2413,-0.7132 1.2751,-0.058 1.1103,0.4795 3.4351,0.9799 4.5695,0.7227 0.447,1.0534 0.4617,4.7997 0.1619,6.0677 -1.8574,-0.4982 -7.245,0.5678 -7.3841,-0.0714 -0.1965,-0.9062 0.4516,-4.0376 1.3776,-6.661 z m 2.8751,-7.3432 c 1.7968,1.9172 2.8633,4.9198 2.8261,7.0457 -2.1627,-0.221 -2.6222,0.0359 -5.4413,-1.5364 0.605,-1.4868 0.9555,-4.8378 2.6152,-5.5093 z m 30.1011,8.7482 c -0.9255,0.1472 -1.3309,0.0852 -1.9729,0.003 -0.2274,-1.4827 -1.1393,-2.5256 -1.539,-3.3565 1.912,0.3905 3.6123,0.4106 4.3399,2.1522 0.4182,0.9991 0.2269,1.0346 -0.828,1.2016 z m -13.1706,14.6838 c -0.2957,0.0263 -0.8808,0.0184 -1.3316,-0.0599 -0.8017,0.2302 -1.7243,0.0508 -2.7625,0.866 1.6234,5.2775 1.3526,8.1702 4.8897,10.5565 0.8622,0.5816 1.0415,0.7587 1.1947,-0.1755 0.5034,-3.0514 -2.3747,-7.2475 -1.9903,-11.1871 z m 13.2208,6.5285 c -2.3051,-0.2913 -8.1096,-1.0238 -10.2209,-0.562 -1.4386,0.3146 -0.2897,0.4278 -1.2742,0.0667 -0.7719,-1.8852 -0.4806,-3.1432 -0.5066,-4.9429 -0.0104,-0.729 -0.0708,-0.6452 0.0271,-1.28 3.047,0.2657 11.5547,3.6374 11.9746,6.7182 z"
         style="fill:#1b1918;fill-rule:evenodd"
         id="path1061" />
      <path
         d="m 269.9743,613.0468 c -1.4048,0.9852 -2.7809,0.5057 -4.3057,1.7038 0.0137,0.0449 0.6151,7.4988 3.8505,9.9269 1.5621,1.1723 2.7831,2.5922 2.5701,-0.2183 -0.122,-1.6107 -0.7857,-3.8405 -1.1937,-6.0587 -0.4889,-2.6579 -0.7353,-5.2043 -0.9212,-5.3537 z"
         style="fill:#e30016;fill-rule:evenodd"
         id="path1063" />
      <path
         d="m 261.0434,650.4862 c 1.4111,1.2067 2.9188,2.9062 4.6857,4.4767 0.443,0.3936 0.6351,0.053 0.5935,-0.4356 -0.2118,-2.494 -2.4626,-5.8089 -5.0744,-7.7693 l -1.9287,1.0308 c -0.9921,0.2726 -0.2818,0.4679 1.7239,2.6974 z"
         style="fill:#e30016;fill-rule:evenodd"
         id="path1065" />
      <path
         d="m 284.0162,598.9416 c -0.4893,-2.6257 -2.4027,-2.5873 -4.595,-3.0348 0.4543,1.8518 1.4489,1.3753 0.9722,3.3209 0.9038,0.1163 2.461,0.2628 3.6228,-0.2861 z"
         style="fill:#e30016;fill-rule:evenodd"
         id="path1067" />
      <path
         d="m 287.8068,621.0177 c 0.0568,-1.4776 -5.1658,-4.3081 -5.592,-3.8272 l -0.4345,0.0623 -0.0653,0.4316 2.3597,2.8396 c 0.9314,0.5066 2.4493,1.535 3.7321,0.4937 z"
         style="fill:#e30016;fill-rule:evenodd"
         id="path1069" />
    </g>
  </g>
</svg>
