<?xml version="1.0" encoding="UTF-8" standalone="no"?>
<svg version="1.1" width="241.35089" height="504.11313" id="svg1136" viewBox="0 0 241.35089 504.11313"
    xmlns="http://www.w3.org/2000/svg">
  <defs
     id="defs1140" />
  <path
     d="m -28.185141,-182.95958 c 0,3.1414 0.6378,5.4644 1.9055,6.9679 1.2756,1.5043 2.8187,2.2598 4.6301,2.2598 1.8422,0 3.4169,-0.7796 4.7236,-2.3383 1.315,-1.5591 1.9684,-3.9683 1.9684,-7.2357 0,-3.1179 -0.6378,-5.4485 -1.921,-6.9996 -1.2833,-1.5514 -2.8109,-2.3225 -4.5905,-2.3225 -1.7637,0 -3.3224,0.8263 -4.6768,2.4718 -1.3618,1.6538 -2.0393,4.0476 -2.0393,7.1966 z m -3.7791,21.5108 v -33.9194 h 3.7791 v 3.2201 c 0.8901,-1.2438 1.8975,-2.1804 3.0237,-2.8026 1.118,-0.6222 2.4801,-0.9374 4.0785,-0.9374 2.0943,0 3.9365,0.5358 5.5352,1.6141 1.5979,1.0709 2.8027,2.5908 3.6219,4.543 0.8107,1.9608 1.22,4.1023 1.22,6.4406 0,2.4965 -0.4484,4.7478 -1.3462,6.7559 -0.8977,1.9998 -2.2045,3.5353 -3.9209,4.606 -1.7084,1.063 -3.5118,1.5981 -5.4011,1.5981 -1.3859,0 -2.6303,-0.2914 -3.7244,-0.8739 -1.1024,-0.5825 -1.9999,-1.315 -2.7083,-2.2045 v 11.96 z m -23.156,-23.9987 h 13.6528 c -0.1814,-2.0628 -0.7086,-3.606 -1.5667,-4.6378 -1.3153,-1.5979 -3.0316,-2.4009 -5.1338,-2.4009 -1.9055,0 -3.5036,0.6378 -4.803,1.9134 -1.2912,1.2753 -2.0075,2.984 -2.1493,5.1253 z m 13.6055,6.6611 4.299,0.5669 c -0.6695,2.4957 -1.921,4.4408 -3.748,5.8184 -1.8266,1.3782 -4.1573,2.0707 -6.9996,2.0707 -3.5742,0 -6.4088,-1.1021 -8.5033,-3.3066 -2.0945,-2.1968 -3.1414,-5.2911 -3.1414,-9.2673 0,-4.1099 1.0551,-7.3066 3.1726,-9.574 2.118,-2.2759 4.8659,-3.4098 8.244,-3.4098 3.2675,0 5.9366,1.1103 8.0073,3.3389 2.0707,2.2278 3.1101,5.3615 3.1101,9.4006 0,0.2443 -0.008,0.6142 -0.0235,1.1024 h -18.2588 c 0.1573,2.6849 0.9133,4.7477 2.2833,6.173 1.3618,1.425 3.0705,2.1413 5.1097,2.1413 1.52,0 2.8188,-0.4011 3.8897,-1.2045 1.0783,-0.803 1.9287,-2.0863 2.5589,-3.85 z m -33.4942,-16.5818 v 10.582 c 1.3385,0 2.2836,-0.2517 2.8267,-0.7478 0.5434,-0.5037 1.3229,-1.9763 2.3307,-4.4331 0.945,-2.3306 1.8031,-3.8109 2.575,-4.4563 0.7554,-0.6299 1.9522,-0.9448 3.5977,-0.9448 h 1.5199 v 3.4248 l -1.1262,-0.0232 c -1.1103,0 -1.811,0.1649 -2.118,0.4881 -0.3223,0.3387 -0.8184,1.3464 -1.4803,3.0231 -0.6137,1.6064 -1.1806,2.7088 -1.7005,3.3305 -0.5196,0.6142 -1.3385,1.1732 -2.4406,1.6849 1.7949,0.4804 3.543,2.1415 5.2515,4.9924 l 4.5586,7.5977 h -4.5663 l -4.4408,-7.5901 c -0.9056,-1.5432 -1.7007,-2.5509 -2.3697,-3.0314 -0.6775,-0.4804 -1.4803,-0.7163 -2.4177,-0.7163 v 11.3378 h -4.2517 v -11.3378 c -0.9212,0 -1.7164,0.2359 -2.3853,0.7084 -0.6775,0.4728 -1.4647,1.4882 -2.3624,3.0472 l -4.4799,7.5822 h -4.5663 l 4.5428,-7.5977 c 1.724,-2.8509 3.4877,-4.512 5.2829,-4.9924 -1.2282,-0.5667 -2.0942,-1.1889 -2.5824,-1.8579 -0.496,-0.6689 -1.2279,-2.2677 -2.2121,-4.795 -0.3388,-0.8504 -0.701,-1.37 -1.0871,-1.5591 -0.4011,-0.1964 -0.9921,-0.2914 -1.7793,-0.2914 -0.197,0 -0.6061,0.008 -1.2203,0.0241 v -3.4489 h 0.5748 c 1.6062,0 2.7324,0.0944 3.3857,0.2914 0.6534,0.1891 1.2359,0.5981 1.7558,1.2203 0.5117,0.6222 1.1807,1.9131 1.9999,3.8894 0.9997,2.4171 1.7713,3.8818 2.3071,4.4014 0.5352,0.5198 1.4797,0.7795 2.8261,0.7795 v -10.582 z m -39.170799,33.9429 -0.472,-3.8421 c 0.9133,0.2438 1.7005,0.3699 2.3774,0.3699 0.9289,0 1.6693,-0.1573 2.2207,-0.4649 0.5584,-0.3069 1.0156,-0.7398 1.3697,-1.2911 0.2602,-0.4173 0.6854,-1.4485 1.2679,-3.1023 0.0785,-0.2282 0.1967,-0.5669 0.3699,-1.0156 l -9.3064,-24.5968 h 4.4402 l 5.1182,14.1568 c 0.669,1.7872 1.2595,3.6771 1.7873,5.661 0.4805,-1.8663 1.0474,-3.7085 1.7084,-5.5193 l 5.228199,-14.2985 h 4.1491 l -9.266699,24.9434 c -1.0004,2.685 -1.7799,4.5273 -2.3383,5.5429 -0.7407,1.3621 -1.5908,2.3624 -2.5433,3.0002 -0.9609,0.6378 -2.1024,0.9524 -3.4253,0.9524 -0.8031,0 -1.7008,-0.1652 -2.685,-0.496 z m -22.9748,-35.36 c -2.7871,0.1262 -5.0389,0.9445 -6.7632,2.4724 -1.7246,1.527 -2.5906,3.653 -2.5906,6.3853 0,2.7006 0.8504,4.8187 2.5512,6.3618 1.7005,1.5429 3.9682,2.3698 6.8026,2.4959 z m 4.2043,-0.0476 v 17.8104 c 2.8897,-0.1417 5.1574,-0.9842 6.8188,-2.5277 1.6611,-1.5431 2.4879,-3.6691 2.4879,-6.3774 0,-2.6614 -0.8112,-4.7633 -2.4409,-6.3223 -1.6299,-1.5512 -3.9132,-2.4092 -6.8658,-2.583 z m -4.2043,-3.8265 v -4.299 h 4.2043 v 4.299 c 4.307,0.2282 7.7083,1.5279 10.1962,3.8974 2.4962,2.3703 3.7401,5.307 3.7401,8.8189 0,3.4404 -1.2048,6.3612 -3.6219,8.7706 -2.4171,2.4015 -5.8495,3.7321 -10.3144,3.9765 v 4.3461 h -4.2043 v -4.3461 c -3.9994,-0.1579 -7.3299,-1.3782 -9.9916,-3.6692 -2.6614,-2.283 -3.9915,-5.3147 -3.9915,-9.0779 0,-3.7721 1.3301,-6.795 3.9839,-9.0627 2.6529,-2.2674 5.9836,-3.4798 9.9992,-3.6536 z"
     style="fill:#1b1918;fill-rule:evenodd"
     id="path1037" />
  <path
     d="m -128.13894,-126.24248 c 0,0.621 -0.1029,1.032 -0.3082,1.2381 -0.2058,0.205 -0.5762,0.3082 -1.1171,0.3082 -0.5272,0 -0.8892,-0.1032 -1.0902,-0.3042 -0.201,-0.201 -0.2991,-0.6032 -0.2991,-1.2061 0,-0.6214 0.1021,-1.0324 0.3082,-1.2377 0.2049,-0.2057 0.576,-0.3086 1.1171,-0.3086 0.527,0 0.8892,0.0986 1.0902,0.2999 0.1962,0.2009 0.2991,0.6071 0.2991,1.2104 z m -6.2691,0.4739 c 0,0.1562 -0.009,0.2951 -0.0312,0.4153 -0.0227,0.1256 -0.0539,0.2279 -0.0938,0.3087 -0.0403,0.085 -0.0899,0.1431 -0.1568,0.1831 -0.0672,0.04 -0.1383,0.0581 -0.2143,0.0581 h -9.3747 c -0.1202,0 -0.2279,-0.0133 -0.3221,-0.0451 -0.089,-0.0309 -0.1692,-0.0799 -0.2321,-0.1519 -0.0669,-0.0669 -0.116,-0.1692 -0.1471,-0.2991 -0.0318,-0.1292 -0.0448,-0.2902 -0.0448,-0.4821 0,-0.1749 0.009,-0.3269 0.0221,-0.4561 0.0136,-0.1299 0.0405,-0.2461 0.0847,-0.349 0.0451,-0.0981 0.1032,-0.1961 0.1701,-0.299 0.0669,-0.0981 0.1562,-0.2053 0.2639,-0.3172 l 3.3869,-3.4855 c 0.786,-0.8042 1.4122,-1.5236 1.8853,-2.1626 0.4739,-0.6343 0.8359,-1.2152 1.095,-1.7424 0.2543,-0.523 0.4244,-0.997 0.5051,-1.4253 0.0803,-0.4291 0.1202,-0.8311 0.1202,-1.207 0,-0.3753 -0.062,-0.7324 -0.1871,-1.0675 -0.1301,-0.335 -0.3089,-0.6301 -0.5499,-0.885 -0.237,-0.2551 -0.5363,-0.4561 -0.8983,-0.6032 -0.3571,-0.1471 -0.773,-0.2231 -1.2421,-0.2231 -0.5494,0 -1.0412,0.076 -1.4794,0.2231 -0.4332,0.1471 -0.8172,0.313 -1.148,0.487 -0.3263,0.1743 -0.6033,0.3393 -0.8224,0.4873 -0.2188,0.1471 -0.3841,0.2231 -0.4912,0.2231 -0.063,0 -0.1208,-0.0179 -0.1698,-0.0533 -0.0491,-0.0357 -0.0893,-0.0899 -0.1211,-0.1698 -0.0311,-0.076 -0.0581,-0.1831 -0.0754,-0.313 -0.0178,-0.134 -0.0269,-0.2902 -0.0269,-0.4733 0,-0.1299 0.004,-0.2418 0.0133,-0.3399 0.009,-0.0941 0.0221,-0.1789 0.0448,-0.25 0.0221,-0.0672 0.0491,-0.1341 0.0851,-0.197 0.0351,-0.0582 0.1071,-0.1341 0.21,-0.2279 0.1072,-0.0893 0.286,-0.2143 0.5451,-0.3705 0.2543,-0.161 0.5803,-0.313 0.9692,-0.4649 0.3844,-0.1562 0.8132,-0.2812 1.2824,-0.3889 0.4649,-0.1024 0.9561,-0.1562 1.4703,-0.1562 0.822,0 1.5412,0.1159 2.1535,0.3481 0.6168,0.2282 1.1262,0.5451 1.533,0.9479 0.4062,0.4022 0.7103,0.8665 0.9113,1.3983 0.201,0.5321 0.2999,1.0993 0.2999,1.7025 0,0.5409 -0.0499,1.0811 -0.1431,1.6174 -0.0987,0.5361 -0.2997,1.1172 -0.6078,1.7431 -0.3132,0.6253 -0.7594,1.3175 -1.3453,2.0817 -0.5811,0.764 -1.3584,1.6444 -2.3275,2.6414 l -2.6813,2.8014 h 7.3732 c 0.0669,0 0.1338,0.0179 0.2009,0.0581 0.0669,0.04 0.125,0.0981 0.1693,0.1741 0.0499,0.0808 0.085,0.1789 0.1077,0.2951 0.0221,0.1159 0.0312,0.2548 0.0312,0.411 z m 21.0503,-3.8466 c 0,0.2849 -0.0442,0.5131 -0.1295,0.6789 -0.0896,0.1653 -0.2098,0.2452 -0.3668,0.2452 h -1.9123 v 3.5614 c 0,0.0715 -0.0181,0.1293 -0.0533,0.1789 -0.0357,0.0442 -0.0986,0.0893 -0.1879,0.1253 -0.0893,0.0309 -0.2101,0.0578 -0.3529,0.076 -0.1429,0.0173 -0.326,0.026 -0.5491,0.026 -0.2191,0 -0.398,-0.009 -0.5411,-0.026 -0.1435,-0.0182 -0.2591,-0.0451 -0.3441,-0.076 -0.0851,-0.036 -0.1432,-0.0811 -0.1741,-0.1253 -0.0315,-0.0496 -0.049,-0.1074 -0.049,-0.1789 v -3.5614 h -6.935 c -0.1077,0 -0.1922,-0.0131 -0.2594,-0.04 -0.0714,-0.0269 -0.134,-0.0714 -0.1919,-0.1428 -0.0544,-0.0675 -0.0944,-0.1704 -0.1162,-0.2994 -0.0227,-0.1301 -0.0309,-0.2999 -0.0309,-0.5099 0,-0.1653 0.004,-0.3124 0.0128,-0.4422 0.009,-0.1293 0.0272,-0.2501 0.0541,-0.3575 0.0218,-0.1114 0.0578,-0.2143 0.1021,-0.3127 0.0399,-0.1029 0.0941,-0.21 0.157,-0.322 l 6.0412,-10.3042 c 0.0442,-0.0709 0.1111,-0.1287 0.1961,-0.1831 0.0848,-0.0527 0.1917,-0.0978 0.326,-0.1287 0.1341,-0.036 0.2997,-0.0629 0.4918,-0.0763 0.1965,-0.0138 0.4289,-0.0181 0.6974,-0.0181 0.29,0 0.549,0.009 0.7639,0.0315 0.2191,0.0218 0.3977,0.0538 0.5272,0.0847 0.1341,0.036 0.237,0.0851 0.3079,0.1384 0.072,0.0586 0.1074,0.1258 0.1074,0.2058 v 10.8269 h 1.9123 c 0.1479,0 0.2681,0.0762 0.3577,0.2282 0.0944,0.1511 0.1386,0.3838 0.1386,0.6973 z m -4.6601,-10.2334 h -0.027 l -5.4516,9.3079 h 5.4786 z m 10.2367,13.6061 c 0,0.621 -0.1029,1.0323 -0.3078,1.2381 -0.2064,0.205 -0.5766,0.3082 -1.1174,0.3082 -0.5273,0 -0.8893,-0.1032 -1.0902,-0.3042 -0.2013,-0.2013 -0.2991,-0.6032 -0.2991,-1.2061 0,-0.6211 0.102,-1.0324 0.3081,-1.2377 0.205,-0.2057 0.576,-0.3086 1.1172,-0.3086 0.5272,0 0.8892,0.0986 1.0902,0.2999 0.1961,0.2009 0.299,0.6071 0.299,1.2104 z m 14.115999,0.5541 c 0,0.1659 -0.0142,0.3036 -0.0411,0.4159 -0.0264,0.1119 -0.0578,0.2052 -0.1018,0.2721 -0.0453,0.072 -0.0944,0.1208 -0.1522,0.1522 -0.0584,0.0318 -0.1162,0.0445 -0.1743,0.0445 h -8.847499 c -0.0579,0 -0.1162,-0.0127 -0.1701,-0.0445 -0.049,-0.0314 -0.1029,-0.0802 -0.1468,-0.1522 -0.0494,-0.0669 -0.0854,-0.1602 -0.1123,-0.2721 -0.0266,-0.1123 -0.04,-0.25 -0.04,-0.4159 0,-0.1562 0.0134,-0.29 0.04,-0.4019 0.0269,-0.1162 0.0578,-0.2106 0.0981,-0.2815 0.036,-0.076 0.085,-0.1298 0.1434,-0.1698 0.0578,-0.0403 0.1208,-0.0584 0.1877,-0.0584 h 3.525699 v -12.8951 l -3.275399,1.9571 c -0.1653,0.085 -0.2991,0.138 -0.4025,0.1561 -0.0978,0.0179 -0.1789,0 -0.241,-0.0583 -0.0626,-0.0579 -0.1029,-0.1517 -0.125,-0.2818 -0.023,-0.129 -0.0315,-0.2942 -0.0315,-0.4949 0,-0.148 0.005,-0.2773 0.0176,-0.3802 0.0139,-0.1071 0.036,-0.1922 0.0629,-0.2642 0.027,-0.0669 0.0624,-0.1289 0.112,-0.1831 0.0442,-0.0487 0.1072,-0.1029 0.1871,-0.1562 l 3.905599,-2.4981 c 0.0357,-0.0264 0.0762,-0.0491 0.1295,-0.0669 0.0536,-0.0131 0.1205,-0.0309 0.1967,-0.0491 0.08,-0.0178 0.1701,-0.0309 0.2773,-0.036 0.1029,-0.004 0.2321,-0.004 0.3928,-0.004 0.2058,0 0.3844,0.009 0.5233,0.0269 0.1381,0.0181 0.2449,0.0403 0.326,0.0714 0.0802,0.0315 0.1293,0.0718 0.1562,0.1157 0.0269,0.0502 0.04,0.0989 0.04,0.1522 v 14.8887 h 3.0656 c 0.0718,0 0.1389,0.0181 0.1968,0.0584 0.0623,0.04 0.1114,0.0938 0.1519,0.1698 0.0402,0.0709 0.0711,0.1653 0.0933,0.2815 0.0229,0.1119 0.032,0.2457 0.032,0.4019 z m 13.4005,-3.9628 c 0,0.773 -0.1344,1.4743 -0.4071,2.0996 -0.2681,0.6211 -0.6562,1.158 -1.1661,1.6041 -0.5046,0.4425 -1.1302,0.7869 -1.8715,1.0231 -0.7421,0.2418 -1.5774,0.3622 -2.5117,0.3622 -0.5678,0 -1.0993,-0.0442 -1.5911,-0.1386 -0.4913,-0.0896 -0.9292,-0.1967 -1.313,-0.3217 -0.3844,-0.129 -0.7064,-0.2594 -0.9565,-0.3932 -0.2548,-0.1338 -0.4161,-0.2321 -0.4782,-0.29 -0.0669,-0.0629 -0.1159,-0.1255 -0.1519,-0.1839 -0.036,-0.0621 -0.0669,-0.1338 -0.0893,-0.2231 -0.0269,-0.0848 -0.0487,-0.1922 -0.0629,-0.3169 -0.0131,-0.1253 -0.0176,-0.2821 -0.0176,-0.4649 0,-0.3084 0.0318,-0.5275 0.0938,-0.6486 0.0627,-0.1202 0.152,-0.1831 0.2682,-0.1831 0.0805,0 0.2409,0.072 0.4782,0.2106 0.2367,0.1389 0.5409,0.2857 0.9119,0.4465 0.3702,0.1613 0.8042,0.3084 1.3042,0.4473 0.4964,0.138 1.05,0.2097 1.6574,0.2097 0.5902,0 1.1084,-0.0759 1.5551,-0.2233 0.4471,-0.1477 0.8275,-0.3575 1.1308,-0.6305 0.3036,-0.2721 0.5317,-0.5941 0.6837,-0.9651 0.1522,-0.3703 0.2282,-0.7725 0.2282,-1.2104 0,-0.4831 -0.0984,-0.9162 -0.2909,-1.3006 -0.1921,-0.3846 -0.4782,-0.7197 -0.8535,-0.9966 -0.371,-0.2815 -0.8308,-0.4955 -1.3759,-0.6435 -0.5457,-0.1471 -1.1667,-0.2231 -1.8587,-0.2231 h -1.6622 c -0.072,0 -0.1435,-0.0136 -0.2104,-0.0445 -0.0668,-0.0315 -0.1247,-0.0802 -0.174,-0.1522 -0.0496,-0.0669 -0.0896,-0.1613 -0.121,-0.2724 -0.0309,-0.112 -0.0488,-0.2591 -0.0488,-0.4425 0,-0.1653 0.0128,-0.2991 0.0403,-0.4113 0.0266,-0.1069 0.0626,-0.1919 0.1114,-0.2591 0.0493,-0.0624 0.1026,-0.1111 0.1604,-0.1429 0.0632,-0.0314 0.1346,-0.0442 0.2103,-0.0442 h 1.484 c 0.572,0 1.0902,-0.076 1.5505,-0.2239 0.4558,-0.1471 0.8442,-0.362 1.1662,-0.6435 0.3169,-0.2769 0.5627,-0.612 0.733,-1.0009 0.169,-0.3884 0.254,-0.8223 0.254,-1.3045 0,-0.349 -0.0581,-0.6789 -0.1698,-1.0009 -0.1114,-0.3175 -0.2815,-0.5942 -0.5094,-0.8311 -0.2279,-0.2373 -0.5181,-0.4201 -0.8711,-0.5582 -0.3529,-0.1343 -0.7591,-0.2012 -1.22,-0.2012 -0.5094,0 -0.9694,0.0751 -1.3938,0.2321 -0.4249,0.1522 -0.8002,0.3169 -1.1307,0.4913 -0.3305,0.1746 -0.6075,0.3398 -0.8263,0.4918 -0.2152,0.1562 -0.3714,0.2324 -0.4564,0.2324 -0.0618,0 -0.1156,-0.009 -0.1647,-0.0315 -0.0451,-0.0229 -0.0853,-0.0669 -0.1162,-0.1338 -0.032,-0.0629 -0.0539,-0.1567 -0.0669,-0.2729 -0.0142,-0.116 -0.0181,-0.2722 -0.0181,-0.4643 0,-0.1299 0.0039,-0.2461 0.013,-0.349 0.0091,-0.0984 0.0269,-0.1879 0.0538,-0.2591 0.0273,-0.0759 0.0533,-0.1428 0.0893,-0.2058 0.0358,-0.0581 0.0942,-0.1292 0.1789,-0.2143 0.0802,-0.0802 0.25,-0.2009 0.5003,-0.3571 0.2551,-0.1613 0.5678,-0.3127 0.938,-0.4649 0.3713,-0.1562 0.8002,-0.2815 1.2832,-0.3889 0.4822,-0.1024 1.0049,-0.1562 1.5634,-0.1562 0.7863,0 1.4743,0.0981 2.0695,0.2993 0.5894,0.2007 1.0851,0.4867 1.4831,0.8538 0.3974,0.3614 0.6922,0.7994 0.8892,1.313 0.1965,0.5097 0.2951,1.0724 0.2951,1.6937 0,0.5321 -0.072,1.023 -0.2103,1.4834 -0.1383,0.4558 -0.3438,0.8629 -0.6165,1.2158 -0.2682,0.3535 -0.6035,0.6525 -0.9964,0.9025 -0.3935,0.25 -0.8442,0.4198 -1.3584,0.5142 v 0.0267 c 0.5811,0.0621 1.1172,0.21 1.5993,0.4374 0.4831,0.233 0.8983,0.523 1.2473,0.8719 0.3484,0.3484 0.621,0.7594 0.8172,1.2243 0.1967,0.4691 0.2951,0.9649 0.2951,1.5015 z m 6.4301,3.4087 c 0,0.621 -0.1029,1.0323 -0.3081,1.2381 -0.2061,0.205 -0.5763,0.3082 -1.1172,0.3082 -0.5272,0 -0.8892,-0.1032 -1.0902,-0.3042 -0.2012,-0.2013 -0.299,-0.6032 -0.299,-1.2061 0,-0.6211 0.102,-1.0324 0.3078,-1.2377 0.2053,-0.2057 0.5766,-0.3086 1.1174,-0.3086 0.527,0 0.889,0.0986 1.0902,0.2999 0.1962,0.2009 0.2991,0.6071 0.2991,1.2104 z m 16.4211,1.0992 c 0,0.072 -0.0179,0.1338 -0.0539,0.1834 -0.0351,0.0533 -0.0938,0.0936 -0.1831,0.1253 -0.0893,0.0309 -0.2052,0.0584 -0.3483,0.0802 -0.1475,0.0222 -0.3218,0.0309 -0.5318,0.0309 -0.2322,0 -0.4153,-0.009 -0.5542,-0.0309 -0.1429,-0.0218 -0.2548,-0.0493 -0.3438,-0.0802 -0.0893,-0.0317 -0.1474,-0.072 -0.1834,-0.1253 -0.0355,-0.0496 -0.0539,-0.1114 -0.0539,-0.1834 v -7.5157 h -7.6944 v 7.5157 c 0,0.072 -0.0178,0.1338 -0.0533,0.1834 -0.0357,0.0533 -0.0938,0.0936 -0.1836,0.1253 -0.0842,0.0309 -0.2013,0.0584 -0.3442,0.0802 -0.1471,0.0222 -0.326,0.0309 -0.5451,0.0309 -0.2097,0 -0.3883,-0.009 -0.536,-0.0309 -0.1471,-0.0218 -0.2682,-0.0493 -0.3532,-0.0802 -0.0887,-0.0317 -0.1471,-0.072 -0.1831,-0.1253 -0.036,-0.0496 -0.0533,-0.1114 -0.0533,-0.1834 v -16.2643 c 0,-0.072 0.0173,-0.1344 0.0533,-0.1831 0.036,-0.0542 0.0944,-0.0941 0.1831,-0.1253 0.085,-0.0318 0.2061,-0.0587 0.3532,-0.0805 0.1477,-0.0224 0.3263,-0.0315 0.536,-0.0315 0.2191,0 0.398,0.009 0.5451,0.0315 0.1429,0.0218 0.26,0.0487 0.3442,0.0805 0.0898,0.0312 0.1479,0.0711 0.1836,0.1253 0.0355,0.0533 0.0533,0.1111 0.0533,0.1831 v 6.7915 h 7.6944 v -6.7915 c 0,-0.072 0.0184,-0.1298 0.0539,-0.1831 0.036,-0.0542 0.0941,-0.0941 0.1834,-0.1253 0.089,-0.0318 0.2009,-0.0587 0.3438,-0.0805 0.1389,-0.0224 0.322,-0.0315 0.5542,-0.0315 0.21,0 0.3843,0.009 0.5318,0.0315 0.1431,0.0218 0.259,0.0487 0.3483,0.0805 0.0893,0.0312 0.148,0.0711 0.1831,0.1253 0.036,0.0487 0.0539,0.1111 0.0539,0.1831 z m 13.1372,0.027 c 0,0.1029 -0.036,0.1828 -0.1029,0.2367 -0.0709,0.0541 -0.1647,0.0892 -0.29,0.1162 -0.1211,0.0272 -0.2996,0.0399 -0.536,0.0399 -0.224,0 -0.4071,-0.0127 -0.5409,-0.0399 -0.1344,-0.027 -0.2322,-0.0621 -0.2951,-0.1162 -0.0623,-0.0539 -0.0941,-0.1299 -0.0941,-0.2367 v -1.1795 c -0.5133,0.549 -1.0851,0.9785 -1.7203,1.2824 -0.6344,0.299 -1.3043,0.4512 -2.0107,0.4512 -0.621,0 -1.1843,-0.0802 -1.6843,-0.2415 -0.5009,-0.1607 -0.9292,-0.398 -1.2821,-0.7013 -0.3529,-0.3036 -0.6301,-0.6837 -0.8269,-1.1259 -0.1964,-0.4467 -0.2951,-0.9521 -0.2951,-1.5191 0,-0.6661 0.1338,-1.2421 0.4071,-1.7294 0.2676,-0.4918 0.6562,-0.898 1.1662,-1.2203 0.5048,-0.3212 1.1259,-0.5669 1.8581,-0.7282 0.7333,-0.1608 1.5596,-0.241 2.4758,-0.241 h 1.6262 v -0.9201 c 0,-0.4521 -0.0493,-0.8544 -0.1432,-1.2073 -0.0978,-0.3484 -0.25,-0.6386 -0.464,-0.8711 -0.2149,-0.2321 -0.4921,-0.4062 -0.8314,-0.523 -0.3396,-0.1204 -0.76,-0.1783 -1.2555,-0.1783 -0.5317,0 -1.0099,0.0621 -1.4297,0.1922 -0.4244,0.129 -0.7954,0.2679 -1.1124,0.4241 -0.3177,0.157 -0.5862,0.2951 -0.8002,0.4249 -0.2097,0.1293 -0.371,0.1922 -0.4739,0.1922 -0.0709,0 -0.1338,-0.0179 -0.1832,-0.0539 -0.0532,-0.0314 -0.0983,-0.085 -0.1383,-0.1561 -0.0405,-0.0669 -0.0669,-0.1571 -0.0847,-0.2642 -0.0182,-0.1112 -0.0267,-0.2277 -0.0267,-0.362 0,-0.214 0.0128,-0.3884 0.0445,-0.5131 0.0315,-0.1253 0.1069,-0.246 0.2231,-0.358 0.1162,-0.1111 0.322,-0.2458 0.6083,-0.402 0.2852,-0.1522 0.6211,-0.295 0.9958,-0.4243 0.3714,-0.125 0.7824,-0.2327 1.2286,-0.3169 0.443,-0.0853 0.894,-0.1259 1.3453,-0.1259 0.8441,0 1.5641,0.0938 2.1583,0.286 0.5941,0.1922 1.0723,0.4782 1.4386,0.8493 0.3668,0.3705 0.6301,0.8311 0.7957,1.381 0.1655,0.5491 0.25,1.1923 0.25,1.9253 z m -2.145,-5.3975 h -1.8451 c -0.5899,0 -1.1038,0.0493 -1.5415,0.1511 -0.4334,0.0989 -0.7954,0.2511 -1.0865,0.4473 -0.2849,0.197 -0.4949,0.4289 -0.6338,0.7061 -0.1344,0.277 -0.2013,0.5944 -0.2013,0.9522 0,0.612 0.1922,1.0992 0.5811,1.4604 0.3884,0.362 0.9292,0.5459 1.6305,0.5459 0.563,0 1.0911,-0.1428 1.5733,-0.434 0.4827,-0.286 0.9918,-0.7279 1.5233,-1.3223 z m 16.0597,5.3841 c 0,0.0715 -0.0176,0.1293 -0.0536,0.1789 -0.0357,0.0442 -0.0893,0.0893 -0.1695,0.1253 -0.076,0.0309 -0.1879,0.0578 -0.326,0.076 -0.1389,0.0173 -0.3129,0.026 -0.5233,0.026 -0.2188,0 -0.398,-0.009 -0.5357,-0.026 -0.1389,-0.0182 -0.25,-0.0451 -0.3354,-0.076 -0.0805,-0.036 -0.1389,-0.0811 -0.1749,-0.1253 -0.0348,-0.0496 -0.0532,-0.1074 -0.0532,-0.1789 v -10.2909 h -5.603 v 10.2909 c 0,0.0715 -0.0179,0.1293 -0.0539,0.1789 -0.036,0.0442 -0.0938,0.0893 -0.1788,0.1253 -0.0802,0.0309 -0.1922,0.0578 -0.3351,0.076 -0.138,0.0173 -0.3129,0.026 -0.5224,0.026 -0.2149,0 -0.3889,-0.009 -0.5278,-0.026 -0.1429,-0.0182 -0.254,-0.0451 -0.3351,-0.076 -0.085,-0.036 -0.1428,-0.0811 -0.174,-0.1253 -0.0312,-0.0496 -0.0451,-0.1074 -0.0451,-0.1789 v -11.3411 c 0,-0.2631 0.0578,-0.4552 0.1792,-0.5851 0.1159,-0.1253 0.2817,-0.1879 0.4872,-0.1879 h 8.6284 c 0.205,0 0.3711,0.0626 0.4822,0.1879 0.112,0.1299 0.1698,0.322 0.1698,0.5851 z m 14.9471,-6.0321 c 0,0.9604 -0.1253,1.8456 -0.3802,2.6538 -0.25,0.8048 -0.6298,1.5018 -1.1301,2.0869 -0.5009,0.5856 -1.1302,1.0414 -1.8811,1.3674 -0.7554,0.326 -1.6316,0.4915 -2.6229,0.4915 -0.97,0 -1.8142,-0.1431 -2.5342,-0.4331 -0.7194,-0.2866 -1.3178,-0.7064 -1.7957,-1.2555 -0.4782,-0.5499 -0.8362,-1.2203 -1.0729,-2.0021 -0.2364,-0.7863 -0.3529,-1.6758 -0.3529,-2.6719 0,-0.961 0.1255,-1.8462 0.3707,-2.6504 0.2503,-0.8082 0.6259,-1.5052 1.1265,-2.0906 0.5,-0.5859 1.1259,-1.0372 1.876,-1.3631 0.7514,-0.3221 1.6273,-0.4828 2.628,-0.4828 0.9697,0 1.8142,0.1432 2.533,0.434 0.72,0.286 1.3181,0.7058 1.7963,1.2549 0.4782,0.5502 0.8402,1.2155 1.0815,2.0024 0.2369,0.7863 0.358,1.6705 0.358,2.6586 z m -2.2522,0.1381 c 0,-0.639 -0.0584,-1.2422 -0.1791,-1.8091 -0.1159,-0.5675 -0.3121,-1.0633 -0.5854,-1.4927 -0.2678,-0.4289 -0.6389,-0.7688 -1.1035,-1.014 -0.4598,-0.2509 -1.0409,-0.3759 -1.7339,-0.3759 -0.6384,0 -1.1883,0.1117 -1.6484,0.3399 -0.4603,0.2282 -0.8359,0.5491 -1.1353,0.9652 -0.299,0.4153 -0.5181,0.9071 -0.661,1.4746 -0.1471,0.5678 -0.2191,1.1888 -0.2191,1.8592 0,0.6469 0.0578,1.2549 0.1791,1.8221 0.116,0.5681 0.3124,1.0642 0.5891,1.4882 0.2775,0.4204 0.648,0.76 1.1083,1.0055 0.4649,0.25 1.046,0.3756 1.7382,0.3756 0.6302,0 1.1753,-0.1114 1.6401,-0.3396 0.4646,-0.2282 0.8442,-0.5451 1.1444,-0.9564 0.299,-0.4111 0.5182,-0.9029 0.6562,-1.4704 0.1389,-0.5669 0.2103,-1.1928 0.2103,-1.8722 z m 14.6336005,5.894 c 0,0.0715 -0.0181,0.1293 -0.0541,0.1789 -0.0352,0.0442 -0.0888,0.0893 -0.169,0.1253 -0.0759,0.0309 -0.1879,0.0578 -0.3268,0.076 -0.1381,0.0173 -0.3124,0.026 -0.5224,0.026 -0.2189,0 -0.398,-0.009 -0.5361,-0.026 -0.1386,-0.0182 -0.2503,-0.0451 -0.335,-0.076 -0.0811,-0.036 -0.1389,-0.0811 -0.1749,-0.1253 -0.0349,-0.0496 -0.0533,-0.1074 -0.0533,-0.1789 v -10.2909 h -3.2443 c -0.1383,1.3856 -0.3084,2.6187 -0.5045,3.6998 -0.1968,1.0814 -0.4159,2.0245 -0.6616,2.8284 -0.2455,0.8002 -0.5225005,1.4797 -0.8266005,2.0288 -0.3036,0.5499 -0.6387,0.9921 -1.0009,1.3274 -0.3665,0.3345 -0.7594,0.5763 -1.1843,0.724 -0.4199,0.1471 -0.8751,0.2231 -1.3533,0.2231 -0.0811,0 -0.148,-0.0133 -0.2058,-0.0402 -0.0541,-0.0267 -0.1035,-0.0715 -0.1383,-0.1429 -0.0321,-0.0675 -0.0579,-0.1653 -0.0763,-0.2951 -0.0176,-0.1253 -0.0266,-0.286 -0.0266,-0.4873 0,-0.2097 0.004,-0.3793 0.0175,-0.5091 0.0134,-0.1292 0.0358,-0.2372 0.0675,-0.3126 0.0309,-0.0803 0.0712,-0.1293 0.1162,-0.1562 0.0488,-0.0275 0.1069,-0.0403 0.1789,-0.0403 0.29,0 0.5624,-0.0672 0.826,-0.2012 0.2591,-0.1389 0.5049,-0.362 0.7331,-0.6702 0.2281,-0.3086 0.4422,-0.7148 0.6434,-1.2154 0.1967,-0.5049 0.3799,-1.122 0.5497,-1.8542 0.1652,-0.733 0.3214,-1.5911 0.4694,-2.5741 0.1471,-0.9786 0.29,-2.1087 0.4198,-3.3829 0.0173,-0.2631 0.0802,-0.4552 0.1922,-0.5851 0.1071,-0.1253 0.2633005,-0.1879 0.4640005,-0.1879 h 6.0503 c 0.2058,0 0.371,0.0626 0.4872,0.193 0.1208,0.1248 0.1789,0.3169 0.1789,0.58 z m 14.3251995,0 c 0,0.0715 -0.0184,0.1293 -0.0533,0.1789 -0.036,0.0442 -0.0899,0.0893 -0.1701,0.1253 -0.0799,0.0309 -0.1879,0.0578 -0.3308,0.076 -0.138,0.0173 -0.3124,0.026 -0.5224,0.026 -0.2239995,0 -0.4019995,-0.009 -0.5408995,-0.026 -0.1431,-0.0182 -0.25,-0.0451 -0.3311,-0.076 -0.0802,-0.036 -0.1338,-0.0811 -0.1689,-0.1253 -0.036,-0.0496 -0.0541,-0.1074 -0.0541,-0.1789 v -5.1701 h -5.9786 v 5.1701 c 0,0.0715 -0.0176,0.1293 -0.0536,0.1789 -0.036,0.0442 -0.0893,0.0893 -0.1698,0.1253 -0.0802,0.0309 -0.1876,0.0578 -0.3308,0.076 -0.1386,0.0173 -0.3177,0.026 -0.5357,0.026 -0.2149,0 -0.3889,-0.009 -0.5278,-0.026 -0.1429,-0.0182 -0.2546,-0.0451 -0.3351,-0.076 -0.0853,-0.036 -0.1431,-0.0811 -0.174,-0.1253 -0.0315001,-0.0496 -0.0451,-0.1074 -0.0451,-0.1789 v -11.7873 c 0,-0.072 0.0136,-0.1298 0.0451,-0.1788 0.0309,-0.0451 0.0887,-0.0893 0.174,-0.1299 0.0805,-0.0399 0.1922,-0.0669 0.3351,-0.0802 0.1389,-0.013 0.3129,-0.0181 0.5278,-0.0181 0.218,0 0.3971,0.005 0.5357,0.0181 0.1432,0.0133 0.2506,0.0403 0.3308,0.0802 0.0805,0.0406 0.1338,0.0848 0.1698,0.1299 0.036,0.049 0.0536,0.1068 0.0536,0.1788 v 4.794 h 5.9786 v -4.794 c 0,-0.072 0.0181,-0.1298 0.0541,-0.1788 0.0351,-0.0451 0.0887,-0.0893 0.1689,-0.1299 0.0811,-0.0399 0.188,-0.0669 0.3311,-0.0802 0.1389,-0.013 0.3169,-0.0181 0.5408995,-0.0181 0.21,0 0.3844,0.005 0.5224,0.0181 0.1429,0.0133 0.2509,0.0403 0.3308,0.0802 0.0802,0.0406 0.1341,0.0848 0.1701,0.1299 0.0349,0.049 0.0533,0.1068 0.0533,0.1788 z m 14.0394,-6.4077 c 0,0.3396 -0.0845,0.5811 -0.2543,0.7285 -0.1697,0.1432 -0.3668,0.2146 -0.585,0.2146 h -7.7397 c 0,0.6571 0.0674,1.2467 0.1964,1.7691 0.1301,0.5273 0.3492,0.9788 0.6571,1.3541 0.3041,0.3753 0.7021,0.6611 1.1883,0.8623 0.4918,0.201 1.091,0.3039 1.7966,0.3039 0.5587,0 1.059,-0.0445 1.493,-0.1389 0.4371,-0.0887 0.8172,-0.1916 1.1341,-0.3033 0.318,-0.112 0.5811,-0.2149 0.7869,-0.3036 0.2055,-0.0944 0.3574,-0.1389 0.4646,-0.1389 0.0626,0 0.1159,0.0136 0.1655,0.0445 0.0443,0.0315 0.0845,0.076 0.1072,0.1389 0.0269,0.0584 0.049,0.1426 0.0624,0.2506 0.0136,0.1111 0.0178,0.2406 0.0178,0.3968 0,0.1123 -0.004,0.2101 -0.0133,0.2951 -0.008,0.0808 -0.0179,0.1568 -0.0315,0.2191 -0.013,0.0669 -0.0354,0.1248 -0.0672,0.1789 -0.0311,0.0493 -0.0671,0.0981 -0.1162,0.1471 -0.0487,0.0493 -0.1916,0.1253 -0.424,0.2327 -0.2373,0.1117 -0.5409,0.2146 -0.9162,0.3215 -0.375,0.1029 -0.809,0.1967 -1.3005,0.2769 -0.4907,0.0851 -1.014,0.1253 -1.5727,0.1253 -0.9694,0 -1.8136,-0.134 -2.5427,-0.4062 -0.7282,-0.2681 -1.3402,-0.6704 -1.8365,-1.2021 -0.4958,-0.5366 -0.8711,-1.2022 -1.1211,-2.0064 -0.2549,-0.7999 -0.3802,-1.7334 -0.3802,-2.8018 0,-1.01 0.1299,-1.9216 0.3929,-2.7303 0.2591,-0.8042 0.6395,-1.4927 1.1313,-2.0554 0.4913,-0.5632 1.0905,-0.9921 1.7873,-1.2954 0.697,-0.3002 1.4785,-0.4519 2.3414,-0.4519 0.9246,0 1.7115,0.1477 2.3587,0.4468 0.6528,0.295 1.1843,0.697 1.6047,1.1976 0.4155,0.5009 0.724,1.0911 0.9207,1.77 0.1961,0.6743 0.2942,1.3983 0.2942,2.1665 z m -2.1713,-0.6383 c 0.0269,-1.1353 -0.2231,-2.0296 -0.7555,-2.6768 -0.5312,-0.6483 -1.313,-0.9703 -2.3544,-0.9703 -0.536,0 -1.0052,0.0984 -1.4071,0.2993 -0.402,0.2016 -0.7382,0.4697 -1.0106,0.8051 -0.2727,0.3299 -0.4824,0.7188 -0.6296,1.1571 -0.1471,0.4425 -0.2321,0.9023 -0.2505,1.3856 z m 15.804,7.046 c 0,0.0715 -0.0176,0.1293 -0.0533,0.1789 -0.036,0.0442 -0.0896,0.0893 -0.1698,0.1253 -0.0802,0.0309 -0.1879,0.0578 -0.3311,0.076 -0.1378,0.0173 -0.3118,0.026 -0.5221,0.026 -0.2237,0 -0.4023,-0.009 -0.5412,-0.026 -0.1428,-0.0182 -0.25,-0.0451 -0.3305,-0.076 -0.0802,-0.036 -0.1344,-0.0811 -0.1692,-0.1253 -0.036,-0.0496 -0.0544,-0.1074 -0.0544,-0.1789 v -5.1701 h -5.9783 v 5.1701 c 0,0.0715 -0.0179,0.1293 -0.0536,0.1789 -0.036,0.0442 -0.0893,0.0893 -0.1701,0.1253 -0.0799,0.0309 -0.1871,0.0578 -0.3299,0.076 -0.1389,0.0173 -0.3178,0.026 -0.5366,0.026 -0.2149,0 -0.3886,-0.009 -0.5275,-0.026 -0.1432,-0.0182 -0.2543,-0.0451 -0.3354,-0.076 -0.0845,-0.036 -0.1429,-0.0811 -0.1737,-0.1253 -0.0312,-0.0496 -0.0451,-0.1074 -0.0451,-0.1789 v -11.7873 c 0,-0.072 0.0139,-0.1298 0.0451,-0.1788 0.0308,-0.0451 0.0892,-0.0893 0.1737,-0.1299 0.0811,-0.0399 0.1922,-0.0669 0.3354,-0.0802 0.1389,-0.013 0.3126,-0.0181 0.5275,-0.0181 0.2188,0 0.3977,0.005 0.5366,0.0181 0.1428,0.0133 0.25,0.0403 0.3299,0.0802 0.0808,0.0406 0.1341,0.0848 0.1701,0.1299 0.0357,0.049 0.0536,0.1068 0.0536,0.1788 v 4.794 h 5.9783 v -4.794 c 0,-0.072 0.0184,-0.1298 0.0544,-0.1788 0.0348,-0.0451 0.089,-0.0893 0.1692,-0.1299 0.0805,-0.0399 0.1877,-0.0669 0.3305,-0.0802 0.1389,-0.013 0.3175,-0.0181 0.5412,-0.0181 0.2103,0 0.3843,0.005 0.5221,0.0181 0.1432,0.0133 0.2509,0.0403 0.3311,0.0802 0.0802,0.0406 0.1338,0.0848 0.1698,0.1299 0.0357,0.049 0.0533,0.1068 0.0533,0.1788 z m 14.3351,0 c 0,0.0715 -0.0182,0.1293 -0.0533,0.1789 -0.036,0.0442 -0.0902,0.0893 -0.1704,0.1253 -0.0802,0.0309 -0.1876,0.0578 -0.3305,0.076 -0.1383,0.0173 -0.3124,0.026 -0.5224,0.026 -0.224,0 -0.402,-0.009 -0.5409,-0.026 -0.1429,-0.0182 -0.2506,-0.0451 -0.3311,-0.076 -0.0802,-0.036 -0.1338,-0.0811 -0.1692,-0.1253 -0.036,-0.0496 -0.0539,-0.1074 -0.0539,-0.1789 v -5.1701 h -5.9782 v 5.1701 c 0,0.0715 -0.0182,0.1293 -0.0542,0.1789 -0.0357,0.0442 -0.089,0.0893 -0.17,0.1253 -0.08,0.0309 -0.1871,0.0578 -0.33,0.076 -0.1389,0.0173 -0.3178,0.026 -0.536,0.026 -0.2149,0 -0.3892,-0.009 -0.5281,-0.026 -0.1432,-0.0182 -0.2543,-0.0451 -0.3348,-0.076 -0.085,-0.036 -0.1434,-0.0811 -0.1743,-0.1253 -0.0309,-0.0496 -0.0448,-0.1074 -0.0448,-0.1789 v -11.7873 c 0,-0.072 0.0139,-0.1298 0.0448,-0.1788 0.0309,-0.0451 0.0893,-0.0893 0.1743,-0.1299 0.0805,-0.0399 0.1916,-0.0669 0.3348,-0.0802 0.1389,-0.013 0.3132,-0.0181 0.5281,-0.0181 0.2182,0 0.3971,0.005 0.536,0.0181 0.1429,0.0133 0.25,0.0403 0.33,0.0802 0.081,0.0406 0.1343,0.0848 0.17,0.1299 0.036,0.049 0.0542,0.1068 0.0542,0.1788 v 4.794 h 5.9782 v -4.794 c 0,-0.072 0.0179,-0.1298 0.0539,-0.1788 0.0354,-0.0451 0.089,-0.0893 0.1692,-0.1299 0.0805,-0.0399 0.1882,-0.0669 0.3311,-0.0802 0.1389,-0.013 0.3169,-0.0181 0.5409,-0.0181 0.21,0 0.3841,0.005 0.5224,0.0181 0.1429,0.0133 0.2503,0.0403 0.3305,0.0802 0.0802,0.0406 0.1344,0.0848 0.1704,0.1299 0.0351,0.049 0.0533,0.1068 0.0533,0.1788 z m 12.8868,0.0134 c 0,0.1029 -0.036,0.1828 -0.1029,0.2367 -0.0708,0.0541 -0.1647,0.0892 -0.29,0.1162 -0.121,0.0272 -0.3001,0.0399 -0.5363,0.0399 -0.2236,0 -0.4067,-0.0127 -0.5411,-0.0399 -0.1338,-0.027 -0.2316,-0.0621 -0.2945,-0.1162 -0.0624,-0.0539 -0.0944,-0.1299 -0.0944,-0.2367 v -1.1795 c -0.5131,0.549 -1.0851,0.9785 -1.7204,1.2824 -0.6341,0.299 -1.3039,0.4512 -2.0103,0.4512 -0.6211,0 -1.1843,-0.0802 -1.6843,-0.2415 -0.5009,-0.1607 -0.9292,-0.398 -1.2822,-0.7013 -0.3534,-0.3036 -0.6304,-0.6837 -0.8271,-1.1259 -0.1962,-0.4467 -0.2951,-0.9521 -0.2951,-1.5191 0,-0.6661 0.1341,-1.2421 0.4068,-1.7294 0.2681,-0.4918 0.6565,-0.898 1.1667,-1.2203 0.5049,-0.3212 1.1259,-0.5669 1.8581,-0.7282 0.7331,-0.1608 1.5597,-0.241 2.4755,-0.241 h 1.6266 v -0.9201 c 0,-0.4521 -0.0494,-0.8544 -0.1432,-1.2073 -0.0978,-0.3484 -0.25,-0.6386 -0.4643,-0.8711 -0.2146,-0.2321 -0.4918,-0.4062 -0.8311,-0.523 -0.3396,-0.1204 -0.76,-0.1783 -1.2555,-0.1783 -0.5318,0 -1.01,0.0621 -1.4298,0.1922 -0.4243,0.129 -0.7954,0.2679 -1.1123,0.4241 -0.3181,0.157 -0.5862,0.2951 -0.8002,0.4249 -0.2104,0.1293 -0.3711,0.1922 -0.474,0.1922 -0.0711,0 -0.1338,-0.0179 -0.1831,-0.0539 -0.0533,-0.0314 -0.0984,-0.085 -0.1383,-0.1561 -0.0406,-0.0669 -0.0669,-0.1571 -0.0848,-0.2642 -0.0181,-0.1112 -0.0269,-0.2277 -0.0269,-0.362 0,-0.214 0.0127,-0.3884 0.0448,-0.5131 0.0309,-0.1253 0.1068,-0.246 0.2231,-0.358 0.1162,-0.1111 0.322,-0.2458 0.6077,-0.402 0.2857,-0.1522 0.6214,-0.295 0.9964,-0.4243 0.371,-0.125 0.7823,-0.2327 1.2285,-0.3169 0.4431,-0.0853 0.8941,-0.1259 1.3453,-0.1259 0.8442,0 1.5639,0.0938 2.1583,0.286 0.5942,0.1922 1.0724,0.4782 1.4383,0.8493 0.3671,0.3705 0.6305,0.8311 0.796,1.381 0.1653,0.5491 0.25,1.1923 0.25,1.9253 z m -2.1449,-5.3975 h -1.8457 c -0.5893,0 -1.1032,0.0493 -1.5415,0.1511 -0.4328,0.0989 -0.7951,0.2511 -1.0859,0.4473 -0.2852,0.197 -0.4955,0.4289 -0.6344,0.7061 -0.1338,0.277 -0.2007,0.5944 -0.2007,0.9522 0,0.612 0.1922,1.0992 0.5811,1.4604 0.3883,0.362 0.9292,0.5459 1.6305,0.5459 0.5629,0 1.0905,-0.1428 1.5732,-0.434 0.4828,-0.286 0.9919,-0.7279 1.5234,-1.3223 z m 107.991701,3.8469 c 0,0.2682 -0.0133,0.5182 -0.0402,0.7421 -0.027,0.2274 -0.0669,0.4422 -0.125,0.6432 -0.0539,0.201 -0.1341,0.398 -0.237,0.5941 -0.0981,0.197 -0.2231,0.4023 -0.3711,0.6211 l -1.7824,2.6634 c -0.0451,0.0712 -0.0941,0.1251 -0.1519,0.1701 -0.0581,0.0442 -0.1253,0.0802 -0.2013,0.1111 -0.0808,0.0312 -0.174,0.0539 -0.286,0.072 -0.1069,0.0179 -0.2409,0.027 -0.398,0.027 -0.1471,0 -0.2721,-0.005 -0.375,-0.0182 -0.0981,-0.0136 -0.1701,-0.0405 -0.2143,-0.0717 -0.0448,-0.036 -0.0669,-0.0802 -0.0717,-0.125 -0.004,-0.049 0.009,-0.112 0.0448,-0.1922 l 1.7155,-3.5657 v -1.6713 c 0,-0.237 0.0269,-0.4241 0.0808,-0.563 0.049,-0.1383 0.1292,-0.2412 0.2282,-0.3129 0.102,-0.0711 0.2273,-0.1162 0.388,-0.1431 0.1571,-0.0261 0.3442,-0.04 0.5633,-0.04 0.21,0 0.3931,0.0139 0.5499,0.04 0.1602,0.0269 0.286,0.072 0.3883,0.1431 0.0987,0.0717 0.1747,0.1746 0.2237,0.3129 0.0493,0.1389 0.0714,0.326 0.0714,0.563 z m 0,-8.6148 c 0,0.2812 -0.0181,0.5182 -0.0581,0.7104 -0.0402,0.1919 -0.1162,0.3489 -0.2231,0.4649 -0.1119,0.1202 -0.2551,0.201 -0.4291,0.2503 -0.1741,0.049 -0.398,0.0711 -0.6701,0.0711 -0.2821,0 -0.51,-0.0221 -0.684,-0.0711 -0.1741,-0.0493 -0.3172,-0.1301 -0.4201,-0.2503 -0.1072,-0.116 -0.1783,-0.273 -0.2192,-0.4649 -0.0399,-0.1922 -0.0578,-0.4292 -0.0578,-0.7104 0,-0.2948 0.0179,-0.5408 0.0578,-0.737 0.0409,-0.197 0.112,-0.358 0.2192,-0.4739 0.1029,-0.1211 0.246,-0.2013 0.4201,-0.2503 0.174,-0.0491 0.4019,-0.0717 0.684,-0.0717 0.2721,0 0.496,0.0226 0.6701,0.0717 0.174,0.049 0.3172,0.1292 0.4291,0.2503 0.1069,0.1159 0.1829,0.2769 0.2231,0.4739 0.04,0.1962 0.0581,0.4422 0.0581,0.737 z m -8.6729,3.1057 c 0.027,-1.135 -0.223,-2.0291 -0.7551,-2.6765 -0.5315,-0.648 -1.3136,-0.97 -2.3547,-0.97 -0.5361,0 -1.0052,0.0981 -1.4072,0.299 -0.4022,0.2019 -0.7381,0.47 -1.0102,0.8051 -0.273,0.3302 -0.4831,0.7191 -0.6302,1.1571 -0.1471,0.4422 -0.2321,0.9023 -0.25,1.3853 z m 2.1714,0.6383 c 0,0.3399 -0.0842,0.5811 -0.2543,0.7291 -0.1698,0.1429 -0.3668,0.214 -0.5851,0.214 h -7.7394 c 0,0.6571 0.0669,1.2473 0.1962,1.7694 0.1298,0.5273 0.3489,0.9791 0.657,1.3541 0.3042,0.3753 0.7019,0.6613 1.1883,0.8623 0.4921,0.201 1.0911,0.3039 1.7963,0.3039 0.559,0 1.0593,-0.0448 1.4931,-0.1386 0.4373,-0.0893 0.8175,-0.1922 1.1347,-0.3033 0.3177,-0.112 0.5808,-0.2149 0.7869,-0.3042 0.2052,-0.0938 0.3571,-0.1389 0.4643,-0.1389 0.0626,0 0.1159,0.0139 0.1655,0.0451 0.0442,0.0309 0.0845,0.076 0.1072,0.1389 0.0269,0.0578 0.049,0.1423 0.0623,0.25 0.0136,0.1111 0.0179,0.2412 0.0179,0.3971 0,0.112 -0.004,0.2101 -0.0131,0.2951 -0.009,0.0808 -0.0181,0.1568 -0.0317,0.2191 -0.0133,0.0669 -0.0354,0.125 -0.0672,0.1789 -0.0312,0.049 -0.0669,0.0981 -0.1159,0.1471 -0.0491,0.0491 -0.1922,0.125 -0.4244,0.233 -0.2369,0.1111 -0.5408,0.214 -0.9161,0.3212 -0.375,0.1029 -0.809,0.197 -1.3003,0.2769 -0.4912,0.0851 -1.0142,0.125 -1.5732,0.125 -0.9692,0 -1.8136,-0.1337 -2.5424,-0.4062 -0.7282,-0.2678 -1.3402,-0.6701 -1.8363,-1.2021 -0.496,-0.5361 -0.8714,-1.2022 -1.1214,-2.0064 -0.2548,-0.7999 -0.3801,-1.7334 -0.3801,-2.8015 0,-1.01 0.1301,-1.9213 0.3932,-2.7303 0.2591,-0.8042 0.6392,-1.4924 1.131,-2.0554 0.4912,-0.5632 1.0902,-0.9921 1.7872,-1.2954 0.6974,-0.2999 1.4786,-0.4519 2.3417,-0.4519 0.9244,0 1.7113,0.1477 2.3587,0.447 0.6529,0.2948 1.1841,0.6971 1.6042,1.1971 0.4158,0.5012 0.7239,1.0911 0.921,1.7703 0.1961,0.6743 0.2942,1.3983 0.2942,2.1665 z m -12.5507,6.5021 c 0,0.0491 -0.0139,0.0981 -0.0451,0.1341 -0.0309,0.04 -0.089,0.076 -0.1698,0.0981 -0.085,0.0269 -0.1921,0.049 -0.3302,0.0629 -0.1341,0.0131 -0.309,0.0173 -0.519,0.0173 -0.241,0 -0.4422,-0.009 -0.5942,-0.0263 -0.1519,-0.0179 -0.2769,-0.0409 -0.375,-0.072 -0.0941,-0.0309 -0.1652,-0.0712 -0.2061,-0.116 -0.0439,-0.049 -0.0759,-0.1029 -0.0932,-0.1652 l -1.2512,-3.0524 c -0.1568,-0.3929 -0.3218,-0.7282 -0.5009,-1.0142 -0.178,-0.2812 -0.3841,-0.5139 -0.6211,-0.688 -0.2321,-0.174 -0.496,-0.2993 -0.7951,-0.3793 -0.2951,-0.0759 -0.6301,-0.1167 -1.0142,-0.1167 h -0.9114 v 5.3039 c 0,0.045 -0.0227,0.085 -0.0669,0.1298 -0.045,0.0451 -0.108,0.0802 -0.197,0.1029 -0.089,0.0263 -0.201,0.0493 -0.3441,0.0672 -0.1381,0.0173 -0.2991,0.0263 -0.4822,0.0263 -0.1879,0 -0.3489,-0.009 -0.487,-0.0263 -0.1431,-0.0179 -0.2551,-0.0409 -0.3441,-0.0672 -0.0899,-0.0227 -0.1519,-0.0578 -0.1928,-0.1029 -0.0402,-0.0448 -0.0581,-0.0899 -0.0581,-0.1298 v -11.9753 c 0,-0.04 0.0179,-0.0842 0.0581,-0.1202 0.0409,-0.0399 0.1029,-0.0759 0.1928,-0.0989 0.089,-0.0261 0.201,-0.049 0.3441,-0.0621 0.1381,-0.013 0.2991,-0.0178 0.487,-0.0178 0.1831,0 0.3441,0.005 0.4822,0.0178 0.1431,0.0131 0.2551,0.036 0.3441,0.0621 0.089,0.023 0.152,0.059 0.197,0.0989 0.0442,0.036 0.0669,0.0802 0.0669,0.125 v 4.951 h 0.9114 c 0.3259,0 0.6301,-0.036 0.9022,-0.1119 0.273,-0.076 0.523,-0.1962 0.7461,-0.3663 0.2282,-0.174 0.4292,-0.3931 0.6041,-0.6658 0.178,-0.2724 0.3438,-0.5984 0.4912,-0.9834 l 1.0902,-2.7207 c 0.0179,-0.0717 0.0491,-0.1298 0.089,-0.1837 0.0448,-0.0532 0.112,-0.098 0.197,-0.1292 0.089,-0.036 0.2053,-0.0629 0.3481,-0.076 0.1432,-0.013 0.3359,-0.0178 0.5721,-0.0178 0.2058,0 0.3801,0.005 0.5142,0.0178 0.1338,0.0131 0.2409,0.036 0.3169,0.0621 0.072,0.023 0.121,0.059 0.1479,0.0989 0.0261,0.036 0.04,0.0802 0.04,0.1202 0,0.0808 -0.009,0.1658 -0.0309,0.2509 -0.0229,0.089 -0.0541,0.1871 -0.0989,0.3033 l -1.1254,2.5962 c -0.1749,0.438 -0.3622,0.8042 -0.568,1.1036 -0.2053,0.2948 -0.4111,0.5451 -0.6211,0.7418 -0.2052,0.197 -0.4201,0.3489 -0.6392,0.4603 -0.214,0.1069 -0.4241,0.1919 -0.6251,0.2549 v 0.0269 c 0.3039,0.1023 0.5851,0.2273 0.8442,0.375 0.2591,0.1522 0.4961,0.3354 0.7192,0.5494 0.2239,0.2191 0.4291,0.4782 0.621,0.7821 0.1928,0.2999 0.3711,0.644 0.5412,1.0372 l 1.296,2.9846 c 0.0354,0.0581 0.0581,0.1159 0.0759,0.1697 0.0173,0.0491 0.0312,0.1032 0.0403,0.1475 0.009,0.049 0.0178,0.0895 0.0221,0.1207 0.005,0.0312 0.005,0.0581 0.005,0.085 z m -12.4625,-1.9082 c 0,0.1471 -0.005,0.2769 -0.0136,0.3841 -0.009,0.1119 -0.0221,0.2009 -0.0442,0.2769 -0.023,0.0763 -0.0491,0.1389 -0.0808,0.197 -0.0312,0.0581 -0.0984,0.1432 -0.2101,0.25 -0.1071,0.112 -0.2951,0.2461 -0.5541,0.4113 -0.2634,0.161 -0.5585,0.3082 -0.8845,0.4332 -0.3308,0.1298 -0.684,0.2327 -1.068,0.3087 -0.3841,0.0802 -0.7821,0.1201 -1.1932,0.1201 -0.8492,0 -1.5995,-0.138 -2.2518,-0.4198 -0.6568,-0.2772 -1.207,-0.6834 -1.6441,-1.2194 -0.443,-0.5363 -0.7781,-1.1982 -1.0103,-1.9755 -0.2321,-0.7821 -0.3489,-1.6801 -0.3489,-2.7034 0,-1.1571 0.1431,-2.1535 0.4249,-2.9894 0.286,-0.8311 0.6744,-1.5146 1.1665,-2.0466 0.496,-0.5312 1.0769,-0.9244 1.7421,-1.1841 0.6704,-0.2542 1.3944,-0.3841 2.1717,-0.3841 0.3758,0 0.7378,0.0358 1.0902,0.1072 0.358,0.0669 0.6797,0.1607 0.9791,0.2727 0.295,0.1162 0.5629,0.246 0.7911,0.398 0.2319,0.1471 0.402,0.2772 0.5043,0.3793 0.1077,0.1077 0.1789,0.1921 0.2188,0.2503 0.036,0.0626 0.072,0.1346 0.099,0.2188 0.0221,0.0808 0.0399,0.1749 0.049,0.282 0.009,0.1029 0.013,0.237 0.013,0.3929 0,0.3402 -0.0399,0.5763 -0.1159,0.7152 -0.0802,0.1341 -0.1741,0.201 -0.2903,0.201 -0.1298,0 -0.2817,-0.0717 -0.4518,-0.2189 -0.1692,-0.1431 -0.3841,-0.3041 -0.6474,-0.4782 -0.264,-0.174 -0.5809,-0.335 -0.9519,-0.4782 -0.3711,-0.1477 -0.809,-0.2188 -1.3136,-0.2188 -1.0412,0 -1.8411,0.398 -2.3953,1.1973 -0.5541,0.7952 -0.8311,1.9531 -0.8311,3.4677 0,0.7551 0.072,1.421 0.2143,1.993 0.1477,0.5672 0.3577,1.0454 0.6389,1.4295 0.2773,0.3801 0.6211,0.6662 1.0282,0.8532 0.4062,0.188 0.8711,0.2821 1.394,0.2821 0.5004,0 0.9383,-0.0811 1.3136,-0.237 0.375,-0.1562 0.6971,-0.3302 0.974,-0.523 0.2772,-0.1873 0.5094,-0.3571 0.6973,-0.5094 0.188,-0.1561 0.3308,-0.2321 0.438,-0.2321 0.0581,0 0.1119,0.0181 0.1562,0.0533 0.0448,0.036 0.0808,0.0938 0.1119,0.1749 0.0309,0.0847 0.053,0.1871 0.0669,0.3169 0.0131,0.1253 0.0179,0.2772 0.0179,0.4513 z m -13.9235,-4.0797 c 0,-0.6392 -0.0581,-1.2424 -0.1789,-1.8096 -0.1162,-0.5672 -0.3123,-1.0633 -0.5853,-1.4922 -0.2679,-0.4291 -0.639,-0.769 -1.1033,-1.0142 -0.46,-0.2509 -1.0411,-0.3759 -1.7342,-0.3759 -0.6384,0 -1.1883,0.112 -1.6484,0.3399 -0.46,0.2279 -0.8359,0.5494 -1.1352,0.9652 -0.2991,0.4153 -0.5182,0.9071 -0.6611,1.4743 -0.1471,0.5681 -0.2191,1.1891 -0.2191,1.8592 0,0.6475 0.0581,1.2555 0.1789,1.8227 0.1162,0.5678 0.3124,1.0639 0.5893,1.4882 0.2772,0.4198 0.6483,0.76 1.1083,1.0052 0.4649,0.25 1.046,0.3759 1.7383,0.3759 0.6301,0 1.1752,-0.112 1.6401,-0.3399 0.4643,-0.2282 0.8444,-0.5451 1.1443,-0.9564 0.2991,-0.4111 0.5182,-0.9029 0.6562,-1.4701 0.1389,-0.5672 0.2101,-1.1934 0.2101,-1.8723 z m 2.2524,-0.1383 c 0,0.9604 -0.125,1.8454 -0.3801,2.6538 -0.25,0.8048 -0.6302,1.5021 -1.1302,2.0872 -0.5009,0.585 -1.1305,1.0411 -1.8813,1.3671 -0.7552,0.3263 -1.6314,0.4912 -2.6227,0.4912 -0.97,0 -1.8144,-0.1428 -2.5341,-0.4331 -0.7195,-0.286 -1.3176,-0.7061 -1.7958,-1.2552 -0.4782,-0.5502 -0.8359,-1.2203 -1.0729,-2.0024 -0.2364,-0.786 -0.3532,-1.6752 -0.3532,-2.6716 0,-0.961 0.1259,-1.8459 0.3711,-2.6501 0.2503,-0.8085 0.6258,-1.5055 1.1262,-2.0909 0.5003,-0.5859 1.1262,-1.0369 1.8765,-1.3631 0.7509,-0.3218 1.6271,-0.4828 2.6274,-0.4828 0.97,0 1.8142,0.1429 2.5336,0.4337 0.7198,0.286 1.3181,0.7061 1.7964,1.2555 0.4779,0.5499 0.8401,1.2152 1.0811,2.0021 0.237,0.7863 0.358,1.6707 0.358,2.6586 z m -12.7885,-5.1029 c 0,0.174 -0.009,0.322 -0.0269,0.4422 -0.0182,0.125 -0.0451,0.2239 -0.0851,0.299 -0.0399,0.0808 -0.085,0.1389 -0.134,0.1792 -0.0539,0.04 -0.1208,0.0578 -0.1968,0.0578 h -3.5257 v 10.1568 c 0,0.0712 -0.0173,0.1293 -0.0533,0.1792 -0.036,0.0442 -0.0899,0.089 -0.1698,0.125 -0.0802,0.0309 -0.1879,0.0581 -0.3311,0.076 -0.138,0.0173 -0.3172,0.0263 -0.536,0.0263 -0.2143,0 -0.3884,-0.009 -0.5273,-0.0263 -0.1428,-0.0179 -0.2548,-0.0451 -0.335,-0.076 -0.085,-0.036 -0.1432,-0.0808 -0.1741,-0.125 -0.0311,-0.0499 -0.045,-0.108 -0.045,-0.1792 v -10.1568 h -3.5255 c -0.0672,0 -0.1292,-0.0178 -0.1873,-0.0578 -0.0582,-0.0403 -0.1029,-0.0984 -0.1389,-0.1792 -0.0309,-0.0751 -0.0621,-0.1783 -0.0851,-0.3033 -0.0221,-0.125 -0.0309,-0.2769 -0.0309,-0.4518 0,-0.1562 0.009,-0.2942 0.0309,-0.4153 0.023,-0.125 0.0542,-0.2279 0.0941,-0.3081 0.04,-0.0848 0.0851,-0.1429 0.1389,-0.1828 0.0491,-0.0409 0.1111,-0.059 0.1783,-0.059 h 9.2228 c 0.0669,0 0.1299,0.0181 0.1877,0.059 0.0581,0.0399 0.1032,0.098 0.1383,0.1828 0.0318,0.0802 0.0629,0.1874 0.0851,0.3124 0.0226,0.1258 0.0317,0.2681 0.0317,0.4249 z m -19.679501,7.7746 c 0,-0.3481 -0.0621,-0.6563 -0.1831,-0.9202 -0.1208,-0.2681 -0.3172,-0.4872 -0.5811,-0.6613 -0.2679,-0.174 -0.6072,-0.3039 -1.0231,-0.3932 -0.411,-0.0847 -0.9022,-0.1298 -1.4703,-0.1298 h -2.1044 v 4.1738 c 0.1652,0.0269 0.3398,0.0442 0.5181,0.0581 0.1789,0.013 0.362,0.0269 0.55,0.0399 0.1879,0.0131 0.371,0.0221 0.5581,0.0312 0.1879,0.009 0.3623,0.0139 0.519,0.0139 0.5672,0 1.0494,-0.049 1.4522,-0.1522 0.4022,-0.0981 0.7325,-0.2458 1.0004,-0.438 0.2639,-0.1922 0.4603,-0.424 0.5811,-0.697 0.121,-0.2772 0.1831,-0.5854 0.1831,-0.9252 z m -0.3751,-5.4961 c 0,-0.286 -0.0538,-0.5403 -0.1561,-0.7682 -0.1078,-0.2231 -0.2773,-0.4159 -0.5191,-0.5721 -0.2409,-0.1561 -0.5539,-0.2721 -0.9331,-0.3531 -0.3802,-0.076 -0.8402,-0.116 -1.3853,-0.116 -0.4113,0 -0.7869,0.009 -1.1262,0.0312 -0.3442,0.0227 -0.6302,0.049 -0.8671,0.0717 v 3.6508 h 2.2033 c 0.9023,0 1.5903,-0.1659 2.0685,-0.5009 0.4782,-0.3351 0.7151,-0.8173 0.7151,-1.4434 z m 2.6006,5.4652 c 0,0.621 -0.1163,1.1749 -0.3532,1.6574 -0.237,0.487 -0.5851,0.8898 -1.05,1.22 -0.4603,0.326 -1.0363,0.5763 -1.7246,0.7461 -0.6931,0.1701 -1.4973,0.2551 -2.4134,0.2551 -0.286,0 -0.5672,0 -0.8351,-0.005 -0.273,-0.004 -0.5363,-0.0133 -0.7863,-0.0264 -0.2549,-0.0139 -0.5052,-0.0317 -0.7552,-0.0496 -0.246,-0.0133 -0.496,-0.0354 -0.7378,-0.0623 -0.3524,-0.0448 -0.6072,-0.161 -0.7725,-0.349 -0.1658,-0.1871 -0.2508,-0.4643 -0.2508,-0.8311 v -10.1427 c 0,-0.3572 0.0807,-0.6344 0.2418,-0.8263 0.1604,-0.1922 0.4113,-0.3042 0.7415,-0.3399 0.2279,-0.0269 0.4688,-0.049 0.7279,-0.0672 0.2551,-0.013 0.5191,-0.0309 0.7912,-0.0442 0.273,-0.0136 0.5499,-0.0227 0.8402,-0.0318 0.286,-0.009 0.5763,-0.013 0.8762,-0.013 0.8489,0 1.5814,0.0712 2.1982,0.2101 0.6211,0.138 1.1345,0.3441 1.5455,0.612 0.4113,0.2724 0.7152,0.6032 0.9122,0.9963 0.1961,0.3932 0.2948,0.8402 0.2948,1.3451 0,0.6613 -0.1789,1.2285 -0.5318,1.7025 -0.3532,0.4691 -0.8762,0.8041 -1.5642,1.0051 0.8629,0.1831 1.5151,0.5363 1.9531,1.0593 0.4331,0.527 0.6523,1.1841 0.6523,1.9795 z m -21.9354,-7.1405 c -0.3129,-0.0451 -0.6341,-0.076 -0.9652,-0.0893 -0.326,-0.0136 -0.6301,-0.0179 -0.9113,-0.0179 -0.5899,0 -1.0812,0.0491 -1.4749,0.152 -0.3974,0.0981 -0.7103,0.2452 -0.9516,0.4331 -0.237,0.188 -0.4067,0.4113 -0.5048,0.6662 -0.1029,0.25 -0.152,0.5312 -0.152,0.8401 0,0.3121 0.0579,0.5984 0.1741,0.8485 0.1207,0.2508 0.2951,0.4609 0.536,0.6301 0.237,0.1698 0.5451,0.3039 0.9162,0.3932 0.3758,0.0938 0.894,0.1386 1.5641,0.1386 h 1.7694 z m 2.1716,10.5318 c 0,0.0712 -0.0133,0.1293 -0.0442,0.1832 -0.0317,0.0538 -0.085,0.0941 -0.1658,0.125 -0.0802,0.0311 -0.1874,0.0541 -0.3302,0.072 -0.1389,0.0173 -0.3221,0.0263 -0.55,0.0263 -0.2143,0 -0.3892,-0.009 -0.5272,-0.0263 -0.1432,-0.0179 -0.2551,-0.0409 -0.3351,-0.072 -0.085,-0.0309 -0.1431,-0.0712 -0.174,-0.125 -0.032,-0.0491 -0.0451,-0.112 -0.0451,-0.1832 v -4.9558 h -1.2421 c -0.5412,0 -0.9604,0.0451 -1.2646,0.1301 -0.2996,0.089 -0.572,0.2322 -0.809,0.438 -0.2409,0.2052 -0.4558,0.4691 -0.648,0.7863 -0.1919,0.3169 -0.375,0.7061 -0.549,1.171 l -0.9565,2.3006 c -0.0447,0.112 -0.0898,0.2058 -0.1428,0.273 -0.0539,0.0711 -0.1298,0.125 -0.2282,0.165 -0.0981,0.0402 -0.2279,0.0671 -0.3798,0.081 -0.152,0.0131 -0.3394,0.0173 -0.5673,0.0173 -0.161,0 -0.3081,-0.004 -0.4331,-0.0133 -0.1259,-0.009 -0.233,-0.0221 -0.322,-0.0448 -0.0851,-0.0221 -0.1519,-0.0581 -0.1922,-0.1071 -0.0448,-0.0448 -0.0669,-0.1072 -0.0669,-0.1741 0,-0.0629 0.0221,-0.161 0.0712,-0.2951 0.049,-0.134 0.1476,-0.371 0.295,-0.7103 l 0.9431,-2.2122 c 0.2452,-0.5581 0.5451,-1.0412 0.9023,-1.4431 0.3577,-0.4065 0.7687,-0.7061 1.2331,-0.8983 -0.849,-0.1562 -1.5191,-0.4961 -2.0243,-1.0142 -0.5003,-0.523 -0.7503,-1.2113 -0.7503,-2.0685 0,-0.568 0.1162,-1.0814 0.3532,-1.542 0.237,-0.4604 0.5808,-0.8484 1.0412,-1.1665 0.4552,-0.3212 1.0182,-0.5672 1.6883,-0.737 0.6661,-0.1692 1.4304,-0.2543 2.2972,-0.2543 0.2052,0 0.4513,0.004 0.7234,0.0131 0.2772,0.009 0.559,0.0221 0.8492,0.0402 0.2951,0.0179 0.5769,0.0357 0.8538,0.0579 0.2725,0.0229 0.5094,0.0408 0.7104,0.0581 0.2633,0.0269 0.4601,0.121 0.5899,0.2908 0.1293,0.1653 0.1964,0.3711 0.1964,0.6123 z"
     style="fill:#1b1918;fill-rule:evenodd"
     id="path1039" />
  <path
     d="m 85.004459,589.48952 c 0,0.164 -0.009,0.31 -0.0327,0.4363 -0.0239,0.1321 -0.0566,0.2396 -0.0987,0.3245 -0.0421,0.0893 -0.0944,0.1503 -0.1648,0.1924 -0.0704,0.0421 -0.1452,0.061 -0.2251,0.061 h -9.851 c -0.1263,0 -0.2396,-0.0138 -0.3383,-0.0472 -0.0937,-0.0327 -0.1779,-0.0842 -0.2439,-0.1597 -0.0705,-0.0704 -0.122,-0.1779 -0.1547,-0.3144 -0.0334,-0.1357 -0.0472,-0.3049 -0.0472,-0.5067 0,-0.1837 0.009,-0.3434 0.0233,-0.4792 0.0145,-0.1365 0.0428,-0.2584 0.0893,-0.3666 0.0472,-0.1031 0.1081,-0.2062 0.1786,-0.3144 0.0704,-0.1031 0.164,-0.2156 0.2773,-0.3332 l 3.5588,-3.6626 c 0.8262,-0.8451 1.484,-1.6009 1.9813,-2.2724 0.498,-0.6665 0.8784,-1.277 1.1507,-1.831 0.2671,-0.5496 0.4457,-1.0476 0.5307,-1.4977 0.0842,-0.4509 0.1263,-0.8734 0.1263,-1.2683 0,-0.3942 -0.0653,-0.7696 -0.1968,-1.1217 -0.1364,-0.3521 -0.3245,-0.6621 -0.5778,-0.93 -0.2491,-0.2679 -0.5634,-0.4792 -0.9438,-0.6338 -0.3754,-0.1546 -0.8124,-0.2345 -1.3054,-0.2345 -0.5771,0 -1.0941,0.0799 -1.5543,0.2345 -0.4552,0.1546 -0.8589,0.3289 -1.2066,0.5118 -0.3427,0.183 -0.6338,0.3565 -0.864,0.5119 -0.2301,0.1546 -0.4036,0.2345 -0.5162,0.2345 -0.066,0 -0.127,-0.0189 -0.1786,-0.0559 -0.0515,-0.0378 -0.0936,-0.0944 -0.127,-0.1786 -0.0327,-0.0799 -0.061,-0.1924 -0.0791,-0.3289 -0.0189,-0.1409 -0.0284,-0.3049 -0.0284,-0.4973 0,-0.1365 0.004,-0.2541 0.0138,-0.3572 0.01,-0.0987 0.0233,-0.188 0.0472,-0.2628 0.0233,-0.0704 0.0516,-0.1409 0.0893,-0.2069 0.0371,-0.061 0.1126,-0.1409 0.2207,-0.2396 0.1126,-0.0937 0.3006,-0.2251 0.5728,-0.3891 0.2672,-0.1692 0.6099,-0.3289 1.0186,-0.4886 0.4037,-0.1641 0.8545,-0.2955 1.3475,-0.4088 0.4886,-0.1074 1.0047,-0.164 1.5449,-0.164 0.8639,0 1.6197,0.1219 2.2629,0.3659 0.6483,0.2395 1.1834,0.5728 1.611,0.996 0.4269,0.4225 0.7463,0.9104 0.9576,1.4694 0.2112,0.5591 0.3151,1.1551 0.3151,1.7889 0,0.5684 -0.0523,1.1362 -0.1503,1.6996 -0.1038,0.5633 -0.3151,1.1739 -0.6389,1.8316 -0.3289,0.6571 -0.7979,1.3845 -1.4135,2.1875 -0.6106,0.8029 -1.4273,1.7278 -2.4459,2.7755 l -2.8176,2.9439 h 7.7479 c 0.0704,0 0.1408,0.0188 0.2112,0.061 0.0704,0.0421 0.1314,0.103 0.1779,0.1829 0.0523,0.0849 0.0893,0.188 0.1132,0.31 0.0233,0.122 0.0327,0.2679 0.0327,0.432 z m 6.5877,-0.4981 c 0,0.6527 -0.1082,1.0847 -0.3238,1.301 -0.2163,0.2156 -0.6055,0.3238 -1.1739,0.3238 -0.554,0 -0.9344,-0.1082 -1.1457,-0.3194 -0.2112,-0.2113 -0.3143,-0.6338 -0.3143,-1.2676 0,-0.6527 0.1074,-1.0846 0.3238,-1.3003 0.2156,-0.2163 0.6055,-0.3245 1.1739,-0.3245 0.554,0 0.9344,0.1038 1.1456,0.3151 0.2062,0.2113 0.3144,0.6381 0.3144,1.2719 z m 15.531901,-3.5443 c 0,0.2999 -0.0464,0.5394 -0.1357,0.7137 -0.0944,0.1735 -0.2207,0.2577 -0.3855,0.2577 h -2.0096 v 3.7425 c 0,0.0748 -0.0188,0.1358 -0.0559,0.1881 -0.0377,0.0464 -0.1038,0.0936 -0.1974,0.1314 -0.0937,0.0326 -0.2207,0.0609 -0.371,0.0798 -0.1503,0.0182 -0.3427,0.0276 -0.5772,0.0276 -0.2301,0 -0.4182,-0.009 -0.5684,-0.0276 -0.1503,-0.0189 -0.2723,-0.0472 -0.3616,-0.0798 -0.0893,-0.0378 -0.1503,-0.085 -0.1829,-0.1314 -0.0327,-0.0523 -0.0516,-0.1133 -0.0516,-0.1881 v -3.7425 h -7.287501 c -0.1126,0 -0.2019,-0.0138 -0.2723,-0.0421 -0.0748,-0.0283 -0.1408,-0.0748 -0.2018,-0.1503 -0.0566,-0.0704 -0.0987,-0.1786 -0.122,-0.3143 -0.0239,-0.1365 -0.0326,-0.3151 -0.0326,-0.5358 0,-0.1735 0.004,-0.3282 0.0137,-0.4647 0.01,-0.1357 0.0284,-0.2628 0.0567,-0.3753 0.0232,-0.1176 0.061,-0.2258 0.1074,-0.3289 0.0421,-0.1082 0.0988,-0.2207 0.1648,-0.3383 l 6.348101,-10.8275 c 0.0465,-0.0748 0.1169,-0.1358 0.2062,-0.1924 0.0893,-0.0559 0.2018,-0.1031 0.3427,-0.1358 0.1408,-0.0377 0.3151,-0.066 0.5169,-0.0798 0.2062,-0.0145 0.4508,-0.0189 0.7325,-0.0189 0.3049,0 0.5772,0.009 0.803,0.0327 0.2301,0.0232 0.4174,0.0566 0.5539,0.0893 0.1408,0.0377 0.249,0.0893 0.3238,0.1452 0.0755,0.0617 0.1125,0.1321 0.1125,0.2163 v 11.3771 h 2.0096 c 0.1553,0 0.2817,0.0799 0.3761,0.2396 0.0987,0.159 0.1451,0.4036 0.1451,0.7325 z m -4.8968,-10.7527 h -0.0283 l -5.728101,9.7806 h 5.756401 z m 10.7571,14.297 c 0,0.6527 -0.1082,1.0847 -0.3238,1.301 -0.2164,0.2156 -0.6055,0.3238 -1.1739,0.3238 -0.554,0 -0.9344,-0.1082 -1.1457,-0.3194 -0.2112,-0.2113 -0.3143,-0.6338 -0.3143,-1.2676 0,-0.6527 0.1074,-1.0846 0.3238,-1.3003 0.2156,-0.2163 0.6055,-0.3245 1.1739,-0.3245 0.5539,0 0.9344,0.1038 1.1456,0.3151 0.2062,0.2113 0.3144,0.6381 0.3144,1.2719 z m 14.8328,0.5823 c 0,0.1742 -0.0145,0.3194 -0.0428,0.437 -0.0276,0.1176 -0.061,0.2157 -0.1075,0.2861 -0.0472,0.0755 -0.0987,0.127 -0.1597,0.1597 -0.061,0.0334 -0.122,0.0472 -0.1829,0.0472 h -9.2971 c -0.061,0 -0.122,-0.0138 -0.1786,-0.0472 -0.0516,-0.0327 -0.1082,-0.0842 -0.1547,-0.1597 -0.0515,-0.0704 -0.0893,-0.1685 -0.1176,-0.2861 -0.0283,-0.1176 -0.0421,-0.2628 -0.0421,-0.437 0,-0.1641 0.0138,-0.3049 0.0421,-0.4225 0.0283,-0.122 0.061,-0.2207 0.1031,-0.2955 0.0378,-0.0799 0.0893,-0.1365 0.1503,-0.1786 0.061,-0.0421 0.127,-0.061 0.1975,-0.061 h 3.7047 v -13.5507 l -3.4419,2.0567 c -0.1735,0.0893 -0.3144,0.1452 -0.4226,0.1641 -0.1031,0.0189 -0.188,0 -0.2533,-0.061 -0.0661,-0.061 -0.1082,-0.1597 -0.1314,-0.2962 -0.024,-0.1358 -0.0334,-0.3093 -0.0334,-0.5205 0,-0.1554 0.005,-0.2912 0.0188,-0.3993 0.0146,-0.1126 0.0378,-0.2019 0.0661,-0.2774 0.0283,-0.0704 0.0653,-0.1357 0.1176,-0.1924 0.0465,-0.0515 0.1125,-0.1081 0.1968,-0.164 l 4.104,-2.6252 c 0.037,-0.0276 0.0799,-0.0516 0.1358,-0.0705 0.0566,-0.0137 0.127,-0.0326 0.2069,-0.0515 0.0842,-0.0189 0.1786,-0.0327 0.2911,-0.0378 0.1082,-0.004 0.2439,-0.004 0.4131,-0.004 0.2163,0 0.4037,0.009 0.5496,0.0283 0.1452,0.0189 0.2577,0.0421 0.3426,0.0748 0.0843,0.0334 0.1358,0.0755 0.1641,0.122 0.0283,0.0522 0.0421,0.1038 0.0421,0.1597 v 15.6449 h 3.2213 c 0.0755,0 0.1459,0.0189 0.2069,0.061 0.0653,0.0421 0.1169,0.0987 0.1597,0.1786 0.0421,0.0748 0.0748,0.1735 0.098,0.2955 0.024,0.1176 0.0334,0.2584 0.0334,0.4225 z m 14.0814,-4.1643 c 0,0.8124 -0.1408,1.5492 -0.4276,2.2063 -0.2817,0.6526 -0.6897,1.2167 -1.2255,1.6857 -0.5299,0.4654 -1.1877,0.8269 -1.9667,1.0752 -0.7797,0.2541 -1.6574,0.3805 -2.639,0.3805 -0.5968,0 -1.155,-0.0465 -1.672,-0.1452 -0.5161,-0.0944 -0.9764,-0.2069 -1.3801,-0.3384 -0.4036,-0.1357 -0.7419,-0.2722 -1.0048,-0.413 -0.2678,-0.1409 -0.437,-0.244 -0.5023,-0.305 -0.0705,-0.066 -0.122,-0.1321 -0.1598,-0.1931 -0.0377,-0.0653 -0.0704,-0.1408 -0.0936,-0.2345 -0.0283,-0.0893 -0.0516,-0.2018 -0.0661,-0.3332 -0.0138,-0.1314 -0.0189,-0.2962 -0.0189,-0.4886 0,-0.3238 0.0334,-0.5539 0.0988,-0.681 0.066,-0.1263 0.1597,-0.1924 0.2817,-0.1924 0.0849,0 0.2533,0.0755 0.5024,0.2207 0.249,0.146 0.5684,0.3006 0.9583,0.4697 0.3891,0.1692 0.845,0.3238 1.3706,0.4698 0.5213,0.1452 1.1036,0.2207 1.7417,0.2207 0.62,0 1.1645,-0.0799 1.6342,-0.2353 0.4697,-0.1546 0.869,-0.3753 1.1878,-0.6621 0.3194,-0.286 0.559,-0.6243 0.7187,-1.0142 0.1597,-0.3891 0.2396,-0.8116 0.2396,-1.2719 0,-0.5075 -0.1031,-0.9627 -0.3057,-1.3664 -0.2018,-0.4043 -0.5024,-0.7564 -0.8966,-1.0476 -0.3898,-0.2954 -0.8733,-0.5205 -1.4462,-0.6759 -0.5728,-0.1546 -1.2254,-0.2345 -1.9529,-0.2345 h -1.7467 c -0.0755,0 -0.1503,-0.0145 -0.2207,-0.0472 -0.0705,-0.0326 -0.1314,-0.0842 -0.183,-0.1597 -0.0523,-0.0704 -0.0944,-0.1691 -0.127,-0.286 -0.0327,-0.1176 -0.0516,-0.2723 -0.0516,-0.4654 0,-0.1735 0.0138,-0.3143 0.0421,-0.4319 0.0283,-0.1126 0.0661,-0.2019 0.1176,-0.2723 0.0516,-0.0653 0.1075,-0.1169 0.1685,-0.1503 0.066,-0.0326 0.1415,-0.0464 0.2207,-0.0464 h 1.5594 c 0.6011,0 1.1456,-0.0799 1.6291,-0.2353 0.4792,-0.1546 0.8872,-0.3804 1.2255,-0.6759 0.3333,-0.2911 0.5917,-0.6432 0.7703,-1.0519 0.1779,-0.408 0.2672,-0.864 0.2672,-1.3707 0,-0.3666 -0.061,-0.7137 -0.1786,-1.052 -0.1169,-0.3332 -0.2955,-0.6243 -0.5351,-0.8734 -0.2396,-0.249 -0.5445,-0.4414 -0.9155,-0.5866 -0.3709,-0.1408 -0.7978,-0.2112 -1.2821,-0.2112 -0.535,0 -1.0185,0.0791 -1.4643,0.2439 -0.4465,0.1597 -0.8407,0.3332 -1.1885,0.5162 -0.347,0.1837 -0.6381,0.3572 -0.8683,0.5169 -0.2257,0.1641 -0.3898,0.2439 -0.4791,0.2439 -0.0653,0 -0.122,-0.009 -0.1735,-0.0326 -0.0472,-0.024 -0.0893,-0.0705 -0.122,-0.1409 -0.0334,-0.066 -0.0566,-0.1648 -0.0704,-0.2868 -0.0145,-0.1219 -0.0189,-0.286 -0.0189,-0.4878 0,-0.1365 0.004,-0.2585 0.0138,-0.3666 0.009,-0.1031 0.0283,-0.1975 0.0566,-0.2723 0.0284,-0.0799 0.0559,-0.1503 0.0937,-0.2163 0.0377,-0.061 0.0987,-0.1358 0.188,-0.2251 0.0842,-0.0842 0.2628,-0.2113 0.5256,-0.3753 0.2679,-0.1692 0.5968,-0.3289 0.9859,-0.4886 0.3899,-0.1641 0.8407,-0.2955 1.3482,-0.4088 0.5068,-0.1074 1.0563,-0.164 1.6429,-0.164 0.8262,0 1.5493,0.103 2.1744,0.3143 0.6193,0.2113 1.1405,0.5118 1.5587,0.8973 0.4175,0.3797 0.7275,0.84 0.9344,1.3802 0.2062,0.535 0.31,1.1267 0.31,1.7794 0,0.559 -0.0755,1.0752 -0.2207,1.5587 -0.146,0.4791 -0.3616,0.9068 -0.6483,1.2777 -0.2817,0.371 -0.6338,0.6854 -1.0469,0.9482 -0.4131,0.2628 -0.8872,0.4414 -1.4273,0.5401 v 0.0284 c 0.6105,0.0653 1.1739,0.2207 1.6806,0.4595 0.5075,0.2447 0.9438,0.5496 1.3105,0.9162 0.3659,0.3659 0.6526,0.7979 0.8588,1.2865 0.2069,0.4929 0.31,1.0142 0.31,1.5776 z"
     style="fill:#1b1918;fill-rule:evenodd"
     id="path1041" />
  <g
     id="Layer1054"
     transform="translate(-176.80134,-235.58388)">
    <path
       d="m 281.3748,717.2332 c -41.4045,0 -74.9694,5.0285 -74.9694,11.2319 0,6.2033 33.5649,11.2319 74.9694,11.2319 41.4045,0 74.9695,-5.0286 74.9695,-11.2319 0,-6.2034 -33.565,-11.2319 -74.9695,-11.2319 z"
       style="fill:#1b1918;fill-rule:evenodd"
       id="path1043" />
    <path
       d="m 280.94,714.723 c -40.8941,0 -74.0465,4.0931 -74.0465,9.1426 0,5.0495 33.1524,9.1425 74.0465,9.1425 40.8964,0 74.0473,-4.093 74.0473,-9.1425 0,-5.0495 -33.1509,-9.1426 -74.0473,-9.1426 z"
       style="fill:#ffffff;fill-rule:evenodd;stroke:#1b1918;stroke-width:0.5669;stroke-linecap:butt;stroke-linejoin:miter;stroke-dasharray:none"
       id="path1045" />
    <path
       d="m 322.0628,503.9537 c -3.4392,3.3019 -7.1087,6.6559 -11.0279,10.066 -14.1127,14.8284 -20.8213,38.4946 -21.0279,63.6213 l -0.4335,122.4705 c -0.6457,10.1874 1.014,17.6165 11.9912,22.6398 -9.7809,2.815 -28.8434,4.1639 -41.0676,-0.3496 8.5693,-0.9245 13.7202,-11.3413 13.5738,-22.7729 -0.5042,-39.4121 -1.0125,-111.9898 -1.5188,-122.6799 -6.4554,-70.9153 -29.8282,-69.807 -39.0439,-88.728 z"
       style="fill:#1b1918;fill-rule:evenodd"
       id="path1047" />
    <path
       d="m 281.222,521.5806 h -7e-4 c -2.4177,0 -4.3963,1.9779 -4.3963,4.3963 v 200.5354 c 0,2.4184 1.9786,4.397 4.3963,4.397 h 7e-4 c 2.4176,0 4.3963,-1.9786 4.3963,-4.397 V 525.9769 c 0,-2.4184 -1.9787,-4.3963 -4.3963,-4.3963 z"
       style="fill:#ffffff;fill-rule:evenodd"
       id="path1049" />
    <path
       d="m 214.0856,414.6114 c 42.6644,24.845 146.4217,26.2418 180.2774,8.0741 8.0715,-4.3321 -15.486,51.4401 -53.6047,73.6208 -20.0786,11.6832 -25.1544,10.6414 -51.1875,12.3018 -42.3931,2.7034 -45.5416,-22.467 -66.1265,-54.0327 -9.3433,-14.3285 -14.2543,-22.8692 -9.3587,-39.964 z"
       style="fill:#f5b1b5;fill-rule:evenodd"
       id="path1051" />
    <path
       d="m 394.3231,426.0386 c -0.366,7.338 -41.6941,12.6399 -92.2313,10.294 -50.5371,-2.346 -90.9744,-14.9049 -90.7425,-19.5546 0.4731,-9.4872 183.3397,1.9226 182.9738,9.2606 z"
       style="fill:#f8c7cf;fill-rule:evenodd"
       id="path1053" />
    <path
       d="m 348.9635,381.0684 c 4.3023,-7.8474 -4.0689,2.9619 -4.9313,4.4416 -9.2534,15.8769 -17.3371,29.7534 -4.5834,46.3547 -2.4396,5.0602 -12.2597,5.5559 -15.7139,5.73 -2.8644,0.1442 -5.3553,2.2577 -5.7006,5.2124 3.1954,-4.3517 5.6747,-3.3792 5.7923,-3.3852 3.862,-0.1946 15.049,-0.7586 17.5291,-7.3667 l -0.002,-9e-4 c 0.1077,-0.2883 0.0669,-0.6243 -0.1373,-0.8838 -12.462,-15.8167 -4.6042,-29.2987 4.3976,-44.7438 1.3557,-2.326 1.9573,-2.8377 3.3498,-5.3583 z"
       style="fill:#1b1918;fill-rule:evenodd"
       id="path1055" />
    <path
       d="m 318.5182,434.3239 c -2.0689,0.3873 -9.7503,6.0654 -6.9992,-0.229 0.5678,-1.2992 6.4302,0.3355 6.9992,0.229 z"
       style="fill:#1b1918;fill-rule:evenodd"
       id="path1057" />
    <path
       d="m 347.1947,248.6758 c -40.8679,-11.7645 -75.389,-16.4697 -77.1051,-10.5081 -1.7162,5.9616 30.0231,20.3305 70.891,32.095 40.8686,11.7648 75.389,16.4697 77.1052,10.5082 1.7161,-5.9616 -30.0225,-20.3304 -70.8911,-32.0951 z m -4.446,0.8939 c -35.4009,-10.1907 -65.232,-14.5187 -66.6289,-9.6661 -1.3969,4.8525 26.1696,17.0475 61.5705,27.2382 35.4028,10.1913 65.2333,14.5191 66.6302,9.6665 1.3969,-4.8526 -26.1689,-17.0473 -61.5718,-27.2386 z"
       style="fill:#1b1918;fill-rule:evenodd"
       id="path1059" />
    <path
       d="m 415.402,282.0912 c -0.7125,45.381 3.2013,86.113 -18.6712,152.7355 -14.2503,30.229 -32.5548,61.111 -93.466,89.4803 l -47.2609,-9.372 c -0.4776,-0.8405 -9.4409,-11.0671 -9.9829,-11.8871 -40.9605,-39.3037 -43.5036,-85.3339 -34.9413,-129.5637 10.2899,-43.176 33.6725,-88.6027 62.3793,-134.9449 -24.01,45.7182 -46.3843,90.9914 -55.1137,132.5598 -4.0432,32.7357 -10.3838,64.4391 34.0815,118.9396 13.9648,13.7037 30.7333,18.1267 50.4982,12.6423 48.4309,-14.6788 76.5499,-39.389 88.5338,-72.066 17.7702,-51.7551 19.7976,-99.8962 23.9432,-148.5238 z"
       style="fill:#1b1918;fill-rule:evenodd"
       id="path1061" />
    <g
       id="Layer1055">
      <g
         id="Layer1056">
        <path
           d="m 244.0162,602.5574 -2.0142,-1.9302 c -0.9268,-0.9217 0.7033,-0.5464 0.9986,-0.5777 5.6724,1.5608 4.7719,3.8036 1.0156,2.5079 z m -62.1511,-22.6551 c -1.2283,-0.6815 -2.1453,-8.4876 -2.2022,-16.5576 0.007,-7.8005 -0.4389,-9.4919 -1.3984,-16.938 -2.95,-22.8872 6.1414,-24.549 10.9501,-37.0873 -0.3041,0.1687 -0.1965,0.0708 -0.5543,0.4355 -0.0714,0.0727 -0.3882,0.4796 -0.4479,0.5661 -2.7727,4.0416 -8.3923,13.5024 -9.831,17.5216 -3.9705,11.0941 0.8314,22.702 0.5223,35.5612 -0.1087,4.5161 0.4515,10.5846 1.4893,14.9229 0.2639,1.1017 0.7521,1.7546 1.2792,2.5953 -0.1411,0.9772 0.0476,1.1945 0.037,1.5249 0.0489,2.3737 0.4922,4.5698 2.6213,6.2905 l 1.7755,1.7367 c 0.7476,1.8152 0.7169,2.169 1.9547,3.7671 2.8661,3.7004 6.8836,4.7512 10.7025,7.117 2.2964,1.7649 4.8299,6.0684 5.7898,8.0948 1.3985,2.9518 2.3811,5.661 5.1186,8.4754 2.0291,2.0861 7.3785,5.5768 12.3958,9.2434 4.5909,3.3544 8.8229,6.9234 11.669,8.3251 0.6863,0.3382 0.84,-0.3407 0.7649,-0.8832 -0.1915,-1.3901 -1.1555,-2.7628 -2.1807,-3.9303 1.7901,-4.197 -4.8754,-9.2006 -11.3371,-13.5265 -4.6925,-3.7061 -7.2861,-7.2118 -8.6374,-11.3345 2.711,-0.8832 12.6736,0.1406 13.8146,-0.7351 1.5095,0.5063 3.2506,1.303 4.245,2.3616 1.904,1.9961 3.8045,2.7831 4.2681,2.2643 0.4743,-0.5312 -0.2322,-3.0327 -0.9277,-4.8763 1.2401,-1.8561 8.2291,-0.7954 10.3431,-1.6457 0.5323,0.0861 0.753,0.1807 1.332,0.1714 4.0842,-0.1446 1.7864,-2.145 -0.865,-3.1806 -1.3804,-0.5392 -2.7848,-0.6547 -3.5523,-0.4932 -1.0196,-0.2349 -9.5451,-1.8523 -9.5296,-1.8792 -0.1899,-0.8289 -0.6791,-2.0817 -1.0078,-2.9964 -0.3271,-0.9112 -1.6206,-4.3167 -1.652,-5.1536 0.0316,-1.328 7.7568,-3.7594 9.6392,-4.2033 1.0743,-0.253 1.8373,-0.3201 2.4507,-0.5303 1.2057,-0.4137 0.7043,-1.0055 0.0339,-1.9029 -1.5137,-2.0254 -7.692,-1.516 -10.1383,-0.8805 -1.0098,0.2622 -2.9314,0.9937 -3.5466,1.8756 2.682,-1.2726 8.2913,-3.1084 9.9665,0.5295 -0.3536,0.869 -7.3516,2.3156 -8.7203,3.7719 -1.3398,-0.3591 -1.8332,-5.9122 -2.1476,-7.4277 -0.5511,-2.6559 -0.8155,-5.0546 -1.2464,-7.7049 -2.5046,-15.4086 -12.0619,-18.7055 -15.5406,-26.872 -0.2705,-0.6353 -0.4917,-1.2417 -0.6701,-1.8223 -0.3926,-0.4893 -0.8013,-1.0102 -1.1738,-1.5149 0.2841,1.7069 0.9655,3.4749 2.0445,5.4814 2.7144,5.0481 8.6758,9.6559 11.4417,14.9183 2.9424,5.5989 3.1727,10.7133 4.4173,17.5588 1.056,5.8102 3.1906,12.7446 5.2176,17.0019 l -0.003,0.0323 c -1.469,0.331 -3.4585,0.6893 -4.5011,1.7844 0.2383,0.5469 0.3609,0.6888 0.6502,1.2318 0.6212,1.1653 1.0888,3.2383 2.2488,4.4789 -0.3772,0.062 -0.158,0.2007 -0.646,-0.0795 -1.9025,-1.047 -4.9885,-3.4077 -6.2275,-4.8881 -4.5198,-5.4017 -3.9854,-19.286 -10.0181,-20.7126 -2.6588,5.2077 -1.4581,9.3295 -2.0987,14.7972 -0.4213,3.2565 0.3989,9.1978 1.5385,12.1383 0.9169,2.3665 2.5919,5.1447 5.0006,7.6145 3.3208,3.4055 16.4952,10.7185 15.0952,15.7999 -0.9899,-0.8782 -1.9629,-1.7649 -3.1316,-2.4534 -0.742,-0.4374 -0.6437,-0.5379 -1.1955,-0.0154 -0.7653,0.7246 -1.5104,1.3443 -1.1109,2.0204 l 1.7888,-1.4034 c 2.4988,1.2951 4.8838,3.7846 5.4444,5.88 0.0978,0.3647 -0.004,0.7727 -0.392,0.5315 -1.7813,-1.106 -3.314,-2.3601 -4.694,-3.1906 l -2.6429,-2.1042 c -2.8184,-2.1392 -5.6524,-4.3554 -8.6147,-6.4478 -3.1711,-2.24 -6.1114,-4.0397 -8.3389,-6.7737 -3.145,-3.8597 -4.8704,-11.7062 -10.439,-15.8951 -0.2677,-0.8183 -2.9232,-6.0488 -3.0305,-6.1121 0.1457,1.2916 0.38,2.1667 1.6425,4.8228 0.279,0.5869 0.3056,0.7654 0.6754,1.0238 l -1.4605,-0.8184 c -12.0229,-4.796 -9.154,-11.6832 -10.028,-12.4461 -0.472,0.7926 -0.1485,3.5197 -1.047,2.2687 -0.7365,-1.0253 -1.4224,-1.2066 -2.2473,-2.8637 -1.5901,-3.1921 0.149,-6.609 -0.4933,-8.5087 -0.439,1.2762 -0.5708,1.6087 -0.7006,2.2524 z m 37.7196,18.3537 -6.0647,-1.2267 c -1.1484,-0.3344 -2.7344,-0.1792 -2.1045,-2.2067 0.5094,0.1931 5.068,-1.0378 6.7499,-1.0994 0.2846,1.7675 1.0176,3.012 1.4193,4.5328 z m -6.2944,-0.6412 c 1.6456,0.7391 6.0568,0.8456 6.8138,1.3934 0.1445,0.1042 1.6904,2.0153 2.0954,2.4653 1.1566,1.2853 2.0494,1.7757 3.3047,2.7907 l -0.6289,0.2433 c -1.6652,-0.3277 -4.4855,0.0326 -6.3649,0.0939 -1.7912,0.0589 -5.0201,0.4518 -6.4125,0.3405 -1.0532,-2.2501 -0.8633,-4.8183 -1.0996,-7.3298 0.3955,-0.7365 -0.166,-0.3439 0.4676,-0.5024 0.9938,0.5273 0.9622,0.5904 1.8244,0.5051 z m -1.727,-9.5782 c 0.4765,-0.8237 -0.3086,-0.5757 1.0832,-0.2321 1.0195,0.2516 3.0816,0.347 4.0153,-0.0356 0.5339,0.8377 1.0829,4.0423 1.0075,5.1713 -1.6613,-0.1609 -6.1207,1.5238 -6.3312,0.9958 -0.2986,-0.7477 -0.1919,-3.5212 0.2252,-5.8994 z m 1.4102,-6.6978 c 1.8127,1.3838 3.1551,3.8017 3.4274,5.6268 -1.8827,0.1207 -2.2389,0.4061 -4.8774,-0.5362 0.3048,-1.3592 0.1251,-4.2778 1.45,-5.0906 z m 27.021,3.1796 c -0.7713,0.2583 -1.1273,0.2631 -1.6883,0.2842 -0.4073,-1.2367 -1.3369,-1.9985 -1.7983,-2.653 1.6924,0.0605 3.1511,-0.1653 4.0234,1.2213 0.501,0.7949 0.3422,0.8527 -0.5368,1.1475 z m -9.1724,14.4554 c -0.2499,0.0649 -0.7514,0.1421 -1.1489,0.1397 -0.6534,0.3117 -1.4688,0.2899 -2.2405,1.1368 2.1451,4.2853 2.3276,6.8005 5.6973,8.337 0.821,0.3743 0.9999,0.5002 0.9978,-0.3212 -0.006,-2.6847 -3.0705,-5.8642 -3.3057,-9.2923 z m 12.2528,3.6962 c -2.0153,0.0805 -7.0891,0.2844 -8.8299,0.9822 -1.187,0.4754 -0.1876,0.4073 -1.082,0.2395 -0.9311,-1.5032 -0.8616,-2.6219 -1.1414,-4.1586 -0.1132,-0.6226 -0.1527,-0.5425 -0.1602,-1.0997 2.6464,-0.2089 10.4125,1.4593 11.2135,4.0366 z"
           style="fill:#1b1918;fill-rule:evenodd"
           id="path1063" />
        <path
           d="m 230.8748,598.1755 c -1.0618,1.0443 -2.3083,0.8307 -3.4421,2.0748 0.018,0.0365 1.6001,6.3315 4.7176,7.9468 1.5053,0.7799 2.7538,1.8206 2.169,-0.5548 -0.3349,-1.3616 -1.2223,-3.1753 -1.8895,-5.0159 -0.7989,-2.2053 -1.3747,-4.3499 -1.555,-4.4509 z"
           style="fill:#e30016;fill-rule:evenodd"
           id="path1065" />
        <path
           d="m 228.5899,631.5044 c 1.3807,0.8312 2.915,2.07 4.652,3.1617 0.4358,0.2735 0.5516,-0.0458 0.4458,-0.4581 -0.5382,-2.1045 -2.9398,-4.6203 -5.4562,-5.9245 l -1.5037,1.1584 c -0.8101,0.3755 -0.1742,0.4409 1.8621,2.0625 z"
           style="fill:#e30016;fill-rule:evenodd"
           id="path1067" />
        <path
           d="m 240.876,584.0897 c -0.795,-2.1776 -2.4273,-1.8709 -4.3681,-1.9401 0.6539,1.5203 1.4373,0.9701 1.3078,2.7039 0.7903,-0.0299 2.1442,-0.1273 3.0603,-0.7638 z"
           style="fill:#e30016;fill-rule:evenodd"
           id="path1069" />
        <path
           d="m 247.2817,602.4459 c -0.1629,-1.2734 -5.0393,-2.9485 -5.3352,-2.4759 l -0.3627,0.1155 0.006,0.3789 2.4266,2.093 c 0.8697,0.3005 2.3165,0.9635 3.2655,-0.1115 z"
           style="fill:#e30016;fill-rule:evenodd"
           id="path1071" />
      </g>
      <path
         d="m 208.3754,546.2963 c -3.239,-6.3801 -4.699,-17.1119 -2.5784,-29.965 1.9151,-11.6078 6.8845,-25.0213 13.6596,-37.5827 l 0.7708,0.4159 c -6.7282,12.4739 -10.9257,25.5014 -12.8261,37.0195 -2.8536,17.2967 -1.6831,15.0826 0.9741,30.1123 z"
         style="fill:#1b1918;fill-rule:evenodd"
         id="path1074" />
      <path
         d="m 180.8131,521.7897 c 2.1538,-5.201 5.8827,-16.983 8.0953,-25.1545 2.14,-7.904 4.0576,-14.9855 5.3106,-17.0688 l 0.7487,0.4523 c -1.1835,1.9674 -3.0873,8.9984 -5.212,16.846 -2.2167,8.1873 -4.1431,15.5678 -6.3272,20.8418 z"
         style="fill:#1b1918;fill-rule:evenodd"
         id="path1076" />
    </g>
    <path
       d="m 300.8007,457.2692 c -0.6387,0.1838 -12.0496,-0.9423 -12.2992,-1.1757 0.8619,-5.6839 12.8203,-12.2602 18.0341,-12.2423 1.2421,0.03 1.6848,0.4022 2.7187,0.9859 2.1772,1.439 2.6243,3.6477 4.5663,3.2891 0.6882,-0.1213 2.3605,-0.5898 3.0501,-0.7889 3.7902,-0.6791 5.4522,2.2099 7.913,5.3001 0.1896,0.3524 5.5072,6.8736 4.5806,15.4264 -3.7197,-1.2755 -4.9836,-3.6494 -11.1823,-5.4226 2.7271,1.631 9.4994,3.4759 10.6931,6.4425 -0.6545,2.4031 -1.7672,3.6455 -4.4384,5.0524 -9.0262,4.8136 -22.3657,0.5372 -30.2417,-5.6454 -5.6205,-4.4109 -6.1381,-7.0437 -6.3765,-12.4199 4.1904,-0.3218 5.9219,-0.1968 13.2055,1.4987 z m 16.5336,5.006 c -1.8529,-1.7188 -4.6783,-3.3212 -6.8624,-3.9667 -1.7723,-0.5246 -6.6771,-0.7558 -8.542,-0.6341 2.8116,0.8516 4.9914,2.661 7.4232,3.607 0.887,0.3454 6.4688,0.7898 7.9812,0.9938 z"
       style="fill:#e30016;fill-rule:evenodd"
       id="path1079" />
    <path
       d="m 317.3342,462.2749 c -1.5127,-0.2036 -7.0941,-0.6483 -7.981,-0.9933 -2.4321,-0.9463 -4.6116,-2.7554 -7.4231,-3.6069 1.8647,-0.1221 6.7694,0.1092 8.5422,0.6335 2.1839,0.6458 5.009,2.2481 6.8619,3.9667 z"
       style="fill:#1b1918;fill-rule:evenodd"
       id="path1081" />
    <path
       d="m 332.0423,469.8422 c -4.4274,-4.4179 -11.6488,-7.8135 -18.3419,-8.7389 9.2795,3.1651 14.5685,7.6443 17.5426,10.506 3.7727,3.6301 4.2291,0.9547 0.7993,-1.7671 z"
       style="fill:#1b1918;fill-rule:evenodd"
       id="path1083" />
    <path
       d="m 304.5582,458.4373 c 1.4045,-0.6535 -21.9346,-5.9156 -24.5655,-1.9248 -0.409,1.6285 0.9399,1.4285 4.3448,0.883 4.582,-0.734 15.5819,-0.4956 20.2207,1.0418 z"
       style="fill:#1b1918;fill-rule:evenodd"
       id="path1085" />
    <path
       d="m 311.5761,482.8518 c 2.7484,2.3006 -5.937,-11.2608 -21.4187,-5.9128 5.378,-0.8504 18.0868,1.6905 21.4187,5.9128 z"
       style="fill:#1b1918;fill-rule:evenodd"
       id="path1087" />
    <path
       d="m 286.8412,441.2691 c 0.1565,0.9869 -0.3727,1.9107 -1.4007,1.6472 -1.5989,-0.4099 -0.7364,-3.6759 1.4007,-1.6472 z"
       style="fill:#1b1918;fill-rule:evenodd"
       id="path1089" />
    <path
       d="m 296.6772,341.1933 c 12.8572,8.3648 39.8088,27.5161 37.1449,21.3031 -1.0668,-2.4876 2.4464,-5.7033 0.4235,-7.7754 -23.5999,-24.1701 -54.5515,-47.8444 -84.7589,-14.9556 -0.0653,0.0707 25.2657,-12.8374 47.1905,1.4279 z"
       style="fill:#1b1918;fill-rule:evenodd"
       id="path1091" />
    <path
       d="m 359.2182,369.1977 c 1.7831,-1.2909 0.8753,-8.3055 2.947,-8.9594 24.1644,-7.6186 45.7009,-2.2932 44.1354,23.0338 -0.002,0.0336 -7.4865,-13.0437 -18.3369,-15.6946 -13.6955,-3.3455 -31.2248,3.4172 -28.7455,1.6202 z"
       style="fill:#1b1918;fill-rule:evenodd"
       id="path1093" />
    <path
       d="m 308.0539,403.4016 c 7.8908,-15.0923 -1.8872,-41.4883 -25.6773,-40.9057 -9.2473,0.2264 -15.1931,8.8154 -19.0417,-2.0572 -7.4852,30.5585 30.2971,39.743 44.719,42.9629 z m -0.1799,0.3807 c 8.5242,-27.6846 -24.9921,-43.8061 -39.6774,-31.1335 -1.7404,15.5997 26.6982,28.2363 39.6774,31.1335 z"
       style="fill:#1b1918;fill-rule:evenodd"
       id="path1095" />
    <g
       id="Layer1057">
      <path
         d="m 287.7724,372.4978 c -4.4858,-4.0204 -11.032,-3.6203 -14.6176,0.896 -3.5863,4.5163 -2.8553,11.4392 1.6305,15.4596 4.4865,4.0204 11.0327,3.6196 14.6183,-0.8967 3.5863,-4.5156 2.8553,-11.4385 -1.6312,-15.4589 z"
         style="fill:#1b1918;fill-rule:evenodd"
         id="path1097" />
      <path
         d="m 286.9311,376.8469 c -1.1914,-1.2844 -3.1528,-1.4009 -4.381,-0.2614 -1.2289,1.1394 -1.2595,3.1042 -0.0687,4.388 1.1915,1.2844 3.1528,1.4009 4.3818,0.2614 1.2282,-1.1395 1.2587,-3.1042 0.0679,-4.388 z"
         style="fill:#ffffff;fill-rule:evenodd"
         id="path1099" />
      <path
         d="m 283.9913,384.8968 c -0.55,-0.593 -1.4551,-0.6464 -2.0224,-0.1207 -0.5666,0.5264 -0.5812,1.4329 -0.0312,2.0258 0.55,0.5923 1.455,0.6464 2.0223,0.1207 0.5667,-0.5264 0.5812,-1.4328 0.0313,-2.0258 z"
         style="fill:#ffffff;fill-rule:evenodd"
         id="path1101" />
    </g>
    <path
       d="m 308.844,402.0915 c -9.1476,-18.2322 -33.422,-32.1661 -42.0357,-29.7012 -6.7723,1.9378 -3.5475,-4.9513 7.7184,-5.8049 15.1343,-1.1471 20.0819,-1.0943 29.9336,10.6811 1.975,2.3609 8.2142,10.2345 4.3837,24.825 z"
       style="fill:#1b1918;fill-rule:evenodd"
       id="path1104" />
    <path
       d="m 344.2658,412.7021 c 1.2024,-15.5655 20.0244,-31.154 36.6307,-18.9641 6.4549,4.7382 6.8025,14.3145 14.4283,7.8052 -8.4559,27.3262 -39.3827,15.7853 -51.059,11.1589 z m -0.0439,0.3832 c 6.4248,-25.6163 37.4512,-21.5453 42.1563,-4.4983 -5.792,12.9229 -31.6484,8.6623 -42.1563,4.4983 z"
       style="fill:#1b1918;fill-rule:evenodd"
       id="path1106" />
    <g
       id="Layer1058">
      <path
         d="m 364.6319,400.9618 c -3.6563,-3.82 -9.4126,-3.9087 -12.8546,-0.197 -3.442,3.7125 -3.2666,9.8212 0.3898,13.6412 3.657,3.82 9.4133,3.9087 12.8553,0.1962 3.442,-3.7124 3.2665,-9.8211 -0.3905,-13.6404 z"
         style="fill:#1b1918;fill-rule:evenodd"
         id="path1108" />
      <path
         d="m 363.6034,404.7117 c -0.9564,-1.2039 -2.6652,-1.4376 -3.8172,-0.5229 -1.1512,0.9148 -1.3101,2.6327 -0.3537,3.8367 0.9564,1.2039 2.6653,1.4377 3.8172,0.5229 1.1513,-0.9155 1.3101,-2.6327 0.3537,-3.8367 z"
         style="fill:#ffffff;fill-rule:evenodd"
         id="path1110" />
      <path
         d="m 360.4902,411.5604 c -0.4411,-0.5555 -1.2304,-0.6637 -1.7616,-0.2414 -0.532,0.4224 -0.6048,1.2151 -0.1637,1.7706 0.4418,0.5563 1.2303,0.6638 1.7623,0.2414 0.5312,-0.4217 0.6047,-1.2151 0.163,-1.7706 z"
         style="fill:#ffffff;fill-rule:evenodd"
         id="path1112" />
    </g>
    <path
       d="m 345.1548,410.4015 c 20.5687,-12.7853 44.592,2.7831 43.0081,-2.625 -1.4468,-4.9415 3.4947,-0.5944 -4.1702,-6.8639 -10.2962,-8.4224 -12.0454,-11.9634 -24.4333,-7.6843 -2.4842,0.8577 -10.5181,3.8927 -14.4046,17.1732 z"
       style="fill:#1b1918;fill-rule:evenodd"
       id="path1115" />
    <path
       d="m 270.1455,364.9503 c 32.0406,-4.5922 37.5091,14.8454 39.8978,38.1818 0.2032,1.9912 4.0174,-2.595 6.1304,-4.554 23.421,-21.712 9.7342,-39.0811 -10.0604,-47.2419 -5.2064,-2.1467 -9.7238,0.5729 -15.5325,3.9966 -4.0122,2.3636 -22.9516,9.9771 -20.4353,9.6175 z"
       style="fill:#ffffff;fill-rule:evenodd"
       id="path1117" />
    <path
       d="m 342.7337,412.2661 c 14.4828,-24.2229 31.138,-22.0701 47.4251,-10.353 1.3892,0.9996 0.5186,-4.1902 0.4105,-6.7337 -1.2022,-28.1895 -19.8041,-28.8817 -35.8145,-20.1975 -4.2123,2.2845 -4.9222,6.8834 -5.8843,12.7543 -0.6636,4.055 -7.2735,26.4311 -6.1368,24.5299 z"
       style="fill:#ffffff;fill-rule:evenodd"
       id="path1119" />
    <g
       id="Layer1059">
      <path
         d="m 413.8848,481.2564 c -17.556,-11.6898 -21.0998,-12.4786 -35.6123,-18.8897 -14.9403,-6.6004 -29.7115,11.2305 -48.9548,10.5886 -11.612,-0.3873 -17.6807,12.4414 -33.0515,16.0064 -7.5912,1.7614 -16.3394,3.2766 -19.6094,10.7477 -0.6735,1.5388 -12.5777,15.9326 -14.0381,19.837 -1.1311,3.0215 13.0711,0.5665 20.1663,-14.7484 2.9779,-6.4275 2.3678,-1.7761 11.0601,-4.5467 10.795,-3.4399 -9.4828,7.6899 -9.6374,12.8491 -0.2251,7.4952 -12.9402,26.684 -12.1905,31.5819 0.4504,2.9428 9.352,2.5292 15.5302,-4.3096 5.6376,-6.2399 1.3696,-18.0734 15.1509,-25.3321 0.8918,1.2848 -5.1144,14.1646 -7.5032,19.0181 -2.9665,6.0279 -0.8036,7.6528 7.5685,0.0534 10.596,-9.6183 3.5531,-9.3096 16.0396,-19.5588 4.3052,-3.5338 23.6662,-13.1433 28.5344,-14.2447 15.5586,-3.5196 16.4323,-15.9293 36.9227,-9.1097 16.8717,5.6161 22.6205,6.0157 29.6245,-9.9425 z"
         style="fill:#ffffff;fill-rule:evenodd"
         id="path1121" />
      <g
         id="Layer1060">
        <path
           d="m 295.7769,533.7345 c -1.2042,1.4867 -2.8659,4.1537 -2.0199,6.6512 2.0941,0.6153 4.4807,-3.5142 4.0651,-5.4396 -0.1565,-0.7249 -1.0348,-1.0546 -2.0452,-1.2116 z m -33.0891,-15.0509 c -0.5103,0.6337 -2.0722,1.5265 -1.8507,2.0143 0.0611,0.6063 1.5586,-0.1101 2.1176,-0.2477 3.4637,1.9465 9.02,-2.365 12.3236,-6.1938 2.9241,-3.3884 7.9747,-10.546 11.345,-12.7111 3.1097,-1.9981 10.8151,-3.5209 12.7356,-5.0512 1.532,-1.2209 9.1304,-10.9208 10.3613,-12.6312 -0.9705,0.1099 -6.4579,3.4007 -8.1527,4.0993 -9.5218,3.9262 -11.9519,3.3128 -16.0593,4.8202 -4.0303,1.4788 -4.6225,3.4543 -7.0312,5.9904 -0.0468,0.089 -0.1776,0.1386 -0.1454,0.2644 l -1.8693,2.6209 c -1.6744,2.53 -6.8134,10.3439 -8.8284,12.162 0.293,0.1227 0.5628,0.2774 0.7694,0.621 0.6001,0.9974 0.6362,2.1922 -0.1606,3.057 -1.2538,1.3611 -3.9029,2.7948 -4.8548,2.7142 4.4225,-1.8526 5.8962,-4.4789 3.9038,-5.9355 z m 62.4843,-33.9158 c -0.0422,0.1048 -0.4421,0.4578 -1.8914,1.047 -4.5669,1.8564 -4.047,1.4859 -7.9284,5.7778 -3.0322,3.3527 -17.0809,13.1361 -22.781,18.6873 -4.2852,4.1734 -5.3237,10.0831 -6.3949,14.0379 -1.1409,4.2118 -2.9512,9.5075 -4.9634,14.2283 0.6248,0.8071 1.0495,0.5651 1.5688,1.1006 2.0835,2.1486 -3.1591,6.6648 -3.7624,6.4477 1.2158,-1.6395 3.8124,-4.1356 3.4213,-5.9798 -2.1405,-0.6115 0.139,-0.9372 -1.7531,-0.4234 -0.5941,1.1865 -1.723,2.6021 -2.358,3.7759 l -1.3659,1.6958 c -1.8131,2.1745 -0.025,2.0795 1.4429,1.0956 0.5468,-0.3666 1.218,-0.6827 1.8838,-1.0641 0.6901,-0.3953 1.7697,-0.4028 2.2552,-0.6434 1.8833,0.0372 5.1649,-4.0915 6.1344,-5.5962 2.514,-3.9033 3.8509,-9.359 5.2276,-13.7566 2.3295,-7.4419 3.9321,-5.9006 8.0287,-9.5062 0.9611,-0.8455 1.7603,-1.9953 2.8652,-2.9428 2.6021,-2.2316 5.2248,-3.4711 7.8836,-5.1742 5.9629,-3.8192 7.652,-8.1855 14.1785,-10.4358 -8.1278,4.9617 -5.3428,4.537 -10.1543,8.3743 -3.674,2.9303 -7.9676,4.8219 -11.5227,8.0706 -5.6723,5.1832 -5.9409,15.591 -9.1138,19.644 3.7751,0.1616 1.8228,3.7484 1.8919,4.7345 5.2977,-3.211 7.6073,-7.4025 9.7986,-11.7775 2.8159,-5.6212 4.3153,-7.2319 10.2293,-11.5877 21.3032,-15.691 35.3571,-15.3755 43.9413,-21.4549 6.2449,-4.4225 8.0419,-5.0816 13.8176,-3.5621 6.9401,1.8262 18.0136,7.3537 23.9881,15.6312 -2.4366,-0.3909 -12.7896,-12.6794 -25.1558,-14.804 -8.3991,-1.443 -6.7849,1.0424 -14.828,5.2898 -5.1381,2.7134 -9.6295,3.8989 -14.7807,5.6076 -9.0972,3.0179 -22.7642,10.4366 -30.508,17.3229 -5.2352,4.6554 -5.4369,7.367 -8.3317,12.3537 -2.2756,3.8521 -5.9891,7.0324 -8.8376,8.3411 -0.5512,0.2534 -1.7703,1.4961 -2.24,1.6003 -2.4288,0.5392 -2.8466,-2.0883 -0.3457,-6.9653 2.4245,-4.792 4.2012,-11.1897 6.2756,-16.3474 -4.6713,3.4439 -4.8303,3.9045 -6.2455,8.258 -1.8603,5.7224 -3.3078,13.6059 -8.6162,17.6387 -1.5496,1.177 -3.6467,1.587 -5.3648,2.1212 -0.0715,0.0789 -7.507,5.5399 -4.6507,-0.4533 -1.2008,0.5318 -2.2552,0.8779 -3.1773,0.8315 -0.2978,-0.015 -0.591,0.6222 -1.1871,1.0363 -1.2428,0.8638 -2.4734,0.8477 -1.4678,-1.4996 0.3885,-1.6382 2.0073,-4.6749 2.9,-6.3401 2.777,-5.1812 4.863,-10.628 6.7508,-16.0173 4.7881,-13.669 0.5553,-10.8768 13.0215,-20.4819 l 1.7313,-1.6134 2.5216,-2.3954 c -4.7209,1.4509 -7.5894,1.5762 -11.6046,4.345 -2.6562,2.1496 -7.776,9.8267 -10.4253,12.9367 -2.2581,2.6504 -6.2423,4.7324 -9.6031,5.3531 -1.0453,0.1932 -1.6204,-0.5308 -2.5898,-0.4294 -1.278,0.1337 -4.3818,1.0828 -1.9031,-1.1405 11.4407,-11.0644 9.3647,-12.5788 14.2516,-18.066 l 2.1995,-3.3722 c 2.8333,-3.0013 3.4308,-5.1184 8.1195,-6.6252 2.9674,-0.9535 5.8166,-1.0572 8.9727,-1.9945 5.4602,-1.6218 14.2476,-4.8114 18.2307,-9.4934 10.4634,-12.2996 14.9622,-3.5514 35.4497,-12.7331 18.6612,-8.3635 18.9351,-10.8474 35.2092,-3.9719 6.5803,2.7801 25.5935,12.8246 31.2599,16.77 l -0.249,0.1241 c -9.6055,-5.0078 -19.1341,-10.6131 -28.8022,-15.1496 -15.2888,-7.1737 -17.8315,-6.0527 -31.7191,0.4792 -5.2234,2.4566 -11.8438,5.5603 -17.1627,6.5664 -2.8732,0.5433 -5.3122,0.8328 -8.0932,1.1464 -2.6818,0.3024 -5.1444,0.2064 -8.0779,1.5036 -7.9897,3.5331 -17.1563,20.1231 -25.0551,26.5241 l -2.0682,1.9357 c -3.3436,2.3732 -6.9411,4.5814 -8.8469,7.9784 -1.7535,3.1255 -5.5076,20.1418 -10.2707,26.6362 2.1752,-1.3474 2.3427,2.4994 -0.0746,5.7232 -0.3003,0.4006 -0.6405,0.7917 -1.0219,1.1619 1.6781,-2.4181 3.6185,-7.5722 1.041,-6.5618 l -2.9262,5.8254 c -1.2639,2.3879 -1.2048,3.6322 1.1063,1.2351 0.4414,-0.4576 1.2189,0.1091 2.109,-0.3686 1.763,-0.9461 4.2173,-3.4391 4.8199,-4.941 2.3639,-6.0391 4.3805,-10.8613 5.8152,-17.1977 1.7486,-7.7228 3.7018,-11.3409 10.4096,-16.2825 l 18.5964,-15.0653 c 1.2385,-1.1727 2.4089,-2.7166 3.9067,-3.8586 1.3878,-1.0583 5.1368,-2.7169 6.9653,-2.9204 z"
           style="fill:#1b1918;fill-rule:evenodd"
           id="path1123" />
        <path
           d="m 276.217,545.6934 1.2277,-1.7332 c 0.5407,-0.6466 0.7447,-0.8629 1.2405,-1.5692 0.837,-1.1924 1.3823,-2.1064 2.1942,-3.1408 1.1575,-0.5062 1.3278,0.395 2.0582,1.0165 -0.0291,3.0498 -4.047,6.4398 -6.0107,7.0431 -1.0356,0.3182 -1.4186,-0.4324 -0.7099,-1.6164 z"
           style="fill:#e30016;fill-rule:evenodd"
           id="path1125" />
        <path
           d="m 297.6198,537.5141 c -0.4662,1.8642 -2.3221,3.3551 -4.2345,3.2623 -0.4347,-1.4916 0.42,-4.9285 1.6242,-6.4152 1.9697,-1.5824 3.2328,-0.2791 2.6103,3.1529 z"
           style="fill:#e30016;fill-rule:evenodd"
           id="path1127" />
        <path
           d="m 274.1435,538.2724 c 1.1575,-0.5062 1.7806,2e-4 1.5045,0.9165 -0.0794,3.327 -2.915,7.0585 -4.8183,7.8305 -2.1117,0.8564 2.519,-7.7344 3.3138,-8.747 z"
           style="fill:#e30016;fill-rule:evenodd"
           id="path1129" />
        <path
           d="m 267.0746,514.2505 c 1.2621,0.0509 1.8775,1.8711 1.474,2.0028 -0.2002,0.388 -0.4015,0.8022 -0.7272,1.1175 -2.0896,2.0248 -5.6277,3.1621 -7.0345,3.5798 -1.2433,0.3693 0.8152,-1.5254 2.8549,-3.3827 1.5421,-1.4038 2.9342,-3.0749 3.4328,-3.3174 z"
           style="fill:#e30016;fill-rule:evenodd"
           id="path1131" />
      </g>
    </g>
  </g>
</svg>
